<?xml version="1.0" encoding="utf-8" ?>
<svg xmlns="http://www.w3.org/2000/svg" version="1.1" width="400" height="400" viewBox="0 0 400 400">
  <g>
    <path fill="none" stroke="rgb(0, 0, 0)" stroke-width="13.0" stroke-linecap="round" stroke-linejoin="round" d=" M 129.076, 93.007 124.957, 98.649 124.528, 99.286 124.152, 99.931 123.827, 100.581 123.554, 101.237 121.285, 107.985 121.060, 108.660 120.888, 109.340 120.770, 110.024 120.706, 110.713 119.989, 120.687 119.273, 130.661 118.557, 140.635 117.840, 150.610 117.124, 160.584 116.408, 170.558 115.692, 180.533 114.975, 190.507 114.259, 200.481 113.946, 204.838 113.935, 205.531 113.978, 206.226 114.075, 206.925 114.225, 207.626 115.620, 212.528 115.819, 213.217 116.071, 213.908 116.375, 214.601 116.731, 215.294 117.139, 215.987 117.598, 216.680 118.108, 217.373 118.670, 218.065 119.282, 218.756 119.944, 219.445 120.656, 220.132 121.418, 220.816 122.228, 221.497 123.087, 222.175 130.864, 228.016 131.677, 228.620 132.533, 229.221 133.430, 229.818 134.369, 230.410 135.348, 230.997 136.368, 231.579 137.428, 232.156 138.526, 232.726 139.663, 233.291 140.838, 233.849 142.049, 234.400 143.297, 234.943 144.580, 235.480 145.898, 236.008 147.250, 236.528 148.635, 237.040 150.052, 237.543 151.501, 238.036 152.980, 238.521 154.489, 238.995 156.026, 239.460 157.591, 239.914 159.184, 240.358 160.802, 240.791 162.445, 241.213 164.112, 241.623 165.802, 242.022 167.514, 242.409 169.247, 242.785 170.999, 243.147 172.771, 243.498 174.560, 243.835 176.366, 244.160 178.187, 244.472 180.023, 244.770 181.872, 245.055 183.733, 245.326 185.606, 245.584 187.488, 245.827 189.380, 246.056 191.279, 246.271 193.185, 246.472 195.096, 246.658 197.011, 246.830 198.930, 246.987 200.850, 247.129 202.772, 247.256 204.693, 247.368 206.612, 247.466 208.529, 247.548 210.442, 247.615 212.350, 247.666 214.252, 247.703 216.146, 247.724 218.033, 247.730 219.909, 247.721 221.775, 247.697 223.630, 247.657 225.471, 247.602 227.298, 247.532 229.111, 247.447 230.907, 247.346 232.685, 247.231 234.446, 247.101 236.187, 246.956 237.907, 246.796 239.606, 246.621 241.282, 246.432 242.935, 246.228 244.564, 246.010 246.166, 245.778 247.743, 245.532 249.292, 245.271 250.812, 244.997 252.303, 244.710 253.765, 244.409 255.195, 244.094 256.593, 243.767 257.958, 243.427 259.290, 243.074 260.587, 242.708 261.849, 242.331 263.075, 241.941 264.265, 241.540 265.417, 241.127 266.531, 240.703 267.607, 240.267 268.642, 239.821 269.638, 239.365 270.594, 238.898 271.508, 238.422 279.983, 233.783 280.957, 233.241 281.883, 232.688 282.761, 232.125 283.591, 231.552 284.372, 230.970 285.104, 230.379 285.787, 229.779 286.419, 229.170 287.001, 228.554 287.532, 227.930 288.012, 227.299 288.441, 226.661 288.818, 226.017 289.143, 225.366 291.220, 220.721 291.499, 220.052 291.724, 219.377 291.896, 218.697 292.014, 218.013 292.078, 217.324 292.794, 207.350 293.511, 197.376 294.227, 187.401 294.943, 177.427 295.660, 167.453 296.376, 157.478 297.092, 147.504 297.808, 137.530 298.525, 127.555 298.838, 123.198 298.848, 122.506 298.806, 121.810 298.709, 121.112 297.426, 114.101 297.279, 113.414 297.080, 112.725 296.828, 112.034 296.524, 111.342 296.168, 110.649 293.035, 104.736 "/>
    <path fill="none" stroke="rgb(0, 0, 0)" stroke-width="13.0" stroke-linecap="round" stroke-linejoin="round" d=" M 290.895, 107.397 290.780, 107.674 290.481, 108.273 290.133, 108.867 289.738, 109.456 289.296, 110.037 288.806, 110.613 288.270, 111.181 287.687, 111.741 287.058, 112.294 286.383, 112.839 285.663, 113.376 284.897, 113.904 284.088, 114.423 283.234, 114.933 282.337, 115.433 281.397, 115.923 280.415, 116.403 279.391, 116.872 278.325, 117.331 277.220, 117.778 276.074, 118.215 274.889, 118.639 273.666, 119.052 272.405, 119.453 271.107, 119.841 269.773, 120.217 268.403, 120.580 266.999, 120.930 265.561, 121.266 264.091, 121.589 262.588, 121.899 261.055, 122.195 259.491, 122.477 257.899, 122.744 256.278, 122.998 254.629, 123.237 252.955, 123.461 251.255, 123.670 249.531, 123.865 247.784, 124.044 246.015, 124.209 244.656, 124.322 244.225, 124.358 242.414, 124.492 240.585, 124.611 238.738, 124.714 236.875, 124.801 234.996, 124.873 233.102, 124.930 231.195, 124.971 229.276, 124.996 227.346, 125.005 225.407, 124.999 223.458, 124.977 221.502, 124.940 219.540, 124.886 217.573, 124.818 215.602, 124.733 213.628, 124.633 211.653, 124.518 209.677, 124.387 207.702, 124.241 205.729, 124.079 203.759, 123.903 201.794, 123.712 199.834, 123.505 197.881, 123.284 195.936, 123.048 194.000, 122.798 192.075, 122.533 190.161, 122.254 188.259, 121.961 186.371, 121.654 184.498, 121.334 182.641, 121.000 180.801, 120.653 178.980, 120.293 177.177, 119.919 175.396, 119.534 173.635, 119.136 173.116, 119.013 171.897, 118.725 170.183, 118.303 168.493, 117.869 166.829, 117.424 165.192, 116.968 163.582, 116.500 162.001, 116.023 160.450, 115.535 158.928, 115.037 157.439, 114.529 155.981, 114.012 154.557, 113.486 153.167, 112.951 151.812, 112.407 150.492, 111.856 149.209, 111.297 147.963, 110.730 146.755, 110.156 145.586, 109.576 144.457, 108.989 143.367, 108.396 142.318, 107.798 141.311, 107.194 140.346, 106.585 139.423, 105.972 138.543, 105.354 137.707, 104.732 136.916, 104.107 136.169, 103.479 135.467, 102.848 134.810, 102.215 134.200, 101.580 133.636, 100.944 133.118, 100.306 132.648, 99.667 132.224, 99.028 131.848, 98.389 131.520, 97.750 131.240, 97.112 131.008, 96.475 130.883, 96.044 "/>
    <path fill="none" stroke="rgb(0, 0, 0)" stroke-width="13.0" stroke-linecap="round" stroke-linejoin="round" d=" M 244.656, 124.322 246.626, 124.125 249.520, 123.783 252.335, 123.395 255.067, 122.962 256.152, 122.789 258.857, 122.301 261.465, 121.769 263.972, 121.194 266.372, 120.577 268.660, 119.920 270.831, 119.223 272.194, 118.764 274.289, 118.014 276.257, 117.226 278.094, 116.403 279.497, 115.700 281.232, 114.826 282.826, 113.919 284.275, 112.981 285.660, 112.044 286.985, 111.060 288.157, 110.048 289.453, 108.910 290.486, 107.857 290.895, 107.397 291.647, 106.553 292.532, 105.462 293.035, 104.736 293.537, 104.014 294.266, 102.888 295.097, 101.318 295.665, 100.162 296.307, 98.495 296.708, 97.314 297.150, 95.576 297.381, 94.375 297.615, 92.594 297.673, 91.379 297.696, 89.583 297.581, 88.359 297.392, 86.577 296.994, 84.830 296.710, 83.609 296.109, 81.929 295.660, 80.713 294.868, 79.127 294.257, 77.921 293.482, 76.714 292.523, 75.264 291.598, 74.075 290.483, 72.769 289.415, 71.602 288.192, 70.441 286.963, 69.322 285.613, 68.190 284.116, 67.069 282.808, 66.158 281.199, 65.071 279.453, 63.999 277.573, 62.944 275.563, 61.909 274.295, 61.267 272.204, 60.275 269.994, 59.305 267.669, 58.360 265.234, 57.442 262.694, 56.553 260.053, 55.694 259.024, 55.374 256.352, 54.566 253.592, 53.791 250.751, 53.050 247.833, 52.346 244.846, 51.679 241.795, 51.051 238.685, 50.463 235.524, 49.916 232.318, 49.412 229.073, 48.951 225.795, 48.534 222.492, 48.163 219.170, 47.837 215.836, 47.558 212.495, 47.326 209.156, 47.142 205.825, 47.006 202.509, 46.917 199.213, 46.878 195.945, 46.887 192.712, 46.944 189.520, 47.049 186.375, 47.203 183.284, 47.405 180.253, 47.654 177.287, 47.950 174.394, 48.292 171.579, 48.680 168.847, 49.113 167.762, 49.286 165.057, 49.774 162.448, 50.306 159.942, 50.881 157.542, 51.498 155.254, 52.155 153.082, 52.852 151.720, 53.311 149.625, 54.061 147.656, 54.849 145.820, 55.672 144.417, 56.376 142.682, 57.250 141.088, 58.156 139.639, 59.094 138.254, 60.032 136.929, 61.016 135.757, 62.027 134.461, 63.165 133.428, 64.219 132.267, 65.522 131.382, 66.614 130.377, 68.062 129.647, 69.188 128.816, 70.758 128.249, 71.913 127.606, 73.581 127.206, 74.761 126.764, 76.499 126.533, 77.700 126.299, 79.481 126.241, 80.696 126.218, 82.492 126.332, 83.717 126.521, 85.498 126.920, 87.245 127.204, 88.466 127.804, 90.146 128.254, 91.362 129.046, 92.948 129.076, 93.007 129.656, 94.154 130.432, 95.361 130.883, 96.044 131.390, 96.811 132.316, 98.001 133.431, 99.306 134.499, 100.473 135.721, 101.634 136.951, 102.753 138.301, 103.885 139.798, 105.007 141.106, 105.918 142.715, 107.004 144.461, 108.076 146.341, 109.131 148.351, 110.166 149.619, 110.808 151.710, 111.800 153.920, 112.770 156.245, 113.715 158.680, 114.633 161.220, 115.522 163.861, 116.382 164.889, 116.702 167.562, 117.510 170.322, 118.285 173.116, 119.013 "/>
    <path fill="none" stroke="rgb(0, 0, 0)" stroke-width="13.0" stroke-linecap="round" stroke-linejoin="round" d=" M 158.785, 77.015 158.747, 76.979 158.740, 76.973 158.719, 76.953 158.627, 76.852 158.532, 76.748 158.135, 76.314 157.966, 76.130 "/>
    <path fill="none" stroke="rgb(0, 0, 0)" stroke-width="13.0" stroke-linecap="round" stroke-linejoin="round" d=" M 160.076, 78.032 159.345, 77.485 158.785, 77.015 158.750, 76.986 158.745, 76.981 158.696, 76.941 158.613, 76.872 158.564, 76.830 158.352, 76.653 "/>
    <path fill="none" stroke="rgb(0, 0, 0)" stroke-width="13.0" stroke-linecap="round" stroke-linejoin="round" d=" M 285.660, 112.044 284.185, 112.998 282.563, 113.921 280.797, 114.811 278.890, 115.665 276.848, 116.482 274.673, 117.261 272.370, 118.000 269.943, 118.697 267.399, 119.351 264.741, 119.960 261.975, 120.525 259.107, 121.042 256.142, 121.512 253.086, 121.933 249.946, 122.304 246.728, 122.625 243.439, 122.896 240.084, 123.115 236.671, 123.281 233.206, 123.396 229.697, 123.458 226.151, 123.468 222.575, 123.425 218.975, 123.329 215.360, 123.181 211.736, 122.981 208.112, 122.729 204.493, 122.427 200.887, 122.073 197.303, 121.670 193.746, 121.218 190.224, 120.718 186.744, 120.170 183.314, 119.577 179.939, 118.939 176.628, 118.257 173.385, 117.534 170.219, 116.769 167.136, 115.966 164.141, 115.125 161.240, 114.248 158.440, 113.337 155.747, 112.393 153.164, 111.420 150.699, 110.418 148.355, 109.390 146.138, 108.337 144.052, 107.263 142.101, 106.168 140.288, 105.056 138.619, 103.928 137.096, 102.786 135.721, 101.634 "/>
    <path fill="none" stroke="rgb(0, 0, 0)" stroke-width="13.0" stroke-linecap="round" stroke-linejoin="round" d=" M 163.729, 80.161 163.167, 79.872 161.720, 79.060 160.376, 78.235 160.076, 78.032 159.314, 77.517 159.269, 77.487 159.138, 77.399 "/>
    <path fill="none" stroke="rgb(0, 0, 0)" stroke-width="13.0" stroke-linecap="round" stroke-linejoin="round" d=" M 174.543, 84.398 172.823, 83.838 170.770, 83.119 170.648, 83.073 168.802, 82.377 166.923, 81.613 165.136, 80.830 163.729, 80.161 163.447, 80.028 "/>
    <path fill="none" stroke="rgb(0, 0, 0)" stroke-width="13.0" stroke-linecap="round" stroke-linejoin="round" d=" M 250.628, 89.536 249.627, 89.695 248.305, 89.905 245.910, 90.234 243.449, 90.526 240.927, 90.777 238.349, 90.989 235.720, 91.161 233.045, 91.291 230.329, 91.381 227.579, 91.430 224.800, 91.438 221.997, 91.404 219.176, 91.329 216.343, 91.213 213.503, 91.056 210.662, 90.859 207.826, 90.622 205.000, 90.345 202.191, 90.029 199.403, 89.674 196.643, 89.282 193.916, 88.853 191.227, 88.388 188.583, 87.888 185.987, 87.354 183.446, 86.787 180.965, 86.188 178.548, 85.558 176.201, 84.899 174.543, 84.398 173.928, 84.211 "/>
    <path fill="none" stroke="rgb(0, 0, 0)" stroke-width="13.0" stroke-linecap="round" stroke-linejoin="round" d=" M 261.406, 86.828 260.640, 87.074 259.651, 87.391 257.802, 87.923 255.863, 88.421 253.837, 88.886 253.266, 89.002 251.729, 89.316 249.627, 89.695 "/>
    <path fill="none" stroke="rgb(0, 0, 0)" stroke-width="13.0" stroke-linecap="round" stroke-linejoin="round" d=" M 264.586, 85.470 264.496, 85.510 263.172, 86.104 261.657, 86.710 260.640, 87.074 "/>
    <path fill="none" stroke="rgb(0, 0, 0)" stroke-width="13.0" stroke-linecap="round" stroke-linejoin="round" d=" M 266.698, 84.175 266.097, 84.563 266.086, 84.571 265.977, 84.641 265.750, 84.788 265.632, 84.864 264.496, 85.510 "/>
    <path fill="none" stroke="rgb(0, 0, 0)" stroke-width="13.0" stroke-linecap="round" stroke-linejoin="round" d=" M 267.075, 83.705 266.628, 84.090 266.248, 84.418 266.170, 84.476 266.055, 84.562 265.750, 84.788 "/>
    <path fill="none" stroke="rgb(0, 0, 0)" stroke-width="13.0" stroke-linecap="round" stroke-linejoin="round" d=" M 266.481, 84.127 266.055, 84.562 "/>
    <path fill="none" stroke="rgb(0, 0, 0)" stroke-width="13.0" stroke-linecap="round" stroke-linejoin="round" d=" M 158.747, 76.979 158.500, 76.493 "/>
    <path fill="none" stroke="rgb(0, 0, 0)" stroke-width="13.0" stroke-linecap="round" stroke-linejoin="round" d=" M 158.627, 76.852 158.452, 76.628 "/>
  </g>
</svg>
