<?xml version="1.0" encoding="utf-8" ?>
<svg xmlns="http://www.w3.org/2000/svg" version="1.1" width="400" height="400" viewBox="0 0 400 400">
  <g>
    <path fill="none" stroke="rgb(0, 0, 0)" stroke-width="13.0" stroke-linecap="round" stroke-linejoin="round" d=" M 112.994, 225.358 112.589, 225.985 112.044, 226.912 111.550, 227.843 111.108, 228.779 110.717, 229.718 110.379, 230.660 110.092, 231.605 108.460, 238.106 108.221, 239.072 108.035, 240.039 107.903, 241.007 107.825, 241.976 107.801, 242.943 108.016, 252.941 108.231, 262.939 108.447, 272.937 108.662, 282.934 108.877, 292.932 109.092, 302.930 109.308, 312.927 109.523, 322.925 109.722, 332.156 109.751, 333.123 109.834, 334.089 109.971, 335.052 110.162, 336.013 110.406, 336.970 110.703, 337.923 111.054, 338.872 112.878, 343.291 113.273, 344.217 113.721, 345.137 114.219, 346.051 114.769, 346.958 115.370, 347.858 116.021, 348.751 116.722, 349.636 117.473, 350.511 118.272, 351.378 119.121, 352.234 120.018, 353.081 120.962, 353.916 121.954, 354.741 122.991, 355.553 124.075, 356.353 125.204, 357.141 126.377, 357.915 127.595, 358.675 128.855, 359.422 130.158, 360.153 131.502, 360.870 132.886, 361.571 139.877, 364.984 141.154, 365.598 142.466, 366.198 143.812, 366.782 145.192, 367.352 146.604, 367.905 148.048, 368.443 149.523, 368.964 151.028, 369.468 152.561, 369.956 154.123, 370.426 155.712, 370.879 157.327, 371.313 158.968, 371.730 160.632, 372.129 162.320, 372.509 164.030, 372.870 165.761, 373.212 167.513, 373.535 169.284, 373.838 171.072, 374.122 172.878, 374.386 174.699, 374.630 176.535, 374.854 178.385, 375.058 180.248, 375.241 182.121, 375.404 184.006, 375.547 185.899, 375.669 187.800, 375.770 189.708, 375.850 191.622, 375.910 193.541, 375.948 195.463, 375.966 197.387, 375.963 199.312, 375.939 201.238, 375.895 203.162, 375.829 205.083, 375.743 207.002, 375.635 208.915, 375.507 210.823, 375.359 212.723, 375.190 214.616, 375.001 216.499, 374.791 218.372, 374.561 220.233, 374.311 222.082, 374.041 223.917, 373.752 225.737, 373.443 227.541, 373.114 229.328, 372.767 231.096, 372.400 232.846, 372.015 234.575, 371.611 236.283, 371.189 237.969, 370.749 239.632, 370.291 241.270, 369.816 242.882, 369.323 244.469, 368.814 246.028, 368.288 247.559, 367.746 249.061, 367.188 250.533, 366.614 251.974, 366.025 253.383, 365.421 254.759, 364.803 256.102, 364.170 257.411, 363.524 258.685, 362.864 265.424, 359.206 266.805, 358.456 268.146, 357.691 269.444, 356.913 270.700, 356.122 271.914, 355.318 273.083, 354.502 274.207, 353.674 275.287, 352.836 276.320, 351.986 277.307, 351.127 278.247, 350.257 279.140, 349.379 279.984, 348.492 280.779, 347.597 281.525, 346.695 282.221, 345.785 282.868, 344.870 283.463, 343.948 284.008, 343.021 284.502, 342.089 284.945, 341.153 285.336, 340.214 286.963, 335.733 287.309, 334.772 287.601, 333.808 287.840, 332.842 288.025, 331.875 288.157, 330.907 288.235, 329.939 288.260, 328.971 288.044, 318.973 287.829, 308.975 287.614, 298.978 287.399, 288.980 287.183, 278.982 286.968, 268.985 286.753, 258.987 286.538, 248.989 286.339, 239.758 286.309, 238.791 286.226, 237.825 286.089, 236.862 285.899, 235.901 285.655, 234.944 283.740, 228.506 283.449, 227.572 283.105, 226.642 282.710, 225.717 282.262, 224.797 281.764, 223.883 281.214, 222.976 280.614, 222.076 280.326, 221.670 "/>
    <path fill="none" stroke="rgb(0, 0, 0)" stroke-width="13.0" stroke-linecap="round" stroke-linejoin="round" d=" M 275.574, 230.408 275.438, 230.697 274.983, 231.556 274.480, 232.411 273.931, 233.260 273.335, 234.104 272.693, 234.943 272.005, 235.775 271.272, 236.600 270.494, 237.417 269.672, 238.227 268.805, 239.028 267.896, 239.820 266.943, 240.603 265.948, 241.377 264.911, 242.140 263.833, 242.892 262.715, 243.633 261.557, 244.362 260.360, 245.079 259.124, 245.784 257.851, 246.476 256.542, 247.154 255.196, 247.819 253.814, 248.469 252.399, 249.105 250.950, 249.726 249.468, 250.332 247.954, 250.922 246.410, 251.496 244.836, 252.053 243.232, 252.594 241.601, 253.118 239.942, 253.624 238.258, 254.113 236.548, 254.584 234.815, 255.036 233.058, 255.470 231.280, 255.886 229.481, 256.282 227.662, 256.659 225.824, 257.016 223.969, 257.354 222.098, 257.672 220.211, 257.970 218.310, 258.247 216.396, 258.504 214.470, 258.741 212.533, 258.956 210.587, 259.151 208.632, 259.325 206.671, 259.477 204.703, 259.609 202.731, 259.719 200.754, 259.808 198.776, 259.876 196.796, 259.922 194.816, 259.946 192.837, 259.949 190.861, 259.931 188.888, 259.891 186.920, 259.830 184.958, 259.747 183.002, 259.643 181.055, 259.518 179.118, 259.371 177.191, 259.204 175.276, 259.015 173.373, 258.805 171.485, 258.575 169.612, 258.324 167.755, 258.053 165.916, 257.761 164.095, 257.449 162.294, 257.117 160.514, 256.765 158.755, 256.394 157.019, 256.003 155.308, 255.593 153.621, 255.165 151.960, 254.717 150.326, 254.252 148.720, 253.768 147.142, 253.267 145.595, 252.748 144.079, 252.212 142.594, 251.660 141.142, 251.090 139.723, 250.505 138.338, 249.904 136.989, 249.287 135.676, 248.656 134.399, 248.010 133.160, 247.349 131.960, 246.674 130.798, 245.987 129.676, 245.286 128.594, 244.572 127.553, 243.846 126.554, 243.108 125.598, 242.359 124.684, 241.600 123.813, 240.829 122.987, 240.049 122.204, 239.259 121.467, 238.461 120.775, 237.653 120.129, 236.838 119.529, 236.015 118.975, 235.185 118.468, 234.349 118.305, 234.050 "/>
    <path fill="none" stroke="rgb(0, 0, 0)" stroke-width="13.0" stroke-linecap="round" stroke-linejoin="round" d=" M 196.021, 164.693 192.596, 164.788 189.178, 164.951 185.774, 165.181 182.391, 165.478 179.035, 165.842 175.714, 166.271 172.434, 166.764 169.201, 167.322 166.023, 167.942 162.905, 168.623 159.854, 169.365 159.085, 169.556 156.043, 170.373 153.081, 171.248 150.206, 172.180 147.423, 173.166 144.739, 174.204 142.158, 175.293 139.686, 176.431 138.590, 176.962 136.184, 178.169 133.900, 179.420 131.741, 180.712 129.711, 182.044 128.557, 182.854 126.627, 184.246 124.838, 185.674 123.192, 187.133 122.083, 188.178 120.561, 189.688 119.191, 191.225 118.195, 192.458 116.964, 194.039 115.893, 195.639 115.042, 197.034 114.123, 198.669 113.369, 200.318 112.690, 201.842 112.098, 203.516 111.613, 205.126 111.188, 206.817 110.909, 208.484 110.654, 210.185 110.572, 211.886 110.502, 213.584 110.593, 215.284 110.736, 216.976 110.999, 218.668 111.351, 220.324 111.785, 221.999 112.339, 223.591 112.940, 225.243 112.994, 225.358 113.709, 226.879 114.449, 228.364 115.377, 229.966 116.291, 231.329 117.371, 232.891 118.305, 234.050 118.610, 234.427 119.664, 235.624 121.042, 237.112 122.572, 238.568 123.735, 239.572 125.388, 240.972 127.185, 242.336 129.121, 243.660 130.322, 244.427 132.359, 245.686 134.524, 246.902 136.815, 248.071 139.227, 249.192 140.362, 249.683 142.840, 250.732 145.427, 251.729 148.117, 252.672 150.904, 253.558 153.784, 254.387 156.750, 255.157 159.796, 255.865 162.917, 256.512 163.652, 256.661 166.773, 257.231 169.954, 257.738 173.189, 258.180 176.472, 258.556 179.795, 258.867 183.152, 259.110 186.537, 259.286 189.942, 259.395 193.360, 259.436 196.786, 259.409 200.211, 259.314 203.629, 259.151 207.033, 258.921 210.416, 258.624 213.772, 258.260 217.093, 257.831 220.373, 257.338 223.606, 256.780 226.784, 256.160 229.902, 255.479 232.953, 254.738 233.722, 254.546 236.764, 253.729 239.726, 252.854 242.601, 251.922 245.384, 250.936 248.068, 249.898 250.649, 248.809 253.121, 247.671 254.217, 247.140 256.623, 245.933 258.907, 244.683 261.066, 243.390 263.096, 242.058 264.250, 241.248 266.180, 239.856 267.969, 238.428 269.615, 236.969 270.724, 235.924 272.246, 234.414 273.616, 232.877 274.612, 231.644 275.574, 230.408 275.843, 230.063 276.914, 228.463 277.765, 227.068 278.684, 225.433 279.438, 223.784 280.117, 222.260 280.326, 221.670 280.709, 220.586 281.194, 218.976 281.619, 217.285 281.899, 215.618 282.153, 213.917 282.235, 212.216 282.305, 210.518 282.214, 208.818 282.071, 207.126 281.808, 205.435 281.456, 203.778 281.022, 202.103 280.468, 200.511 279.867, 198.859 279.098, 197.223 278.358, 195.738 277.430, 194.136 276.516, 192.773 275.436, 191.211 274.198, 189.675 273.143, 188.478 271.765, 186.990 270.235, 185.534 269.072, 184.530 267.419, 183.130 265.623, 181.766 263.686, 180.442 262.485, 179.675 260.448, 178.416 258.283, 177.200 255.992, 176.031 253.580, 174.910 252.445, 174.419 249.967, 173.370 247.380, 172.373 244.690, 171.430 241.903, 170.544 239.023, 169.715 236.057, 168.945 233.011, 168.237 229.890, 167.590 229.155, 167.441 226.034, 166.871 222.853, 166.364 219.618, 165.922 216.335, 165.546 213.012, 165.236 209.655, 164.992 206.270, 164.816 202.865, 164.707 199.447, 164.666 196.021, 164.693 "/>
    <path fill="none" stroke="rgb(0, 0, 0)" stroke-width="13.0" stroke-linecap="round" stroke-linejoin="round" d=" M 144.847, 213.168 145.246, 212.719 145.702, 212.267 146.280, 211.693 "/>
    <path fill="none" stroke="rgb(0, 0, 0)" stroke-width="13.0" stroke-linecap="round" stroke-linejoin="round" d=" M 144.649, 212.954 144.389, 212.632 144.389, 212.631 144.231, 212.436 144.196, 212.392 144.177, 212.365 144.173, 212.360 144.137, 212.307 144.122, 212.286 144.096, 212.248 144.062, 212.198 144.032, 212.155 143.487, 211.366 "/>
    <path fill="none" stroke="rgb(0, 0, 0)" stroke-width="13.0" stroke-linecap="round" stroke-linejoin="round" d=" M 145.743, 214.026 144.891, 213.215 144.847, 213.168 144.829, 213.149 144.820, 213.139 144.649, 212.954 144.384, 212.668 144.383, 212.667 144.335, 212.615 144.297, 212.574 144.218, 212.488 144.192, 212.460 144.181, 212.449 144.175, 212.443 144.171, 212.438 144.130, 212.393 144.126, 212.390 143.955, 212.205 "/>
    <path fill="none" stroke="rgb(0, 0, 0)" stroke-width="13.0" stroke-linecap="round" stroke-linejoin="round" d=" M 148.191, 215.826 147.199, 215.148 145.932, 214.187 145.743, 214.026 144.796, 213.224 144.781, 213.212 144.769, 213.202 144.767, 213.200 "/>
    <path fill="none" stroke="rgb(0, 0, 0)" stroke-width="13.0" stroke-linecap="round" stroke-linejoin="round" d=" M 153.642, 218.693 152.139, 217.995 150.454, 217.135 148.861, 216.241 148.191, 215.826 147.364, 215.314 "/>
    <path fill="none" stroke="rgb(0, 0, 0)" stroke-width="13.0" stroke-linecap="round" stroke-linejoin="round" d=" M 264.250, 241.248 262.185, 242.604 259.987, 243.920 257.662, 245.193 255.214, 246.421 252.648, 247.601 249.969, 248.731 247.183, 249.809 244.295, 250.833 241.311, 251.800 238.237, 252.708 235.080, 253.556 231.844, 254.342 228.538, 255.065 225.168, 255.722 221.740, 256.313 218.262, 256.837 214.740, 257.292 211.182, 257.677 207.594, 257.992 203.984, 258.236 200.360, 258.409 196.728, 258.510 193.096, 258.538 189.470, 258.495 185.860, 258.380 182.271, 258.193 178.711, 257.935 175.187, 257.605 171.706, 257.206 168.275, 256.738 164.902, 256.200 161.592, 255.596 158.353, 254.925 155.192, 254.190 152.113, 253.391 149.124, 252.531 146.231, 251.611 143.440, 250.632 140.755, 249.598 138.183, 248.509 135.729, 247.369 133.398, 246.179 131.193, 244.942 129.121, 243.660 "/>
    <path fill="none" stroke="rgb(0, 0, 0)" stroke-width="13.0" stroke-linecap="round" stroke-linejoin="round" d=" M 169.503, 223.451 167.736, 223.086 165.391, 222.540 163.108, 221.948 160.891, 221.310 158.745, 220.627 156.675, 219.902 154.684, 219.134 153.642, 218.693 152.777, 218.327 "/>
    <path fill="none" stroke="rgb(0, 0, 0)" stroke-width="13.0" stroke-linecap="round" stroke-linejoin="round" d=" M 225.410, 221.879 224.820, 222.022 222.945, 222.478 220.425, 223.028 217.856, 223.530 215.244, 223.980 212.593, 224.379 209.909, 224.726 207.197, 225.019 204.463, 225.259 201.712, 225.445 198.949, 225.577 196.181, 225.654 193.413, 225.676 190.650, 225.643 187.898, 225.555 185.163, 225.412 182.450, 225.216 179.764, 224.965 177.111, 224.660 174.497, 224.303 171.926, 223.894 169.503, 223.451 169.404, 223.433 "/>
    <path fill="none" stroke="rgb(0, 0, 0)" stroke-width="13.0" stroke-linecap="round" stroke-linejoin="round" d=" M 239.574, 216.778 239.143, 216.977 237.671, 217.653 235.685, 218.492 233.618, 219.291 231.476, 220.050 229.263, 220.767 226.983, 221.441 224.820, 222.022 "/>
    <path fill="none" stroke="rgb(0, 0, 0)" stroke-width="13.0" stroke-linecap="round" stroke-linejoin="round" d=" M 245.008, 213.572 244.643, 213.812 243.516, 214.552 241.928, 215.502 240.248, 216.422 239.143, 216.977 "/>
    <path fill="none" stroke="rgb(0, 0, 0)" stroke-width="13.0" stroke-linecap="round" stroke-linejoin="round" d=" M 247.637, 211.364 247.105, 211.835 246.476, 212.393 245.215, 213.399 244.643, 213.812 "/>
    <path fill="none" stroke="rgb(0, 0, 0)" stroke-width="13.0" stroke-linecap="round" stroke-linejoin="round" d=" M 248.491, 210.340 248.471, 210.361 248.405, 210.436 248.210, 210.654 248.011, 210.877 248.011, 210.878 247.982, 210.910 247.974, 210.919 247.960, 210.934 247.561, 211.383 247.105, 211.835 "/>
    <path fill="none" stroke="rgb(0, 0, 0)" stroke-width="13.0" stroke-linecap="round" stroke-linejoin="round" d=" M 249.007, 209.483 248.723, 209.908 248.720, 209.912 248.666, 209.992 248.646, 210.023 248.644, 210.025 248.591, 210.105 248.590, 210.106 248.586, 210.113 248.506, 210.231 248.502, 210.238 248.303, 210.535 248.210, 210.654 "/>
    <path fill="none" stroke="rgb(0, 0, 0)" stroke-width="13.0" stroke-linecap="round" stroke-linejoin="round" d=" M 249.225, 208.780 248.744, 209.833 248.744, 209.833 248.671, 209.962 248.661, 209.980 248.651, 209.997 248.591, 210.104 248.590, 210.106 "/>
    <path fill="none" stroke="rgb(0, 0, 0)" stroke-width="13.0" stroke-linecap="round" stroke-linejoin="round" d=" M 248.917, 209.258 248.675, 209.941 248.661, 209.980 "/>
    <path fill="none" stroke="rgb(0, 0, 0)" stroke-width="13.0" stroke-linecap="round" stroke-linejoin="round" d=" M 248.694, 209.828 248.651, 209.997 "/>
    <path fill="none" stroke="rgb(0, 0, 0)" stroke-width="13.0" stroke-linecap="round" stroke-linejoin="round" d=" M 248.619, 209.423 248.586, 210.113 "/>
    <path fill="none" stroke="rgb(0, 0, 0)" stroke-width="13.0" stroke-linecap="round" stroke-linejoin="round" d=" M 248.494, 210.088 248.502, 210.238 "/>
    <path fill="none" stroke="rgb(0, 0, 0)" stroke-width="13.0" stroke-linecap="round" stroke-linejoin="round" d=" M 247.797, 210.700 247.974, 210.919 "/>
    <path fill="none" stroke="rgb(0, 0, 0)" stroke-width="13.0" stroke-linecap="round" stroke-linejoin="round" d=" M 144.052, 212.126 143.692, 211.136 "/>
    <path fill="none" stroke="rgb(0, 0, 0)" stroke-width="13.0" stroke-linecap="round" stroke-linejoin="round" d=" M 144.121, 212.246 143.979, 211.697 "/>
    <path fill="none" stroke="rgb(0, 0, 0)" stroke-width="13.0" stroke-linecap="round" stroke-linejoin="round" d=" M 144.172, 212.334 144.170, 212.322 "/>
    <path fill="none" stroke="rgb(0, 0, 0)" stroke-width="13.0" stroke-linecap="round" stroke-linejoin="round" d=" M 144.389, 212.632 144.393, 212.607 "/>
    <path fill="none" stroke="rgb(0, 0, 0)" stroke-width="13.0" stroke-linecap="round" stroke-linejoin="round" d=" M 144.231, 212.436 144.172, 212.334 144.171, 212.332 144.121, 212.246 144.081, 212.177 144.052, 212.126 144.014, 212.060 143.808, 211.705 "/>
  </g>
</svg>
