<?xml version="1.0" encoding="utf-8" ?>
<svg xmlns="http://www.w3.org/2000/svg" version="1.1" width="400" height="400" viewBox="0 0 400 400">
  <g>
    <path fill="none" stroke="rgb(0, 0, 0)" stroke-width="13.0" stroke-linecap="round" stroke-linejoin="round" d=" M 116.866, 221.899 116.691, 222.157 116.093, 223.046 115.545, 223.941 115.049, 224.842 114.604, 225.748 114.211, 226.659 113.869, 227.574 113.580, 228.492 111.780, 234.993 111.538, 235.933 111.350, 236.876 111.215, 237.820 111.134, 238.766 111.107, 239.713 111.068, 249.713 111.029, 259.713 110.990, 269.712 110.951, 279.712 110.912, 289.712 110.873, 299.712 110.834, 309.712 110.795, 319.712 110.757, 329.401 110.784, 330.348 110.864, 331.294 110.998, 332.240 111.186, 333.183 111.427, 334.125 111.722, 335.064 112.070, 336.000 113.778, 340.482 114.171, 341.396 114.615, 342.306 115.112, 343.210 115.659, 344.109 116.257, 345.003 116.905, 345.890 117.604, 346.769 118.352, 347.642 119.150, 348.506 119.996, 349.362 120.890, 350.209 121.832, 351.046 122.822, 351.873 123.857, 352.689 124.939, 353.495 126.066, 354.288 127.237, 355.070 128.452, 355.839 129.710, 356.596 131.011, 357.338 132.353, 358.067 139.339, 361.788 140.579, 362.429 141.854, 363.056 143.165, 363.670 144.510, 364.270 145.888, 364.855 147.299, 365.426 148.741, 365.982 150.215, 366.522 151.718, 367.047 153.250, 367.556 154.811, 368.048 156.399, 368.524 158.013, 368.983 159.652, 369.424 161.316, 369.849 163.003, 370.255 164.712, 370.644 166.443, 371.015 168.194, 371.367 169.964, 371.700 171.752, 372.015 173.557, 372.311 175.378, 372.587 177.213, 372.844 179.063, 373.082 180.925, 373.300 182.799, 373.498 184.683, 373.677 186.576, 373.835 188.477, 373.973 190.385, 374.092 192.299, 374.189 194.218, 374.267 196.140, 374.324 198.065, 374.361 199.990, 374.378 201.916, 374.374 203.840, 374.349 205.763, 374.304 207.681, 374.239 209.595, 374.154 211.504, 374.048 213.405, 373.922 215.298, 373.776 217.182, 373.609 219.056, 373.423 220.918, 373.217 222.768, 372.991 224.604, 372.746 226.425, 372.481 228.230, 372.197 230.019, 371.894 231.789, 371.572 233.540, 371.231 235.270, 370.872 236.980, 370.494 238.667, 370.099 240.331, 369.685 241.971, 369.254 243.585, 368.805 245.173, 368.340 246.734, 367.858 248.267, 367.359 249.771, 366.844 251.244, 366.313 252.687, 365.766 254.098, 365.205 255.477, 364.628 256.822, 364.037 258.133, 363.432 259.408, 362.812 260.649, 362.180 267.681, 358.504 269.024, 357.784 270.325, 357.050 271.584, 356.302 272.799, 355.540 273.971, 354.766 275.098, 353.979 276.180, 353.181 277.216, 352.371 278.206, 351.551 279.149, 350.720 280.044, 349.879 280.890, 349.028 281.688, 348.169 282.437, 347.302 283.136, 346.426 283.785, 345.544 284.384, 344.654 284.931, 343.758 285.428, 342.857 285.873, 341.950 286.267, 341.039 288.011, 336.568 288.359, 335.634 288.654, 334.697 288.896, 333.757 289.085, 332.815 289.219, 331.870 289.300, 330.924 289.327, 329.978 289.366, 319.978 289.405, 309.978 289.444, 299.978 289.483, 289.978 289.522, 279.978 289.562, 269.978 289.601, 259.978 289.640, 249.978 289.677, 240.289 289.651, 239.343 289.570, 238.396 289.436, 237.451 289.249, 236.507 289.007, 235.565 287.259, 229.053 286.970, 228.133 286.629, 227.216 286.237, 226.302 285.792, 225.393 285.296, 224.489 284.749, 223.590 284.013, 222.485 "/>
    <path fill="none" stroke="rgb(0, 0, 0)" stroke-width="13.0" stroke-linecap="round" stroke-linejoin="round" d=" M 279.317, 230.482 279.186, 230.748 278.728, 231.579 278.223, 232.404 277.671, 233.224 277.073, 234.038 276.429, 234.845 275.738, 235.645 275.003, 236.437 274.222, 237.220 273.397, 237.996 272.529, 238.762 271.616, 239.518 270.661, 240.265 269.664, 241.000 268.625, 241.726 267.545, 242.439 266.424, 243.141 265.264, 243.831 264.064, 244.508 262.827, 245.172 261.552, 245.822 260.240, 246.459 258.892, 247.081 257.508, 247.689 256.091, 248.282 254.640, 248.860 253.156, 249.422 251.641, 249.968 250.094, 250.497 248.518, 251.010 246.913, 251.506 245.280, 251.985 243.620, 252.446 241.933, 252.889 240.222, 253.315 238.487, 253.722 236.729, 254.110 234.950, 254.480 233.149, 254.830 231.329, 255.161 229.490, 255.473 227.633, 255.765 225.761, 256.037 223.873, 256.290 221.971, 256.522 220.056, 256.734 218.129, 256.925 216.191, 257.096 214.244, 257.246 212.289, 257.376 210.327, 257.485 208.358, 257.573 206.385, 257.640 204.409, 257.686 202.430, 257.711 200.449, 257.715 198.469, 257.698 196.490, 257.660 194.514, 257.601 192.540, 257.522 190.572, 257.421 188.610, 257.299 186.655, 257.157 184.708, 256.994 182.770, 256.811 180.844, 256.607 178.929, 256.383 177.027, 256.138 175.139, 255.874 173.266, 255.590 171.410, 255.285 169.572, 254.962 167.751, 254.619 165.951, 254.257 164.171, 253.876 162.414, 253.476 160.679, 253.058 158.968, 252.622 157.282, 252.167 155.622, 251.695 153.989, 251.206 152.385, 250.700 150.809, 250.177 149.263, 249.637 147.748, 249.081 146.264, 248.510 144.813, 247.923 143.396, 247.321 142.013, 246.704 140.666, 246.073 139.354, 245.428 138.079, 244.769 136.842, 244.097 135.643, 243.412 134.483, 242.715 133.363, 242.006 132.283, 241.285 131.244, 240.554 130.247, 239.811 129.293, 239.059 128.381, 238.296 127.513, 237.525 126.688, 236.744 125.908, 235.955 125.173, 235.158 124.483, 234.354 123.839, 233.543 123.241, 232.726 122.690, 231.902 122.186, 231.073 121.728, 230.239 121.659, 230.098 "/>
    <path fill="none" stroke="rgb(0, 0, 0)" stroke-width="13.0" stroke-linecap="round" stroke-linejoin="round" d=" M 200.535, 163.839 197.109, 163.861 193.690, 163.950 190.285, 164.105 186.900, 164.325 183.543, 164.611 180.220, 164.962 176.938, 165.377 173.704, 165.856 170.523, 166.397 167.403, 166.999 164.349, 167.661 161.369, 168.382 160.516, 168.591 157.551, 169.386 154.673, 170.238 151.887, 171.145 149.200, 172.106 146.615, 173.118 144.139, 174.179 143.019, 174.703 140.610, 175.834 138.322, 177.010 136.159, 178.230 134.125, 179.492 132.943, 180.290 131.009, 181.613 129.215, 182.972 127.565, 184.365 126.424, 185.398 124.897, 186.845 123.523, 188.320 122.492, 189.543 121.256, 191.064 120.180, 192.608 119.292, 193.994 118.368, 195.575 117.609, 197.172 116.890, 198.691 116.293, 200.317 115.767, 201.925 115.337, 203.571 115.015, 205.241 114.755, 206.900 114.642, 208.602 114.555, 210.267 114.641, 211.933 114.741, 213.635 114.999, 215.296 115.309, 216.968 115.738, 218.617 116.251, 220.229 116.847, 221.857 116.866, 221.899 117.553, 223.381 118.311, 224.984 119.235, 226.571 120.112, 227.962 121.187, 229.513 121.659, 230.098 122.421, 231.042 123.442, 232.271 124.815, 233.755 126.341, 235.212 127.472, 236.252 129.122, 237.656 130.915, 239.027 132.848, 240.363 134.021, 241.168 136.054, 242.443 138.217, 243.677 140.505, 244.868 141.664, 245.421 144.025, 246.545 146.501, 247.623 149.085, 248.651 151.772, 249.630 154.557, 250.555 157.435, 251.425 160.399, 252.240 161.246, 252.454 164.226, 253.194 167.279, 253.876 170.399, 254.498 173.579, 255.060 176.813, 255.559 180.095, 255.995 183.418, 256.368 186.775, 256.676 190.159, 256.918 193.564, 257.095 196.983, 257.205 200.409, 257.250 203.835, 257.228 207.254, 257.139 210.659, 256.984 214.044, 256.764 217.401, 256.477 220.724, 256.127 224.006, 255.711 227.240, 255.233 230.421, 254.692 233.541, 254.090 236.594, 253.428 239.575, 252.707 240.428, 252.498 243.393, 251.703 246.271, 250.851 249.056, 249.944 251.744, 248.983 254.329, 247.971 256.805, 246.909 257.924, 246.386 260.334, 245.255 262.622, 244.079 264.785, 242.858 266.819, 241.597 268.001, 240.799 269.935, 239.476 271.729, 238.117 273.379, 236.723 274.520, 235.690 276.047, 234.244 277.421, 232.769 278.452, 231.546 279.317, 230.482 279.688, 230.025 280.764, 228.481 281.652, 227.095 282.576, 225.514 283.335, 223.917 284.013, 222.485 284.054, 222.397 284.651, 220.772 285.177, 219.164 285.607, 217.518 285.929, 215.848 286.189, 214.189 286.302, 212.487 286.389, 210.822 286.303, 209.156 286.203, 207.453 285.945, 205.793 285.635, 204.121 285.206, 202.472 284.693, 200.860 284.097, 199.231 283.391, 197.708 282.633, 196.105 281.709, 194.518 280.832, 193.126 279.757, 191.576 278.523, 190.047 277.502, 188.817 276.129, 187.333 274.603, 185.877 273.471, 184.837 271.822, 183.433 270.029, 182.061 268.096, 180.726 266.923, 179.921 264.890, 178.646 262.727, 177.412 260.439, 176.220 259.280, 175.668 256.919, 174.544 254.443, 173.466 251.859, 172.437 249.172, 171.459 246.387, 170.534 243.509, 169.663 240.545, 168.849 239.698, 168.635 236.718, 167.895 233.665, 167.213 230.545, 166.591 227.365, 166.029 224.131, 165.530 220.849, 165.093 217.526, 164.721 214.169, 164.413 210.785, 164.171 207.380, 163.994 203.961, 163.883 200.535, 163.839 "/>
    <path fill="none" stroke="rgb(0, 0, 0)" stroke-width="13.0" stroke-linecap="round" stroke-linejoin="round" d=" M 148.149, 209.167 148.142, 209.156 148.125, 209.127 148.051, 209.000 148.019, 208.944 147.535, 207.921 "/>
    <path fill="none" stroke="rgb(0, 0, 0)" stroke-width="13.0" stroke-linecap="round" stroke-linejoin="round" d=" M 148.444, 209.592 148.438, 209.585 148.364, 209.477 148.362, 209.475 148.159, 209.182 148.149, 209.167 148.143, 209.159 148.130, 209.141 148.067, 209.050 148.041, 209.012 147.732, 208.566 "/>
    <path fill="none" stroke="rgb(0, 0, 0)" stroke-width="13.0" stroke-linecap="round" stroke-linejoin="round" d=" M 149.452, 210.645 149.162, 210.368 149.140, 210.345 149.123, 210.326 149.119, 210.322 149.091, 210.291 149.089, 210.289 148.444, 209.592 148.362, 209.504 148.360, 209.502 148.314, 209.452 148.238, 209.370 148.229, 209.360 "/>
    <path fill="none" stroke="rgb(0, 0, 0)" stroke-width="13.0" stroke-linecap="round" stroke-linejoin="round" d=" M 151.766, 212.462 151.494, 212.274 150.230, 211.307 149.452, 210.645 149.121, 210.363 149.100, 210.345 149.096, 210.342 149.069, 210.319 149.067, 210.317 "/>
    <path fill="none" stroke="rgb(0, 0, 0)" stroke-width="13.0" stroke-linecap="round" stroke-linejoin="round" d=" M 156.420, 215.115 154.769, 214.255 153.178, 213.347 151.766, 212.462 151.683, 212.410 "/>
    <path fill="none" stroke="rgb(0, 0, 0)" stroke-width="13.0" stroke-linecap="round" stroke-linejoin="round" d=" M 268.001, 240.799 265.932, 242.083 263.730, 243.325 261.401, 244.522 258.949, 245.673 256.379, 246.775 253.697, 247.825 250.907, 248.822 248.016, 249.764 245.029, 250.648 241.952, 251.474 238.791, 252.238 235.553, 252.940 232.245, 253.579 228.872, 254.152 225.442, 254.660 221.962, 255.100 218.438, 255.472 214.878, 255.776 211.289, 256.010 207.678, 256.174 204.053, 256.268 200.420, 256.291 196.787, 256.244 193.162, 256.127 189.551, 255.939 185.962, 255.682 182.402, 255.356 178.879, 254.961 175.399, 254.498 171.969, 253.969 168.597, 253.373 165.289, 252.713 162.051, 251.990 158.891, 251.205 155.815, 250.360 152.828, 249.457 149.937, 248.496 147.148, 247.481 144.466, 246.414 141.897, 245.295 139.446, 244.129 137.117, 242.916 134.916, 241.660 132.848, 240.363 "/>
    <path fill="none" stroke="rgb(0, 0, 0)" stroke-width="13.0" stroke-linecap="round" stroke-linejoin="round" d=" M 169.565, 219.786 167.433, 219.200 165.217, 218.530 163.073, 217.818 161.005, 217.065 159.016, 216.273 157.110, 215.443 156.420, 215.115 155.292, 214.578 "/>
    <path fill="none" stroke="rgb(0, 0, 0)" stroke-width="13.0" stroke-linecap="round" stroke-linejoin="round" d=" M 232.170, 219.817 231.411, 220.001 229.762, 220.400 227.294, 220.935 224.772, 221.421 222.202, 221.859 219.588, 222.245 216.936, 222.581 214.250, 222.864 211.537, 223.096 208.802, 223.274 206.050, 223.399 203.287, 223.471 200.518, 223.488 197.749, 223.453 194.986, 223.363 192.234, 223.220 189.499, 223.024 186.786, 222.776 184.101, 222.475 181.449, 222.122 178.835, 221.718 176.265, 221.265 173.743, 220.762 171.276, 220.211 169.565, 219.786 168.868, 219.613 "/>
    <path fill="none" stroke="rgb(0, 0, 0)" stroke-width="13.0" stroke-linecap="round" stroke-linejoin="round" d=" M 243.924, 215.724 243.875, 215.744 242.018, 216.541 240.029, 217.320 237.960, 218.059 235.815, 218.758 233.600, 219.414 231.411, 220.001 "/>
    <path fill="none" stroke="rgb(0, 0, 0)" stroke-width="13.0" stroke-linecap="round" stroke-linejoin="round" d=" M 249.346, 212.725 249.174, 212.831 247.850, 213.653 246.259, 214.550 244.576, 215.416 243.875, 215.744 "/>
    <path fill="none" stroke="rgb(0, 0, 0)" stroke-width="13.0" stroke-linecap="round" stroke-linejoin="round" d=" M 251.955, 210.649 251.875, 210.717 251.872, 210.719 251.845, 210.742 251.844, 210.743 251.821, 210.763 251.484, 211.047 250.792, 211.631 249.527, 212.590 249.174, 212.831 "/>
    <path fill="none" stroke="rgb(0, 0, 0)" stroke-width="13.0" stroke-linecap="round" stroke-linejoin="round" d=" M 252.784, 209.698 252.774, 209.708 252.762, 209.722 252.756, 209.728 252.723, 209.763 252.643, 209.849 252.587, 209.909 252.586, 209.910 252.491, 210.013 251.856, 210.694 251.854, 210.696 251.851, 210.700 251.825, 210.724 251.823, 210.726 251.804, 210.744 251.484, 211.047 "/>
    <path fill="none" stroke="rgb(0, 0, 0)" stroke-width="13.0" stroke-linecap="round" stroke-linejoin="round" d=" M 253.271, 208.907 252.903, 209.435 252.885, 209.461 252.826, 209.547 252.812, 209.566 252.790, 209.598 252.787, 209.602 252.586, 209.891 252.585, 209.892 252.565, 209.921 252.491, 210.013 "/>
    <path fill="none" stroke="rgb(0, 0, 0)" stroke-width="13.0" stroke-linecap="round" stroke-linejoin="round" d=" M 253.458, 208.263 252.974, 209.283 252.906, 209.400 252.836, 209.518 252.814, 209.556 252.790, 209.597 252.787, 209.602 "/>
    <path fill="none" stroke="rgb(0, 0, 0)" stroke-width="13.0" stroke-linecap="round" stroke-linejoin="round" d=" M 253.113, 208.766 252.836, 209.518 "/>
    <path fill="none" stroke="rgb(0, 0, 0)" stroke-width="13.0" stroke-linecap="round" stroke-linejoin="round" d=" M 252.852, 209.362 252.790, 209.597 "/>
    <path fill="none" stroke="rgb(0, 0, 0)" stroke-width="13.0" stroke-linecap="round" stroke-linejoin="round" d=" M 252.575, 209.702 252.585, 209.892 "/>
    <path fill="none" stroke="rgb(0, 0, 0)" stroke-width="13.0" stroke-linecap="round" stroke-linejoin="round" d=" M 251.694, 210.499 251.854, 210.696 "/>
    <path fill="none" stroke="rgb(0, 0, 0)" stroke-width="13.0" stroke-linecap="round" stroke-linejoin="round" d=" M 148.125, 209.127 147.869, 208.426 "/>
    <path fill="none" stroke="rgb(0, 0, 0)" stroke-width="13.0" stroke-linecap="round" stroke-linejoin="round" d=" M 148.364, 209.477 148.369, 209.365 "/>
    <path fill="none" stroke="rgb(0, 0, 0)" stroke-width="13.0" stroke-linecap="round" stroke-linejoin="round" d=" M 148.159, 209.182 148.118, 209.024 "/>
    <path fill="none" stroke="rgb(0, 0, 0)" stroke-width="13.0" stroke-linecap="round" stroke-linejoin="round" d=" M 149.091, 210.291 149.191, 210.168 "/>
  </g>
</svg>
