<?xml version="1.0" encoding="utf-8" ?>
<svg xmlns="http://www.w3.org/2000/svg" version="1.1" width="400" height="400" viewBox="0 0 400 400">
  <g>
    <path fill="none" stroke="rgb(0, 0, 0)" stroke-width="13.0" stroke-linecap="round" stroke-linejoin="round" d=" M 98.160, 214.682 95.869, 218.925 95.477, 219.712 95.136, 220.499 94.848, 221.285 94.612, 222.071 94.428, 222.855 93.158, 229.733 93.024, 230.531 92.943, 231.326 92.916, 232.118 92.943, 232.907 93.687, 242.880 94.431, 252.852 95.175, 262.824 95.919, 272.797 96.663, 282.769 97.407, 292.741 98.151, 302.713 98.894, 312.686 99.638, 322.658 99.845, 325.432 99.926, 326.217 100.060, 326.998 100.247, 327.773 100.488, 328.544 100.783, 329.308 101.130, 330.066 103.206, 334.598 103.599, 335.335 104.042, 336.065 104.538, 336.787 105.084, 337.501 105.681, 338.207 106.328, 338.904 107.025, 339.591 107.772, 340.270 108.568, 340.938 109.412, 341.595 110.305, 342.242 111.245, 342.878 112.232, 343.502 113.265, 344.114 114.344, 344.714 115.468, 345.301 123.587, 349.433 124.634, 349.948 125.721, 350.450 126.847, 350.940 128.010, 351.418 129.210, 351.883 130.447, 352.334 131.720, 352.772 133.027, 353.196 134.369, 353.607 135.744, 354.003 137.152, 354.384 138.591, 354.751 140.061, 355.103 141.561, 355.440 143.090, 355.762 144.647, 356.068 146.231, 356.358 147.841, 356.632 149.477, 356.891 151.137, 357.133 152.820, 357.359 154.525, 357.568 156.252, 357.761 157.998, 357.937 159.764, 358.096 161.548, 358.239 163.349, 358.364 165.165, 358.472 166.997, 358.563 168.842, 358.637 170.699, 358.693 172.569, 358.733 174.448, 358.755 176.337, 358.759 178.234, 358.747 180.137, 358.717 182.047, 358.669 183.961, 358.605 185.878, 358.523 187.798, 358.424 189.719, 358.308 191.640, 358.175 193.560, 358.025 195.478, 357.857 197.392, 357.674 199.301, 357.473 201.205, 357.256 203.102, 357.023 204.990, 356.773 206.870, 356.507 208.739, 356.225 210.597, 355.928 212.442, 355.614 214.273, 355.286 216.090, 354.942 217.891, 354.583 219.674, 354.209 221.440, 353.821 223.187, 353.418 224.913, 353.001 226.619, 352.570 228.302, 352.126 229.962, 351.669 231.597, 351.198 233.207, 350.714 234.792, 350.219 236.349, 349.710 237.878, 349.191 239.377, 348.659 240.847, 348.116 242.287, 347.563 243.694, 346.998 245.069, 346.424 246.411, 345.839 247.718, 345.245 248.991, 344.642 250.228, 344.030 251.428, 343.410 252.592, 342.781 253.717, 342.145 254.804, 341.502 255.852, 340.851 256.859, 340.194 257.827, 339.531 265.222, 334.254 266.255, 333.508 267.242, 332.756 268.182, 331.998 269.075, 331.236 269.919, 330.468 270.715, 329.697 271.462, 328.922 272.159, 328.144 272.806, 327.363 273.403, 326.579 273.949, 325.794 274.444, 325.008 274.888, 324.221 275.280, 323.433 275.621, 322.646 275.909, 321.859 276.146, 321.073 277.530, 316.270 277.718, 315.470 277.852, 314.672 277.932, 313.877 277.959, 313.085 277.932, 312.296 277.189, 302.323 276.445, 292.351 275.701, 282.379 274.957, 272.407 274.213, 262.434 273.469, 252.462 272.725, 242.490 271.981, 232.517 271.237, 222.545 271.030, 219.771 270.950, 218.986 270.816, 218.205 270.628, 217.430 270.387, 216.660 268.109, 210.043 267.821, 209.294 267.481, 208.551 267.089, 207.815 266.645, 207.086 266.150, 206.364 263.105, 202.310 "/>
    <path fill="none" stroke="rgb(0, 0, 0)" stroke-width="13.0" stroke-linecap="round" stroke-linejoin="round" d=" M 260.612, 206.851 260.557, 207.032 260.291, 207.757 259.978, 208.483 259.616, 209.209 259.207, 209.935 258.750, 210.660 258.247, 211.383 257.697, 212.105 257.100, 212.825 256.457, 213.543 255.769, 214.257 255.035, 214.968 254.257, 215.676 253.434, 216.379 252.568, 217.077 251.658, 217.770 250.705, 218.458 249.711, 219.140 248.674, 219.816 247.597, 220.485 246.479, 221.146 245.322, 221.801 244.126, 222.447 242.891, 223.085 241.619, 223.714 240.310, 224.335 238.966, 224.945 237.586, 225.546 236.172, 226.137 234.725, 226.717 233.245, 227.287 231.733, 227.845 230.191, 228.391 228.618, 228.926 227.017, 229.449 225.388, 229.959 223.732, 230.456 222.050, 230.940 220.343, 231.410 218.613, 231.867 216.859, 232.310 215.084, 232.739 213.287, 233.153 211.472, 233.552 209.637, 233.937 207.785, 234.306 205.917, 234.659 204.034, 234.997 202.136, 235.320 200.226, 235.626 198.304, 235.915 196.371, 236.189 194.429, 236.446 192.478, 236.686 190.521, 236.909 188.557, 237.115 186.589, 237.304 184.617, 237.476 182.643, 237.630 180.667, 237.767 178.692, 237.887 176.718, 237.988 174.746, 238.073 172.777, 238.139 170.814, 238.188 168.856, 238.218 166.906, 238.232 164.963, 238.227 163.031, 238.204 161.108, 238.164 159.198, 238.106 157.301, 238.030 155.417, 237.936 153.549, 237.825 151.697, 237.696 149.863, 237.550 148.047, 237.386 146.251, 237.205 144.476, 237.007 142.722, 236.791 140.991, 236.559 139.284, 236.310 137.602, 236.044 135.946, 235.762 134.317, 235.464 132.716, 235.149 131.144, 234.818 129.602, 234.472 128.090, 234.110 126.610, 233.732 125.162, 233.340 123.748, 232.933 122.369, 232.511 121.024, 232.074 119.715, 231.624 118.443, 231.160 117.209, 230.682 116.013, 230.191 114.855, 229.687 113.738, 229.170 112.660, 228.641 111.624, 228.100 110.629, 227.547 109.677, 226.983 108.767, 226.408 107.900, 225.822 107.078, 225.225 106.299, 224.619 105.566, 224.003 104.877, 223.378 104.235, 222.744 103.638, 222.102 103.088, 221.451 102.584, 220.793 102.128, 220.127 101.719, 219.455 101.450, 218.950 "/>
    <path fill="none" stroke="rgb(0, 0, 0)" stroke-width="13.0" stroke-linecap="round" stroke-linejoin="round" d=" M 178.578, 154.206 175.239, 154.450 171.906, 154.747 168.587, 155.098 165.288, 155.501 162.016, 155.956 158.777, 156.461 155.578, 157.016 152.425, 157.620 149.325, 158.270 148.690, 158.409 145.577, 159.122 142.531, 159.881 139.558, 160.684 136.664, 161.530 133.854, 162.416 131.134, 163.342 128.510, 164.304 125.986, 165.302 123.569, 166.333 122.438, 166.850 120.082, 167.935 117.843, 169.050 115.727, 170.192 113.738, 171.360 111.880, 172.550 110.634, 173.369 108.876, 174.604 107.259, 175.857 105.786, 177.125 104.579, 178.183 103.229, 179.487 102.032, 180.802 100.933, 182.053 99.874, 183.397 98.928, 184.796 98.016, 186.164 97.268, 187.534 96.484, 189.075 95.894, 190.461 95.299, 192.099 94.873, 193.494 94.479, 195.204 94.222, 196.602 94.035, 198.353 93.949, 199.748 93.974, 201.514 94.060, 202.899 94.297, 204.649 94.556, 206.019 95.000, 207.724 95.429, 209.072 96.073, 210.706 96.668, 212.026 97.501, 213.560 98.160, 214.682 98.257, 214.848 99.263, 216.258 100.175, 217.507 101.248, 218.730 101.450, 218.950 102.394, 219.977 103.610, 221.155 104.886, 222.232 106.236, 223.361 107.735, 224.458 109.381, 225.519 110.708, 226.371 112.466, 227.377 114.361, 228.345 115.723, 228.974 117.712, 229.883 119.827, 230.751 122.066, 231.576 124.422, 232.355 126.892, 233.088 128.098, 233.434 130.621, 234.104 133.245, 234.726 135.965, 235.299 138.775, 235.821 141.669, 236.291 144.642, 236.708 147.688, 237.072 150.801, 237.381 153.974, 237.636 154.637, 237.679 157.790, 237.874 160.989, 238.013 164.228, 238.098 167.500, 238.128 170.799, 238.103 174.118, 238.023 177.451, 237.888 180.790, 237.699 184.129, 237.455 187.462, 237.157 190.781, 236.807 194.080, 236.404 197.352, 235.949 200.591, 235.444 203.790, 234.889 206.943, 234.285 210.043, 233.634 210.679, 233.496 213.791, 232.783 216.837, 232.024 219.810, 231.221 222.705, 230.375 225.515, 229.489 228.234, 228.563 230.859, 227.600 233.382, 226.602 235.799, 225.571 236.930, 225.055 239.287, 223.970 241.525, 222.855 243.641, 221.712 245.630, 220.545 247.488, 219.355 248.734, 218.535 250.492, 217.301 252.109, 216.048 253.582, 214.779 254.789, 213.722 256.139, 212.418 257.336, 211.102 258.435, 209.852 259.494, 208.508 260.440, 207.108 260.612, 206.851 261.352, 205.741 262.100, 204.370 262.884, 202.830 263.105, 202.310 263.474, 201.444 264.069, 199.805 264.495, 198.410 264.889, 196.701 265.147, 195.303 265.333, 193.551 265.419, 192.156 265.394, 190.391 265.308, 189.006 265.071, 187.256 264.812, 185.886 264.368, 184.180 263.939, 182.833 263.295, 181.199 262.700, 179.879 261.867, 178.344 261.111, 177.057 260.105, 175.647 259.194, 174.397 258.121, 173.175 256.974, 171.928 255.758, 170.750 254.482, 169.673 253.132, 168.544 251.633, 167.447 249.988, 166.386 248.660, 165.534 246.902, 164.528 245.007, 163.560 243.646, 162.931 241.657, 162.021 239.541, 161.154 237.303, 160.329 234.946, 159.550 232.477, 158.816 231.271, 158.471 228.747, 157.800 226.123, 157.178 223.403, 156.606 220.593, 156.084 217.699, 155.614 214.726, 155.196 211.680, 154.833 208.567, 154.523 205.395, 154.269 204.731, 154.226 201.579, 154.031 198.380, 153.891 195.141, 153.806 191.868, 153.776 188.569, 153.801 185.250, 153.881 181.918, 154.016 178.578, 154.206 "/>
    <path fill="none" stroke="rgb(0, 0, 0)" stroke-width="13.0" stroke-linecap="round" stroke-linejoin="round" d=" M 127.486, 197.081 126.620, 196.447 126.557, 196.401 126.529, 196.381 126.497, 196.357 126.478, 196.344 126.430, 196.303 126.375, 196.257 125.526, 195.547 "/>
    <path fill="none" stroke="rgb(0, 0, 0)" stroke-width="13.0" stroke-linecap="round" stroke-linejoin="round" d=" M 129.932, 198.403 128.661, 197.754 127.486, 197.081 127.368, 197.013 "/>
    <path fill="none" stroke="rgb(0, 0, 0)" stroke-width="13.0" stroke-linecap="round" stroke-linejoin="round" d=" M 254.789, 213.722 253.290, 215.013 251.645, 216.288 249.856, 217.545 247.927, 218.780 245.863, 219.992 243.667, 221.177 241.344, 222.335 238.898, 223.461 236.335, 224.555 233.659, 225.613 230.876, 226.634 227.992, 227.615 225.012, 228.555 221.943, 229.452 218.790, 230.303 215.560, 231.108 212.260, 231.865 208.896, 232.571 205.474, 233.226 202.002, 233.828 198.487, 234.377 194.936, 234.870 191.356, 235.308 187.753, 235.688 184.137, 236.011 180.513, 236.276 176.889, 236.481 173.272, 236.628 169.670, 236.715 166.089, 236.742 162.538, 236.709 159.023, 236.617 155.551, 236.465 152.130, 236.254 148.765, 235.984 145.465, 235.656 142.235, 235.271 139.082, 234.828 136.013, 234.330 133.033, 233.776 130.149, 233.169 127.366, 232.510 124.691, 231.799 122.127, 231.038 119.682, 230.229 117.359, 229.373 115.163, 228.472 113.098, 227.528 111.170, 226.543 109.381, 225.519 "/>
    <path fill="none" stroke="rgb(0, 0, 0)" stroke-width="13.0" stroke-linecap="round" stroke-linejoin="round" d=" M 136.473, 200.761 135.390, 200.439 133.576, 199.839 132.563, 199.466 131.853, 199.204 130.224, 198.536 129.932, 198.403 128.693, 197.836 "/>
    <path fill="none" stroke="rgb(0, 0, 0)" stroke-width="13.0" stroke-linecap="round" stroke-linejoin="round" d=" M 156.857, 204.042 154.433, 203.848 151.918, 203.598 149.456, 203.304 147.053, 202.967 144.714, 202.587 142.443, 202.165 140.245, 201.702 138.124, 201.200 136.473, 200.761 136.085, 200.658 "/>
    <path fill="none" stroke="rgb(0, 0, 0)" stroke-width="13.0" stroke-linecap="round" stroke-linejoin="round" d=" M 203.460, 200.570 203.080, 200.650 200.823, 201.123 198.141, 201.637 195.420, 202.109 192.665, 202.539 189.882, 202.925 187.076, 203.268 184.253, 203.566 181.419, 203.819 178.578, 204.027 175.738, 204.188 172.903, 204.303 170.080, 204.371 167.274, 204.392 164.491, 204.367 161.736, 204.294 159.015, 204.175 156.857, 204.042 156.334, 204.010 "/>
    <path fill="none" stroke="rgb(0, 0, 0)" stroke-width="13.0" stroke-linecap="round" stroke-linejoin="round" d=" M 223.126, 194.303 222.992, 194.360 221.172, 195.137 219.133, 195.943 217.012, 196.721 214.814, 197.469 212.543, 198.186 210.204, 198.869 207.801, 199.518 205.339, 200.132 203.080, 200.650 "/>
    <path fill="none" stroke="rgb(0, 0, 0)" stroke-width="13.0" stroke-linecap="round" stroke-linejoin="round" d=" M 230.122, 190.432 229.218, 191.010 228.691, 191.348 227.160, 192.247 226.805, 192.439 225.531, 193.126 223.808, 193.984 222.992, 194.360 "/>
    <path fill="none" stroke="rgb(0, 0, 0)" stroke-width="13.0" stroke-linecap="round" stroke-linejoin="round" d=" M 232.441, 188.489 232.299, 188.611 232.259, 188.645 232.224, 188.675 232.209, 188.688 232.192, 188.703 232.007, 188.862 231.983, 188.883 231.403, 189.383 231.357, 189.422 230.168, 190.343 229.218, 191.010 "/>
    <path fill="none" stroke="rgb(0, 0, 0)" stroke-width="13.0" stroke-linecap="round" stroke-linejoin="round" d=" M 233.029, 187.699 232.441, 188.346 232.425, 188.363 232.357, 188.438 232.320, 188.479 232.298, 188.503 232.185, 188.627 232.185, 188.627 231.403, 189.383 "/>
    <path fill="none" stroke="rgb(0, 0, 0)" stroke-width="13.0" stroke-linecap="round" stroke-linejoin="round" d=" M 232.650, 188.037 232.484, 188.247 232.410, 188.342 232.335, 188.436 232.316, 188.460 232.185, 188.627 "/>
    <path fill="none" stroke="rgb(0, 0, 0)" stroke-width="13.0" stroke-linecap="round" stroke-linejoin="round" d=" M 232.794, 187.638 232.410, 188.342 "/>
    <path fill="none" stroke="rgb(0, 0, 0)" stroke-width="13.0" stroke-linecap="round" stroke-linejoin="round" d=" M 232.387, 188.293 232.316, 188.460 "/>
    <path fill="none" stroke="rgb(0, 0, 0)" stroke-width="13.0" stroke-linecap="round" stroke-linejoin="round" d=" M 126.379, 196.214 125.819, 195.447 "/>
    <path fill="none" stroke="rgb(0, 0, 0)" stroke-width="13.0" stroke-linecap="round" stroke-linejoin="round" d=" M 126.620, 196.447 126.536, 196.367 126.505, 196.336 126.379, 196.214 126.338, 196.174 125.977, 195.824 "/>
    <path fill="none" stroke="rgb(0, 0, 0)" stroke-width="13.0" stroke-linecap="round" stroke-linejoin="round" d=" M 126.536, 196.367 126.341, 196.035 "/>
  </g>
</svg>
