<?xml version="1.0" encoding="utf-8" ?>
<svg xmlns="http://www.w3.org/2000/svg" version="1.1" width="400" height="400" viewBox="0 0 400 400">
  <g>
    <path fill="none" stroke="rgb(0, 0, 0)" stroke-width="13.0" stroke-linecap="round" stroke-linejoin="round" d=" M 284.895, 72.288 284.896, 72.321 284.860, 72.703 284.776, 73.084 284.643, 73.462 284.462, 73.839 284.233, 74.212 283.955, 74.583 283.629, 74.951 283.256, 75.316 282.835, 75.678 282.366, 76.036 281.851, 76.390 281.289, 76.740 280.680, 77.085 280.025, 77.426 279.325, 77.763 278.579, 78.094 277.789, 78.421 276.955, 78.742 276.076, 79.058 275.155, 79.368 274.190, 79.672 273.184, 79.971 272.136, 80.263 271.047, 80.548 269.918, 80.827 269.581, 80.906 268.749, 81.099 267.541, 81.365 266.296, 81.623 265.013, 81.874 263.693, 82.118 262.338, 82.354 260.947, 82.583 259.522, 82.804 258.065, 83.017 256.574, 83.222 255.052, 83.418 253.500, 83.607 251.918, 83.787 250.307, 83.958 248.669, 84.121 247.003, 84.275 245.312, 84.420 243.596, 84.557 241.857, 84.684 240.095, 84.803 238.311, 84.912 236.507, 85.012 234.683, 85.103 232.841, 85.184 230.982, 85.256 229.106, 85.319 227.216, 85.372 225.312, 85.416 223.395, 85.451 221.467, 85.475 219.528, 85.491 217.580, 85.496 215.624, 85.493 213.661, 85.479 211.693, 85.456 209.720, 85.424 207.744, 85.382 205.765, 85.331 203.786, 85.270 201.807, 85.200 199.829, 85.120 197.855, 85.031 195.884, 84.933 193.918, 84.826 191.958, 84.709 190.005, 84.584 188.062, 84.449 186.128, 84.306 184.205, 84.153 182.293, 83.992 180.396, 83.823 178.512, 83.644 176.644, 83.458 174.793, 83.263 172.959, 83.060 171.145, 82.848 169.350, 82.629 167.576, 82.402 165.825, 82.167 164.096, 81.925 162.392, 81.675 160.713, 81.419 159.060, 81.155 157.434, 80.884 155.837, 80.606 154.268, 80.322 152.730, 80.031 151.223, 79.734 149.748, 79.431 148.305, 79.122 146.897, 78.808 145.523, 78.488 144.184, 78.162 142.881, 77.832 141.616, 77.496 140.388, 77.156 139.198, 76.811 138.079, 76.471 138.048, 76.462 136.938, 76.109 135.868, 75.752 134.839, 75.391 133.852, 75.027 132.908, 74.659 132.007, 74.289 131.149, 73.916 130.335, 73.540 129.565, 73.162 128.841, 72.782 128.162, 72.399 127.529, 72.016 126.942, 71.630 126.402, 71.244 125.908, 70.857 125.462, 70.468 125.063, 70.080 124.712, 69.691 124.409, 69.302 124.154, 68.913 123.947, 68.525 123.789, 68.138 123.679, 67.751 123.617, 67.366 123.605, 67.012 "/>
    <path fill="none" stroke="rgb(0, 0, 0)" stroke-width="13.0" stroke-linecap="round" stroke-linejoin="round" d=" M 123.276, 66.631 117.864, 75.040 117.138, 76.168 116.889, 76.574 116.693, 76.982 116.549, 77.392 114.526, 84.493 114.433, 84.915 114.394, 85.338 114.062, 95.332 113.729, 105.327 113.397, 115.321 113.065, 125.316 112.733, 135.310 112.401, 145.305 112.069, 155.299 111.737, 165.294 111.404, 175.288 111.153, 182.850 111.167, 183.275 111.235, 183.701 111.357, 184.129 112.938, 189.170 113.110, 189.590 113.334, 190.012 113.611, 190.433 113.940, 190.855 114.320, 191.277 114.753, 191.698 115.237, 192.119 115.772, 192.540 123.705, 198.629 124.297, 199.083 124.823, 199.459 125.394, 199.834 126.009, 200.207 126.669, 200.579 127.374, 200.948 128.122, 201.316 128.913, 201.682 129.748, 202.045 130.624, 202.405 131.543, 202.762 132.502, 203.116 133.503, 203.467 134.543, 203.814 135.623, 204.158 136.741, 204.497 137.898, 204.832 139.092, 205.163 140.323, 205.489 141.589, 205.811 142.891, 206.127 144.227, 206.439 145.597, 206.745 147.000, 207.045 148.434, 207.340 149.900, 207.628 151.396, 207.911 152.921, 208.187 154.474, 208.457 156.055, 208.721 157.663, 208.978 159.295, 209.227 160.953, 209.470 162.634, 209.706 164.337, 209.934 166.062, 210.155 167.807, 210.368 169.572, 210.573 171.355, 210.771 173.155, 210.960 174.972, 211.142 176.803, 211.315 178.649, 211.480 180.507, 211.637 182.377, 211.785 184.258, 211.925 186.148, 212.055 188.047, 212.178 189.952, 212.291 191.864, 212.395 193.781, 212.491 195.701, 212.577 197.624, 212.655 199.549, 212.723 201.473, 212.782 203.397, 212.832 205.319, 212.873 207.238, 212.904 209.152, 212.926 211.061, 212.939 212.963, 212.943 214.857, 212.937 216.742, 212.923 218.617, 212.898 220.481, 212.865 222.333, 212.822 224.171, 212.771 225.995, 212.710 227.803, 212.639 229.594, 212.560 231.368, 212.472 233.122, 212.375 234.857, 212.268 236.570, 212.153 238.262, 212.029 239.930, 211.897 241.575, 211.755 243.194, 211.605 244.788, 211.447 246.354, 211.280 247.893, 211.105 249.402, 210.922 250.882, 210.731 252.331, 210.532 253.749, 210.325 255.134, 210.110 256.486, 209.888 257.805, 209.658 259.088, 209.421 260.335, 209.177 261.547, 208.925 262.721, 208.667 263.858, 208.402 264.956, 208.131 266.014, 207.853 267.034, 207.569 268.012, 207.279 268.950, 206.984 269.846, 206.682 270.701, 206.375 271.512, 206.063 272.281, 205.745 273.006, 205.423 273.687, 205.095 274.323, 204.764 274.915, 204.428 275.462, 204.087 283.781, 198.538 284.406, 198.122 284.965, 197.738 285.473, 197.350 285.930, 196.958 286.335, 196.562 286.688, 196.162 286.990, 195.760 287.239, 195.354 287.435, 194.946 289.347, 190.021 289.494, 189.602 289.587, 189.181 289.627, 188.757 289.959, 178.763 290.291, 168.769 290.623, 158.774 290.955, 148.780 291.287, 138.785 291.620, 128.791 291.952, 118.796 292.284, 108.802 292.616, 98.807 292.867, 91.246 292.853, 90.821 292.785, 90.394 291.239, 83.175 291.119, 82.756 290.948, 82.335 290.723, 81.914 285.882, 73.164 285.217, 71.962 "/>
    <path fill="none" stroke="rgb(0, 0, 0)" stroke-width="13.0" stroke-linecap="round" stroke-linejoin="round" d=" M 269.581, 80.906 270.404, 80.642 272.038, 80.111 273.536, 79.561 274.893, 78.995 276.458, 78.267 277.699, 77.673 278.793, 77.063 280.305, 76.123 281.267, 75.488 282.675, 74.363 283.496, 73.703 284.776, 72.409 284.895, 72.288 285.217, 71.962 285.448, 71.727 286.579, 70.282 287.094, 69.580 288.057, 68.005 288.410, 67.287 289.189, 65.605 289.771, 63.846 289.957, 63.109 290.335, 61.291 290.502, 59.441 290.516, 58.695 290.472, 56.838 290.216, 54.999 290.058, 54.252 289.594, 52.458 288.929, 50.728 288.604, 49.988 287.748, 48.354 287.260, 47.620 286.228, 46.104 285.028, 44.717 284.392, 44.004 283.050, 42.776 282.269, 42.077 281.332, 41.379 279.888, 40.343 278.819, 39.663 277.601, 38.988 276.092, 38.159 274.757, 37.505 273.283, 36.858 271.671, 36.221 270.171, 35.628 268.465, 35.016 266.632, 34.414 264.674, 33.825 262.598, 33.250 260.405, 32.690 259.076, 32.370 256.828, 31.839 254.476, 31.325 252.026, 30.828 249.480, 30.350 246.846, 29.892 244.128, 29.455 241.331, 29.039 238.462, 28.645 235.526, 28.274 232.528, 27.928 229.476, 27.605 226.374, 27.308 223.230, 27.037 220.050, 26.792 216.840, 26.574 213.606, 26.384 210.355, 26.221 207.094, 26.086 203.829, 25.979 200.567, 25.901 197.315, 25.851 194.078, 25.830 190.863, 25.838 187.677, 25.875 184.527, 25.940 181.418, 26.034 178.358, 26.156 175.351, 26.307 172.404, 26.485 169.523, 26.691 166.715, 26.924 163.983, 27.183 161.335, 27.469 158.775, 27.780 156.308, 28.115 153.940, 28.475 151.675, 28.859 150.321, 29.091 148.110, 29.507 146.014, 29.946 144.037, 30.406 142.183, 30.887 140.456, 31.387 138.916, 31.881 137.282, 32.412 135.784, 32.961 134.427, 33.527 132.862, 34.255 131.621, 34.850 130.527, 35.459 129.015, 36.399 128.053, 37.035 126.645, 38.160 125.824, 38.819 124.544, 40.114 123.872, 40.796 122.741, 42.241 122.226, 42.942 121.263, 44.517 120.910, 45.235 120.131, 46.917 119.549, 48.677 119.363, 49.413 118.985, 51.232 118.818, 53.081 118.804, 53.828 118.848, 55.684 119.104, 57.523 119.262, 58.271 119.726, 60.065 120.391, 61.794 120.716, 62.534 121.572, 64.169 122.060, 64.903 123.092, 66.419 123.276, 66.631 123.605, 67.012 124.292, 67.805 124.928, 68.519 126.270, 69.746 127.051, 70.446 127.988, 71.144 129.432, 72.180 130.501, 72.860 131.719, 73.535 133.228, 74.364 134.563, 75.018 136.037, 75.664 137.649, 76.302 138.079, 76.471 "/>
    <path fill="none" stroke="rgb(0, 0, 0)" stroke-width="13.0" stroke-linecap="round" stroke-linejoin="round" d=" M 282.675, 74.363 281.696, 75.009 280.561, 75.642 279.272, 76.259 277.833, 76.859 276.245, 77.442 274.512, 78.005 272.638, 78.548 270.626, 79.070 268.481, 79.569 266.206, 80.046 263.807, 80.497 261.287, 80.924 258.653, 81.324 255.909, 81.698 253.062, 82.044 250.116, 82.361 247.077, 82.650 243.953, 82.909 240.749, 83.138 237.471, 83.336 234.126, 83.503 230.721, 83.639 227.263, 83.744 223.759, 83.816 220.215, 83.857 216.639, 83.866 213.038, 83.843 209.420, 83.788 205.791, 83.701 202.160, 83.582 198.532, 83.432 194.916, 83.250 191.319, 83.038 187.748, 82.796 184.210, 82.523 180.713, 82.222 177.263, 81.892 173.867, 81.533 170.533, 81.147 167.267, 80.735 164.075, 80.297 160.964, 79.834 157.940, 79.348 155.010, 78.838 152.179, 78.306 149.453, 77.754 146.837, 77.182 144.337, 76.591 141.957, 75.983 139.703, 75.359 137.579, 74.720 135.589, 74.068 133.738, 73.403 132.029, 72.727 130.465, 72.041 129.050, 71.348 127.786, 70.647 126.676, 69.941 125.723, 69.231 124.928, 68.519 "/>
    <path fill="none" stroke="rgb(0, 0, 0)" stroke-width="13.0" stroke-linecap="round" stroke-linejoin="round" d=" M 253.193, 50.227 252.005, 50.428 251.162, 50.571 249.039, 50.894 246.827, 51.195 244.531, 51.474 242.156, 51.730 239.706, 51.962 237.187, 52.171 234.604, 52.356 231.962, 52.516 229.265, 52.650 226.520, 52.760 223.732, 52.844 220.907, 52.903 218.050, 52.936 217.853, 52.936 215.167, 52.943 212.265, 52.924 209.347, 52.880 206.422, 52.810 203.494, 52.714 200.570, 52.593 197.655, 52.447 194.755, 52.276 191.876, 52.080 191.696, 52.066 189.024, 51.861 186.204, 51.617 183.423, 51.351 180.685, 51.062 177.997, 50.751 175.364, 50.419 172.791, 50.066 170.283, 49.693 167.845, 49.300 165.483, 48.889 163.200, 48.461 161.002, 48.016 158.893, 47.554 157.887, 47.317 156.878, 47.078 "/>
  </g>
</svg>
