<?xml version="1.0" encoding="utf-8" ?>
<svg xmlns="http://www.w3.org/2000/svg" version="1.1" width="400" height="400" viewBox="0 0 400 400">
  <g>
    <path fill="none" stroke="rgb(0, 0, 0)" stroke-width="13.0" stroke-linecap="round" stroke-linejoin="round" d=" M 100.669, 135.782 98.912, 138.902 98.465, 139.721 98.070, 140.541 97.727, 141.362 97.436, 142.183 97.197, 143.004 97.010, 143.824 95.648, 150.631 95.511, 151.466 95.428, 152.300 95.399, 153.131 95.423, 153.959 96.039, 163.940 96.656, 173.921 97.273, 183.902 97.889, 193.883 98.506, 203.864 99.122, 213.845 99.739, 223.826 100.356, 233.807 100.972, 243.788 101.100, 245.853 101.178, 246.678 101.309, 247.499 101.494, 248.316 101.733, 249.128 102.024, 249.935 102.369, 250.736 104.385, 255.252 104.775, 256.031 105.216, 256.804 105.709, 257.570 106.253, 258.328 106.848, 259.078 107.493, 259.819 108.189, 260.552 108.933, 261.275 109.727, 261.989 110.570, 262.692 111.461, 263.385 112.399, 264.067 113.385, 264.737 114.416, 265.396 115.494, 266.042 116.617, 266.676 117.784, 267.296 125.709, 271.329 126.795, 271.874 127.920, 272.406 129.082, 272.925 130.281, 273.431 131.517, 273.924 132.789, 274.404 134.096, 274.870 135.437, 275.321 136.812, 275.758 138.219, 276.181 139.657, 276.588 141.127, 276.981 142.627, 277.358 144.155, 277.719 145.712, 278.064 147.296, 278.394 148.906, 278.707 150.542, 279.004 152.202, 279.284 153.885, 279.547 155.591, 279.793 157.318, 280.023 159.065, 280.235 160.831, 280.429 162.615, 280.607 164.416, 280.766 166.234, 280.908 168.066, 281.032 169.912, 281.138 171.770, 281.227 173.640, 281.297 175.521, 281.349 177.411, 281.384 179.309, 281.400 181.213, 281.398 183.124, 281.378 185.039, 281.341 186.958, 281.285 188.880, 281.211 190.802, 281.119 192.725, 281.009 194.646, 280.881 196.565, 280.736 198.481, 280.573 200.392, 280.392 202.298, 280.194 204.196, 279.979 206.087, 279.746 207.968, 279.496 209.839, 279.230 211.699, 278.946 213.546, 278.646 215.380, 278.330 217.199, 277.997 219.002, 277.649 220.788, 277.284 222.556, 276.904 224.305, 276.509 226.034, 276.098 227.742, 275.673 229.427, 275.233 231.090, 274.779 232.728, 274.310 234.341, 273.828 235.927, 273.332 237.487, 272.823 239.018, 272.301 240.521, 271.767 241.994, 271.220 243.436, 270.662 244.846, 270.091 246.224, 269.510 247.568, 268.917 248.878, 268.314 250.154, 267.701 251.393, 267.078 252.597, 266.446 253.763, 265.804 254.891, 265.154 255.981, 264.496 257.031, 263.830 258.042, 263.156 265.410, 258.179 266.492, 257.419 267.528, 256.652 268.519, 255.878 269.462, 255.097 270.357, 254.311 271.205, 253.519 272.004, 252.722 272.753, 251.920 273.454, 251.114 274.104, 250.304 274.704, 249.492 275.253, 248.676 275.751, 247.859 276.198, 247.039 276.593, 246.219 276.937, 245.398 277.228, 244.577 278.672, 239.847 278.916, 239.010 279.106, 238.173 279.243, 237.338 279.326, 236.504 279.356, 235.673 279.332, 234.845 278.715, 224.864 278.098, 214.883 277.482, 204.902 276.865, 194.921 276.249, 184.940 275.632, 174.959 275.015, 164.978 274.399, 154.997 273.782, 145.016 273.655, 142.951 273.577, 142.126 273.445, 141.305 273.260, 140.488 273.022, 139.675 270.832, 133.088 270.547, 132.297 270.209, 131.512 269.819, 130.733 269.377, 129.961 268.884, 129.195 268.341, 128.438 266.166, 125.495 "/>
    <path fill="none" stroke="rgb(0, 0, 0)" stroke-width="13.0" stroke-linecap="round" stroke-linejoin="round" d=" M 263.235, 130.883 263.125, 131.192 262.809, 131.949 262.444, 132.705 262.033, 133.460 261.573, 134.214 261.067, 134.966 260.514, 135.715 259.915, 136.461 259.269, 137.204 258.578, 137.943 257.842, 138.678 257.060, 139.408 256.235, 140.133 255.365, 140.853 254.453, 141.566 253.497, 142.273 252.499, 142.973 251.460, 143.666 250.380, 144.351 249.259, 145.029 248.099, 145.697 246.900, 146.357 245.663, 147.007 244.388, 147.648 243.076, 148.278 241.729, 148.898 240.346, 149.507 238.930, 150.105 237.479, 150.692 235.997, 151.266 234.482, 151.829 232.937, 152.378 231.362, 152.915 229.758, 153.438 228.126, 153.948 226.468, 154.444 224.783, 154.926 223.074, 155.393 221.341, 155.845 219.584, 156.283 217.807, 156.705 216.008, 157.112 214.190, 157.502 212.353, 157.877 210.499, 158.236 208.629, 158.578 206.743, 158.903 204.843, 159.212 202.931, 159.503 201.007, 159.777 199.072, 160.034 197.128, 160.273 195.175, 160.495 193.216, 160.698 191.250, 160.884 189.280, 161.052 187.307, 161.201 185.331, 161.333 183.354, 161.445 181.377, 161.540 179.401, 161.616 177.428, 161.674 175.458, 161.713 173.493, 161.733 171.535, 161.735 169.583, 161.718 167.640, 161.683 165.706, 161.629 163.783, 161.556 161.872, 161.466 159.973, 161.356 158.089, 161.229 156.220, 161.083 154.368, 160.919 152.533, 160.737 150.717, 160.536 148.920, 160.318 147.145, 160.083 145.391, 159.829 143.660, 159.559 141.953, 159.270 140.271, 158.965 138.615, 158.643 136.986, 158.305 135.385, 157.949 133.813, 157.578 132.271, 157.190 130.759, 156.787 129.280, 156.367 127.833, 155.933 126.420, 155.483 125.041, 155.019 123.697, 154.540 122.389, 154.047 121.118, 153.540 119.884, 153.019 118.689, 152.485 117.533, 151.938 116.416, 151.378 115.340, 150.806 114.305, 150.222 113.312, 149.627 112.360, 149.020 111.452, 148.402 110.587, 147.773 109.766, 147.134 108.989, 146.486 108.257, 145.828 107.571, 145.161 106.930, 144.486 106.335, 143.802 105.787, 143.111 105.285, 142.412 104.831, 141.706 104.423, 140.994 104.370, 140.886 "/>
    <path fill="none" stroke="rgb(0, 0, 0)" stroke-width="13.0" stroke-linecap="round" stroke-linejoin="round" d=" M 181.821, 75.297 178.479, 75.501 175.143, 75.761 171.821, 76.077 168.519, 76.449 168.250, 76.482 164.898, 76.919 161.580, 77.410 158.302, 77.955 155.071, 78.553 151.894, 79.202 148.778, 79.902 145.728, 80.652 142.750, 81.448 139.851, 82.290 137.036, 83.177 134.312, 84.106 131.683, 85.075 129.155, 86.083 128.065, 86.536 125.591, 87.603 123.229, 88.705 120.986, 89.841 118.865, 91.007 116.871, 92.201 115.648, 92.958 113.748, 94.203 111.985, 95.471 110.363, 96.761 109.166, 97.761 107.661, 99.092 106.307, 100.440 105.209, 101.639 103.987, 103.022 102.923, 104.416 101.958, 105.787 101.041, 107.208 100.244, 108.709 99.483, 110.151 98.888, 111.596 98.271, 113.213 97.840, 114.671 97.423, 116.361 97.160, 117.824 96.950, 119.560 96.859, 121.022 96.861, 122.775 96.943, 124.230 97.157, 125.969 97.411, 127.411 97.833, 129.108 98.257, 130.529 98.879, 132.156 99.470, 133.551 100.282, 135.081 100.669, 135.782 101.034, 136.444 101.952, 137.784 102.928, 139.177 103.998, 140.477 104.370, 140.886 105.126, 141.720 106.339, 142.976 107.706, 144.201 108.946, 145.257 110.442, 146.431 112.085, 147.570 113.399, 148.418 115.154, 149.501 117.047, 150.547 119.073, 151.552 120.384, 152.155 122.498, 153.099 124.735, 153.999 127.090, 154.854 129.558, 155.662 132.135, 156.421 133.278, 156.737 135.901, 157.431 138.621, 158.075 141.430, 158.666 144.325, 159.205 147.298, 159.689 150.345, 160.118 153.458, 160.491 156.631, 160.808 159.859, 161.067 163.134, 161.269 166.451, 161.412 169.802, 161.496 173.180, 161.522 173.458, 161.523 176.779, 161.490 180.114, 161.401 183.456, 161.254 186.798, 161.050 190.133, 160.790 193.456, 160.474 196.758, 160.102 197.026, 160.068 200.379, 159.632 203.697, 159.141 206.975, 158.596 210.206, 157.998 213.382, 157.348 216.499, 156.648 219.549, 155.899 222.527, 155.102 225.426, 154.260 228.240, 153.374 230.965, 152.445 233.594, 151.475 236.122, 150.467 237.211, 150.015 239.686, 148.948 242.047, 147.845 244.291, 146.710 246.412, 145.544 248.406, 144.350 249.629, 143.592 251.529, 142.348 253.292, 141.080 254.914, 139.790 256.111, 138.790 257.615, 137.458 258.970, 136.110 260.068, 134.912 261.289, 133.529 262.353, 132.135 263.235, 130.883 263.319, 130.763 264.236, 129.342 265.032, 127.842 265.794, 126.399 266.166, 125.495 266.389, 124.954 267.006, 123.337 267.437, 121.880 267.854, 120.190 268.117, 118.726 268.326, 116.991 268.417, 115.528 268.415, 113.776 268.334, 112.321 268.120, 110.581 267.866, 109.140 267.444, 107.443 267.020, 106.021 266.398, 104.394 265.807, 102.999 264.995, 101.469 264.242, 100.107 263.325, 98.767 262.348, 97.374 261.279, 96.074 260.150, 94.830 258.938, 93.575 257.570, 92.350 256.331, 91.294 254.835, 90.120 253.192, 88.980 251.878, 88.133 250.123, 87.049 248.230, 86.004 246.204, 84.999 244.893, 84.396 242.779, 83.452 240.542, 82.552 238.187, 81.697 235.718, 80.889 233.141, 80.130 231.999, 79.813 229.376, 79.119 226.656, 78.476 223.847, 77.884 220.952, 77.346 217.979, 76.862 214.932, 76.432 211.819, 76.059 208.645, 75.743 205.418, 75.483 202.142, 75.282 198.826, 75.139 195.475, 75.054 192.097, 75.029 191.819, 75.028 188.498, 75.060 185.163, 75.150 181.821, 75.297 "/>
    <path fill="none" stroke="rgb(0, 0, 0)" stroke-width="13.0" stroke-linecap="round" stroke-linejoin="round" d=" M 129.999, 118.878 129.842, 118.737 129.832, 118.728 129.821, 118.718 129.708, 118.601 129.708, 118.601 129.676, 118.568 129.555, 118.443 128.998, 117.866 "/>
    <path fill="none" stroke="rgb(0, 0, 0)" stroke-width="13.0" stroke-linecap="round" stroke-linejoin="round" d=" M 131.250, 119.797 130.566, 119.322 129.999, 118.878 129.853, 118.763 129.842, 118.754 129.820, 118.737 129.755, 118.686 129.727, 118.664 129.710, 118.651 129.690, 118.635 129.511, 118.494 "/>
    <path fill="none" stroke="rgb(0, 0, 0)" stroke-width="13.0" stroke-linecap="round" stroke-linejoin="round" d=" M 134.217, 121.402 133.975, 121.282 133.962, 121.275 133.953, 121.271 133.093, 120.844 131.701, 120.076 131.250, 119.797 130.527, 119.351 130.485, 119.325 130.411, 119.279 "/>
    <path fill="none" stroke="rgb(0, 0, 0)" stroke-width="13.0" stroke-linecap="round" stroke-linejoin="round" d=" M 256.111, 138.790 254.460, 140.102 252.666, 141.393 250.732, 142.659 248.662, 143.899 246.461, 145.109 244.133, 146.287 241.682, 147.431 239.113, 148.539 236.433, 149.608 233.645, 150.636 230.756, 151.621 227.771, 152.561 224.697, 153.454 221.540, 154.299 218.305, 155.093 215.000, 155.836 211.632, 156.524 208.206, 157.159 204.730, 157.737 201.211, 158.257 197.656, 158.720 194.072, 159.123 190.467, 159.466 186.847, 159.749 183.220, 159.970 179.593, 160.129 175.974, 160.226 172.369, 160.261 168.787, 160.234 165.234, 160.145 161.717, 159.993 158.244, 159.779 154.821, 159.504 151.456, 159.169 148.155, 158.773 144.924, 158.318 141.771, 157.804 138.702, 157.233 135.722, 156.606 132.839, 155.924 130.057, 155.188 127.382, 154.400 124.820, 153.561 122.376, 152.674 120.054, 151.740 117.860, 150.760 115.798, 149.737 113.871, 148.673 112.085, 147.570 "/>
    <path fill="none" stroke="rgb(0, 0, 0)" stroke-width="13.0" stroke-linecap="round" stroke-linejoin="round" d=" M 141.835, 124.121 140.335, 123.680 138.435, 123.058 136.622, 122.400 134.900, 121.707 134.217, 121.402 133.964, 121.289 133.950, 121.283 133.941, 121.278 133.273, 120.980 "/>
    <path fill="none" stroke="rgb(0, 0, 0)" stroke-width="13.0" stroke-linecap="round" stroke-linejoin="round" d=" M 173.216, 127.813 170.694, 127.793 167.986, 127.725 165.306, 127.610 162.659, 127.447 160.051, 127.237 157.486, 126.982 154.970, 126.680 152.508, 126.333 150.105, 125.941 147.766, 125.506 145.495, 125.028 143.297, 124.508 141.835, 124.121 141.177, 123.948 "/>
    <path fill="none" stroke="rgb(0, 0, 0)" stroke-width="13.0" stroke-linecap="round" stroke-linejoin="round" d=" M 192.965, 126.605 192.925, 126.610 190.156, 126.921 187.330, 127.190 184.493, 127.411 181.651, 127.585 178.808, 127.710 175.972, 127.786 173.216, 127.813 173.147, 127.813 "/>
    <path fill="none" stroke="rgb(0, 0, 0)" stroke-width="13.0" stroke-linecap="round" stroke-linejoin="round" d=" M 224.292, 118.880 223.767, 119.089 222.249, 119.695 220.124, 120.478 217.922, 121.229 215.648, 121.946 213.305, 122.626 210.898, 123.270 208.433, 123.875 205.915, 124.441 203.347, 124.966 200.736, 125.450 198.087, 125.890 195.406, 126.287 192.925, 126.610 "/>
    <path fill="none" stroke="rgb(0, 0, 0)" stroke-width="13.0" stroke-linecap="round" stroke-linejoin="round" d=" M 231.820, 114.972 231.335, 115.263 231.326, 115.268 231.314, 115.275 231.051, 115.433 230.285, 115.892 228.652, 116.789 226.925, 117.663 225.108, 118.512 223.767, 119.089 "/>
    <path fill="none" stroke="rgb(0, 0, 0)" stroke-width="13.0" stroke-linecap="round" stroke-linejoin="round" d=" M 234.484, 112.934 234.465, 112.949 233.829, 113.454 233.291, 113.882 231.995, 114.815 231.321, 115.256 231.312, 115.262 231.301, 115.269 231.051, 115.433 "/>
    <path fill="none" stroke="rgb(0, 0, 0)" stroke-width="13.0" stroke-linecap="round" stroke-linejoin="round" d=" M 235.303, 112.044 235.215, 112.133 235.203, 112.144 235.198, 112.150 235.162, 112.185 235.107, 112.240 235.093, 112.254 235.086, 112.260 234.976, 112.370 234.348, 112.995 233.829, 113.454 "/>
    <path fill="none" stroke="rgb(0, 0, 0)" stroke-width="13.0" stroke-linecap="round" stroke-linejoin="round" d=" M 235.757, 111.357 235.327, 111.921 235.243, 112.031 235.235, 112.042 235.205, 112.081 235.103, 112.215 235.098, 112.221 235.035, 112.304 234.976, 112.370 "/>
    <path fill="none" stroke="rgb(0, 0, 0)" stroke-width="13.0" stroke-linecap="round" stroke-linejoin="round" d=" M 235.394, 111.795 235.245, 112.026 235.235, 112.042 "/>
    <path fill="none" stroke="rgb(0, 0, 0)" stroke-width="13.0" stroke-linecap="round" stroke-linejoin="round" d=" M 235.464, 111.451 235.205, 112.081 "/>
    <path fill="none" stroke="rgb(0, 0, 0)" stroke-width="13.0" stroke-linecap="round" stroke-linejoin="round" d=" M 235.117, 112.157 235.098, 112.221 "/>
    <path fill="none" stroke="rgb(0, 0, 0)" stroke-width="13.0" stroke-linecap="round" stroke-linejoin="round" d=" M 129.708, 118.601 129.333, 117.921 "/>
    <path fill="none" stroke="rgb(0, 0, 0)" stroke-width="13.0" stroke-linecap="round" stroke-linejoin="round" d=" M 129.708, 118.601 129.667, 118.551 129.424, 118.256 "/>
    <path fill="none" stroke="rgb(0, 0, 0)" stroke-width="13.0" stroke-linecap="round" stroke-linejoin="round" d=" M 129.842, 118.737 129.775, 118.579 "/>
  </g>
</svg>
