<?xml version="1.0" encoding="utf-8" ?>
<svg xmlns="http://www.w3.org/2000/svg" version="1.1" width="400" height="400" viewBox="0 0 400 400">
  <g>
    <path fill="none" stroke="rgb(0, 0, 0)" stroke-width="13.0" stroke-linecap="round" stroke-linejoin="round" d=" M 130.640, 120.609 128.862, 122.838 128.273, 123.610 127.735, 124.391 127.248, 125.181 126.812, 125.980 126.428, 126.787 126.096, 127.601 123.703, 134.055 123.417, 134.893 123.184, 135.738 123.004, 136.590 122.878, 137.447 121.941, 147.403 121.005, 157.359 120.068, 167.315 119.131, 177.271 118.194, 187.227 117.257, 197.183 116.321, 207.139 115.384, 217.095 114.447, 227.051 114.319, 228.412 114.246, 229.274 114.227, 230.141 114.262, 231.012 114.350, 231.887 114.491, 232.765 114.686, 233.645 115.983, 238.384 116.227, 239.250 116.522, 240.117 116.870, 240.984 117.269, 241.852 117.719, 242.721 118.221, 243.588 118.774, 244.455 119.377, 245.319 120.031, 246.182 120.734, 247.042 121.487, 247.899 122.289, 248.752 123.139, 249.601 124.037, 250.445 124.983, 251.284 125.976, 252.117 127.014, 252.944 128.098, 253.764 129.228, 254.577 136.253, 259.519 137.305, 260.240 138.396, 260.955 139.525, 261.661 140.693, 262.360 141.897, 263.050 143.137, 263.730 144.413, 264.401 145.724, 265.063 147.069, 265.714 148.447, 266.354 149.857, 266.984 151.299, 267.602 152.771, 268.208 154.273, 268.802 155.804, 269.383 157.363, 269.952 158.949, 270.507 160.561, 271.049 162.198, 271.577 163.859, 272.091 165.543, 272.590 167.250, 273.074 168.977, 273.544 170.724, 273.998 172.490, 274.436 174.274, 274.858 176.075, 275.265 177.891, 275.654 179.722, 276.028 181.567, 276.384 183.424, 276.723 185.292, 277.045 187.171, 277.349 189.058, 277.636 190.954, 277.905 192.856, 278.156 194.763, 278.389 196.676, 278.603 198.591, 278.799 200.509, 278.977 202.427, 279.136 204.346, 279.276 206.263, 279.397 208.177, 279.499 210.088, 279.583 211.994, 279.647 213.895, 279.692 215.788, 279.719 217.673, 279.726 219.549, 279.714 221.414, 279.683 223.267, 279.633 225.108, 279.564 226.935, 279.475 228.747, 279.368 230.543, 279.242 232.322, 279.097 234.083, 278.934 235.824, 278.752 237.546, 278.551 239.246, 278.332 240.923, 278.095 242.578, 277.839 244.207, 277.566 245.812, 277.274 247.390, 276.966 248.941, 276.639 250.464, 276.296 251.958, 275.935 253.422, 275.558 254.854, 275.164 256.255, 274.754 257.624, 274.327 258.959, 273.885 260.260, 273.427 261.526, 272.954 262.756, 272.466 263.949, 271.963 265.106, 271.445 272.971, 267.882 274.219, 267.289 275.424, 266.680 276.584, 266.057 277.701, 265.419 278.772, 264.767 279.797, 264.101 280.776, 263.421 281.708, 262.729 282.593, 262.024 283.429, 261.306 284.217, 260.577 284.956, 259.836 285.645, 259.085 286.284, 258.323 286.873, 257.551 287.411, 256.770 287.898, 255.979 288.334, 255.180 290.487, 250.777 290.879, 249.954 291.218, 249.123 291.504, 248.284 291.737, 247.439 291.917, 246.588 292.043, 245.731 292.980, 235.775 293.917, 225.819 294.853, 215.863 295.790, 205.907 296.727, 195.951 297.664, 185.995 298.601, 176.039 299.537, 166.083 300.474, 156.127 300.602, 154.766 300.675, 153.904 300.694, 153.037 300.660, 152.166 300.572, 151.291 300.430, 150.413 299.284, 143.631 299.093, 142.769 298.850, 141.904 298.554, 141.037 298.207, 140.170 297.808, 139.302 297.358, 138.434 296.136, 136.121 "/>
    <path fill="none" stroke="rgb(0, 0, 0)" stroke-width="13.0" stroke-linecap="round" stroke-linejoin="round" d=" M 291.945, 141.713 291.875, 141.840 291.426, 142.569 290.930, 143.289 290.387, 144.001 289.798, 144.703 289.163, 145.396 288.482, 146.079 287.756, 146.751 286.985, 147.412 286.169, 148.062 285.310, 148.701 284.408, 149.327 283.463, 149.941 282.475, 150.542 281.446, 151.130 280.376, 151.705 279.265, 152.266 278.115, 152.812 276.926, 153.344 275.699, 153.861 274.434, 154.363 273.132, 154.850 271.794, 155.321 270.421, 155.776 269.014, 156.214 267.573, 156.636 266.100, 157.041 264.595, 157.429 263.059, 157.800 261.493, 158.153 259.898, 158.489 258.275, 158.807 256.625, 159.106 254.948, 159.387 253.247, 159.650 251.522, 159.894 249.774, 160.119 248.004, 160.326 246.213, 160.513 244.402, 160.681 242.573, 160.830 240.726, 160.960 238.863, 161.070 236.984, 161.161 235.091, 161.232 233.185, 161.283 231.267, 161.315 229.338, 161.327 227.400, 161.320 225.453, 161.293 223.499, 161.247 221.538, 161.180 219.573, 161.095 217.604, 160.989 215.633, 160.865 213.660, 160.721 211.687, 160.557 209.715, 160.375 207.745, 160.173 205.779, 159.953 203.817, 159.713 201.861, 159.455 199.912, 159.179 197.971, 158.884 196.040, 158.571 194.118, 158.240 192.209, 157.891 190.312, 157.524 188.429, 157.141 186.561, 156.740 184.709, 156.322 182.874, 155.888 181.058, 155.437 179.262, 154.970 177.485, 154.487 175.731, 153.989 173.999, 153.476 172.291, 152.947 170.608, 152.405 168.950, 151.847 167.319, 151.276 165.716, 150.692 164.141, 150.094 162.597, 149.483 161.083, 148.860 159.600, 148.224 158.150, 147.577 156.733, 146.918 155.350, 146.249 154.002, 145.569 152.690, 144.878 151.414, 144.178 150.176, 143.469 148.975, 142.751 147.814, 142.024 146.692, 141.290 145.610, 140.548 144.569, 139.798 143.570, 139.042 142.612, 138.280 141.698, 137.512 140.826, 136.739 139.998, 135.961 139.214, 135.178 138.475, 134.392 137.781, 133.602 137.133, 132.809 136.530, 132.014 135.974, 131.217 135.464, 130.418 135.002, 129.618 134.586, 128.818 134.218, 128.018 133.898, 127.218 133.856, 127.094 "/>
    <path fill="none" stroke="rgb(0, 0, 0)" stroke-width="13.0" stroke-linecap="round" stroke-linejoin="round" d=" M 215.557, 72.030 212.144, 71.794 208.739, 71.620 205.348, 71.508 201.978, 71.458 198.635, 71.470 195.328, 71.544 192.062, 71.680 188.843, 71.878 185.679, 72.137 182.576, 72.457 179.539, 72.837 176.576, 73.277 173.692, 73.775 170.892, 74.330 169.838, 74.560 167.071, 75.185 164.401, 75.866 161.835, 76.603 159.377, 77.392 157.033, 78.234 154.807, 79.126 153.506, 79.652 151.361, 80.611 149.346, 81.617 147.464, 82.669 146.146, 83.441 144.370, 84.556 142.738, 85.712 141.482, 86.698 139.974, 87.912 138.617, 89.164 137.461, 90.344 136.243, 91.648 135.184, 92.985 134.161, 94.335 133.253, 95.717 132.399, 97.198 131.650, 98.621 130.979, 100.207 130.394, 101.664 129.920, 103.330 129.504, 104.814 129.260, 106.318 128.991, 108.037 128.919, 109.559 128.862, 111.296 128.961, 112.829 129.116, 114.556 129.387, 116.094 129.750, 117.780 130.189, 119.316 130.640, 120.609 130.753, 120.933 131.356, 122.460 132.110, 123.980 132.871, 125.491 133.794, 127.001 133.856, 127.094 134.712, 128.379 135.782, 129.863 137.008, 131.340 138.062, 132.547 139.422, 133.989 140.930, 135.418 142.087, 136.428 143.713, 137.815 145.479, 139.184 147.382, 140.530 149.418, 141.852 150.565, 142.591 152.688, 143.860 154.933, 145.100 157.295, 146.309 159.771, 147.483 162.353, 148.620 163.356, 149.047 165.985, 150.123 168.708, 151.157 171.522, 152.150 174.419, 153.098 177.394, 154.000 180.441, 154.854 183.555, 155.659 186.728, 156.412 189.954, 157.112 193.227, 157.757 196.541, 158.347 199.888, 158.880 203.262, 159.356 206.656, 159.772 210.063, 160.129 213.476, 160.425 216.889, 160.661 220.294, 160.835 223.685, 160.947 227.056, 160.997 230.398, 160.985 233.705, 160.911 236.972, 160.775 240.190, 160.577 243.354, 160.318 246.458, 159.998 249.494, 159.618 252.457, 159.178 255.342, 158.680 258.141, 158.125 259.195, 157.895 261.963, 157.270 264.632, 156.589 267.199, 155.852 269.656, 155.063 272.001, 154.221 274.227, 153.329 275.527, 152.803 277.672, 151.844 279.687, 150.838 281.569, 149.786 282.887, 149.014 284.663, 147.899 286.295, 146.743 287.551, 145.757 289.060, 144.543 290.416, 143.291 291.573, 142.111 291.945, 141.713 292.791, 140.807 293.849, 139.470 294.872, 138.120 295.780, 136.738 296.136, 136.121 296.635, 135.257 297.384, 133.834 298.054, 132.248 298.639, 130.791 299.113, 129.125 299.529, 127.641 299.773, 126.137 300.042, 124.418 300.115, 122.896 300.171, 121.159 300.072, 119.625 299.917, 117.899 299.646, 116.361 299.283, 114.675 298.844, 113.139 298.280, 111.522 297.677, 109.995 296.923, 108.475 296.163, 106.964 295.240, 105.454 294.321, 104.076 293.252, 102.592 292.025, 101.115 290.971, 99.908 289.612, 98.466 288.103, 97.037 286.947, 96.027 285.320, 94.640 283.554, 93.271 281.651, 91.925 279.615, 90.603 278.468, 89.864 276.345, 88.595 274.100, 87.355 271.738, 86.146 269.263, 84.972 266.680, 83.835 265.677, 83.408 263.048, 82.332 260.325, 81.298 257.512, 80.305 254.615, 79.357 251.639, 78.455 248.592, 77.600 245.479, 76.796 242.306, 76.043 239.079, 75.343 235.806, 74.698 232.492, 74.108 229.145, 73.575 225.772, 73.099 222.378, 72.683 218.971, 72.326 215.557, 72.030 "/>
    <path fill="none" stroke="rgb(0, 0, 0)" stroke-width="13.0" stroke-linecap="round" stroke-linejoin="round" d=" M 162.343, 109.000 162.338, 108.993 162.292, 108.917 162.222, 108.802 162.160, 108.702 161.661, 107.709 "/>
    <path fill="none" stroke="rgb(0, 0, 0)" stroke-width="13.0" stroke-linecap="round" stroke-linejoin="round" d=" M 162.781, 109.571 162.575, 109.323 162.348, 109.008 162.343, 109.000 162.339, 108.994 162.303, 108.945 162.242, 108.860 162.210, 108.816 161.849, 108.315 "/>
    <path fill="none" stroke="rgb(0, 0, 0)" stroke-width="13.0" stroke-linecap="round" stroke-linejoin="round" d=" M 164.131, 110.910 163.313, 110.135 162.781, 109.571 162.526, 109.300 162.453, 109.223 162.391, 109.156 162.383, 109.148 162.368, 109.132 162.366, 109.130 162.355, 109.118 "/>
    <path fill="none" stroke="rgb(0, 0, 0)" stroke-width="13.0" stroke-linecap="round" stroke-linejoin="round" d=" M 167.573, 113.447 167.116, 113.150 165.716, 112.160 164.944, 111.561 164.417, 111.154 164.131, 110.910 163.316, 110.214 163.298, 110.198 163.221, 110.133 "/>
    <path fill="none" stroke="rgb(0, 0, 0)" stroke-width="13.0" stroke-linecap="round" stroke-linejoin="round" d=" M 282.887, 149.014 280.972, 150.084 278.921, 151.108 276.738, 152.084 274.428, 153.009 271.995, 153.883 269.444, 154.702 266.780, 155.467 264.010, 156.174 261.137, 156.822 258.168, 157.411 255.110, 157.939 251.967, 158.405 248.748, 158.808 245.457, 159.147 242.102, 159.422 238.689, 159.632 235.225, 159.776 231.718, 159.855 228.174, 159.868 224.600, 159.815 221.004, 159.696 217.393, 159.511 213.774, 159.262 210.154, 158.947 206.541, 158.569 202.942, 158.127 199.365, 157.623 195.816, 157.058 192.302, 156.432 188.831, 155.748 185.410, 155.005 182.045, 154.207 178.744, 153.354 175.512, 152.449 172.357, 151.492 169.285, 150.486 166.302, 149.434 163.414, 148.336 160.627, 147.196 157.946, 146.016 155.377, 144.797 152.925, 143.543 150.595, 142.256 148.392, 140.938 146.320, 139.593 144.383, 138.223 142.585, 136.830 140.930, 135.418 "/>
    <path fill="none" stroke="rgb(0, 0, 0)" stroke-width="13.0" stroke-linecap="round" stroke-linejoin="round" d=" M 175.990, 117.782 174.552, 117.149 172.647, 116.245 170.828, 115.315 169.100, 114.360 167.573, 113.447 167.466, 113.383 "/>
    <path fill="none" stroke="rgb(0, 0, 0)" stroke-width="13.0" stroke-linecap="round" stroke-linejoin="round" d=" M 252.139, 124.933 251.867, 124.987 249.877, 125.382 247.546, 125.784 245.151, 126.139 242.697, 126.447 240.189, 126.705 237.632, 126.915 235.031, 127.074 232.391, 127.184 229.718, 127.244 227.017, 127.254 224.293, 127.214 221.553, 127.123 218.801, 126.982 216.042, 126.792 213.284, 126.553 210.530, 126.264 207.788, 125.928 205.061, 125.544 202.356, 125.113 199.678, 124.636 197.033, 124.114 194.425, 123.548 191.861, 122.940 189.345, 122.290 186.882, 121.600 184.478, 120.871 182.136, 120.104 179.863, 119.302 177.662, 118.466 175.990, 117.782 175.538, 117.597 "/>
    <path fill="none" stroke="rgb(0, 0, 0)" stroke-width="13.0" stroke-linecap="round" stroke-linejoin="round" d=" M 262.656, 121.649 261.480, 122.121 260.943, 122.336 259.138, 122.983 257.246, 123.591 255.271, 124.158 253.216, 124.683 251.867, 124.987 "/>
    <path fill="none" stroke="rgb(0, 0, 0)" stroke-width="13.0" stroke-linecap="round" stroke-linejoin="round" d=" M 265.800, 119.957 265.006, 120.401 264.416, 120.731 264.090, 120.894 262.934, 121.471 261.480, 122.121 "/>
    <path fill="none" stroke="rgb(0, 0, 0)" stroke-width="13.0" stroke-linecap="round" stroke-linejoin="round" d=" M 266.885, 119.129 266.864, 119.143 266.629, 119.310 265.734, 119.944 265.006, 120.401 "/>
    <path fill="none" stroke="rgb(0, 0, 0)" stroke-width="13.0" stroke-linecap="round" stroke-linejoin="round" d=" M 267.575, 118.440 267.307, 118.687 267.246, 118.744 267.185, 118.799 267.167, 118.817 266.653, 119.290 266.629, 119.310 "/>
    <path fill="none" stroke="rgb(0, 0, 0)" stroke-width="13.0" stroke-linecap="round" stroke-linejoin="round" d=" M 267.915, 117.885 267.276, 118.692 267.219, 118.764 267.185, 118.799 "/>
    <path fill="none" stroke="rgb(0, 0, 0)" stroke-width="13.0" stroke-linecap="round" stroke-linejoin="round" d=" M 267.472, 118.352 267.167, 118.817 "/>
    <path fill="none" stroke="rgb(0, 0, 0)" stroke-width="13.0" stroke-linecap="round" stroke-linejoin="round" d=" M 162.292, 108.917 162.031, 108.254 "/>
    <path fill="none" stroke="rgb(0, 0, 0)" stroke-width="13.0" stroke-linecap="round" stroke-linejoin="round" d=" M 162.348, 109.008 162.321, 108.911 "/>
  </g>
</svg>
