<?xml version="1.0" encoding="utf-8" ?>
<svg xmlns="http://www.w3.org/2000/svg" version="1.1" width="400" height="400" viewBox="0 0 400 400">
  <g>
    <path fill="none" stroke="rgb(0, 0, 0)" stroke-width="13.0" stroke-linecap="round" stroke-linejoin="round" d=" M 121.115, 218.325 120.435, 219.276 119.842, 220.133 119.300, 220.997 118.809, 221.867 118.369, 222.744 117.981, 223.627 117.644, 224.514 117.360, 225.407 115.375, 231.900 115.138, 232.815 114.955, 233.733 114.826, 234.654 114.750, 235.578 114.431, 245.573 114.112, 255.568 113.793, 265.563 113.475, 275.558 113.156, 285.553 112.837, 295.548 112.518, 305.542 112.199, 315.537 111.876, 325.668 111.854, 326.594 111.886, 327.521 111.971, 328.448 112.110, 329.376 112.303, 330.304 112.549, 331.231 112.849, 332.156 114.433, 336.718 114.779, 337.624 115.177, 338.526 115.626, 339.426 116.127, 340.322 116.679, 341.214 117.282, 342.102 117.935, 342.984 118.638, 343.860 119.391, 344.730 120.193, 345.594 121.043, 346.450 121.942, 347.298 122.888, 348.138 123.882, 348.969 124.921, 349.791 126.007, 350.603 127.137, 351.405 128.313, 352.196 129.531, 352.975 130.793, 353.743 137.863, 357.854 139.032, 358.532 140.238, 359.198 141.481, 359.852 142.760, 360.494 144.073, 361.124 145.420, 361.740 146.801, 362.344 148.214, 362.933 149.659, 363.509 151.135, 364.070 152.641, 364.617 154.175, 365.149 155.738, 365.665 157.328, 366.166 158.944, 366.650 160.585, 367.119 162.250, 367.571 163.939, 368.006 165.649, 368.424 167.381, 368.825 169.133, 369.208 170.904, 369.573 172.693, 369.921 174.499, 370.250 176.321, 370.561 178.157, 370.853 180.007, 371.126 181.870, 371.381 183.743, 371.616 185.628, 371.833 187.521, 372.029 189.422, 372.207 191.330, 372.364 193.244, 372.502 195.162, 372.621 197.084, 372.719 199.008, 372.798 200.932, 372.856 202.857, 372.895 204.781, 372.914 206.702, 372.912 208.619, 372.891 210.532, 372.849 212.439, 372.788 214.339, 372.707 216.231, 372.605 218.113, 372.484 219.985, 372.344 221.845, 372.183 223.693, 372.003 225.527, 371.803 227.345, 371.585 229.148, 371.347 230.934, 371.089 232.702, 370.813 234.450, 370.518 236.178, 370.205 237.885, 369.873 239.569, 369.523 241.230, 369.155 242.867, 368.770 244.478, 368.366 246.063, 367.946 247.620, 367.509 249.150, 367.054 250.650, 366.583 252.120, 366.097 253.559, 365.594 254.967, 365.075 256.341, 364.541 257.683, 363.993 258.990, 363.429 260.261, 362.852 261.498, 362.260 268.715, 358.658 270.053, 357.983 271.350, 357.293 272.604, 356.588 273.815, 355.870 274.982, 355.138 276.104, 354.394 277.181, 353.636 278.212, 352.867 279.197, 352.086 280.135, 351.293 281.025, 350.490 281.866, 349.677 282.659, 348.854 283.403, 348.021 284.097, 347.180 284.741, 346.331 285.334, 345.474 285.877, 344.609 286.368, 343.738 286.808, 342.861 287.197, 341.978 289.070, 337.521 289.414, 336.615 289.703, 335.705 289.940, 334.790 290.123, 333.872 290.252, 332.951 290.328, 332.027 290.647, 322.032 290.966, 312.037 291.285, 302.042 291.604, 292.047 291.923, 282.053 292.241, 272.058 292.560, 262.063 292.879, 252.068 293.203, 241.937 293.224, 241.011 293.193, 240.084 293.107, 239.157 292.968, 238.229 292.775, 237.301 291.209, 230.699 290.967, 229.791 290.674, 228.884 290.328, 227.979 289.930, 227.077 289.481, 226.178 288.980, 225.282 288.429, 224.390 287.923, 223.578 "/>
    <path fill="none" stroke="rgb(0, 0, 0)" stroke-width="13.0" stroke-linecap="round" stroke-linejoin="round" d=" M 283.317, 230.886 283.262, 230.997 282.809, 231.800 282.309, 232.597 281.761, 233.387 281.168, 234.170 280.528, 234.945 279.843, 235.712 279.112, 236.471 278.336, 237.221 277.516, 237.961 276.651, 238.692 275.744, 239.412 274.793, 240.121 273.800, 240.819 272.765, 241.506 271.690, 242.180 270.573, 242.842 269.417, 243.492 268.222, 244.128 266.989, 244.750 265.718, 245.358 264.410, 245.952 263.066, 246.532 261.686, 247.096 260.273, 247.645 258.825, 248.178 257.345, 248.695 255.834, 249.196 254.291, 249.680 252.718, 250.147 251.116, 250.597 249.487, 251.030 247.830, 251.444 246.147, 251.841 244.439, 252.219 242.707, 252.579 240.952, 252.920 239.175, 253.242 237.377, 253.546 235.559, 253.830 233.723, 254.094 231.869, 254.339 229.998, 254.564 228.113, 254.769 226.213, 254.954 224.299, 255.119 222.375, 255.264 220.439, 255.389 218.494, 255.493 216.540, 255.576 214.579, 255.639 212.612, 255.682 210.640, 255.704 208.664, 255.705 206.686, 255.686 204.707, 255.647 202.728, 255.586 200.749, 255.506 198.773, 255.404 196.801, 255.283 194.833, 255.141 192.870, 254.979 190.915, 254.796 188.968, 254.594 187.031, 254.371 185.104, 254.129 183.189, 253.868 181.286, 253.587 179.398, 253.286 177.524, 252.966 175.667, 252.628 173.828, 252.271 172.006, 251.895 170.205, 251.501 168.424, 251.089 166.665, 250.659 164.928, 250.211 163.216, 249.746 161.528, 249.265 159.866, 248.766 158.232, 248.251 156.625, 247.720 155.047, 247.174 153.498, 246.612 151.981, 246.034 150.495, 245.442 149.041, 244.836 147.622, 244.215 146.236, 243.581 144.885, 242.934 143.571, 242.274 142.293, 241.601 141.052, 240.916 139.850, 240.219 138.687, 239.512 137.563, 238.793 136.480, 238.064 135.438, 237.325 134.437, 236.577 133.479, 235.819 132.563, 235.053 131.691, 234.279 130.863, 233.497 130.079, 232.707 129.339, 231.912 128.646, 231.109 127.997, 230.301 127.395, 229.488 126.840, 228.670 126.331, 227.848 125.869, 227.022 125.455, 226.193 125.433, 226.143 "/>
    <path fill="none" stroke="rgb(0, 0, 0)" stroke-width="13.0" stroke-linecap="round" stroke-linejoin="round" d=" M 205.153, 163.109 201.729, 163.055 198.312, 163.067 194.909, 163.143 191.527, 163.284 188.173, 163.490 184.853, 163.760 181.575, 164.094 178.344, 164.490 175.168, 164.950 172.053, 165.470 169.004, 166.050 166.029, 166.690 165.150, 166.897 162.191, 167.609 159.319, 168.380 156.539, 169.206 153.858, 170.087 151.280, 171.020 148.811, 172.004 146.455, 173.037 145.259, 173.570 142.978, 174.671 140.823, 175.817 138.797, 177.007 137.581, 177.791 135.655, 179.043 133.870, 180.334 132.228, 181.661 131.050, 182.679 129.532, 184.061 128.167, 185.474 127.096, 186.684 125.869, 188.145 124.802, 189.632 123.871, 191.008 122.956, 192.534 122.199, 194.033 121.443, 195.593 120.855, 197.170 120.283, 198.775 119.863, 200.376 119.493, 202.047 119.243, 203.664 119.082, 205.372 119.004, 206.999 119.056, 208.714 119.151, 210.344 119.413, 212.037 119.680, 213.661 120.118, 215.284 120.584, 216.915 121.115, 218.325 121.189, 218.522 121.851, 220.070 122.617, 221.655 123.461, 223.092 124.383, 224.648 125.433, 226.143 125.466, 226.190 126.462, 227.471 127.688, 228.975 129.069, 230.457 130.187, 231.556 131.696, 232.992 133.352, 234.403 135.152, 235.784 136.325, 236.651 138.231, 237.977 140.270, 239.269 142.438, 240.525 144.732, 241.741 145.860, 242.333 148.227, 243.485 150.707, 244.594 153.295, 245.658 155.987, 246.675 158.776, 247.641 161.657, 248.557 162.540, 248.825 165.444, 249.669 168.427, 250.459 171.483, 251.194 174.605, 251.872 177.787, 252.491 181.022, 253.051 184.305, 253.551 187.628, 253.989 190.986, 254.364 194.370, 254.676 197.775, 254.924 201.193, 255.108 204.617, 255.227 208.041, 255.281 211.458, 255.270 214.861, 255.193 218.243, 255.052 221.597, 254.846 224.917, 254.576 228.195, 254.243 231.426, 253.846 234.602, 253.387 237.717, 252.866 240.766, 252.286 243.741, 251.646 244.620, 251.439 247.579, 250.727 250.452, 249.957 253.231, 249.130 255.913, 248.250 258.491, 247.316 260.960, 246.332 263.315, 245.299 264.511, 244.766 266.792, 243.665 268.948, 242.519 270.973, 241.329 272.189, 240.545 274.115, 239.293 275.900, 238.003 277.542, 236.676 278.720, 235.657 280.238, 234.275 281.604, 232.862 282.675, 231.652 283.317, 230.886 283.901, 230.191 284.968, 228.704 285.899, 227.328 286.814, 225.802 287.571, 224.303 287.923, 223.578 288.327, 222.743 288.915, 221.166 289.487, 219.561 289.908, 217.960 290.277, 216.290 290.528, 214.672 290.688, 212.964 290.766, 211.337 290.715, 209.622 290.620, 207.992 290.357, 206.300 290.090, 204.675 289.652, 203.052 289.186, 201.421 288.581, 199.814 287.920, 198.266 287.153, 196.681 286.309, 195.244 285.388, 193.688 284.305, 192.147 283.308, 190.865 282.082, 189.361 280.701, 187.879 279.584, 186.781 278.074, 185.344 276.418, 183.934 274.618, 182.552 273.445, 181.685 271.539, 180.359 269.500, 179.067 267.332, 177.812 265.039, 176.595 263.910, 176.003 261.544, 174.851 259.063, 173.742 256.475, 172.678 253.783, 171.662 250.994, 170.695 248.113, 169.779 247.230, 169.511 244.326, 168.667 241.343, 167.877 238.287, 167.143 235.166, 166.465 231.984, 165.845 228.748, 165.285 225.465, 164.786 222.142, 164.348 218.785, 163.972 215.400, 163.660 211.996, 163.412 208.578, 163.228 205.153, 163.109 "/>
    <path fill="none" stroke="rgb(0, 0, 0)" stroke-width="13.0" stroke-linecap="round" stroke-linejoin="round" d=" M 152.832, 206.430 152.707, 206.251 152.703, 206.246 152.605, 206.107 152.597, 206.096 152.551, 206.030 152.544, 206.020 152.511, 205.973 152.441, 205.873 152.430, 205.857 151.824, 204.835 "/>
    <path fill="none" stroke="rgb(0, 0, 0)" stroke-width="13.0" stroke-linecap="round" stroke-linejoin="round" d=" M 153.628, 207.307 152.978, 206.609 152.832, 206.430 152.708, 206.278 152.704, 206.273 152.617, 206.166 152.614, 206.163 152.606, 206.153 152.583, 206.125 152.577, 206.118 152.539, 206.070 152.510, 206.035 152.145, 205.588 "/>
    <path fill="none" stroke="rgb(0, 0, 0)" stroke-width="13.0" stroke-linecap="round" stroke-linejoin="round" d=" M 155.588, 208.952 155.031, 208.524 153.882, 207.546 153.864, 207.532 153.863, 207.530 153.855, 207.523 153.628, 207.307 153.085, 206.790 153.063, 206.769 152.798, 206.517 "/>
    <path fill="none" stroke="rgb(0, 0, 0)" stroke-width="13.0" stroke-linecap="round" stroke-linejoin="round" d=" M 160.318, 211.849 159.622, 211.480 158.028, 210.557 156.528, 209.606 155.588, 208.952 155.127, 208.631 "/>
    <path fill="none" stroke="rgb(0, 0, 0)" stroke-width="13.0" stroke-linecap="round" stroke-linejoin="round" d=" M 272.189, 240.545 270.128, 241.756 267.934, 242.922 265.612, 244.043 263.168, 245.115 260.605, 246.136 257.930, 247.105 255.147, 248.019 252.262, 248.876 249.281, 249.676 246.210, 250.415 243.054, 251.094 239.822, 251.709 236.518, 252.261 233.150, 252.748 229.724, 253.169 226.248, 253.523 222.728, 253.809 219.171, 254.027 215.585, 254.177 211.977, 254.258 208.353, 254.270 204.722, 254.212 201.091, 254.086 197.466, 253.891 193.856, 253.628 190.267, 253.297 186.707, 252.899 183.183, 252.435 179.702, 251.905 176.271, 251.311 172.897, 250.654 169.586, 249.936 166.346, 249.156 163.183, 248.319 160.103, 247.424 157.113, 246.473 154.218, 245.470 151.425, 244.415 148.738, 243.311 146.164, 242.160 143.708, 240.964 141.373, 239.726 139.167, 238.448 137.091, 237.133 135.152, 235.784 "/>
    <path fill="none" stroke="rgb(0, 0, 0)" stroke-width="13.0" stroke-linecap="round" stroke-linejoin="round" d=" M 171.913, 216.437 170.123, 215.868 167.976, 215.124 165.904, 214.341 163.912, 213.523 162.003, 212.669 160.318, 211.849 160.181, 211.782 "/>
    <path fill="none" stroke="rgb(0, 0, 0)" stroke-width="13.0" stroke-linecap="round" stroke-linejoin="round" d=" M 237.082, 218.585 236.897, 218.625 234.678, 219.102 232.214, 219.571 229.696, 219.992 227.129, 220.362 224.518, 220.683 221.869, 220.953 219.186, 221.171 216.475, 221.338 213.742, 221.452 210.992, 221.513 208.231, 221.522 205.463, 221.479 202.696, 221.382 199.933, 221.234 197.182, 221.033 194.447, 220.781 191.734, 220.478 189.048, 220.124 186.395, 219.720 183.780, 219.268 181.208, 218.767 178.685, 218.219 176.216, 217.625 173.805, 216.987 171.913, 216.437 171.458, 216.305 "/>
    <path fill="none" stroke="rgb(0, 0, 0)" stroke-width="13.0" stroke-linecap="round" stroke-linejoin="round" d=" M 250.593, 214.065 249.606, 214.498 248.780, 214.860 246.880, 215.618 244.895, 216.336 242.831, 217.014 240.692, 217.650 238.481, 218.243 236.897, 218.625 "/>
    <path fill="none" stroke="rgb(0, 0, 0)" stroke-width="13.0" stroke-linecap="round" stroke-linejoin="round" d=" M 254.150, 212.072 254.054, 212.128 252.660, 212.946 251.075, 213.789 249.606, 214.498 "/>
    <path fill="none" stroke="rgb(0, 0, 0)" stroke-width="13.0" stroke-linecap="round" stroke-linejoin="round" d=" M 256.709, 210.127 256.669, 210.159 256.183, 210.552 255.909, 210.774 255.906, 210.776 255.889, 210.790 255.551, 211.063 254.292, 211.973 254.054, 212.128 "/>
    <path fill="none" stroke="rgb(0, 0, 0)" stroke-width="13.0" stroke-linecap="round" stroke-linejoin="round" d=" M 257.489, 209.248 257.333, 209.410 257.319, 209.424 257.305, 209.439 257.292, 209.452 257.260, 209.485 257.237, 209.509 257.212, 209.535 257.072, 209.679 256.562, 210.208 256.183, 210.552 "/>
    <path fill="none" stroke="rgb(0, 0, 0)" stroke-width="13.0" stroke-linecap="round" stroke-linejoin="round" d=" M 257.925, 208.521 257.440, 209.198 257.360, 209.310 257.330, 209.350 257.281, 209.419 257.271, 209.432 257.248, 209.465 257.224, 209.498 257.072, 209.679 "/>
    <path fill="none" stroke="rgb(0, 0, 0)" stroke-width="13.0" stroke-linecap="round" stroke-linejoin="round" d=" M 257.579, 208.922 257.378, 209.257 257.344, 209.315 257.281, 209.419 "/>
    <path fill="none" stroke="rgb(0, 0, 0)" stroke-width="13.0" stroke-linecap="round" stroke-linejoin="round" d=" M 257.662, 208.460 257.344, 209.315 "/>
    <path fill="none" stroke="rgb(0, 0, 0)" stroke-width="13.0" stroke-linecap="round" stroke-linejoin="round" d=" M 257.350, 209.080 257.248, 209.465 "/>
    <path fill="none" stroke="rgb(0, 0, 0)" stroke-width="13.0" stroke-linecap="round" stroke-linejoin="round" d=" M 255.855, 210.721 255.906, 210.776 "/>
    <path fill="none" stroke="rgb(0, 0, 0)" stroke-width="13.0" stroke-linecap="round" stroke-linejoin="round" d=" M 152.605, 206.107 152.495, 205.437 "/>
    <path fill="none" stroke="rgb(0, 0, 0)" stroke-width="13.0" stroke-linecap="round" stroke-linejoin="round" d=" M 152.551, 206.030 152.536, 205.998 152.492, 205.909 152.178, 205.260 "/>
    <path fill="none" stroke="rgb(0, 0, 0)" stroke-width="13.0" stroke-linecap="round" stroke-linejoin="round" d=" M 152.707, 206.251 152.700, 206.137 "/>
    <path fill="none" stroke="rgb(0, 0, 0)" stroke-width="13.0" stroke-linecap="round" stroke-linejoin="round" d=" M 152.536, 205.998 152.462, 205.803 "/>
    <path fill="none" stroke="rgb(0, 0, 0)" stroke-width="13.0" stroke-linecap="round" stroke-linejoin="round" d=" M 153.864, 207.532 154.239, 207.190 "/>
  </g>
</svg>
