<?xml version="1.0" encoding="utf-8" ?>
<svg xmlns="http://www.w3.org/2000/svg" version="1.1" width="400" height="400" viewBox="0 0 400 400">
  <g>
    <path fill="none" stroke="rgb(0, 0, 0)" stroke-width="13.0" stroke-linecap="round" stroke-linejoin="round" d=" M 107.845, 202.142 105.383, 206.088 104.938, 206.857 104.545, 207.629 104.203, 208.404 103.914, 209.181 103.677, 209.960 101.985, 216.734 101.797, 217.530 101.662, 218.327 101.581, 219.124 101.554, 219.921 101.682, 229.921 101.810, 239.920 101.939, 249.919 102.067, 259.918 102.195, 269.917 102.324, 279.916 102.452, 289.916 102.580, 299.915 102.708, 309.914 102.742, 312.553 102.769, 313.349 102.849, 314.145 102.983, 314.939 103.170, 315.731 103.412, 316.520 103.706, 317.307 105.500, 321.952 105.841, 322.719 106.234, 323.483 106.678, 324.242 107.174, 324.997 107.721, 325.747 108.319, 326.490 108.968, 327.228 109.666, 327.959 110.414, 328.683 111.212, 329.400 112.058, 330.109 112.952, 330.809 113.894, 331.501 114.883, 332.184 115.918, 332.857 117.000, 333.520 124.859, 338.124 125.869, 338.710 126.919, 339.285 128.008, 339.850 129.136, 340.406 130.302, 340.950 131.505, 341.484 132.744, 342.006 134.020, 342.516 135.330, 343.015 136.675, 343.502 138.053, 343.975 139.463, 344.437 140.906, 344.884 142.379, 345.319 143.882, 345.740 145.414, 346.147 146.975, 346.540 148.562, 346.919 150.176, 347.283 151.816, 347.632 153.479, 347.967 155.166, 348.286 156.875, 348.589 158.606, 348.877 160.356, 349.150 162.126, 349.406 163.914, 349.646 165.719, 349.870 167.539, 350.078 169.375, 350.269 171.224, 350.444 173.086, 350.602 174.960, 350.743 176.844, 350.867 178.737, 350.974 180.638, 351.065 182.546, 351.138 184.460, 351.194 186.378, 351.233 188.300, 351.254 190.225, 351.259 192.150, 351.246 194.076, 351.216 196.000, 351.169 197.922, 351.105 199.841, 351.024 201.755, 350.925 203.663, 350.810 205.564, 350.678 207.457, 350.528 209.341, 350.362 211.215, 350.180 213.077, 349.981 214.927, 349.765 216.763, 349.533 218.584, 349.285 220.389, 349.021 222.177, 348.742 223.947, 348.446 225.698, 348.135 227.429, 347.809 229.138, 347.467 230.825, 347.111 232.489, 346.740 234.129, 346.354 235.743, 345.954 237.331, 345.541 238.892, 345.113 240.425, 344.672 241.928, 344.218 243.402, 343.750 244.845, 343.270 246.256, 342.778 247.634, 342.274 248.979, 341.758 250.290, 341.230 251.566, 340.691 252.806, 340.141 254.010, 339.581 255.176, 339.011 256.304, 338.431 257.394, 337.841 258.444, 337.243 259.455, 336.635 267.149, 331.858 268.231, 331.171 269.267, 330.475 270.257, 329.771 271.200, 329.058 272.095, 328.338 272.941, 327.610 273.739, 326.876 274.488, 326.135 275.187, 325.389 275.837, 324.637 276.435, 323.880 276.983, 323.118 277.480, 322.353 277.925, 321.583 278.319, 320.811 278.660, 320.036 278.950, 319.258 280.627, 314.559 280.869, 313.765 281.058, 312.969 281.192, 312.172 281.273, 311.374 281.301, 310.577 281.173, 300.578 281.044, 290.579 280.916, 280.579 280.788, 270.580 280.660, 260.581 280.531, 250.582 280.403, 240.583 280.275, 230.584 280.146, 220.584 280.113, 217.946 280.086, 217.149 280.006, 216.354 279.872, 215.560 279.684, 214.768 277.818, 208.033 277.582, 207.259 277.293, 206.489 276.952, 205.721 276.560, 204.958 276.115, 204.199 275.620, 203.444 273.329, 199.974 "/>
    <path fill="none" stroke="rgb(0, 0, 0)" stroke-width="13.0" stroke-linecap="round" stroke-linejoin="round" d=" M 270.458, 204.534 270.415, 204.649 270.100, 205.363 269.737, 206.075 269.327, 206.785 268.869, 207.490 268.364, 208.192 267.812, 208.890 267.214, 209.584 266.569, 210.272 265.879, 210.955 265.143, 211.631 264.363, 212.302 263.538, 212.966 262.669, 213.623 261.757, 214.272 260.801, 214.914 259.804, 215.547 258.765, 216.172 257.685, 216.788 256.564, 217.394 255.404, 217.990 254.204, 218.577 252.967, 219.153 251.692, 219.718 250.380, 220.272 249.032, 220.815 247.648, 221.346 246.231, 221.864 244.780, 222.371 243.296, 222.864 241.781, 223.345 240.234, 223.812 238.658, 224.265 237.053, 224.705 235.420, 225.130 233.760, 225.542 232.074, 225.938 230.363, 226.320 228.628, 226.686 226.870, 227.037 225.090, 227.373 223.290, 227.693 221.469, 227.997 219.631, 228.285 217.774, 228.556 215.902, 228.811 214.014, 229.049 212.112, 229.271 210.197, 229.476 208.270, 229.664 206.333, 229.834 204.386, 229.988 202.431, 230.124 200.468, 230.242 198.500, 230.343 196.527, 230.427 194.551, 230.493 192.572, 230.542 190.592, 230.572 188.612, 230.585 186.633, 230.581 184.656, 230.558 182.683, 230.518 180.715, 230.461 178.753, 230.386 176.798, 230.293 174.851, 230.183 172.914, 230.055 170.987, 229.910 169.073, 229.747 167.171, 229.568 165.283, 229.371 163.411, 229.158 161.555, 228.927 159.716, 228.680 157.896, 228.416 156.096, 228.136 154.317, 227.840 152.559, 227.528 150.824, 227.200 149.114, 226.856 147.428, 226.497 145.768, 226.122 144.136, 225.733 142.531, 225.329 140.955, 224.910 139.409, 224.477 137.894, 224.030 136.411, 223.570 134.961, 223.095 133.544, 222.608 132.161, 222.108 130.813, 221.595 129.502, 221.070 128.227, 220.533 126.990, 219.984 125.791, 219.425 124.632, 218.854 123.512, 218.272 122.432, 217.680 121.394, 217.079 120.397, 216.467 119.442, 215.847 118.531, 215.218 117.662, 214.580 116.838, 213.934 116.058, 213.281 115.323, 212.620 114.634, 211.953 113.990, 211.279 113.392, 210.599 112.841, 209.913 112.336, 209.222 111.879, 208.527 111.469, 207.827 111.107, 207.123 110.943, 206.752 "/>
    <path fill="none" stroke="rgb(0, 0, 0)" stroke-width="13.0" stroke-linecap="round" stroke-linejoin="round" d=" M 190.231, 146.533 186.883, 146.597 183.543, 146.716 180.216, 146.889 176.909, 147.116 173.629, 147.397 170.382, 147.730 167.176, 148.116 164.015, 148.553 163.410, 148.639 160.229, 149.138 157.109, 149.688 154.056, 150.288 151.076, 150.936 148.174, 151.631 145.357, 152.372 142.630, 153.157 140.000, 153.985 137.470, 154.854 135.047, 155.762 133.860, 156.211 131.498, 157.177 129.254, 158.180 127.133, 159.216 125.139, 160.285 123.863, 161.010 121.963, 162.131 120.201, 163.280 118.580, 164.454 117.323, 165.421 115.820, 166.641 114.466, 167.882 113.302, 169.049 112.083, 170.329 111.021, 171.626 109.984, 172.970 109.069, 174.299 108.196, 175.778 107.437, 177.133 106.745, 178.723 106.148, 180.100 105.721, 181.483 105.220, 183.166 104.962, 184.561 104.667, 186.298 104.580, 187.699 104.497, 189.460 104.582, 190.861 104.711, 192.619 104.969, 194.014 105.307, 195.738 105.736, 197.120 106.277, 198.783 106.873, 200.146 107.607, 201.721 107.845, 202.142 108.365, 203.059 109.277, 204.519 110.190, 205.827 110.943, 206.752 111.265, 207.148 112.325, 208.421 113.543, 209.675 114.741, 210.815 116.094, 212.027 117.596, 213.213 118.883, 214.151 120.503, 215.291 122.264, 216.400 124.163, 217.479 125.465, 218.176 127.458, 219.200 129.578, 220.190 131.821, 221.142 134.183, 222.056 136.658, 222.929 137.814, 223.334 140.343, 224.147 142.973, 224.916 145.698, 225.641 148.515, 226.320 151.416, 226.951 154.395, 227.533 157.448, 228.065 160.568, 228.546 163.748, 228.974 166.982, 229.350 167.531, 229.414 170.737, 229.729 173.984, 229.990 177.264, 230.198 180.570, 230.352 183.897, 230.452 187.237, 230.497 190.585, 230.487 193.932, 230.423 197.272, 230.304 200.599, 230.131 203.906, 229.904 207.186, 229.623 210.433, 229.289 213.640, 228.904 216.800, 228.467 217.406, 228.381 220.586, 227.882 223.706, 227.332 226.759, 226.732 229.740, 226.084 232.641, 225.389 235.458, 224.648 238.185, 223.863 240.816, 223.035 243.345, 222.166 245.768, 221.258 246.955, 220.808 249.317, 219.842 251.561, 218.840 253.683, 217.804 255.677, 216.735 256.952, 216.010 258.852, 214.889 260.614, 213.740 262.236, 212.565 263.492, 211.599 264.996, 210.379 266.349, 209.138 267.513, 207.971 268.732, 206.691 269.794, 205.394 270.458, 204.534 270.832, 204.050 271.746, 202.721 272.619, 201.242 273.329, 199.974 273.378, 199.886 274.070, 198.296 274.667, 196.920 275.095, 195.537 275.595, 193.854 275.854, 192.459 276.148, 190.722 276.235, 189.321 276.319, 187.559 276.233, 186.158 276.104, 184.401 275.846, 183.006 275.508, 181.281 275.079, 179.900 274.538, 178.237 273.942, 176.873 273.208, 175.299 272.451, 173.961 271.538, 172.501 270.625, 171.193 269.551, 169.872 268.490, 168.598 267.272, 167.345 266.074, 166.205 264.722, 164.993 263.220, 163.806 261.933, 162.868 260.312, 161.729 258.551, 160.619 256.652, 159.541 255.351, 158.844 253.357, 157.820 251.237, 156.830 248.994, 155.877 246.633, 154.964 244.158, 154.091 243.001, 153.686 240.473, 152.873 237.843, 152.104 235.117, 151.379 232.301, 150.700 229.400, 150.069 226.420, 149.487 223.367, 148.955 220.248, 148.474 217.068, 148.045 213.834, 147.670 213.284, 147.606 210.078, 147.291 206.832, 147.029 203.552, 146.821 200.245, 146.668 196.918, 146.568 193.578, 146.523 190.231, 146.533 "/>
    <path fill="none" stroke="rgb(0, 0, 0)" stroke-width="13.0" stroke-linecap="round" stroke-linejoin="round" d=" M 137.498, 185.900 137.306, 185.702 137.197, 185.590 137.177, 185.570 136.457, 184.705 "/>
    <path fill="none" stroke="rgb(0, 0, 0)" stroke-width="13.0" stroke-linecap="round" stroke-linejoin="round" d=" M 138.433, 186.667 137.760, 186.135 137.498, 185.900 137.368, 185.783 137.365, 185.781 137.354, 185.770 137.254, 185.681 137.244, 185.673 136.807, 185.281 "/>
    <path fill="none" stroke="rgb(0, 0, 0)" stroke-width="13.0" stroke-linecap="round" stroke-linejoin="round" d=" M 140.901, 188.188 140.020, 187.687 138.724, 186.871 138.433, 186.667 137.833, 186.245 137.780, 186.208 137.533, 186.034 "/>
    <path fill="none" stroke="rgb(0, 0, 0)" stroke-width="13.0" stroke-linecap="round" stroke-linejoin="round" d=" M 263.492, 211.599 261.842, 212.795 260.048, 213.964 258.115, 215.104 256.045, 216.214 253.843, 217.290 251.514, 218.330 249.062, 219.332 246.493, 220.295 243.810, 221.217 241.021, 222.094 238.129, 222.927 235.142, 223.713 232.065, 224.450 228.905, 225.137 225.667, 225.773 222.359, 226.356 218.986, 226.885 215.556, 227.360 212.076, 227.778 208.553, 228.140 204.993, 228.445 201.404, 228.691 197.794, 228.879 194.168, 229.008 190.536, 229.078 186.903, 229.088 183.278, 229.040 179.667, 228.932 176.079, 228.765 172.519, 228.539 168.996, 228.255 165.516, 227.913 162.087, 227.515 158.715, 227.060 155.407, 226.550 152.170, 225.986 149.010, 225.369 145.934, 224.700 142.948, 223.980 140.057, 223.212 137.268, 222.395 134.587, 221.534 132.018, 220.627 129.567, 219.679 127.239, 218.690 125.038, 217.663 122.970, 216.600 121.037, 215.502 119.245, 214.373 117.596, 213.213 "/>
    <path fill="none" stroke="rgb(0, 0, 0)" stroke-width="13.0" stroke-linecap="round" stroke-linejoin="round" d=" M 147.668, 191.068 146.825, 190.771 145.008, 190.068 143.281, 189.334 142.824, 189.121 141.649, 188.572 140.901, 188.188 140.115, 187.784 "/>
    <path fill="none" stroke="rgb(0, 0, 0)" stroke-width="13.0" stroke-linecap="round" stroke-linejoin="round" d=" M 168.526, 195.596 165.963, 195.250 163.442, 194.861 160.975, 194.431 158.567, 193.961 156.223, 193.451 153.947, 192.903 151.744, 192.317 149.618, 191.695 147.668, 191.068 147.575, 191.038 "/>
    <path fill="none" stroke="rgb(0, 0, 0)" stroke-width="13.0" stroke-linecap="round" stroke-linejoin="round" d=" M 212.503, 195.031 212.028, 195.096 209.815, 195.402 207.088, 195.730 204.326, 196.014 201.536, 196.253 198.724, 196.446 195.894, 196.593 193.053, 196.694 190.206, 196.749 187.359, 196.757 184.518, 196.719 181.688, 196.634 178.876, 196.503 176.086, 196.327 173.325, 196.104 170.598, 195.836 168.526, 195.596 167.910, 195.524 "/>
    <path fill="none" stroke="rgb(0, 0, 0)" stroke-width="13.0" stroke-linecap="round" stroke-linejoin="round" d=" M 234.820, 189.361 233.790, 189.746 232.861, 190.094 230.817, 190.797 228.691, 191.466 226.487, 192.100 224.211, 192.699 221.866, 193.261 219.457, 193.784 216.990, 194.269 214.468, 194.713 212.028, 195.096 "/>
    <path fill="none" stroke="rgb(0, 0, 0)" stroke-width="13.0" stroke-linecap="round" stroke-linejoin="round" d=" M 240.347, 186.675 239.853, 186.940 238.812, 187.497 237.991, 187.899 237.179, 188.295 235.452, 189.067 233.790, 189.746 "/>
    <path fill="none" stroke="rgb(0, 0, 0)" stroke-width="13.0" stroke-linecap="round" stroke-linejoin="round" d=" M 242.958, 184.867 242.924, 184.892 242.869, 184.931 242.345, 185.311 241.766, 185.731 240.469, 186.576 239.853, 186.940 "/>
    <path fill="none" stroke="rgb(0, 0, 0)" stroke-width="13.0" stroke-linecap="round" stroke-linejoin="round" d=" M 243.716, 184.098 243.492, 184.303 243.459, 184.334 243.366, 184.419 243.299, 184.481 243.191, 184.579 243.189, 184.581 242.762, 184.973 242.345, 185.311 "/>
    <path fill="none" stroke="rgb(0, 0, 0)" stroke-width="13.0" stroke-linecap="round" stroke-linejoin="round" d=" M 244.101, 183.514 243.532, 184.209 243.394, 184.378 243.380, 184.395 243.299, 184.481 "/>
    <path fill="none" stroke="rgb(0, 0, 0)" stroke-width="13.0" stroke-linecap="round" stroke-linejoin="round" d=" M 243.665, 183.985 243.394, 184.378 "/>
    <path fill="none" stroke="rgb(0, 0, 0)" stroke-width="13.0" stroke-linecap="round" stroke-linejoin="round" d=" M 243.225, 184.463 243.189, 184.581 "/>
    <path fill="none" stroke="rgb(0, 0, 0)" stroke-width="13.0" stroke-linecap="round" stroke-linejoin="round" d=" M 137.306, 185.702 136.932, 185.166 "/>
  </g>
</svg>
