<?xml version="1.0" encoding="utf-8" ?>
<svg xmlns="http://www.w3.org/2000/svg" version="1.1" width="400" height="400" viewBox="0 0 400 400">
  <g>
    <path fill="none" stroke="rgb(0, 0, 0)" stroke-width="13.0" stroke-linecap="round" stroke-linejoin="round" d=" M 139.124, 138.232 134.207, 144.216 133.771, 144.792 133.386, 145.378 133.052, 145.972 132.771, 146.576 130.085, 153.225 129.851, 153.849 129.670, 154.481 129.542, 155.120 128.218, 165.032 126.894, 174.944 125.571, 184.856 124.247, 194.768 122.924, 204.680 121.600, 214.592 120.276, 224.504 118.953, 234.416 117.629, 244.328 116.973, 249.245 116.898, 249.892 116.876, 250.545 116.908, 251.205 116.994, 251.871 117.132, 252.543 118.219, 257.548 118.407, 258.211 118.647, 258.880 118.939, 259.552 119.283, 260.229 119.678, 260.909 120.124, 261.592 120.622, 262.278 121.170, 262.966 121.768, 263.657 122.417, 264.348 123.115, 265.041 123.862, 265.734 124.658, 266.427 132.094, 272.881 132.851, 273.502 133.651, 274.123 134.493, 274.743 135.376, 275.362 136.302, 275.979 137.268, 276.594 138.274, 277.206 139.319, 277.816 140.404, 278.422 141.527, 279.025 142.687, 279.624 143.884, 280.219 145.118, 280.809 146.387, 281.395 147.690, 281.975 149.028, 282.549 150.398, 283.117 151.801, 283.679 153.235, 284.235 154.700, 284.783 156.194, 285.324 157.717, 285.857 159.268, 286.382 160.846, 286.899 162.450, 287.407 164.079, 287.906 165.731, 288.396 167.407, 288.877 169.105, 289.348 170.824, 289.808 172.563, 290.259 174.320, 290.698 176.096, 291.127 177.888, 291.544 179.696, 291.950 181.519, 292.345 183.355, 292.727 185.203, 293.097 187.063, 293.455 188.933, 293.801 190.812, 294.133 192.698, 294.453 194.592, 294.759 196.491, 295.052 198.395, 295.332 200.302, 295.598 202.211, 295.850 204.121, 296.088 206.032, 296.311 207.940, 296.521 209.847, 296.716 211.750, 296.896 213.648, 297.062 215.540, 297.213 217.426, 297.349 219.303, 297.471 221.171, 297.577 223.028, 297.668 224.875, 297.744 226.708, 297.805 228.528, 297.851 230.333, 297.882 232.122, 297.897 233.894, 297.897 235.648, 297.882 237.383, 297.851 239.098, 297.805 240.791, 297.744 242.462, 297.668 244.111, 297.577 245.735, 297.471 247.333, 297.350 248.906, 297.214 250.452, 297.063 251.969, 296.897 253.458, 296.716 254.917, 296.521 256.345, 296.312 257.741, 296.088 259.105, 295.850 260.436, 295.599 261.733, 295.333 262.995, 295.053 264.221, 294.760 265.411, 294.454 266.564, 294.134 267.680, 293.802 268.757, 293.456 269.795, 293.099 270.793, 292.728 271.751, 292.346 272.668, 291.951 273.544, 291.545 282.454, 287.249 283.385, 286.783 284.267, 286.305 285.102, 285.815 285.889, 285.313 286.627, 284.799 287.315, 284.274 287.954, 283.738 288.542, 283.191 289.081, 282.634 289.568, 282.067 290.004, 281.491 290.389, 280.905 290.723, 280.310 293.088, 275.761 293.375, 275.145 293.610, 274.521 293.791, 273.890 293.919, 273.250 295.243, 263.338 296.566, 253.426 297.890, 243.514 299.214, 233.602 300.537, 223.690 301.861, 213.778 303.184, 203.866 304.508, 193.954 305.832, 184.042 306.488, 179.125 306.563, 178.479 306.584, 177.825 306.552, 177.165 305.705, 170.036 305.621, 169.384 305.486, 168.725 305.298, 168.062 305.058, 167.394 304.766, 166.722 301.695, 159.886 "/>
    <path fill="none" stroke="rgb(0, 0, 0)" stroke-width="13.0" stroke-linecap="round" stroke-linejoin="round" d=" M 299.780, 161.908 299.622, 162.245 299.315, 162.793 298.960, 163.334 298.558, 163.865 298.108, 164.388 297.612, 164.901 297.070, 165.405 296.481, 165.899 295.846, 166.383 295.166, 166.857 294.441, 167.320 293.672, 167.772 292.858, 168.212 292.000, 168.642 291.100, 169.059 290.157, 169.465 289.172, 169.858 288.145, 170.239 287.078, 170.607 285.970, 170.962 284.823, 171.304 283.638, 171.633 282.414, 171.948 281.153, 172.249 279.855, 172.536 278.521, 172.810 277.153, 173.069 275.750, 173.313 274.314, 173.543 272.845, 173.759 271.345, 173.959 269.814, 174.145 268.254, 174.315 266.665, 174.470 265.047, 174.610 263.403, 174.735 261.733, 174.844 260.197, 174.929 260.038, 174.938 258.320, 175.016 256.578, 175.079 254.815, 175.126 253.031, 175.157 251.227, 175.173 249.405, 175.173 247.565, 175.157 245.709, 175.126 243.837, 175.079 241.952, 175.016 240.053, 174.938 238.143, 174.844 236.222, 174.735 234.292, 174.610 232.353, 174.470 230.407, 174.315 228.455, 174.144 226.498, 173.959 224.538, 173.758 222.575, 173.543 220.610, 173.313 218.646, 173.068 216.683, 172.809 214.722, 172.536 212.764, 172.248 210.811, 171.947 208.864, 171.632 206.923, 171.303 204.991, 170.961 203.068, 170.606 201.156, 170.238 199.255, 169.857 197.367, 169.464 195.493, 169.058 193.634, 168.641 191.791, 168.211 189.965, 167.770 188.157, 167.318 186.369, 166.855 184.602, 166.382 182.856, 165.898 181.133, 165.404 179.433, 164.900 177.758, 164.386 176.109, 163.863 174.583, 163.364 174.486, 163.332 172.891, 162.792 171.325, 162.244 169.788, 161.687 168.282, 161.124 166.807, 160.553 165.365, 159.975 163.955, 159.390 162.580, 158.800 161.239, 158.203 159.935, 157.601 158.666, 156.994 157.435, 156.383 156.242, 155.767 155.087, 155.147 153.972, 154.523 152.896, 153.896 151.862, 153.266 150.869, 152.634 149.917, 151.999 149.008, 151.363 148.142, 150.726 147.320, 150.087 146.542, 149.448 145.808, 148.809 145.119, 148.170 144.475, 147.531 143.877, 146.894 143.326, 146.258 142.820, 145.623 142.362, 144.991 141.950, 144.361 141.586, 143.734 141.269, 143.110 141.000, 142.490 140.779, 141.874 140.606, 141.263 140.510, 140.796 "/>
    <path fill="none" stroke="rgb(0, 0, 0)" stroke-width="13.0" stroke-linecap="round" stroke-linejoin="round" d=" M 260.197, 174.929 261.017, 174.873 263.742, 174.631 266.380, 174.343 267.557, 174.198 270.161, 173.855 272.664, 173.465 275.062, 173.029 277.349, 172.548 279.522, 172.023 281.574, 171.455 283.022, 171.041 284.993, 170.417 286.834, 169.752 288.540, 169.047 290.029, 168.392 291.630, 167.633 293.087, 166.836 294.535, 165.964 295.869, 165.115 297.051, 164.231 298.421, 163.156 299.465, 162.224 299.780, 161.908 300.709, 160.976 301.606, 159.999 301.695, 159.886 302.702, 158.599 303.445, 157.580 304.374, 156.049 304.956, 154.991 305.702, 153.353 306.119, 152.262 306.668, 150.542 306.916, 149.421 307.260, 147.646 307.394, 145.843 307.470, 144.700 307.391, 142.895 307.297, 141.735 307.007, 139.958 306.744, 138.787 306.249, 137.065 305.820, 135.888 305.130, 134.248 304.541, 133.071 303.667, 131.539 302.924, 130.367 301.883, 128.967 300.994, 127.805 299.949, 126.637 298.778, 125.412 297.600, 124.261 296.273, 123.109 295.005, 122.084 293.561, 120.955 291.977, 119.829 290.256, 118.709 288.962, 117.927 287.147, 116.839 285.204, 115.761 283.139, 114.695 280.954, 113.643 278.654, 112.608 276.245, 111.591 275.141, 111.140 272.684, 110.167 270.129, 109.215 267.481, 108.288 264.747, 107.387 261.930, 106.513 259.037, 105.669 256.074, 104.856 253.047, 104.075 249.961, 103.329 246.824, 102.619 243.640, 101.946 240.418, 101.312 237.162, 100.717 233.881, 100.164 230.579, 99.652 227.265, 99.185 223.944, 98.761 220.624, 98.382 217.310, 98.049 214.011, 97.763 210.731, 97.523 207.479, 97.331 204.260, 97.187 201.082, 97.092 197.949, 97.044 194.870, 97.045 191.849, 97.095 188.893, 97.193 186.008, 97.339 183.200, 97.533 180.475, 97.775 177.837, 98.063 176.660, 98.208 174.056, 98.551 171.553, 98.941 169.155, 99.377 166.868, 99.857 164.695, 100.383 162.643, 100.951 161.195, 101.365 159.224, 101.988 157.383, 102.654 155.677, 103.359 154.188, 104.014 152.587, 104.773 151.131, 105.570 149.682, 106.442 148.348, 107.291 147.166, 108.175 145.796, 109.250 144.752, 110.182 143.509, 111.429 142.611, 112.407 141.515, 113.807 140.772, 114.826 139.843, 116.357 139.261, 117.414 138.515, 119.053 138.098, 120.144 137.549, 121.864 137.301, 122.985 136.957, 124.759 136.824, 126.563 136.747, 127.706 136.826, 129.510 136.920, 130.670 137.210, 132.448 137.473, 133.619 137.968, 135.341 138.397, 136.518 139.087, 138.158 139.124, 138.232 139.676, 139.335 140.510, 140.796 140.550, 140.867 141.293, 142.039 142.334, 143.439 143.223, 144.601 144.268, 145.769 145.439, 146.993 146.617, 148.145 147.944, 149.297 149.212, 150.322 150.656, 151.451 152.240, 152.577 153.962, 153.696 155.255, 154.479 157.070, 155.567 159.013, 156.645 161.079, 157.711 163.263, 158.763 165.563, 159.798 167.972, 160.814 169.077, 161.266 171.534, 162.239 174.088, 163.190 174.583, 163.364 "/>
    <path fill="none" stroke="rgb(0, 0, 0)" stroke-width="13.0" stroke-linecap="round" stroke-linejoin="round" d=" M 169.225, 123.053 169.213, 123.039 169.143, 122.962 169.053, 122.861 168.906, 122.669 168.426, 122.041 "/>
    <path fill="none" stroke="rgb(0, 0, 0)" stroke-width="13.0" stroke-linecap="round" stroke-linejoin="round" d=" M 170.075, 123.819 169.485, 123.307 169.225, 123.053 169.216, 123.044 169.158, 122.988 169.056, 122.888 168.841, 122.677 168.619, 122.461 "/>
    <path fill="none" stroke="rgb(0, 0, 0)" stroke-width="13.0" stroke-linecap="round" stroke-linejoin="round" d=" M 294.535, 165.964 293.052, 166.775 291.424, 167.548 289.652, 168.280 287.742, 168.970 285.696, 169.618 283.519, 170.220 281.216, 170.777 278.791, 171.287 276.248, 171.749 273.593, 172.162 270.832, 172.526 267.969, 172.839 265.011, 173.101 261.964, 173.312 258.833, 173.470 255.625, 173.577 252.347, 173.631 249.005, 173.632 245.605, 173.580 242.155, 173.476 238.662, 173.320 235.133, 173.112 231.574, 172.852 227.993, 172.541 224.397, 172.180 220.793, 171.769 217.190, 171.309 213.593, 170.801 210.010, 170.246 206.448, 169.646 202.915, 169.001 199.418, 168.312 195.963, 167.582 192.558, 166.811 189.209, 166.001 185.924, 165.154 182.708, 164.272 179.569, 163.356 176.512, 162.407 173.544, 161.429 170.671, 160.423 167.898, 159.391 165.232, 158.334 162.677, 157.256 160.238, 156.159 157.922, 155.043 155.731, 153.913 153.671, 152.770 151.746, 151.616 149.960, 150.454 148.316, 149.286 146.817, 148.114 145.467, 146.941 144.268, 145.769 "/>
    <path fill="none" stroke="rgb(0, 0, 0)" stroke-width="13.0" stroke-linecap="round" stroke-linejoin="round" d=" M 172.701, 125.631 171.524, 124.865 170.547, 124.171 170.304, 123.999 170.075, 123.819 169.529, 123.393 169.457, 123.337 169.346, 123.250 169.296, 123.211 169.277, 123.196 169.193, 123.130 "/>
    <path fill="none" stroke="rgb(0, 0, 0)" stroke-width="13.0" stroke-linecap="round" stroke-linejoin="round" d=" M 181.278, 129.830 179.886, 129.243 178.028, 128.407 176.262, 127.557 174.593, 126.695 173.023, 125.824 172.701, 125.631 171.555, 124.945 "/>
    <path fill="none" stroke="rgb(0, 0, 0)" stroke-width="13.0" stroke-linecap="round" stroke-linejoin="round" d=" M 263.490, 140.735 263.057, 140.783 261.247, 140.981 259.234, 141.159 258.928, 141.186 256.540, 141.351 254.086, 141.476 251.572, 141.559 249.003, 141.601 246.384, 141.602 243.720, 141.562 241.016, 141.480 238.278, 141.358 235.512, 141.195 232.723, 140.991 229.916, 140.747 227.098, 140.464 224.274, 140.142 221.450, 139.782 218.631, 139.384 215.823, 138.949 213.031, 138.478 210.262, 137.972 207.521, 137.433 204.814, 136.861 202.145, 136.256 199.521, 135.622 196.946, 134.958 194.425, 134.266 191.965, 133.548 189.569, 132.805 187.243, 132.038 184.992, 131.250 184.983, 131.247 182.819, 130.441 181.278, 129.830 180.729, 129.613 "/>
    <path fill="none" stroke="rgb(0, 0, 0)" stroke-width="13.0" stroke-linecap="round" stroke-linejoin="round" d=" M 273.642, 138.664 272.536, 138.970 271.983, 139.123 270.228, 139.548 268.379, 139.936 266.442, 140.289 264.418, 140.603 263.057, 140.783 "/>
    <path fill="none" stroke="rgb(0, 0, 0)" stroke-width="13.0" stroke-linecap="round" stroke-linejoin="round" d=" M 276.443, 137.543 276.406, 137.558 276.270, 137.614 276.192, 137.647 275.597, 137.893 275.129, 138.086 275.049, 138.115 273.712, 138.598 272.536, 138.970 "/>
    <path fill="none" stroke="rgb(0, 0, 0)" stroke-width="13.0" stroke-linecap="round" stroke-linejoin="round" d=" M 277.202, 137.053 277.063, 137.130 276.809, 137.268 276.671, 137.344 276.649, 137.356 276.608, 137.379 276.131, 137.640 275.597, 137.893 "/>
    <path fill="none" stroke="rgb(0, 0, 0)" stroke-width="13.0" stroke-linecap="round" stroke-linejoin="round" d=" M 277.528, 136.703 276.996, 137.102 276.695, 137.327 276.676, 137.339 276.649, 137.356 "/>
    <path fill="none" stroke="rgb(0, 0, 0)" stroke-width="13.0" stroke-linecap="round" stroke-linejoin="round" d=" M 276.868, 137.146 276.608, 137.379 "/>
    <path fill="none" stroke="rgb(0, 0, 0)" stroke-width="13.0" stroke-linecap="round" stroke-linejoin="round" d=" M 169.213, 123.039 168.972, 122.660 168.963, 122.644 "/>
  </g>
</svg>
