<?xml version="1.0" encoding="utf-8" ?>
<svg xmlns="http://www.w3.org/2000/svg" version="1.1" width="400" height="400" viewBox="0 0 400 400">
  <g>
    <path fill="none" stroke="rgb(0, 0, 0)" stroke-width="13.0" stroke-linecap="round" stroke-linejoin="round" d=" M 116.406, 222.224 116.269, 222.426 115.671, 223.317 115.124, 224.214 114.628, 225.117 114.183, 226.025 113.790, 226.937 113.449, 227.853 113.160, 228.772 111.386, 235.279 111.144, 236.220 110.956, 237.163 110.822, 238.108 110.741, 239.054 110.714, 240.000 110.714, 250.000 110.714, 260.000 110.714, 270.000 110.714, 280.000 110.714, 290.000 110.714, 300.000 110.714, 310.000 110.714, 320.000 110.714, 329.689 110.741, 330.636 110.822, 331.582 110.956, 332.527 111.144, 333.470 111.386, 334.411 111.681, 335.349 112.029, 336.284 113.755, 340.761 114.148, 341.673 114.593, 342.581 115.089, 343.484 115.637, 344.382 116.235, 345.273 116.884, 346.158 117.583, 347.036 118.332, 347.905 119.129, 348.767 119.976, 349.620 120.870, 350.464 121.813, 351.298 122.802, 352.122 123.838, 352.935 124.920, 353.737 126.047, 354.527 127.218, 355.305 128.434, 356.070 129.692, 356.823 130.993, 357.561 132.335, 358.286 139.345, 361.984 140.585, 362.621 141.861, 363.244 143.171, 363.853 144.516, 364.449 145.895, 365.030 147.305, 365.596 148.748, 366.147 150.222, 366.683 151.725, 367.203 153.258, 367.707 154.819, 368.194 156.407, 368.665 158.021, 369.118 159.660, 369.555 161.324, 369.974 163.011, 370.375 164.721, 370.758 166.451, 371.123 168.202, 371.469 169.972, 371.797 171.760, 372.106 173.566, 372.396 175.387, 372.667 177.223, 372.918 179.072, 373.150 180.934, 373.362 182.808, 373.554 184.692, 373.726 186.585, 373.878 188.487, 374.011 190.395, 374.123 192.309, 374.214 194.228, 374.286 196.150, 374.337 198.074, 374.367 200.000, 374.378 201.926, 374.367 203.850, 374.337 205.772, 374.286 207.691, 374.214 209.605, 374.123 211.513, 374.011 213.415, 373.878 215.308, 373.726 217.192, 373.554 219.066, 373.362 220.928, 373.150 222.777, 372.918 224.613, 372.667 226.434, 372.396 228.239, 372.106 230.028, 371.797 231.798, 371.469 233.548, 371.123 235.279, 370.758 236.989, 370.375 238.676, 369.974 240.340, 369.555 241.979, 369.118 243.593, 368.665 245.181, 368.194 246.742, 367.707 248.275, 367.203 249.778, 366.683 251.252, 366.147 252.695, 365.596 254.105, 365.030 255.484, 364.449 256.829, 363.853 258.139, 363.244 259.415, 362.621 260.655, 361.984 267.664, 358.286 269.007, 357.561 270.308, 356.823 271.566, 356.070 272.782, 355.305 273.953, 354.527 275.080, 353.737 276.162, 352.935 277.198, 352.122 278.187, 351.298 279.130, 350.464 280.024, 349.620 280.871, 348.767 281.668, 347.905 282.417, 347.036 283.116, 346.158 283.765, 345.273 284.363, 344.382 284.910, 343.484 285.407, 342.581 285.852, 341.673 286.245, 340.761 287.971, 336.284 288.319, 335.349 288.614, 334.411 288.856, 333.470 289.044, 332.527 289.178, 331.582 289.259, 330.636 289.286, 329.689 289.286, 319.689 289.286, 309.689 289.286, 299.689 289.286, 289.689 289.286, 279.689 289.286, 269.689 289.286, 259.689 289.286, 249.689 289.286, 240.000 289.259, 239.054 289.178, 238.108 289.044, 237.163 288.856, 236.220 288.614, 235.279 286.840, 228.772 286.551, 227.853 286.210, 226.937 285.817, 226.025 285.372, 225.117 284.876, 224.214 284.329, 223.317 283.730, 222.426 283.553, 222.162 "/>
    <path fill="none" stroke="rgb(0, 0, 0)" stroke-width="13.0" stroke-linecap="round" stroke-linejoin="round" d=" M 278.883, 230.179 278.729, 230.493 278.272, 231.325 277.767, 232.152 277.216, 232.974 276.617, 233.790 275.973, 234.599 275.283, 235.401 274.548, 236.195 273.768, 236.981 272.943, 237.759 272.074, 238.528 271.162, 239.288 270.207, 240.037 269.210, 240.776 268.171, 241.505 267.091, 242.222 265.971, 242.927 264.811, 243.621 263.612, 244.302 262.374, 244.969 261.099, 245.624 259.787, 246.265 258.439, 246.892 257.056, 247.504 255.639, 248.102 254.188, 248.684 252.704, 249.251 251.189, 249.802 249.643, 250.336 248.067, 250.854 246.462, 251.355 244.829, 251.839 243.169, 252.306 241.483, 252.755 239.772, 253.186 238.037, 253.598 236.279, 253.992 234.499, 254.367 232.699, 254.724 230.879, 255.061 229.040, 255.378 227.184, 255.677 225.311, 255.955 223.423, 256.213 221.521, 256.452 219.606, 256.670 217.679, 256.867 215.742, 257.044 213.795, 257.201 211.840, 257.337 209.877, 257.452 207.909, 257.546 205.936, 257.620 203.959, 257.672 201.980, 257.704 200.000, 257.714 198.020, 257.704 196.041, 257.672 194.064, 257.620 192.091, 257.546 190.123, 257.452 188.160, 257.337 186.205, 257.201 184.258, 257.044 182.321, 256.867 180.394, 256.670 178.479, 256.452 176.577, 256.213 174.689, 255.955 172.816, 255.677 170.960, 255.378 169.121, 255.061 167.301, 254.724 165.501, 254.367 163.721, 253.992 161.963, 253.598 160.228, 253.186 158.517, 252.755 156.831, 252.306 155.171, 251.839 153.538, 251.355 151.933, 250.854 150.357, 250.336 148.811, 249.802 147.295, 249.251 145.812, 248.684 144.361, 248.102 142.944, 247.504 141.560, 246.892 140.213, 246.265 138.901, 245.624 137.626, 244.969 136.388, 244.302 135.189, 243.621 134.029, 242.927 132.909, 242.222 131.829, 241.505 130.790, 240.776 129.793, 240.037 128.838, 239.288 127.926, 238.528 127.057, 237.759 126.232, 236.981 125.452, 236.195 124.717, 235.401 124.027, 234.599 123.383, 233.790 122.784, 232.974 122.233, 232.152 121.728, 231.325 121.271, 230.493 121.225, 230.400 "/>
    <path fill="none" stroke="rgb(0, 0, 0)" stroke-width="13.0" stroke-linecap="round" stroke-linejoin="round" d=" M 199.965, 163.838 196.539, 163.871 193.120, 163.971 189.715, 164.137 186.330, 164.368 182.973, 164.665 179.650, 165.027 176.368, 165.453 173.134, 165.942 169.953, 166.493 166.833, 167.105 163.780, 167.777 160.800, 168.508 159.950, 168.719 156.985, 169.524 154.107, 170.385 151.322, 171.301 148.634, 172.271 146.050, 173.291 143.574, 174.361 142.458, 174.888 140.050, 176.026 137.762, 177.210 135.599, 178.437 133.565, 179.705 132.387, 180.507 130.454, 181.836 128.661, 183.202 127.011, 184.600 125.874, 185.637 124.348, 187.088 122.974, 188.568 121.949, 189.794 120.714, 191.319 119.638, 192.866 118.755, 194.255 117.832, 195.839 117.073, 197.439 116.360, 198.961 115.764, 200.588 115.244, 202.198 114.815, 203.845 114.499, 205.516 114.240, 207.176 114.134, 208.878 114.047, 210.544 114.134, 212.209 114.240, 213.912 114.499, 215.571 114.815, 217.242 115.244, 218.889 115.764, 220.500 116.360, 222.127 116.406, 222.224 117.073, 223.648 117.832, 225.248 118.755, 226.832 119.638, 228.221 120.714, 229.768 121.225, 230.400 121.949, 231.293 122.974, 232.519 124.348, 233.999 125.874, 235.451 127.011, 236.487 128.661, 237.886 130.454, 239.251 132.387, 240.580 133.565, 241.382 135.599, 242.650 137.762, 243.877 140.050, 245.061 142.459, 246.200 143.575, 246.727 146.050, 247.796 148.634, 248.817 151.322, 249.786 154.108, 250.702 156.985, 251.564 159.950, 252.368 160.800, 252.580 163.780, 253.310 166.833, 253.982 169.953, 254.594 173.134, 255.146 176.368, 255.635 179.650, 256.060 182.973, 256.422 186.330, 256.719 189.715, 256.951 193.120, 257.116 196.539, 257.216 199.965, 257.249 203.390, 257.216 206.809, 257.116 210.215, 256.951 213.599, 256.719 216.956, 256.422 220.279, 256.060 223.561, 255.635 226.795, 255.146 229.976, 254.594 233.096, 253.982 236.149, 253.310 239.129, 252.580 239.979, 252.368 242.944, 251.564 245.822, 250.702 248.607, 249.786 251.295, 248.817 253.879, 247.796 256.355, 246.727 257.471, 246.200 259.879, 245.061 262.168, 243.877 264.331, 242.650 266.364, 241.382 267.542, 240.580 269.475, 239.251 271.268, 237.886 272.918, 236.487 274.055, 235.451 275.581, 233.999 276.955, 232.519 277.981, 231.293 278.883, 230.179 279.216, 229.768 280.291, 228.221 281.174, 226.832 282.098, 225.248 282.856, 223.648 283.553, 222.162 283.569, 222.127 284.165, 220.500 284.685, 218.889 285.114, 217.242 285.430, 215.571 285.689, 213.912 285.795, 212.209 285.882, 210.544 285.795, 208.878 285.689, 207.176 285.430, 205.516 285.114, 203.845 284.685, 202.198 284.165, 200.588 283.569, 198.961 282.856, 197.439 282.098, 195.839 281.174, 194.255 280.291, 192.866 279.216, 191.319 277.981, 189.794 276.955, 188.568 275.581, 187.088 274.055, 185.637 272.918, 184.600 271.268, 183.202 269.475, 181.836 267.542, 180.507 266.364, 179.705 264.331, 178.437 262.168, 177.210 259.880, 176.026 257.471, 174.888 256.355, 174.361 253.879, 173.291 251.295, 172.271 248.607, 171.301 245.822, 170.385 242.944, 169.524 239.979, 168.719 239.130, 168.508 236.149, 167.777 233.096, 167.105 229.976, 166.493 226.796, 165.942 223.561, 165.453 220.279, 165.027 216.956, 164.665 213.599, 164.368 210.215, 164.137 206.809, 163.971 203.390, 163.871 199.965, 163.838 "/>
    <path fill="none" stroke="rgb(0, 0, 0)" stroke-width="13.0" stroke-linecap="round" stroke-linejoin="round" d=" M 147.645, 209.384 147.628, 209.355 147.609, 209.322 147.537, 209.199 147.487, 209.113 147.002, 208.091 "/>
    <path fill="none" stroke="rgb(0, 0, 0)" stroke-width="13.0" stroke-linecap="round" stroke-linejoin="round" d=" M 147.941, 209.802 147.901, 209.753 147.854, 209.684 147.852, 209.682 147.649, 209.390 147.645, 209.384 147.629, 209.362 147.616, 209.343 147.555, 209.254 147.532, 209.222 147.195, 208.736 "/>
    <path fill="none" stroke="rgb(0, 0, 0)" stroke-width="13.0" stroke-linecap="round" stroke-linejoin="round" d=" M 148.948, 210.845 148.631, 210.544 148.620, 210.533 148.613, 210.526 148.610, 210.523 148.583, 210.493 148.581, 210.491 147.941, 209.802 147.852, 209.706 147.851, 209.705 147.800, 209.650 147.722, 209.565 147.687, 209.528 "/>
    <path fill="none" stroke="rgb(0, 0, 0)" stroke-width="13.0" stroke-linecap="round" stroke-linejoin="round" d=" M 151.260, 212.646 150.948, 212.431 149.683, 211.468 148.948, 210.845 148.613, 210.561 148.593, 210.544 148.590, 210.541 148.563, 210.518 148.560, 210.516 148.520, 210.482 "/>
    <path fill="none" stroke="rgb(0, 0, 0)" stroke-width="13.0" stroke-linecap="round" stroke-linejoin="round" d=" M 156.565, 215.586 155.902, 215.272 154.219, 214.402 152.628, 213.499 151.260, 212.646 151.133, 212.567 "/>
    <path fill="none" stroke="rgb(0, 0, 0)" stroke-width="13.0" stroke-linecap="round" stroke-linejoin="round" d=" M 267.542, 240.580 265.473, 241.871 263.271, 243.120 260.943, 244.325 258.491, 245.484 255.922, 246.594 253.239, 247.653 250.450, 248.659 247.559, 249.610 244.572, 250.504 241.495, 251.339 238.335, 252.114 235.097, 252.826 231.789, 253.475 228.416, 254.060 224.986, 254.578 221.506, 255.030 217.983, 255.413 214.423, 255.728 210.834, 255.974 207.223, 256.150 203.597, 256.255 199.965, 256.291 196.332, 256.255 192.706, 256.150 189.095, 255.974 185.506, 255.728 181.947, 255.413 178.423, 255.030 174.943, 254.578 171.513, 254.060 168.140, 253.475 164.832, 252.826 161.594, 252.114 158.434, 251.339 155.357, 250.504 152.370, 249.610 149.479, 248.659 146.690, 247.653 144.008, 246.594 141.438, 245.484 138.987, 244.325 136.658, 243.120 134.457, 241.871 132.387, 240.580 "/>
    <path fill="none" stroke="rgb(0, 0, 0)" stroke-width="13.0" stroke-linecap="round" stroke-linejoin="round" d=" M 169.041, 219.892 166.881, 219.306 164.665, 218.643 162.521, 217.938 160.452, 217.191 158.463, 216.406 156.565, 215.586 156.557, 215.583 "/>
    <path fill="none" stroke="rgb(0, 0, 0)" stroke-width="13.0" stroke-linecap="round" stroke-linejoin="round" d=" M 231.616, 219.714 230.888, 219.892 229.208, 220.304 226.740, 220.847 224.219, 221.342 221.648, 221.788 219.034, 222.183 216.382, 222.527 213.697, 222.819 210.984, 223.059 208.248, 223.246 205.496, 223.380 202.733, 223.461 199.965, 223.488 197.196, 223.461 194.433, 223.380 191.681, 223.246 188.946, 223.059 186.233, 222.819 183.547, 222.527 180.895, 222.183 178.281, 221.788 175.711, 221.342 173.189, 220.847 170.722, 220.304 169.041, 219.892 168.313, 219.714 "/>
    <path fill="none" stroke="rgb(0, 0, 0)" stroke-width="13.0" stroke-linecap="round" stroke-linejoin="round" d=" M 243.372, 215.583 243.365, 215.586 241.466, 216.406 239.477, 217.191 237.408, 217.938 235.264, 218.643 233.048, 219.306 230.888, 219.892 "/>
    <path fill="none" stroke="rgb(0, 0, 0)" stroke-width="13.0" stroke-linecap="round" stroke-linejoin="round" d=" M 248.796, 212.567 248.669, 212.646 247.301, 213.499 245.710, 214.402 244.027, 215.272 243.365, 215.586 "/>
    <path fill="none" stroke="rgb(0, 0, 0)" stroke-width="13.0" stroke-linecap="round" stroke-linejoin="round" d=" M 251.409, 210.482 251.370, 210.516 251.367, 210.518 251.339, 210.541 251.337, 210.544 251.316, 210.561 250.981, 210.845 250.246, 211.468 248.981, 212.431 248.669, 212.646 "/>
    <path fill="none" stroke="rgb(0, 0, 0)" stroke-width="13.0" stroke-linecap="round" stroke-linejoin="round" d=" M 252.242, 209.528 252.208, 209.565 252.129, 209.650 252.078, 209.705 252.077, 209.706 251.988, 209.802 251.349, 210.491 251.346, 210.493 251.319, 210.523 251.316, 210.526 251.309, 210.533 251.298, 210.544 250.981, 210.845 "/>
    <path fill="none" stroke="rgb(0, 0, 0)" stroke-width="13.0" stroke-linecap="round" stroke-linejoin="round" d=" M 252.735, 208.736 252.397, 209.222 252.374, 209.254 252.313, 209.343 252.300, 209.362 252.284, 209.384 252.280, 209.390 252.077, 209.682 252.076, 209.684 252.028, 209.753 251.988, 209.802 "/>
    <path fill="none" stroke="rgb(0, 0, 0)" stroke-width="13.0" stroke-linecap="round" stroke-linejoin="round" d=" M 252.927, 208.091 252.442, 209.113 252.392, 209.199 252.320, 209.322 252.301, 209.355 252.284, 209.384 "/>
    <path fill="none" stroke="rgb(0, 0, 0)" stroke-width="13.0" stroke-linecap="round" stroke-linejoin="round" d=" M 252.587, 208.595 252.320, 209.322 "/>
    <path fill="none" stroke="rgb(0, 0, 0)" stroke-width="13.0" stroke-linecap="round" stroke-linejoin="round" d=" M 252.332, 209.192 252.280, 209.390 "/>
    <path fill="none" stroke="rgb(0, 0, 0)" stroke-width="13.0" stroke-linecap="round" stroke-linejoin="round" d=" M 252.068, 209.533 252.076, 209.684 "/>
    <path fill="none" stroke="rgb(0, 0, 0)" stroke-width="13.0" stroke-linecap="round" stroke-linejoin="round" d=" M 251.217, 210.333 251.346, 210.493 "/>
    <path fill="none" stroke="rgb(0, 0, 0)" stroke-width="13.0" stroke-linecap="round" stroke-linejoin="round" d=" M 147.609, 209.322 147.342, 208.595 "/>
    <path fill="none" stroke="rgb(0, 0, 0)" stroke-width="13.0" stroke-linecap="round" stroke-linejoin="round" d=" M 147.854, 209.684 147.861, 209.533 "/>
    <path fill="none" stroke="rgb(0, 0, 0)" stroke-width="13.0" stroke-linecap="round" stroke-linejoin="round" d=" M 147.649, 209.390 147.597, 209.192 "/>
    <path fill="none" stroke="rgb(0, 0, 0)" stroke-width="13.0" stroke-linecap="round" stroke-linejoin="round" d=" M 148.583, 210.493 148.712, 210.333 "/>
  </g>
</svg>
