<?xml version="1.0" encoding="utf-8" ?>
<svg xmlns="http://www.w3.org/2000/svg" version="1.1" width="400" height="400" viewBox="0 0 400 400">
  <g>
    <path fill="none" stroke="rgb(0, 0, 0)" stroke-width="13.0" stroke-linecap="round" stroke-linejoin="round" d=" M 283.869, 72.097 283.870, 72.128 283.834, 72.514 283.750, 72.899 283.617, 73.282 283.435, 73.664 283.206, 74.043 282.928, 74.419 282.602, 74.794 282.228, 75.165 281.807, 75.533 281.338, 75.898 280.822, 76.259 280.260, 76.617 279.651, 76.971 278.996, 77.320 278.295, 77.666 277.550, 78.006 276.759, 78.342 275.924, 78.673 275.045, 78.999 274.123, 79.320 273.159, 79.634 272.152, 79.944 271.103, 80.247 270.014, 80.544 268.884, 80.835 268.397, 80.953 267.715, 81.119 266.507, 81.397 265.261, 81.668 263.978, 81.931 262.658, 82.188 261.302, 82.438 259.911, 82.680 258.486, 82.914 257.028, 83.141 255.537, 83.360 254.014, 83.571 252.462, 83.773 250.879, 83.968 249.268, 84.154 247.629, 84.332 245.963, 84.501 244.271, 84.661 242.555, 84.813 240.815, 84.956 239.053, 85.089 237.268, 85.214 235.464, 85.330 233.639, 85.436 231.797, 85.534 229.937, 85.622 228.061, 85.700 226.171, 85.769 224.266, 85.829 222.349, 85.879 220.420, 85.920 218.481, 85.951 216.532, 85.973 214.576, 85.985 212.612, 85.988 210.643, 85.981 208.670, 85.964 206.693, 85.938 204.714, 85.902 202.735, 85.857 200.755, 85.802 198.777, 85.738 196.802, 85.664 194.830, 85.581 192.864, 85.489 190.904, 85.387 188.951, 85.276 187.007, 85.156 185.072, 85.027 183.149, 84.889 181.238, 84.742 179.339, 84.587 177.456, 84.422 175.587, 84.249 173.736, 84.067 171.902, 83.877 170.087, 83.679 168.291, 83.472 166.517, 83.257 164.765, 83.035 163.037, 82.805 161.332, 82.566 159.653, 82.321 157.999, 82.068 156.373, 81.808 154.776, 81.541 153.207, 81.267 151.669, 80.986 150.161, 80.698 148.686, 80.405 147.243, 80.105 145.834, 79.799 144.460, 79.487 143.121, 79.169 141.818, 78.846 140.553, 78.518 139.325, 78.185 138.135, 77.846 137.272, 77.589 136.985, 77.503 135.874, 77.156 134.804, 76.805 133.776, 76.449 132.789, 76.089 131.844, 75.726 130.943, 75.360 130.085, 74.990 129.271, 74.617 128.501, 74.242 127.777, 73.864 127.098, 73.484 126.465, 73.102 125.878, 72.718 125.338, 72.332 124.844, 71.946 124.398, 71.558 124.000, 71.169 123.649, 70.779 123.345, 70.389 123.091, 69.999 122.884, 69.609 122.725, 69.219 122.616, 68.830 122.554, 68.441 122.544, 68.134 "/>
    <path fill="none" stroke="rgb(0, 0, 0)" stroke-width="13.0" stroke-linecap="round" stroke-linejoin="round" d=" M 122.195, 67.737 116.851, 76.189 116.169, 77.268 115.920, 77.679 115.723, 78.092 115.579, 78.508 113.614, 85.622 113.521, 86.048 113.481, 86.475 113.231, 96.472 112.980, 106.469 112.729, 116.466 112.479, 126.462 112.228, 136.459 111.978, 146.456 111.727, 156.453 111.476, 166.450 111.226, 176.447 111.037, 183.974 111.051, 184.403 111.119, 184.833 111.240, 185.264 112.862, 190.290 113.034, 190.713 113.258, 191.136 113.535, 191.559 113.864, 191.982 114.244, 192.405 114.677, 192.827 115.161, 193.248 115.696, 193.667 123.681, 199.687 124.278, 200.137 124.804, 200.512 125.374, 200.886 125.990, 201.257 126.650, 201.627 127.355, 201.994 128.103, 202.359 128.894, 202.722 129.729, 203.081 130.605, 203.438 131.524, 203.791 132.483, 204.140 133.484, 204.486 134.524, 204.828 135.604, 205.166 136.723, 205.499 137.880, 205.828 139.074, 206.152 140.305, 206.472 141.571, 206.786 142.873, 207.094 144.210, 207.398 145.580, 207.695 146.983, 207.987 148.418, 208.273 149.883, 208.552 151.379, 208.825 152.905, 209.092 154.458, 209.352 156.040, 209.605 157.647, 209.850 159.280, 210.089 160.938, 210.321 162.619, 210.545 164.323, 210.761 166.048, 210.970 167.794, 211.171 169.559, 211.364 171.342, 211.549 173.143, 211.725 174.959, 211.894 176.791, 212.054 178.637, 212.205 180.496, 212.348 182.366, 212.482 184.248, 212.608 186.138, 212.725 188.037, 212.832 189.943, 212.931 191.855, 213.021 193.773, 213.102 195.693, 213.173 197.617, 213.236 199.542, 213.289 201.467, 213.333 203.391, 213.368 205.314, 213.393 207.233, 213.409 209.147, 213.416 211.056, 213.414 212.959, 213.402 214.854, 213.381 216.739, 213.350 218.615, 213.311 220.480, 213.262 222.332, 213.204 224.170, 213.137 225.995, 213.060 227.803, 212.975 229.595, 212.880 231.369, 212.776 233.124, 212.664 234.859, 212.543 236.573, 212.413 238.265, 212.274 239.934, 212.126 241.579, 211.970 243.199, 211.806 244.792, 211.633 246.359, 211.452 247.898, 211.263 249.408, 211.066 250.889, 210.861 252.338, 210.648 253.756, 210.427 255.142, 210.199 256.495, 209.964 257.813, 209.721 259.097, 209.472 260.345, 209.215 261.557, 208.952 262.731, 208.682 263.868, 208.405 264.967, 208.122 266.026, 207.834 267.046, 207.539 268.025, 207.238 268.963, 206.932 269.859, 206.620 270.714, 206.303 271.526, 205.982 272.295, 205.655 273.020, 205.324 273.701, 204.988 274.338, 204.648 274.930, 204.304 275.477, 203.956 283.754, 198.344 284.368, 197.927 284.928, 197.535 285.436, 197.139 285.893, 196.740 286.299, 196.337 286.652, 195.931 286.954, 195.523 287.203, 195.111 287.400, 194.698 289.271, 189.760 289.418, 189.336 289.512, 188.910 289.551, 188.483 289.802, 178.486 290.053, 168.489 290.303, 158.492 290.554, 148.495 290.804, 138.498 291.055, 128.501 291.306, 118.505 291.556, 108.508 291.807, 98.511 291.996, 90.983 291.982, 90.555 291.914, 90.125 290.308, 82.921 290.189, 82.499 290.018, 82.076 289.793, 81.653 284.879, 72.944 284.206, 71.750 "/>
    <path fill="none" stroke="rgb(0, 0, 0)" stroke-width="13.0" stroke-linecap="round" stroke-linejoin="round" d=" M 268.397, 80.953 269.384, 80.629 271.019, 80.080 272.517, 79.513 273.875, 78.931 275.433, 78.192 276.675, 77.582 277.769, 76.958 279.272, 76.008 280.235, 75.359 281.633, 74.223 282.454, 73.551 283.724, 72.247 283.869, 72.097 284.206, 71.750 284.396, 71.554 285.515, 70.101 286.031, 69.389 286.981, 67.807 287.334, 67.080 288.099, 65.392 288.666, 63.629 288.853, 62.884 289.216, 61.063 289.368, 59.213 289.383, 58.460 289.323, 56.605 289.052, 54.768 288.894, 54.015 288.416, 52.225 287.736, 50.502 287.411, 49.758 286.542, 48.131 286.054, 47.394 285.010, 45.887 283.798, 44.511 283.163, 43.796 281.810, 42.580 281.029, 41.880 280.092, 41.184 278.639, 40.160 277.570, 39.483 276.352, 38.811 274.835, 37.996 273.501, 37.347 272.026, 36.706 270.414, 36.076 268.908, 35.497 267.202, 34.893 265.368, 34.301 263.411, 33.722 261.334, 33.159 259.141, 32.611 257.807, 32.304 255.559, 31.787 253.207, 31.287 250.756, 30.806 248.210, 30.344 245.575, 29.903 242.857, 29.484 240.060, 29.087 237.190, 28.713 234.253, 28.363 231.255, 28.037 228.202, 27.737 225.100, 27.463 221.955, 27.215 218.774, 26.993 215.563, 26.800 212.329, 26.633 209.077, 26.495 205.816, 26.386 202.550, 26.305 199.287, 26.252 196.034, 26.229 192.796, 26.234 189.581, 26.268 186.394, 26.331 183.243, 26.423 180.133, 26.543 177.072, 26.691 174.064, 26.868 171.117, 27.071 168.235, 27.303 165.426, 27.560 162.694, 27.844 160.044, 28.154 157.484, 28.489 155.016, 28.848 152.648, 29.230 151.354, 29.460 149.031, 29.876 146.820, 30.314 144.723, 30.774 142.746, 31.254 140.891, 31.755 139.164, 32.274 137.628, 32.777 135.994, 33.327 134.496, 33.893 133.138, 34.476 131.580, 35.215 130.338, 35.825 129.244, 36.449 127.741, 37.399 126.778, 38.048 125.380, 39.183 124.558, 39.856 123.289, 41.159 122.617, 41.853 121.498, 43.306 120.982, 44.018 120.032, 45.599 119.679, 46.327 118.914, 48.014 118.346, 49.778 118.160, 50.523 117.797, 52.343 117.645, 54.193 117.630, 54.947 117.690, 56.802 117.961, 58.638 118.119, 59.392 118.597, 61.181 119.277, 62.905 119.601, 63.649 120.471, 65.276 120.959, 66.013 122.003, 67.520 122.195, 67.737 122.544, 68.134 123.215, 68.896 123.850, 69.611 125.203, 70.826 125.984, 71.526 126.921, 72.223 128.374, 73.246 129.443, 73.924 130.660, 74.595 132.178, 75.411 133.512, 76.060 134.987, 76.700 136.599, 77.330 137.272, 77.589 "/>
    <path fill="none" stroke="rgb(0, 0, 0)" stroke-width="13.0" stroke-linecap="round" stroke-linejoin="round" d=" M 281.633, 74.223 280.653, 74.884 279.518, 75.531 278.229, 76.165 276.789, 76.782 275.200, 77.383 273.467, 77.965 271.592, 78.529 269.580, 79.072 267.433, 79.593 265.158, 80.092 262.758, 80.568 260.237, 81.019 257.602, 81.444 254.858, 81.844 252.009, 82.216 249.063, 82.560 246.023, 82.876 242.898, 83.163 239.693, 83.420 236.414, 83.647 233.068, 83.843 229.663, 84.008 226.204, 84.142 222.698, 84.244 219.154, 84.314 215.577, 84.352 211.976, 84.357 208.356, 84.331 204.727, 84.273 201.094, 84.183 197.466, 84.061 193.849, 83.907 190.251, 83.722 186.679, 83.507 183.141, 83.261 179.643, 82.985 176.192, 82.680 172.796, 82.346 169.461, 81.983 166.194, 81.594 163.002, 81.178 159.890, 80.736 156.866, 80.270 153.935, 79.779 151.104, 79.266 148.377, 78.731 145.761, 78.175 143.260, 77.599 140.880, 77.005 138.626, 76.393 136.502, 75.766 134.512, 75.123 132.660, 74.467 130.951, 73.799 129.387, 73.120 127.972, 72.432 126.708, 71.735 125.599, 71.032 124.645, 70.323 123.850, 69.611 "/>
    <path fill="none" stroke="rgb(0, 0, 0)" stroke-width="13.0" stroke-linecap="round" stroke-linejoin="round" d=" M 249.883, 50.736 249.829, 50.745 247.759, 51.080 245.546, 51.401 243.250, 51.702 240.874, 51.979 238.424, 52.234 235.905, 52.465 233.320, 52.672 230.677, 52.855 227.980, 53.013 225.234, 53.146 222.446, 53.254 220.015, 53.325 219.620, 53.336 216.762, 53.393 213.879, 53.423 210.975, 53.428 208.057, 53.407 205.131, 53.360 202.203, 53.287 199.278, 53.189 196.362, 53.065 193.461, 52.916 190.582, 52.742 187.729, 52.544 187.185, 52.501 184.909, 52.322 182.127, 52.075 179.389, 51.806 176.701, 51.514 174.067, 51.200 171.493, 50.865 168.985, 50.509 166.547, 50.133 164.184, 49.737 161.901, 49.323 159.703, 48.892 157.594, 48.444 156.896, 48.283 155.578, 47.980 "/>
  </g>
</svg>
