<?xml version="1.0" encoding="utf-8" ?>
<svg xmlns="http://www.w3.org/2000/svg" version="1.1" width="400" height="400" viewBox="0 0 400 400">
  <g>
    <path fill="none" stroke="rgb(0, 0, 0)" stroke-width="13.0" stroke-linecap="round" stroke-linejoin="round" d=" M 284.173, 69.822 284.178, 69.949 284.143, 70.318 284.059, 70.686 283.927, 71.053 283.747, 71.417 283.518, 71.779 283.241, 72.139 282.916, 72.496 282.543, 72.850 282.122, 73.201 281.654, 73.549 281.139, 73.893 280.578, 74.234 279.970, 74.570 279.315, 74.903 278.616, 75.231 277.871, 75.555 277.081, 75.874 276.247, 76.188 275.369, 76.497 274.447, 76.800 273.483, 77.099 272.477, 77.391 271.430, 77.678 270.341, 77.959 269.839, 78.081 269.212, 78.233 268.044, 78.501 266.837, 78.763 265.591, 79.018 264.309, 79.267 262.989, 79.508 261.634, 79.742 260.244, 79.969 258.819, 80.189 257.362, 80.401 255.872, 80.606 254.350, 80.802 252.798, 80.991 251.216, 81.172 249.605, 81.345 247.967, 81.510 246.301, 81.666 244.610, 81.814 242.895, 81.953 241.155, 82.084 239.393, 82.206 237.609, 82.320 235.805, 82.425 233.981, 82.520 232.139, 82.607 230.280, 82.685 228.404, 82.754 226.514, 82.814 224.610, 82.865 222.693, 82.907 220.764, 82.939 218.825, 82.963 216.877, 82.977 214.921, 82.982 212.958, 82.978 210.989, 82.964 209.016, 82.942 207.039, 82.910 205.060, 82.869 203.081, 82.819 201.101, 82.760 199.124, 82.692 197.148, 82.615 195.177, 82.529 193.210, 82.434 191.250, 82.330 189.298, 82.218 187.353, 82.096 185.419, 81.966 183.495, 81.828 181.584, 81.681 179.685, 81.525 177.801, 81.361 175.933, 81.189 174.081, 81.009 172.247, 80.821 170.432, 80.625 168.636, 80.421 166.862, 80.210 165.110, 79.991 163.381, 79.765 161.676, 79.531 159.996, 79.290 158.343, 79.043 156.716, 78.788 155.118, 78.527 153.549, 78.259 152.010, 77.985 150.502, 77.705 149.027, 77.419 147.583, 77.127 146.174, 76.829 144.799, 76.526 143.460, 76.218 142.156, 75.904 140.890, 75.586 139.662, 75.263 138.471, 74.935 137.320, 74.603 136.436, 74.335 136.209, 74.267 135.139, 73.926 134.109, 73.582 133.122, 73.235 132.177, 72.884 131.275, 72.530 130.416, 72.174 129.601, 71.814 128.831, 71.452 128.106, 71.088 127.427, 70.722 126.793, 70.354 126.205, 69.985 125.664, 69.614 125.170, 69.242 124.723, 68.869 124.323, 68.495 123.972, 68.121 123.668, 67.747 123.412, 67.372 123.204, 66.998 123.045, 66.624 122.935, 66.251 122.872, 65.879 122.859, 65.508 122.863, 65.465 "/>
    <path fill="none" stroke="rgb(0, 0, 0)" stroke-width="13.0" stroke-linecap="round" stroke-linejoin="round" d=" M 122.586, 65.148 117.230, 73.593 116.454, 74.816 116.206, 75.209 116.010, 75.604 115.867, 76.001 113.885, 83.123 113.792, 83.531 113.754, 83.940 113.479, 93.936 113.204, 103.932 112.930, 113.928 112.655, 123.925 112.381, 133.921 112.106, 143.917 111.831, 153.913 111.557, 163.910 111.282, 173.906 111.071, 181.595 111.086, 182.006 111.155, 182.417 111.277, 182.830 112.886, 187.869 113.059, 188.275 113.284, 188.681 113.562, 189.087 113.891, 189.493 114.273, 189.899 114.706, 190.304 115.191, 190.709 123.148, 196.766 123.811, 197.271 124.291, 197.633 124.818, 197.994 125.389, 198.353 126.005, 198.711 126.666, 199.067 127.371, 199.421 128.120, 199.773 128.912, 200.122 129.747, 200.469 130.625, 200.813 131.544, 201.155 132.504, 201.492 133.505, 201.827 134.546, 202.158 135.627, 202.485 136.746, 202.808 137.903, 203.126 139.098, 203.441 140.329, 203.750 141.597, 204.055 142.899, 204.355 144.236, 204.650 145.607, 204.939 147.010, 205.223 148.445, 205.502 149.912, 205.774 151.408, 206.040 152.934, 206.301 154.488, 206.555 156.069, 206.802 157.677, 207.043 159.311, 207.277 160.969, 207.504 162.650, 207.724 164.354, 207.937 166.079, 208.143 167.825, 208.341 169.591, 208.532 171.374, 208.714 173.175, 208.890 174.992, 209.057 176.824, 209.216 178.670, 209.367 180.529, 209.510 182.399, 209.645 184.280, 209.772 186.171, 209.890 188.070, 209.999 189.976, 210.100 191.888, 210.193 193.805, 210.276 195.726, 210.351 197.650, 210.417 199.574, 210.475 201.499, 210.523 203.424, 210.563 205.346, 210.594 207.265, 210.616 209.179, 210.629 211.088, 210.633 212.990, 210.628 214.885, 210.614 216.770, 210.591 218.646, 210.560 220.510, 210.519 222.362, 210.470 224.200, 210.411 226.024, 210.344 227.832, 210.268 229.623, 210.184 231.397, 210.091 233.151, 209.989 234.886, 209.879 236.599, 209.760 238.291, 209.632 239.959, 209.497 241.604, 209.353 243.223, 209.201 244.816, 209.041 246.383, 208.873 247.921, 208.697 249.430, 208.513 250.910, 208.322 252.359, 208.123 253.777, 207.917 255.162, 207.703 256.514, 207.482 257.832, 207.255 259.115, 207.020 260.362, 206.778 261.573, 206.530 262.747, 206.276 263.883, 206.015 264.981, 205.748 266.039, 205.475 267.058, 205.196 268.037, 204.912 268.974, 204.622 269.870, 204.326 270.724, 204.026 271.535, 203.720 272.303, 203.410 273.027, 203.096 273.708, 202.776 274.344, 202.453 274.935, 202.126 275.481, 201.795 275.982, 201.460 284.259, 195.848 284.948, 195.381 285.455, 195.004 285.912, 194.623 286.316, 194.239 286.669, 193.852 286.969, 193.462 287.218, 193.069 287.414, 192.673 289.297, 187.730 289.443, 187.325 289.536, 186.917 289.575, 186.508 289.849, 176.512 290.124, 166.516 290.398, 156.520 290.673, 146.523 290.948, 136.527 291.222, 126.531 291.497, 116.535 291.772, 106.539 292.046, 96.542 292.257, 88.853 292.242, 88.443 292.174, 88.031 290.586, 80.811 290.466, 80.406 290.293, 80.001 290.068, 79.595 285.184, 70.869 284.443, 69.545 "/>
    <path fill="none" stroke="rgb(0, 0, 0)" stroke-width="13.0" stroke-linecap="round" stroke-linejoin="round" d=" M 269.839, 78.081 271.338, 77.585 272.835, 77.048 274.191, 76.495 275.406, 75.927 276.992, 75.173 278.085, 74.580 279.591, 73.627 280.552, 73.009 281.358, 72.379 282.773, 71.231 283.434, 70.580 284.173, 69.822 284.443, 69.545 284.716, 69.264 285.839, 67.810 286.353, 67.130 287.307, 65.547 287.659, 64.852 288.428, 63.163 289.000, 61.397 289.185, 60.685 289.552, 58.862 289.709, 57.009 289.722, 56.288 289.667, 54.430 289.400, 52.590 289.241, 51.868 288.767, 50.074 288.091, 48.346 287.765, 47.632 286.900, 46.000 285.853, 44.477 285.370, 43.780 284.162, 42.397 283.525, 41.710 282.176, 40.487 281.393, 39.814 280.455, 39.145 279.005, 38.112 277.934, 37.460 276.394, 36.620 275.201, 35.988 273.865, 35.362 272.389, 34.744 270.848, 34.139 269.272, 33.544 267.565, 32.960 265.730, 32.387 263.772, 31.827 261.694, 31.280 259.500, 30.749 258.168, 30.428 255.919, 29.925 253.566, 29.438 251.114, 28.970 248.568, 28.519 245.933, 28.088 243.214, 27.678 240.416, 27.288 237.546, 26.921 234.608, 26.576 231.610, 26.254 228.557, 25.956 225.454, 25.683 222.309, 25.435 219.128, 25.213 215.917, 25.017 212.683, 24.847 209.432, 24.704 206.170, 24.588 202.905, 24.499 199.642, 24.438 196.389, 24.405 193.151, 24.399 189.937, 24.421 186.751, 24.471 183.600, 24.548 180.491, 24.652 177.430, 24.784 174.423, 24.943 171.477, 25.128 168.596, 25.340 165.787, 25.577 163.056, 25.840 160.408, 26.127 157.848, 26.439 155.382, 26.774 153.014, 27.133 150.750, 27.513 149.397, 27.762 147.187, 28.174 145.091, 28.607 143.115, 29.060 141.262, 29.533 139.536, 30.024 137.940, 30.533 136.365, 31.053 134.869, 31.590 133.512, 32.143 132.298, 32.711 130.711, 33.465 129.619, 34.059 128.113, 35.011 127.152, 35.629 126.346, 36.259 124.930, 37.407 124.270, 38.059 122.987, 39.374 121.864, 40.829 121.350, 41.508 120.396, 43.091 120.045, 43.787 119.275, 45.475 118.703, 47.241 118.519, 47.953 118.151, 49.776 117.994, 51.629 117.981, 52.350 118.037, 54.209 118.303, 56.049 118.462, 56.770 118.936, 58.564 119.612, 60.292 119.938, 61.006 120.803, 62.639 121.851, 64.161 122.334, 64.859 122.586, 65.148 122.863, 65.465 123.542, 66.242 124.178, 66.928 125.528, 68.151 126.310, 68.824 127.248, 69.494 128.699, 70.526 129.769, 71.179 131.310, 72.018 132.503, 72.651 133.838, 73.277 135.314, 73.895 136.436, 74.335 "/>
    <path fill="none" stroke="rgb(0, 0, 0)" stroke-width="13.0" stroke-linecap="round" stroke-linejoin="round" d=" M 282.773, 71.231 281.953, 71.872 280.975, 72.501 279.841, 73.117 278.553, 73.719 277.115, 74.305 275.528, 74.875 273.796, 75.427 271.923, 75.960 269.911, 76.473 267.767, 76.965 265.492, 77.435 263.093, 77.882 260.574, 78.306 257.941, 78.704 255.197, 79.077 252.350, 79.424 249.404, 79.744 246.366, 80.036 243.242, 80.300 240.037, 80.535 236.759, 80.742 233.414, 80.918 230.009, 81.065 226.551, 81.181 223.046, 81.267 219.502, 81.322 215.926, 81.347 212.325, 81.340 208.706, 81.303 205.077, 81.235 201.445, 81.136 197.816, 81.007 194.200, 80.848 190.602, 80.659 187.030, 80.441 183.491, 80.194 179.993, 79.918 176.542, 79.614 173.146, 79.283 169.810, 78.925 166.543, 78.541 163.350, 78.133 160.238, 77.699 157.213, 77.242 154.282, 76.763 151.449, 76.262 148.722, 75.741 146.105, 75.200 143.603, 74.640 141.222, 74.064 138.967, 73.471 136.842, 72.863 134.851, 72.241 132.998, 71.607 131.287, 70.962 129.722, 70.306 128.306, 69.642 127.041, 68.971 125.930, 68.294 124.975, 67.613 124.178, 66.928 "/>
    <path fill="none" stroke="rgb(0, 0, 0)" stroke-width="13.0" stroke-linecap="round" stroke-linejoin="round" d=" M 252.315, 47.705 252.136, 47.735 250.285, 48.046 248.161, 48.367 245.950, 48.668 243.654, 48.948 241.279, 49.206 238.830, 49.441 236.311, 49.654 233.728, 49.844 231.085, 50.010 228.388, 50.152 225.643, 50.271 222.855, 50.364 220.030, 50.434 217.173, 50.478 214.290, 50.498 211.386, 50.493 208.469, 50.463 205.543, 50.408 202.615, 50.328 199.690, 50.224 196.774, 50.096 193.873, 49.944 190.994, 49.768 188.141, 49.568 185.321, 49.346 182.539, 49.101 179.800, 48.834 177.112, 48.546 174.477, 48.236 171.903, 47.907 169.394, 47.557 166.956, 47.189 164.592, 46.803 162.309, 46.399 160.110, 45.978 158.000, 45.542 156.046, 45.105 155.984, 45.091 "/>
  </g>
</svg>
