<?xml version="1.0" encoding="utf-8" ?>
<svg xmlns="http://www.w3.org/2000/svg" version="1.1" width="400" height="400" viewBox="0 0 400 400">
  <g>
    <path fill="none" stroke="rgb(0, 0, 0)" stroke-width="13.0" stroke-linecap="round" stroke-linejoin="round" d=" M 122.755, 194.191 121.284, 196.275 120.735, 197.094 120.237, 197.919 119.791, 198.751 119.396, 199.588 119.054, 200.430 118.763, 201.276 116.770, 207.839 116.527, 208.707 116.337, 209.579 116.201, 210.454 116.119, 211.331 115.791, 221.326 115.464, 231.320 115.136, 241.315 114.809, 251.310 114.481, 261.304 114.153, 271.299 113.826, 281.293 113.498, 291.288 113.171, 301.283 113.135, 302.364 113.107, 303.243 113.132, 304.124 113.211, 305.006 113.343, 305.888 113.529, 306.770 113.769, 307.652 114.062, 308.532 115.641, 313.152 115.980, 314.014 116.372, 314.873 116.815, 315.729 117.309, 316.583 117.855, 317.432 118.451, 318.277 119.098, 319.118 119.795, 319.953 120.541, 320.783 121.337, 321.606 122.182, 322.423 123.074, 323.232 124.014, 324.034 125.002, 324.827 126.036, 325.612 127.115, 326.387 128.240, 327.153 129.410, 327.909 130.623, 328.654 137.832, 333.040 138.959, 333.698 140.123, 334.346 141.325, 334.983 142.563, 335.609 143.837, 336.224 145.146, 336.827 146.489, 337.418 147.865, 337.997 149.275, 338.562 150.716, 339.115 152.187, 339.654 153.689, 340.179 155.220, 340.690 156.779, 341.186 158.366, 341.668 159.978, 342.135 161.616, 342.586 163.279, 343.022 164.964, 343.442 166.672, 343.845 168.401, 344.233 170.151, 344.604 171.919, 344.958 173.706, 345.294 175.510, 345.614 177.330, 345.916 179.164, 346.201 181.013, 346.468 182.873, 346.717 184.746, 346.948 186.629, 347.160 188.521, 347.354 190.421, 347.530 192.328, 347.687 194.241, 347.826 196.159, 347.945 198.080, 348.046 200.004, 348.128 201.929, 348.191 203.853, 348.235 205.777, 348.260 207.699, 348.266 209.616, 348.253 211.530, 348.221 213.438, 348.170 215.338, 348.100 217.231, 348.011 219.114, 347.904 220.988, 347.777 222.849, 347.632 224.699, 347.468 226.534, 347.285 228.355, 347.084 230.160, 346.865 231.948, 346.627 233.718, 346.372 235.468, 346.098 237.199, 345.807 238.908, 345.499 240.595, 345.173 242.259, 344.829 243.899, 344.469 245.513, 344.092 247.101, 343.699 248.662, 343.289 250.195, 342.864 251.699, 342.422 253.173, 341.965 254.616, 341.493 256.028, 341.006 257.406, 340.504 258.752, 339.988 260.063, 339.457 261.339, 338.913 262.580, 338.356 263.784, 337.786 264.951, 337.203 272.432, 333.298 273.691, 332.634 274.908, 331.956 276.080, 331.266 277.208, 330.563 278.291, 329.847 279.328, 329.120 280.319, 328.382 281.262, 327.632 282.158, 326.873 283.006, 326.103 283.805, 325.324 284.554, 324.536 285.255, 323.740 285.905, 322.936 286.505, 322.123 287.054, 321.304 287.552, 320.479 287.998, 319.647 288.393, 318.810 290.271, 314.303 290.621, 313.443 290.917, 312.579 291.161, 311.711 291.350, 310.840 291.487, 309.965 291.569, 309.088 291.897, 299.093 292.224, 289.099 292.552, 279.104 292.879, 269.109 293.207, 259.115 293.534, 249.120 293.862, 239.125 294.189, 229.131 294.517, 219.136 294.552, 218.055 294.581, 217.175 294.556, 216.295 294.477, 215.413 294.345, 214.531 294.159, 213.649 292.600, 206.969 292.365, 206.106 292.078, 205.243 291.739, 204.382 291.347, 203.523 290.905, 202.667 290.410, 201.814 289.039, 199.571 "/>
    <path fill="none" stroke="rgb(0, 0, 0)" stroke-width="13.0" stroke-linecap="round" stroke-linejoin="round" d=" M 285.011, 205.783 284.997, 205.813 284.585, 206.580 284.126, 207.341 283.620, 208.096 283.067, 208.845 282.468, 209.587 281.823, 210.321 281.131, 211.047 280.395, 211.765 279.613, 212.474 278.788, 213.175 277.918, 213.865 277.005, 214.546 276.049, 215.216 275.051, 215.876 274.011, 216.524 272.930, 217.161 271.809, 217.785 270.648, 218.398 269.448, 218.997 268.210, 219.584 266.934, 220.157 265.622, 220.716 264.273, 221.262 262.890, 221.792 261.472, 222.309 260.020, 222.809 258.536, 223.295 257.021, 223.765 255.474, 224.219 253.898, 224.657 252.293, 225.078 250.659, 225.483 248.999, 225.870 247.313, 226.241 245.602, 226.594 243.867, 226.929 242.109, 227.246 240.330, 227.546 238.529, 227.827 236.709, 228.090 234.871, 228.334 233.015, 228.559 231.142, 228.766 229.255, 228.954 227.353, 229.122 225.439, 229.272 223.512, 229.402 221.576, 229.513 219.629, 229.604 217.675, 229.676 215.713, 229.729 213.745, 229.762 211.773, 229.775 209.797, 229.769 207.819, 229.743 205.839, 229.698 203.860, 229.633 201.882, 229.549 199.906, 229.445 197.934, 229.322 195.967, 229.180 194.006, 229.018 192.052, 228.837 190.106, 228.637 188.170, 228.419 186.244, 228.182 184.331, 227.926 182.430, 227.651 180.543, 227.358 178.672, 227.048 176.817, 226.719 174.980, 226.372 173.161, 226.008 171.362, 225.627 169.584, 225.229 167.827, 224.814 166.094, 224.382 164.385, 223.934 162.700, 223.470 161.042, 222.990 159.411, 222.494 157.807, 221.984 156.233, 221.458 154.688, 220.918 153.175, 220.364 151.693, 219.796 150.244, 219.214 148.828, 218.620 147.447, 218.012 146.101, 217.392 144.791, 216.759 143.518, 216.115 142.282, 215.460 141.085, 214.794 139.926, 214.117 138.808, 213.430 137.730, 212.733 136.693, 212.027 135.697, 211.312 134.744, 210.589 133.834, 209.857 132.967, 209.118 132.145, 208.372 131.366, 207.620 130.633, 206.861 129.945, 206.096 129.302, 205.326 128.706, 204.551 128.156, 203.772 127.653, 202.989 127.197, 202.202 126.789, 201.413 126.500, 200.777 "/>
    <path fill="none" stroke="rgb(0, 0, 0)" stroke-width="13.0" stroke-linecap="round" stroke-linejoin="round" d=" M 206.799, 140.203 203.375, 140.138 199.957, 140.136 196.553, 140.195 193.170, 140.316 189.814, 140.499 186.492, 140.743 183.210, 141.048 179.977, 141.412 176.797, 141.836 173.677, 142.319 170.624, 142.859 167.643, 143.455 164.742, 144.106 161.924, 144.812 160.925, 145.085 158.139, 145.859 155.450, 146.685 152.865, 147.562 150.389, 148.488 148.026, 149.460 145.781, 150.477 144.542, 151.059 142.378, 152.140 140.343, 153.262 138.442, 154.424 137.193, 155.254 135.398, 156.473 133.747, 157.728 132.242, 159.015 131.040, 160.075 129.664, 161.413 128.443, 162.778 127.356, 164.026 126.278, 165.435 125.346, 166.829 124.419, 168.276 123.658, 169.742 122.893, 171.271 122.294, 172.767 121.720, 174.390 121.288, 175.909 120.916, 177.597 120.654, 179.133 120.491, 180.859 120.402, 182.404 120.451, 184.138 120.534, 185.686 120.795, 187.398 121.050, 188.942 121.476, 190.486 121.941, 192.137 122.534, 193.666 122.755, 194.191 123.194, 195.235 123.949, 196.744 124.792, 198.203 125.702, 199.685 126.500, 200.777 126.774, 201.153 127.770, 202.460 128.985, 203.892 130.356, 205.306 131.473, 206.431 132.972, 207.802 134.619, 209.148 135.824, 210.069 137.583, 211.365 139.479, 212.632 141.509, 213.867 143.668, 215.068 144.843, 215.718 147.083, 216.860 149.442, 217.963 151.915, 219.026 154.496, 220.047 157.180, 221.023 158.187, 221.369 160.910, 222.279 163.724, 223.141 166.623, 223.954 169.600, 224.716 172.651, 225.426 175.768, 226.082 178.946, 226.682 182.178, 227.227 185.458, 227.714 188.779, 228.143 192.134, 228.512 195.516, 228.821 198.920, 229.070 202.337, 229.258 205.761, 229.384 209.185, 229.448 212.603, 229.451 216.007, 229.391 219.390, 229.270 222.747, 229.087 226.069, 228.844 229.350, 228.539 232.584, 228.174 235.764, 227.750 238.884, 227.268 241.937, 226.728 244.917, 226.132 247.819, 225.480 250.636, 224.775 251.636, 224.502 254.422, 223.728 257.110, 222.901 259.695, 222.024 262.172, 221.099 264.535, 220.127 266.780, 219.110 268.018, 218.527 270.183, 217.447 272.218, 216.324 274.119, 215.163 275.367, 214.333 277.162, 213.113 278.814, 211.859 280.319, 210.572 281.520, 209.511 282.896, 208.174 284.117, 206.809 285.011, 205.783 285.205, 205.560 286.283, 204.152 287.215, 202.758 288.141, 201.311 288.902, 199.845 289.039, 199.571 289.667, 198.315 290.266, 196.819 290.840, 195.197 291.273, 193.677 291.644, 191.989 291.906, 190.453 292.069, 188.728 292.159, 187.182 292.109, 185.449 292.026, 183.900 291.765, 182.189 291.511, 180.644 291.084, 179.101 290.620, 177.450 290.027, 175.921 289.366, 174.352 288.611, 172.843 287.769, 171.383 286.858, 169.902 285.786, 168.433 284.791, 167.127 283.575, 165.694 282.205, 164.280 281.087, 163.155 279.588, 161.785 277.942, 160.438 276.736, 159.518 274.978, 158.222 273.082, 156.955 271.052, 155.719 268.892, 154.518 267.718, 153.869 265.477, 152.727 263.118, 151.623 260.646, 150.560 258.065, 149.540 255.380, 148.564 254.374, 148.217 251.650, 147.308 248.836, 146.446 245.938, 145.633 242.960, 144.871 239.910, 144.161 236.792, 143.505 233.614, 142.904 230.382, 142.360 227.103, 141.873 223.782, 141.444 220.427, 141.075 217.044, 140.765 213.641, 140.517 210.224, 140.329 206.799, 140.203 "/>
    <path fill="none" stroke="rgb(0, 0, 0)" stroke-width="13.0" stroke-linecap="round" stroke-linejoin="round" d=" M 153.799, 180.964 153.796, 180.961 153.791, 180.955 153.675, 180.765 153.193, 179.981 "/>
    <path fill="none" stroke="rgb(0, 0, 0)" stroke-width="13.0" stroke-linecap="round" stroke-linejoin="round" d=" M 154.372, 181.634 154.326, 181.586 153.935, 181.126 153.931, 181.121 153.799, 180.964 153.796, 180.962 153.720, 180.871 153.681, 180.826 153.500, 180.613 "/>
    <path fill="none" stroke="rgb(0, 0, 0)" stroke-width="13.0" stroke-linecap="round" stroke-linejoin="round" d=" M 155.954, 183.007 155.196, 182.387 154.372, 181.634 154.139, 181.421 "/>
    <path fill="none" stroke="rgb(0, 0, 0)" stroke-width="13.0" stroke-linecap="round" stroke-linejoin="round" d=" M 159.818, 185.479 159.333, 185.209 157.840, 184.301 156.446, 183.369 156.150, 183.151 156.141, 183.145 156.133, 183.139 155.954, 183.007 155.152, 182.416 "/>
    <path fill="none" stroke="rgb(0, 0, 0)" stroke-width="13.0" stroke-linecap="round" stroke-linejoin="round" d=" M 275.367, 214.333 273.432, 215.515 271.361, 216.657 269.159, 217.757 266.829, 218.812 264.376, 219.821 261.806, 220.782 259.123, 221.692 256.333, 222.550 253.441, 223.353 250.454, 224.101 247.377, 224.792 244.216, 225.425 240.979, 225.997 237.671, 226.509 234.299, 226.958 230.869, 227.345 227.390, 227.668 223.867, 227.927 220.308, 228.120 216.720, 228.249 213.111, 228.312 209.487, 228.309 205.855, 228.241 202.224, 228.107 198.601, 227.908 194.992, 227.644 191.405, 227.316 187.847, 226.925 184.326, 226.470 180.848, 225.954 177.421, 225.376 174.051, 224.739 170.745, 224.044 167.510, 223.291 164.353, 222.483 161.279, 221.621 158.295, 220.707 155.407, 219.742 152.621, 218.729 149.942, 217.670 147.376, 216.567 144.928, 215.421 142.602, 214.236 140.404, 213.014 138.338, 211.757 136.409, 210.467 134.619, 209.148 "/>
    <path fill="none" stroke="rgb(0, 0, 0)" stroke-width="13.0" stroke-linecap="round" stroke-linejoin="round" d=" M 168.879, 189.393 167.177, 188.775 165.191, 187.989 163.287, 187.171 161.472, 186.322 159.818, 185.479 159.747, 185.443 "/>
    <path fill="none" stroke="rgb(0, 0, 0)" stroke-width="13.0" stroke-linecap="round" stroke-linejoin="round" d=" M 242.952, 191.932 242.771, 191.977 240.675, 192.502 238.330, 193.028 235.922, 193.510 233.454, 193.947 230.933, 194.336 228.363, 194.679 225.749, 194.974 223.098, 195.220 220.413, 195.417 217.700, 195.565 214.966, 195.663 212.215, 195.711 209.453, 195.709 206.686, 195.657 203.918, 195.555 201.157, 195.403 198.406, 195.202 195.673, 194.952 192.961, 194.653 190.277, 194.307 187.627, 193.913 185.015, 193.473 182.447, 192.988 179.927, 192.458 177.462, 191.884 175.056, 191.268 172.713, 190.611 170.439, 189.914 168.879, 189.393 168.238, 189.179 "/>
    <path fill="none" stroke="rgb(0, 0, 0)" stroke-width="13.0" stroke-linecap="round" stroke-linejoin="round" d=" M 253.610, 188.054 252.837, 188.404 251.881, 188.837 250.062, 189.585 248.156, 190.297 246.166, 190.972 244.097, 191.608 242.771, 191.977 "/>
    <path fill="none" stroke="rgb(0, 0, 0)" stroke-width="13.0" stroke-linecap="round" stroke-linejoin="round" d=" M 256.857, 186.162 256.598, 186.321 256.430, 186.423 256.421, 186.429 256.410, 186.435 255.459, 187.016 253.963, 187.842 252.837, 188.404 "/>
    <path fill="none" stroke="rgb(0, 0, 0)" stroke-width="13.0" stroke-linecap="round" stroke-linejoin="round" d=" M 259.101, 184.340 258.874, 184.534 258.850, 184.555 258.824, 184.577 258.811, 184.588 258.781, 184.614 258.661, 184.716 258.631, 184.742 258.186, 185.123 258.040, 185.248 256.875, 186.133 256.598, 186.321 "/>
    <path fill="none" stroke="rgb(0, 0, 0)" stroke-width="13.0" stroke-linecap="round" stroke-linejoin="round" d=" M 259.663, 183.566 259.018, 184.288 258.972, 184.339 258.920, 184.397 258.896, 184.423 258.862, 184.462 258.834, 184.493 258.787, 184.539 258.186, 185.123 "/>
    <path fill="none" stroke="rgb(0, 0, 0)" stroke-width="13.0" stroke-linecap="round" stroke-linejoin="round" d=" M 259.284, 183.889 259.032, 184.218 258.986, 184.279 258.914, 184.372 258.879, 184.418 258.787, 184.539 "/>
    <path fill="none" stroke="rgb(0, 0, 0)" stroke-width="13.0" stroke-linecap="round" stroke-linejoin="round" d=" M 259.430, 183.422 258.986, 184.279 "/>
    <path fill="none" stroke="rgb(0, 0, 0)" stroke-width="13.0" stroke-linecap="round" stroke-linejoin="round" d=" M 259.040, 184.016 258.879, 184.418 "/>
    <path fill="none" stroke="rgb(0, 0, 0)" stroke-width="13.0" stroke-linecap="round" stroke-linejoin="round" d=" M 256.203, 186.250 256.421, 186.429 "/>
    <path fill="none" stroke="rgb(0, 0, 0)" stroke-width="13.0" stroke-linecap="round" stroke-linejoin="round" d=" M 153.796, 180.961 153.554, 180.477 "/>
    <path fill="none" stroke="rgb(0, 0, 0)" stroke-width="13.0" stroke-linecap="round" stroke-linejoin="round" d=" M 153.935, 181.126 153.889, 180.842 "/>
  </g>
</svg>
