<?xml version="1.0" encoding="utf-8" ?>
<svg xmlns="http://www.w3.org/2000/svg" version="1.1" width="400" height="400" viewBox="0 0 400 400">
  <g>
    <path fill="none" stroke="rgb(0, 0, 0)" stroke-width="13.0" stroke-linecap="round" stroke-linejoin="round" d=" M 118.290, 170.753 116.434, 173.600 115.935, 174.400 115.486, 175.204 115.090, 176.013 114.745, 176.825 114.452, 177.640 114.212, 178.458 112.423, 185.148 112.232, 185.984 112.094, 186.823 112.009, 187.662 111.979, 188.502 111.964, 198.502 111.949, 208.502 111.934, 218.502 111.919, 228.502 111.905, 238.502 111.890, 248.502 111.875, 258.502 111.860, 268.502 111.845, 278.502 111.843, 280.352 111.866, 281.192 111.943, 282.032 112.073, 282.871 112.258, 283.708 112.496, 284.543 112.787, 285.376 114.513, 289.998 114.851, 290.812 115.241, 291.623 115.682, 292.429 116.175, 293.231 116.719, 294.029 117.314, 294.821 117.959, 295.607 118.655, 296.387 119.400, 297.161 120.194, 297.927 121.037, 298.686 121.929, 299.436 122.868, 300.178 123.854, 300.911 124.886, 301.635 125.965, 302.348 127.089, 303.052 128.258, 303.744 135.796, 308.160 136.883, 308.771 138.009, 309.371 139.172, 309.961 140.373, 310.539 141.610, 311.107 142.883, 311.662 144.192, 312.206 145.534, 312.737 146.910, 313.255 148.319, 313.760 149.760, 314.252 151.231, 314.730 152.733, 315.194 154.263, 315.644 155.822, 316.080 157.408, 316.500 159.021, 316.906 160.659, 317.296 162.321, 317.671 164.006, 318.031 165.714, 318.374 167.444, 318.701 169.193, 319.012 170.962, 319.306 172.749, 319.584 174.553, 319.844 176.373, 320.088 178.208, 320.314 180.056, 320.523 181.918, 320.715 183.791, 320.889 185.674, 321.046 187.567, 321.185 189.467, 321.306 191.375, 321.409 193.289, 321.494 195.207, 321.561 197.129, 321.610 199.054, 321.640 200.979, 321.653 202.905, 321.648 204.830, 321.624 206.752, 321.583 208.671, 321.523 210.585, 321.445 212.494, 321.350 214.396, 321.236 216.290, 321.104 218.174, 320.955 220.049, 320.788 221.912, 320.603 223.762, 320.401 225.599, 320.182 227.421, 319.945 229.228, 319.691 231.017, 319.421 232.788, 319.133 234.540, 318.829 236.273, 318.509 237.983, 318.172 239.672, 317.819 241.338, 317.451 242.979, 317.066 244.595, 316.667 246.185, 316.252 247.747, 315.823 249.282, 315.379 250.788, 314.920 252.263, 314.448 253.708, 313.961 255.121, 313.462 256.502, 312.949 257.849, 312.423 259.162, 311.884 260.440, 311.334 261.683, 310.771 262.888, 310.197 264.057, 309.612 265.188, 309.016 266.280, 308.409 273.821, 304.022 274.995, 303.334 276.125, 302.635 277.210, 301.926 278.249, 301.206 279.242, 300.477 280.187, 299.739 281.085, 298.992 281.935, 298.236 282.736, 297.473 283.488, 296.702 284.190, 295.925 284.843, 295.141 285.444, 294.351 285.996, 293.556 286.495, 292.756 286.944, 291.951 287.341, 291.142 287.686, 290.329 289.425, 285.714 289.724, 284.882 289.969, 284.047 290.161, 283.211 290.299, 282.373 290.383, 281.533 290.414, 280.693 290.428, 270.693 290.443, 260.693 290.458, 250.693 290.473, 240.693 290.488, 230.693 290.503, 220.693 290.517, 210.693 290.532, 200.693 290.547, 190.693 290.550, 188.843 290.527, 188.003 290.450, 187.164 290.319, 186.325 290.135, 185.487 288.365, 178.791 288.132, 177.972 287.847, 177.156 287.509, 176.342 287.120, 175.532 286.678, 174.726 286.186, 173.924 284.249, 170.934 "/>
    <path fill="none" stroke="rgb(0, 0, 0)" stroke-width="13.0" stroke-linecap="round" stroke-linejoin="round" d=" M 280.871, 176.314 280.769, 176.555 280.403, 177.300 279.990, 178.042 279.529, 178.780 279.021, 179.513 278.466, 180.241 277.865, 180.964 277.217, 181.681 276.524, 182.391 275.786, 183.094 275.003, 183.791 274.175, 184.479 273.303, 185.160 272.388, 185.832 271.430, 186.495 270.430, 187.149 269.389, 187.794 268.306, 188.428 267.183, 189.052 266.020, 189.665 264.818, 190.267 263.578, 190.857 262.300, 191.436 260.986, 192.002 259.636, 192.556 258.250, 193.096 256.831, 193.624 255.377, 194.138 253.892, 194.638 252.374, 195.124 250.826, 195.595 249.248, 196.052 247.641, 196.494 246.006, 196.920 244.344, 197.331 242.656, 197.726 240.944, 198.105 239.207, 198.468 237.448, 198.814 235.667, 199.144 233.865, 199.456 232.043, 199.752 230.203, 200.030 228.346, 200.291 226.472, 200.535 224.583, 200.760 222.680, 200.968 220.764, 201.158 218.837, 201.330 216.899, 201.483 214.951, 201.619 212.995, 201.735 211.032, 201.834 209.064, 201.914 207.090, 201.975 205.114, 202.018 203.134, 202.042 201.154, 202.048 199.174, 202.035 197.195, 202.003 195.219, 201.952 193.246, 201.884 191.278, 201.796 189.316, 201.690 187.361, 201.566 185.415, 201.423 183.478, 201.262 181.552, 201.083 179.638, 200.886 177.737, 200.671 175.850, 200.438 173.979, 200.187 172.123, 199.919 170.286, 199.634 168.467, 199.331 166.668, 199.012 164.890, 198.675 163.133, 198.322 161.400, 197.953 159.691, 197.567 158.006, 197.166 156.348, 196.749 154.717, 196.316 153.114, 195.868 151.540, 195.406 149.996, 194.928 148.483, 194.437 147.001, 193.931 145.553, 193.411 144.138, 192.878 142.757, 192.332 141.412, 191.774 140.102, 191.202 138.830, 190.619 137.595, 190.024 136.398, 189.417 135.241, 188.800 134.123, 188.172 133.046, 187.533 132.010, 186.885 131.016, 186.227 130.064, 185.560 129.155, 184.884 128.289, 184.201 127.468, 183.509 126.690, 182.809 125.958, 182.103 125.271, 181.390 124.630, 180.671 124.035, 179.946 123.487, 179.216 122.986, 178.481 122.531, 177.741 122.124, 176.998 121.779, 176.279 "/>
    <path fill="none" stroke="rgb(0, 0, 0)" stroke-width="13.0" stroke-linecap="round" stroke-linejoin="round" d=" M 201.423, 115.185 197.997, 115.208 194.578, 115.289 191.172, 115.430 187.787, 115.629 184.428, 115.886 181.104, 116.201 177.820, 116.572 174.584, 117.000 171.402, 117.483 168.279, 118.020 165.223, 118.611 162.240, 119.253 159.336, 119.947 156.516, 120.690 153.786, 121.480 151.151, 122.317 150.062, 122.682 147.474, 123.583 144.994, 124.527 142.628, 125.513 140.379, 126.539 138.254, 127.603 137.005, 128.265 134.966, 129.386 133.062, 130.541 131.295, 131.728 130.051, 132.634 128.396, 133.872 126.887, 135.138 125.529, 136.428 124.347, 137.560 123.122, 138.893 122.078, 140.187 120.997, 141.558 120.077, 142.946 119.182, 144.397 118.418, 145.815 117.703, 147.380 117.100, 148.822 116.578, 150.474 116.142, 151.935 115.824, 153.647 115.558, 155.120 115.465, 156.596 115.357, 158.341 115.437, 159.819 115.540, 161.563 115.793, 163.037 116.106, 164.750 116.529, 166.213 117.046, 167.867 117.636, 169.312 118.290, 170.753 118.347, 170.879 119.099, 172.300 119.990, 173.754 120.898, 175.146 121.779, 176.279 121.967, 176.521 123.007, 177.819 124.220, 179.157 125.400, 180.293 126.747, 181.588 128.245, 182.859 129.889, 184.104 131.131, 185.015 132.888, 186.209 134.782, 187.371 136.811, 188.500 138.060, 189.166 140.176, 190.238 142.415, 191.273 144.773, 192.268 147.245, 193.222 149.825, 194.132 150.916, 194.502 153.543, 195.349 156.265, 196.150 159.079, 196.903 161.977, 197.608 164.955, 198.262 168.005, 198.864 171.123, 199.413 174.301, 199.908 177.534, 200.348 180.814, 200.732 184.136, 201.060 187.491, 201.330 190.875, 201.542 194.280, 201.695 197.698, 201.790 201.124, 201.826 204.550, 201.803 207.969, 201.721 211.375, 201.581 214.760, 201.382 218.119, 201.125 221.443, 200.810 224.727, 200.439 227.963, 200.011 231.145, 199.528 234.268, 198.991 237.324, 198.400 240.307, 197.757 243.211, 197.064 246.032, 196.321 248.761, 195.531 251.396, 194.694 252.485, 194.329 255.073, 193.428 257.553, 192.484 259.919, 191.497 262.168, 190.471 264.293, 189.408 265.542, 188.746 267.581, 187.625 269.485, 186.470 271.253, 185.283 272.496, 184.376 274.151, 183.138 275.660, 181.873 277.018, 180.583 278.200, 179.451 279.425, 178.118 280.469, 176.824 280.871, 176.314 281.550, 175.453 282.470, 174.065 283.365, 172.614 284.129, 171.196 284.249, 170.934 284.844, 169.631 285.447, 168.189 285.969, 166.536 286.405, 165.076 286.723, 163.363 286.989, 161.891 287.082, 160.415 287.191, 158.670 287.111, 157.192 287.007, 155.448 286.755, 153.974 286.441, 152.261 286.018, 150.798 285.501, 149.144 284.911, 147.699 284.200, 146.132 283.448, 144.711 282.557, 143.257 281.650, 141.865 280.580, 140.490 279.540, 139.192 278.327, 137.854 277.147, 136.718 275.800, 135.422 274.303, 134.151 272.658, 132.907 271.416, 131.996 269.659, 130.802 267.765, 129.640 265.736, 128.511 264.487, 127.844 262.371, 126.773 260.132, 125.738 257.774, 124.743 255.303, 123.789 252.722, 122.878 251.631, 122.509 249.005, 121.662 246.282, 120.861 243.468, 120.108 240.570, 119.403 237.592, 118.749 234.542, 118.147 231.424, 117.598 228.246, 117.103 225.013, 116.662 221.733, 116.278 218.412, 115.951 215.056, 115.681 211.672, 115.469 208.268, 115.316 204.849, 115.221 201.423, 115.185 "/>
    <path fill="none" stroke="rgb(0, 0, 0)" stroke-width="13.0" stroke-linecap="round" stroke-linejoin="round" d=" M 150.098, 157.103 149.803, 156.881 148.869, 156.087 148.748, 155.984 148.629, 155.870 148.558, 155.802 148.554, 155.798 148.494, 155.740 148.470, 155.717 147.798, 155.071 "/>
    <path fill="none" stroke="rgb(0, 0, 0)" stroke-width="13.0" stroke-linecap="round" stroke-linejoin="round" d=" M 153.225, 159.036 152.406, 158.580 152.167, 158.433 151.013, 157.725 150.098, 157.103 149.721, 156.847 "/>
    <path fill="none" stroke="rgb(0, 0, 0)" stroke-width="13.0" stroke-linecap="round" stroke-linejoin="round" d=" M 272.496, 184.376 270.698, 185.585 268.759, 186.760 266.685, 187.901 264.479, 189.006 262.145, 190.070 259.689, 191.094 257.115, 192.074 254.429, 193.009 251.636, 193.896 248.741, 194.735 245.751, 195.522 242.670, 196.257 239.507, 196.939 236.267, 197.565 232.956, 198.135 229.581, 198.647 226.149, 199.101 222.667, 199.495 219.142, 199.828 215.581, 200.101 211.991, 200.312 208.379, 200.461 204.754, 200.548 201.121, 200.572 197.488, 200.534 193.863, 200.433 190.253, 200.270 186.665, 200.046 183.106, 199.759 179.584, 199.412 176.105, 199.005 172.678, 198.538 169.307, 198.013 166.002, 197.431 162.767, 196.792 159.609, 196.099 156.536, 195.352 153.552, 194.553 150.665, 193.703 147.880, 192.805 145.202, 191.860 142.637, 190.870 140.189, 189.837 137.865, 188.764 135.669, 187.651 133.605, 186.502 131.677, 185.319 129.889, 184.104 "/>
    <path fill="none" stroke="rgb(0, 0, 0)" stroke-width="13.0" stroke-linecap="round" stroke-linejoin="round" d=" M 161.117, 162.359 159.719, 161.866 157.816, 161.132 156.001, 160.366 154.278, 159.569 153.225, 159.036 152.649, 158.744 "/>
    <path fill="none" stroke="rgb(0, 0, 0)" stroke-width="13.0" stroke-linecap="round" stroke-linejoin="round" d=" M 241.818, 162.352 241.370, 162.495 239.689, 163.029 237.483, 163.668 235.204, 164.268 232.857, 164.828 230.446, 165.348 227.976, 165.825 225.453, 166.259 222.881, 166.649 220.265, 166.995 217.611, 167.295 214.925, 167.550 212.211, 167.757 209.475, 167.918 206.722, 168.032 203.959, 168.098 201.190, 168.116 198.422, 168.087 195.659, 168.011 192.908, 167.887 190.173, 167.715 187.461, 167.497 184.777, 167.233 182.126, 166.922 179.513, 166.566 176.945, 166.166 174.425, 165.722 171.960, 165.236 169.553, 164.707 167.211, 164.138 164.937, 163.529 162.737, 162.882 161.117, 162.359 160.614, 162.197 "/>
    <path fill="none" stroke="rgb(0, 0, 0)" stroke-width="13.0" stroke-linecap="round" stroke-linejoin="round" d=" M 249.819, 158.930 249.305, 159.187 248.182, 159.749 246.452, 160.538 244.630, 161.298 242.721, 162.024 241.370, 162.495 "/>
    <path fill="none" stroke="rgb(0, 0, 0)" stroke-width="13.0" stroke-linecap="round" stroke-linejoin="round" d=" M 252.769, 157.044 252.457, 157.254 251.469, 157.917 250.381, 158.578 250.069, 158.767 249.305, 159.187 "/>
    <path fill="none" stroke="rgb(0, 0, 0)" stroke-width="13.0" stroke-linecap="round" stroke-linejoin="round" d=" M 254.714, 155.275 254.089, 155.869 254.061, 155.896 253.999, 155.955 253.998, 155.956 253.940, 156.011 253.756, 156.185 253.667, 156.260 252.693, 157.077 252.457, 157.254 "/>
    <path fill="none" stroke="rgb(0, 0, 0)" stroke-width="13.0" stroke-linecap="round" stroke-linejoin="round" d=" M 254.364, 155.501 254.217, 155.661 254.119, 155.767 254.106, 155.783 254.072, 155.819 253.667, 156.260 "/>
    <path fill="none" stroke="rgb(0, 0, 0)" stroke-width="13.0" stroke-linecap="round" stroke-linejoin="round" d=" M 254.635, 154.983 254.128, 155.749 254.106, 155.783 "/>
    <path fill="none" stroke="rgb(0, 0, 0)" stroke-width="13.0" stroke-linecap="round" stroke-linejoin="round" d=" M 254.229, 155.527 254.072, 155.819 "/>
    <path fill="none" stroke="rgb(0, 0, 0)" stroke-width="13.0" stroke-linecap="round" stroke-linejoin="round" d=" M 148.439, 155.613 148.429, 155.598 147.895, 154.779 "/>
    <path fill="none" stroke="rgb(0, 0, 0)" stroke-width="13.0" stroke-linecap="round" stroke-linejoin="round" d=" M 148.485, 155.663 148.305, 155.324 "/>
    <path fill="none" stroke="rgb(0, 0, 0)" stroke-width="13.0" stroke-linecap="round" stroke-linejoin="round" d=" M 148.869, 156.087 148.485, 155.663 148.439, 155.613 148.433, 155.607 148.338, 155.502 148.154, 155.298 "/>
  </g>
</svg>
