<?xml version="1.0" encoding="utf-8" ?>
<svg xmlns="http://www.w3.org/2000/svg" version="1.1" width="400" height="400" viewBox="0 0 400 400">
  <g>
    <path fill="none" stroke="rgb(0, 0, 0)" stroke-width="13.0" stroke-linecap="round" stroke-linejoin="round" d=" M 285.153, 73.108 285.117, 73.488 285.033, 73.873 284.900, 74.255 284.718, 74.635 284.489, 75.013 284.211, 75.387 283.885, 75.759 283.511, 76.127 283.090, 76.492 282.622, 76.853 282.106, 77.210 281.544, 77.563 280.935, 77.911 280.280, 78.255 279.579, 78.594 278.834, 78.928 278.043, 79.257 277.209, 79.580 276.330, 79.898 275.408, 80.210 274.444, 80.516 273.437, 80.815 272.389, 81.109 271.300, 81.396 270.171, 81.676 269.564, 81.818 269.002, 81.949 267.794, 82.216 266.549, 82.475 265.266, 82.727 263.946, 82.971 262.590, 83.207 261.200, 83.436 259.775, 83.657 258.317, 83.870 256.827, 84.075 255.305, 84.271 253.753, 84.459 252.171, 84.638 250.560, 84.809 248.921, 84.971 247.256, 85.124 245.565, 85.268 243.849, 85.403 242.110, 85.529 240.347, 85.646 238.564, 85.753 236.759, 85.852 234.936, 85.940 233.094, 86.020 231.235, 86.090 229.359, 86.150 227.469, 86.201 225.565, 86.242 223.648, 86.274 221.720, 86.296 219.781, 86.308 217.833, 86.310 215.878, 86.303 213.915, 86.287 211.947, 86.260 209.974, 86.224 207.998, 86.179 206.019, 86.124 204.040, 86.059 202.061, 85.985 200.084, 85.901 198.109, 85.808 196.138, 85.706 194.172, 85.594 192.213, 85.473 190.261, 85.343 188.317, 85.203 186.383, 85.055 184.460, 84.898 182.549, 84.732 180.652, 84.558 178.769, 84.374 176.901, 84.183 175.050, 83.982 173.216, 83.774 171.402, 83.558 169.607, 83.333 167.834, 83.101 166.082, 82.861 164.354, 82.613 162.650, 82.358 160.971, 82.095 159.318, 81.826 157.693, 81.549 156.096, 81.266 154.528, 80.976 152.990, 80.680 151.483, 80.377 150.008, 80.068 148.566, 79.754 147.157, 79.433 145.783, 79.108 144.445, 78.776 143.142, 78.440 141.877, 78.099 140.649, 77.753 139.460, 77.402 138.551, 77.122 138.310, 77.048 137.200, 76.689 136.131, 76.326 135.102, 75.960 134.116, 75.590 133.172, 75.217 132.270, 74.841 131.413, 74.463 130.599, 74.081 129.830, 73.698 129.106, 73.312 128.427, 72.925 127.794, 72.536 127.208, 72.146 126.667, 71.754 126.174, 71.362 125.728, 70.969 125.330, 70.575 124.979, 70.181 124.676, 69.788 124.421, 69.395 124.214, 69.002 124.056, 68.610 123.946, 68.219 123.885, 67.829 123.874, 67.496 "/>
    <path fill="none" stroke="rgb(0, 0, 0)" stroke-width="13.0" stroke-linecap="round" stroke-linejoin="round" d=" M 123.526, 67.092 118.095, 75.489 117.384, 76.587 117.135, 76.997 116.939, 77.409 116.794, 77.823 114.757, 84.917 114.664, 85.343 114.624, 85.771 114.271, 95.764 113.919, 105.758 113.566, 115.752 113.213, 125.746 112.860, 135.739 112.507, 145.733 112.154, 155.727 111.802, 165.721 111.449, 175.715 111.183, 183.234 111.197, 183.664 111.265, 184.095 111.387, 184.528 112.957, 189.570 113.128, 189.995 113.353, 190.421 113.629, 190.848 113.958, 191.275 114.338, 191.702 114.771, 192.128 115.254, 192.555 115.790, 192.981 123.713, 199.081 124.300, 199.533 124.826, 199.914 125.396, 200.294 126.012, 200.672 126.672, 201.049 127.376, 201.424 128.124, 201.796 128.915, 202.167 129.749, 202.535 130.625, 202.901 131.543, 203.264 132.503, 203.623 133.503, 203.980 134.543, 204.332 135.622, 204.681 136.741, 205.026 137.897, 205.367 139.091, 205.703 140.321, 206.035 141.588, 206.362 142.889, 206.684 144.225, 207.001 145.595, 207.313 146.997, 207.618 148.432, 207.919 149.897, 208.213 151.393, 208.501 152.918, 208.783 154.471, 209.059 156.051, 209.327 157.658, 209.590 159.291, 209.845 160.948, 210.093 162.629, 210.334 164.332, 210.567 166.057, 210.793 167.802, 211.011 169.566, 211.222 171.349, 211.425 173.149, 211.619 174.965, 211.806 176.797, 211.984 178.642, 212.154 180.500, 212.315 182.370, 212.468 184.251, 212.612 186.141, 212.747 188.039, 212.874 189.945, 212.992 191.856, 213.100 193.773, 213.200 195.693, 213.290 197.616, 213.372 199.540, 213.444 201.465, 213.507 203.389, 213.561 205.310, 213.605 207.229, 213.640 209.143, 213.665 211.052, 213.682 212.954, 213.689 214.848, 213.686 216.733, 213.674 218.608, 213.653 220.472, 213.622 222.324, 213.582 224.162, 213.533 225.985, 213.474 227.793, 213.406 229.585, 213.329 231.358, 213.242 233.112, 213.147 234.847, 213.042 236.561, 212.929 238.252, 212.806 239.921, 212.675 241.565, 212.535 243.184, 212.386 244.778, 212.228 246.344, 212.062 247.883, 211.888 249.392, 211.705 250.872, 211.514 252.322, 211.315 253.739, 211.108 255.125, 210.894 256.477, 210.671 257.795, 210.441 259.078, 210.203 260.326, 209.959 261.538, 209.707 262.712, 209.448 263.848, 209.182 264.947, 208.909 266.006, 208.630 267.025, 208.345 268.004, 208.053 268.942, 207.756 269.838, 207.453 270.692, 207.144 271.504, 206.829 272.273, 206.509 272.998, 206.185 273.679, 205.855 274.316, 205.521 274.908, 205.182 275.454, 204.839 283.789, 199.312 284.411, 198.899 284.971, 198.512 285.479, 198.120 285.936, 197.725 286.342, 197.325 286.695, 196.922 286.996, 196.516 287.246, 196.106 287.442, 195.694 289.364, 190.775 289.512, 190.352 289.605, 189.926 289.645, 189.498 289.998, 179.504 290.350, 169.511 290.703, 159.517 291.056, 149.523 291.409, 139.529 291.762, 129.536 292.115, 119.542 292.467, 109.548 292.820, 99.554 293.086, 92.035 293.072, 91.605 293.004, 91.174 291.472, 83.955 291.353, 83.531 291.182, 83.106 290.958, 82.680 286.132, 73.921 285.493, 72.760 "/>
    <path fill="none" stroke="rgb(0, 0, 0)" stroke-width="13.0" stroke-linecap="round" stroke-linejoin="round" d=" M 269.564, 81.818 270.655, 81.472 272.290, 80.938 273.787, 80.385 275.145, 79.815 276.711, 79.092 277.953, 78.493 279.047, 77.879 280.561, 76.943 281.523, 76.303 282.933, 75.181 283.755, 74.516 285.038, 73.225 285.153, 73.108 285.493, 72.760 285.710, 72.537 286.844, 71.095 287.360, 70.387 288.326, 68.815 288.679, 68.090 289.462, 66.410 290.047, 64.652 290.234, 63.908 290.615, 62.091 290.786, 60.243 290.801, 59.488 290.760, 57.633 290.508, 55.794 290.350, 55.038 289.891, 53.244 289.228, 51.514 288.904, 50.765 288.051, 49.130 287.564, 48.387 286.535, 46.870 285.338, 45.482 284.703, 44.760 283.363, 43.531 282.582, 42.822 281.646, 42.116 280.204, 41.078 279.136, 40.389 277.918, 39.704 276.411, 38.874 275.077, 38.211 273.602, 37.555 271.991, 36.908 270.492, 36.315 268.787, 35.692 266.954, 35.082 264.997, 34.483 262.921, 33.898 260.729, 33.328 259.400, 33.009 257.153, 32.468 254.802, 31.945 252.352, 31.439 249.807, 30.951 247.173, 30.484 244.455, 30.037 241.659, 29.612 238.790, 29.209 235.854, 28.830 232.857, 28.474 229.805, 28.144 226.704, 27.839 223.560, 27.559 220.380, 27.307 217.170, 27.081 213.936, 26.883 210.686, 26.713 207.425, 26.571 204.161, 26.458 200.899, 26.373 197.646, 26.318 194.409, 26.291 191.195, 26.294 188.010, 26.326 184.859, 26.387 181.751, 26.477 178.690, 26.596 175.683, 26.743 172.736, 26.918 169.856, 27.121 167.047, 27.352 164.316, 27.610 161.667, 27.894 159.107, 28.204 156.641, 28.540 154.273, 28.900 152.974, 29.117 150.652, 29.510 148.441, 29.927 146.345, 30.367 144.368, 30.829 142.514, 31.312 140.787, 31.815 139.245, 32.304 137.611, 32.838 136.113, 33.391 134.755, 33.961 133.189, 34.684 131.947, 35.283 130.854, 35.897 129.340, 36.833 128.377, 37.473 126.967, 38.595 126.146, 39.260 124.863, 40.551 124.190, 41.239 123.056, 42.681 122.541, 43.389 121.574, 44.961 121.221, 45.686 120.439, 47.366 119.853, 49.124 119.667, 49.868 119.285, 51.685 119.114, 53.533 119.099, 54.288 119.140, 56.143 119.392, 57.982 119.550, 58.738 120.010, 60.532 120.672, 62.262 120.996, 63.011 121.849, 64.646 122.337, 65.389 123.365, 66.906 123.526, 67.092 123.874, 67.496 124.563, 68.294 125.198, 69.016 126.537, 70.245 127.318, 70.954 128.254, 71.660 129.696, 72.698 130.765, 73.387 131.982, 74.072 133.489, 74.902 134.824, 75.565 136.298, 76.221 137.909, 76.868 138.551, 77.122 "/>
    <path fill="none" stroke="rgb(0, 0, 0)" stroke-width="13.0" stroke-linecap="round" stroke-linejoin="round" d=" M 282.933, 75.181 281.954, 75.834 280.819, 76.471 279.530, 77.093 278.090, 77.697 276.502, 78.283 274.769, 78.850 272.895, 79.396 270.883, 79.920 268.738, 80.421 266.463, 80.899 264.063, 81.352 261.544, 81.779 258.909, 82.179 256.165, 82.552 253.318, 82.897 250.372, 83.213 247.333, 83.500 244.209, 83.757 241.005, 83.983 237.727, 84.178 234.382, 84.342 230.977, 84.474 227.519, 84.574 224.015, 84.642 220.472, 84.677 216.896, 84.680 213.296, 84.651 209.677, 84.589 206.049, 84.495 202.417, 84.369 198.790, 84.211 195.174, 84.022 191.578, 83.802 188.007, 83.551 184.469, 83.270 180.972, 82.959 177.523, 82.620 174.128, 82.252 170.794, 81.856 167.528, 81.434 164.336, 80.986 161.226, 80.513 158.203, 80.016 155.273, 79.496 152.442, 78.954 149.716, 78.392 147.101, 77.809 144.601, 77.208 142.222, 76.589 139.968, 75.955 137.845, 75.305 135.856, 74.642 134.005, 73.967 132.296, 73.281 130.733, 72.586 129.318, 71.882 128.055, 71.172 126.945, 70.457 125.992, 69.738 125.198, 69.016 "/>
    <path fill="none" stroke="rgb(0, 0, 0)" stroke-width="13.0" stroke-linecap="round" stroke-linejoin="round" d=" M 251.478, 51.394 251.320, 51.418 249.354, 51.717 247.142, 52.018 244.846, 52.296 242.471, 52.551 240.022, 52.782 237.503, 52.989 234.919, 53.171 232.277, 53.329 229.580, 53.461 226.835, 53.567 224.048, 53.648 221.900, 53.689 221.223, 53.702 218.366, 53.731 215.483, 53.733 212.581, 53.710 209.664, 53.660 206.738, 53.584 203.811, 53.483 200.886, 53.355 197.972, 53.203 195.072, 53.025 192.193, 52.823 189.341, 52.596 188.259, 52.500 186.522, 52.346 183.741, 52.072 181.004, 51.776 178.316, 51.457 175.683, 51.117 173.110, 50.755 170.603, 50.374 168.165, 49.974 165.803, 49.554 163.521, 49.117 161.324, 48.664 159.215, 48.194 158.496, 48.021 157.200, 47.709 "/>
  </g>
</svg>
