<?xml version="1.0" encoding="utf-8" ?>
<svg xmlns="http://www.w3.org/2000/svg" version="1.1" width="400" height="400" viewBox="0 0 400 400">
  <g>
    <path fill="none" stroke="rgb(0, 0, 0)" stroke-width="13.0" stroke-linecap="round" stroke-linejoin="round" d=" M 116.178, 222.384 115.469, 223.442 114.921, 224.340 114.425, 225.243 113.979, 226.152 113.586, 227.064 113.244, 227.981 112.955, 228.900 111.194, 235.410 110.951, 236.351 110.763, 237.295 110.628, 238.240 110.547, 239.186 110.520, 240.132 110.539, 250.132 110.558, 260.132 110.578, 270.132 110.597, 280.132 110.616, 290.132 110.636, 300.132 110.655, 310.132 110.675, 320.132 110.693, 329.821 110.720, 330.768 110.800, 331.714 110.934, 332.659 111.121, 333.602 111.362, 334.542 111.657, 335.480 112.004, 336.414 113.740, 340.888 114.132, 341.800 114.577, 342.707 115.073, 343.610 115.620, 344.506 116.218, 345.397 116.866, 346.281 117.564, 347.157 118.312, 348.026 119.110, 348.887 119.956, 349.739 120.850, 350.581 121.792, 351.414 122.781, 352.236 123.816, 353.048 124.898, 353.848 126.024, 354.636 127.195, 355.413 128.410, 356.176 129.668, 356.927 130.969, 357.663 132.311, 358.386 139.334, 362.074 140.573, 362.708 141.848, 363.330 143.159, 363.937 144.503, 364.531 145.881, 365.110 147.292, 365.674 148.734, 366.223 150.208, 366.757 151.711, 367.274 153.243, 367.776 154.804, 368.261 156.392, 368.729 158.006, 369.180 159.645, 369.614 161.309, 370.031 162.995, 370.430 164.705, 370.810 166.435, 371.172 168.186, 371.516 169.956, 371.842 171.744, 372.148 173.549, 372.435 175.369, 372.703 177.205, 372.952 179.055, 373.181 180.917, 373.390 182.790, 373.579 184.674, 373.749 186.567, 373.898 188.469, 374.028 190.377, 374.137 192.291, 374.226 194.210, 374.294 196.132, 374.342 198.056, 374.370 199.982, 374.378 201.908, 374.364 203.832, 374.331 205.754, 374.277 207.673, 374.203 209.587, 374.108 211.495, 373.994 213.397, 373.859 215.290, 373.704 217.174, 373.528 219.048, 373.333 220.910, 373.119 222.760, 372.884 224.596, 372.630 226.417, 372.357 228.223, 372.064 230.011, 371.753 231.781, 371.422 233.532, 371.073 235.263, 370.706 236.973, 370.320 238.660, 369.917 240.324, 369.495 241.964, 369.056 243.578, 368.600 245.166, 368.127 246.727, 367.637 248.260, 367.131 249.764, 366.609 251.238, 366.072 252.681, 365.518 254.092, 364.950 255.471, 364.367 256.816, 363.769 258.127, 363.158 259.403, 362.533 260.643, 361.894 267.640, 358.186 268.982, 357.459 270.284, 356.719 271.543, 355.965 272.758, 355.198 273.930, 354.418 275.058, 353.626 276.140, 352.823 277.176, 352.008 278.166, 351.183 279.109, 350.347 280.004, 349.502 280.851, 348.648 281.649, 347.785 282.398, 346.914 283.097, 346.035 283.747, 345.149 284.345, 344.257 284.893, 343.359 285.390, 342.455 285.836, 341.546 286.229, 340.633 287.947, 336.154 288.295, 335.219 288.591, 334.280 288.833, 333.339 289.021, 332.395 289.156, 331.450 289.237, 330.504 289.265, 329.557 289.245, 319.558 289.226, 309.558 289.206, 299.558 289.187, 289.558 289.168, 279.558 289.148, 269.558 289.129, 259.558 289.109, 249.558 289.091, 239.869 289.064, 238.922 288.984, 237.976 288.850, 237.031 288.663, 236.088 288.422, 235.148 286.635, 228.644 286.346, 227.725 286.006, 226.809 285.613, 225.898 285.169, 224.991 284.673, 224.089 284.126, 223.193 283.529, 222.303 283.324, 222.000 "/>
    <path fill="none" stroke="rgb(0, 0, 0)" stroke-width="13.0" stroke-linecap="round" stroke-linejoin="round" d=" M 278.667, 230.030 278.497, 230.377 278.039, 231.210 277.534, 232.038 276.982, 232.860 276.383, 233.677 275.739, 234.487 275.048, 235.290 274.312, 236.085 273.532, 236.873 272.707, 237.652 271.838, 238.422 270.925, 239.183 269.970, 239.933 268.972, 240.674 267.933, 241.404 266.853, 242.123 265.732, 242.830 264.572, 243.525 263.372, 244.208 262.134, 244.877 260.859, 245.534 259.547, 246.177 258.198, 246.806 256.815, 247.420 255.397, 248.020 253.946, 248.604 252.462, 249.173 250.947, 249.726 249.400, 250.263 247.824, 250.783 246.219, 251.287 244.585, 251.773 242.925, 252.242 241.239, 252.694 239.528, 253.127 237.792, 253.542 236.034, 253.939 234.254, 254.317 232.454, 254.676 230.633, 255.015 228.794, 255.336 226.938, 255.637 225.065, 255.918 223.177, 256.179 221.275, 256.420 219.360, 256.641 217.433, 256.841 215.495, 257.021 213.548, 257.181 211.593, 257.320 209.631, 257.438 207.662, 257.535 205.689, 257.611 203.713, 257.667 201.733, 257.701 199.753, 257.714 197.773, 257.707 195.794, 257.678 193.817, 257.629 191.844, 257.558 189.876, 257.467 187.914, 257.355 185.959, 257.222 184.012, 257.068 182.074, 256.894 180.148, 256.699 178.233, 256.483 176.331, 256.248 174.443, 255.992 172.571, 255.717 170.715, 255.422 168.876, 255.107 167.056, 254.772 165.256, 254.419 163.476, 254.046 161.718, 253.654 159.984, 253.245 158.273, 252.816 156.587, 252.370 154.927, 251.906 153.295, 251.424 151.690, 250.925 150.114, 250.410 148.568, 249.877 147.053, 249.329 145.570, 248.764 144.119, 248.184 142.702, 247.589 141.320, 246.978 139.972, 246.354 138.661, 245.715 137.386, 245.062 136.149, 244.396 134.950, 243.717 133.790, 243.025 132.670, 242.321 131.591, 241.606 130.552, 240.879 129.555, 240.141 128.601, 239.393 127.689, 238.635 126.821, 237.867 125.997, 237.091 125.217, 236.305 124.482, 235.512 123.792, 234.711 123.149, 233.903 122.551, 233.088 122.000, 232.268 121.496, 231.441 121.038, 230.609 121.009, 230.549 "/>
    <path fill="none" stroke="rgb(0, 0, 0)" stroke-width="13.0" stroke-linecap="round" stroke-linejoin="round" d=" M 199.704, 163.839 196.278, 163.877 192.859, 163.981 189.453, 164.152 186.069, 164.389 182.711, 164.691 179.388, 165.057 176.106, 165.488 172.872, 165.982 169.691, 166.538 166.571, 167.154 163.517, 167.831 160.536, 168.566 159.688, 168.778 156.723, 169.588 153.845, 170.453 151.059, 171.374 148.371, 172.347 145.786, 173.371 143.310, 174.444 140.947, 175.564 139.787, 176.115 137.498, 177.302 135.334, 178.533 133.300, 179.804 132.125, 180.607 130.191, 181.939 128.397, 183.307 126.746, 184.708 125.612, 185.747 124.085, 187.200 122.711, 188.682 121.688, 189.910 120.452, 191.436 119.376, 192.985 118.496, 194.376 117.571, 195.961 116.812, 197.562 116.102, 199.084 115.505, 200.712 114.989, 202.323 114.558, 203.971 114.246, 205.642 113.986, 207.303 113.883, 209.005 113.795, 210.671 113.881, 212.336 113.990, 214.038 114.249, 215.698 114.568, 217.368 114.996, 219.015 115.519, 220.624 116.115, 222.251 116.178, 222.384 116.831, 223.771 117.588, 225.370 118.511, 226.952 119.397, 228.340 120.471, 229.886 121.009, 230.549 121.706, 231.409 122.734, 232.633 124.107, 234.111 125.633, 235.560 126.772, 236.595 128.421, 237.991 130.213, 239.354 132.146, 240.680 133.326, 241.480 135.359, 242.745 137.521, 243.969 139.809, 245.150 142.217, 246.285 143.335, 246.810 145.810, 247.876 148.394, 248.893 151.081, 249.858 153.866, 250.770 156.743, 251.627 159.707, 252.428 160.559, 252.638 163.539, 253.364 166.592, 254.031 169.712, 254.639 172.892, 255.185 176.126, 255.670 179.408, 256.091 182.730, 256.447 186.087, 256.739 189.472, 256.966 192.877, 257.127 196.296, 257.221 199.722, 257.249 203.147, 257.211 206.566, 257.106 209.972, 256.936 213.356, 256.699 216.714, 256.397 220.037, 256.030 223.319, 255.600 226.554, 255.106 229.734, 254.550 232.855, 253.933 235.908, 253.257 238.889, 252.522 239.737, 252.309 242.702, 251.500 245.580, 250.635 248.366, 249.714 251.054, 248.741 253.639, 247.717 256.115, 246.644 258.478, 245.524 259.638, 244.973 261.927, 243.785 264.091, 242.555 266.125, 241.284 267.300, 240.481 269.234, 239.149 271.028, 237.781 272.679, 236.380 273.813, 235.341 275.340, 233.887 276.714, 232.406 277.737, 231.178 278.667, 230.030 278.973, 229.651 280.050, 228.103 280.929, 226.712 281.854, 225.127 282.613, 223.526 283.323, 222.003 283.324, 222.000 283.920, 220.375 284.437, 218.764 284.867, 217.117 285.180, 215.445 285.440, 213.785 285.542, 212.082 285.630, 210.417 285.544, 208.752 285.435, 207.049 285.177, 205.390 284.857, 203.719 284.429, 202.073 283.906, 200.463 283.310, 198.837 282.594, 197.317 281.837, 195.718 280.914, 194.135 280.028, 192.748 278.954, 191.202 277.719, 189.679 276.691, 188.454 275.318, 186.977 273.792, 185.528 272.653, 184.493 271.004, 183.096 269.212, 181.734 267.279, 180.407 266.099, 179.607 264.066, 178.343 261.904, 177.119 259.616, 175.938 257.208, 174.803 256.090, 174.278 253.615, 173.212 251.031, 172.195 248.344, 171.230 245.559, 170.318 242.682, 169.461 239.718, 168.660 238.866, 168.450 235.886, 167.724 232.833, 167.056 229.713, 166.449 226.533, 165.902 223.299, 165.418 220.017, 164.997 216.695, 164.641 213.338, 164.349 209.953, 164.122 206.548, 163.961 203.129, 163.867 199.704, 163.839 "/>
    <path fill="none" stroke="rgb(0, 0, 0)" stroke-width="13.0" stroke-linecap="round" stroke-linejoin="round" d=" M 147.397, 209.495 147.396, 209.494 147.373, 209.454 147.352, 209.417 147.282, 209.298 147.219, 209.191 146.735, 208.169 "/>
    <path fill="none" stroke="rgb(0, 0, 0)" stroke-width="13.0" stroke-linecap="round" stroke-linejoin="round" d=" M 147.693, 209.908 147.630, 209.830 147.601, 209.788 147.599, 209.786 147.397, 209.495 147.396, 209.494 147.375, 209.463 147.361, 209.444 147.301, 209.357 147.282, 209.329 146.924, 208.814 "/>
    <path fill="none" stroke="rgb(0, 0, 0)" stroke-width="13.0" stroke-linecap="round" stroke-linejoin="round" d=" M 148.699, 210.946 148.380, 210.643 148.361, 210.625 148.359, 210.623 148.344, 210.609 148.331, 210.594 148.328, 210.592 147.693, 209.908 147.600, 209.807 147.598, 209.806 147.544, 209.748 147.465, 209.662 147.430, 209.625 147.426, 209.621 147.412, 209.606 "/>
    <path fill="none" stroke="rgb(0, 0, 0)" stroke-width="13.0" stroke-linecap="round" stroke-linejoin="round" d=" M 151.008, 212.737 150.668, 212.504 149.404, 211.543 148.699, 210.946 148.363, 210.661 148.341, 210.642 148.339, 210.641 148.312, 210.618 148.309, 210.615 148.241, 210.558 "/>
    <path fill="none" stroke="rgb(0, 0, 0)" stroke-width="13.0" stroke-linecap="round" stroke-linejoin="round" d=" M 156.306, 215.662 155.618, 215.338 153.936, 214.470 152.345, 213.569 151.008, 212.737 150.851, 212.639 "/>
    <path fill="none" stroke="rgb(0, 0, 0)" stroke-width="13.0" stroke-linecap="round" stroke-linejoin="round" d=" M 267.300, 240.481 265.230, 241.774 263.028, 243.026 260.699, 244.235 258.247, 245.397 255.677, 246.511 252.994, 247.574 250.204, 248.584 247.313, 249.540 244.325, 250.438 241.248, 251.278 238.087, 252.057 234.849, 252.775 231.540, 253.429 228.168, 254.018 224.737, 254.542 221.257, 254.998 217.733, 255.387 214.173, 255.707 210.584, 255.958 206.973, 256.139 203.348, 256.250 199.715, 256.291 196.082, 256.261 192.457, 256.161 188.846, 255.990 185.257, 255.750 181.697, 255.440 178.174, 255.062 174.694, 254.616 171.264, 254.102 167.892, 253.523 164.584, 252.878 161.347, 252.171 158.187, 251.400 155.111, 250.570 152.124, 249.680 149.233, 248.734 146.445, 247.732 143.763, 246.676 141.194, 245.570 138.743, 244.415 136.415, 243.214 134.215, 241.968 132.146, 240.680 "/>
    <path fill="none" stroke="rgb(0, 0, 0)" stroke-width="13.0" stroke-linecap="round" stroke-linejoin="round" d=" M 168.772, 219.944 166.592, 219.355 164.377, 218.695 162.233, 217.993 160.165, 217.250 158.176, 216.468 156.306, 215.662 156.271, 215.647 "/>
    <path fill="none" stroke="rgb(0, 0, 0)" stroke-width="13.0" stroke-linecap="round" stroke-linejoin="round" d=" M 231.325, 219.667 230.618, 219.842 228.916, 220.261 226.449, 220.808 223.927, 221.307 221.356, 221.756 218.742, 222.155 216.090, 222.503 213.404, 222.799 210.691, 223.043 207.956, 223.234 205.204, 223.372 202.440, 223.457 199.672, 223.488 196.903, 223.465 194.140, 223.389 191.388, 223.259 188.653, 223.076 185.940, 222.840 183.255, 222.551 180.603, 222.211 177.989, 221.820 175.419, 221.378 172.898, 220.887 170.430, 220.348 168.772, 219.944 168.022, 219.761 "/>
    <path fill="none" stroke="rgb(0, 0, 0)" stroke-width="13.0" stroke-linecap="round" stroke-linejoin="round" d=" M 244.904, 214.657 243.763, 215.198 243.085, 215.519 241.179, 216.345 239.189, 217.133 237.120, 217.883 234.975, 218.591 232.760, 219.257 230.618, 219.842 "/>
    <path fill="none" stroke="rgb(0, 0, 0)" stroke-width="13.0" stroke-linecap="round" stroke-linejoin="round" d=" M 248.513, 212.495 248.417, 212.555 247.018, 213.429 245.427, 214.334 243.763, 215.198 "/>
    <path fill="none" stroke="rgb(0, 0, 0)" stroke-width="13.0" stroke-linecap="round" stroke-linejoin="round" d=" M 251.131, 210.406 251.118, 210.417 251.116, 210.419 251.088, 210.442 251.084, 210.445 251.064, 210.463 250.731, 210.746 249.967, 211.394 248.702, 212.359 248.417, 212.555 "/>
    <path fill="none" stroke="rgb(0, 0, 0)" stroke-width="13.0" stroke-linecap="round" stroke-linejoin="round" d=" M 251.967, 209.451 251.950, 209.469 251.873, 209.552 251.826, 209.604 251.824, 209.606 251.740, 209.696 251.096, 210.390 251.094, 210.392 251.066, 210.422 251.062, 210.427 251.045, 210.445 251.034, 210.457 250.731, 210.746 "/>
    <path fill="none" stroke="rgb(0, 0, 0)" stroke-width="13.0" stroke-linecap="round" stroke-linejoin="round" d=" M 252.463, 208.658 252.145, 209.116 252.120, 209.153 252.057, 209.243 252.045, 209.261 252.036, 209.274 252.028, 209.286 251.824, 209.578 251.823, 209.580 251.756, 209.676 251.740, 209.696 "/>
    <path fill="none" stroke="rgb(0, 0, 0)" stroke-width="13.0" stroke-linecap="round" stroke-linejoin="round" d=" M 252.660, 208.013 252.175, 209.036 252.137, 209.101 252.063, 209.227 252.046, 209.257 252.036, 209.274 "/>
    <path fill="none" stroke="rgb(0, 0, 0)" stroke-width="13.0" stroke-linecap="round" stroke-linejoin="round" d=" M 252.323, 208.518 252.063, 209.227 "/>
    <path fill="none" stroke="rgb(0, 0, 0)" stroke-width="13.0" stroke-linecap="round" stroke-linejoin="round" d=" M 252.072, 209.115 252.028, 209.286 "/>
    <path fill="none" stroke="rgb(0, 0, 0)" stroke-width="13.0" stroke-linecap="round" stroke-linejoin="round" d=" M 251.816, 209.456 251.823, 209.580 "/>
    <path fill="none" stroke="rgb(0, 0, 0)" stroke-width="13.0" stroke-linecap="round" stroke-linejoin="round" d=" M 250.985, 210.258 251.094, 210.392 "/>
    <path fill="none" stroke="rgb(0, 0, 0)" stroke-width="13.0" stroke-linecap="round" stroke-linejoin="round" d=" M 147.352, 209.417 147.079, 208.673 "/>
    <path fill="none" stroke="rgb(0, 0, 0)" stroke-width="13.0" stroke-linecap="round" stroke-linejoin="round" d=" M 147.396, 209.494 147.338, 209.270 "/>
    <path fill="none" stroke="rgb(0, 0, 0)" stroke-width="13.0" stroke-linecap="round" stroke-linejoin="round" d=" M 147.601, 209.788 147.610, 209.610 "/>
  </g>
</svg>
