<?xml version="1.0" encoding="utf-8" ?>
<svg xmlns="http://www.w3.org/2000/svg" version="1.1" width="400" height="400" viewBox="0 0 400 400">
  <g>
    <path fill="none" stroke="rgb(0, 0, 0)" stroke-width="13.0" stroke-linecap="round" stroke-linejoin="round" d=" M 109.060, 149.158 106.913, 152.678 106.465, 153.477 106.067, 154.278 105.722, 155.082 105.429, 155.888 105.189, 156.694 103.589, 163.449 103.396, 164.273 103.258, 165.098 103.173, 165.922 103.142, 166.746 103.404, 176.742 103.667, 186.739 103.929, 196.735 104.192, 206.732 104.454, 216.729 104.717, 226.725 104.980, 236.722 105.242, 246.718 105.505, 256.715 105.562, 258.886 105.584, 259.709 105.661, 260.530 105.791, 261.348 105.975, 262.164 106.212, 262.977 106.502, 263.786 108.360, 268.384 108.697, 269.173 109.086, 269.958 109.527, 270.738 110.019, 271.512 110.562, 272.280 111.156, 273.042 111.801, 273.797 112.496, 274.545 113.240, 275.285 114.034, 276.017 114.876, 276.740 115.767, 277.454 116.705, 278.159 117.691, 278.854 118.723, 279.538 119.801, 280.212 120.924, 280.874 122.091, 281.525 129.805, 285.821 130.891, 286.393 132.016, 286.955 133.179, 287.505 134.379, 288.044 135.616, 288.570 136.888, 289.084 138.196, 289.585 139.538, 290.074 140.913, 290.549 142.321, 291.010 143.761, 291.458 145.232, 291.892 146.732, 292.311 148.262, 292.715 149.820, 293.105 151.406, 293.480 153.018, 293.839 154.655, 294.183 156.316, 294.510 158.001, 294.822 159.708, 295.118 161.437, 295.398 163.186, 295.661 164.954, 295.907 166.740, 296.137 168.543, 296.349 170.362, 296.545 172.197, 296.723 174.045, 296.884 175.905, 297.028 177.778, 297.154 179.660, 297.263 181.552, 297.354 183.453, 297.428 185.360, 297.483 187.273, 297.521 189.191, 297.541 191.112, 297.544 193.036, 297.528 194.961, 297.495 196.886, 297.444 198.810, 297.376 200.732, 297.289 202.650, 297.185 204.564, 297.064 206.472, 296.925 208.374, 296.769 210.267, 296.595 212.151, 296.404 214.025, 296.196 215.888, 295.971 217.738, 295.729 219.575, 295.470 221.396, 295.195 223.202, 294.904 224.991, 294.596 226.762, 294.273 228.514, 293.933 230.246, 293.578 231.956, 293.208 233.645, 292.822 235.310, 292.422 236.951, 292.006 238.567, 291.577 240.156, 291.133 241.719, 290.675 243.253, 290.203 244.759, 289.719 246.234, 289.221 247.679, 288.710 249.092, 288.187 250.472, 287.652 251.820, 287.105 253.133, 286.546 254.411, 285.976 255.653, 285.396 256.859, 284.805 258.028, 284.204 259.158, 283.593 260.251, 282.973 261.304, 282.343 268.786, 277.646 269.916, 276.934 271.001, 276.213 272.040, 275.484 273.033, 274.746 273.979, 274.000 274.877, 273.247 275.727, 272.487 276.528, 271.720 277.281, 270.948 277.983, 270.169 278.636, 269.386 279.238, 268.598 279.789, 267.805 280.290, 267.009 280.738, 266.210 281.136, 265.408 281.481, 264.604 281.774, 263.798 283.388, 259.109 283.633, 258.285 283.825, 257.461 283.964, 256.637 284.049, 255.812 284.080, 254.989 283.817, 244.992 283.555, 234.996 283.292, 224.999 283.030, 215.003 282.767, 205.006 282.505, 195.009 282.242, 185.013 281.980, 175.016 281.717, 165.020 281.660, 162.848 281.638, 162.026 281.561, 161.205 281.431, 160.386 281.247, 159.570 281.010, 158.757 279.058, 152.097 278.773, 151.304 278.436, 150.515 278.047, 149.730 277.607, 148.951 277.115, 148.177 274.764, 144.743 "/>
    <path fill="none" stroke="rgb(0, 0, 0)" stroke-width="13.0" stroke-linecap="round" stroke-linejoin="round" d=" M 271.714, 149.873 271.709, 149.888 271.390, 150.629 271.024, 151.369 270.611, 152.105 270.149, 152.839 269.641, 153.569 269.086, 154.296 268.485, 155.018 267.837, 155.735 267.143, 156.448 266.405, 157.154 265.621, 157.855 264.793, 158.549 263.922, 159.237 263.006, 159.917 262.049, 160.590 261.048, 161.254 260.007, 161.910 258.924, 162.557 257.801, 163.195 256.638, 163.823 255.436, 164.441 254.196, 165.049 252.918, 165.646 251.604, 166.232 250.254, 166.806 248.868, 167.369 247.449, 167.919 245.996, 168.457 244.510, 168.983 242.993, 169.495 241.445, 169.993 239.867, 170.478 238.260, 170.949 236.625, 171.405 234.964, 171.847 233.276, 172.274 231.564, 172.686 229.827, 173.083 228.068, 173.463 226.287, 173.829 224.486, 174.178 222.665, 174.510 220.825, 174.827 218.968, 175.126 217.095, 175.409 215.206, 175.675 213.304, 175.924 211.388, 176.155 209.461, 176.369 207.524, 176.566 205.577, 176.744 203.621, 176.905 201.659, 177.048 199.691, 177.173 197.718, 177.280 195.742, 177.369 193.763, 177.439 191.783, 177.492 189.804, 177.526 187.826, 177.541 185.850, 177.539 183.878, 177.518 181.910, 177.479 179.949, 177.422 177.995, 177.346 176.049, 177.253 174.113, 177.141 172.188, 177.011 170.274, 176.863 168.374, 176.698 166.488, 176.514 164.617, 176.313 162.763, 176.094 160.926, 175.858 159.108, 175.605 157.309, 175.335 155.532, 175.047 153.776, 174.743 152.043, 174.422 150.335, 174.085 148.651, 173.731 146.994, 173.362 145.364, 172.977 143.761, 172.576 142.188, 172.160 140.645, 171.729 139.132, 171.283 137.652, 170.823 136.204, 170.348 134.789, 169.860 133.409, 169.357 132.065, 168.842 130.756, 168.313 129.484, 167.772 128.250, 167.218 127.055, 166.652 125.898, 166.075 124.781, 165.486 123.705, 164.886 122.669, 164.275 121.676, 163.654 120.724, 163.024 119.816, 162.383 118.951, 161.734 118.130, 161.075 117.354, 160.409 116.622, 159.734 115.936, 159.052 115.295, 158.363 114.701, 157.666 114.153, 156.964 113.652, 156.256 113.199, 155.542 112.792, 154.823 112.512, 154.258 "/>
    <path fill="none" stroke="rgb(0, 0, 0)" stroke-width="13.0" stroke-linecap="round" stroke-linejoin="round" d=" M 191.327, 91.747 187.980, 91.848 184.640, 92.006 181.313, 92.219 178.006, 92.488 174.726, 92.812 174.357, 92.851 171.034, 93.238 167.751, 93.680 164.515, 94.176 161.333, 94.724 158.212, 95.325 155.156, 95.976 152.174, 96.676 149.270, 97.424 146.450, 98.219 143.720, 99.058 141.086, 99.940 138.553, 100.864 137.433, 101.287 134.953, 102.271 132.587, 103.293 130.339, 104.352 128.213, 105.444 126.214, 106.569 124.955, 107.292 123.050, 108.469 121.282, 109.674 119.656, 110.905 118.416, 111.871 116.907, 113.147 115.549, 114.443 114.403, 115.610 113.178, 116.945 112.110, 118.296 111.092, 119.640 110.172, 121.022 109.320, 122.500 108.555, 123.908 107.956, 125.323 107.281, 126.923 106.847, 128.355 106.370, 130.034 106.104, 131.478 105.833, 133.209 105.739, 134.657 105.679, 136.410 105.758, 137.856 105.910, 139.603 106.162, 141.041 106.523, 142.753 106.945, 144.175 107.509, 145.823 108.098, 147.225 108.853, 148.781 109.060, 149.158 109.604, 150.156 110.538, 151.595 111.444, 152.937 112.512, 154.258 112.512, 154.259 113.592, 155.539 114.804, 156.821 116.171, 158.077 117.366, 159.174 118.862, 160.384 120.505, 161.564 121.780, 162.454 123.535, 163.582 125.428, 164.676 127.455, 165.734 128.732, 166.381 130.847, 167.381 133.085, 168.341 135.442, 169.260 137.912, 170.136 140.491, 170.967 141.605, 171.323 144.231, 172.091 146.952, 172.811 149.765, 173.482 152.662, 174.104 155.638, 174.674 158.687, 175.192 161.804, 175.656 164.981, 176.066 168.212, 176.420 171.491, 176.719 174.811, 176.961 178.166, 177.146 178.499, 177.163 181.804, 177.288 185.130, 177.356 188.469, 177.368 191.815, 177.323 195.162, 177.222 198.502, 177.064 201.829, 176.851 205.136, 176.582 208.416, 176.258 208.784, 176.219 212.108, 175.832 215.391, 175.390 218.626, 174.894 221.808, 174.346 224.930, 173.745 227.985, 173.094 230.968, 172.394 233.872, 171.646 236.692, 170.851 239.422, 170.012 242.055, 169.130 244.588, 168.206 245.709, 167.783 248.188, 166.799 250.555, 165.777 252.803, 164.718 254.929, 163.626 256.927, 162.501 258.187, 161.778 260.092, 160.601 261.859, 159.396 263.486, 158.165 264.726, 157.199 266.234, 155.923 267.593, 154.627 268.739, 153.460 269.964, 152.125 271.032, 150.774 271.714, 149.873 272.049, 149.430 272.970, 148.048 273.822, 146.570 274.587, 145.163 274.764, 144.743 275.185, 143.747 275.860, 142.147 276.294, 140.715 276.772, 139.036 277.037, 137.592 277.309, 135.861 277.402, 134.413 277.463, 132.660 277.383, 131.214 277.231, 129.467 276.980, 128.029 276.619, 126.317 276.197, 124.895 275.633, 123.247 275.044, 121.845 274.288, 120.289 273.537, 118.914 272.604, 117.475 271.698, 116.133 270.629, 114.811 269.549, 113.531 268.338, 112.249 266.971, 110.993 265.776, 109.896 264.280, 108.686 262.637, 107.506 261.362, 106.616 259.607, 105.488 257.714, 104.394 255.686, 103.336 254.409, 102.689 252.294, 101.689 250.056, 100.729 247.700, 99.810 245.230, 98.934 242.651, 98.103 241.537, 97.747 238.911, 96.980 236.189, 96.259 233.377, 95.588 230.480, 94.966 227.504, 94.396 224.455, 93.878 221.338, 93.414 218.161, 93.004 214.930, 92.650 211.651, 92.351 208.331, 92.109 204.976, 91.924 204.643, 91.907 201.338, 91.782 198.012, 91.714 194.673, 91.702 191.327, 91.747 "/>
    <path fill="none" stroke="rgb(0, 0, 0)" stroke-width="13.0" stroke-linecap="round" stroke-linejoin="round" d=" M 140.018, 134.059 139.803, 133.905 138.905, 133.178 138.749, 133.052 "/>
    <path fill="none" stroke="rgb(0, 0, 0)" stroke-width="13.0" stroke-linecap="round" stroke-linejoin="round" d=" M 142.984, 135.801 142.371, 135.481 140.979, 134.676 140.018, 134.059 139.688, 133.847 "/>
    <path fill="none" stroke="rgb(0, 0, 0)" stroke-width="13.0" stroke-linecap="round" stroke-linejoin="round" d=" M 264.726, 157.199 263.070, 158.451 261.271, 159.677 259.333, 160.875 257.258, 162.042 255.052, 163.176 252.719, 164.275 250.263, 165.336 247.689, 166.357 245.003, 167.336 242.210, 168.272 239.316, 169.162 236.326, 170.004 233.246, 170.798 230.083, 171.540 226.843, 172.231 223.533, 172.867 220.159, 173.449 216.728, 173.975 213.246, 174.443 209.722, 174.854 206.162, 175.205 202.573, 175.497 198.962, 175.729 195.338, 175.900 191.706, 176.009 188.074, 176.058 184.450, 176.045 180.841, 175.971 177.254, 175.836 173.697, 175.640 170.176, 175.384 166.699, 175.067 163.272, 174.691 159.903, 174.257 156.599, 173.764 153.365, 173.215 150.209, 172.611 147.137, 171.952 144.155, 171.240 141.269, 170.476 138.485, 169.662 135.809, 168.800 133.245, 167.891 130.799, 166.937 128.476, 165.940 126.281, 164.902 124.218, 163.825 122.292, 162.712 120.505, 161.564 "/>
    <path fill="none" stroke="rgb(0, 0, 0)" stroke-width="13.0" stroke-linecap="round" stroke-linejoin="round" d=" M 150.621, 138.815 149.651, 138.503 147.749, 137.829 145.935, 137.121 144.213, 136.382 143.005, 135.810 142.998, 135.807 142.992, 135.804 142.984, 135.801 142.585, 135.612 "/>
    <path fill="none" stroke="rgb(0, 0, 0)" stroke-width="13.0" stroke-linecap="round" stroke-linejoin="round" d=" M 179.748, 143.474 177.357, 143.342 174.674, 143.147 172.024, 142.905 169.412, 142.619 166.845, 142.288 164.326, 141.913 161.862, 141.494 159.457, 141.033 157.115, 140.531 154.843, 139.989 152.643, 139.406 150.621, 138.815 150.521, 138.786 "/>
    <path fill="none" stroke="rgb(0, 0, 0)" stroke-width="13.0" stroke-linecap="round" stroke-linejoin="round" d=" M 205.181, 142.704 204.983, 142.723 202.391, 142.979 199.578, 143.208 196.749, 143.389 193.908, 143.523 191.061, 143.609 188.215, 143.647 185.375, 143.638 182.546, 143.580 179.748, 143.474 179.735, 143.474 "/>
    <path fill="none" stroke="rgb(0, 0, 0)" stroke-width="13.0" stroke-linecap="round" stroke-linejoin="round" d=" M 233.749, 136.267 233.105, 136.502 231.702, 137.014 229.573, 137.727 227.367, 138.405 225.088, 139.047 222.741, 139.652 220.331, 140.218 217.861, 140.744 215.339, 141.229 212.767, 141.672 210.152, 142.073 207.499, 142.430 204.983, 142.723 "/>
    <path fill="none" stroke="rgb(0, 0, 0)" stroke-width="13.0" stroke-linecap="round" stroke-linejoin="round" d=" M 241.264, 132.625 240.275, 133.182 240.150, 133.252 240.138, 133.259 240.137, 133.260 239.726, 133.491 238.090, 134.332 236.359, 135.147 234.538, 135.934 233.105, 136.502 "/>
    <path fill="none" stroke="rgb(0, 0, 0)" stroke-width="13.0" stroke-linecap="round" stroke-linejoin="round" d=" M 243.902, 130.693 243.713, 130.835 243.676, 130.863 242.988, 131.383 242.705, 131.597 241.406, 132.483 240.275, 133.182 "/>
    <path fill="none" stroke="rgb(0, 0, 0)" stroke-width="13.0" stroke-linecap="round" stroke-linejoin="round" d=" M 244.684, 129.845 244.400, 130.117 244.377, 130.138 244.330, 130.184 244.328, 130.185 244.279, 130.232 244.218, 130.291 244.210, 130.298 244.089, 130.414 243.726, 130.760 242.988, 131.383 "/>
    <path fill="none" stroke="rgb(0, 0, 0)" stroke-width="13.0" stroke-linecap="round" stroke-linejoin="round" d=" M 245.096, 129.189 244.500, 129.942 244.371, 130.106 244.355, 130.123 244.354, 130.125 244.342, 130.138 244.225, 130.265 244.218, 130.273 244.089, 130.414 "/>
    <path fill="none" stroke="rgb(0, 0, 0)" stroke-width="13.0" stroke-linecap="round" stroke-linejoin="round" d=" M 244.683, 129.625 244.362, 130.108 244.360, 130.111 244.342, 130.138 "/>
    <path fill="none" stroke="rgb(0, 0, 0)" stroke-width="13.0" stroke-linecap="round" stroke-linejoin="round" d=" M 244.703, 129.299 244.360, 130.111 "/>
    <path fill="none" stroke="rgb(0, 0, 0)" stroke-width="13.0" stroke-linecap="round" stroke-linejoin="round" d=" M 244.299, 130.003 244.218, 130.273 "/>
    <path fill="none" stroke="rgb(0, 0, 0)" stroke-width="13.0" stroke-linecap="round" stroke-linejoin="round" d=" M 138.540, 132.793 137.975, 131.955 "/>
    <path fill="none" stroke="rgb(0, 0, 0)" stroke-width="13.0" stroke-linecap="round" stroke-linejoin="round" d=" M 138.632, 132.890 138.428, 132.515 "/>
    <path fill="none" stroke="rgb(0, 0, 0)" stroke-width="13.0" stroke-linecap="round" stroke-linejoin="round" d=" M 138.905, 133.178 138.632, 132.890 138.585, 132.840 138.540, 132.793 138.468, 132.716 138.192, 132.424 "/>
    <path fill="none" stroke="rgb(0, 0, 0)" stroke-width="13.0" stroke-linecap="round" stroke-linejoin="round" d=" M 142.998, 135.807 143.137, 135.721 "/>
  </g>
</svg>
