<?xml version="1.0" encoding="utf-8" ?>
<svg xmlns="http://www.w3.org/2000/svg" version="1.1" width="400" height="400" viewBox="0 0 400 400">
  <g>
    <path fill="none" stroke="rgb(0, 0, 0)" stroke-width="13.0" stroke-linecap="round" stroke-linejoin="round" d=" M 126.363, 75.760 120.804, 84.042 120.490, 84.524 120.227, 85.011 120.017, 85.502 119.859, 85.996 117.741, 93.000 117.633, 93.507 117.580, 94.017 117.108, 104.006 116.636, 113.995 116.164, 123.984 115.692, 133.972 115.220, 143.961 114.748, 153.950 114.276, 163.939 113.804, 173.928 113.332, 183.917 113.017, 190.604 113.017, 191.116 113.070, 191.631 113.178, 192.148 114.690, 197.161 114.848, 197.670 115.058, 198.179 115.321, 198.690 115.636, 199.201 116.003, 199.713 116.422, 200.224 116.892, 200.736 117.413, 201.247 117.986, 201.757 118.609, 202.265 126.533, 208.364 126.929, 208.669 127.533, 209.124 128.181, 209.577 128.873, 210.028 129.610, 210.477 130.389, 210.924 131.212, 211.368 132.077, 211.809 132.984, 212.247 133.932, 212.681 134.921, 213.112 135.950, 213.539 137.019, 213.961 138.127, 214.379 139.273, 214.792 140.456, 215.200 141.677, 215.603 142.933, 216.000 144.225, 216.391 145.552, 216.777 146.912, 217.156 148.305, 217.529 149.731, 217.895 151.187, 218.255 152.675, 218.607 154.191, 218.952 155.736, 219.289 157.309, 219.619 158.909, 219.941 160.534, 220.254 162.184, 220.560 163.858, 220.856 165.555, 221.145 167.273, 221.424 169.012, 221.694 170.771, 221.955 172.548, 222.207 174.343, 222.449 176.154, 222.682 177.981, 222.905 179.822, 223.118 181.676, 223.321 183.542, 223.514 185.419, 223.696 187.306, 223.868 189.201, 224.030 191.104, 224.181 193.014, 224.322 194.928, 224.451 196.847, 224.570 198.768, 224.678 200.691, 224.775 202.615, 224.861 204.538, 224.936 206.460, 224.999 208.378, 225.052 210.293, 225.093 212.202, 225.123 214.105, 225.142 216.001, 225.150 217.887, 225.146 219.764, 225.131 221.630, 225.105 223.485, 225.068 225.325, 225.019 227.152, 224.960 228.963, 224.889 230.758, 224.807 232.536, 224.714 234.294, 224.610 236.033, 224.495 237.752, 224.369 239.448, 224.232 241.122, 224.085 242.772, 223.927 244.398, 223.758 245.997, 223.580 247.570, 223.390 249.115, 223.191 250.632, 222.981 252.119, 222.762 253.575, 222.533 255.001, 222.294 256.394, 222.045 257.754, 221.788 259.081, 221.521 260.373, 221.244 261.629, 220.959 262.850, 220.666 264.033, 220.363 265.179, 220.053 266.287, 219.734 267.356, 219.407 268.385, 219.072 269.374, 218.730 270.322, 218.380 271.229, 218.023 272.094, 217.660 272.916, 217.289 273.696, 216.912 274.432, 216.529 275.125, 216.139 275.773, 215.744 284.237, 210.419 284.653, 210.158 285.326, 209.710 285.949, 209.257 286.521, 208.798 287.043, 208.334 287.513, 207.865 287.932, 207.390 288.298, 206.912 288.613, 206.429 288.876, 205.941 289.086, 205.451 291.064, 200.603 291.225, 200.099 291.333, 199.592 291.386, 199.082 291.858, 189.093 292.330, 179.104 292.802, 169.115 293.274, 159.126 293.746, 149.137 294.218, 139.148 294.690, 129.160 295.162, 119.171 295.634, 109.182 295.950, 102.495 295.950, 101.982 295.896, 101.468 294.447, 94.294 294.342, 93.788 294.184, 93.280 293.974, 92.770 293.711, 92.260 288.900, 83.385 "/>
    <path fill="none" stroke="rgb(0, 0, 0)" stroke-width="13.0" stroke-linecap="round" stroke-linejoin="round" d=" M 288.147, 84.278 288.090, 84.543 287.945, 84.998 287.751, 85.451 287.509, 85.900 287.219, 86.345 286.880, 86.786 286.495, 87.224 286.061, 87.656 285.580, 88.084 285.053, 88.507 284.479, 88.925 283.858, 89.337 283.192, 89.744 282.480, 90.144 281.723, 90.538 280.921, 90.926 280.075, 91.307 279.186, 91.681 278.253, 92.048 277.278, 92.408 276.261, 92.760 275.203, 93.104 274.104, 93.440 272.964, 93.768 271.786, 94.087 270.569, 94.398 269.314, 94.700 268.022, 94.994 266.693, 95.278 266.283, 95.360 265.329, 95.552 263.930, 95.817 262.497, 96.073 261.032, 96.318 259.534, 96.554 258.004, 96.780 256.445, 96.995 254.856, 97.200 253.238, 97.395 251.594, 97.579 249.922, 97.752 248.225, 97.914 246.504, 98.066 244.759, 98.206 242.992, 98.336 241.204, 98.454 239.395, 98.561 237.568, 98.657 235.722, 98.741 233.859, 98.814 231.981, 98.875 230.088, 98.925 228.181, 98.964 226.262, 98.991 224.332, 99.006 222.392, 99.010 220.443, 99.002 218.486, 98.982 216.522, 98.952 214.553, 98.909 212.581, 98.855 210.605, 98.789 208.627, 98.713 206.649, 98.624 204.671, 98.524 202.695, 98.414 200.722, 98.291 198.753, 98.158 196.790, 98.014 194.833, 97.858 192.884, 97.692 190.944, 97.515 189.013, 97.327 187.094, 97.129 185.188, 96.920 183.295, 96.701 181.416, 96.472 179.553, 96.233 177.708, 95.984 175.880, 95.725 174.071, 95.456 172.283, 95.178 170.516, 94.891 168.771, 94.595 167.050, 94.289 165.353, 93.975 163.682, 93.653 162.037, 93.322 160.419, 92.983 158.830, 92.636 157.271, 92.281 155.742, 91.919 154.244, 91.550 152.778, 91.173 151.345, 90.790 149.946, 90.400 148.582, 90.003 147.454, 89.661 147.253, 89.600 145.961, 89.192 144.706, 88.778 143.489, 88.358 142.311, 87.933 141.171, 87.504 140.072, 87.069 139.014, 86.631 137.997, 86.188 137.022, 85.741 136.089, 85.291 135.200, 84.837 134.354, 84.381 133.552, 83.921 132.795, 83.460 132.083, 82.995 131.417, 82.530 130.796, 82.062 130.222, 81.593 129.694, 81.123 129.213, 80.652 128.780, 80.180 128.394, 79.709 128.056, 79.237 127.765, 78.766 127.523, 78.295 127.329, 77.826 127.184, 77.357 127.087, 76.890 127.075, 76.776 "/>
    <path fill="none" stroke="rgb(0, 0, 0)" stroke-width="13.0" stroke-linecap="round" stroke-linejoin="round" d=" M 266.283, 95.360 266.335, 95.347 268.329, 94.807 269.788, 94.404 271.703, 93.825 273.488, 93.221 275.141, 92.592 276.650, 91.948 278.199, 91.283 279.606, 90.596 280.868, 89.889 282.369, 89.012 283.506, 88.271 284.910, 87.204 285.911, 86.432 286.755, 85.643 288.052, 84.389 288.147, 84.278 288.747, 83.572 288.900, 83.385 289.897, 82.164 290.436, 81.322 291.420, 79.779 292.218, 78.134 292.598, 77.263 293.204, 75.529 293.415, 74.642 293.817, 72.846 294.010, 71.016 294.049, 70.115 294.029, 68.275 293.798, 66.449 293.665, 65.546 293.226, 63.763 292.923, 62.860 292.283, 61.147 291.449, 59.519 290.986, 58.630 289.974, 57.120 289.352, 56.241 288.180, 54.871 287.408, 54.006 286.478, 53.143 285.181, 51.949 284.114, 51.104 282.703, 50.091 281.508, 49.268 280.166, 48.451 278.680, 47.643 277.240, 46.861 275.649, 46.080 273.923, 45.310 272.066, 44.554 270.653, 44.015 268.715, 43.290 266.656, 42.581 264.481, 41.889 262.195, 41.215 259.801, 40.561 257.304, 39.928 254.711, 39.318 252.025, 38.731 250.999, 38.523 248.294, 37.974 245.510, 37.451 242.652, 36.955 239.727, 36.486 236.739, 36.045 233.696, 35.633 230.603, 35.251 227.466, 34.901 224.292, 34.581 221.088, 34.294 217.859, 34.039 214.612, 33.818 211.354, 33.631 208.091, 33.477 204.829, 33.358 201.577, 33.274 198.339, 33.224 195.122, 33.209 191.934, 33.229 188.779, 33.284 185.666, 33.374 182.599, 33.498 179.586, 33.657 176.632, 33.849 173.743, 34.076 170.924, 34.335 169.949, 34.439 167.139, 34.738 164.413, 35.070 161.777, 35.435 159.236, 35.831 156.796, 36.257 154.460, 36.714 152.234, 37.199 150.122, 37.712 148.128, 38.252 146.669, 38.655 144.754, 39.234 142.969, 39.839 141.316, 40.467 139.807, 41.111 138.258, 41.776 136.851, 42.463 135.589, 43.171 134.088, 44.047 132.951, 44.788 131.547, 45.855 130.546, 46.627 129.702, 47.417 128.405, 48.670 127.710, 49.487 126.560, 50.896 126.021, 51.737 125.037, 53.280 124.239, 54.926 123.859, 55.796 123.253, 57.530 123.042, 58.417 122.640, 60.213 122.447, 62.044 122.408, 62.944 122.428, 64.784 122.659, 66.610 122.792, 67.513 123.231, 69.296 123.534, 70.199 124.174, 71.913 125.008, 73.541 125.471, 74.429 126.363, 75.760 126.483, 75.940 127.075, 76.776 127.105, 76.818 128.277, 78.188 129.049, 79.053 129.979, 79.917 131.276, 81.111 132.343, 81.955 133.754, 82.969 134.949, 83.792 136.291, 84.608 137.777, 85.416 139.217, 86.199 140.808, 86.980 142.534, 87.749 144.391, 88.506 145.804, 89.044 147.454, 89.661 "/>
    <path fill="none" stroke="rgb(0, 0, 0)" stroke-width="13.0" stroke-linecap="round" stroke-linejoin="round" d=" M 284.910, 87.204 283.753, 87.959 282.443, 88.693 280.983, 89.406 279.375, 90.096 277.622, 90.762 275.729, 91.403 273.699, 92.017 271.535, 92.603 269.243, 93.160 266.828, 93.687 264.293, 94.182 261.644, 94.645 258.886, 95.075 256.025, 95.470 253.067, 95.831 250.017, 96.156 246.882, 96.444 243.669, 96.696 240.382, 96.910 237.030, 97.087 233.619, 97.225 230.156, 97.325 226.647, 97.386 223.100, 97.408 219.522, 97.392 215.920, 97.336 212.302, 97.242 208.674, 97.110 205.044, 96.939 201.420, 96.730 197.808, 96.484 194.216, 96.201 190.651, 95.882 187.121, 95.526 183.632, 95.136 180.191, 94.712 176.806, 94.254 173.483, 93.763 170.229, 93.241 167.050, 92.689 163.953, 92.107 160.944, 91.497 158.029, 90.860 155.214, 90.198 152.505, 89.511 149.907, 88.802 147.425, 88.070 145.065, 87.319 142.831, 86.549 140.727, 85.763 138.758, 84.960 136.928, 84.144 135.241, 83.316 133.699, 82.478 132.306, 81.631 131.065, 80.776 129.979, 79.917 "/>
    <path fill="none" stroke="rgb(0, 0, 0)" stroke-width="13.0" stroke-linecap="round" stroke-linejoin="round" d=" M 172.285, 61.527 171.331, 61.318 170.046, 61.038 167.840, 60.518 165.939, 60.036 165.717, 59.980 163.681, 59.424 161.736, 58.851 159.886, 58.262 158.135, 57.659 157.591, 57.455 156.486, 57.042 "/>
    <path fill="none" stroke="rgb(0, 0, 0)" stroke-width="13.0" stroke-linecap="round" stroke-linejoin="round" d=" M 245.573, 64.821 245.535, 64.826 244.537, 64.932 243.115, 65.083 240.588, 65.316 237.997, 65.519 235.347, 65.692 232.645, 65.834 229.895, 65.945 227.103, 66.026 224.274, 66.075 221.414, 66.093 218.530, 66.080 215.626, 66.035 212.709, 65.960 209.784, 65.853 206.858, 65.715 203.936, 65.547 201.024, 65.348 198.129, 65.120 195.255, 64.863 192.409, 64.576 189.596, 64.262 186.822, 63.919 184.093, 63.550 181.414, 63.155 178.790, 62.734 176.227, 62.289 173.731, 61.820 172.285, 61.527 171.305, 61.328 "/>
    <path fill="none" stroke="rgb(0, 0, 0)" stroke-width="13.0" stroke-linecap="round" stroke-linejoin="round" d=" M 260.699, 61.944 259.505, 62.268 259.004, 62.403 257.208, 62.840 255.314, 63.253 253.328, 63.641 251.252, 64.004 250.942, 64.052 249.090, 64.340 246.848, 64.650 245.483, 64.817 244.537, 64.932 "/>
  </g>
</svg>
