<?xml version="1.0" encoding="utf-8" ?>
<svg xmlns="http://www.w3.org/2000/svg" version="1.1" width="400" height="400" viewBox="0 0 400 400">
  <g>
    <path fill="none" stroke="rgb(0, 0, 0)" stroke-width="13.0" stroke-linecap="round" stroke-linejoin="round" d=" M 98.902, 137.480 97.245, 140.481 96.800, 141.307 96.406, 142.134 96.064, 142.962 95.774, 143.789 95.537, 144.615 95.351, 145.441 94.050, 152.252 93.915, 153.093 93.833, 153.931 93.804, 154.766 93.830, 155.599 94.535, 165.574 95.241, 175.549 95.946, 185.524 96.652, 195.499 97.357, 205.474 98.062, 215.449 98.768, 225.424 99.473, 235.399 100.179, 245.374 100.320, 247.370 100.399, 248.198 100.532, 249.023 100.718, 249.842 100.957, 250.656 101.250, 251.465 101.596, 252.267 103.652, 256.763 104.043, 257.543 104.486, 258.316 104.980, 259.082 105.525, 259.839 106.120, 260.589 106.766, 261.329 107.462, 262.060 108.208, 262.782 109.003, 263.493 109.846, 264.193 110.737, 264.883 111.676, 265.561 112.662, 266.227 113.695, 266.881 114.773, 267.522 115.896, 268.151 117.064, 268.766 125.039, 272.722 126.125, 273.261 127.249, 273.787 128.412, 274.300 129.612, 274.800 130.848, 275.287 132.120, 275.759 133.427, 276.217 134.768, 276.661 136.143, 277.090 137.550, 277.504 138.988, 277.902 140.458, 278.286 141.958, 278.653 143.486, 279.005 145.043, 279.341 146.627, 279.660 148.237, 279.962 149.872, 280.248 151.532, 280.517 153.215, 280.769 154.920, 281.004 156.646, 281.221 158.393, 281.421 160.159, 281.604 161.943, 281.768 163.743, 281.915 165.560, 282.044 167.392, 282.155 169.237, 282.248 171.095, 282.323 172.964, 282.380 174.844, 282.418 176.733, 282.439 178.630, 282.441 180.534, 282.425 182.444, 282.391 184.358, 282.338 186.276, 282.268 188.197, 282.179 190.118, 282.072 192.040, 281.947 193.960, 281.805 195.878, 281.644 197.793, 281.466 199.703, 281.270 201.608, 281.057 203.505, 280.826 205.395, 280.578 207.275, 280.313 209.145, 280.031 211.003, 279.733 212.849, 279.417 214.682, 279.086 216.499, 278.738 218.301, 278.374 220.086, 277.995 221.853, 277.599 223.600, 277.189 225.328, 276.764 227.034, 276.323 228.718, 275.869 230.379, 275.400 232.016, 274.917 233.628, 274.420 235.213, 273.910 236.771, 273.387 238.301, 272.851 239.802, 272.303 241.274, 271.742 242.714, 271.170 244.123, 270.586 245.499, 269.992 246.842, 269.386 248.151, 268.771 249.425, 268.145 250.663, 267.510 251.865, 266.865 253.030, 266.212 254.156, 265.550 255.245, 264.880 256.294, 264.203 257.303, 263.518 264.613, 258.498 265.694, 257.727 266.729, 256.948 267.718, 256.163 268.659, 255.372 269.553, 254.575 270.399, 253.772 271.197, 252.965 271.945, 252.154 272.644, 251.339 273.292, 250.520 273.891, 249.699 274.439, 248.876 274.935, 248.051 275.381, 247.224 275.775, 246.397 276.116, 245.569 276.406, 244.741 277.808, 240.005 278.050, 239.162 278.240, 238.320 278.375, 237.479 278.457, 236.641 278.485, 235.806 278.460, 234.973 277.755, 224.998 277.049, 215.023 276.344, 205.048 275.638, 195.073 274.933, 185.098 274.227, 175.123 273.522, 165.148 272.816, 155.173 272.111, 145.198 271.970, 143.202 271.891, 142.374 271.758, 141.549 271.572, 140.730 271.332, 139.915 269.084, 133.351 268.797, 132.558 268.458, 131.772 268.067, 130.992 267.625, 130.220 267.131, 129.454 266.586, 128.697 264.341, 125.717 "/>
    <path fill="none" stroke="rgb(0, 0, 0)" stroke-width="13.0" stroke-linecap="round" stroke-linejoin="round" d=" M 261.421, 131.213 261.298, 131.566 260.982, 132.329 260.619, 133.091 260.209, 133.853 259.751, 134.614 259.246, 135.373 258.694, 136.130 258.096, 136.884 257.452, 137.636 256.762, 138.384 256.027, 139.128 255.247, 139.867 254.423, 140.602 253.555, 141.331 252.644, 142.055 251.690, 142.773 250.694, 143.484 249.656, 144.188 248.577, 144.885 247.458, 145.573 246.299, 146.254 245.102, 146.926 243.866, 147.588 242.593, 148.242 241.283, 148.885 239.937, 149.518 238.556, 150.141 237.140, 150.752 235.692, 151.352 234.210, 151.941 232.697, 152.517 231.154, 153.081 229.580, 153.632 227.978, 154.170 226.348, 154.694 224.690, 155.205 223.007, 155.702 221.299, 156.184 219.567, 156.652 217.813, 157.105 216.036, 157.542 214.239, 157.964 212.422, 158.370 210.587, 158.761 208.734, 159.135 206.865, 159.493 204.980, 159.834 203.082, 160.158 201.171, 160.465 199.248, 160.755 197.314, 161.028 195.371, 161.283 193.420, 161.520 191.462, 161.739 189.497, 161.940 187.528, 162.124 185.556, 162.289 183.581, 162.435 181.605, 162.564 179.629, 162.673 177.654, 162.765 175.682, 162.837 173.713, 162.891 171.749, 162.926 169.791, 162.943 167.840, 162.941 165.898, 162.920 163.965, 162.880 162.042, 162.822 160.132, 162.745 158.234, 162.649 156.351, 162.535 154.483, 162.402 152.631, 162.251 150.796, 162.082 148.980, 161.894 147.184, 161.689 145.409, 161.465 143.656, 161.224 141.925, 160.965 140.218, 160.688 138.536, 160.394 136.881, 160.083 135.252, 159.755 133.651, 159.410 132.079, 159.048 130.537, 158.670 129.026, 158.276 127.546, 157.866 126.100, 157.440 124.686, 156.999 123.307, 156.543 121.963, 156.071 120.655, 155.586 119.384, 155.086 118.150, 154.572 116.954, 154.044 115.798, 153.503 114.681, 152.949 113.604, 152.382 112.569, 151.803 111.575, 151.212 110.623, 150.609 109.714, 149.995 108.849, 149.370 108.027, 148.734 107.249, 148.088 106.517, 147.433 105.830, 146.768 105.188, 146.094 104.592, 145.411 104.043, 144.721 103.541, 144.022 103.086, 143.316 102.683, 142.613 "/>
    <path fill="none" stroke="rgb(0, 0, 0)" stroke-width="13.0" stroke-linecap="round" stroke-linejoin="round" d=" M 179.742, 76.164 176.402, 76.394 173.068, 76.680 169.748, 77.023 166.448, 77.421 166.184, 77.453 162.834, 77.917 159.518, 78.435 156.242, 79.007 153.014, 79.632 149.839, 80.309 146.725, 81.036 143.677, 81.811 140.702, 82.634 137.806, 83.502 134.994, 84.414 132.272, 85.368 129.645, 86.362 127.120, 87.394 126.038, 87.852 123.566, 88.942 121.207, 90.068 118.966, 91.225 116.848, 92.413 114.856, 93.628 113.643, 94.393 111.745, 95.657 109.985, 96.945 108.365, 98.253 107.179, 99.260 105.677, 100.609 104.325, 101.974 103.239, 103.179 102.020, 104.578 100.959, 105.987 100.006, 107.364 99.092, 108.799 98.341, 110.238 97.550, 111.759 96.957, 113.216 96.355, 114.836 95.926, 116.303 95.524, 117.996 95.264, 119.468 95.070, 121.204 94.981, 122.674 94.998, 124.425 95.082, 125.886 95.311, 127.622 95.567, 129.069 96.004, 130.761 96.430, 132.186 97.067, 133.807 97.660, 135.205 98.486, 136.727 98.902, 137.480 99.240, 138.090 100.159, 139.430 101.148, 140.813 102.219, 142.112 102.683, 142.613 103.360, 143.345 104.574, 144.597 105.943, 145.818 107.193, 146.862 108.690, 148.031 110.334, 149.164 111.657, 149.999 113.413, 151.074 115.307, 152.111 117.334, 153.105 118.652, 153.696 120.767, 154.628 123.004, 155.516 125.359, 156.358 127.828, 157.151 130.405, 157.895 131.554, 158.199 134.177, 158.877 136.896, 159.503 139.706, 160.076 142.600, 160.596 145.573, 161.060 148.618, 161.469 151.731, 161.820 154.903, 162.115 158.130, 162.351 161.405, 162.529 164.720, 162.648 168.069, 162.708 171.446, 162.708 174.844, 162.650 175.049, 162.646 178.382, 162.531 181.722, 162.358 185.063, 162.128 188.396, 161.842 191.717, 161.499 195.017, 161.101 195.280, 161.069 198.631, 160.606 201.947, 160.087 205.223, 159.515 208.451, 158.890 211.625, 158.213 214.740, 157.486 217.787, 156.711 220.763, 155.888 223.659, 155.020 226.471, 154.108 229.193, 153.154 231.819, 152.160 234.345, 151.129 235.427, 150.671 237.899, 149.580 240.258, 148.454 242.499, 147.297 244.617, 146.109 246.608, 144.894 247.822, 144.130 249.720, 142.865 251.480, 141.577 253.100, 140.269 254.286, 139.262 255.788, 137.913 257.140, 136.548 258.226, 135.343 259.445, 133.944 260.506, 132.535 261.421, 131.213 261.459, 131.158 262.373, 129.723 263.124, 128.284 263.915, 126.763 264.341, 125.717 264.508, 125.307 265.110, 123.687 265.538, 122.219 265.941, 120.527 266.201, 119.054 266.395, 117.318 266.484, 115.848 266.466, 114.098 266.383, 112.636 266.153, 110.900 265.898, 109.453 265.461, 107.761 265.034, 106.336 264.397, 104.715 263.805, 103.318 262.979, 101.796 262.225, 100.432 261.305, 99.092 260.316, 97.709 259.245, 96.411 258.105, 95.177 256.891, 93.925 255.522, 92.704 254.272, 91.660 252.775, 90.491 251.131, 89.358 249.808, 88.524 248.051, 87.448 246.158, 86.412 244.131, 85.417 242.812, 84.826 240.698, 83.894 238.461, 83.006 236.105, 82.164 233.637, 81.371 231.060, 80.628 229.911, 80.323 227.288, 79.645 224.569, 79.019 221.759, 78.446 218.865, 77.926 215.892, 77.462 212.846, 77.053 209.734, 76.702 206.561, 76.407 203.335, 76.171 200.060, 75.993 196.745, 75.874 193.396, 75.814 190.019, 75.814 186.621, 75.873 186.416, 75.876 183.083, 75.991 179.742, 76.164 "/>
    <path fill="none" stroke="rgb(0, 0, 0)" stroke-width="13.0" stroke-linecap="round" stroke-linejoin="round" d=" M 128.179, 120.436 127.959, 120.240 127.947, 120.230 127.868, 120.159 127.866, 120.157 127.826, 120.116 127.807, 120.097 127.671, 119.956 127.042, 119.307 "/>
    <path fill="none" stroke="rgb(0, 0, 0)" stroke-width="13.0" stroke-linecap="round" stroke-linejoin="round" d=" M 129.443, 121.346 128.602, 120.766 128.179, 120.436 127.975, 120.277 127.962, 120.267 127.948, 120.256 127.870, 120.195 127.854, 120.183 127.846, 120.176 127.807, 120.146 127.546, 119.942 "/>
    <path fill="none" stroke="rgb(0, 0, 0)" stroke-width="13.0" stroke-linecap="round" stroke-linejoin="round" d=" M 132.430, 122.925 131.987, 122.708 131.963, 122.696 131.958, 122.694 131.122, 122.284 129.730, 121.522 129.443, 121.346 128.663, 120.868 128.630, 120.848 128.438, 120.730 "/>
    <path fill="none" stroke="rgb(0, 0, 0)" stroke-width="13.0" stroke-linecap="round" stroke-linejoin="round" d=" M 254.286, 139.262 252.638, 140.593 250.846, 141.904 248.915, 143.191 246.848, 144.452 244.649, 145.684 242.324, 146.886 239.876, 148.054 237.310, 149.186 234.632, 150.280 231.847, 151.334 228.960, 152.345 225.979, 153.312 222.907, 154.233 219.752, 155.105 216.520, 155.928 213.218, 156.699 209.852, 157.416 206.428, 158.079 202.955, 158.686 199.438, 159.235 195.885, 159.727 192.304, 160.159 188.700, 160.531 185.082, 160.841 181.457, 161.091 177.832, 161.278 174.215, 161.403 170.612, 161.465 167.031, 161.465 163.479, 161.401 159.964, 161.275 156.491, 161.086 153.070, 160.836 149.705, 160.524 146.405, 160.151 143.175, 159.717 140.023, 159.225 136.954, 158.674 133.975, 158.066 131.091, 157.402 128.309, 156.684 125.635, 155.912 123.072, 155.089 120.628, 154.215 118.306, 153.294 116.111, 152.326 114.048, 151.313 112.121, 150.259 110.334, 149.164 "/>
    <path fill="none" stroke="rgb(0, 0, 0)" stroke-width="13.0" stroke-linecap="round" stroke-linejoin="round" d=" M 140.071, 125.579 138.358, 125.084 136.457, 124.474 134.644, 123.826 132.922, 123.143 132.430, 122.925 131.967, 122.721 131.941, 122.710 131.936, 122.708 131.294, 122.425 "/>
    <path fill="none" stroke="rgb(0, 0, 0)" stroke-width="13.0" stroke-linecap="round" stroke-linejoin="round" d=" M 173.981, 128.952 171.433, 128.996 168.704, 128.996 165.997, 128.947 163.318, 128.851 160.671, 128.707 158.064, 128.517 155.500, 128.279 152.984, 127.994 150.523, 127.664 148.120, 127.289 145.781, 126.869 143.511, 126.406 141.313, 125.900 140.071, 125.579 139.193, 125.352 "/>
    <path fill="none" stroke="rgb(0, 0, 0)" stroke-width="13.0" stroke-linecap="round" stroke-linejoin="round" d=" M 190.958, 127.639 190.740, 127.665 188.151, 127.977 185.327, 128.269 182.491, 128.512 179.650, 128.708 176.809, 128.855 173.981, 128.952 173.974, 128.952 "/>
    <path fill="none" stroke="rgb(0, 0, 0)" stroke-width="13.0" stroke-linecap="round" stroke-linejoin="round" d=" M 222.265, 119.638 221.677, 119.878 220.224, 120.472 218.102, 121.275 215.902, 122.046 213.629, 122.783 211.289, 123.484 208.884, 124.149 206.421, 124.776 203.904, 125.363 201.339, 125.910 198.730, 126.415 196.082, 126.878 193.402, 127.297 190.740, 127.665 "/>
    <path fill="none" stroke="rgb(0, 0, 0)" stroke-width="13.0" stroke-linecap="round" stroke-linejoin="round" d=" M 229.790, 115.650 229.528, 115.810 229.524, 115.812 229.502, 115.826 229.008, 116.127 228.258, 116.585 226.627, 117.499 224.902, 118.390 223.086, 119.256 221.677, 119.878 "/>
    <path fill="none" stroke="rgb(0, 0, 0)" stroke-width="13.0" stroke-linecap="round" stroke-linejoin="round" d=" M 232.458, 113.575 231.816, 114.094 231.267, 114.537 229.972, 115.484 229.502, 115.798 229.497, 115.801 229.478, 115.814 229.008, 116.127 "/>
    <path fill="none" stroke="rgb(0, 0, 0)" stroke-width="13.0" stroke-linecap="round" stroke-linejoin="round" d=" M 233.284, 112.669 233.228, 112.726 233.221, 112.733 233.208, 112.746 233.180, 112.775 233.122, 112.833 233.117, 112.838 233.115, 112.840 232.984, 112.972 232.331, 113.631 231.816, 114.094 "/>
    <path fill="none" stroke="rgb(0, 0, 0)" stroke-width="13.0" stroke-linecap="round" stroke-linejoin="round" d=" M 233.747, 111.967 233.345, 112.500 233.270, 112.599 233.260, 112.614 233.228, 112.656 233.134, 112.780 233.132, 112.784 233.026, 112.924 232.984, 112.972 "/>
    <path fill="none" stroke="rgb(0, 0, 0)" stroke-width="13.0" stroke-linecap="round" stroke-linejoin="round" d=" M 233.888, 111.456 233.395, 112.402 233.273, 112.593 233.260, 112.614 "/>
    <path fill="none" stroke="rgb(0, 0, 0)" stroke-width="13.0" stroke-linecap="round" stroke-linejoin="round" d=" M 233.476, 112.047 233.228, 112.656 "/>
    <path fill="none" stroke="rgb(0, 0, 0)" stroke-width="13.0" stroke-linecap="round" stroke-linejoin="round" d=" M 233.142, 112.749 233.132, 112.784 "/>
    <path fill="none" stroke="rgb(0, 0, 0)" stroke-width="13.0" stroke-linecap="round" stroke-linejoin="round" d=" M 228.852, 115.507 229.035, 115.597 229.478, 115.814 "/>
    <path fill="none" stroke="rgb(0, 0, 0)" stroke-width="13.0" stroke-linecap="round" stroke-linejoin="round" d=" M 127.813, 120.092 127.399, 119.343 "/>
    <path fill="none" stroke="rgb(0, 0, 0)" stroke-width="13.0" stroke-linecap="round" stroke-linejoin="round" d=" M 127.868, 120.159 127.813, 120.092 127.790, 120.064 127.479, 119.687 "/>
    <path fill="none" stroke="rgb(0, 0, 0)" stroke-width="13.0" stroke-linecap="round" stroke-linejoin="round" d=" M 127.959, 120.240 127.854, 119.992 "/>
  </g>
</svg>
