<?xml version="1.0" encoding="utf-8" ?>
<svg xmlns="http://www.w3.org/2000/svg" version="1.1" width="400" height="400" viewBox="0 0 400 400">
  <g>
    <path fill="none" stroke="rgb(0, 0, 0)" stroke-width="13.0" stroke-linecap="round" stroke-linejoin="round" d=" M 145.611, 128.639 141.120, 133.806 140.634, 134.410 140.199, 135.025 139.816, 135.650 139.484, 136.285 139.203, 136.930 136.369, 143.469 136.136, 144.137 135.955, 144.813 135.828, 145.499 134.274, 155.377 132.720, 165.256 131.166, 175.134 129.612, 185.013 128.058, 194.891 126.505, 204.770 124.951, 214.649 123.397, 224.527 121.843, 234.406 121.177, 238.637 121.103, 239.331 121.082, 240.033 121.114, 240.742 121.199, 241.458 121.337, 242.181 122.313, 247.165 122.500, 247.880 122.740, 248.600 123.031, 249.325 123.374, 250.055 123.768, 250.790 124.213, 251.528 124.709, 252.270 125.256, 253.015 125.853, 253.762 126.500, 254.511 127.196, 255.262 127.941, 256.014 128.735, 256.767 129.577, 257.520 136.758, 263.908 137.555, 264.583 138.395, 265.257 139.276, 265.930 140.199, 266.602 141.162, 267.272 142.166, 267.940 143.208, 268.606 144.290, 269.268 145.410, 269.927 146.567, 270.582 147.761, 271.233 148.991, 271.879 150.256, 272.521 151.556, 273.157 152.890, 273.787 154.256, 274.411 155.655, 275.029 157.085, 275.639 158.546, 276.243 160.036, 276.839 161.554, 277.427 163.101, 278.006 164.674, 278.577 166.274, 279.139 167.898, 279.692 169.546, 280.235 171.217, 280.768 172.910, 281.290 174.624, 281.802 176.357, 282.303 178.110, 282.793 179.880, 283.271 181.667, 283.738 183.470, 284.192 185.287, 284.634 187.118, 285.063 188.961, 285.479 190.816, 285.882 192.680, 286.272 194.554, 286.648 196.435, 287.010 198.323, 287.358 200.217, 287.692 202.115, 288.011 204.016, 288.316 205.920, 288.606 207.825, 288.880 209.729, 289.140 211.633, 289.384 213.533, 289.613 215.431, 289.825 217.323, 290.023 219.210, 290.204 221.090, 290.369 222.962, 290.518 224.824, 290.651 226.676, 290.768 228.517, 290.868 230.345, 290.952 232.160, 291.019 233.959, 291.070 235.743, 291.104 237.510, 291.122 239.259, 291.123 240.988, 291.108 242.698, 291.076 244.387, 291.028 246.053, 290.963 247.696, 290.881 249.315, 290.783 250.910, 290.669 252.477, 290.539 254.018, 290.392 255.531, 290.229 257.016, 290.050 258.470, 289.856 259.894, 289.645 261.286, 289.419 262.646, 289.177 263.973, 288.920 265.266, 288.647 266.524, 288.360 267.747, 288.057 268.933, 287.740 270.083, 287.409 271.195, 287.063 272.268, 286.702 273.303, 286.328 274.298, 285.941 275.253, 285.540 284.078, 281.651 285.098, 281.189 286.072, 280.713 286.999, 280.222 287.879, 279.717 288.711, 279.199 289.496, 278.667 290.231, 278.123 290.917, 277.566 291.554, 276.996 292.141, 276.415 292.677, 275.822 293.163, 275.218 293.598, 274.603 293.981, 273.978 296.442, 269.530 296.781, 268.882 297.067, 268.224 297.301, 267.556 297.481, 266.880 297.609, 266.194 299.163, 256.316 300.716, 246.437 302.270, 236.558 303.824, 226.680 305.378, 216.801 306.932, 206.923 308.486, 197.044 310.040, 187.166 311.594, 177.287 312.259, 173.056 312.334, 172.362 312.355, 171.660 312.323, 170.951 311.634, 163.862 311.550, 163.160 311.415, 162.452 311.227, 161.738 310.988, 161.018 310.697, 160.293 308.065, 154.128 "/>
    <path fill="none" stroke="rgb(0, 0, 0)" stroke-width="13.0" stroke-linecap="round" stroke-linejoin="round" d=" M 305.672, 156.635 305.513, 156.940 305.159, 157.516 304.758, 158.083 304.310, 158.640 303.816, 159.186 303.275, 159.722 302.688, 160.247 302.056, 160.760 301.378, 161.262 300.655, 161.752 299.888, 162.230 299.076, 162.695 298.222, 163.148 297.324, 163.587 296.384, 164.013 295.402, 164.426 294.378, 164.824 293.314, 165.209 292.210, 165.579 291.067, 165.935 289.885, 166.276 288.664, 166.602 287.407, 166.913 286.113, 167.209 284.784, 167.489 283.419, 167.754 282.021, 168.002 280.589, 168.235 279.125, 168.451 277.629, 168.652 276.103, 168.836 274.547, 169.003 272.962, 169.154 271.350, 169.288 269.711, 169.406 268.046, 169.506 266.356, 169.590 264.642, 169.657 262.906, 169.707 261.148, 169.739 259.369, 169.755 257.571, 169.754 256.924, 169.747 255.754, 169.736 253.919, 169.700 252.069, 169.648 250.203, 169.579 248.323, 169.492 246.430, 169.389 244.525, 169.269 242.610, 169.133 240.685, 168.979 238.752, 168.810 236.812, 168.623 234.866, 168.420 232.915, 168.201 230.960, 167.966 229.003, 167.715 227.044, 167.449 225.085, 167.166 223.128, 166.868 221.172, 166.555 219.220, 166.227 217.273, 165.883 215.331, 165.525 213.397, 165.153 211.470, 164.766 209.553, 164.366 207.646, 163.951 205.751, 163.523 203.868, 163.082 201.999, 162.627 200.145, 162.160 198.308, 161.681 196.487, 161.189 194.685, 160.685 192.902, 160.170 191.139, 159.643 189.399, 159.106 188.535, 158.831 187.680, 158.558 185.985, 158.000 184.315, 157.431 182.671, 156.854 181.053, 156.266 179.462, 155.670 177.900, 155.066 176.368, 154.453 174.866, 153.832 173.396, 153.204 171.957, 152.569 170.552, 151.927 169.180, 151.279 167.844, 150.625 166.542, 149.966 165.278, 149.301 164.050, 148.632 162.860, 147.958 161.708, 147.280 160.596, 146.599 159.524, 145.915 158.492, 145.228 157.502, 144.539 156.553, 143.848 155.646, 143.156 154.783, 142.462 153.963, 141.768 153.186, 141.074 152.455, 140.380 151.768, 139.687 151.126, 138.995 150.529, 138.304 149.979, 137.615 149.475, 136.929 149.018, 136.245 148.607, 135.564 148.244, 134.887 147.928, 134.214 147.660, 133.546 147.439, 132.882 147.266, 132.223 147.207, 131.915 "/>
    <path fill="none" stroke="rgb(0, 0, 0)" stroke-width="13.0" stroke-linecap="round" stroke-linejoin="round" d=" M 256.924, 169.747 258.659, 169.734 261.606, 169.659 264.483, 169.530 267.282, 169.350 268.346, 169.275 271.127, 169.038 273.818, 168.748 276.415, 168.405 278.911, 168.012 281.301, 167.568 283.582, 167.074 284.953, 166.741 287.166, 166.187 289.257, 165.584 291.222, 164.934 293.057, 164.238 294.531, 163.651 296.266, 162.896 297.862, 162.097 299.307, 161.289 300.785, 160.432 302.115, 159.534 303.492, 158.519 304.689, 157.566 305.672, 156.635 305.948, 156.374 307.003, 155.370 307.898, 154.329 308.065, 154.128 309.025, 152.967 309.766, 151.880 310.729, 150.382 311.310, 149.253 312.092, 147.644 312.507, 146.476 313.095, 144.781 313.478, 143.028 313.725, 141.826 313.898, 140.039 313.974, 138.812 313.935, 137.020 313.841, 135.773 313.591, 134.004 313.328, 132.744 312.872, 131.027 312.444, 129.759 311.791, 128.121 311.203, 126.851 310.365, 125.318 309.624, 124.052 308.723, 122.775 307.729, 121.392 306.687, 120.127 305.546, 118.900 304.371, 117.651 303.048, 116.400 301.580, 115.149 300.367, 114.146 298.787, 112.921 297.070, 111.701 295.221, 110.488 293.990, 109.733 292.053, 108.555 289.993, 107.390 287.814, 106.238 285.521, 105.103 283.119, 103.987 280.611, 102.892 278.004, 101.821 277.036, 101.431 274.396, 100.409 271.669, 99.413 268.860, 98.447 265.976, 97.511 263.021, 96.608 260.003, 95.739 256.926, 94.907 253.797, 94.112 250.623, 93.358 247.410, 92.644 244.164, 91.973 240.892, 91.346 237.600, 90.763 234.295, 90.228 230.984, 89.739 227.673, 89.299 224.370, 88.908 221.080, 88.568 217.810, 88.278 214.567, 88.039 211.358, 87.852 208.189, 87.717 205.065, 87.635 201.995, 87.605 198.983, 87.628 196.036, 87.704 193.160, 87.832 190.360, 88.012 189.297, 88.087 186.516, 88.324 183.824, 88.615 181.228, 88.957 178.732, 89.350 176.341, 89.794 174.061, 90.288 172.689, 90.621 170.476, 91.175 168.386, 91.778 166.421, 92.428 164.586, 93.124 163.111, 93.711 161.376, 94.466 159.781, 95.266 158.336, 96.073 156.857, 96.930 155.528, 97.828 154.150, 98.844 152.953, 99.796 151.695, 100.988 150.640, 101.992 149.745, 103.033 148.617, 104.395 147.876, 105.482 146.913, 106.980 146.333, 108.110 145.551, 109.719 145.135, 110.886 144.548, 112.581 144.165, 114.334 143.918, 115.536 143.744, 117.323 143.668, 118.550 143.707, 120.342 143.802, 121.589 144.051, 123.358 144.315, 124.618 144.771, 126.335 145.198, 127.603 145.611, 128.639 145.852, 129.242 146.439, 130.512 147.207, 131.915 147.278, 132.044 148.019, 133.311 148.920, 134.588 149.914, 135.970 150.956, 137.236 152.097, 138.463 153.271, 139.711 154.594, 140.962 156.063, 142.214 157.276, 143.217 158.856, 144.441 160.572, 145.661 162.422, 146.874 163.652, 147.629 165.590, 148.807 167.650, 149.973 169.828, 151.124 172.121, 152.259 174.524, 153.375 177.031, 154.470 179.638, 155.542 180.607, 155.931 183.247, 156.954 185.974, 157.949 188.535, 158.831 "/>
    <path fill="none" stroke="rgb(0, 0, 0)" stroke-width="13.0" stroke-linecap="round" stroke-linejoin="round" d=" M 177.865, 116.482 177.607, 116.262 176.735, 115.438 176.634, 115.342 176.593, 115.299 176.573, 115.277 176.539, 115.240 176.470, 115.167 176.463, 115.160 175.771, 114.424 "/>
    <path fill="none" stroke="rgb(0, 0, 0)" stroke-width="13.0" stroke-linecap="round" stroke-linejoin="round" d=" M 299.307, 161.289 297.683, 162.102 295.917, 162.871 294.013, 163.593 291.974, 164.268 289.803, 164.893 287.507, 165.468 285.089, 165.992 282.554, 166.463 279.907, 166.880 277.154, 167.243 274.300, 167.550 271.351, 167.802 268.312, 167.998 265.191, 168.137 261.992, 168.219 258.724, 168.244 255.391, 168.212 252.002, 168.122 248.562, 167.976 245.079, 167.773 241.560, 167.514 238.012, 167.199 234.441, 166.830 230.856, 166.405 227.263, 165.928 223.670, 165.398 220.083, 164.816 216.511, 164.184 212.960, 163.504 209.437, 162.775 205.949, 162.001 202.505, 161.182 199.109, 160.320 195.770, 159.417 192.494, 158.474 189.288, 157.494 186.157, 156.478 183.109, 155.429 180.150, 154.349 177.285, 153.239 174.520, 152.103 171.861, 150.941 169.314, 149.758 166.882, 148.554 164.572, 147.333 162.387, 146.097 160.333, 144.849 158.414, 143.590 156.632, 142.324 154.992, 141.053 153.498, 139.780 152.151, 138.506 150.956, 137.236 "/>
    <path fill="none" stroke="rgb(0, 0, 0)" stroke-width="13.0" stroke-linecap="round" stroke-linejoin="round" d=" M 181.274, 118.888 180.012, 118.061 178.691, 117.122 177.865, 116.482 177.475, 116.179 "/>
    <path fill="none" stroke="rgb(0, 0, 0)" stroke-width="13.0" stroke-linecap="round" stroke-linejoin="round" d=" M 192.512, 124.382 191.018, 123.767 188.991, 122.882 187.477, 122.179 187.050, 121.980 185.197, 121.063 183.436, 120.133 181.771, 119.191 181.274, 118.888 180.206, 118.239 "/>
    <path fill="none" stroke="rgb(0, 0, 0)" stroke-width="13.0" stroke-linecap="round" stroke-linejoin="round" d=" M 265.878, 135.657 265.129, 135.706 263.497, 135.811 261.050, 135.920 258.544, 135.984 255.982, 136.003 253.370, 135.978 250.714, 135.908 248.018, 135.794 245.289, 135.635 242.531, 135.432 239.750, 135.185 236.951, 134.895 234.141, 134.563 231.326, 134.188 228.509, 133.773 225.699, 133.317 222.899, 132.822 220.116, 132.289 217.355, 131.718 214.621, 131.111 211.922, 130.469 209.261, 129.793 206.644, 129.085 204.076, 128.346 201.563, 127.578 199.110, 126.782 196.721, 125.960 194.402, 125.113 192.512, 124.382 192.156, 124.244 "/>
    <path fill="none" stroke="rgb(0, 0, 0)" stroke-width="13.0" stroke-linecap="round" stroke-linejoin="round" d=" M 277.128, 133.954 276.842, 134.016 275.285, 134.353 273.353, 134.711 271.336, 135.029 270.166, 135.184 269.238, 135.306 267.062, 135.540 265.129, 135.706 "/>
    <path fill="none" stroke="rgb(0, 0, 0)" stroke-width="13.0" stroke-linecap="round" stroke-linejoin="round" d=" M 281.994, 132.361 281.934, 132.384 281.892, 132.400 281.023, 132.729 280.582, 132.897 279.069, 133.397 277.460, 133.861 276.842, 134.016 "/>
    <path fill="none" stroke="rgb(0, 0, 0)" stroke-width="13.0" stroke-linecap="round" stroke-linejoin="round" d=" M 282.969, 131.805 282.821, 131.879 282.771, 131.904 282.684, 131.948 282.658, 131.961 282.638, 131.971 282.578, 132.001 281.796, 132.393 281.023, 132.729 "/>
    <path fill="none" stroke="rgb(0, 0, 0)" stroke-width="13.0" stroke-linecap="round" stroke-linejoin="round" d=" M 283.504, 131.376 282.895, 131.787 282.838, 131.825 282.685, 131.929 282.659, 131.946 282.578, 132.001 "/>
    <path fill="none" stroke="rgb(0, 0, 0)" stroke-width="13.0" stroke-linecap="round" stroke-linejoin="round" d=" M 282.940, 131.744 282.838, 131.825 "/>
    <path fill="none" stroke="rgb(0, 0, 0)" stroke-width="13.0" stroke-linecap="round" stroke-linejoin="round" d=" M 282.962, 131.594 282.659, 131.946 "/>
    <path fill="none" stroke="rgb(0, 0, 0)" stroke-width="13.0" stroke-linecap="round" stroke-linejoin="round" d=" M 176.455, 115.097 176.055, 114.414 "/>
    <path fill="none" stroke="rgb(0, 0, 0)" stroke-width="13.0" stroke-linecap="round" stroke-linejoin="round" d=" M 176.558, 115.223 176.507, 115.112 "/>
    <path fill="none" stroke="rgb(0, 0, 0)" stroke-width="13.0" stroke-linecap="round" stroke-linejoin="round" d=" M 176.735, 115.438 176.558, 115.223 176.544, 115.206 176.455, 115.097 176.377, 115.003 176.176, 114.759 "/>
  </g>
</svg>
