<?xml version='1.0' encoding='ascii'?>
<svg xmlns="http://www.w3.org/2000/svg" version="1.1" width="400" height="400">
    <g id="ViewLayer_LineSet" xmlns:inkscape="http://www.inkscape.org/namespaces/inkscape" inkscape:groupmode="lineset" inkscape:label="ViewLayer_LineSet">
        <g xmlns:inkscape="http://www.inkscape.org/namespaces/inkscape" inkscape:groupmode="layer" id="strokes" inkscape:label="strokes">
            <path fill="none" stroke-width="13.0" stroke-linecap="round" stroke-opacity="1.0" stroke="rgb(0, 0, 0)" stroke-linejoin="round" d=" M 113.458, 102.629 110.334, 112.128 107.209, 121.627 104.085, 131.127 100.960, 140.626 97.835, 150.125 94.711, 159.625 91.586, 169.124 88.462, 178.623 85.337, 188.122 82.213, 197.622 79.088, 207.121 78.392, 209.236 77.725, 219.214 77.057, 229.192 76.500, 237.519 77.371, 243.480 87.122, 245.699 96.873, 247.917 106.623, 250.136 116.374, 252.355 126.125, 254.574 135.876, 256.793 145.626, 259.011 155.377, 261.230 165.128, 263.449 174.879, 265.668 184.629, 267.886 194.380, 270.105 204.131, 272.324 213.882, 274.543 223.632, 276.762 233.383, 278.980 241.478, 280.822 250.926, 277.547 260.374, 274.271 269.822, 270.995 279.271, 267.720 288.719, 264.444 298.167, 261.169 307.616, 257.893 317.064, 254.617 319.751, 253.686 321.307, 246.866 321.709, 236.874 322.111, 226.882 322.434, 218.854 320.007, 209.153 317.580, 199.452 315.153, 189.751 312.727, 180.050 310.300, 170.349 307.873, 160.648 305.446, 150.947 303.019, 141.246 300.655, 131.797 302.544, 121.977 304.433, 112.157 306.322, 102.337 308.211, 92.517 310.100, 82.697 311.989, 72.877 312.759, 68.874 309.513, 61.978 299.772, 59.718 290.031, 57.457 280.290, 55.197 270.548, 52.936 260.807, 50.676 251.066, 48.415 241.325, 46.155 231.584, 43.894 221.843, 41.633 212.102, 39.373 202.360, 37.112 192.619, 34.852 182.878, 32.591 173.137, 30.331 163.396, 28.070 153.655, 25.810 146.729, 24.202 138.129, 29.305 129.529, 34.409 120.929, 39.512 112.329, 44.615 103.729, 49.718 95.278, 54.733 93.080, 64.488 92.123, 68.738 97.450, 77.201 102.778, 85.664 108.106, 94.126 113.458, 102.629 " />
            <path fill="none" stroke-width="13.0" stroke-linecap="round" stroke-opacity="1.0" stroke="rgb(0, 0, 0)" stroke-linejoin="round" d=" M 249.062, 252.417 249.664, 244.042 252.612, 234.486 255.559, 224.931 258.507, 215.375 261.454, 205.819 264.402, 196.263 267.349, 186.708 270.297, 177.152 273.244, 167.596 276.192, 158.040 279.139, 148.485 282.087, 138.929 282.499, 137.591 277.530, 128.913 272.562, 120.235 267.593, 111.557 264.187, 105.609 265.876, 97.712 274.521, 92.685 283.165, 87.657 285.667, 86.203 " />
        </g>
    </g>
</svg>
