<?xml version='1.0' encoding='ascii'?>
<svg xmlns="http://www.w3.org/2000/svg" version="1.1" width="400" height="400">
    <g id="ViewLayer_LineSet" xmlns:inkscape="http://www.inkscape.org/namespaces/inkscape" inkscape:groupmode="lineset" inkscape:label="ViewLayer_LineSet">
        <g xmlns:inkscape="http://www.inkscape.org/namespaces/inkscape" inkscape:groupmode="layer" id="strokes" inkscape:label="strokes">
            <path fill="none" stroke-width="13.0" stroke-linecap="round" stroke-opacity="1.0" stroke="rgb(0, 0, 0)" stroke-linejoin="round" d=" M 107.264, 193.734 104.518, 203.350 101.773, 212.966 99.028, 222.581 96.283, 232.197 93.538, 241.813 90.793, 251.429 88.048, 261.045 85.303, 270.661 82.557, 280.277 79.812, 289.892 77.067, 299.508 76.241, 302.401 76.094, 312.400 75.946, 322.399 75.843, 329.324 77.105, 334.657 86.726, 337.384 96.347, 340.110 105.968, 342.837 115.590, 345.563 125.211, 348.290 134.832, 351.017 144.453, 353.743 154.074, 356.470 163.695, 359.196 173.316, 361.923 182.937, 364.649 192.558, 367.376 202.180, 370.103 211.801, 372.829 221.422, 375.556 231.043, 378.282 238.599, 380.424 247.301, 375.496 256.002, 370.567 264.703, 365.639 273.404, 360.711 282.106, 355.783 290.807, 350.854 299.508, 345.926 308.210, 340.998 316.911, 336.069 319.935, 334.357 321.197, 327.569 321.046, 317.570 320.896, 307.571 320.799, 301.104 317.316, 291.730 313.834, 282.356 310.351, 272.982 306.868, 263.608 303.385, 254.234 299.903, 244.861 296.420, 235.487 292.767, 225.656 294.268, 215.769 295.768, 205.882 297.269, 195.995 298.769, 186.108 300.270, 176.222 301.770, 166.335 302.393, 162.229 298.560, 156.662 288.950, 153.898 279.340, 151.133 269.730, 148.368 260.120, 145.604 250.509, 142.839 240.899, 140.074 231.289, 137.310 221.679, 134.545 212.068, 131.780 202.458, 129.015 192.848, 126.251 183.238, 123.486 173.627, 120.721 164.017, 117.957 154.407, 115.192 144.797, 112.427 138.329, 110.567 130.595, 116.906 122.862, 123.246 115.128, 129.586 107.395, 135.926 99.661, 142.266 91.928, 148.606 85.213, 154.110 83.418, 163.948 82.683, 167.974 89.586, 175.209 96.490, 182.443 103.393, 189.678 107.264, 193.734 " />
            <path fill="none" stroke-width="13.0" stroke-linecap="round" stroke-opacity="1.0" stroke="rgb(0, 0, 0)" stroke-linejoin="round" d=" M 245.024, 351.855 245.186, 343.871 247.754, 334.206 250.321, 324.541 252.888, 314.877 255.455, 305.212 258.023, 295.547 260.590, 285.882 263.157, 276.217 265.724, 266.552 268.292, 256.887 270.859, 247.223 273.426, 237.558 273.762, 236.292 267.148, 228.792 260.534, 221.291 253.920, 213.791 252.358, 212.020 253.675, 204.282 261.395, 197.926 269.116, 191.571 274.220, 187.369 " />
        </g>
    </g>
</svg>
