<?xml version='1.0' encoding='ascii'?>
<svg xmlns="http://www.w3.org/2000/svg" version="1.1" width="400" height="400">
    <g id="ViewLayer_LineSet" xmlns:inkscape="http://www.inkscape.org/namespaces/inkscape" inkscape:groupmode="lineset" inkscape:label="ViewLayer_LineSet">
        <g xmlns:inkscape="http://www.inkscape.org/namespaces/inkscape" inkscape:groupmode="layer" id="strokes" inkscape:label="strokes">
            <path fill="none" stroke-width="13.0" stroke-linecap="round" stroke-opacity="1.0" stroke="rgb(0, 0, 0)" stroke-linejoin="round" d=" M 111.445, 151.739 108.538, 161.307 105.631, 170.875 102.725, 180.443 99.818, 190.012 96.911, 199.580 94.005, 209.148 91.098, 218.716 88.191, 228.285 85.285, 237.853 82.378, 247.421 79.471, 256.989 77.624, 263.071 77.138, 273.059 76.653, 283.047 76.221, 291.927 77.224, 297.887 86.921, 300.329 96.618, 302.772 106.315, 305.214 116.012, 307.657 125.709, 310.099 135.406, 312.542 145.103, 314.984 154.801, 317.427 164.498, 319.869 174.195, 322.311 183.892, 324.754 193.589, 327.196 203.286, 329.639 212.983, 332.081 222.681, 334.524 232.378, 336.966 240.369, 338.979 249.526, 334.960 258.682, 330.940 267.839, 326.920 276.996, 322.901 286.152, 318.881 295.309, 314.862 304.465, 310.842 313.622, 306.823 319.866, 304.082 321.329, 297.018 321.548, 287.021 321.768, 277.023 321.954, 268.510 319.281, 258.874 316.608, 249.238 313.935, 239.602 311.262, 229.965 308.589, 220.329 305.916, 210.693 303.242, 201.057 300.569, 191.421 298.048, 182.331 299.754, 172.478 301.460, 162.624 303.166, 152.771 304.872, 142.918 306.578, 133.064 308.285, 123.211 309.379, 116.892 305.930, 110.212 296.243, 107.728 286.557, 105.243 276.870, 102.759 267.184, 100.274 257.497, 97.790 247.811, 95.306 238.124, 92.821 228.438, 90.337 218.752, 87.853 209.065, 85.368 199.379, 82.884 189.692, 80.399 180.006, 77.915 170.319, 75.431 160.633, 72.946 150.946, 70.462 144.086, 68.702 135.878, 74.414 127.669, 80.126 119.461, 85.838 111.253, 91.550 103.045, 97.262 94.837, 102.974 91.932, 104.995 89.932, 114.793 88.976, 119.475 94.690, 127.681 100.405, 135.887 106.120, 144.093 111.445, 151.739 " />
            <path fill="none" stroke-width="13.0" stroke-linecap="round" stroke-opacity="1.0" stroke="rgb(0, 0, 0)" stroke-linejoin="round" d=" M 247.590, 309.453 248.049, 300.904 250.783, 291.285 253.518, 281.667 256.252, 272.048 258.987, 262.429 261.721, 252.810 264.455, 243.191 267.190, 233.572 269.924, 223.953 272.658, 214.334 275.393, 204.715 278.127, 195.096 279.558, 190.063 274.185, 181.629 268.813, 173.195 263.440, 164.761 260.167, 159.622 261.736, 151.485 269.970, 145.811 278.204, 140.136 281.838, 137.631 " />
        </g>
    </g>
</svg>
