<?xml version='1.0' encoding='ascii'?>
<svg xmlns="http://www.w3.org/2000/svg" version="1.1" width="400" height="400">
    <g id="ViewLayer_LineSet" xmlns:inkscape="http://www.inkscape.org/namespaces/inkscape" inkscape:groupmode="lineset" inkscape:label="ViewLayer_LineSet">
        <g xmlns:inkscape="http://www.inkscape.org/namespaces/inkscape" inkscape:groupmode="layer" id="strokes" inkscape:label="strokes">
            <path fill="none" stroke-width="13.0" stroke-linecap="round" stroke-opacity="1.0" stroke="rgb(0, 0, 0)" stroke-linejoin="round" d=" M 109.074, 180.958 106.334, 190.575 103.594, 200.192 100.853, 209.809 98.113, 219.427 95.373, 229.044 92.633, 238.661 89.893, 248.278 87.153, 257.896 84.412, 267.513 81.672, 277.130 78.932, 286.747 76.816, 294.173 76.524, 304.169 76.233, 314.165 75.983, 322.704 77.134, 328.447 86.760, 331.157 96.386, 333.867 106.011, 336.577 115.637, 339.287 125.263, 341.997 134.889, 344.707 144.515, 347.417 154.140, 350.127 163.766, 352.837 173.392, 355.547 183.018, 358.257 192.643, 360.967 202.269, 363.677 211.895, 366.387 221.521, 369.097 231.147, 371.807 239.317, 374.107 248.124, 369.370 256.931, 364.633 265.738, 359.896 274.544, 355.159 283.351, 350.422 292.158, 345.685 300.965, 340.948 309.772, 336.211 318.578, 331.474 319.925, 330.749 321.275, 323.636 321.291, 313.636 321.307, 303.636 321.320, 295.537 318.267, 286.015 315.215, 276.492 312.162, 266.969 309.109, 257.447 306.057, 247.924 303.004, 238.401 299.952, 228.879 296.899, 219.356 295.048, 213.582 296.595, 203.703 298.142, 193.823 299.689, 183.944 301.237, 174.064 302.784, 164.184 304.331, 154.305 305.424, 147.324 301.754, 141.156 292.140, 138.405 282.525, 135.655 272.911, 132.904 263.297, 130.154 253.682, 127.403 244.068, 124.653 234.454, 121.902 224.840, 119.152 215.225, 116.401 205.611, 113.651 195.997, 110.900 186.382, 108.150 176.768, 105.399 167.154, 102.649 157.539, 99.898 147.925, 97.148 140.850, 95.124 133.044, 101.374 125.238, 107.624 117.432, 113.874 109.626, 120.124 101.819, 126.374 94.013, 132.625 88.102, 137.358 86.266, 147.188 85.385, 151.906 91.705, 159.656 98.024, 167.406 104.343, 175.156 109.074, 180.958 " />
            <path fill="none" stroke-width="13.0" stroke-linecap="round" stroke-opacity="1.0" stroke="rgb(0, 0, 0)" stroke-linejoin="round" d=" M 246.091, 344.245 246.382, 335.788 248.952, 326.124 251.522, 316.460 254.092, 306.796 256.662, 297.132 259.232, 287.468 261.801, 277.803 264.371, 268.139 266.941, 258.475 269.511, 248.811 272.081, 239.147 274.651, 229.483 276.249, 223.472 270.247, 215.473 264.244, 207.475 258.241, 199.477 255.695, 196.084 257.122, 187.944 264.928, 181.693 272.733, 175.443 277.495, 171.630 " />
        </g>
    </g>
</svg>
