<?xml version='1.0' encoding='ascii'?>
<svg xmlns="http://www.w3.org/2000/svg" version="1.1" width="400" height="400">
    <g id="ViewLayer_LineSet" xmlns:inkscape="http://www.inkscape.org/namespaces/inkscape" inkscape:groupmode="lineset" inkscape:label="ViewLayer_LineSet">
        <g xmlns:inkscape="http://www.inkscape.org/namespaces/inkscape" inkscape:groupmode="layer" id="strokes" inkscape:label="strokes">
            <path fill="none" stroke-width="13.0" stroke-linecap="round" stroke-opacity="1.0" stroke="rgb(0, 0, 0)" stroke-linejoin="round" d=" M 107.232, 200.714 104.491, 210.331 101.750, 219.948 99.009, 229.565 96.268, 239.182 93.527, 248.799 90.786, 258.416 88.045, 268.033 85.303, 277.650 82.562, 287.267 79.821, 296.884 77.080, 306.501 76.229, 309.488 76.079, 319.487 75.930, 329.486 75.831, 336.114 77.092, 341.325 86.664, 344.221 96.235, 347.116 105.807, 350.012 115.379, 352.907 124.950, 355.803 134.522, 358.698 144.094, 361.593 153.665, 364.489 163.237, 367.384 172.809, 370.280 182.380, 373.175 191.952, 376.070 201.524, 378.966 211.095, 381.861 220.667, 384.757 230.239, 387.652 238.662, 390.200 247.214, 385.018 255.767, 379.835 264.319, 374.652 272.871, 369.470 281.423, 364.287 289.976, 359.105 298.528, 353.922 307.080, 348.740 315.632, 343.557 319.949, 340.941 321.210, 334.174 321.058, 324.175 320.906, 314.176 320.813, 308.038 317.240, 298.698 313.668, 289.358 310.096, 280.018 306.524, 270.677 302.952, 261.337 299.380, 251.997 295.808, 242.657 292.797, 234.784 294.296, 224.897 295.795, 215.010 297.294, 205.123 298.793, 195.236 300.292, 185.349 301.792, 175.462 302.412, 171.367 298.582, 166.044 289.022, 163.112 279.461, 160.180 269.901, 157.247 260.341, 154.315 250.780, 151.382 241.220, 148.450 231.660, 145.517 222.099, 142.585 212.539, 139.652 202.978, 136.720 193.418, 133.787 183.858, 130.855 174.297, 127.922 164.737, 124.990 155.177, 122.057 145.616, 119.125 138.275, 116.873 130.701, 123.402 123.127, 129.932 115.553, 136.461 107.978, 142.990 100.404, 149.520 92.830, 156.049 85.196, 162.630 83.394, 172.466 82.667, 176.436 89.779, 183.465 96.892, 190.494 104.004, 197.524 107.232, 200.714 " />
            <path fill="none" stroke-width="13.0" stroke-linecap="round" stroke-opacity="1.0" stroke="rgb(0, 0, 0)" stroke-linejoin="round" d=" M 245.082, 361.666 245.245, 353.769 247.812, 344.104 250.380, 334.439 252.947, 324.774 255.514, 315.109 258.082, 305.444 260.649, 295.780 263.216, 286.115 265.784, 276.450 268.351, 266.785 270.918, 257.120 273.486, 247.456 273.805, 246.253 266.971, 238.952 260.138, 231.652 253.304, 224.351 252.415, 223.402 253.732, 215.713 261.279, 209.152 268.826, 202.592 274.262, 197.867 " />
        </g>
    </g>
</svg>
