<?xml version='1.0' encoding='ascii'?>
<svg xmlns="http://www.w3.org/2000/svg" version="1.1" width="400" height="400">
    <g id="ViewLayer_LineSet" xmlns:inkscape="http://www.inkscape.org/namespaces/inkscape" inkscape:groupmode="lineset" inkscape:label="ViewLayer_LineSet">
        <g xmlns:inkscape="http://www.inkscape.org/namespaces/inkscape" inkscape:groupmode="layer" id="strokes" inkscape:label="strokes">
            <path fill="none" stroke-width="13.0" stroke-linecap="round" stroke-opacity="1.0" stroke="rgb(0, 0, 0)" stroke-linejoin="round" d=" M 113.476, 99.630 110.348, 109.129 107.221, 118.627 104.094, 128.126 100.966, 137.624 97.839, 147.122 94.712, 156.621 91.584, 166.119 88.457, 175.618 85.330, 185.116 82.202, 194.615 79.075, 204.113 78.432, 206.064 77.761, 216.041 77.089, 226.019 76.523, 234.424 77.386, 240.424 87.151, 242.577 96.917, 244.730 106.682, 246.883 116.447, 249.037 126.213, 251.190 135.978, 253.343 145.744, 255.496 155.509, 257.650 165.275, 259.803 175.040, 261.956 184.805, 264.109 194.571, 266.262 204.336, 268.416 214.102, 270.569 223.867, 272.722 233.633, 274.875 241.706, 276.656 251.197, 273.507 260.688, 270.358 270.180, 267.209 279.671, 264.060 289.162, 260.911 298.654, 257.762 308.145, 254.613 317.636, 251.464 319.743, 250.765 321.300, 243.946 321.708, 233.954 322.115, 223.962 322.447, 215.844 320.054, 206.134 317.661, 196.425 315.269, 186.715 312.876, 177.006 310.483, 167.296 308.091, 157.587 305.698, 147.877 303.305, 138.167 300.815, 128.062 302.705, 118.242 304.595, 108.423 306.485, 98.603 308.375, 88.783 310.265, 78.963 312.155, 69.144 312.912, 65.211 309.682, 58.232 299.926, 56.036 290.170, 53.841 280.414, 51.646 270.658, 49.451 260.902, 47.256 251.146, 45.060 241.390, 42.865 231.634, 40.670 221.878, 38.475 212.122, 36.279 202.366, 34.084 192.610, 31.889 182.854, 29.694 173.097, 27.498 163.341, 25.303 153.585, 23.108 146.686, 21.555 138.029, 26.561 129.373, 31.567 120.716, 36.573 112.059, 41.578 103.402, 46.584 95.400, 51.211 93.202, 60.966 92.243, 65.220 97.494, 73.731 102.746, 82.241 107.997, 90.751 113.248, 99.262 113.476, 99.630 " />
            <path fill="none" stroke-width="13.0" stroke-linecap="round" stroke-opacity="1.0" stroke="rgb(0, 0, 0)" stroke-linejoin="round" d=" M 249.288, 248.272 249.896, 239.875 252.846, 230.320 255.795, 220.765 258.744, 211.210 261.694, 201.655 264.643, 192.100 267.593, 182.544 270.542, 172.989 273.492, 163.434 276.441, 153.879 279.390, 144.324 282.340, 134.769 282.721, 133.534 277.830, 124.812 272.939, 116.090 268.048, 107.368 264.508, 101.054 266.199, 93.149 274.906, 88.229 283.612, 83.310 285.920, 82.006 " />
        </g>
    </g>
</svg>
