<?xml version='1.0' encoding='ascii'?>
<svg xmlns="http://www.w3.org/2000/svg" version="1.1" width="400" height="400">
    <g id="ViewLayer_LineSet" xmlns:inkscape="http://www.inkscape.org/namespaces/inkscape" inkscape:groupmode="lineset" inkscape:label="ViewLayer_LineSet">
        <g xmlns:inkscape="http://www.inkscape.org/namespaces/inkscape" inkscape:groupmode="layer" id="strokes" inkscape:label="strokes">
            <path fill="none" stroke-width="13.0" stroke-linecap="round" stroke-opacity="1.0" stroke="rgb(0, 0, 0)" stroke-linejoin="round" d=" M 113.374, 118.983 110.258, 128.485 107.142, 137.988 104.026, 147.490 100.910, 156.992 97.794, 166.494 94.678, 175.996 91.562, 185.498 88.446, 195.000 85.330, 204.503 82.214, 214.005 79.098, 223.507 78.275, 226.019 77.621, 235.997 76.968, 245.976 76.439, 254.061 77.333, 259.907 87.040, 262.311 96.747, 264.714 106.454, 267.118 116.161, 269.521 125.867, 271.925 135.574, 274.328 145.281, 276.732 154.988, 279.135 164.695, 281.539 174.402, 283.942 184.109, 286.346 193.815, 288.749 203.522, 291.153 213.229, 293.556 222.936, 295.960 232.643, 298.363 240.861, 300.398 250.181, 296.774 259.501, 293.151 268.822, 289.527 278.142, 285.903 287.462, 282.279 296.783, 278.656 306.103, 275.032 315.423, 271.408 319.772, 269.717 321.325, 262.900 321.709, 252.907 322.092, 242.915 322.389, 235.164 319.860, 225.489 317.330, 215.814 314.801, 206.139 312.271, 196.465 309.741, 186.790 307.212, 177.115 304.682, 167.440 302.152, 157.766 300.183, 150.235 302.068, 140.414 303.953, 130.594 305.838, 120.773 307.723, 110.952 309.608, 101.131 311.492, 91.311 312.291, 87.148 308.997, 80.497 299.301, 78.053 289.604, 75.608 279.908, 73.164 270.211, 70.719 260.514, 68.275 250.818, 65.830 241.121, 63.386 231.424, 60.942 221.728, 58.497 212.031, 56.053 202.335, 53.608 192.638, 51.164 182.941, 48.719 173.245, 46.275 163.548, 43.830 153.851, 41.386 146.786, 39.605 138.349, 44.972 129.911, 50.340 121.474, 55.707 113.036, 61.075 104.599, 66.442 96.162, 71.810 94.892, 72.617 92.698, 82.374 91.747, 86.601 97.301, 94.917 102.855, 103.233 108.409, 111.549 113.374, 118.983 " />
            <path fill="none" stroke-width="13.0" stroke-linecap="round" stroke-opacity="1.0" stroke="rgb(0, 0, 0)" stroke-linejoin="round" d=" M 248.441, 271.948 249.027, 263.643 251.968, 254.085 254.910, 244.527 257.851, 234.970 260.792, 225.412 263.734, 215.854 266.675, 206.297 269.616, 196.739 272.558, 187.181 275.499, 177.624 278.440, 168.066 281.381, 158.508 281.862, 156.948 276.662, 148.406 271.462, 139.864 266.262, 131.323 263.271, 126.411 264.952, 118.542 273.419, 113.223 281.887, 107.903 284.928, 105.993 " />
        </g>
    </g>
</svg>
