<?xml version='1.0' encoding='ascii'?>
<svg xmlns="http://www.w3.org/2000/svg" version="1.1" width="400" height="400">
    <g id="ViewLayer_LineSet" xmlns:inkscape="http://www.inkscape.org/namespaces/inkscape" inkscape:groupmode="lineset" inkscape:label="ViewLayer_LineSet">
        <g xmlns:inkscape="http://www.inkscape.org/namespaces/inkscape" inkscape:groupmode="layer" id="strokes" inkscape:label="strokes">
            <path fill="none" stroke-width="13.0" stroke-linecap="round" stroke-opacity="1.0" stroke="rgb(0, 0, 0)" stroke-linejoin="round" d=" M 107.240, 194.436 104.562, 204.071 101.884, 213.706 99.206, 223.340 96.528, 232.975 93.850, 242.610 91.172, 252.245 88.493, 261.879 85.815, 271.514 83.137, 281.149 80.459, 290.783 77.781, 300.418 76.228, 306.006 76.085, 316.005 75.942, 326.004 75.830, 333.773 77.092, 339.297 86.713, 342.022 96.335, 344.747 105.957, 347.472 115.578, 350.196 125.200, 352.921 134.821, 355.646 144.443, 358.370 154.065, 361.095 163.686, 363.820 173.308, 366.545 182.930, 369.269 192.551, 371.994 202.173, 374.719 211.795, 377.444 221.416, 380.168 231.038, 382.893 238.637, 385.045 247.337, 380.114 256.036, 375.183 264.736, 370.252 273.436, 365.321 282.136, 360.390 290.835, 355.459 299.535, 350.528 308.235, 345.598 316.935, 340.667 319.949, 338.958 321.210, 331.979 321.065, 321.980 320.919, 311.981 320.812, 304.670 317.444, 295.255 314.076, 285.839 310.707, 276.423 307.339, 267.008 303.971, 257.592 300.602, 248.176 297.234, 238.761 293.866, 229.345 292.788, 226.333 294.249, 216.440 295.710, 206.547 297.170, 196.655 298.631, 186.762 300.092, 176.869 301.553, 166.977 302.408, 161.187 298.576, 155.375 288.966, 152.611 279.355, 149.847 269.745, 147.083 260.135, 144.319 250.524, 141.555 240.914, 138.791 231.303, 136.027 221.693, 133.262 212.082, 130.498 202.472, 127.734 192.862, 124.970 183.251, 122.206 173.641, 119.442 164.030, 116.678 154.420, 113.914 144.810, 111.150 138.294, 109.276 130.585, 115.646 122.876, 122.015 115.167, 128.384 107.457, 134.754 99.748, 141.123 92.039, 147.493 85.197, 153.146 83.450, 162.993 82.667, 167.408 89.394, 174.807 96.121, 182.206 102.848, 189.605 107.240, 194.436 " />
            <path fill="none" stroke-width="13.0" stroke-linecap="round" stroke-opacity="1.0" stroke="rgb(0, 0, 0)" stroke-linejoin="round" d=" M 245.059, 355.688 245.222, 347.455 247.724, 337.774 250.227, 328.092 252.729, 318.410 255.232, 308.728 257.735, 299.047 260.237, 289.365 262.740, 279.683 265.243, 270.001 267.745, 260.319 270.248, 250.638 272.750, 240.956 273.789, 236.936 267.358, 229.279 260.927, 221.621 254.495, 213.964 252.392, 211.459 253.708, 203.493 261.410, 197.114 269.111, 190.735 274.246, 186.481 " />
        </g>
    </g>
</svg>
