<?xml version='1.0' encoding='ascii'?>
<svg xmlns="http://www.w3.org/2000/svg" version="1.1" width="400" height="400">
    <g id="ViewLayer_LineSet" xmlns:inkscape="http://www.inkscape.org/namespaces/inkscape" inkscape:groupmode="lineset" inkscape:label="ViewLayer_LineSet">
        <g xmlns:inkscape="http://www.inkscape.org/namespaces/inkscape" inkscape:groupmode="layer" id="strokes" inkscape:label="strokes">
            <path fill="none" stroke-width="13.0" stroke-linecap="round" stroke-opacity="1.0" stroke="rgb(0, 0, 0)" stroke-linejoin="round" d=" M 113.409, 117.137 110.290, 126.638 107.171, 136.139 104.052, 145.640 100.933, 155.141 97.814, 164.642 94.695, 174.143 91.576, 183.644 88.457, 193.146 85.337, 202.647 82.218, 212.148 79.099, 221.649 78.316, 224.034 77.658, 234.012 76.999, 243.991 76.460, 252.164 77.346, 258.051 87.068, 260.390 96.791, 262.729 106.514, 265.069 116.236, 267.408 125.959, 269.747 135.681, 272.087 145.404, 274.426 155.126, 276.765 164.849, 279.105 174.571, 281.444 184.294, 283.783 194.016, 286.122 203.739, 288.462 213.461, 290.801 223.184, 293.140 232.906, 295.480 241.071, 297.444 250.436, 293.940 259.802, 290.436 269.168, 286.932 278.534, 283.427 287.900, 279.923 297.266, 276.419 306.632, 272.915 315.998, 269.411 319.765, 268.001 321.320, 261.182 321.710, 251.190 322.100, 241.197 322.407, 233.346 319.914, 223.662 317.421, 213.978 314.928, 204.293 312.435, 194.609 309.942, 184.925 307.450, 175.241 304.957, 165.556 302.464, 155.872 300.351, 147.663 302.237, 137.842 304.124, 128.022 306.010, 118.202 307.897, 108.381 309.784, 98.561 311.670, 88.740 312.460, 84.626 309.183, 77.889 299.471, 75.508 289.758, 73.128 280.046, 70.747 270.333, 68.367 260.621, 65.986 250.908, 63.606 241.196, 61.225 231.483, 58.844 221.771, 56.464 212.058, 54.083 202.346, 51.703 192.633, 49.322 182.921, 46.942 173.208, 44.561 163.495, 42.181 153.783, 39.800 146.777, 38.083 138.282, 43.360 129.788, 48.637 121.294, 53.914 112.800, 59.191 104.306, 64.469 95.812, 69.746 95.033, 70.230 92.837, 79.986 91.884, 84.223 97.357, 92.592 102.831, 100.961 108.304, 109.330 113.409, 117.137 " />
            <path fill="none" stroke-width="13.0" stroke-linecap="round" stroke-opacity="1.0" stroke="rgb(0, 0, 0)" stroke-linejoin="round" d=" M 248.653, 269.007 249.246, 260.676 252.189, 251.119 255.133, 241.562 258.076, 232.005 261.020, 222.448 263.964, 212.891 266.907, 203.334 269.851, 193.777 272.794, 184.220 275.738, 174.663 278.682, 165.106 281.625, 155.549 282.086, 154.055 276.968, 145.463 271.850, 136.872 266.733, 128.281 263.592, 123.008 265.276, 115.129 273.805, 109.909 282.335, 104.689 285.189, 102.942 " />
        </g>
    </g>
</svg>
