<?xml version='1.0' encoding='ascii'?>
<svg xmlns="http://www.w3.org/2000/svg" version="1.1" width="400" height="400">
    <g id="ViewLayer_LineSet" xmlns:inkscape="http://www.inkscape.org/namespaces/inkscape" inkscape:groupmode="lineset" inkscape:label="ViewLayer_LineSet">
        <g xmlns:inkscape="http://www.inkscape.org/namespaces/inkscape" inkscape:groupmode="layer" id="strokes" inkscape:label="strokes">
            <path fill="none" stroke-width="13.0" stroke-linecap="round" stroke-opacity="1.0" stroke="rgb(0, 0, 0)" stroke-linejoin="round" d=" M 107.250, 208.467 104.370, 218.043 101.490, 227.620 98.610, 237.196 95.731, 246.772 92.851, 256.349 89.971, 265.925 87.091, 275.501 84.211, 285.078 81.331, 294.654 78.451, 304.230 76.257, 311.525 76.098, 321.523 75.939, 331.522 75.860, 336.487 77.120, 341.321 86.692, 344.216 96.264, 347.112 105.835, 350.007 115.407, 352.902 124.979, 355.798 134.550, 358.693 144.122, 361.589 153.694, 364.484 163.265, 367.380 172.837, 370.275 182.409, 373.170 191.980, 376.066 201.552, 378.961 211.123, 381.857 220.695, 384.752 230.267, 387.647 238.663, 390.187 247.215, 385.005 255.767, 379.822 264.320, 374.640 272.872, 369.457 281.424, 364.274 289.976, 359.092 298.529, 353.909 307.081, 348.727 315.633, 343.544 319.922, 340.945 321.182, 334.556 321.020, 324.557 320.858, 314.559 320.785, 310.084 316.955, 300.847 313.125, 291.609 309.296, 282.371 305.466, 273.134 301.636, 263.896 297.806, 254.659 293.976, 245.421 292.780, 242.534 294.361, 232.660 295.941, 222.786 297.522, 212.912 299.103, 203.037 300.684, 193.163 302.265, 183.289 302.390, 182.507 298.562, 177.668 289.000, 174.738 279.439, 171.808 269.878, 168.878 260.317, 165.947 250.756, 163.017 241.195, 160.087 231.634, 157.157 222.073, 154.227 212.512, 151.297 202.951, 148.367 193.390, 145.437 183.829, 142.506 174.267, 139.576 164.706, 136.646 155.145, 133.716 145.584, 130.786 138.282, 128.548 130.664, 135.027 123.047, 141.505 115.429, 147.984 107.811, 154.462 100.194, 160.941 92.576, 167.420 85.222, 173.674 83.316, 183.491 82.693, 186.697 90.176, 193.330 97.659, 199.964 105.142, 206.598 107.250, 208.467 " />
            <path fill="none" stroke-width="13.0" stroke-linecap="round" stroke-opacity="1.0" stroke="rgb(0, 0, 0)" stroke-linejoin="round" d=" M 245.081, 363.204 245.243, 355.799 247.946, 346.171 250.648, 336.543 253.350, 326.915 256.052, 317.287 258.754, 307.659 261.457, 298.031 264.159, 288.403 266.861, 278.775 269.563, 269.147 272.266, 259.519 273.794, 254.072 266.570, 247.157 259.346, 240.242 252.412, 233.604 253.728, 226.365 261.308, 219.842 268.889, 213.320 274.250, 208.707 " />
        </g>
    </g>
</svg>
