<?xml version='1.0' encoding='ascii'?>
<svg xmlns="http://www.w3.org/2000/svg" version="1.1" width="400" height="400">
    <g id="ViewLayer_LineSet" xmlns:inkscape="http://www.inkscape.org/namespaces/inkscape" inkscape:groupmode="lineset" inkscape:label="ViewLayer_LineSet">
        <g xmlns:inkscape="http://www.inkscape.org/namespaces/inkscape" inkscape:groupmode="layer" id="strokes" inkscape:label="strokes">
            <path fill="none" stroke-width="13.0" stroke-linecap="round" stroke-opacity="1.0" stroke="rgb(0, 0, 0)" stroke-linejoin="round" d=" M 107.232, 181.238 104.615, 190.890 101.998, 200.541 99.381, 210.192 96.764, 219.844 94.147, 229.495 91.530, 239.147 88.913, 248.798 86.296, 258.450 83.679, 268.101 81.062, 277.753 78.445, 287.404 76.229, 295.577 76.091, 305.576 75.954, 315.575 75.831, 324.481 77.092, 330.317 86.762, 332.864 96.433, 335.410 106.103, 337.957 115.773, 340.504 125.443, 343.051 135.114, 345.597 144.784, 348.144 154.454, 350.691 164.124, 353.238 173.795, 355.784 183.465, 358.331 193.135, 360.878 202.806, 363.425 212.476, 365.972 222.146, 368.518 231.816, 371.065 238.662, 372.868 247.507, 368.202 256.351, 363.535 265.196, 358.869 274.040, 354.203 282.885, 349.537 291.729, 344.871 300.574, 340.204 309.419, 335.538 318.263, 330.872 319.949, 329.982 321.210, 322.792 321.070, 312.793 320.931, 302.794 320.813, 294.315 317.629, 284.835 314.445, 275.356 311.261, 265.876 308.077, 256.397 304.894, 246.917 301.710, 237.437 298.526, 227.958 295.342, 218.478 292.797, 210.900 294.221, 201.002 295.644, 191.104 297.068, 181.206 298.491, 171.307 299.915, 161.409 301.338, 151.511 302.412, 144.041 298.582, 137.740 288.923, 135.152 279.264, 132.563 269.605, 129.975 259.945, 127.387 250.286, 124.798 240.627, 122.210 230.968, 119.621 221.308, 117.033 211.649, 114.445 201.990, 111.856 192.331, 109.268 182.672, 106.680 173.012, 104.091 163.353, 101.503 153.694, 98.915 144.035, 96.326 138.275, 94.783 130.430, 100.984 122.586, 107.186 114.741, 113.388 106.896, 119.589 99.051, 125.791 91.206, 131.992 85.196, 136.743 83.502, 146.599 82.667, 151.457 89.030, 159.172 95.393, 166.886 101.757, 174.600 107.232, 181.238 " />
            <path fill="none" stroke-width="13.0" stroke-linecap="round" stroke-opacity="1.0" stroke="rgb(0, 0, 0)" stroke-linejoin="round" d=" M 245.082, 342.696 245.245, 334.129 247.685, 324.431 250.126, 314.733 252.566, 305.036 255.006, 295.338 257.447, 285.640 259.887, 275.943 262.327, 266.245 264.767, 256.547 267.208, 246.850 269.648, 237.152 272.088, 227.454 273.805, 220.631 267.749, 212.674 261.693, 204.716 255.637, 196.758 252.415, 192.524 253.732, 184.284 261.588, 178.097 269.444, 171.910 274.262, 168.116 " />
        </g>
    </g>
</svg>
