<?xml version='1.0' encoding='ascii'?>
<svg xmlns="http://www.w3.org/2000/svg" version="1.1" width="400" height="400">
    <g id="ViewLayer_LineSet" xmlns:inkscape="http://www.inkscape.org/namespaces/inkscape" inkscape:groupmode="lineset" inkscape:label="ViewLayer_LineSet">
        <g xmlns:inkscape="http://www.inkscape.org/namespaces/inkscape" inkscape:groupmode="layer" id="strokes" inkscape:label="strokes">
            <path fill="none" stroke-width="13.0" stroke-linecap="round" stroke-opacity="1.0" stroke="rgb(0, 0, 0)" stroke-linejoin="round" d=" M 112.959, 120.910 109.899, 130.430 106.840, 139.951 103.780, 149.471 100.721, 158.992 97.662, 168.512 94.602, 178.033 91.543, 187.553 88.484, 197.074 85.424, 206.594 82.365, 216.115 79.305, 225.635 78.210, 229.043 77.590, 239.023 76.969, 249.004 76.433, 257.634 77.333, 263.642 87.080, 265.878 96.827, 268.113 106.573, 270.349 116.320, 272.585 126.067, 274.820 135.814, 277.056 145.561, 279.292 155.308, 281.527 165.055, 283.763 174.802, 285.999 184.549, 288.234 194.295, 290.470 204.042, 292.706 213.789, 294.941 223.536, 297.177 233.283, 299.413 241.305, 301.252 250.706, 297.844 260.107, 294.436 269.509, 291.028 278.910, 287.620 288.311, 284.212 297.713, 280.804 307.114, 277.396 316.515, 273.987 319.784, 272.802 321.317, 265.894 321.674, 255.900 322.031, 245.906 322.328, 237.586 319.868, 227.894 317.407, 218.201 314.947, 208.509 312.486, 198.816 310.026, 189.123 307.565, 179.431 305.105, 169.738 302.645, 160.046 300.083, 149.953 301.918, 140.123 303.754, 130.293 305.590, 120.463 307.426, 110.633 309.261, 100.802 311.097, 90.972 311.991, 86.184 308.702, 79.263 298.965, 76.986 289.228, 74.708 279.491, 72.430 269.754, 70.152 260.016, 67.874 250.279, 65.597 240.542, 63.319 230.805, 61.041 221.068, 58.763 211.331, 56.486 201.594, 54.208 191.856, 51.930 182.119, 49.652 172.382, 47.374 162.645, 45.097 152.908, 42.819 146.048, 41.214 137.520, 46.437 128.992, 51.659 120.464, 56.882 111.937, 62.105 103.409, 67.327 94.491, 72.789 92.352, 82.557 91.385, 86.974 96.750, 95.413 102.115, 103.852 107.479, 112.291 112.959, 120.910 " />
            <path fill="none" stroke-width="13.0" stroke-linecap="round" stroke-opacity="1.0" stroke="rgb(0, 0, 0)" stroke-linejoin="round" d=" M 248.798, 272.461 249.367, 263.994 252.251, 254.419 255.134, 244.844 258.018, 235.269 260.901, 225.693 263.785, 216.118 266.668, 206.543 269.552, 196.968 272.435, 187.392 275.319, 177.817 278.202, 168.242 281.085, 158.667 281.869, 156.063 276.860, 147.408 271.851, 138.753 266.841, 130.099 263.331, 124.034 264.991, 116.038 273.563, 110.887 282.134, 105.736 284.830, 104.115 " />
        </g>
    </g>
</svg>
