<?xml version='1.0' encoding='utf-8'?>
<svg xmlns="http://www.w3.org/2000/svg" width="400" height="400" viewBox="50 200 400 400"><clipPath id="cl_e">
		<rect width="1920" height="1080" />
	</clipPath>
	<g transform="translate(-350.1781,-480.0000)"><g clip-path="url(#cl_e)"><g transform="translate(1920,0) scale(-1,1)"><path fill="none" stroke="#191919" stroke-width="4" stroke-miterlimit="10" transform="matrix(1 0 0 -1 960 540)" d="" fill-rule="evenodd" />
		<path fill="none" stroke="black" stroke-width="12.5" stroke-miterlimit="10" transform="matrix(0.974275 0 0 -1.04788 1337.61 1041.17)" d="M-108.655 -154.276L-116.312 -66.5204L116.312 -67.4896L116.127 -124.851C122.892 -112.638 61.6349 -56.0233 3.92834 -56.0233C-39.4426 -56.0233 -106.239 -103.037 -108.655 -154.276Z" fill-rule="evenodd" />
		<path fill="none" stroke="black" stroke-width="24" stroke-linecap="round" stroke-miterlimit="10" transform="matrix(0.353553 0.353553 0.353553 -0.353553 1406.97 1221.53)" d="M93.6798 -35.0644C97.7658 -24.1531 100 -12.3375 100 0C100 55.2285 55.2285 100 0 100C-55.2285 100 -100 55.2285 -100 0C-100 -7.05767 -99.2689 -13.9446 -97.8782 -20.5891" />
		<path fill="none" stroke="black" stroke-width="24" stroke-linecap="round" stroke-miterlimit="10" transform="matrix(0.353553 0.353553 0.353553 -0.353553 1241.79 1234.2)" d="M-6.30406 99.8045C-58.5956 96.5517 -100 53.1111 -100 0C-100 -55.2285 -55.2285 -100 0 -100C24.225 -100 46.438 -91.386 63.7434 -77.054" />
		<path fill="none" stroke="black" stroke-width="24" stroke-linecap="round" stroke-miterlimit="10" transform="matrix(0.353553 0.353553 0.353553 -0.353553 1356.13 1173.2)" d="M92.0512 39.1374C76.8201 74.9156 41.3394 100 0 100C-55.2285 100 -100 55.2285 -100 0C-100 -13.8891 -97.1685 -27.1168 -92.0512 -39.1374" />
		<path fill="none" stroke="black" stroke-width="24" stroke-linecap="round" stroke-miterlimit="10" transform="matrix(0.353553 0.353553 0.353553 -0.353553 1283.1 1176.87)" d="M44.2802 89.6868C30.9327 96.2893 15.8997 100 0 100C-55.2285 100 -100 55.2285 -100 0C-100 -33.263 -83.7595 -62.7328 -58.7754 -80.9127" />
	</g></g></g></svg>