<?xml version='1.0' encoding='utf-8'?>
<svg xmlns="http://www.w3.org/2000/svg" width="400" height="400" viewBox="50 200 400 400"><clipPath id="cl_2f">
		<rect width="1920" height="1080" />
	</clipPath>
	<g transform="translate(-350.1781,-480.0000)"><g clip-path="url(#cl_2f)"><g transform="translate(1920,0) scale(-1,1)"><path fill="none" stroke="#191919" stroke-width="4" stroke-miterlimit="10" transform="matrix(1 0 0 -1 960 540)" d="" fill-rule="evenodd" />
		</g><g transform="translate(-719.6438,0)"><path fill="white" transform="matrix(0.536455 0 0 -0.536455 1304.56 939.891)" d="M-77.9755 165.885L-113.014 142.526C-119.907 137.93 -124.904 127.516 -124.175 119.263L-106.815 -77.2218C-106.086 -85.4739 -100.721 -96.8867 -94.8313 -102.713L-76.1582 -121.186C-70.2689 -127.013 -58.809 -131.102 -50.5616 -130.321L126.096 -113.579C134.343 -112.797 146.023 -107.674 152.185 -102.136L170.648 -85.5406C176.809 -80.0026 181.803 -68.7975 181.803 -60.5132L181.803 98.7848C181.803 107.069 177.039 118.518 171.162 124.357L131.627 163.634C125.75 169.472 114.27 174.205 105.985 174.205L-50.4947 174.205C-58.779 174.205 -71.0826 170.48 -77.9755 165.885Z" />
		<path fill="none" stroke="black" stroke-width="24" stroke-miterlimit="10" transform="matrix(0.536455 0 0 -0.536455 1304.56 939.891)" d="M-77.9755 165.885L-113.014 142.526C-119.907 137.93 -124.904 127.516 -124.175 119.263L-106.815 -77.2218C-106.086 -85.4739 -100.721 -96.8867 -94.8313 -102.713L-76.1582 -121.186C-70.2689 -127.013 -58.809 -131.102 -50.5616 -130.321L126.096 -113.579C134.343 -112.797 146.023 -107.674 152.185 -102.136L170.648 -85.5406C176.809 -80.0026 181.803 -68.7975 181.803 -60.5132L181.803 98.7848C181.803 107.069 177.039 118.518 171.162 124.357L131.627 163.634C125.75 169.472 114.27 174.205 105.985 174.205L-50.4947 174.205C-58.779 174.205 -71.0826 170.48 -77.9755 165.885Z" />
		<path fill="white" transform="matrix(0.5 0 0 -0.5 1320.66 922.911)" d="M-3.06903 97.658L-9.24376 97.7888L-15.4273 97.4041L-21.56 96.4538L-27.596 94.9859L-33.5194 93.1037L-39.3482 90.9284L-45.1234 88.5596L-50.8641 86.0066L-56.5303 83.1818L-62.021 79.957L-67.2045 76.2285L-71.97 71.97L-76.2642 67.2359L-80.0573 62.0988L-83.3957 56.6757L-86.42 51.1087L-89.2697 45.4852L-91.9696 39.7988L-94.4136 33.991L-96.511 28.039L-98.2665 21.9652L-99.7068 15.792L-100.85 9.53313L-101.611 3.19327L-101.8 -3.19918L-101.291 -9.57484L-100.082 -15.8514L-98.2526 -21.9621L-95.9531 -27.877L-93.3763 -33.6175L-90.6931 -39.2464L-88.0473 -44.8623L-85.4356 -50.5265L-82.677 -56.1872L-79.5197 -61.6818L-75.7755 -66.8051L-71.4078 -71.4078L-66.5336 -75.4675L-61.3406 -79.0798L-55.9781 -82.3692L-50.5323 -85.4454L-45.0346 -88.3854L-39.4748 -91.2209L-33.8167 -93.9294L-28.0168 -96.4344L-22.0446 -98.6219L-15.8972 -100.371L-9.60224 -101.581L-3.21066 -102.165L3.2063 -102.026L9.55977 -101.132L15.7675 -99.5524L21.7787 -97.4324L27.5831 -94.9418L33.2087 -92.2406L38.7006 -89.4318L44.0976 -86.5464L49.4279 -83.578L54.7117 -80.5058L59.929 -77.2599L64.9826 -73.7083L69.7349 -69.7349L74.0841 -65.3139L77.9913 -60.4962L81.4426 -55.3483L84.4609 -49.9501L87.1131 -44.3863L89.4762 -38.7198L91.6016 -32.9786L93.5187 -27.1697L95.276 -21.2967L96.9544 -15.3561L98.5777 -9.31833L99.9856 -3.14217L100.937 3.17208L101.217 9.56778L100.633 15.9387L99.072 22.1452L96.6494 28.0792L93.7051 33.7359L90.653 39.2291L87.779 44.7256L85.0985 50.3271L82.3912 55.993L79.4185 61.6033L75.9877 66.9922L71.9902 71.9902L67.4412 76.497L62.3991 80.4444L56.9442 83.7909L51.1859 86.5506L45.2467 88.8016L39.2248 90.6431L33.1747 92.1462L27.1313 93.3866L21.119 94.4811L15.1243 95.4914L9.1126 96.4012L3.05305 97.1497L-3.06903 97.658Z" />
		<path transform="matrix(0.5 0 0 -0.5 1320.66 922.911)" d="M-76.0689 84.4003L-80.4353 80.4986L-85.5587 74.8503L-90.0112 68.82L-93.785 62.6896L-96.6269 57.4585Q-96.7675 57.1996 -96.8953 56.9342Q-97.023 56.6687 -97.1376 56.3974Q-97.2522 56.126 -97.3533 55.8493Q-97.4544 55.5726 -97.5418 55.2913Q-97.6292 55.01 -97.7028 54.7247Q-97.7763 54.4394 -97.8357 54.1509Q-97.8951 53.8624 -97.9403 53.5713Q-97.9855 53.2802 -98.0164 52.9872Q-98.0472 52.6943 -98.0637 52.4001Q-98.0801 52.106 -98.0821 51.8114Q-98.0841 51.5169 -98.0717 51.2225Q-98.0592 50.9282 -98.0323 50.6349Q-98.0054 50.3415 -97.9642 50.0498Q-97.9229 49.7582 -97.8674 49.4689Q-97.8119 49.1795 -97.7423 48.8933Q-97.6726 48.6071 -97.589 48.3246Q-97.5054 48.0421 -97.4081 47.7641Q-97.3107 47.4861 -97.1998 47.2132Q-97.089 46.9402 -96.9648 46.6731Q-96.8407 46.4059 -96.7036 46.1452Q-96.5665 45.8845 -96.4167 45.6308Q-96.267 45.3771 -96.105 45.131Q-95.943 44.885 -95.7691 44.6472Q-95.5952 44.4094 -95.4099 44.1804Q-95.2246 43.9515 -95.0282 43.7318Q-94.8319 43.5122 -94.625 43.3025Q-94.4181 43.0928 -94.2012 42.8935Q-93.9843 42.6942 -93.7578 42.5058Q-93.5314 42.3174 -93.296 42.1403Q-93.0606 41.9632 -92.8167 41.7979Q-92.5729 41.6326 -92.3213 41.4794Q-92.0696 41.3263 -91.8108 41.1856Q-91.5519 41.045 -91.2865 40.9173Q-91.021 40.7895 -90.7496 40.6749Q-90.4783 40.5604 -90.2016 40.4592Q-89.9249 40.3581 -89.6436 40.2707Q-89.3623 40.1833 -89.077 40.1098Q-88.7917 40.0363 -88.5032 39.9768Q-88.2147 39.9174 -87.9236 39.8722Q-87.6325 39.827 -87.3395 39.7961Q-87.0466 39.7653 -86.7524 39.7488Q-86.4583 39.7324 -86.1637 39.7304Q-85.8692 39.7284 -85.5748 39.7409Q-85.2805 39.7533 -84.9872 39.7802Q-84.6938 39.8071 -84.4021 39.8483Q-84.1105 39.8896 -83.8212 39.9451Q-83.5318 40.0006 -83.2456 40.0702Q-82.9594 40.1399 -82.6769 40.2235Q-82.3944 40.3071 -82.1164 40.4044Q-81.8384 40.5018 -81.5655 40.6127Q-81.2925 40.7236 -81.0254 40.8477Q-80.7582 40.9719 -80.4975 41.109Q-80.2368 41.2461 -79.9831 41.3958Q-79.7294 41.5455 -79.4833 41.7075Q-79.2373 41.8695 -78.9995 42.0434Q-78.7617 42.2173 -78.5327 42.4026Q-78.3038 42.5879 -78.0842 42.7843Q-77.8645 42.9806 -77.6548 43.1875Q-77.4451 43.3944 -77.2458 43.6113Q-77.0465 43.8283 -76.8581 44.0547Q-76.6697 44.2811 -76.4926 44.5166Q-76.3155 44.752 -76.1502 44.9958Q-75.9849 45.2396 -75.8317 45.4913Q-75.6786 45.7429 -75.5379 46.0018L-72.8512 50.9473L-83.3957 56.6757L-73.1768 50.3849L-69.8383 55.8081L-80.0573 62.0988L-70.4036 54.9709L-66.6105 60.1081L-76.2642 67.2359L-67.376 59.1737L-63.0819 63.9077L-71.97 71.97L-63.9742 63.022L-60.0772 66.5043Q-59.8575 66.7006 -59.6478 66.9075Q-59.438 67.1143 -59.2386 67.3312Q-59.0393 67.548 -58.8508 67.7744Q-58.6623 68.0008 -58.4852 68.2362Q-58.308 68.4716 -58.1426 68.7153Q-57.9772 68.9591 -57.824 69.2107Q-57.6708 69.4623 -57.5301 69.7211Q-57.3894 69.9799 -57.2616 70.2453Q-57.1338 70.5107 -57.0191 70.7821Q-56.9045 71.0535 -56.8033 71.3301Q-56.7021 71.6068 -56.6146 71.8881Q-56.5271 72.1693 -56.4535 72.4546Q-56.3799 72.7398 -56.3204 73.0284Q-56.2609 73.3169 -56.2156 73.6079Q-56.1703 73.899 -56.1394 74.192Q-56.1085 74.4849 -56.0919 74.7791Q-56.0754 75.0732 -56.0733 75.3678Q-56.0712 75.6623 -56.0836 75.9566Q-56.096 76.251 -56.1228 76.5443Q-56.1496 76.8377 -56.1908 77.1294Q-56.232 77.4211 -56.2874 77.7104Q-56.3428 77.9997 -56.4124 78.286Q-56.4819 78.5722 -56.5655 78.8547Q-56.649 79.1372 -56.7463 79.4153Q-56.8436 79.6933 -56.9544 79.9663Q-57.0652 80.2392 -57.1893 80.5064Q-57.3133 80.7736 -57.4504 81.0344Q-57.5874 81.2951 -57.7371 81.5489Q-57.8867 81.8026 -58.0486 82.0487Q-58.2106 82.2948 -58.3844 82.5326Q-58.5582 82.7705 -58.7435 82.9995Q-58.9287 83.2285 -59.125 83.4482Q-59.3213 83.6678 -59.5281 83.8776Q-59.735 84.0874 -59.9519 84.2867Q-60.1687 84.4861 -60.3951 84.6746Q-60.6215 84.863 -60.8569 85.0402Q-61.0922 85.2173 -61.336 85.3827Q-61.5798 85.5481 -61.8314 85.7013Q-62.083 85.8546 -62.3418 85.9952Q-62.6006 86.1359 -62.866 86.2638Q-63.1314 86.3916 -63.4028 86.5062Q-63.6741 86.6209 -63.9508 86.7221Q-64.2275 86.8233 -64.5088 86.9108Q-64.79 86.9983 -65.0753 87.0719Q-65.3605 87.1454 -65.649 87.205Q-65.9375 87.2645 -66.2286 87.3097Q-66.5197 87.355 -66.8127 87.386Q-67.1056 87.4169 -67.3997 87.4334Q-67.6939 87.45 -67.9884 87.452Q-68.283 87.4541 -68.5773 87.4417Q-68.8717 87.4294 -69.165 87.4025Q-69.4584 87.3757 -69.7501 87.3346Q-70.0418 87.2934 -70.3311 87.238Q-70.6204 87.1825 -70.9067 87.113Q-71.1929 87.0434 -71.4754 86.9599Q-71.7579 86.8764 -72.036 86.7791Q-72.314 86.6818 -72.587 86.571Q-72.8599 86.4602 -73.1271 86.3361Q-73.3943 86.212 -73.655 86.075Q-73.9158 85.938 -74.1695 85.7883Q-74.4233 85.6386 -74.6694 85.4767Q-74.9155 85.3148 -75.1533 85.141Q-75.3911 84.9672 -75.6202 84.7819Q-75.8492 84.5966 -76.0689 84.4003ZM-111.767 16.5509L-112.721 11.3284L-113.59 4.0872L-113.814 -3.5005L-113.2 -11.1919L-111.962 -17.6203Q-111.906 -17.9096 -111.836 -18.1958Q-111.766 -18.482 -111.683 -18.7644Q-111.599 -19.0468 -111.501 -19.3247Q-111.404 -19.6027 -111.293 -19.8755Q-111.181 -20.1483 -111.057 -20.4154Q-110.933 -20.6824 -110.795 -20.9431Q-110.658 -21.2037 -110.508 -21.4573Q-110.358 -21.7109 -110.196 -21.9568Q-110.034 -22.2027 -109.86 -22.4404Q-109.686 -22.678 -109.5 -22.9069Q-109.315 -23.1357 -109.118 -23.3552Q-108.922 -23.5746 -108.715 -23.7842Q-108.508 -23.9937 -108.291 -24.1929Q-108.074 -24.392 -107.847 -24.5803Q-107.62 -24.7685 -107.385 -24.9454Q-107.149 -25.1223 -106.905 -25.2874Q-106.661 -25.4526 -106.41 -25.6055Q-106.158 -25.7585 -105.899 -25.8989Q-105.64 -26.0394 -105.374 -26.1669Q-105.109 -26.2945 -104.837 -26.4088Q-104.566 -26.5232 -104.289 -26.6241Q-104.012 -26.725 -103.731 -26.8122Q-103.45 -26.8994 -103.164 -26.9727Q-102.879 -27.046 -102.59 -27.1052Q-102.302 -27.1644 -102.011 -27.2094Q-101.72 -27.2544 -101.427 -27.285Q-101.134 -27.3157 -100.839 -27.3319Q-100.545 -27.3481 -100.251 -27.3499Q-99.9561 -27.3517 -99.6618 -27.339Q-99.3675 -27.3263 -99.0742 -27.2992Q-98.7809 -27.2721 -98.4892 -27.2306Q-98.1976 -27.1891 -97.9083 -27.1334Q-97.619 -27.0777 -97.3329 -27.0078Q-97.0467 -26.938 -96.7643 -26.8542Q-96.4819 -26.7703 -96.2039 -26.6728Q-95.9259 -26.5752 -95.6531 -26.4641Q-95.3803 -26.353 -95.1132 -26.2287Q-94.8462 -26.1043 -94.5855 -25.967Q-94.3249 -25.8297 -94.0713 -25.6798Q-93.8177 -25.5299 -93.5718 -25.3677Q-93.3259 -25.2055 -93.0882 -25.0314Q-92.8506 -24.8574 -92.6218 -24.6719Q-92.3929 -24.4864 -92.1735 -24.2899Q-91.954 -24.0933 -91.7444 -23.8863Q-91.5349 -23.6793 -91.3358 -23.4622Q-91.1366 -23.2451 -90.9484 -23.0185Q-90.7601 -22.7919 -90.5832 -22.5564Q-90.4063 -22.3208 -90.2412 -22.0769Q-90.076 -21.8329 -89.9231 -21.5812Q-89.7701 -21.3294 -89.6297 -21.0705Q-89.4893 -20.8115 -89.3617 -20.546Q-89.2341 -20.2804 -89.1198 -20.0089Q-89.0054 -19.7375 -88.9045 -19.4607Q-88.8036 -19.1839 -88.7164 -18.9026Q-88.6292 -18.6212 -88.5559 -18.3359Q-88.4826 -18.0506 -88.4234 -17.762Q-88.3642 -17.4734 -88.3192 -17.1823Q-88.2742 -16.8911 -88.2436 -16.5982Q-88.213 -16.3052 -88.1967 -16.011Q-88.1805 -15.7169 -88.1787 -15.4223Q-88.177 -15.1277 -88.1896 -14.8334Q-88.2023 -14.5391 -88.2294 -14.2458Q-88.2565 -13.9525 -88.298 -13.6608Q-88.3395 -13.3692 -88.3952 -13.0799L-89.5079 -7.30462L-101.291 -9.57484L-89.3292 -8.62078L-89.8377 -2.24512L-101.8 -3.19918L-89.8049 -3.5524L-89.6167 2.84006L-101.611 3.19327L-89.6971 1.76225L-88.9356 8.10211L-100.85 9.53313L-89.0453 7.37694L-88.1573 12.2385Q-88.1044 12.5283 -88.0657 12.8203Q-88.0271 13.1123 -88.0028 13.4059Q-87.9785 13.6995 -87.9687 13.9939Q-87.9589 14.2883 -87.9635 14.5829Q-87.9681 14.8774 -87.9872 15.1714Q-88.0062 15.4654 -88.0397 15.758Q-88.0732 16.0507 -88.121 16.3414Q-88.1688 16.6321 -88.2308 16.9201Q-88.2927 17.2081 -88.3688 17.4927Q-88.4449 17.7772 -88.5348 18.0578Q-88.6247 18.3383 -88.7283 18.6141Q-88.8319 18.8898 -88.9489 19.1602Q-89.0658 19.4306 -89.196 19.6948Q-89.3261 19.9591 -89.469 20.2167Q-89.6119 20.4743 -89.7673 20.7246Q-89.9227 20.9748 -90.0902 21.2172Q-90.2577 21.4595 -90.4368 21.6934Q-90.616 21.9272 -90.8064 22.1519Q-90.9969 22.3767 -91.1981 22.5918Q-91.3993 22.807 -91.6109 23.012Q-91.8224 23.217 -92.0437 23.4114Q-92.2651 23.6058 -92.4957 23.7891Q-92.7263 23.9723 -92.9657 24.1441Q-93.205 24.3158 -93.4525 24.4756Q-93.7 24.6354 -93.955 24.7829Q-94.21 24.9304 -94.4719 25.0651Q-94.7339 25.1999 -95.0021 25.3217Q-95.2704 25.4434 -95.5443 25.5519Q-95.8182 25.6603 -96.097 25.7552Q-96.3759 25.8501 -96.6591 25.9312Q-96.9424 26.0123 -97.2292 26.0793Q-97.516 26.1464 -97.8058 26.1994Q-98.0956 26.2523 -98.3876 26.2909Q-98.6797 26.3296 -98.9733 26.3539Q-99.2668 26.3781 -99.5613 26.388Q-99.8557 26.3978 -100.15 26.3932Q-100.445 26.3886 -100.739 26.3695Q-101.033 26.3504 -101.325 26.317Q-101.618 26.2835 -101.909 26.2357Q-102.199 26.1879 -102.487 26.1259Q-102.775 26.0639 -103.06 25.9879Q-103.345 25.9118 -103.625 25.8219Q-103.906 25.732 -104.181 25.6284Q-104.457 25.5248 -104.728 25.4078Q-104.998 25.2908 -105.262 25.1607Q-105.526 25.0306 -105.784 24.8877Q-106.042 24.7448 -106.292 24.5894Q-106.542 24.434 -106.785 24.2665Q-107.027 24.099 -107.261 23.9198Q-107.495 23.7407 -107.719 23.5502Q-107.944 23.3598 -108.159 23.1586Q-108.374 22.9574 -108.579 22.7458Q-108.784 22.5343 -108.979 22.3129Q-109.173 22.0916 -109.356 21.861Q-109.54 21.6303 -109.711 21.391Q-109.883 21.1517 -110.043 20.9042Q-110.203 20.6567 -110.35 20.4017Q-110.498 20.1467 -110.632 19.8847Q-110.767 19.6228 -110.889 19.3545Q-111.011 19.0863 -111.119 18.8124Q-111.228 18.5385 -111.323 18.2596Q-111.417 17.9807 -111.499 17.6975Q-111.58 17.4143 -111.647 17.1275Q-111.714 16.8406 -111.767 16.5509ZM-95.4381 -57.3937L-93.2852 -61.8116L-89.5964 -68.231L-85.0099 -74.507L-79.6281 -80.1782L-73.8135 -85.0213L-73.2852 -85.3887Q-73.0434 -85.557 -72.7936 -85.7131Q-72.5438 -85.8693 -72.2867 -86.013Q-72.0295 -86.1567 -71.7656 -86.2876Q-71.5017 -86.4185 -71.2317 -86.5363Q-70.9617 -86.6541 -70.6863 -86.7585Q-70.4108 -86.863 -70.1306 -86.9537Q-69.8503 -87.0445 -69.566 -87.1214Q-69.2816 -87.1983 -68.9938 -87.2612Q-68.706 -87.3241 -68.4155 -87.3728Q-68.1249 -87.4214 -67.8324 -87.4558Q-67.5398 -87.4902 -67.2459 -87.5101Q-66.952 -87.5301 -66.6574 -87.5356Q-66.3629 -87.5411 -66.0685 -87.5322Q-65.774 -87.5232 -65.4804 -87.4998Q-65.1867 -87.4765 -64.8945 -87.4387Q-64.6024 -87.4009 -64.3124 -87.3489Q-64.0225 -87.2968 -63.7354 -87.2306Q-63.4484 -87.1644 -63.165 -87.0842Q-62.8815 -87.004 -62.6023 -86.9099Q-62.3232 -86.8159 -62.0489 -86.7083Q-61.7747 -86.6007 -61.5061 -86.4797Q-61.2375 -86.3588 -60.9751 -86.2248Q-60.7128 -86.0908 -60.4573 -85.9442Q-60.2018 -85.7975 -59.9539 -85.6384Q-59.7059 -85.4794 -59.4661 -85.3083Q-59.2262 -85.1373 -58.995 -84.9547Q-58.7639 -84.7722 -58.5419 -84.5784Q-58.32 -84.3847 -58.1078 -84.1804Q-57.8957 -83.976 -57.6938 -83.7615Q-57.4919 -83.547 -57.3008 -83.3228Q-57.1097 -83.0986 -56.9298 -82.8653Q-56.7499 -82.632 -56.5817 -82.3902Q-56.4135 -82.1484 -56.2573 -81.8986Q-56.1012 -81.6488 -55.9575 -81.3916Q-55.8138 -81.1345 -55.6828 -80.8706Q-55.5519 -80.6067 -55.4341 -80.3367Q-55.3163 -80.0667 -55.2119 -79.7912Q-55.1075 -79.5158 -55.0167 -79.2355Q-54.9259 -78.9553 -54.849 -78.6709Q-54.7721 -78.3866 -54.7092 -78.0988Q-54.6463 -77.811 -54.5977 -77.5204Q-54.549 -77.2299 -54.5146 -76.9373Q-54.4803 -76.6447 -54.4603 -76.3508Q-54.4403 -76.0569 -54.4348 -75.7624Q-54.4293 -75.4679 -54.4383 -75.1734Q-54.4472 -74.879 -54.4706 -74.5853Q-54.494 -74.2917 -54.5317 -73.9995Q-54.5695 -73.7074 -54.6215 -73.4174Q-54.6736 -73.1275 -54.7398 -72.8404Q-54.806 -72.5534 -54.8862 -72.2699Q-54.9664 -71.9865 -55.0605 -71.7073Q-55.1545 -71.4281 -55.2621 -71.1539Q-55.3697 -70.8797 -55.4907 -70.6111Q-55.6116 -70.3425 -55.7456 -70.0801Q-55.8796 -69.8177 -56.0263 -69.5623Q-56.173 -69.3068 -56.332 -69.0589Q-56.4911 -68.8109 -56.6621 -68.571Q-56.8331 -68.3312 -57.0157 -68.1Q-57.1983 -67.8688 -57.392 -67.6469Q-57.5857 -67.425 -57.79 -67.2128Q-57.9944 -67.0006 -58.2089 -66.7987Q-58.4235 -66.5969 -58.6476 -66.4058Q-58.8718 -66.2146 -59.1051 -66.0348Q-59.3384 -65.8549 -59.5802 -65.6867L-59.6811 -65.6165L-66.5336 -75.4675L-58.8536 -66.247L-63.7278 -62.1872L-71.4078 -71.4078L-62.7033 -63.1474L-67.0711 -58.5448L-75.7755 -66.8051L-66.087 -59.7248L-69.8311 -54.6014L-79.5197 -61.6818L-69.1151 -55.703L-72.2725 -50.2084L-82.677 -56.1872L-71.8897 -50.9304L-73.8635 -46.88Q-73.9926 -46.6152 -74.1344 -46.3571Q-74.2763 -46.0989 -74.4307 -45.848Q-74.5851 -45.5971 -74.7516 -45.3541Q-74.9181 -45.1111 -75.0963 -44.8765Q-75.2746 -44.642 -75.4641 -44.4165Q-75.6536 -44.1909 -75.854 -43.975Q-76.0543 -43.759 -76.2651 -43.5532Q-76.4758 -43.3473 -76.6963 -43.1521Q-76.9169 -42.9568 -77.1468 -42.7726Q-77.3767 -42.5884 -77.6153 -42.4156Q-77.8539 -42.2429 -78.1008 -42.0821Q-78.3476 -41.9213 -78.602 -41.7729Q-78.8564 -41.6244 -79.1178 -41.4885Q-79.3792 -41.3527 -79.647 -41.2299Q-79.9147 -41.107 -80.1882 -40.9975Q-80.4617 -40.8879 -80.7402 -40.7919Q-81.0187 -40.6959 -81.3015 -40.6137Q-81.5844 -40.5315 -81.871 -40.4633Q-82.1576 -40.395 -82.4471 -40.3409Q-82.7367 -40.2868 -83.0286 -40.247Q-83.3205 -40.2072 -83.6139 -40.1817Q-83.9074 -40.1563 -84.2018 -40.1452Q-84.4962 -40.1342 -84.7907 -40.1377Q-85.0853 -40.1411 -85.3793 -40.159Q-85.6734 -40.1769 -85.9662 -40.2091Q-86.259 -40.2414 -86.5499 -40.2881Q-86.8407 -40.3347 -87.129 -40.3955Q-87.4172 -40.4563 -87.7021 -40.5313Q-87.987 -40.6062 -88.2679 -40.695Q-88.5488 -40.7838 -88.825 -40.8862Q-89.1012 -40.9887 -89.372 -41.1046Q-89.6428 -41.2205 -89.9076 -41.3495Q-90.1724 -41.4786 -90.4306 -41.6205Q-90.6888 -41.7624 -90.9397 -41.9167Q-91.1906 -42.0711 -91.4336 -42.2376Q-91.6766 -42.4041 -91.9111 -42.5824Q-92.1457 -42.7606 -92.3712 -42.9501Q-92.5967 -43.1396 -92.8127 -43.34Q-93.0286 -43.5404 -93.2345 -43.7511Q-93.4403 -43.9618 -93.6356 -44.1824Q-93.8309 -44.4029 -94.0151 -44.6328Q-94.1993 -44.8627 -94.372 -45.1013Q-94.5447 -45.34 -94.7055 -45.5868Q-94.8663 -45.8336 -95.0148 -46.088Q-95.1633 -46.3425 -95.2991 -46.6039Q-95.4349 -46.8653 -95.5578 -47.133Q-95.6806 -47.4008 -95.7902 -47.6742Q-95.8997 -47.9477 -95.9957 -48.2262Q-96.0917 -48.5047 -96.1739 -48.7876Q-96.2562 -49.0704 -96.3244 -49.357Q-96.3926 -49.6436 -96.4467 -49.9331Q-96.5008 -50.2227 -96.5406 -50.5146Q-96.5805 -50.8065 -96.6059 -51.1Q-96.6314 -51.3934 -96.6424 -51.6878Q-96.6534 -51.9822 -96.65 -52.2768Q-96.6466 -52.5713 -96.6287 -52.8654Q-96.6108 -53.1594 -96.5785 -53.4522Q-96.5462 -53.745 -96.4996 -54.0359Q-96.453 -54.3268 -96.3922 -54.615Q-96.3313 -54.9032 -96.2564 -55.1881Q-96.1815 -55.473 -96.0927 -55.7539Q-96.0039 -56.0348 -95.9014 -56.311Q-95.799 -56.5872 -95.6831 -56.858Q-95.5672 -57.1288 -95.4381 -57.3937ZM-36.2769 -105.938L-32.463 -107.585L-25.7554 -110.042L-18.6771 -112.056L-11.2847 -113.477L-3.62796 -114.177L-2.34585 -114.149Q-2.05133 -114.143 -1.75749 -114.122Q-1.46364 -114.101 -1.17117 -114.066Q-0.878697 -114.031 -0.588306 -113.981Q-0.297915 -113.932 -0.0103033 -113.868Q0.277308 -113.804 0.561447 -113.726Q0.845586 -113.649 1.12557 -113.557Q1.40555 -113.465 1.6807 -113.36Q1.95585 -113.255 2.22551 -113.136Q2.49516 -113.018 2.75867 -112.886Q3.02219 -112.754 3.27892 -112.61Q3.53565 -112.466 3.78499 -112.309Q4.03432 -112.152 4.27566 -111.983Q4.517 -111.814 4.74976 -111.633Q4.98251 -111.453 5.20613 -111.261Q5.42975 -111.069 5.64369 -110.867Q5.85763 -110.664 6.06137 -110.451Q6.26512 -110.239 6.45818 -110.016Q6.65124 -109.794 6.83314 -109.562Q7.01505 -109.33 7.18537 -109.09Q7.3557 -108.85 7.51402 -108.601Q7.67234 -108.353 7.81828 -108.097Q7.96422 -107.841 8.09743 -107.578Q8.23064 -107.315 8.3508 -107.046Q8.47096 -106.778 8.57777 -106.503Q8.68459 -106.228 8.7778 -105.949Q8.87102 -105.67 8.95041 -105.386Q9.0298 -105.102 9.09518 -104.815Q9.16055 -104.528 9.21176 -104.238Q9.26296 -103.948 9.29987 -103.655Q9.33677 -103.363 9.3593 -103.069Q9.38182 -102.776 9.3899 -102.481Q9.39799 -102.187 9.39161 -101.892Q9.38523 -101.598 9.36441 -101.304Q9.34359 -101.01 9.30838 -100.717Q9.27317 -100.425 9.22365 -100.135Q9.17413 -99.8442 9.11041 -99.5566Q9.0467 -99.2689 8.96896 -98.9848Q8.89121 -98.7007 8.79962 -98.4207Q8.70802 -98.1407 8.6028 -97.8656Q8.49758 -97.5904 8.37898 -97.3207Q8.26039 -97.0511 8.1287 -96.7876Q7.99702 -96.5241 7.85256 -96.2673Q7.7081 -96.0106 7.55122 -95.7613Q7.39434 -95.5119 7.22542 -95.2706Q7.05649 -95.0293 6.87593 -94.7965Q6.69537 -94.5637 6.5036 -94.3401Q6.31183 -94.1165 6.10933 -93.9026Q5.90682 -93.6886 5.69406 -93.4849Q5.48129 -93.2811 5.25879 -93.0881Q5.03629 -92.895 4.80458 -92.7131Q4.57287 -92.5312 4.33252 -92.3609Q4.09216 -92.1906 3.84374 -92.0322Q3.59532 -91.8739 3.33943 -91.728Q3.08354 -91.582 2.82079 -91.4488Q2.55805 -91.3156 2.28909 -91.1954Q2.02012 -91.0753 1.74559 -90.9685Q1.47105 -90.8617 1.1916 -90.7685Q0.912157 -90.6752 0.628473 -90.5958Q0.344789 -90.5165 0.057552 -90.4511Q-0.229686 -90.3857 -0.519785 -90.3345Q-0.809884 -90.2833 -1.10215 -90.2464Q-1.39441 -90.2095 -1.68813 -90.187Q-1.98185 -90.1644 -2.27632 -90.1564Q-2.5708 -90.1483 -2.86531 -90.1546L-3.47039 -90.1678L-3.21066 -102.165L-2.11899 -90.2147L-8.51057 -89.6308L-9.60224 -101.581L-7.33716 -89.7968L-13.6321 -88.5868L-15.8972 -100.371L-12.6131 -88.8292L-18.7605 -87.0801L-22.0446 -98.6219L-17.9172 -87.3541L-23.8894 -85.1665L-28.0168 -96.4344L-23.2588 -85.418L-26.7609 -83.9054Q-27.0313 -83.7886 -27.3072 -83.6852Q-27.583 -83.5818 -27.8636 -83.4921Q-28.1442 -83.4023 -28.4288 -83.3265Q-28.7135 -83.2506 -29.0015 -83.1888Q-29.2895 -83.127 -29.5802 -83.0794Q-29.8709 -83.0318 -30.1636 -82.9986Q-30.4563 -82.9653 -30.7503 -82.9464Q-31.0443 -82.9276 -31.3389 -82.9231Q-31.6334 -82.9187 -31.9278 -82.9288Q-32.2222 -82.9388 -32.5158 -82.9633Q-32.8094 -82.9877 -33.1014 -83.0266Q-33.3934 -83.0654 -33.6831 -83.1186Q-33.9729 -83.1717 -34.2597 -83.239Q-34.5465 -83.3063 -34.8296 -83.3875Q-35.1128 -83.4688 -35.3916 -83.5639Q-35.6704 -83.659 -35.9442 -83.7676Q-36.2181 -83.8762 -36.4862 -83.9982Q-36.7544 -84.1201 -37.0162 -84.2551Q-37.2781 -84.39 -37.533 -84.5377Q-37.7879 -84.6853 -38.0353 -84.8453Q-38.2826 -85.0052 -38.5219 -85.1772Q-38.7611 -85.3491 -38.9916 -85.5325Q-39.2221 -85.716 -39.4433 -85.9105Q-39.6645 -86.105 -39.8759 -86.3102Q-40.0873 -86.5153 -40.2884 -86.7306Q-40.4895 -86.9459 -40.6798 -87.1708Q-40.87 -87.3957 -41.049 -87.6296Q-41.2281 -87.8636 -41.3954 -88.106Q-41.5627 -88.3485 -41.7179 -88.5988Q-41.8731 -88.8492 -42.0159 -89.1069Q-42.1586 -89.3646 -42.2886 -89.629Q-42.4185 -89.8934 -42.5353 -90.1638Q-42.6521 -90.4342 -42.7555 -90.7101Q-42.8589 -90.9859 -42.9486 -91.2665Q-43.0384 -91.5471 -43.1142 -91.8317Q-43.1901 -92.1164 -43.2519 -92.4044Q-43.3137 -92.6924 -43.3613 -92.9831Q-43.4088 -93.2739 -43.4421 -93.5666Q-43.4754 -93.8593 -43.4942 -94.1532Q-43.5131 -94.4472 -43.5175 -94.7418Q-43.5219 -95.0363 -43.5119 -95.3307Q-43.5019 -95.6251 -43.4774 -95.9187Q-43.4529 -96.2123 -43.4141 -96.5043Q-43.3752 -96.7963 -43.3221 -97.086Q-43.269 -97.3758 -43.2017 -97.6626Q-43.1344 -97.9494 -43.0531 -98.2325Q-42.9719 -98.5157 -42.8768 -98.7945Q-42.7817 -99.0733 -42.6731 -99.3472Q-42.5644 -99.621 -42.4425 -99.8891Q-42.3206 -100.157 -42.1856 -100.419Q-42.0507 -100.681 -41.903 -100.936Q-41.7554 -101.191 -41.5954 -101.438Q-41.4354 -101.686 -41.2635 -101.925Q-41.0916 -102.164 -40.9082 -102.394Q-40.7247 -102.625 -40.5302 -102.846Q-40.3357 -103.067 -40.1305 -103.279Q-39.9254 -103.49 -39.7101 -103.691Q-39.4948 -103.892 -39.2699 -104.083Q-39.045 -104.273 -38.8111 -104.452Q-38.5771 -104.631 -38.3347 -104.798Q-38.0922 -104.966 -37.8418 -105.121Q-37.5915 -105.276 -37.3338 -105.419Q-37.0761 -105.562 -36.8117 -105.691Q-36.5473 -105.821 -36.2769 -105.938ZM40.8404 -101.816L44.1648 -100.115L49.7552 -97.129L55.2664 -94.0619L60.8985 -90.7896L66.5536 -87.2713L68.292 -86.0496Q68.533 -85.8802 68.7654 -85.6992Q68.9978 -85.5182 69.2211 -85.326Q69.4443 -85.1338 69.6579 -84.9309Q69.8714 -84.728 70.0748 -84.5148Q70.2781 -84.3017 70.4707 -84.0788Q70.6634 -83.856 70.8449 -83.6239Q71.0263 -83.3918 71.1962 -83.1512Q71.3661 -82.9105 71.5239 -82.6618Q71.6817 -82.413 71.8272 -82.1569Q71.9727 -81.9007 72.1054 -81.6377Q72.2381 -81.3747 72.3577 -81.1055Q72.4774 -80.8363 72.5837 -80.5616Q72.69 -80.2869 72.7827 -80.0072Q72.8754 -79.7276 72.9542 -79.4438Q73.0331 -79.16 73.0979 -78.8726Q73.1627 -78.5852 73.2134 -78.295Q73.264 -78.0048 73.3004 -77.7125Q73.3367 -77.4202 73.3587 -77.1264Q73.3807 -76.8326 73.3882 -76.5382Q73.3957 -76.2437 73.3888 -75.9492Q73.3818 -75.6547 73.3605 -75.3609Q73.3391 -75.067 73.3033 -74.7746Q73.2675 -74.4822 73.2175 -74.1919Q73.1674 -73.9016 73.1031 -73.6142Q73.0389 -73.3267 72.9606 -73.0427Q72.8823 -72.7587 72.7902 -72.4789Q72.6981 -72.1991 72.5923 -71.9241Q72.4866 -71.6492 72.3675 -71.3797Q72.2484 -71.1103 72.1162 -70.8471Q71.984 -70.5838 71.8391 -70.3273Q71.6941 -70.0709 71.5368 -69.8218Q71.3794 -69.5728 71.21 -69.3318Q71.0406 -69.0908 70.8596 -68.8584Q70.6786 -68.6259 70.4864 -68.4027Q70.2942 -68.1794 70.0913 -67.9659Q69.8884 -67.7523 69.6753 -67.549Q69.4621 -67.3456 69.2393 -67.153Q69.0164 -66.9604 68.7843 -66.7789Q68.5523 -66.5974 68.3116 -66.4276Q68.0709 -66.2577 67.8222 -66.0998Q67.5735 -65.942 67.3173 -65.7965Q67.0611 -65.6511 66.7982 -65.5184Q66.5352 -65.3857 66.266 -65.266Q65.9968 -65.1464 65.722 -65.0401Q65.4473 -64.9338 65.1677 -64.8411Q64.888 -64.7484 64.6042 -64.6696Q64.3204 -64.5907 64.033 -64.5259Q63.7457 -64.461 63.4555 -64.4104Q63.1653 -64.3597 62.8729 -64.3234Q62.5806 -64.287 62.2868 -64.2651Q61.9931 -64.2431 61.6986 -64.2356Q61.4041 -64.228 61.1096 -64.235Q60.8151 -64.2419 60.5213 -64.2633Q60.2275 -64.2847 59.9351 -64.3204Q59.6427 -64.3562 59.3524 -64.4063Q59.0621 -64.4564 58.7746 -64.5206Q58.4871 -64.5849 58.2031 -64.6631Q57.9191 -64.7414 57.6393 -64.8336Q57.3595 -64.9257 57.0846 -65.0314Q56.8096 -65.1372 56.5402 -65.2563Q56.2708 -65.3754 56.0075 -65.5076Q55.7442 -65.6398 55.4878 -65.7847Q55.2313 -65.9297 54.9823 -66.087Q54.7332 -66.2444 54.4922 -66.4137L53.0291 -67.442L59.929 -77.2599L53.5899 -67.0709L48.3726 -70.3168L54.7117 -80.5058L48.68 -70.1319L43.5894 -73.0941L38.44 -75.9638L33.2363 -78.748L29.9118 -80.4484Q29.6496 -80.5825 29.3942 -80.7294Q29.1388 -80.8762 28.891 -81.0354Q28.6431 -81.1946 28.4033 -81.3658Q28.1636 -81.537 27.9325 -81.7197Q27.7015 -81.9024 27.4797 -82.0963Q27.2578 -82.2901 27.0458 -82.4946Q26.8338 -82.6991 26.632 -82.9138Q26.4303 -83.1284 26.2393 -83.3527Q26.0483 -83.577 25.8686 -83.8104Q25.6888 -84.0438 25.5208 -84.2857Q25.3527 -84.5277 25.1967 -84.7776Q25.0407 -85.0274 24.8972 -85.2847Q24.7536 -85.5419 24.6229 -85.8059Q24.4921 -86.0699 24.3745 -86.34Q24.2568 -86.61 24.1526 -86.8856Q24.0483 -87.1611 23.9577 -87.4414Q23.8671 -87.7217 23.7904 -88.0061Q23.7137 -88.2905 23.651 -88.5784Q23.5883 -88.8662 23.5398 -89.1568Q23.4913 -89.4473 23.4571 -89.7399Q23.4229 -90.0325 23.4032 -90.3264Q23.3834 -90.6203 23.3781 -90.9149Q23.3727 -91.2094 23.3818 -91.5039Q23.391 -91.7983 23.4145 -92.0919Q23.4381 -92.3856 23.476 -92.6777Q23.514 -92.9698 23.5662 -93.2598Q23.6184 -93.5497 23.6848 -93.8367Q23.7512 -94.1237 23.8316 -94.4071Q23.912 -94.6905 24.0062 -94.9696Q24.1004 -95.2487 24.2082 -95.5229Q24.316 -95.797 24.4371 -96.0656Q24.5582 -96.3341 24.6924 -96.5964Q24.8265 -96.8586 24.9734 -97.114Q25.1202 -97.3694 25.2794 -97.6172Q25.4386 -97.8651 25.6098 -98.1048Q25.7809 -98.3446 25.9637 -98.5757Q26.1464 -98.8067 26.3403 -99.0285Q26.5341 -99.2504 26.7386 -99.4624Q26.9431 -99.6744 27.1577 -99.8762Q27.3724 -100.078 27.5967 -100.269Q27.821 -100.46 28.0544 -100.64Q28.2878 -100.819 28.5297 -100.987Q28.7717 -101.155 29.0215 -101.311Q29.2714 -101.467 29.5287 -101.611Q29.7859 -101.755 30.0499 -101.885Q30.3139 -102.016 30.584 -102.134Q30.854 -102.251 31.1295 -102.356Q31.4051 -102.46 31.6854 -102.55Q31.9657 -102.641 32.2501 -102.718Q32.5345 -102.795 32.8223 -102.857Q33.1102 -102.92 33.4007 -102.968Q33.6913 -103.017 33.9839 -103.051Q34.2765 -103.085 34.5704 -103.105Q34.8643 -103.125 35.1589 -103.13Q35.4534 -103.135 35.7478 -103.126Q36.0423 -103.117 36.3359 -103.094Q36.6296 -103.07 36.9217 -103.032Q37.2138 -102.994 37.5037 -102.942Q37.7937 -102.89 38.0807 -102.823Q38.3677 -102.757 38.6511 -102.677Q38.9345 -102.596 39.2136 -102.502Q39.4927 -102.408 39.7669 -102.3Q40.041 -102.192 40.3095 -102.071Q40.5781 -101.95 40.8404 -101.816ZM97.2854 -50.9344L98.0737 -49.2806L100.645 -43.1141L102.93 -36.9433L104.967 -30.7708L106.772 -24.7367L107.9 -20.7508Q107.98 -20.4673 108.046 -20.1802Q108.112 -19.8931 108.164 -19.6032Q108.216 -19.3132 108.254 -19.021Q108.291 -18.7288 108.315 -18.4352Q108.338 -18.1415 108.347 -17.8471Q108.355 -17.5526 108.35 -17.2581Q108.344 -16.9636 108.324 -16.6697Q108.304 -16.3758 108.269 -16.0832Q108.235 -15.7906 108.186 -15.5001Q108.137 -15.2096 108.074 -14.9219Q108.011 -14.6341 107.934 -14.3498Q107.857 -14.0654 107.766 -13.7852Q107.675 -13.505 107.571 -13.2296Q107.466 -12.9542 107.348 -12.6843Q107.23 -12.4143 107.099 -12.1505Q106.968 -11.8866 106.825 -11.6295Q106.681 -11.3725 106.524 -11.1227Q106.368 -10.873 106.2 -10.6313Q106.032 -10.3895 105.852 -10.1563Q105.672 -9.92311 105.48 -9.69903Q105.289 -9.47494 105.087 -9.2605Q104.885 -9.04607 104.673 -8.8418Q104.461 -8.63753 104.239 -8.44393Q104.017 -8.25032 103.785 -8.06784Q103.554 -7.88536 103.314 -7.71445Q103.074 -7.54354 102.826 -7.38461Q102.578 -7.22568 102.323 -7.07911Q102.067 -6.93254 101.805 -6.79868Q101.542 -6.66483 101.274 -6.54401Q101.005 -6.42319 100.731 -6.3157Q100.456 -6.20821 100.177 -6.11431Q99.8979 -6.02041 99.6144 -5.94032Q99.3309 -5.86023 99.0438 -5.79415Q98.7568 -5.72807 98.4668 -5.67615Q98.1768 -5.62424 97.8846 -5.58661Q97.5925 -5.54899 97.2988 -5.52574Q97.0051 -5.5025 96.7107 -5.49369Q96.4162 -5.48489 96.1217 -5.49054Q95.8272 -5.49619 95.5333 -5.51629Q95.2394 -5.53638 94.9468 -5.57088Q94.6543 -5.60537 94.3638 -5.65418Q94.0732 -5.70299 93.7855 -5.76599Q93.4977 -5.82899 93.2134 -5.90604Q92.929 -5.98309 92.6488 -6.074Q92.3686 -6.1649 92.0932 -6.26945Q91.8178 -6.37399 91.5479 -6.49193Q91.2779 -6.60986 91.0141 -6.7409Q90.7503 -6.87193 90.4932 -7.01576Q90.2361 -7.15958 89.9864 -7.31585Q89.7366 -7.47212 89.4949 -7.64045Q89.2531 -7.80878 89.0199 -7.98877Q88.7867 -8.16876 88.5626 -8.35998Q88.3386 -8.5512 88.1241 -8.75318Q87.9097 -8.95516 87.7054 -9.16742Q87.5011 -9.37968 87.3075 -9.60171Q87.1139 -9.82373 86.9315 -10.055Q86.749 -10.2863 86.5781 -10.5262Q86.4072 -10.7661 86.2482 -11.0142Q86.0893 -11.2622 85.9427 -11.5177Q85.7962 -11.7733 85.6623 -12.0357Q85.5285 -12.2981 85.4076 -12.5668Q85.2868 -12.8354 85.1793 -13.1097Q85.0718 -13.384 84.9779 -13.6632Q84.884 -13.9424 84.804 -14.2259L83.7797 -17.8567L82.0223 -23.7297L93.5187 -27.1697L82.1233 -23.4088L80.2062 -29.2178L91.6016 -32.9786L80.348 -28.8126L78.2226 -34.5538L89.4762 -38.7198L78.4007 -34.101L76.0376 -39.7675L87.1131 -44.3863L76.2809 -39.2227L75.6209 -40.6072Q75.4942 -40.8731 75.3806 -41.1449Q75.267 -41.4167 75.167 -41.6938Q75.0669 -41.9708 74.9805 -42.2525Q74.8941 -42.5341 74.8217 -42.8196Q74.7492 -43.1052 74.6909 -43.3939Q74.6325 -43.6827 74.5884 -43.9739Q74.5443 -44.2652 74.5145 -44.5583Q74.4848 -44.8513 74.4694 -45.1455Q74.4541 -45.4397 74.4532 -45.7343Q74.4523 -46.0289 74.4659 -46.3231Q74.4794 -46.6174 74.5074 -46.9107Q74.5354 -47.2039 74.5777 -47.4954Q74.62 -47.787 74.6766 -48.0761Q74.7332 -48.3652 74.8039 -48.6511Q74.8746 -48.9371 74.9593 -49.2193Q75.044 -49.5014 75.1424 -49.7791Q75.2408 -50.0567 75.3527 -50.3292Q75.4646 -50.6017 75.5897 -50.8684Q75.7148 -51.1351 75.8529 -51.3953Q75.991 -51.6555 76.1417 -51.9087Q76.2923 -52.1618 76.4553 -52.4072Q76.6182 -52.6527 76.7929 -52.8898Q76.9677 -53.127 77.1539 -53.3553Q77.3401 -53.5835 77.5373 -53.8024Q77.7344 -54.0213 77.9421 -54.2302Q78.1498 -54.4391 78.3674 -54.6376Q78.5851 -54.8361 78.8122 -55.0237Q79.0394 -55.2113 79.2755 -55.3875Q79.5116 -55.5637 79.756 -55.7281Q80.0004 -55.8925 80.2526 -56.0447Q80.5049 -56.1969 80.7642 -56.3366Q81.0236 -56.4762 81.2895 -56.603Q81.5554 -56.7298 81.8272 -56.8433Q82.0991 -56.9569 82.3761 -57.057Q82.6532 -57.157 82.9348 -57.2434Q83.2164 -57.3298 83.502 -57.4022Q83.7875 -57.4747 84.0763 -57.533Q84.365 -57.5914 84.6563 -57.6355Q84.9476 -57.6796 85.2406 -57.7094Q85.5337 -57.7391 85.8279 -57.7545Q86.1221 -57.7698 86.4166 -57.7707Q86.7112 -57.7716 87.0055 -57.758Q87.2998 -57.7445 87.593 -57.7165Q87.8863 -57.6885 88.1778 -57.6462Q88.4693 -57.6038 88.7584 -57.5473Q89.0475 -57.4907 89.3335 -57.42Q89.6195 -57.3493 89.9016 -57.2646Q90.1838 -57.1799 90.4614 -57.0815Q90.7391 -56.9831 91.0116 -56.8712Q91.2841 -56.7593 91.5508 -56.6342Q91.8175 -56.509 92.0777 -56.371Q92.3379 -56.2329 92.591 -56.0822Q92.8442 -55.9315 93.0896 -55.7686Q93.335 -55.6057 93.5722 -55.431Q93.8093 -55.2562 94.0376 -55.07Q94.2659 -54.8838 94.4848 -54.6866Q94.7036 -54.4895 94.9126 -54.2818Q95.1215 -54.0742 95.32 -53.8565Q95.5185 -53.6388 95.7061 -53.4117Q95.8936 -53.1845 96.0698 -52.9484Q96.246 -52.7124 96.4105 -52.4679Q96.5749 -52.2235 96.7271 -51.9713Q96.8793 -51.7191 97.019 -51.4597Q97.1586 -51.2003 97.2854 -50.9344ZM110.804 24.6964L110.503 25.8951L107.55 33.1281L104.274 39.4213L101.143 45.0572L90.653 39.2291L101.287 44.7892L98.4131 50.2858L87.779 44.7256L98.6035 49.9055L96.7303 53.82Q96.6031 54.0857 96.4631 54.3449Q96.323 54.604 96.1704 54.856Q96.0178 55.108 95.8531 55.3522Q95.6883 55.5964 95.5117 55.8322Q95.3352 56.068 95.1473 56.2949Q94.9594 56.5217 94.7605 56.7391Q94.5617 56.9565 94.3525 57.1638Q94.1432 57.3712 93.924 57.568Q93.7049 57.7649 93.4763 57.9507Q93.2477 58.1365 93.0103 58.311Q92.7729 58.4854 92.5273 58.6479Q92.2816 58.8104 92.0282 58.9607Q91.7749 59.111 91.5144 59.2487Q91.254 59.3864 90.9871 59.5112Q90.7203 59.6359 90.4476 59.7474Q90.1749 59.8589 89.8971 59.9569Q89.6193 60.0548 89.337 60.1391Q89.0547 60.2233 88.7687 60.2936Q88.4826 60.3639 88.1934 60.42Q87.9042 60.4762 87.6126 60.5181Q87.3211 60.56 87.0278 60.5875Q86.7345 60.6151 86.4402 60.6282Q86.1459 60.6413 85.8513 60.64Q85.5567 60.6386 85.2626 60.6228Q84.9684 60.607 84.6754 60.5768Q84.3823 60.5466 84.0912 60.5021Q83.8 60.4575 83.5113 60.3988Q83.2226 60.34 82.9372 60.2671Q82.6518 60.1942 82.3703 60.1074Q82.0888 60.0206 81.8119 59.9201Q81.535 59.8196 81.2633 59.7057Q80.9917 59.5917 80.7259 59.4645Q80.4602 59.3374 80.201 59.1973Q79.9419 59.0573 79.6899 58.9047Q79.4379 58.7521 79.1937 58.5873Q78.9495 58.4226 78.7137 58.246Q78.4779 58.0695 78.251 57.8815Q78.0242 57.6936 77.8068 57.4948Q77.5894 57.296 77.3821 57.0867Q77.1747 56.8775 76.9779 56.6583Q76.781 56.4392 76.5952 56.2106Q76.4094 55.982 76.235 55.7446Q76.0605 55.5072 75.898 55.2615Q75.7354 55.0159 75.5851 54.7625Q75.4348 54.5091 75.2972 54.2487Q75.1595 53.9883 75.0347 53.7214Q74.91 53.4546 74.7985 53.1819Q74.687 52.9092 74.589 52.6314Q74.4911 52.3536 74.4068 52.0713Q74.3226 51.789 74.2523 51.5029Q74.182 51.2169 74.1259 50.9277Q74.0697 50.6385 74.0278 50.3469Q73.9859 50.0553 73.9584 49.762Q73.9308 49.4687 73.9177 49.1744Q73.9046 48.8802 73.9059 48.5856Q73.9073 48.291 73.9231 47.9968Q73.9389 47.7027 73.9691 47.4096Q73.9993 47.1166 74.0438 46.8254Q74.0884 46.5342 74.1471 46.2456Q74.2059 45.9569 74.2788 45.6715Q74.3517 45.3861 74.4385 45.1045Q74.5253 44.823 74.6258 44.5461Q74.7263 44.2692 74.8402 43.9976Q74.9542 43.7259 75.0814 43.4602L77.0464 39.3539L80.0894 33.534L83.2154 27.9077L93.7051 33.7359L83.0607 28.1954L86.005 22.5387L96.6494 28.0792L85.5396 23.5436L87.9622 17.6096L99.072 22.1452L87.4344 19.2185L87.5288 18.843Q87.6007 18.5573 87.6864 18.2755Q87.7722 17.9937 87.8717 17.7164Q87.9712 17.4391 88.0842 17.1671Q88.1972 16.895 88.3234 16.6289Q88.4496 16.3627 88.5887 16.103Q88.7278 15.8433 88.8795 15.5908Q89.0312 15.3383 89.1951 15.0935Q89.359 14.8487 89.5347 14.6123Q89.7104 14.3758 89.8975 14.1483Q90.0846 13.9207 90.2826 13.7026Q90.4807 13.4846 90.6891 13.2765Q90.8976 13.0683 91.1161 12.8707Q91.3345 12.6731 91.5624 12.4864Q91.7903 12.2998 92.0271 12.1245Q92.2639 11.9492 92.509 11.7858Q92.7541 11.6224 93.0069 11.4712Q93.2597 11.32 93.5196 11.1813Q93.7796 11.0427 94.046 10.917Q94.3124 10.7913 94.5847 10.6788Q94.8569 10.5664 95.1344 10.4674Q95.4118 10.3684 95.6938 10.2832Q95.9758 10.1979 96.2616 10.1266Q96.5474 10.0553 96.8364 9.99809Q97.1254 9.94089 97.4168 9.89793Q97.7083 9.85498 98.0015 9.82639Q98.2947 9.79779 98.5889 9.78361Q98.8831 9.76943 99.1777 9.76971Q99.4723 9.76998 99.7665 9.78472Q100.061 9.79945 100.354 9.8286Q100.647 9.85775 100.938 9.90125Q101.23 9.94474 101.519 10.0025Q101.807 10.0602 102.093 10.1321Q102.379 10.2039 102.661 10.2897Q102.942 10.3755 103.22 10.475Q103.497 10.5745 103.769 10.6875Q104.041 10.8005 104.307 10.9267Q104.573 11.0529 104.833 11.192Q105.093 11.3311 105.345 11.4828Q105.598 11.6344 105.843 11.7983Q106.087 11.9622 106.324 12.1379Q106.56 12.3136 106.788 12.5007Q107.015 12.6878 107.234 12.8859Q107.452 13.0839 107.66 13.2924Q107.868 13.5009 108.065 13.7194Q108.263 13.9378 108.45 14.1657Q108.636 14.3936 108.812 14.6304Q108.987 14.8671 109.15 15.1122Q109.314 15.3573 109.465 15.6101Q109.616 15.863 109.755 16.1229Q109.893 16.3828 110.019 16.6492Q110.145 16.9157 110.257 17.1879Q110.37 17.4602 110.469 17.7376Q110.568 18.0151 110.653 18.2971Q110.738 18.5791 110.81 18.8649Q110.881 19.1507 110.938 19.4397Q110.995 19.7287 111.038 20.0201Q111.081 20.3115 111.11 20.6047Q111.138 20.8979 111.153 21.1922Q111.167 21.4864 111.166 21.781Q111.166 22.0756 111.151 22.3698Q111.137 22.664 111.108 22.9571Q111.078 23.2503 111.035 23.5416Q110.991 23.833 110.934 24.1218Q110.876 24.4107 110.804 24.6964ZM69.8704 89.8353L69.2574 90.3152L62.6901 94.344L55.9139 97.5915L49.1319 100.162L42.4282 102.212L37.778 103.367Q37.4921 103.438 37.2031 103.495Q36.914 103.552 36.6226 103.595Q36.3311 103.637 36.0379 103.666Q35.7446 103.694 35.4504 103.708Q35.1561 103.722 34.8615 103.721Q34.567 103.721 34.2728 103.706Q33.9786 103.691 33.6854 103.661Q33.3923 103.632 33.101 103.588Q32.8097 103.544 32.5209 103.486Q32.2321 103.428 31.9465 103.356Q31.6609 103.284 31.3791 103.198Q31.0974 103.112 30.8202 103.012Q30.543 102.912 30.2711 102.799Q29.9992 102.686 29.7331 102.559Q29.467 102.433 29.2075 102.294Q28.948 102.154 28.6956 102.002Q28.4432 101.85 28.1986 101.686Q27.954 101.522 27.7177 101.346Q27.4814 101.17 27.2541 100.983Q27.0267 100.796 26.8088 100.597Q26.5909 100.399 26.383 100.19Q26.1751 99.9816 25.9777 99.763Q25.7803 99.5443 25.5939 99.3162Q25.4074 99.0882 25.2324 98.8512Q25.0574 98.6143 24.8942 98.369Q24.731 98.1238 24.58 97.8708Q24.4291 97.6178 24.2907 97.3578Q24.1523 97.0977 24.0269 96.8312Q23.9014 96.5646 23.7892 96.2923Q23.677 96.0199 23.5783 95.7423Q23.4796 95.4648 23.3946 95.1827Q23.3097 94.9007 23.2386 94.6148Q23.1676 94.3289 23.1107 94.0398Q23.0538 93.7508 23.0111 93.4593Q22.9684 93.1678 22.9401 92.8746Q22.9118 92.5814 22.8979 92.2871Q22.884 91.9929 22.8846 91.6983Q22.8852 91.4037 22.9002 91.1095Q22.9152 90.8153 22.9446 90.5222Q22.9741 90.2291 23.0179 89.9378Q23.0617 89.6465 23.1197 89.3577Q23.1777 89.0688 23.2498 88.7832Q23.322 88.4976 23.408 88.2159Q23.4941 87.9341 23.5938 87.657Q23.6936 87.3798 23.8069 87.1079Q23.9201 86.8359 24.0466 86.5699Q24.1731 86.3038 24.3124 86.0443Q24.4518 85.7847 24.6037 85.5324Q24.7556 85.28 24.9198 85.0354Q25.0839 84.7907 25.2598 84.5545Q25.4358 84.3182 25.6231 84.0908Q25.8104 83.8635 26.0087 83.6456Q26.2069 83.4277 26.4156 83.2198Q26.6243 83.0119 26.843 82.8145Q27.0616 82.6171 27.2897 82.4306Q27.5178 82.2442 27.7547 82.0691Q27.9917 81.8941 28.2369 81.7309Q28.4822 81.5677 28.7351 81.4168Q28.9881 81.2658 29.2482 81.1274Q29.5082 80.9891 29.7748 80.8636Q30.0413 80.7382 30.3137 80.626Q30.5861 80.5138 30.8636 80.4151Q31.1412 80.3164 31.4232 80.2314Q31.7053 80.1464 31.9912 80.0754L36.3314 78.9971L39.2248 90.6431L35.7157 79.1676L41.7376 77.3261L45.2467 88.8016L40.9937 77.5806L46.9328 75.3295L51.1859 86.5506L45.9997 75.7291L51.758 72.9694L56.9442 83.7909L50.6692 73.5622L56.1241 70.2158L62.3991 80.4444L55.002 70.9955L55.0762 70.9374Q55.3081 70.7558 55.5487 70.5858Q55.7893 70.4158 56.038 70.2578Q56.2866 70.0999 56.5427 69.9543Q56.7988 69.8087 57.0617 69.6758Q57.3246 69.543 57.5938 69.4232Q57.8629 69.3034 58.1376 69.197Q58.4123 69.0905 58.6918 68.9977Q58.9714 68.9049 59.2552 68.8259Q59.539 68.7469 59.8263 68.6819Q60.1137 68.6169 60.4038 68.5661Q60.694 68.5153 60.9863 68.4788Q61.2786 68.4423 61.5724 68.4202Q61.8661 68.3981 62.1606 68.3904Q62.4551 68.3827 62.7496 68.3895Q63.0441 68.3963 63.3379 68.4175Q63.6317 68.4387 63.9242 68.4744Q64.2166 68.51 64.5069 68.5599Q64.7972 68.6098 65.0848 68.6739Q65.3723 68.738 65.6563 68.8162Q65.9403 68.8943 66.2202 68.9863Q66.5 69.0783 66.7751 69.1839Q67.0501 69.2895 67.3196 69.4084Q67.5891 69.5274 67.8524 69.6595Q68.1157 69.7915 68.3722 69.9363Q68.6288 70.0811 68.8779 70.2384Q69.127 70.3956 69.3681 70.5648Q69.6092 70.7341 69.8417 70.915Q70.0742 71.0959 70.2976 71.2879Q70.5209 71.48 70.7346 71.6828Q70.9483 71.8856 71.1517 72.0987Q71.3551 72.3117 71.5479 72.5345Q71.7407 72.7573 71.9222 72.9892Q72.1038 73.2212 72.2738 73.4618Q72.4438 73.7024 72.6018 73.951Q72.7598 74.1996 72.9053 74.4557Q73.0509 74.7118 73.1838 74.9747Q73.3166 75.2377 73.4364 75.5068Q73.5562 75.7759 73.6626 76.0506Q73.7691 76.3253 73.8619 76.6049Q73.9547 76.8844 74.0337 77.1682Q74.1127 77.452 74.1777 77.7394Q74.2427 78.0267 74.2935 78.3169Q74.3443 78.607 74.3808 78.8993Q74.4173 79.1917 74.4394 79.4854Q74.4615 79.7792 74.4692 80.0736Q74.4769 80.3681 74.4701 80.6626Q74.4633 80.9571 74.4421 81.251Q74.4209 81.5448 74.3853 81.8372Q74.3496 82.1296 74.2997 82.4199Q74.2498 82.7103 74.1857 82.9978Q74.1216 83.2853 74.0434 83.5693Q73.9653 83.8534 73.8733 84.1332Q73.7813 84.4131 73.6757 84.6881Q73.5701 84.9631 73.4512 85.2326Q73.3322 85.5021 73.2002 85.7654Q73.0681 86.0287 72.9233 86.2853Q72.7785 86.5418 72.6213 86.7909Q72.464 87.04 72.2948 87.2811Q72.1255 87.5222 71.9446 87.7548Q71.7637 87.9873 71.5717 88.2106Q71.3796 88.434 71.1768 88.6476Q70.974 88.8613 70.7609 89.0647Q70.5479 89.2682 70.3251 89.4609Q70.1024 89.6537 69.8704 89.8353ZM-2.81499 109.655L-9.48976 109.797L-16.7213 109.347L-23.9007 108.234L-30.8347 106.548L-36.196 104.844Q-36.4768 104.755 -36.7528 104.652Q-37.0288 104.549 -37.2995 104.433Q-37.5702 104.317 -37.8348 104.187Q-38.0994 104.058 -38.3573 103.916Q-38.6153 103.773 -38.866 103.619Q-39.1166 103.464 -39.3594 103.297Q-39.6021 103.13 -39.8364 102.952Q-40.0707 102.773 -40.2959 102.583Q-40.5212 102.393 -40.7368 102.193Q-40.9525 101.992 -41.158 101.781Q-41.3636 101.57 -41.5585 101.349Q-41.7535 101.128 -41.9373 100.898Q-42.1212 100.668 -42.2936 100.429Q-42.4659 100.19 -42.6263 99.943Q-42.7868 99.6959 -42.9349 99.4413Q-43.083 99.1866 -43.2184 98.925Q-43.3539 98.6634 -43.4763 98.3955Q-43.5987 98.1276 -43.7079 97.8539Q-43.817 97.5803 -43.9126 97.3017Q-44.0082 97.023 -44.09 96.74Q-44.1718 96.457 -44.2396 96.1704Q-44.3074 95.8837 -44.3611 95.594Q-44.4148 95.3044 -44.4541 95.0125Q-44.4935 94.7205 -44.5185 94.427Q-44.5436 94.1335 -44.5542 93.8391Q-44.5647 93.5447 -44.5609 93.2501Q-44.557 92.9556 -44.5387 92.6616Q-44.5203 92.3675 -44.4876 92.0748Q-44.4549 91.782 -44.4078 91.4912Q-44.3608 91.2004 -44.2995 90.9123Q-44.2383 90.6241 -44.1629 90.3393Q-44.0876 90.0546 -43.9984 89.7738Q-43.9092 89.4931 -43.8063 89.217Q-43.7034 88.941 -43.5871 88.6703Q-43.4708 88.3997 -43.3414 88.1351Q-43.2119 87.8704 -43.0696 87.6125Q-42.9274 87.3545 -42.7726 87.1039Q-42.6179 86.8532 -42.451 86.6105Q-42.2841 86.3677 -42.1055 86.1334Q-41.927 85.8991 -41.7371 85.6739Q-41.5472 85.4486 -41.3466 85.233Q-41.1459 85.0173 -40.9349 84.8118Q-40.7238 84.6063 -40.503 84.4113Q-40.2821 84.2164 -40.052 84.0325Q-39.8218 83.8486 -39.5829 83.6763Q-39.344 83.5039 -39.097 83.3435Q-38.8499 83.1831 -38.5952 83.035Q-38.3406 82.8868 -38.079 82.7514Q-37.8174 82.616 -37.5495 82.4935Q-37.2815 82.3711 -37.0079 82.2619Q-36.7343 82.1528 -36.4556 82.0572Q-36.177 81.9616 -35.894 81.8798Q-35.611 81.798 -35.3243 81.7302Q-35.0377 81.6624 -34.748 81.6087Q-34.4583 81.5551 -34.1664 81.5157Q-33.8745 81.4763 -33.581 81.4513Q-33.2874 81.4263 -32.993 81.4157Q-32.6986 81.4051 -32.4041 81.409Q-32.1095 81.4128 -31.8155 81.4312Q-31.5215 81.4495 -31.2287 81.4822Q-30.936 81.5149 -30.6452 81.562Q-30.3544 81.609 -30.0662 81.6703Q-29.7781 81.7316 -29.4933 81.8069Q-29.2085 81.8822 -28.9278 81.9715L-23.9618 83.5495L-27.596 94.9859L-24.7603 83.3258L-18.7244 84.7937L-21.56 96.4538L-19.7226 84.5953L-13.5899 85.5456L-15.4273 97.4041L-14.6821 85.4272L-8.49858 85.8119L-9.24376 97.7888L-9.4978 85.7915L-3.32306 85.6607Q-3.02854 85.6545 -2.73407 85.6627Q-2.43961 85.6709 -2.1459 85.6936Q-1.85218 85.7162 -1.55994 85.7533Q-1.26769 85.7903 -0.97762 85.8417Q-0.687545 85.893 -0.400339 85.9585Q-0.113132 86.024 0.170514 86.1036Q0.454159 86.1831 0.733562 86.2765Q1.01296 86.3698 1.28745 86.4767Q1.56193 86.5837 1.83084 86.704Q2.09975 86.8243 2.36243 86.9576Q2.62511 87.0909 2.88093 87.237Q3.13675 87.3831 3.3851 87.5415Q3.63345 87.6999 3.87372 87.8704Q4.11399 88.0408 4.34562 88.2228Q4.57724 88.4048 4.79965 88.598Q5.02206 88.7912 5.23472 88.995Q5.44739 89.1989 5.6498 89.4129Q5.8522 89.6269 6.04386 89.8506Q6.23552 90.0744 6.41598 90.3072Q6.59643 90.54 6.76524 90.7815Q6.93405 91.0229 7.09081 91.2723Q7.24757 91.5217 7.39191 91.7785Q7.53624 92.0353 7.6678 92.2989Q7.79936 92.5624 7.91783 92.8322Q8.0363 93.1019 8.14139 93.3771Q8.24648 93.6523 8.33794 93.9323Q8.4294 94.2123 8.50701 94.4965Q8.58463 94.7807 8.6482 95.0683Q8.71177 95.356 8.76116 95.6464Q8.81054 95.9368 8.84561 96.2293Q8.88069 96.5218 8.90137 96.8156Q8.92205 97.1095 8.92828 97.404Q8.93452 97.6985 8.9263 97.993Q8.91807 98.2875 8.89541 98.5812Q8.87275 98.8749 8.8357 99.1671Q8.79866 99.4594 8.74732 99.7494Q8.69598 100.04 8.63046 100.327Q8.56495 100.614 8.48542 100.898Q8.4059 101.181 8.31255 101.461Q8.2192 101.74 8.11226 102.015Q8.00531 102.289 7.88503 102.558Q7.76474 102.827 7.63141 103.089Q7.49807 103.352 7.35201 103.608Q7.20595 103.864 7.0475 104.112Q6.88906 104.36 6.71863 104.601Q6.5482 104.841 6.36618 105.073Q6.18416 105.304 5.99099 105.527Q5.79783 105.749 5.59398 105.962Q5.39013 106.174 5.1761 106.377Q4.96206 106.579 4.73836 106.771Q4.51465 106.963 4.2818 107.143Q4.04896 107.323 3.80754 107.492Q3.56612 107.661 3.31671 107.818Q3.0673 107.975 2.8105 108.119Q2.5537 108.263 2.29013 108.395Q2.02655 108.526 1.75684 108.645Q1.48713 108.763 1.21193 108.868Q0.936728 108.974 0.656703 109.065Q0.376677 109.156 0.0925013 109.234Q-0.191675 109.312 -0.479316 109.375Q-0.766958 109.439 -1.05737 109.488Q-1.34779 109.538 -1.64028 109.573Q-1.93276 109.608 -2.22662 109.628Q-2.52048 109.649 -2.81499 109.655Z" />
		<path fill="white" transform="matrix(1.97728 0 0 -1.96297 1322.13 927.339)" d="M-23.5739 -25.1394L1.8512 -29.4216L5.06281 -18.7163C33.6492 -7.92938 26.9265 20.7167 10.6831 27.8518C-4.57196 34.275 -32.9711 22.3663 -19.2547 -9.65085L-23.5739 -25.1394ZM-15.2773 -26.4776L-13.5208 -19.5697M-5.64252 -27.8158L-4.58135 -23.5197M-7.78357 1.89145L-5.0559 9.94053M-1.36035 -5.8699L0.925049 0.793099" fill-rule="evenodd" />
		<path fill="none" stroke="black" stroke-width="5.0999999" stroke-linecap="round" stroke-linejoin="round" transform="matrix(1.97728 0 0 -1.96297 1322.13 927.339)" d="M-23.5739 -25.1394L1.8512 -29.4216L5.06281 -18.7163C33.6492 -7.92938 26.9265 20.7167 10.6831 27.8518C-4.57196 34.275 -32.9711 22.3663 -19.2547 -9.65085L-23.5739 -25.1394ZM-15.2773 -26.4776L-13.5208 -19.5697M-5.64252 -27.8158L-4.58135 -23.5197M-7.78357 1.89145L-5.0559 9.94053M-1.36035 -5.8699L0.925049 0.793099" fill-rule="evenodd" />
		</g><g transform="translate(1920,0) scale(-1,1)"><path fill="none" stroke="black" stroke-width="12.5" stroke-miterlimit="10" transform="matrix(0.974275 0 0 -1.04788 1337.61 1041.17)" d="M-104.798 -161.281L-125.289 -61.0653L147.43 -62.057L118.88 -138.827C125.645 -126.614 60.0931 -48.1879 2.38653 -48.1879C-40.9844 -48.1879 -102.383 -110.042 -104.798 -161.281Z" fill-rule="evenodd" />
		<path fill="#484848" transform="matrix(0.371367 0.459619 0.371367 -0.459619 1430.22 1102.69)" d="M0 100C-55.2285 100 -100 55.2285 -100 0C-100 -55.2285 -55.2285 -100 0 -100C55.2285 -100 100 -55.2285 100 0C100 55.2285 55.2285 100 0 100Z" />
		<path fill="none" stroke="black" stroke-width="24" stroke-linecap="round" stroke-miterlimit="10" transform="matrix(0.371367 0.459619 0.371367 -0.459619 1430.22 1102.69)" d="M93.6798 -35.0644C97.7658 -24.1531 100 -12.3375 100 0C100 55.2285 55.2285 100 0 100C-55.2285 100 -100 55.2285 -100 0C-100 -7.05767 -99.2689 -13.9446 -97.8782 -20.5891" />
		<path fill="#484848" transform="matrix(0.371367 0.459619 0.371367 -0.459619 1256.72 1119.16)" d="M0 100C-55.2285 100 -100 55.2285 -100 0C-100 -55.2285 -55.2285 -100 0 -100C55.2285 -100 100 -55.2285 100 0C100 55.2285 55.2285 100 0 100Z" fill-rule="evenodd" />
		<path fill="none" stroke="black" stroke-width="24" stroke-linecap="round" stroke-miterlimit="10" transform="matrix(0.371367 0.459619 0.371367 -0.459619 1256.72 1119.16)" d="M-6.30406 99.8045C-58.5956 96.5517 -100 53.1111 -100 0C-100 -55.2285 -55.2285 -100 0 -100C24.225 -100 46.438 -91.386 63.7434 -77.054" />
		<path fill="#484848" transform="matrix(0.371367 0.459619 0.371367 -0.459619 1376.82 1039.86)" d="M0 100C-55.2285 100 -100 55.2285 -100 0C-100 -55.2285 -55.2285 -100 0 -100C55.2285 -100 100 -55.2285 100 0C100 55.2285 55.2285 100 0 100Z" />
		<path fill="none" stroke="black" stroke-width="24" stroke-linecap="round" stroke-miterlimit="10" transform="matrix(0.371367 0.459619 0.371367 -0.459619 1376.82 1039.86)" d="M92.0512 39.1374C76.8201 74.9156 41.3394 100 0 100C-55.2285 100 -100 55.2285 -100 0C-100 -13.8891 -97.1685 -27.1168 -92.0512 -39.1374" />
		<path fill="#484848" transform="matrix(0.371367 0.459619 0.371367 -0.459619 1300.11 1044.63)" d="M0 100C-55.2285 100 -100 55.2285 -100 0C-100 -55.2285 -55.2285 -100 0 -100C55.2285 -100 100 -55.2285 100 0C100 55.2285 55.2285 100 0 100Z" />
		<path fill="none" stroke="black" stroke-width="24" stroke-linecap="round" stroke-miterlimit="10" transform="matrix(0.371367 0.459619 0.371367 -0.459619 1300.11 1044.63)" d="M44.2802 89.6868C30.9327 96.2893 15.8997 100 0 100C-55.2285 100 -100 55.2285 -100 0C-100 -33.263 -83.7595 -62.7328 -58.7754 -80.9127" />
	</g></g></g></svg>