<svg width="48" height="50" viewBox="0 0 48 50" fill="none" xmlns="http://www.w3.org/2000/svg">
<path d="M40.5754 20.3545L28.5948 7.58812C26.4967 5.3524 22.7449 6.83715 22.7449 9.90318V34.4189" stroke="black" stroke-width="13" stroke-linecap="round"/>
<path d="M14.354 31.2179C17.1307 30.5769 19.6641 30.8871 21.471 31.6866C23.2759 32.4853 24.0874 33.6086 24.316 34.5978C24.5443 35.5871 24.3076 36.9531 23.0353 38.4625C21.7618 39.9731 19.6207 41.3625 16.8441 42.0036C14.0674 42.6446 11.5331 42.3347 9.72621 41.5351C7.92128 40.7363 7.11034 39.612 6.88196 38.6228C6.65376 37.6336 6.89001 36.2682 8.16188 34.7593C9.43538 33.2485 11.5773 31.859 14.354 31.2179Z" fill="black" stroke="black" stroke-width="9.39966"/>
</svg>
