<svg width="66" height="50" viewBox="0 0 66 50" fill="none" xmlns="http://www.w3.org/2000/svg">
<path d="M23.0303 33.5644V9.88306C23.0303 8.01465 24.5449 6.5 26.4133 6.5H53.4778C55.3462 6.5 56.8608 8.01465 56.8608 9.88306V33.5644" stroke="black" stroke-width="13" stroke-linecap="round"/>
<path d="M14.4332 29.876C17.1304 28.9564 19.6822 29.0078 21.5609 29.6197C23.4376 30.231 24.359 31.2662 24.6867 32.227C25.0144 33.188 24.9176 34.571 23.8051 36.2017C22.6915 37.8338 20.7025 39.4335 18.0053 40.3531C15.308 41.2727 12.7554 41.2216 10.8767 40.6097C8.99996 39.9982 8.07906 38.962 7.75144 38.0011C7.424 37.0402 7.52041 35.6579 8.63252 34.0276C9.74607 32.3954 11.7359 30.7956 14.4332 29.876Z" fill="black" stroke="black" stroke-width="9.39966"/>
<path d="M48.0646 30.4749C50.7362 29.564 53.2622 29.6155 55.1198 30.2206C56.9756 30.8251 57.8809 31.8464 58.2021 32.7881C58.5232 33.7299 58.4306 35.0923 57.3305 36.7047C56.2295 38.3184 54.2609 39.9024 51.5895 40.8133C48.9178 41.7242 46.391 41.673 44.5334 41.0679C42.6775 40.4633 41.7728 39.4409 41.4517 38.4991C41.1307 37.5574 41.2228 36.196 42.3227 34.5838C43.4237 32.9699 45.3929 31.3858 48.0646 30.4749Z" fill="black" stroke="black" stroke-width="9.39966"/>
</svg>
