<?xml version='1.0' encoding='utf-8'?>
<svg xmlns="http://www.w3.org/2000/svg" version="1.1" width="400" height="400" viewBox="0 0 400 400">
  <g>
    <path fill="#FFFFFF" stroke="#FFFFFF" stroke-width="13.0" stroke-linecap="round" stroke-linejoin="round" d=" M 120.627, 83.453 115.491, 91.596 115.184, 92.116 114.930, 92.638 114.727, 93.163 114.577, 93.689 112.675, 100.728 112.575, 101.267 112.530, 101.807 112.363, 111.806 112.196, 121.804 112.030, 131.803 111.863, 141.802 111.696, 151.800 111.529, 161.799 111.363, 171.797 111.196, 181.796 111.029, 191.795 110.923, 198.164 110.931, 198.705 110.993, 199.247 111.109, 199.789 111.278, 200.331 112.941, 205.268 113.159, 205.799 113.430, 206.330 113.753, 206.859 114.129, 207.387 114.556, 207.914 115.034, 208.439 115.564, 208.961 116.145, 209.481 116.776, 209.998 117.458, 210.511 125.593, 216.326 125.909, 216.552 126.565, 217.010 127.264, 217.464 128.008, 217.914 128.795, 218.360 129.625, 218.802 130.497, 219.240 131.411, 219.673 132.367, 220.100 133.363, 220.523 134.399, 220.940 135.475, 221.351 136.590, 221.756 137.743, 222.155 138.933, 222.547 140.160, 222.933 141.424, 223.312 142.722, 223.683 144.055, 224.047 145.422, 224.404 146.821, 224.752 148.253, 225.092 149.716, 225.425 151.209, 225.748 152.731, 226.063 154.282, 226.369 155.861, 226.666 157.466, 226.954 159.097, 227.233 160.752, 227.501 162.431, 227.760 164.132, 228.010 165.856, 228.249 167.599, 228.478 169.363, 228.696 171.144, 228.905 172.944, 229.102 174.759, 229.289 176.590, 229.465 178.434, 229.631 180.292, 229.785 182.162, 229.928 184.042, 230.060 185.932, 230.180 187.830, 230.290 189.736, 230.387 191.648, 230.474 193.565, 230.549 195.486, 230.612 197.410, 230.663 199.335, 230.704 201.260, 230.732 203.185, 230.749 205.108, 230.754 207.028, 230.747 208.943, 230.728 210.853, 230.698 212.757, 230.657 214.653, 230.603 216.540, 230.538 218.417, 230.462 220.283, 230.374 222.137, 230.274 223.978, 230.163 225.804, 230.041 227.614, 229.907 229.408, 229.763 231.184, 229.607 232.942, 229.440 234.679, 229.262 236.396, 229.074 238.090, 228.875 239.762, 228.665 241.410, 228.445 243.033, 228.214 244.630, 227.974 246.200, 227.723 247.742, 227.462 249.256, 227.192 250.740, 226.912 252.193, 226.623 253.615, 226.325 255.004, 226.017 256.361, 225.701 257.683, 225.376 258.971, 225.043 260.223, 224.701 261.439, 224.352 262.618, 223.994 263.759, 223.629 264.862, 223.257 265.925, 222.877 266.949, 222.490 267.933, 222.097 268.876, 221.697 269.777, 221.291 270.636, 220.879 271.453, 220.461 272.227, 220.038 272.957, 219.609 273.643, 219.176 281.968, 213.635 282.264, 213.438 282.980, 212.949 283.646, 212.455 284.262, 211.957 284.827, 211.454 285.341, 210.947 285.804, 210.436 286.215, 209.922 286.574, 209.404 286.881, 208.884 287.136, 208.362 287.338, 207.837 289.167, 202.951 289.320, 202.413 289.419, 201.874 289.464, 201.334 289.631, 191.336 289.798, 181.337 289.965, 171.338 290.132, 161.340 290.298, 151.341 290.465, 141.343 290.632, 131.344 290.799, 121.345 290.965, 111.347 291.072, 104.978 291.063, 104.436 291.001, 103.895 290.885, 103.353 289.220, 96.261 289.054, 95.730 288.836, 95.199 288.565, 94.669 283.560, 86.114 " />
    <path fill="#FFFFFF" stroke="#FFFFFF" stroke-width="13.0" stroke-linecap="round" stroke-linejoin="round" d=" M 282.676, 87.262 282.654, 87.380 282.516, 87.866 282.329, 88.350 282.094, 88.832 281.811, 89.311 281.480, 89.788 281.101, 90.262 280.674, 90.733 280.201, 91.200 279.680, 91.664 279.112, 92.123 278.498, 92.579 277.838, 93.029 277.132, 93.475 276.382, 93.916 275.586, 94.351 274.746, 94.781 273.863, 95.205 272.936, 95.622 271.966, 96.033 270.955, 96.438 269.902, 96.835 268.808, 97.226 267.674, 97.609 266.500, 97.984 265.288, 98.352 264.038, 98.712 262.750, 99.063 261.426, 99.406 260.066, 99.740 258.671, 100.065 258.440, 100.116 257.242, 100.381 255.780, 100.688 254.286, 100.985 252.760, 101.273 251.203, 101.551 249.617, 101.819 248.003, 102.077 246.360, 102.324 244.692, 102.561 242.997, 102.788 241.278, 103.003 239.535, 103.208 237.770, 103.402 235.983, 103.585 234.176, 103.756 232.349, 103.917 230.505, 104.065 228.643, 104.203 226.765, 104.328 224.872, 104.442 222.966, 104.545 221.047, 104.635 219.117, 104.714 217.176, 104.781 215.226, 104.836 213.269, 104.879 211.304, 104.910 209.335, 104.928 207.360, 104.935 205.383, 104.930 203.404, 104.913 201.424, 104.884 199.444, 104.843 197.466, 104.790 195.491, 104.725 193.519, 104.648 191.553, 104.559 189.593, 104.458 187.641, 104.346 185.698, 104.222 183.764, 104.086 181.841, 103.939 179.931, 103.781 178.034, 103.611 176.151, 103.430 174.284, 103.237 172.434, 103.034 170.602, 102.820 168.789, 102.595 166.996, 102.360 165.224, 102.114 163.474, 101.858 161.747, 101.591 160.045, 101.315 158.368, 101.028 156.717, 100.732 155.094, 100.427 153.499, 100.112 151.934, 99.788 150.398, 99.455 148.894, 99.114 147.422, 98.764 145.983, 98.405 144.820, 98.102 144.577, 98.039 143.206, 97.665 141.871, 97.283 140.572, 96.893 139.310, 96.497 138.086, 96.093 136.900, 95.683 135.754, 95.266 134.648, 94.844 133.582, 94.415 132.558, 93.980 131.575, 93.540 130.635, 93.095 129.738, 92.645 128.885, 92.191 128.075, 91.732 127.311, 91.269 126.591, 90.802 125.917, 90.332 125.289, 89.858 124.707, 89.382 124.171, 88.902 123.683, 88.421 123.242, 87.937 122.848, 87.452 122.502, 86.965 122.204, 86.477 121.954, 85.988 121.753, 85.498 121.600, 85.009 121.533, 84.697 " />
    <path fill="#FFFFFF" stroke="#FFFFFF" stroke-width="13.0" stroke-linecap="round" stroke-linejoin="round" d=" M 258.440, 100.116 258.997, 99.969 261.101, 99.359 262.497, 98.943 264.529, 98.294 266.435, 97.620 268.211, 96.925 269.853, 96.208 271.340, 95.532 272.878, 94.779 274.275, 94.009 275.722, 93.114 276.997, 92.310 278.122, 91.491 279.492, 90.393 280.481, 89.545 281.725, 88.274 282.569, 87.401 282.676, 87.262 283.251, 86.516 283.560, 86.114 284.356, 85.081 285.287, 83.526 285.818, 82.611 286.566, 80.948 286.931, 80.017 287.484, 78.272 287.680, 77.329 288.027, 75.528 288.164, 73.699 288.188, 72.747 288.113, 70.915 287.965, 69.962 287.678, 68.154 287.185, 66.391 286.867, 65.448 286.175, 63.761 285.691, 62.827 284.813, 61.242 284.169, 60.322 283.119, 58.862 282.321, 57.960 281.119, 56.647 280.175, 55.766 278.841, 54.621 277.759, 53.764 276.526, 52.917 275.107, 51.973 273.752, 51.155 272.253, 50.350 270.787, 49.623 269.183, 48.850 267.444, 48.094 265.575, 47.356 263.579, 46.637 262.193, 46.172 260.122, 45.490 257.935, 44.830 255.637, 44.193 253.232, 43.580 250.725, 42.993 248.121, 42.433 245.426, 41.900 242.643, 41.397 239.780, 40.923 236.843, 40.481 236.015, 40.359 233.081, 39.959 230.086, 39.590 227.036, 39.254 223.936, 38.951 220.793, 38.683 217.613, 38.448 214.404, 38.249 211.170, 38.085 207.919, 37.957 204.657, 37.864 201.391, 37.808 198.127, 37.788 194.872, 37.804 191.633, 37.856 188.415, 37.945 185.226, 38.069 182.073, 38.230 178.960, 38.425 175.895, 38.656 172.883, 38.921 169.931, 39.220 169.108, 39.313 166.149, 39.654 163.265, 40.028 160.459, 40.435 157.738, 40.875 155.107, 41.345 152.572, 41.845 150.138, 42.374 147.809, 42.932 145.590, 43.516 143.486, 44.126 142.090, 44.542 140.058, 45.192 138.153, 45.865 136.376, 46.561 134.734, 47.278 133.248, 47.954 131.709, 48.706 130.312, 49.477 128.865, 50.372 127.590, 51.175 126.465, 51.994 125.095, 53.093 124.106, 53.940 122.862, 55.211 122.018, 56.085 121.336, 56.970 120.231, 58.405 119.300, 59.959 118.769, 60.875 118.022, 62.537 117.656, 63.468 117.104, 65.213 116.907, 66.156 116.560, 67.957 116.423, 69.786 116.399, 70.738 116.474, 72.571 116.622, 73.523 116.909, 75.332 117.402, 77.095 117.720, 78.038 118.412, 79.725 118.896, 80.658 119.774, 82.244 120.418, 83.163 120.627, 83.453 121.468, 84.624 121.533, 84.697 122.266, 85.526 123.468, 86.838 124.412, 87.719 125.746, 88.865 126.828, 89.722 128.061, 90.568 129.480, 91.513 130.835, 92.331 132.334, 93.136 133.800, 93.863 135.404, 94.635 137.143, 95.392 139.012, 96.130 141.008, 96.849 142.395, 97.313 144.465, 97.995 144.820, 98.102 " />
    <path fill="#FFFFFF" stroke="#FFFFFF" stroke-width="13.0" stroke-linecap="round" stroke-linejoin="round" d=" M 192.995, 71.587 195.134, 71.553 198.052, 71.538 200.979, 71.556 203.908, 71.607 206.834, 71.690 209.749, 71.805 211.592, 71.898 " />
    <path fill="#FFFFFF" stroke="#FFFFFF" stroke-width="13.0" stroke-linecap="round" stroke-linejoin="round" d=" M 279.492, 90.393 278.347, 91.226 277.049, 92.044 275.599, 92.844 274.002, 93.625 272.260, 94.385 270.377, 95.123 268.356, 95.837 266.202, 96.525 263.918, 97.187 261.510, 97.822 258.983, 98.426 256.341, 99.001 253.590, 99.544 250.735, 100.054 247.782, 100.530 244.737, 100.972 241.606, 101.378 238.396, 101.748 235.112, 102.081 231.762, 102.376 228.353, 102.632 224.890, 102.850 221.382, 103.028 217.834, 103.167 214.255, 103.265 210.652, 103.323 207.031, 103.341 203.401, 103.319 199.768, 103.257 196.139, 103.154 192.523, 103.011 188.926, 102.828 185.355, 102.607 181.818, 102.346 178.322, 102.047 174.874, 101.710 171.480, 101.337 168.149, 100.927 164.885, 100.481 161.697, 100.001 158.590, 99.487 155.571, 98.941 152.645, 98.363 149.819, 97.755 147.098, 97.118 144.488, 96.453 141.994, 95.761 139.621, 95.045 137.374, 94.305 135.257, 93.542 133.275, 92.759 131.431, 91.957 129.730, 91.138 128.175, 90.303 126.768, 89.453 125.513, 88.592 124.412, 87.719 " />
    <path fill="#FFFFFF" stroke="#FFFFFF" stroke-width="13.0" stroke-linecap="round" stroke-linejoin="round" d=" M 172.735, 69.666 170.886, 69.387 168.451, 68.984 166.084, 68.556 163.791, 68.103 161.576, 67.627 160.170, 67.297 159.444, 67.127 157.399, 66.606 155.854, 66.178 155.444, 66.064 153.584, 65.503 152.953, 65.295 151.823, 64.923 " />
    <path fill="#FFFFFF" stroke="#FFFFFF" stroke-width="13.0" stroke-linecap="round" stroke-linejoin="round" d=" M 231.820, 70.663 231.730, 70.672 229.173, 70.931 226.472, 71.169 223.724, 71.376 220.932, 71.551 218.104, 71.695 215.244, 71.806 212.359, 71.886 211.592, 71.898 209.454, 71.933 206.535, 71.947 203.608, 71.929 200.679, 71.879 197.753, 71.796 194.838, 71.681 192.995, 71.587 191.938, 71.534 189.059, 71.355 186.208, 71.145 183.389, 70.904 180.609, 70.632 177.874, 70.331 175.188, 70.000 172.735, 69.666 172.557, 69.641 " />
    <path fill="#FFFFFF" stroke="#FFFFFF" stroke-width="13.0" stroke-linecap="round" stroke-linejoin="round" d=" M 252.789, 66.663 251.786, 66.954 250.999, 67.182 249.112, 67.679 248.900, 67.730 247.131, 68.153 245.060, 68.603 244.574, 68.699 242.904, 69.029 240.667, 69.429 238.352, 69.802 235.966, 70.148 233.512, 70.467 231.730, 70.672 " />
  </g>
</svg>