<?xml version='1.0' encoding='utf-8'?>
<svg xmlns="http://www.w3.org/2000/svg" version="1.1" width="400" height="400" viewBox="0 0 400 400">
  <g>
    <path fill="#FFFFFF" stroke="#FFFFFF" stroke-width="13.0" stroke-linecap="round" stroke-linejoin="round" d=" M 284.430, 69.719 284.435, 69.852 284.400, 70.220 284.317, 70.586 284.185, 70.950 284.004, 71.312 283.776, 71.672 283.499, 72.029 283.174, 72.384 282.801, 72.735 282.380, 73.084 281.913, 73.429 281.398, 73.770 280.836, 74.108 280.228, 74.441 279.574, 74.771 278.875, 75.096 278.130, 75.416 277.340, 75.732 276.506, 76.043 275.628, 76.348 274.707, 76.648 273.743, 76.943 272.737, 77.232 271.690, 77.515 270.601, 77.792 270.212, 77.886 269.473, 78.063 268.305, 78.327 267.097, 78.585 265.852, 78.836 264.570, 79.081 263.250, 79.318 261.895, 79.548 260.505, 79.771 259.081, 79.987 257.623, 80.195 256.133, 80.395 254.612, 80.588 253.060, 80.772 251.478, 80.949 249.867, 81.118 248.229, 81.278 246.564, 81.430 244.873, 81.574 243.157, 81.709 241.418, 81.835 239.656, 81.953 237.873, 82.062 236.068, 82.163 234.245, 82.254 232.403, 82.337 230.544, 82.410 228.668, 82.475 226.778, 82.531 224.874, 82.577 222.957, 82.615 221.029, 82.643 219.090, 82.662 217.142, 82.672 215.186, 82.673 213.223, 82.665 211.254, 82.647 209.281, 82.621 207.305, 82.585 205.326, 82.540 203.346, 82.487 201.367, 82.424 199.389, 82.352 197.414, 82.271 195.443, 82.181 193.477, 82.083 191.517, 81.975 189.564, 81.859 187.620, 81.734 185.685, 81.601 183.762, 81.459 181.850, 81.308 179.952, 81.150 178.068, 80.983 176.200, 80.808 174.348, 80.625 172.514, 80.434 170.699, 80.235 168.904, 80.028 167.129, 79.814 165.377, 79.593 163.648, 79.364 161.943, 79.128 160.264, 78.885 158.610, 78.635 156.984, 78.378 155.386, 78.115 153.817, 77.846 152.278, 77.570 150.770, 77.288 149.294, 77.000 147.851, 76.707 146.442, 76.407 145.067, 76.103 143.728, 75.793 142.424, 75.479 141.158, 75.159 139.929, 74.835 138.739, 74.506 137.588, 74.173 136.567, 73.864 136.477, 73.837 135.407, 73.496 134.377, 73.152 133.390, 72.804 132.444, 72.453 131.542, 72.099 130.684, 71.742 129.869, 71.383 129.099, 71.021 128.374, 70.657 127.694, 70.292 127.060, 69.924 126.472, 69.555 125.931, 69.185 125.437, 68.814 124.990, 68.442 124.590, 68.070 124.239, 67.697 123.935, 67.324 123.679, 66.951 123.471, 66.578 123.312, 66.206 123.201, 65.834 123.139, 65.464 123.125, 65.095 123.131, 65.034 " />
    <path fill="#FFFFFF" stroke="#FFFFFF" stroke-width="13.0" stroke-linecap="round" stroke-linejoin="round" d=" M 122.862, 64.724 117.489, 73.159 116.697, 74.403 116.449, 74.793 116.253, 75.186 116.110, 75.581 114.113, 82.700 114.021, 83.105 113.982, 83.512 113.687, 93.508 113.392, 103.503 113.097, 113.499 112.802, 123.495 112.507, 133.490 112.212, 143.486 111.917, 153.482 111.622, 163.477 111.327, 173.473 111.100, 181.180 111.115, 181.588 111.184, 181.998 111.306, 182.409 112.905, 187.453 113.078, 187.856 113.303, 188.261 113.581, 188.665 113.911, 189.070 114.292, 189.474 114.726, 189.879 115.211, 190.282 123.153, 196.358 123.816, 196.865 124.297, 197.226 124.823, 197.586 125.394, 197.945 126.011, 198.302 126.672, 198.657 127.377, 199.011 128.126, 199.363 128.918, 199.712 129.753, 200.059 130.630, 200.403 131.549, 200.745 132.510, 201.083 133.511, 201.418 134.552, 201.749 135.632, 202.077 136.752, 202.400 137.909, 202.720 139.104, 203.035 140.335, 203.346 141.602, 203.652 142.905, 203.953 144.242, 204.249 145.612, 204.540 147.016, 204.825 148.451, 205.105 149.917, 205.379 151.414, 205.648 152.939, 205.910 154.493, 206.166 156.075, 206.415 157.683, 206.658 159.316, 206.894 160.974, 207.124 162.655, 207.346 164.359, 207.562 166.085, 207.770 167.830, 207.971 169.596, 208.164 171.379, 208.350 173.180, 208.528 174.997, 208.698 176.829, 208.861 178.675, 209.015 180.533, 209.161 182.404, 209.299 184.285, 209.429 186.175, 209.550 188.074, 209.663 189.980, 209.768 191.892, 209.864 193.809, 209.951 195.730, 210.030 197.653, 210.099 199.578, 210.161 201.503, 210.213 203.427, 210.257 205.349, 210.291 207.268, 210.317 209.182, 210.334 211.091, 210.342 212.993, 210.341 214.888, 210.331 216.773, 210.313 218.648, 210.285 220.512, 210.249 222.364, 210.203 224.202, 210.149 226.026, 210.086 227.834, 210.015 229.625, 209.935 231.398, 209.846 233.153, 209.748 234.887, 209.642 236.600, 209.527 238.292, 209.404 239.960, 209.273 241.604, 209.133 243.224, 208.985 244.817, 208.829 246.383, 208.666 247.921, 208.494 249.431, 208.314 250.910, 208.127 252.359, 207.932 253.776, 207.730 255.161, 207.520 256.513, 207.303 257.831, 207.080 259.114, 206.849 260.361, 206.611 261.572, 206.367 262.746, 206.116 263.882, 205.859 264.979, 205.596 266.038, 205.326 267.056, 205.051 268.035, 204.770 268.972, 204.483 269.868, 204.191 270.721, 203.894 271.532, 203.592 272.300, 203.285 273.025, 202.974 273.705, 202.658 274.341, 202.337 274.932, 202.013 275.478, 201.685 275.979, 201.353 284.266, 195.756 284.958, 195.288 285.465, 194.914 285.921, 194.536 286.326, 194.155 286.678, 193.770 286.979, 193.383 287.227, 192.992 287.423, 192.599 289.317, 187.659 289.463, 187.256 289.555, 186.851 289.594, 186.444 289.889, 176.448 290.184, 166.453 290.479, 156.457 290.774, 146.461 291.069, 136.466 291.364, 126.470 291.659, 116.474 291.954, 106.479 292.249, 96.483 292.476, 88.776 292.461, 88.368 292.392, 87.958 290.819, 80.733 290.699, 80.330 290.526, 79.927 285.661, 71.190 284.692, 69.451 " />
    <path fill="#FFFFFF" stroke="#FFFFFF" stroke-width="13.0" stroke-linecap="round" stroke-linejoin="round" d=" M 270.212, 77.886 271.595, 77.431 273.091, 76.900 274.448, 76.352 275.662, 75.790 277.250, 75.038 278.342, 74.450 279.850, 73.500 280.811, 72.887 281.617, 72.262 283.035, 71.116 283.695, 70.470 284.430, 69.719 284.692, 69.451 284.981, 69.156 286.107, 67.704 286.620, 67.028 287.578, 65.447 287.929, 64.756 288.702, 63.068 289.277, 61.303 289.462, 60.595 289.833, 58.773 289.994, 56.920 290.006, 56.202 289.955, 54.343 289.692, 52.502 289.533, 51.784 289.063, 49.989 288.391, 48.259 288.064, 47.548 287.202, 45.914 286.158, 44.389 285.675, 43.694 284.470, 42.308 283.833, 41.624 282.486, 40.397 281.704, 39.726 280.237, 38.677 279.318, 38.022 278.247, 37.371 276.708, 36.528 275.515, 35.896 274.179, 35.270 272.703, 34.652 271.164, 34.043 269.588, 33.448 267.881, 32.864 266.046, 32.290 264.088, 31.728 262.010, 31.180 260.625, 30.842 258.485, 30.322 256.236, 29.817 253.883, 29.328 251.432, 28.856 248.885, 28.403 246.250, 27.969 243.531, 27.555 240.733, 27.161 237.863, 26.789 234.926, 26.440 231.928, 26.114 228.874, 25.811 225.772, 25.533 222.627, 25.279 219.447, 25.052 216.236, 24.849 213.001, 24.674 209.750, 24.525 206.489, 24.402 203.224, 24.307 199.961, 24.240 196.708, 24.200 193.471, 24.187 190.256, 24.202 187.071, 24.245 183.920, 24.315 180.812, 24.412 177.751, 24.537 174.744, 24.689 171.798, 24.867 168.917, 25.071 166.109, 25.302 163.378, 25.557 160.730, 25.838 158.170, 26.142 155.704, 26.471 153.337, 26.822 151.073, 27.196 149.719, 27.443 147.509, 27.848 145.414, 28.275 143.438, 28.722 141.585, 29.188 139.859, 29.673 138.263, 30.176 136.687, 30.694 135.191, 31.226 133.834, 31.773 132.620, 32.335 131.032, 33.087 129.940, 33.675 128.432, 34.625 127.471, 35.238 126.665, 35.863 125.247, 37.009 124.587, 37.655 123.301, 38.969 122.175, 40.422 121.662, 41.097 120.704, 42.678 120.353, 43.369 119.580, 45.057 119.005, 46.822 118.820, 47.530 118.449, 49.352 118.288, 51.205 118.276, 51.923 118.327, 53.782 118.590, 55.623 118.749, 56.341 119.219, 58.136 119.891, 59.866 120.218, 60.577 121.080, 62.211 122.124, 63.736 122.607, 64.431 122.862, 64.724 123.131, 65.034 123.812, 65.817 124.449, 66.501 125.796, 67.728 126.578, 68.399 128.044, 69.448 128.964, 70.103 130.035, 70.754 131.574, 71.597 132.767, 72.229 134.102, 72.855 135.579, 73.473 136.567, 73.864 " />
    <path fill="#FFFFFF" stroke="#FFFFFF" stroke-width="13.0" stroke-linecap="round" stroke-linejoin="round" d=" M 283.035, 71.116 282.215, 71.752 281.237, 72.376 280.103, 72.987 278.816, 73.583 277.378, 74.163 275.791, 74.726 274.059, 75.272 272.186, 75.798 270.175, 76.304 268.031, 76.789 265.757, 77.252 263.358, 77.692 260.839, 78.108 258.206, 78.499 255.463, 78.864 252.615, 79.203 249.670, 79.515 246.632, 79.800 243.508, 80.056 240.304, 80.283 237.026, 80.481 233.682, 80.650 230.277, 80.789 226.819, 80.897 223.314, 80.975 219.771, 81.023 216.195, 81.039 212.594, 81.025 208.975, 80.981 205.346, 80.906 201.714, 80.800 198.086, 80.664 194.469, 80.498 190.872, 80.302 187.300, 80.078 183.762, 79.824 180.263, 79.542 176.813, 79.233 173.416, 78.896 170.081, 78.533 166.814, 78.145 163.621, 77.731 160.509, 77.293 157.484, 76.833 154.553, 76.350 151.720, 75.845 148.993, 75.321 146.376, 74.777 143.874, 74.215 141.494, 73.636 139.238, 73.042 137.113, 72.432 135.122, 71.810 133.269, 71.175 131.558, 70.529 129.993, 69.874 128.577, 69.211 127.312, 68.540 126.200, 67.864 125.246, 67.184 124.449, 66.501 " />
    <path fill="#FFFFFF" stroke="#FFFFFF" stroke-width="13.0" stroke-linecap="round" stroke-linejoin="round" d=" M 252.637, 47.499 252.595, 47.506 250.606, 47.834 248.483, 48.149 246.272, 48.444 243.977, 48.717 241.602, 48.968 239.153, 49.198 236.634, 49.404 234.051, 49.587 231.409, 49.747 228.712, 49.883 225.967, 49.995 223.180, 50.082 220.354, 50.145 217.497, 50.184 214.614, 50.197 211.711, 50.186 208.794, 50.150 205.868, 50.089 202.940, 50.004 200.015, 49.894 197.100, 49.761 194.199, 49.603 191.320, 49.422 188.467, 49.217 185.647, 48.990 182.865, 48.741 180.127, 48.469 177.438, 48.177 174.804, 47.863 172.230, 47.530 169.721, 47.177 167.283, 46.806 164.919, 46.416 162.636, 46.010 160.437, 45.587 158.327, 45.148 156.311, 44.695 155.685, 44.543 154.391, 44.229 " />
  </g>
</svg>