<?xml version='1.0' encoding='utf-8'?>
<svg xmlns="http://www.w3.org/2000/svg" version="1.1" width="400" height="400" viewBox="0 0 400 400">
  <g>
    <path fill="#FFFFFF" stroke="#FFFFFF" stroke-width="13.0" stroke-linecap="round" stroke-linejoin="round" d=" M 117.514, 99.904 113.524, 106.399 113.159, 107.026 112.846, 107.656 112.586, 108.287 112.378, 108.920 110.624, 115.874 110.465, 116.521 110.360, 117.169 110.309, 117.817 110.348, 127.817 110.386, 137.817 110.425, 147.817 110.464, 157.817 110.502, 167.817 110.541, 177.817 110.580, 187.817 110.619, 197.816 110.657, 207.816 110.677, 212.814 110.679, 213.462 110.735, 214.110 110.845, 214.757 111.009, 215.403 111.226, 216.047 112.986, 220.862 113.252, 221.492 113.569, 222.119 113.939, 222.744 114.361, 223.366 114.834, 223.984 115.358, 224.598 115.934, 225.209 116.560, 225.814 117.236, 226.415 117.962, 227.011 118.737, 227.601 119.562, 228.185 120.435, 228.762 128.700, 234.163 129.525, 234.674 130.393, 235.180 131.303, 235.679 132.254, 236.171 133.246, 236.655 134.278, 237.133 135.350, 237.602 136.460, 238.064 137.609, 238.517 138.796, 238.961 140.019, 239.397 141.279, 239.823 142.574, 240.240 143.903, 240.648 145.267, 241.045 146.663, 241.433 148.091, 241.810 149.551, 242.176 151.041, 242.532 152.561, 242.877 154.109, 243.210 155.684, 243.532 157.287, 243.842 158.915, 244.141 160.568, 244.427 162.245, 244.701 163.944, 244.963 165.665, 245.213 167.407, 245.450 169.169, 245.674 170.949, 245.885 172.746, 246.083 174.560, 246.268 176.389, 246.439 178.233, 246.598 180.089, 246.742 181.958, 246.873 183.838, 246.991 185.727, 247.095 187.625, 247.185 189.530, 247.261 191.441, 247.323 193.358, 247.372 195.279, 247.406 197.202, 247.427 199.128, 247.433 201.053, 247.426 202.979, 247.404 204.902, 247.369 206.822, 247.320 208.739, 247.256 210.650, 247.179 212.554, 247.088 214.451, 246.984 216.340, 246.865 218.218, 246.733 220.086, 246.587 221.941, 246.428 223.783, 246.256 225.611, 246.070 227.424, 245.871 229.220, 245.659 230.998, 245.434 232.758, 245.197 234.498, 244.946 236.217, 244.683 237.914, 244.408 239.589, 244.121 241.239, 243.822 242.865, 243.511 244.465, 243.188 246.038, 242.854 247.584, 242.509 249.101, 242.152 250.588, 241.785 252.045, 241.407 253.470, 241.019 254.863, 240.621 256.223, 240.213 257.550, 239.795 258.841, 239.368 260.098, 238.932 261.318, 238.487 262.501, 238.033 263.646, 237.571 264.753, 237.101 265.821, 236.623 266.850, 236.138 267.838, 235.646 268.785, 235.146 269.691, 234.640 270.555, 234.128 271.376, 233.610 279.599, 228.146 280.468, 227.561 281.287, 226.971 282.058, 226.375 282.780, 225.774 283.451, 225.168 284.073, 224.557 284.643, 223.943 285.163, 223.324 285.631, 222.702 286.048, 222.078 286.413, 221.450 286.725, 220.820 286.986, 220.188 288.709, 215.360 288.921, 214.714 289.079, 214.067 289.185, 213.419 289.236, 212.771 289.197, 202.771 289.158, 192.771 289.120, 182.771 289.081, 172.771 289.042, 162.771 289.003, 152.771 288.965, 142.771 288.926, 132.771 288.887, 122.772 288.868, 117.774 288.865, 117.126 288.809, 116.478 288.699, 115.831 288.535, 115.185 286.728, 108.245 286.515, 107.614 286.249, 106.984 285.932, 106.357 285.562, 105.733 281.485, 99.211 " />
    <path fill="#FFFFFF" stroke="#FFFFFF" stroke-width="13.0" stroke-linecap="round" stroke-linejoin="round" d=" M 279.896, 101.439 279.726, 101.956 279.486, 102.538 279.198, 103.119 278.861, 103.697 278.477, 104.273 278.046, 104.846 277.566, 105.417 277.041, 105.983 276.468, 106.546 275.849, 107.105 275.184, 107.659 274.473, 108.208 273.717, 108.752 272.917, 109.291 272.072, 109.824 271.184, 110.350 270.252, 110.871 269.278, 111.384 268.262, 111.891 267.205, 112.390 266.106, 112.881 264.968, 113.364 263.790, 113.839 262.573, 114.306 261.319, 114.764 260.027, 115.212 258.699, 115.651 257.335, 116.081 255.936, 116.501 254.503, 116.910 253.038, 117.309 251.539, 117.698 250.010, 118.075 248.450, 118.442 246.861, 118.797 245.243, 119.140 243.598, 119.472 242.859, 119.614 241.926, 119.792 240.228, 120.100 238.506, 120.395 236.761, 120.678 234.993, 120.948 233.204, 121.206 231.394, 121.450 229.566, 121.681 227.719, 121.899 225.855, 122.104 223.975, 122.295 222.081, 122.472 220.173, 122.636 218.252, 122.786 216.320, 122.922 214.379, 123.044 212.428, 123.151 210.469, 123.245 208.504, 123.324 206.533, 123.389 204.559, 123.440 202.581, 123.476 200.601, 123.498 198.621, 123.506 196.641, 123.499 194.663, 123.478 192.688, 123.443 190.716, 123.393 188.751, 123.329 186.791, 123.251 184.840, 123.158 182.897, 123.051 180.964, 122.930 179.043, 122.795 177.134, 122.647 175.238, 122.484 173.357, 122.307 171.491, 122.117 169.643, 121.914 167.812, 121.696 166.001, 121.466 164.210, 121.223 162.440, 120.966 160.692, 120.697 158.968, 120.415 157.268, 120.120 155.696, 119.832 155.594, 119.813 153.946, 119.494 152.326, 119.163 150.734, 118.820 149.171, 118.466 147.639, 118.100 146.138, 117.723 144.669, 117.336 143.233, 116.937 141.831, 116.528 140.464, 116.109 139.132, 115.680 137.837, 115.242 136.579, 114.794 135.359, 114.337 134.177, 113.871 133.035, 113.396 131.933, 112.913 130.871, 112.423 129.851, 111.924 128.873, 111.418 127.938, 110.905 127.045, 110.385 126.196, 109.859 125.392, 109.327 124.632, 108.788 123.917, 108.245 123.248, 107.696 122.624, 107.142 122.047, 106.583 121.517, 106.021 121.034, 105.454 120.597, 104.885 120.209, 104.312 119.868, 103.736 119.575, 103.157 119.331, 102.577 119.207, 102.211 " />
    <path fill="#FFFFFF" stroke="#FFFFFF" stroke-width="13.0" stroke-linecap="round" stroke-linejoin="round" d=" M 242.859, 119.614 244.152, 119.336 246.789, 118.716 249.330, 118.063 250.496, 117.752 252.994, 117.049 255.384, 116.314 257.662, 115.549 259.822, 114.754 261.861, 113.933 263.211, 113.336 265.166, 112.470 266.989, 111.579 268.676, 110.666 270.223, 109.731 271.619, 108.872 273.052, 107.900 274.337, 106.910 275.660, 105.842 276.814, 104.819 278.014, 103.577 279.028, 102.523 279.881, 101.458 279.896, 101.439 280.947, 100.048 281.485, 99.211 281.648, 98.958 282.545, 97.417 283.086, 96.309 283.799, 94.661 284.175, 93.538 284.691, 91.810 284.897, 90.676 285.207, 88.895 285.307, 87.090 285.341, 85.949 285.228, 84.144 285.090, 83.007 284.767, 81.230 284.457, 80.100 283.929, 78.380 283.451, 77.263 282.728, 75.626 282.087, 74.526 281.182, 72.999 280.383, 71.921 279.312, 70.526 278.363, 69.475 277.146, 68.235 276.054, 67.213 274.808, 66.208 273.489, 65.160 272.115, 64.190 270.595, 63.239 269.209, 62.402 267.578, 61.491 265.809, 60.603 263.907, 59.741 262.533, 59.146 260.544, 58.328 258.432, 57.537 256.201, 56.776 253.855, 56.045 251.400, 55.347 248.840, 54.682 247.704, 54.388 245.105, 53.773 242.414, 53.193 239.637, 52.650 236.778, 52.144 233.844, 51.678 230.841, 51.250 227.774, 50.864 224.650, 50.518 221.475, 50.215 218.256, 49.954 214.998, 49.737 211.709, 49.563 208.396, 49.433 205.064, 49.347 201.720, 49.305 198.372, 49.308 195.026, 49.355 191.689, 49.447 188.367, 49.583 185.067, 49.763 181.796, 49.986 178.561, 50.252 175.367, 50.561 172.222, 50.912 169.132, 51.304 166.102, 51.736 163.139, 52.208 160.250, 52.719 157.439, 53.267 154.713, 53.851 152.076, 54.471 149.535, 55.125 148.369, 55.436 145.871, 56.139 143.481, 56.873 141.203, 57.639 139.043, 58.433 137.003, 59.255 135.653, 59.852 133.698, 60.718 131.876, 61.608 130.189, 62.522 128.641, 63.456 127.246, 64.315 125.813, 65.287 124.528, 66.277 123.205, 67.346 122.051, 68.369 120.851, 69.611 119.837, 70.664 118.984, 71.729 117.918, 73.140 117.217, 74.229 116.320, 75.770 115.779, 76.879 115.066, 78.526 114.690, 79.650 114.174, 81.378 113.967, 82.512 113.657, 84.293 113.558, 86.098 113.524, 87.238 113.637, 89.043 113.775, 90.181 114.098, 91.957 114.408, 93.087 114.936, 94.807 115.413, 95.925 116.137, 97.561 116.778, 98.661 117.514, 99.904 117.683, 100.189 118.482, 101.267 119.207, 102.211 119.553, 102.661 120.502, 103.713 121.719, 104.953 122.811, 105.974 124.057, 106.979 125.376, 108.028 126.750, 108.998 128.270, 109.948 129.656, 110.786 131.287, 111.696 133.055, 112.584 134.958, 113.447 136.332, 114.041 138.321, 114.859 140.433, 115.650 142.664, 116.412 145.010, 117.142 147.465, 117.841 150.025, 118.505 151.161, 118.799 153.760, 119.414 155.696, 119.832 " />
    <path fill="#FFFFFF" stroke="#FFFFFF" stroke-width="13.0" stroke-linecap="round" stroke-linejoin="round" d=" M 146.052, 81.290 145.895, 81.192 145.202, 80.702 145.192, 80.695 145.171, 80.680 145.029, 80.580 144.912, 80.497 144.885, 80.478 " />
    <path fill="#FFFFFF" stroke="#FFFFFF" stroke-width="13.0" stroke-linecap="round" stroke-linejoin="round" d=" M 275.660, 105.842 274.353, 106.849 272.895, 107.839 271.288, 108.809 269.538, 109.757 267.646, 110.682 265.617, 111.580 263.455, 112.452 261.164, 113.294 258.748, 114.106 256.214, 114.885 253.565, 115.630 250.807, 116.340 247.945, 117.012 244.987, 117.647 241.936, 118.242 238.800, 118.796 235.585, 119.308 232.297, 119.777 228.943, 120.202 225.529, 120.583 222.064, 120.918 218.552, 121.207 215.002, 121.450 211.421, 121.645 207.816, 121.792 204.195, 121.891 200.563, 121.943 196.930, 121.946 193.301, 121.901 189.685, 121.808 186.089, 121.667 182.520, 121.478 178.984, 121.242 175.491, 120.959 172.045, 120.629 168.655, 120.255 165.326, 119.835 162.067, 119.371 158.883, 118.865 155.780, 118.316 152.766, 117.727 149.846, 117.097 147.025, 116.430 144.310, 115.725 141.707, 114.984 139.219, 114.209 136.853, 113.402 134.614, 112.563 132.504, 111.695 130.530, 110.800 128.694, 109.879 127.002, 108.934 125.455, 107.967 124.057, 106.979 " />
    <path fill="#FFFFFF" stroke="#FFFFFF" stroke-width="13.0" stroke-linecap="round" stroke-linejoin="round" d=" M 158.304, 85.829 157.333, 85.577 155.348, 85.013 153.453, 84.422 151.649, 83.807 149.942, 83.168 149.012, 82.785 148.335, 82.506 " />
    <path fill="#FFFFFF" stroke="#FFFFFF" stroke-width="13.0" stroke-linecap="round" stroke-linejoin="round" d=" M 241.764, 85.194 241.071, 85.372 239.602, 85.750 237.360, 86.277 236.557, 86.449 235.041, 86.774 232.650, 87.240 230.192, 87.675 227.672, 88.076 225.096, 88.444 222.467, 88.777 219.792, 89.075 217.075, 89.338 214.324, 89.565 211.542, 89.755 208.735, 89.907 205.910, 90.023 203.071, 90.101 200.225, 90.141 197.377, 90.144 194.534, 90.108 191.700, 90.035 188.881, 89.925 186.084, 89.777 183.313, 89.591 180.575, 89.370 177.875, 89.112 175.218, 88.818 172.609, 88.489 170.055, 88.126 167.559, 87.729 165.128, 87.299 162.765, 86.837 162.308, 86.738 160.476, 86.344 158.304, 85.829 158.266, 85.820 " />
    <path fill="#FFFFFF" stroke="#FFFFFF" stroke-width="13.0" stroke-linecap="round" stroke-linejoin="round" d=" M 249.784, 82.419 249.755, 82.430 248.136, 83.083 246.389, 83.725 244.549, 84.343 242.617, 84.937 241.071, 85.372 " />
    <path fill="#FFFFFF" stroke="#FFFFFF" stroke-width="13.0" stroke-linecap="round" stroke-linejoin="round" d=" M 253.831, 80.241 253.526, 80.425 253.504, 80.438 253.471, 80.458 253.382, 80.512 253.381, 80.512 253.350, 80.531 253.283, 80.572 252.649, 80.954 252.640, 80.960 251.980, 81.317 251.342, 81.663 249.939, 82.349 249.755, 82.430 " />
    <path fill="#FFFFFF" stroke="#FFFFFF" stroke-width="13.0" stroke-linecap="round" stroke-linejoin="round" d=" M 253.925, 80.003 253.855, 80.064 253.683, 80.217 253.618, 80.275 253.528, 80.354 " />
  </g>
</svg>