<?xml version='1.0' encoding='utf-8'?>
<svg xmlns="http://www.w3.org/2000/svg" version="1.1" width="400" height="400" viewBox="0 0 400 400">
  <g>
    <path fill="#FFFFFF" stroke="#FFFFFF" stroke-width="13.0" stroke-linecap="round" stroke-linejoin="round" d=" M 121.229, 179.597 116.877, 185.982 116.484, 186.583 116.143, 187.189 115.854, 187.798 115.618, 188.412 113.531, 195.283 113.343, 195.913 113.208, 196.547 113.127, 197.183 112.685, 207.173 112.243, 217.163 111.801, 227.154 111.359, 237.144 110.917, 247.134 110.475, 257.124 110.033, 267.115 109.591, 277.105 109.149, 287.095 108.922, 292.210 108.895, 292.849 108.922, 293.490 109.002, 294.133 109.136, 294.777 109.324, 295.422 110.850, 300.323 111.086, 300.956 111.375, 301.590 111.716, 302.223 112.109, 302.856 112.553, 303.488 113.049, 304.118 113.595, 304.747 114.193, 305.374 114.841, 305.998 115.539, 306.620 116.287, 307.238 117.084, 307.853 125.164, 313.730 125.922, 314.278 126.723, 314.822 127.567, 315.361 128.453, 315.897 129.380, 316.427 130.349, 316.952 131.358, 317.472 132.407, 317.986 133.496, 318.494 134.623, 318.995 135.787, 319.490 136.990, 319.978 138.228, 320.458 139.503, 320.931 140.812, 321.397 142.156, 321.854 143.533, 322.302 144.942, 322.742 146.383, 323.173 147.856, 323.595 149.358, 324.007 150.889, 324.410 152.448, 324.802 154.034, 325.185 155.647, 325.557 157.285, 325.918 158.947, 326.269 160.633, 326.608 162.341, 326.937 164.070, 327.253 165.819, 327.558 167.587, 327.852 169.374, 328.133 171.177, 328.402 172.997, 328.659 174.831, 328.903 176.679, 329.134 178.539, 329.353 180.411, 329.559 182.293, 329.751 184.185, 329.931 186.085, 330.097 187.991, 330.250 189.903, 330.390 191.820, 330.516 193.741, 330.628 195.664, 330.726 197.587, 330.811 199.511, 330.882 201.434, 330.939 203.355, 330.983 205.272, 331.012 207.184, 331.028 209.091, 331.029 210.990, 331.017 212.882, 330.990 214.764, 330.950 216.636, 330.896 218.497, 330.828 220.345, 330.746 222.179, 330.651 223.999, 330.541 225.802, 330.418 227.589, 330.282 229.357, 330.132 231.107, 329.969 232.836, 329.792 234.544, 329.602 236.230, 329.399 237.892, 329.183 239.530, 328.954 241.143, 328.713 242.730, 328.459 244.289, 328.193 245.821, 327.914 247.323, 327.624 248.795, 327.321 250.237, 327.007 251.647, 326.681 253.024, 326.344 254.368, 325.996 255.678, 325.637 256.952, 325.267 258.191, 324.887 259.394, 324.497 260.559, 324.096 261.686, 323.686 262.775, 323.266 263.824, 322.837 264.834, 322.399 265.803, 321.953 266.731, 321.497 267.617, 321.034 268.461, 320.563 269.262, 320.084 277.834, 314.941 278.680, 314.399 279.477, 313.848 280.226, 313.290 280.924, 312.725 281.572, 312.153 282.170, 311.575 282.718, 310.990 283.214, 310.400 283.659, 309.804 284.052, 309.203 284.393, 308.598 284.682, 307.987 286.635, 303.240 286.877, 302.614 287.065, 301.984 287.199, 301.350 287.280, 300.714 287.722, 290.724 288.164, 280.733 288.606, 270.743 289.048, 260.753 289.490, 250.763 289.932, 240.773 290.374, 230.782 290.816, 220.792 291.259, 210.802 291.485, 205.687 291.512, 205.048 291.485, 204.407 291.405, 203.764 291.271, 203.120 289.799, 196.092 289.615, 195.460 289.379, 194.827 289.091, 194.194 288.750, 193.561 284.961, 186.783 " />
    <path fill="#FFFFFF" stroke="#FFFFFF" stroke-width="13.0" stroke-linecap="round" stroke-linejoin="round" d=" M 283.339, 188.828 283.339, 188.829 283.120, 189.395 282.854, 189.957 282.539, 190.516 282.177, 191.070 281.767, 191.619 281.310, 192.163 280.805, 192.702 280.254, 193.235 279.656, 193.762 279.012, 194.283 278.323, 194.798 277.588, 195.305 276.808, 195.805 275.984, 196.297 275.116, 196.782 274.205, 197.259 273.250, 197.727 272.254, 198.186 271.216, 198.637 270.137, 199.078 269.017, 199.509 267.858, 199.931 266.660, 200.343 265.423, 200.744 264.149, 201.135 262.838, 201.516 261.492, 201.885 260.110, 202.243 258.693, 202.589 257.244, 202.924 255.761, 203.247 254.247, 203.559 252.702, 203.857 251.127, 204.144 249.524, 204.418 247.892, 204.679 247.022, 204.809 246.233, 204.927 244.549, 205.162 242.839, 205.384 241.106, 205.593 239.349, 205.788 237.571, 205.970 235.772, 206.138 233.954, 206.292 232.116, 206.433 230.262, 206.559 228.391, 206.671 226.504, 206.770 224.604, 206.854 222.691, 206.924 220.765, 206.979 218.830, 207.021 216.884, 207.048 214.931, 207.061 212.970, 207.059 211.004, 207.043 209.032, 207.013 207.058, 206.968 205.080, 206.910 203.102, 206.837 201.123, 206.749 199.146, 206.648 197.171, 206.533 195.200, 206.403 193.233, 206.260 191.273, 206.102 189.319, 205.931 187.374, 205.747 185.439, 205.549 183.513, 205.337 181.600, 205.112 179.700, 204.874 177.814, 204.623 175.943, 204.359 174.088, 204.082 172.251, 203.793 170.433, 203.492 168.634, 203.178 166.856, 202.852 165.100, 202.515 163.366, 202.165 161.657, 201.805 159.973, 201.433 158.314, 201.051 156.949, 200.721 156.683, 200.657 155.079, 200.254 153.505, 199.840 151.960, 199.416 150.446, 198.982 148.964, 198.539 147.515, 198.086 146.099, 197.625 144.717, 197.155 143.371, 196.677 142.060, 196.190 140.786, 195.696 139.550, 195.194 138.352, 194.686 137.193, 194.170 136.074, 193.648 134.995, 193.119 133.957, 192.585 132.961, 192.044 132.007, 191.499 131.096, 190.949 130.229, 190.394 129.405, 189.835 128.626, 189.271 127.891, 188.705 127.202, 188.134 126.558, 187.561 125.961, 186.986 125.410, 186.408 124.906, 185.828 124.449, 185.247 124.040, 184.665 123.678, 184.081 123.363, 183.497 123.097, 182.913 122.879, 182.330 122.741, 181.855 " />
    <path fill="#FFFFFF" stroke="#FFFFFF" stroke-width="13.0" stroke-linecap="round" stroke-linejoin="round" d=" M 247.022, 204.809 249.450, 204.367 252.018, 203.844 253.198, 203.584 255.726, 203.011 258.147, 202.401 260.457, 201.756 262.651, 201.076 264.726, 200.364 266.676, 199.620 268.096, 199.068 269.957, 198.278 271.684, 197.458 273.272, 196.611 274.708, 195.817 276.184, 194.927 277.512, 194.013 278.886, 193.006 280.085, 192.053 281.130, 191.079 282.404, 189.877 283.306, 188.868 283.339, 188.828 284.438, 187.507 284.961, 186.783 285.188, 186.468 286.158, 184.969 286.749, 183.902 287.541, 182.288 287.968, 181.199 288.566, 179.495 288.824, 178.388 289.220, 176.621 289.406, 174.821 289.492, 173.699 289.466, 171.888 289.380, 170.760 289.143, 168.968 288.885, 167.840 288.441, 166.094 288.014, 164.970 287.371, 163.298 286.534, 161.714 285.950, 160.612 285.201, 159.511 284.199, 158.064 283.299, 156.982 282.143, 155.682 281.100, 154.624 279.812, 153.491 278.634, 152.459 277.306, 151.438 275.831, 150.429 274.488, 149.521 272.900, 148.546 271.174, 147.587 269.313, 146.645 267.970, 145.981 266.021, 145.079 263.947, 144.199 261.753, 143.342 259.444, 142.510 257.023, 141.704 255.846, 141.332 253.377, 140.572 250.809, 139.842 248.148, 139.141 245.398, 138.473 242.566, 137.838 239.656, 137.238 236.676, 136.673 233.630, 136.145 230.526, 135.655 227.368, 135.204 224.164, 134.793 220.921, 134.423 217.643, 134.094 214.339, 133.807 211.015, 133.563 207.678, 133.362 204.333, 133.205 200.989, 133.091 197.651, 133.022 194.327, 132.997 191.023, 133.016 187.745, 133.079 184.502, 133.187 181.298, 133.338 178.140, 133.533 175.035, 133.772 171.989, 134.053 169.008, 134.376 166.099, 134.741 163.266, 135.146 160.516, 135.592 157.854, 136.076 155.286, 136.599 154.106, 136.860 151.578, 137.433 149.157, 138.043 146.847, 138.688 144.653, 139.367 142.578, 140.080 140.628, 140.823 139.208, 141.376 137.347, 142.166 135.620, 142.985 134.032, 143.832 132.596, 144.627 131.120, 145.517 129.792, 146.431 128.418, 147.438 127.219, 148.391 126.174, 149.365 124.900, 150.567 123.998, 151.575 122.866, 152.936 122.116, 153.976 121.146, 155.475 120.555, 156.541 119.763, 158.155 119.336, 159.245 118.738, 160.948 118.480, 162.056 118.084, 163.822 117.898, 165.623 117.812, 166.745 117.838, 168.555 117.924, 169.683 118.161, 171.475 118.419, 172.604 118.863, 174.350 119.290, 175.474 119.933, 177.145 120.770, 178.729 121.229, 179.597 121.354, 179.832 122.103, 180.932 122.741, 181.855 123.105, 182.380 124.005, 183.461 125.161, 184.761 126.204, 185.820 127.492, 186.952 128.670, 187.984 129.998, 189.006 131.473, 190.015 132.816, 190.922 134.404, 191.898 136.130, 192.857 137.991, 193.798 139.334, 194.463 141.283, 195.364 143.357, 196.245 145.551, 197.102 147.861, 197.934 150.281, 198.740 151.458, 199.112 153.927, 199.871 156.495, 200.602 156.949, 200.721 " />
    <path fill="#FFFFFF" stroke="#FFFFFF" stroke-width="13.0" stroke-linecap="round" stroke-linejoin="round" d=" M 150.413, 162.119 149.904, 161.728 149.904, 161.728 149.844, 161.681 149.699, 161.570 149.532, 161.441 149.477, 161.399 148.611, 160.640 " />
    <path fill="#FFFFFF" stroke="#FFFFFF" stroke-width="13.0" stroke-linecap="round" stroke-linejoin="round" d=" M 278.886, 193.006 277.534, 193.936 276.032, 194.842 274.384, 195.720 272.592, 196.571 270.660, 197.391 268.592, 198.180 266.392, 198.935 264.065, 199.656 261.616, 200.340 259.048, 200.986 256.368, 201.594 253.581, 202.161 250.692, 202.687 247.708, 203.171 244.634, 203.611 241.476, 204.007 238.241, 204.358 234.935, 204.663 231.566, 204.921 228.139, 205.133 224.662, 205.297 221.141, 205.414 217.584, 205.483 213.999, 205.504 210.391, 205.476 206.769, 205.401 203.139, 205.278 199.510, 205.107 195.887, 204.889 192.280, 204.624 188.694, 204.313 185.137, 203.956 181.617, 203.554 178.140, 203.108 174.713, 202.618 171.344, 202.087 168.039, 201.514 164.804, 200.901 161.647, 200.250 158.573, 199.560 155.589, 198.835 152.701, 198.075 149.914, 197.282 147.234, 196.458 144.668, 195.603 142.218, 194.721 139.892, 193.812 137.693, 192.878 135.626, 191.922 133.695, 190.945 131.903, 189.950 130.255, 188.937 128.754, 187.910 127.403, 186.870 126.204, 185.820 " />
    <path fill="#FFFFFF" stroke="#FFFFFF" stroke-width="13.0" stroke-linecap="round" stroke-linejoin="round" d=" M 153.177, 163.693 152.746, 163.475 151.888, 162.998 151.417, 162.736 150.413, 162.119 150.195, 161.985 " />
    <path fill="#FFFFFF" stroke="#FFFFFF" stroke-width="13.0" stroke-linecap="round" stroke-linejoin="round" d=" M 161.291, 166.861 159.726, 166.340 157.860, 165.667 156.087, 164.975 154.411, 164.263 153.177, 163.693 152.835, 163.535 " />
    <path fill="#FFFFFF" stroke="#FFFFFF" stroke-width="13.0" stroke-linecap="round" stroke-linejoin="round" d=" M 246.036, 170.645 245.759, 170.701 243.852, 171.089 241.588, 171.502 239.652, 171.815 239.249, 171.881 236.840, 172.225 234.365, 172.536 231.830, 172.811 229.239, 173.050 226.598, 173.252 223.912, 173.418 221.187, 173.547 218.428, 173.639 215.640, 173.693 212.830, 173.709 210.003, 173.688 207.164, 173.628 204.319, 173.532 201.475, 173.398 198.636, 173.227 195.809, 173.019 192.998, 172.776 190.211, 172.496 187.452, 172.181 184.727, 171.831 182.041, 171.448 179.401, 171.031 176.810, 170.582 174.275, 170.102 171.801, 169.591 169.392, 169.051 167.652, 168.628 167.053, 168.483 164.789, 167.887 162.605, 167.266 161.291, 166.861 160.505, 166.619 " />
    <path fill="#FFFFFF" stroke="#FFFFFF" stroke-width="13.0" stroke-linecap="round" stroke-linejoin="round" d=" M 255.748, 167.703 254.581, 168.148 254.172, 168.304 252.496, 168.880 250.722, 169.429 248.855, 169.950 246.899, 170.443 245.759, 170.701 " />
    <path fill="#FFFFFF" stroke="#FFFFFF" stroke-width="13.0" stroke-linecap="round" stroke-linejoin="round" d=" M 258.313, 166.364 258.077, 166.490 258.074, 166.492 258.070, 166.494 258.016, 166.523 257.950, 166.558 257.859, 166.606 257.297, 166.906 257.090, 167.016 255.882, 167.589 255.761, 167.647 254.581, 168.148 " />
    <path fill="#FFFFFF" stroke="#FFFFFF" stroke-width="13.0" stroke-linecap="round" stroke-linejoin="round" d=" M 258.939, 165.833 258.330, 166.252 258.198, 166.342 258.146, 166.378 258.143, 166.380 258.006, 166.474 257.962, 166.505 257.297, 166.906 " />
    <path fill="#FFFFFF" stroke="#FFFFFF" stroke-width="13.0" stroke-linecap="round" stroke-linejoin="round" d=" M 259.148, 165.481 258.411, 166.168 258.212, 166.326 258.146, 166.378 " />
    <path fill="#FFFFFF" stroke="#FFFFFF" stroke-width="13.0" stroke-linecap="round" stroke-linejoin="round" d=" M 258.485, 165.997 258.143, 166.380 " />
    <path fill="#FFFFFF" stroke="#FFFFFF" stroke-width="13.0" stroke-linecap="round" stroke-linejoin="round" d=" M 149.699, 161.570 149.163, 161.026 " />
    <path fill="#FFFFFF" stroke="#FFFFFF" stroke-width="13.0" stroke-linecap="round" stroke-linejoin="round" d=" M 149.904, 161.728 149.876, 161.674 149.832, 161.591 " />
  </g>
</svg>