<?xml version='1.0' encoding='utf-8'?>
<svg xmlns="http://www.w3.org/2000/svg" version="1.1" width="400" height="400" viewBox="0 0 400 400">
  <g>
    <path fill="#FFFFFF" stroke="#FFFFFF" stroke-width="13.0" stroke-linecap="round" stroke-linejoin="round" d=" M 133.391, 157.854 128.890, 163.782 128.450, 164.363 128.061, 164.952 127.723, 165.548 127.438, 166.151 127.205, 166.760 124.769, 173.520 124.584, 174.148 124.452, 174.781 124.375, 175.420 123.425, 185.375 122.476, 195.330 121.526, 205.285 120.577, 215.240 119.627, 225.194 118.678, 235.149 117.728, 245.104 116.779, 255.059 115.829, 265.014 115.349, 270.054 115.324, 270.698 115.354, 271.346 115.436, 271.999 115.573, 272.656 116.849, 277.629 117.035, 278.277 117.273, 278.927 117.564, 279.580 117.906, 280.235 118.300, 280.892 118.745, 281.551 119.242, 282.210 119.790, 282.870 120.388, 283.531 121.037, 284.191 121.735, 284.851 122.483, 285.509 123.279, 286.167 130.996, 292.391 131.754, 292.979 132.554, 293.565 133.397, 294.148 134.283, 294.729 135.209, 295.307 136.177, 295.882 137.185, 296.453 138.233, 297.019 139.319, 297.582 140.445, 298.140 141.608, 298.693 142.808, 299.240 144.044, 299.782 145.316, 300.318 146.623, 300.847 147.964, 301.370 149.338, 301.886 150.745, 302.395 152.183, 302.896 153.652, 303.389 155.151, 303.874 156.678, 304.350 158.234, 304.818 159.817, 305.276 161.426, 305.725 163.059, 306.165 164.718, 306.595 166.399, 307.015 168.102, 307.424 169.827, 307.823 171.571, 308.210 173.335, 308.587 175.116, 308.953 176.915, 309.306 178.729, 309.649 180.558, 309.979 182.401, 310.297 184.256, 310.602 186.122, 310.896 187.999, 311.176 189.885, 311.444 191.778, 311.698 193.679, 311.939 195.586, 312.167 197.497, 312.382 199.411, 312.583 201.328, 312.770 203.245, 312.943 205.163, 313.103 207.079, 313.248 208.994, 313.379 210.904, 313.496 212.810, 313.599 214.710, 313.687 216.603, 313.761 218.488, 313.821 220.364, 313.866 222.230, 313.897 224.084, 313.913 225.925, 313.914 227.752, 313.901 229.565, 313.874 231.362, 313.832 233.142, 313.775 234.904, 313.704 236.647, 313.619 238.369, 313.519 240.071, 313.405 241.750, 313.277 243.406, 313.135 245.037, 312.978 246.644, 312.808 248.224, 312.624 249.777, 312.426 251.302, 312.214 252.798, 311.989 254.264, 311.751 255.699, 311.499 257.103, 311.234 258.474, 310.956 259.812, 310.666 261.115, 310.363 262.384, 310.048 263.617, 309.720 264.814, 309.380 265.973, 309.029 267.095, 308.666 268.178, 308.292 269.222, 307.906 270.226, 307.510 271.190, 307.103 272.113, 306.685 272.994, 306.257 273.833, 305.820 282.624, 301.147 283.512, 300.649 284.353, 300.139 285.145, 299.620 285.888, 299.090 286.582, 298.551 287.226, 298.003 287.819, 297.446 288.362, 296.881 288.854, 296.307 289.295, 295.725 289.684, 295.136 290.021, 294.540 290.307, 293.937 292.502, 289.290 292.740, 288.668 292.925, 288.041 293.056, 287.407 293.134, 286.768 294.084, 276.813 295.033, 266.858 295.983, 256.903 296.932, 246.949 297.882, 236.994 298.831, 227.039 299.781, 217.084 300.730, 207.129 301.680, 197.175 302.160, 192.135 302.185, 191.491 302.155, 190.842 302.073, 190.189 300.959, 183.095 300.825, 182.452 300.639, 181.805 300.401, 181.155 300.111, 180.502 296.578, 173.358 " />
    <path fill="#FFFFFF" stroke="#FFFFFF" stroke-width="13.0" stroke-linecap="round" stroke-linejoin="round" d=" M 294.823, 175.345 294.757, 175.519 294.494, 176.075 294.183, 176.625 293.824, 177.168 293.418, 177.704 292.964, 178.233 292.464, 178.754 291.917, 179.268 291.323, 179.773 290.684, 180.270 289.999, 180.758 289.268, 181.237 288.493, 181.706 287.674, 182.166 286.811, 182.616 285.905, 183.056 284.956, 183.485 283.965, 183.904 282.932, 184.311 281.859, 184.708 280.745, 185.093 279.591, 185.466 278.399, 185.827 277.168, 186.177 275.900, 186.514 274.596, 186.838 273.255, 187.149 271.879, 187.448 270.469, 187.734 269.026, 188.006 267.550, 188.265 266.042, 188.510 264.504, 188.742 262.936, 188.959 261.339, 189.163 259.714, 189.352 258.062, 189.527 256.910, 189.638 256.384, 189.688 254.681, 189.835 252.954, 189.966 251.205, 190.084 249.433, 190.186 247.641, 190.274 245.830, 190.347 243.999, 190.405 242.151, 190.448 240.287, 190.476 238.408, 190.490 236.514, 190.488 234.608, 190.472 232.689, 190.440 230.760, 190.394 228.822, 190.332 226.875, 190.256 224.921, 190.165 222.961, 190.060 220.996, 189.940 219.028, 189.805 217.057, 189.655 215.085, 189.491 213.113, 189.313 211.142, 189.121 209.174, 188.914 207.209, 188.693 205.248, 188.459 203.294, 188.211 201.346, 187.949 199.407, 187.674 197.477, 187.386 195.557, 187.084 193.650, 186.770 191.755, 186.443 189.874, 186.103 188.008, 185.751 186.159, 185.388 184.327, 185.012 182.513, 184.624 180.719, 184.225 178.946, 183.816 177.194, 183.395 175.466, 182.963 173.760, 182.521 172.080, 182.069 170.426, 181.607 168.798, 181.135 168.445, 181.029 167.199, 180.654 165.628, 180.165 164.086, 179.666 162.576, 179.159 161.097, 178.644 159.650, 178.121 158.237, 177.590 156.858, 177.053 155.514, 176.508 154.206, 175.957 152.935, 175.400 151.701, 174.837 150.505, 174.268 149.348, 173.695 148.230, 173.116 147.153, 172.533 146.116, 171.946 145.121, 171.355 144.168, 170.761 143.258, 170.163 142.391, 169.563 141.567, 168.961 140.788, 168.357 140.054, 167.751 139.365, 167.143 138.721, 166.535 138.123, 165.927 137.572, 165.318 137.067, 164.709 136.609, 164.101 136.198, 163.494 135.835, 162.889 135.519, 162.285 135.252, 161.683 135.032, 161.083 134.861, 160.487 134.811, 160.250 " />
    <path fill="#FFFFFF" stroke="#FFFFFF" stroke-width="13.0" stroke-linecap="round" stroke-linejoin="round" d=" M 256.910, 189.638 258.494, 189.450 261.145, 189.082 263.702, 188.671 264.915, 188.469 267.432, 188.006 269.842, 187.500 272.141, 186.954 274.325, 186.368 276.390, 185.743 277.809, 185.274 279.791, 184.598 281.643, 183.884 283.360, 183.135 284.814, 182.426 286.425, 181.628 287.891, 180.796 289.211, 179.933 290.643, 178.993 291.834, 178.085 293.157, 176.961 294.210, 176.010 294.823, 175.345 295.402, 174.718 296.308, 173.727 296.578, 173.358 297.051, 172.711 298.099, 171.261 298.684, 170.210 299.557, 168.636 300.240, 166.971 300.663, 165.883 301.147, 164.143 301.401, 163.032 301.678, 161.244 301.760, 160.114 301.826, 158.306 301.735, 157.163 301.589, 155.364 301.233, 153.595 300.973, 152.450 300.413, 150.743 299.987, 149.598 299.234, 147.979 298.647, 146.839 297.714, 145.334 296.973, 144.204 296.071, 143.070 294.988, 141.721 293.944, 140.604 292.721, 139.416 291.543, 138.320 290.216, 137.228 288.902, 136.242 287.456, 135.176 285.870, 134.119 284.146, 133.071 282.813, 132.328 280.994, 131.314 279.048, 130.315 276.977, 129.331 274.787, 128.365 272.482, 127.420 270.066, 126.495 268.930, 126.075 266.466, 125.195 263.904, 124.340 261.249, 123.511 258.505, 122.711 255.680, 121.940 252.778, 121.201 249.805, 120.495 246.768, 119.823 243.672, 119.187 240.523, 118.588 237.329, 118.027 234.094, 117.505 230.827, 117.024 227.533, 116.583 224.219, 116.185 220.892, 115.830 217.558, 115.519 214.225, 115.252 210.898, 115.030 207.585, 114.853 204.292, 114.722 201.026, 114.637 197.794, 114.598 194.601, 114.605 191.455, 114.658 188.362, 114.757 185.328, 114.902 182.359, 115.093 179.460, 115.329 176.639, 115.609 173.900, 115.934 171.250, 116.302 168.693, 116.713 167.479, 116.915 164.963, 117.378 162.553, 117.884 160.253, 118.430 158.069, 119.016 156.005, 119.641 154.586, 120.110 152.604, 120.786 150.752, 121.500 149.035, 122.249 147.581, 122.958 145.970, 123.757 144.503, 124.588 143.183, 125.451 141.752, 126.391 140.561, 127.299 139.237, 128.423 138.184, 129.374 136.992, 130.666 136.086, 131.657 135.344, 132.673 134.296, 134.124 133.711, 135.174 132.837, 136.748 132.155, 138.413 131.731, 139.501 131.247, 141.241 130.994, 142.352 130.717, 144.140 130.635, 145.270 130.569, 147.078 130.659, 148.221 130.805, 150.020 131.162, 151.790 131.422, 152.934 131.981, 154.642 132.407, 155.786 133.160, 157.405 133.391, 157.854 133.747, 158.545 134.680, 160.050 134.811, 160.250 135.422, 161.180 136.324, 162.314 137.406, 163.663 138.451, 164.780 139.673, 165.968 140.851, 167.064 142.179, 168.156 143.493, 169.142 144.938, 170.208 146.525, 171.265 148.249, 172.313 149.581, 173.056 151.400, 174.070 153.347, 175.069 155.417, 176.053 157.607, 177.019 159.913, 177.965 162.328, 178.889 163.465, 179.309 165.929, 180.189 168.445, 181.029 " />
    <path fill="#FFFFFF" stroke="#FFFFFF" stroke-width="13.0" stroke-linecap="round" stroke-linejoin="round" d=" M 163.632, 142.098 162.865, 141.467 162.853, 141.455 162.800, 141.406 162.755, 141.364 162.730, 141.341 162.646, 141.262 161.998, 140.660 " />
    <path fill="#FFFFFF" stroke="#FFFFFF" stroke-width="13.0" stroke-linecap="round" stroke-linejoin="round" d=" M 290.643, 178.993 289.299, 179.872 287.806, 180.718 286.167, 181.530 284.385, 182.308 282.463, 183.048 280.406, 183.751 278.217, 184.414 275.901, 185.035 273.463, 185.615 270.907, 186.151 268.239, 186.642 265.463, 187.088 262.587, 187.488 259.614, 187.840 256.553, 188.145 253.407, 188.401 250.185, 188.608 246.892, 188.765 243.535, 188.873 240.120, 188.931 236.656, 188.939 233.148, 188.896 229.603, 188.804 226.030, 188.661 222.434, 188.469 218.824, 188.228 215.207, 187.939 211.589, 187.601 207.978, 187.215 204.381, 186.783 200.807, 186.306 197.261, 185.783 193.750, 185.217 190.283, 184.608 186.866, 183.958 183.506, 183.267 180.210, 182.538 176.984, 181.772 173.834, 180.970 170.768, 180.133 167.791, 179.265 164.909, 178.366 162.129, 177.438 159.455, 176.483 156.893, 175.503 154.449, 174.500 152.126, 173.476 149.931, 172.433 147.867, 171.373 145.938, 170.298 144.148, 169.211 142.502, 168.113 141.001, 167.007 139.650, 165.896 138.451, 164.780 " />
    <path fill="#FFFFFF" stroke="#FFFFFF" stroke-width="13.0" stroke-linecap="round" stroke-linejoin="round" d=" M 166.163, 143.709 164.862, 142.918 164.627, 142.761 163.640, 142.104 163.632, 142.098 163.058, 141.675 162.999, 141.631 162.999, 141.631 162.991, 141.625 162.899, 141.558 162.858, 141.527 162.854, 141.525 162.628, 141.357 162.528, 141.284 " />
    <path fill="#FFFFFF" stroke="#FFFFFF" stroke-width="13.0" stroke-linecap="round" stroke-linejoin="round" d=" M 174.563, 147.467 173.206, 146.948 171.343, 146.183 169.573, 145.403 167.900, 144.608 166.327, 143.800 166.163, 143.709 164.857, 142.981 " />
    <path fill="#FFFFFF" stroke="#FFFFFF" stroke-width="13.0" stroke-linecap="round" stroke-linejoin="round" d=" M 259.279, 155.236 258.344, 155.386 257.104, 155.585 254.849, 155.898 252.594, 156.166 252.520, 156.175 250.120, 156.413 247.655, 156.614 245.129, 156.776 242.549, 156.900 239.918, 156.984 237.242, 157.029 234.526, 157.035 231.777, 157.002 228.999, 156.930 226.199, 156.818 223.381, 156.668 220.551, 156.479 217.716, 156.252 214.881, 155.987 212.051, 155.685 209.232, 155.346 206.430, 154.972 203.651, 154.562 200.900, 154.118 198.183, 153.641 195.505, 153.132 192.872, 152.590 190.288, 152.019 187.760, 151.418 185.292, 150.790 182.888, 150.134 180.555, 149.454 179.800, 149.218 178.297, 148.749 176.118, 148.022 174.563, 147.467 174.022, 147.273 " />
    <path fill="#FFFFFF" stroke="#FFFFFF" stroke-width="13.0" stroke-linecap="round" stroke-linejoin="round" d=" M 267.339, 153.234 266.922, 153.360 265.670, 153.739 263.905, 154.212 262.047, 154.654 260.099, 155.063 258.344, 155.386 " />
    <path fill="#FFFFFF" stroke="#FFFFFF" stroke-width="13.0" stroke-linecap="round" stroke-linejoin="round" d=" M 270.193, 152.055 269.957, 152.158 268.871, 152.632 268.744, 152.680 267.445, 153.181 266.922, 153.360 " />
    <path fill="#FFFFFF" stroke="#FFFFFF" stroke-width="13.0" stroke-linecap="round" stroke-linejoin="round" d=" M 271.972, 150.931 271.002, 151.566 270.958, 151.590 270.853, 151.650 270.769, 151.697 270.574, 151.808 270.572, 151.809 269.957, 152.158 " />
    <path fill="#FFFFFF" stroke="#FFFFFF" stroke-width="13.0" stroke-linecap="round" stroke-linejoin="round" d=" M 271.381, 151.231 270.838, 151.644 270.769, 151.697 " />
    <path fill="#FFFFFF" stroke="#FFFFFF" stroke-width="13.0" stroke-linecap="round" stroke-linejoin="round" d=" M 270.664, 151.683 270.572, 151.809 " />
    <path fill="#FFFFFF" stroke="#FFFFFF" stroke-width="13.0" stroke-linecap="round" stroke-linejoin="round" d=" M 162.784, 141.382 162.755, 141.337 162.450, 140.872 " />
    <path fill="#FFFFFF" stroke="#FFFFFF" stroke-width="13.0" stroke-linecap="round" stroke-linejoin="round" d=" M 162.853, 141.455 162.784, 141.382 162.744, 141.339 162.730, 141.324 162.484, 141.060 " />
  </g>
</svg>