<?xml version='1.0' encoding='utf-8'?>
<svg xmlns="http://www.w3.org/2000/svg" version="1.1" width="400" height="400" viewBox="0 0 400 400">
  <g>
    <path fill="#FFFFFF" stroke="#FFFFFF" stroke-width="13.0" stroke-linecap="round" stroke-linejoin="round" d=" M 145.314, 196.572 140.946, 201.756 140.459, 202.355 140.023, 202.964 139.639, 203.583 139.306, 204.211 139.025, 204.848 136.285, 211.435 136.051, 212.094 135.869, 212.762 135.742, 213.437 134.330, 223.337 132.918, 233.237 131.506, 243.137 130.094, 253.037 128.682, 262.936 127.270, 272.836 125.858, 282.736 124.446, 292.636 123.034, 302.536 122.408, 306.929 122.333, 307.612 122.312, 308.302 122.344, 308.999 122.429, 309.703 122.567, 310.412 123.614, 315.394 123.802, 316.095 124.041, 316.801 124.333, 317.511 124.676, 318.226 125.071, 318.944 125.517, 319.666 126.014, 320.390 126.562, 321.117 127.160, 321.846 127.808, 322.576 128.505, 323.308 129.252, 324.040 130.047, 324.772 137.421, 331.178 138.177, 331.835 138.976, 332.490 139.818, 333.145 140.701, 333.798 141.625, 334.450 142.590, 335.099 143.595, 335.746 144.640, 336.390 145.723, 337.030 146.845, 337.667 148.004, 338.300 149.200, 338.928 150.432, 339.551 151.700, 340.169 153.002, 340.782 154.338, 341.388 155.708, 341.988 157.109, 342.581 158.542, 343.168 160.005, 343.746 161.498, 344.317 163.019, 344.880 164.569, 345.435 166.145, 345.981 167.747, 346.517 169.374, 347.044 171.026, 347.562 172.700, 348.069 174.396, 348.566 176.113, 349.052 177.850, 349.527 179.606, 349.991 181.379, 350.444 183.170, 350.884 184.976, 351.313 186.797, 351.729 188.631, 352.133 190.477, 352.523 192.335, 352.901 194.203, 353.266 196.080, 353.617 197.965, 353.954 199.857, 354.277 201.754, 354.586 203.656, 354.881 205.561, 355.162 207.468, 355.427 209.377, 355.678 211.285, 355.914 213.192, 356.135 215.096, 356.341 216.997, 356.531 218.894, 356.706 220.784, 356.865 222.667, 357.008 224.543, 357.136 226.409, 357.248 228.264, 357.344 230.109, 357.424 231.940, 357.488 233.758, 357.536 235.561, 357.568 237.348, 357.584 239.119, 357.584 240.871, 357.567 242.604, 357.535 244.317, 357.486 246.009, 357.421 247.678, 357.341 249.325, 357.244 250.947, 357.131 252.544, 357.003 254.115, 356.859 255.659, 356.699 257.175, 356.524 258.662, 356.333 260.120, 356.126 261.546, 355.905 262.941, 355.668 264.304, 355.417 265.633, 355.151 266.929, 354.870 268.189, 354.574 269.414, 354.264 270.603, 353.940 271.755, 353.603 272.869, 353.251 273.945, 352.886 274.982, 352.508 275.979, 352.117 276.936, 351.712 277.852, 351.296 286.707, 347.214 287.682, 346.736 288.612, 346.244 289.493, 345.738 290.327, 345.220 291.113, 344.690 291.850, 344.147 292.538, 343.592 293.176, 343.026 293.764, 342.448 294.301, 341.860 294.788, 341.261 295.224, 340.652 295.609, 340.033 298.005, 335.544 298.344, 334.903 298.631, 334.253 298.865, 333.594 299.046, 332.927 299.174, 332.251 300.586, 322.351 301.998, 312.451 303.410, 302.552 304.822, 292.652 306.234, 282.752 307.646, 272.852 309.058, 262.952 310.470, 253.053 311.882, 243.153 312.508, 238.760 312.583, 238.077 312.604, 237.386 312.572, 236.689 311.783, 229.596 311.699, 228.907 311.564, 228.211 311.376, 227.511 311.136, 226.805 310.845, 226.095 308.021, 219.717 " />
    <path fill="#FFFFFF" stroke="#FFFFFF" stroke-width="13.0" stroke-linecap="round" stroke-linejoin="round" d=" M 305.760, 222.138 305.491, 222.645 305.137, 223.215 304.735, 223.777 304.286, 224.329 303.791, 224.871 303.249, 225.404 302.660, 225.926 302.027, 226.437 301.347, 226.938 300.623, 227.427 299.854, 227.904 299.041, 228.370 298.185, 228.824 297.285, 229.265 296.343, 229.693 295.359, 230.109 294.334, 230.512 293.268, 230.901 292.161, 231.276 291.016, 231.637 289.831, 231.985 288.608, 232.318 287.349, 232.636 286.052, 232.940 284.720, 233.229 283.353, 233.503 281.952, 233.762 280.517, 234.005 279.050, 234.233 277.551, 234.445 276.022, 234.641 274.463, 234.821 272.876, 234.986 271.260, 235.134 269.618, 235.266 267.949, 235.382 266.256, 235.481 264.539, 235.564 262.800, 235.631 261.038, 235.681 259.404, 235.711 259.256, 235.714 257.454, 235.731 255.633, 235.731 253.796, 235.715 251.941, 235.682 250.072, 235.633 248.189, 235.567 246.292, 235.485 244.384, 235.386 242.465, 235.271 240.536, 235.140 238.600, 234.992 236.656, 234.828 234.706, 234.649 232.751, 234.453 230.792, 234.241 228.831, 234.014 226.869, 233.772 224.906, 233.514 222.945, 233.240 220.986, 232.952 219.030, 232.649 217.079, 232.331 215.134, 231.998 213.196, 231.652 211.265, 231.291 209.345, 230.916 207.434, 230.527 205.535, 230.126 203.649, 229.710 201.777, 229.282 199.919, 228.842 198.078, 228.389 196.254, 227.923 194.449, 227.446 192.662, 226.958 190.897, 226.458 189.152, 225.947 187.431, 225.425 186.849, 225.243 185.733, 224.893 184.060, 224.351 182.412, 223.799 180.791, 223.238 179.198, 222.668 177.633, 222.089 176.098, 221.502 174.593, 220.906 173.120, 220.304 171.679, 219.693 170.271, 219.076 168.897, 218.453 167.557, 217.823 166.254, 217.187 164.987, 216.547 163.757, 215.901 162.565, 215.250 161.411, 214.595 160.297, 213.937 159.223, 213.275 158.189, 212.609 157.197, 211.942 156.246, 211.272 155.338, 210.600 154.473, 209.927 153.652, 209.252 152.874, 208.577 152.141, 207.902 151.453, 207.227 150.810, 206.553 150.212, 205.880 149.661, 205.208 149.156, 204.538 148.698, 203.870 148.287, 203.205 147.923, 202.543 147.607, 201.884 147.338, 201.229 147.117, 200.578 146.944, 199.932 146.891, 199.663 " />
    <path fill="#FFFFFF" stroke="#FFFFFF" stroke-width="13.0" stroke-linecap="round" stroke-linejoin="round" d=" M 259.404, 235.711 261.529, 235.636 264.411, 235.481 267.216, 235.276 268.271, 235.179 271.058, 234.917 273.754, 234.605 276.356, 234.242 278.857, 233.830 281.252, 233.369 283.537, 232.861 285.707, 232.305 287.116, 231.935 289.211, 231.322 291.180, 230.663 293.019, 229.960 294.481, 229.348 296.219, 228.588 297.818, 227.786 299.273, 226.943 300.730, 226.097 302.063, 225.200 303.423, 224.163 304.623, 223.214 305.666, 222.230 305.760, 222.138 306.920, 221.004 307.817, 219.972 308.021, 219.717 308.924, 218.591 309.667, 217.515 310.608, 216.001 311.190, 214.884 311.949, 213.262 312.365, 212.110 312.929, 210.404 313.176, 209.220 313.535, 207.458 313.683, 205.666 313.759, 204.458 313.695, 202.664 313.601, 201.439 313.326, 199.670 313.062, 198.433 312.582, 196.718 312.154, 195.475 311.477, 193.841 310.888, 192.598 310.027, 191.072 309.285, 189.834 308.383, 188.587 307.368, 187.213 306.324, 185.979 305.163, 184.762 303.987, 183.546 302.661, 182.328 301.190, 181.113 299.960, 180.119 298.378, 178.931 296.658, 177.748 294.805, 176.574 293.560, 175.827 291.619, 174.689 289.555, 173.563 287.373, 172.453 285.076, 171.360 282.669, 170.287 280.156, 169.235 279.116, 168.825 276.564, 167.821 273.919, 166.842 271.187, 165.891 268.374, 164.968 265.484, 164.077 262.524, 163.219 259.500, 162.395 256.417, 161.607 253.283, 160.858 250.102, 160.147 246.883, 159.478 243.631, 158.851 240.352, 158.267 237.054, 157.727 233.743, 157.234 230.426, 156.787 227.109, 156.387 223.799, 156.036 220.503, 155.734 217.227, 155.482 213.978, 155.280 210.763, 155.128 207.587, 155.028 204.458, 154.978 201.381, 154.980 198.364, 155.033 195.411, 155.137 192.529, 155.292 189.724, 155.498 188.669, 155.595 185.882, 155.857 183.185, 156.169 180.584, 156.532 178.083, 156.944 175.688, 157.405 173.403, 157.913 171.233, 158.468 169.824, 158.838 167.729, 159.452 165.760, 160.111 163.921, 160.814 162.459, 161.426 160.720, 162.186 159.122, 162.988 157.666, 163.831 156.210, 164.677 154.877, 165.573 153.516, 166.611 152.317, 167.559 151.274, 168.544 150.020, 169.770 149.123, 170.802 148.015, 172.182 147.273, 173.259 146.332, 174.772 145.750, 175.889 144.991, 177.511 144.574, 178.664 144.011, 180.370 143.764, 181.553 143.405, 183.315 143.257, 185.107 143.180, 186.315 143.245, 188.110 143.339, 189.335 143.614, 191.104 143.877, 192.341 144.358, 194.056 144.786, 195.299 145.314, 196.572 145.463, 196.932 146.052, 198.175 146.891, 199.663 146.913, 199.701 147.655, 200.939 148.557, 202.186 149.572, 203.561 150.616, 204.795 151.776, 206.012 152.953, 207.228 154.278, 208.445 155.749, 209.661 156.979, 210.655 158.562, 211.843 160.282, 213.026 162.135, 214.200 163.380, 214.946 165.321, 216.085 167.384, 217.210 169.567, 218.321 171.864, 219.414 174.271, 220.487 176.783, 221.539 177.823, 221.948 180.376, 222.953 183.020, 223.932 185.752, 224.883 186.849, 225.243 " />
    <path fill="#FFFFFF" stroke="#FFFFFF" stroke-width="13.0" stroke-linecap="round" stroke-linejoin="round" d=" M 177.132, 183.585 176.979, 183.458 176.099, 182.650 176.007, 182.566 176.004, 182.563 175.992, 182.550 175.931, 182.487 175.864, 182.418 175.844, 182.398 175.506, 182.049 175.139, 181.669 " />
    <path fill="#FFFFFF" stroke="#FFFFFF" stroke-width="13.0" stroke-linecap="round" stroke-linejoin="round" d=" M 300.730, 226.097 299.249, 226.954 297.622, 227.771 295.853, 228.545 293.944, 229.274 291.901, 229.958 289.726, 230.595 287.425, 231.184 285.002, 231.723 282.462, 232.212 279.810, 232.649 277.052, 233.034 274.192, 233.365 271.237, 233.642 268.193, 233.866 265.065, 234.034 261.861, 234.147 258.586, 234.204 255.247, 234.206 251.851, 234.152 248.405, 234.043 244.916, 233.879 241.390, 233.660 237.834, 233.386 234.257, 233.058 230.665, 232.677 227.065, 232.244 223.465, 231.759 219.872, 231.223 216.292, 230.638 212.734, 230.004 209.205, 229.323 205.711, 228.596 202.260, 227.826 198.858, 227.012 195.513, 226.157 192.230, 225.263 189.018, 224.332 185.882, 223.365 182.828, 222.364 179.863, 221.331 176.993, 220.268 174.223, 219.179 171.559, 218.063 169.007, 216.925 166.571, 215.766 164.257, 214.588 162.068, 213.395 160.010, 212.188 158.087, 210.969 156.302, 209.742 154.660, 208.508 153.163, 207.271 151.814, 206.032 150.616, 204.795 " />
    <path fill="#FFFFFF" stroke="#FFFFFF" stroke-width="13.0" stroke-linecap="round" stroke-linejoin="round" d=" M 180.452, 185.868 179.373, 185.184 178.049, 184.274 177.132, 183.585 176.831, 183.359 " />
    <path fill="#FFFFFF" stroke="#FFFFFF" stroke-width="13.0" stroke-linecap="round" stroke-linejoin="round" d=" M 190.368, 190.661 188.356, 189.819 187.848, 189.593 186.410, 188.951 184.554, 188.068 182.790, 187.171 181.122, 186.261 180.452, 185.868 179.554, 185.341 " />
    <path fill="#FFFFFF" stroke="#FFFFFF" stroke-width="13.0" stroke-linecap="round" stroke-linejoin="round" d=" M 265.378, 201.595 265.289, 201.602 262.992, 201.770 260.541, 201.902 258.030, 201.990 255.463, 202.035 252.847, 202.037 250.185, 201.995 247.484, 201.909 244.749, 201.780 241.986, 201.608 239.200, 201.394 236.396, 201.137 233.581, 200.838 230.760, 200.499 227.938, 200.119 225.122, 199.699 222.317, 199.240 219.528, 198.743 216.762, 198.210 214.024, 197.640 211.319, 197.036 208.653, 196.399 206.031, 195.729 203.459, 195.028 200.941, 194.298 198.483, 193.540 196.090, 192.755 193.766, 191.946 191.517, 191.113 190.368, 190.661 189.346, 190.259 " />
    <path fill="#FFFFFF" stroke="#FFFFFF" stroke-width="13.0" stroke-linecap="round" stroke-linejoin="round" d=" M 278.414, 199.370 277.267, 199.664 276.660, 199.819 274.814, 200.230 272.878, 200.602 270.857, 200.935 269.092, 201.181 268.754, 201.228 266.575, 201.481 265.289, 201.602 " />
    <path fill="#FFFFFF" stroke="#FFFFFF" stroke-width="13.0" stroke-linecap="round" stroke-linejoin="round" d=" M 281.549, 198.219 281.044, 198.412 280.133, 198.760 278.618, 199.268 277.267, 199.664 " />
    <path fill="#FFFFFF" stroke="#FFFFFF" stroke-width="13.0" stroke-linecap="round" stroke-linejoin="round" d=" M 283.611, 197.062 283.072, 197.374 282.629, 197.631 282.587, 197.655 282.541, 197.682 282.518, 197.693 282.446, 197.729 282.425, 197.740 282.346, 197.779 281.365, 198.272 281.044, 198.412 " />
    <path fill="#FFFFFF" stroke="#FFFFFF" stroke-width="13.0" stroke-linecap="round" stroke-linejoin="round" d=" M 283.094, 197.276 282.997, 197.341 282.710, 197.534 282.643, 197.580 282.476, 197.692 282.453, 197.708 282.346, 197.779 " />
    <path fill="#FFFFFF" stroke="#FFFFFF" stroke-width="13.0" stroke-linecap="round" stroke-linejoin="round" d=" M 283.257, 197.001 282.928, 197.311 282.643, 197.580 " />
    <path fill="#FFFFFF" stroke="#FFFFFF" stroke-width="13.0" stroke-linecap="round" stroke-linejoin="round" d=" M 282.592, 197.548 282.453, 197.708 " />
    <path fill="#FFFFFF" stroke="#FFFFFF" stroke-width="13.0" stroke-linecap="round" stroke-linejoin="round" d=" M 175.857, 182.364 175.655, 182.028 175.461, 181.703 " />
    <path fill="#FFFFFF" stroke="#FFFFFF" stroke-width="13.0" stroke-linecap="round" stroke-linejoin="round" d=" M 176.099, 182.650 175.981, 182.511 175.970, 182.498 175.857, 182.364 175.786, 182.281 175.581, 182.038 175.562, 182.016 " />
    <path fill="#FFFFFF" stroke="#FFFFFF" stroke-width="13.0" stroke-linecap="round" stroke-linejoin="round" d=" M 175.981, 182.511 175.934, 182.412 " />
  </g>
</svg>