<?xml version='1.0' encoding='utf-8'?>
<svg xmlns="http://www.w3.org/2000/svg" version="1.1" width="400" height="400" viewBox="0 0 400 400">
  <g>
    <path fill="#FFFFFF" stroke="#FFFFFF" stroke-width="13.0" stroke-linecap="round" stroke-linejoin="round" d=" M 147.334, 196.386 142.800, 201.514 142.315, 202.124 141.880, 202.746 141.497, 203.379 141.164, 204.021 138.288, 210.516 138.002, 211.182 137.768, 211.859 137.588, 212.544 137.460, 213.239 135.832, 223.106 134.203, 232.972 132.575, 242.839 130.947, 252.705 129.318, 262.572 127.690, 272.438 126.061, 282.305 124.433, 292.171 122.805, 302.038 122.131, 306.123 122.056, 306.826 122.034, 307.538 122.066, 308.257 122.151, 308.984 122.289, 309.718 123.227, 314.700 123.414, 315.425 123.653, 316.157 123.944, 316.894 124.286, 317.636 124.679, 318.383 125.124, 319.134 125.619, 319.888 126.165, 320.646 126.761, 321.407 127.406, 322.170 128.102, 322.934 128.846, 323.701 129.639, 324.468 130.479, 325.235 137.605, 331.640 138.401, 332.328 139.240, 333.016 140.120, 333.703 141.041, 334.389 142.003, 335.072 143.005, 335.754 144.047, 336.434 145.127, 337.110 146.245, 337.784 147.401, 338.453 148.593, 339.119 149.822, 339.779 151.085, 340.436 152.384, 341.086 153.716, 341.731 155.081, 342.370 156.478, 343.003 157.906, 343.629 159.365, 344.247 160.853, 344.858 162.370, 345.461 163.915, 346.056 165.486, 346.642 167.084, 347.219 168.706, 347.786 170.352, 348.344 172.021, 348.892 173.712, 349.429 175.424, 349.956 177.156, 350.472 178.907, 350.976 180.675, 351.469 182.460, 351.950 184.261, 352.418 186.076, 352.874 187.905, 353.318 189.746, 353.748 191.598, 354.165 193.461, 354.568 195.332, 354.958 197.211, 355.333 199.097, 355.694 200.989, 356.041 202.885, 356.373 204.785, 356.690 206.686, 356.992 208.589, 357.279 210.492, 357.551 212.393, 357.807 214.292, 358.047 216.187, 358.271 218.078, 358.479 219.963, 358.671 221.841, 358.846 223.711, 359.006 225.571, 359.149 227.421, 359.275 229.260, 359.385 231.086, 359.477 232.899, 359.554 234.697, 359.613 236.479, 359.656 238.244, 359.681 239.991, 359.690 241.719, 359.682 243.427, 359.657 245.114, 359.615 246.779, 359.556 248.421, 359.481 250.038, 359.388 251.631, 359.279 253.197, 359.154 254.737, 359.012 256.249, 358.853 257.731, 358.678 259.184, 358.487 260.607, 358.279 261.998, 358.056 263.357, 357.816 264.682, 357.561 265.974, 357.290 267.231, 357.004 268.453, 356.702 269.639, 356.386 270.787, 356.054 271.898, 355.708 272.971, 355.347 274.005, 354.972 274.999, 354.583 275.954, 354.181 284.816, 350.380 285.835, 349.916 286.809, 349.436 287.735, 348.942 288.615, 348.434 289.446, 347.912 290.230, 347.376 290.965, 346.827 291.651, 346.265 292.287, 345.690 292.874, 345.103 293.410, 344.504 293.896, 343.893 294.330, 343.271 294.714, 342.639 297.207, 338.216 297.546, 337.560 297.833, 336.894 298.066, 336.218 298.247, 335.532 298.375, 334.837 300.003, 324.970 301.632, 315.104 303.260, 305.237 304.888, 295.371 306.517, 285.504 308.145, 275.638 309.773, 265.771 311.402, 255.905 313.030, 246.038 313.704, 241.953 313.779, 241.250 313.800, 240.538 313.769, 239.819 313.132, 232.738 313.048, 232.025 312.913, 231.306 312.726, 230.581 312.488, 229.849 312.197, 229.113 309.679, 223.104 " />
    <path fill="#FFFFFF" stroke="#FFFFFF" stroke-width="13.0" stroke-linecap="round" stroke-linejoin="round" d=" M 307.162, 225.741 307.096, 225.869 306.742, 226.453 306.341, 227.026 305.894, 227.589 305.399, 228.141 304.859, 228.682 304.272, 229.212 303.640, 229.730 302.962, 230.237 302.240, 230.730 301.473, 231.212 300.663, 231.680 299.809, 232.136 298.911, 232.577 297.972, 233.006 296.991, 233.420 295.968, 233.820 294.905, 234.206 293.802, 234.576 292.659, 234.932 291.478, 235.273 290.259, 235.599 289.002, 235.909 287.710, 236.203 286.381, 236.482 285.018, 236.744 283.621, 236.990 282.190, 237.220 280.727, 237.434 279.233, 237.630 277.708, 237.810 276.154, 237.974 274.571, 238.120 272.960, 238.249 271.322, 238.361 269.659, 238.456 267.970, 238.534 266.258, 238.594 264.524, 238.637 262.767, 238.663 260.990, 238.671 259.193, 238.662 257.378, 238.636 256.138, 238.606 255.546, 238.592 253.697, 238.531 251.833, 238.453 249.955, 238.357 248.064, 238.244 246.161, 238.115 244.248, 237.968 242.325, 237.804 240.394, 237.623 238.456, 237.426 236.511, 237.212 234.562, 236.981 232.610, 236.734 230.654, 236.471 228.698, 236.192 226.741, 235.897 224.786, 235.587 222.832, 235.260 220.883, 234.919 218.937, 234.562 216.998, 234.191 215.065, 233.805 213.141, 233.404 211.225, 232.989 209.321, 232.561 207.427, 232.118 205.547, 231.662 203.680, 231.193 201.828, 230.712 199.993, 230.217 198.174, 229.710 196.374, 229.192 194.593, 228.661 192.833, 228.120 192.371, 227.973 191.094, 227.567 189.377, 227.004 187.684, 226.430 186.016, 225.846 184.374, 225.253 182.758, 224.651 181.169, 224.039 179.609, 223.419 178.079, 222.791 176.578, 222.155 175.110, 221.511 173.673, 220.861 172.269, 220.204 170.899, 219.540 169.564, 218.871 168.265, 218.196 167.002, 217.517 165.775, 216.832 164.587, 216.144 163.437, 215.451 162.326, 214.756 161.255, 214.057 160.225, 213.356 159.236, 212.653 158.288, 211.948 157.383, 211.241 156.521, 210.534 155.702, 209.827 154.927, 209.119 154.196, 208.412 153.510, 207.706 152.869, 207.001 152.274, 206.298 151.724, 205.596 151.221, 204.898 150.765, 204.202 150.355, 203.510 149.992, 202.822 149.677, 202.138 149.409, 201.458 149.189, 200.784 149.017, 200.115 148.961, 199.819 " />
    <path fill="#FFFFFF" stroke="#FFFFFF" stroke-width="13.0" stroke-linecap="round" stroke-linejoin="round" d=" M 256.138, 238.606 257.258, 238.622 260.266, 238.612 263.211, 238.548 266.084, 238.430 267.086, 238.374 269.948, 238.199 272.727, 237.970 275.416, 237.687 278.010, 237.351 280.504, 236.963 282.892, 236.523 285.171, 236.032 286.547, 235.714 288.758, 235.161 290.847, 234.559 292.810, 233.908 294.644, 233.210 296.124, 232.638 297.858, 231.879 299.452, 231.075 300.905, 230.281 302.382, 229.419 303.711, 228.513 305.097, 227.511 306.293, 226.550 307.162, 225.741 307.561, 225.370 308.615, 224.356 309.510, 223.304 309.679, 223.104 310.648, 221.952 311.389, 220.853 312.363, 219.365 312.944, 218.221 313.737, 216.621 314.336, 214.937 314.753, 213.750 315.149, 212.003 315.396, 210.784 315.583, 209.002 315.659, 207.757 315.634, 205.968 315.540, 204.702 315.303, 202.935 315.041, 201.656 314.597, 199.939 314.171, 198.650 313.530, 197.011 312.943, 195.720 312.117, 194.186 311.377, 192.898 310.478, 191.599 309.494, 190.214 308.454, 188.926 307.323, 187.695 306.150, 186.424 304.829, 185.149 303.363, 183.873 302.159, 182.867 300.581, 181.618 298.867, 180.373 297.020, 179.135 295.043, 177.906 293.862, 177.175 291.805, 175.984 289.629, 174.806 287.339, 173.645 284.939, 172.502 282.434, 171.381 279.830, 170.282 278.868, 169.894 276.231, 168.846 273.507, 167.824 270.702, 166.831 267.821, 165.870 264.870, 164.941 261.854, 164.047 258.781, 163.189 255.656, 162.370 252.485, 161.591 249.276, 160.853 246.033, 160.158 242.764, 159.508 239.476, 158.903 236.175, 158.345 232.867, 157.835 229.560, 157.375 226.260, 156.964 222.973, 156.604 219.707, 156.296 216.468, 156.040 213.262, 155.836 210.095, 155.686 206.975, 155.589 203.908, 155.546 200.899, 155.556 197.955, 155.620 195.081, 155.738 194.080, 155.794 191.217, 155.969 188.439, 156.198 185.749, 156.480 183.155, 156.816 180.662, 157.205 178.273, 157.645 175.995, 158.136 174.618, 158.454 172.407, 159.006 170.318, 159.609 168.355, 160.260 166.521, 160.958 165.041, 161.530 163.307, 162.289 161.713, 163.093 160.260, 163.886 158.783, 164.749 157.454, 165.654 156.069, 166.657 154.873, 167.618 153.604, 168.798 152.550, 169.812 151.655, 170.864 150.517, 172.215 149.777, 173.315 148.802, 174.803 148.222, 175.946 147.428, 177.547 146.830, 179.231 146.412, 180.418 146.017, 182.165 145.769, 183.384 145.583, 185.166 145.506, 186.411 145.532, 188.200 145.626, 189.465 145.862, 191.233 146.125, 192.512 146.568, 194.229 146.995, 195.517 147.334, 196.386 147.636, 197.156 148.222, 198.447 148.961, 199.819 149.049, 199.982 149.789, 201.270 150.688, 202.569 151.671, 203.954 152.711, 205.242 153.843, 206.472 155.015, 207.744 156.336, 209.019 157.803, 210.294 159.007, 211.300 160.584, 212.550 162.299, 213.794 164.146, 215.033 166.122, 216.261 167.304, 216.993 169.361, 218.184 171.537, 219.362 173.827, 220.523 176.227, 221.665 178.731, 222.787 181.335, 223.885 182.298, 224.273 184.934, 225.322 187.658, 226.344 190.463, 227.336 192.371, 227.973 " />
    <path fill="#FFFFFF" stroke="#FFFFFF" stroke-width="13.0" stroke-linecap="round" stroke-linejoin="round" d=" M 179.913, 184.819 179.511, 184.469 178.674, 183.662 178.539, 183.532 178.503, 183.492 178.474, 183.461 178.472, 183.459 178.407, 183.389 178.383, 183.363 177.677, 182.597 " />
    <path fill="#FFFFFF" stroke="#FFFFFF" stroke-width="13.0" stroke-linecap="round" stroke-linejoin="round" d=" M 300.905, 230.281 299.282, 231.099 297.518, 231.872 295.615, 232.596 293.577, 233.272 291.409, 233.897 289.114, 234.470 286.698, 234.991 284.165, 235.458 281.521, 235.869 278.770, 236.226 275.919, 236.525 272.972, 236.768 269.937, 236.954 266.818, 237.081 263.623, 237.151 260.357, 237.162 257.028, 237.115 253.642, 237.010 250.206, 236.846 246.727, 236.626 243.211, 236.348 239.666, 236.013 236.100, 235.623 232.518, 235.177 228.929, 234.677 225.339, 234.124 221.756, 233.518 218.188, 232.862 214.640, 232.156 211.121, 231.402 207.638, 230.602 204.197, 229.756 200.805, 228.867 197.470, 227.936 194.198, 226.966 190.995, 225.958 187.868, 224.914 184.824, 223.837 181.868, 222.728 179.006, 221.590 176.245, 220.425 173.589, 219.236 171.044, 218.024 168.616, 216.793 166.309, 215.544 164.127, 214.281 162.076, 213.006 160.158, 211.721 158.379, 210.428 156.742, 209.132 155.250, 207.834 153.905, 206.536 152.711, 205.242 " />
    <path fill="#FFFFFF" stroke="#FFFFFF" stroke-width="13.0" stroke-linecap="round" stroke-linejoin="round" d=" M 183.743, 187.524 183.341, 187.274 181.919, 186.321 180.600, 185.363 179.913, 184.819 179.385, 184.401 " />
    <path fill="#FFFFFF" stroke="#FFFFFF" stroke-width="13.0" stroke-linecap="round" stroke-linejoin="round" d=" M 194.796, 192.964 192.917, 192.171 190.893, 191.265 188.954, 190.341 188.582, 190.153 187.103, 189.403 185.344, 188.451 183.743, 187.524 183.682, 187.489 " />
    <path fill="#FFFFFF" stroke="#FFFFFF" stroke-width="13.0" stroke-linecap="round" stroke-linejoin="round" d=" M 265.323, 204.712 265.087, 204.721 262.879, 204.812 260.375, 204.866 257.816, 204.875 255.207, 204.838 252.553, 204.756 249.860, 204.628 247.133, 204.455 244.378, 204.237 241.600, 203.975 238.804, 203.668 235.997, 203.319 233.184, 202.927 230.371, 202.494 227.563, 202.019 224.767, 201.505 221.986, 200.952 219.228, 200.361 216.498, 199.733 213.802, 199.071 211.143, 198.374 208.530, 197.644 205.965, 196.884 203.455, 196.094 201.004, 195.276 198.618, 194.431 196.302, 193.563 194.796, 192.964 194.059, 192.671 " />
    <path fill="#FFFFFF" stroke="#FFFFFF" stroke-width="13.0" stroke-linecap="round" stroke-linejoin="round" d=" M 278.938, 202.875 278.198, 203.035 277.096, 203.272 275.166, 203.628 273.151, 203.942 272.584, 204.015 271.054, 204.213 268.881, 204.442 266.635, 204.627 265.087, 204.721 " />
    <path fill="#FFFFFF" stroke="#FFFFFF" stroke-width="13.0" stroke-linecap="round" stroke-linejoin="round" d=" M 283.794, 201.267 283.505, 201.377 283.469, 201.390 282.472, 201.770 282.383, 201.804 280.871, 202.305 279.263, 202.769 278.198, 203.035 " />
    <path fill="#FFFFFF" stroke="#FFFFFF" stroke-width="13.0" stroke-linecap="round" stroke-linejoin="round" d=" M 284.762, 200.690 284.434, 200.855 284.419, 200.863 284.293, 200.926 284.292, 200.926 284.285, 200.930 284.081, 201.033 283.589, 201.281 282.472, 201.770 " />
    <path fill="#FFFFFF" stroke="#FFFFFF" stroke-width="13.0" stroke-linecap="round" stroke-linejoin="round" d=" M 285.288, 200.237 284.553, 200.738 284.384, 200.853 284.351, 200.875 284.321, 200.893 284.313, 200.897 284.081, 201.033 " />
    <path fill="#FFFFFF" stroke="#FFFFFF" stroke-width="13.0" stroke-linecap="round" stroke-linejoin="round" d=" M 284.715, 200.587 284.384, 200.853 " />
    <path fill="#FFFFFF" stroke="#FFFFFF" stroke-width="13.0" stroke-linecap="round" stroke-linejoin="round" d=" M 284.727, 200.410 284.313, 200.897 " />
    <path fill="#FFFFFF" stroke="#FFFFFF" stroke-width="13.0" stroke-linecap="round" stroke-linejoin="round" d=" M 178.363, 183.277 177.944, 182.547 " />
    <path fill="#FFFFFF" stroke="#FFFFFF" stroke-width="13.0" stroke-linecap="round" stroke-linejoin="round" d=" M 178.459, 183.395 178.385, 183.233 " />
    <path fill="#FFFFFF" stroke="#FFFFFF" stroke-width="13.0" stroke-linecap="round" stroke-linejoin="round" d=" M 178.674, 183.662 178.459, 183.395 178.439, 183.370 178.363, 183.277 178.285, 183.180 178.074, 182.919 " />
  </g>
</svg>