<?xml version='1.0' encoding='utf-8'?>
<svg xmlns="http://www.w3.org/2000/svg" version="1.1" width="400" height="400" viewBox="0 0 400 400">
  <g>
    <path fill="#FFFFFF" stroke="#FFFFFF" stroke-width="13.0" stroke-linecap="round" stroke-linejoin="round" d=" M 98.004, 150.860 96.338, 153.923 95.894, 154.742 95.501, 155.562 95.160, 156.381 94.872, 157.200 94.635, 158.018 94.451, 158.835 93.186, 165.666 93.051, 166.498 92.970, 167.326 92.943, 168.152 92.969, 168.975 93.726, 178.946 94.482, 188.917 95.238, 198.889 95.994, 208.860 96.750, 218.831 97.506, 228.803 98.262, 238.774 99.019, 248.746 99.775, 258.717 99.940, 260.896 100.020, 261.715 100.154, 262.529 100.341, 263.337 100.581, 264.141 100.875, 264.938 101.222, 265.729 103.302, 270.226 103.694, 270.994 104.137, 271.756 104.632, 272.510 105.178, 273.256 105.774, 273.993 106.421, 274.721 107.118, 275.439 107.864, 276.148 108.659, 276.847 109.503, 277.534 110.395, 278.211 111.335, 278.876 112.321, 279.529 113.354, 280.169 114.433, 280.797 115.557, 281.412 116.725, 282.013 124.728, 285.967 125.814, 286.493 126.940, 287.007 128.102, 287.508 129.303, 287.995 130.539, 288.469 131.811, 288.929 133.119, 289.374 134.460, 289.805 135.835, 290.222 137.242, 290.623 138.681, 291.009 140.150, 291.380 141.650, 291.735 143.179, 292.074 144.735, 292.397 146.319, 292.704 147.929, 292.994 149.565, 293.267 151.224, 293.524 152.907, 293.764 154.612, 293.987 156.338, 294.192 158.085, 294.380 159.850, 294.550 161.634, 294.703 163.434, 294.839 165.251, 294.956 167.082, 295.056 168.927, 295.137 170.784, 295.201 172.653, 295.247 174.533, 295.275 176.421, 295.285 178.318, 295.276 180.221, 295.250 182.131, 295.206 184.045, 295.143 185.962, 295.063 187.882, 294.965 189.803, 294.849 191.724, 294.715 193.643, 294.563 195.561, 294.394 197.475, 294.208 199.384, 294.004 201.288, 293.782 203.185, 293.544 205.073, 293.289 206.953, 293.016 208.822, 292.728 210.680, 292.422 212.525, 292.100 214.356, 291.763 216.173, 291.409 217.974, 291.039 219.758, 290.655 221.524, 290.254 223.270, 289.839 224.997, 289.409 226.702, 288.965 228.385, 288.506 230.045, 288.034 231.681, 287.547 233.292, 287.048 234.876, 286.535 236.433, 286.009 237.962, 285.471 239.462, 284.921 240.932, 284.359 242.372, 283.786 243.779, 283.202 245.155, 282.606 246.497, 282.001 247.804, 281.385 249.077, 280.760 250.314, 280.125 251.515, 279.482 252.678, 278.830 253.804, 278.170 254.891, 277.502 255.939, 276.827 256.947, 276.145 264.224, 271.056 265.304, 270.288 266.338, 269.513 267.325, 268.731 268.265, 267.944 269.158, 267.152 270.003, 266.354 270.799, 265.552 271.546, 264.746 272.244, 263.937 272.891, 263.125 273.489, 262.310 274.035, 261.493 274.531, 260.675 274.975, 259.856 275.368, 259.036 275.709, 258.216 275.997, 257.397 277.374, 252.644 277.615, 251.809 277.803, 250.976 277.938, 250.144 278.019, 249.316 278.046, 248.490 278.019, 247.667 277.263, 237.696 276.507, 227.725 275.751, 217.753 274.995, 207.782 274.239, 197.811 273.483, 187.839 272.726, 177.868 271.970, 167.896 271.214, 157.925 271.049, 155.746 270.969, 154.927 270.835, 154.113 270.648, 153.305 270.408, 152.501 268.125, 145.933 267.837, 145.151 267.497, 144.376 267.105, 143.608 266.662, 142.847 266.167, 142.093 265.622, 141.348 263.276, 138.259 " />
    <path fill="#FFFFFF" stroke="#FFFFFF" stroke-width="13.0" stroke-linecap="round" stroke-linejoin="round" d=" M 260.482, 143.531 260.295, 144.063 259.980, 144.818 259.618, 145.574 259.209, 146.329 258.752, 147.083 258.248, 147.836 257.698, 148.587 257.101, 149.336 256.458, 150.082 255.769, 150.825 255.035, 151.564 254.256, 152.299 253.433, 153.030 252.567, 153.756 251.656, 154.476 250.703, 155.190 249.708, 155.898 248.672, 156.600 247.594, 157.294 246.476, 157.981 245.319, 158.660 244.122, 159.330 242.887, 159.992 241.615, 160.645 240.306, 161.288 238.961, 161.921 237.582, 162.544 236.167, 163.156 234.720, 163.757 233.240, 164.346 231.728, 164.924 230.185, 165.490 228.613, 166.043 227.011, 166.583 225.382, 167.111 223.726, 167.624 222.044, 168.124 220.337, 168.610 218.606, 169.082 216.852, 169.539 215.077, 169.981 213.281, 170.408 211.465, 170.820 209.630, 171.216 207.778, 171.595 205.910, 171.959 204.027, 172.307 202.129, 172.637 200.219, 172.951 198.297, 173.249 196.364, 173.528 194.422, 173.791 192.471, 174.036 190.514, 174.264 188.550, 174.474 186.582, 174.665 184.610, 174.839 182.636, 174.995 180.661, 175.133 178.685, 175.252 176.711, 175.353 174.739, 175.436 172.771, 175.500 170.808, 175.545 168.850, 175.572 166.900, 175.581 164.958, 175.571 163.025, 175.542 161.103, 175.495 159.193, 175.430 157.296, 175.346 155.413, 175.243 153.545, 175.122 151.693, 174.983 149.859, 174.826 148.044, 174.651 146.248, 174.457 144.473, 174.246 142.719, 174.017 140.989, 173.771 139.282, 173.507 137.600, 173.225 135.945, 172.927 134.316, 172.612 132.715, 172.279 131.143, 171.931 129.601, 171.566 128.090, 171.184 126.610, 170.787 125.163, 170.375 123.749, 169.946 122.370, 169.503 121.026, 169.045 119.717, 168.572 118.446, 168.085 117.212, 167.584 116.016, 167.069 114.859, 166.540 113.742, 165.999 112.665, 165.445 111.629, 164.878 110.634, 164.299 109.682, 163.709 108.772, 163.107 107.906, 162.494 107.084, 161.870 106.306, 161.237 105.573, 160.593 104.885, 159.939 104.243, 159.277 103.646, 158.606 103.097, 157.926 102.593, 157.239 102.137, 156.544 101.729, 155.842 101.692, 155.771 " />
    <path fill="#FFFFFF" stroke="#FFFFFF" stroke-width="13.0" stroke-linecap="round" stroke-linejoin="round" d=" M 178.582, 89.385 175.243, 89.630 171.910, 89.932 168.591, 90.289 165.292, 90.700 162.020, 91.165 161.683, 91.219 158.368, 91.749 155.094, 92.333 151.867, 92.968 148.694, 93.655 145.582, 94.390 142.536, 95.173 139.562, 96.002 136.668, 96.876 133.857, 97.793 131.137, 98.750 128.513, 99.747 125.989, 100.780 124.912, 101.251 122.441, 102.342 120.085, 103.467 117.846, 104.624 115.730, 105.809 113.740, 107.020 112.532, 107.797 110.636, 109.057 108.878, 110.339 107.260, 111.640 106.080, 112.658 104.580, 114.000 103.230, 115.356 102.151, 116.571 100.935, 117.960 99.875, 119.358 98.930, 120.744 98.018, 122.167 97.269, 123.593 96.486, 125.121 95.895, 126.564 95.302, 128.191 94.875, 129.643 94.482, 131.341 94.224, 132.797 94.039, 134.538 93.952, 135.991 93.978, 137.745 94.064, 139.189 94.302, 140.928 94.560, 142.356 95.006, 144.050 95.433, 145.456 96.079, 147.077 96.673, 148.455 97.507, 149.976 98.004, 150.860 98.263, 151.320 99.184, 152.639 100.180, 154.021 101.252, 155.298 101.692, 155.771 102.400, 156.531 103.615, 157.761 104.985, 158.960 106.241, 160.003 107.740, 161.150 109.385, 162.261 110.713, 163.094 112.470, 164.148 114.365, 165.162 116.392, 166.133 117.715, 166.723 119.830, 167.633 122.068, 168.499 124.424, 169.317 126.893, 170.088 129.470, 170.808 130.622, 171.115 133.246, 171.770 135.965, 172.374 138.775, 172.925 141.669, 173.422 144.641, 173.865 147.687, 174.252 150.799, 174.582 153.971, 174.856 157.197, 175.072 160.471, 175.229 163.786, 175.329 167.134, 175.369 167.497, 175.371 170.796, 175.354 174.115, 175.279 177.447, 175.147 180.786, 174.958 184.125, 174.713 187.458, 174.411 190.777, 174.054 194.076, 173.643 197.348, 173.178 197.685, 173.124 201.000, 172.594 204.274, 172.010 207.501, 171.375 210.674, 170.689 213.786, 169.953 216.832, 169.170 219.806, 168.341 222.701, 167.467 225.511, 166.550 228.231, 165.593 230.855, 164.596 233.379, 163.563 234.457, 163.092 236.927, 162.001 239.284, 160.876 241.522, 159.720 243.639, 158.534 245.628, 157.323 246.837, 156.547 248.732, 155.286 250.490, 154.004 252.108, 152.703 253.288, 151.685 254.788, 150.343 256.138, 148.987 257.217, 147.772 258.434, 146.383 259.493, 144.985 260.438, 143.599 260.482, 143.531 261.350, 142.176 262.099, 140.750 262.882, 139.222 263.276, 138.259 263.473, 137.779 264.066, 136.152 264.493, 134.700 264.886, 133.002 265.144, 131.546 265.330, 129.805 265.417, 128.352 265.390, 126.598 265.304, 125.154 265.066, 123.415 264.809, 121.987 264.363, 120.293 263.935, 118.887 263.289, 117.266 262.695, 115.888 261.861, 114.367 261.105, 113.023 260.185, 111.704 259.188, 110.322 258.116, 109.045 256.968, 107.812 255.753, 106.582 254.383, 105.383 253.127, 104.340 251.628, 103.193 249.984, 102.082 248.655, 101.249 246.898, 100.195 245.004, 99.182 242.976, 98.210 241.653, 97.620 239.538, 96.710 237.300, 95.844 234.944, 95.026 232.475, 94.255 229.898, 93.535 228.746, 93.228 226.122, 92.573 223.403, 91.969 220.594, 91.418 217.700, 90.921 214.727, 90.478 211.681, 90.091 208.569, 89.761 205.397, 89.487 202.171, 89.271 198.897, 89.114 195.583, 89.014 192.234, 88.974 191.871, 88.972 188.572, 88.989 185.254, 89.064 181.921, 89.196 178.582, 89.385 " />
    <path fill="#FFFFFF" stroke="#FFFFFF" stroke-width="13.0" stroke-linecap="round" stroke-linejoin="round" d=" M 126.979, 133.376 126.872, 133.282 126.864, 133.275 126.794, 133.213 126.727, 133.146 126.724, 133.143 126.705, 133.123 126.560, 132.977 125.968, 132.378 " />
    <path fill="#FFFFFF" stroke="#FFFFFF" stroke-width="13.0" stroke-linecap="round" stroke-linejoin="round" d=" M 128.190, 134.242 127.524, 133.793 126.979, 133.376 126.880, 133.300 126.871, 133.293 126.812, 133.248 126.764, 133.211 126.745, 133.196 126.697, 133.160 126.686, 133.152 126.468, 132.985 " />
    <path fill="#FFFFFF" stroke="#FFFFFF" stroke-width="13.0" stroke-linecap="round" stroke-linejoin="round" d=" M 131.100, 135.770 130.041, 135.263 128.648, 134.517 128.190, 134.242 127.489, 133.822 127.444, 133.795 127.356, 133.742 " />
    <path fill="#FFFFFF" stroke="#FFFFFF" stroke-width="13.0" stroke-linecap="round" stroke-linejoin="round" d=" M 253.288, 151.685 251.642, 153.009 249.852, 154.314 247.923, 155.597 245.858, 156.854 243.662, 158.084 241.338, 159.284 238.892, 160.452 236.329, 161.585 233.653, 162.681 230.870, 163.738 227.985, 164.753 225.005, 165.725 221.936, 166.652 218.783, 167.531 215.553, 168.361 212.252, 169.141 208.887, 169.869 205.466, 170.543 201.994, 171.161 198.479, 171.724 194.928, 172.229 191.347, 172.675 187.745, 173.063 184.129, 173.390 180.505, 173.656 176.881, 173.861 173.264, 174.004 169.663, 174.086 166.082, 174.105 162.532, 174.062 159.017, 173.956 155.545, 173.789 152.124, 173.560 148.760, 173.270 145.460, 172.920 142.231, 172.509 139.079, 172.040 136.010, 171.513 133.031, 170.928 130.147, 170.288 127.365, 169.593 124.690, 168.845 122.127, 168.045 119.682, 167.196 117.360, 166.298 115.165, 165.354 113.101, 164.364 111.173, 163.333 109.385, 162.261 " />
    <path fill="#FFFFFF" stroke="#FFFFFF" stroke-width="13.0" stroke-linecap="round" stroke-linejoin="round" d=" M 138.625, 138.354 137.274, 137.977 135.374, 137.384 133.560, 136.754 131.838, 136.088 131.269, 135.843 131.265, 135.841 131.251, 135.835 131.100, 135.770 130.210, 135.387 " />
    <path fill="#FFFFFF" stroke="#FFFFFF" stroke-width="13.0" stroke-linecap="round" stroke-linejoin="round" d=" M 167.371, 141.660 164.908, 141.630 162.229, 141.550 159.584, 141.423 156.976, 141.248 154.413, 141.027 151.898, 140.760 149.436, 140.447 147.034, 140.090 144.695, 139.688 142.425, 139.242 140.227, 138.754 138.625, 138.354 138.107, 138.225 " />
    <path fill="#FFFFFF" stroke="#FFFFFF" stroke-width="13.0" stroke-linecap="round" stroke-linejoin="round" d=" M 192.642, 139.795 192.631, 139.797 189.858, 140.191 187.052, 140.541 184.229, 140.844 181.395, 141.101 178.555, 141.309 175.715, 141.470 172.880, 141.582 170.057, 141.646 167.371, 141.660 167.252, 141.661 " />
    <path fill="#FFFFFF" stroke="#FFFFFF" stroke-width="13.0" stroke-linecap="round" stroke-linejoin="round" d=" M 221.151, 132.122 220.970, 132.196 219.111, 132.957 216.990, 133.762 214.792, 134.536 212.521, 135.277 210.181, 135.983 207.778, 136.653 205.317, 137.286 202.801, 137.880 200.237, 138.435 197.629, 138.949 194.983, 139.420 192.631, 139.797 " />
    <path fill="#FFFFFF" stroke="#FFFFFF" stroke-width="13.0" stroke-linecap="round" stroke-linejoin="round" d=" M 228.672, 128.151 228.190, 128.445 228.115, 128.490 228.106, 128.495 228.099, 128.500 227.141, 129.083 225.512, 129.996 223.789, 130.886 221.974, 131.752 220.970, 132.196 " />
    <path fill="#FFFFFF" stroke="#FFFFFF" stroke-width="13.0" stroke-linecap="round" stroke-linejoin="round" d=" M 231.341, 126.100 230.925, 126.435 230.151, 127.057 228.858, 128.000 228.190, 128.445 " />
    <path fill="#FFFFFF" stroke="#FFFFFF" stroke-width="13.0" stroke-linecap="round" stroke-linejoin="round" d=" M 232.171, 125.216 232.136, 125.251 232.102, 125.285 231.973, 125.414 231.218, 126.172 230.925, 126.435 " />
    <path fill="#FFFFFF" stroke="#FFFFFF" stroke-width="13.0" stroke-linecap="round" stroke-linejoin="round" d=" M 232.637, 124.538 232.321, 124.955 232.270, 125.023 232.223, 125.085 232.182, 125.139 231.973, 125.414 " />
    <path fill="#FFFFFF" stroke="#FFFFFF" stroke-width="13.0" stroke-linecap="round" stroke-linejoin="round" d=" M 232.783, 124.052 232.291, 124.989 232.270, 125.023 " />
    <path fill="#FFFFFF" stroke="#FFFFFF" stroke-width="13.0" stroke-linecap="round" stroke-linejoin="round" d=" M 232.378, 124.659 232.182, 125.139 " />
    <path fill="#FFFFFF" stroke="#FFFFFF" stroke-width="13.0" stroke-linecap="round" stroke-linejoin="round" d=" M 126.727, 133.146 126.337, 132.452 " />
    <path fill="#FFFFFF" stroke="#FFFFFF" stroke-width="13.0" stroke-linecap="round" stroke-linejoin="round" d=" M 126.724, 133.143 126.699, 133.113 126.412, 132.771 " />
    <path fill="#FFFFFF" stroke="#FFFFFF" stroke-width="13.0" stroke-linecap="round" stroke-linejoin="round" d=" M 126.872, 133.282 126.799, 133.113 " />
  </g>
</svg>