<?xml version='1.0' encoding='utf-8'?>
<svg xmlns="http://www.w3.org/2000/svg" version="1.1" width="400" height="400" viewBox="0 0 400 400">
  <g>
    <path fill="#FFFFFF" stroke="#FFFFFF" stroke-width="13.0" stroke-linecap="round" stroke-linejoin="round" d=" M 130.758, 200.009 130.021, 200.898 129.377, 201.730 128.783, 202.572 128.240, 203.425 127.748, 204.287 127.306, 205.159 126.917, 206.039 124.499, 212.338 124.154, 213.244 123.862, 214.158 123.624, 215.079 123.438, 216.007 123.306, 216.941 122.302, 226.891 121.298, 236.840 120.294, 246.790 119.290, 256.739 118.286, 266.688 117.281, 276.638 116.277, 286.587 115.273, 296.537 114.291, 306.264 114.213, 307.204 114.188, 308.148 114.217, 309.097 114.299, 310.050 114.435, 311.005 114.624, 311.964 114.866, 312.925 116.135, 317.561 116.424, 318.504 116.766, 319.448 117.159, 320.393 117.604, 321.337 118.100, 322.280 118.647, 323.222 119.245, 324.162 119.893, 325.100 120.591, 326.034 121.338, 326.965 122.134, 327.892 122.979, 328.814 123.871, 329.731 124.811, 330.641 125.798, 331.546 126.832, 332.443 127.910, 333.333 129.034, 334.215 130.203, 335.088 131.414, 335.952 132.669, 336.807 139.296, 341.224 140.459, 341.981 141.659, 342.729 142.895, 343.466 144.166, 344.194 145.473, 344.910 146.814, 345.615 148.187, 346.308 149.594, 346.989 151.031, 347.657 152.500, 348.313 153.998, 348.955 155.526, 349.584 157.081, 350.198 158.663, 350.798 160.272, 351.383 161.906, 351.953 163.563, 352.507 165.244, 353.046 166.947, 353.568 168.672, 354.074 170.416, 354.563 172.179, 355.035 173.961, 355.489 175.759, 355.926 177.573, 356.345 179.402, 356.745 181.244, 357.128 183.099, 357.491 184.966, 357.836 186.842, 358.162 188.728, 358.468 190.622, 358.755 192.522, 359.022 194.429, 359.270 196.340, 359.497 198.254, 359.705 200.171, 359.892 202.089, 360.059 204.006, 360.205 205.923, 360.331 207.837, 360.437 209.748, 360.522 211.654, 360.586 213.554, 360.629 215.447, 360.652 217.332, 360.653 219.208, 360.634 221.074, 360.595 222.928, 360.534 224.769, 360.453 226.597, 360.351 228.410, 360.229 230.207, 360.086 231.987, 359.922 233.749, 359.739 235.492, 359.535 237.215, 359.311 238.917, 359.067 240.596, 358.803 242.252, 358.519 243.884, 358.216 245.491, 357.894 247.072, 357.553 248.625, 357.192 250.150, 356.813 251.647, 356.416 253.113, 356.000 254.549, 355.566 255.953, 355.115 257.324, 354.646 258.663, 354.160 259.967, 353.657 267.284, 350.677 268.700, 350.097 270.076, 349.499 271.412, 348.884 272.706, 348.251 273.958, 347.602 275.167, 346.935 276.332, 346.253 277.453, 345.554 278.528, 344.840 279.558, 344.112 280.542, 343.368 281.479, 342.611 282.368, 341.840 283.209, 341.056 284.002, 340.259 284.746, 339.450 285.440, 338.629 286.085, 337.797 286.679, 336.954 287.222, 336.101 287.715, 335.239 288.156, 334.367 290.331, 330.067 290.728, 329.169 291.073, 328.263 291.365, 327.349 291.604, 326.427 291.789, 325.499 291.921, 324.565 292.925, 314.616 293.929, 304.667 294.933, 294.717 295.937, 284.768 296.942, 274.818 297.946, 264.869 298.950, 254.919 299.954, 244.970 300.936, 235.242 301.014, 234.303 301.039, 233.358 301.010, 232.410 300.928, 231.457 300.793, 230.501 299.681, 223.839 299.495, 222.899 299.258, 221.958 298.968, 221.015 298.627, 220.071 298.234, 219.127 297.789, 218.183 297.293, 217.240 297.020, 216.731 " />
    <path fill="#FFFFFF" stroke="#FFFFFF" stroke-width="13.0" stroke-linecap="round" stroke-linejoin="round" d=" M 291.628, 224.144 291.310, 224.643 290.762, 225.420 290.168, 226.187 289.528, 226.943 288.842, 227.689 288.112, 228.424 287.336, 229.146 286.516, 229.857 285.653, 230.555 284.746, 231.241 283.797, 231.912 282.805, 232.570 281.772, 233.214 280.698, 233.843 279.583, 234.458 278.429, 235.057 277.236, 235.640 276.005, 236.207 274.737, 236.758 273.432, 237.292 272.091, 237.809 270.714, 238.309 269.304, 238.791 267.860, 239.256 266.384, 239.702 264.876, 240.129 263.337, 240.538 261.769, 240.928 260.171, 241.298 258.546, 241.649 256.894, 241.981 255.215, 242.292 253.512, 242.584 251.785, 242.855 250.036, 243.106 248.264, 243.337 246.471, 243.546 244.659, 243.735 242.829, 243.903 240.981, 244.050 239.116, 244.176 237.237, 244.281 235.343, 244.364 233.436, 244.427 231.518, 244.467 229.589, 244.487 227.650, 244.485 225.703, 244.462 223.749, 244.417 221.789, 244.351 219.824, 244.264 217.856, 244.156 215.885, 244.026 213.913, 243.876 211.941, 243.704 209.970, 243.511 208.001, 243.298 206.036, 243.064 204.076, 242.810 202.121, 242.535 200.174, 242.240 198.235, 241.925 196.305, 241.590 194.386, 241.235 192.478, 240.861 190.583, 240.468 188.703, 240.056 186.837, 239.625 184.988, 239.176 183.156, 238.709 181.343, 238.224 179.549, 237.721 177.776, 237.201 176.025, 236.664 174.296, 236.110 172.591, 235.540 170.911, 234.954 169.257, 234.352 167.630, 233.735 166.030, 233.104 164.460, 232.457 162.919, 231.797 161.409, 231.123 159.930, 230.435 158.484, 229.735 157.071, 229.022 155.693, 228.297 154.349, 227.560 153.042, 226.813 151.771, 226.054 150.537, 225.286 149.341, 224.507 148.185, 223.719 147.067, 222.923 145.991, 222.118 144.955, 221.305 143.960, 220.484 143.008, 219.657 142.098, 218.824 141.231, 217.984 140.408, 217.139 139.630, 216.289 138.896, 215.435 138.207, 214.577 137.564, 213.715 136.967, 212.851 136.416, 211.985 135.911, 211.116 135.454, 210.247 135.044, 209.376 134.683, 208.508 " />
    <path fill="#FFFFFF" stroke="#FFFFFF" stroke-width="13.0" stroke-linecap="round" stroke-linejoin="round" d=" M 216.361, 150.103 212.949, 149.857 209.544, 149.679 206.154, 149.567 202.783, 149.523 199.441, 149.547 196.132, 149.638 192.865, 149.797 189.645, 150.023 186.478, 150.315 183.372, 150.673 180.333, 151.097 179.467, 151.225 176.436, 151.724 173.485, 152.287 170.621, 152.914 167.849, 153.604 165.174, 154.355 162.602, 155.165 160.139, 156.033 158.927, 156.465 156.531, 157.407 154.254, 158.405 152.103, 159.456 150.850, 160.138 148.792, 161.260 146.869, 162.432 145.086, 163.651 143.851, 164.570 142.186, 165.854 140.669, 167.182 139.525, 168.300 138.142, 169.686 136.915, 171.111 135.897, 172.406 134.817, 173.882 133.900, 175.390 133.038, 176.834 132.280, 178.386 131.601, 179.937 131.007, 181.525 130.524, 183.158 130.098, 184.776 129.822, 186.461 129.567, 188.102 129.484, 189.760 129.418, 191.466 129.507, 193.136 129.654, 194.833 129.914, 196.507 130.269, 198.163 130.697, 199.835 130.758, 200.009 131.254, 201.422 131.846, 203.084 132.604, 204.746 133.343, 206.218 134.256, 207.859 134.683, 208.508 135.330, 209.494 136.228, 210.819 137.444, 212.423 138.816, 214.015 139.842, 215.163 141.342, 216.714 142.987, 218.247 144.776, 219.759 145.868, 220.678 147.762, 222.138 149.790, 223.572 151.946, 224.975 153.048, 225.641 155.285, 226.985 157.639, 228.293 160.107, 229.564 162.683, 230.795 165.361, 231.983 168.137, 233.126 171.005, 234.222 171.830, 234.521 174.721, 235.545 177.690, 236.518 180.732, 237.439 183.840, 238.305 187.009, 239.115 190.231, 239.867 193.500, 240.560 196.810, 241.192 200.154, 241.762 203.525, 242.269 206.917, 242.712 210.322, 243.090 213.733, 243.402 217.145, 243.647 220.550, 243.826 223.941, 243.938 227.311, 243.981 230.653, 243.958 233.962, 243.866 237.230, 243.708 240.450, 243.482 243.616, 243.190 246.722, 242.831 249.761, 242.408 250.627, 242.280 253.658, 241.781 256.609, 241.218 259.473, 240.590 262.246, 239.901 264.920, 239.150 267.492, 238.340 269.955, 237.472 271.167, 237.040 273.563, 236.098 275.840, 235.100 277.991, 234.049 279.244, 233.367 281.302, 232.245 283.225, 231.073 285.008, 229.854 286.243, 228.935 287.909, 227.651 289.426, 226.323 290.569, 225.204 291.628, 224.144 291.953, 223.818 293.180, 222.394 294.197, 221.099 295.277, 219.623 296.194, 218.115 297.020, 216.731 297.056, 216.671 297.815, 215.119 298.493, 213.568 299.088, 211.979 299.570, 210.347 299.996, 208.729 300.273, 207.044 300.528, 205.403 300.611, 203.745 300.676, 202.039 300.587, 200.368 300.441, 198.672 300.180, 196.998 299.825, 195.341 299.397, 193.670 298.841, 192.082 298.248, 190.421 297.490, 188.759 296.751, 187.286 295.838, 185.646 294.764, 184.011 293.867, 182.686 292.650, 181.081 291.279, 179.490 290.252, 178.342 288.752, 176.790 287.107, 175.257 285.318, 173.746 284.226, 172.827 282.332, 171.367 280.305, 169.933 278.148, 168.530 277.046, 167.864 274.809, 166.520 272.455, 165.212 269.987, 163.941 267.412, 162.710 264.733, 161.522 261.957, 160.379 259.090, 159.283 258.265, 158.984 255.374, 157.960 252.404, 156.987 249.362, 156.066 246.254, 155.200 243.085, 154.390 239.863, 153.638 236.594, 152.945 233.284, 152.313 229.940, 151.743 226.569, 151.236 223.178, 150.793 219.773, 150.415 216.361, 150.103 " />
    <path fill="#FFFFFF" stroke="#FFFFFF" stroke-width="13.0" stroke-linecap="round" stroke-linejoin="round" d=" M 163.091, 190.270 163.073, 190.232 163.015, 190.104 162.975, 190.016 162.597, 188.955 " />
    <path fill="#FFFFFF" stroke="#FFFFFF" stroke-width="13.0" stroke-linecap="round" stroke-linejoin="round" d=" M 163.327, 190.693 163.321, 190.683 163.292, 190.631 163.291, 190.629 163.107, 190.299 163.093, 190.273 163.091, 190.270 163.077, 190.244 163.026, 190.153 163.001, 190.108 162.721, 189.605 " />
    <path fill="#FFFFFF" stroke="#FFFFFF" stroke-width="13.0" stroke-linecap="round" stroke-linejoin="round" d=" M 164.206, 191.812 164.026, 191.602 164.015, 191.591 164.011, 191.585 163.972, 191.540 163.971, 191.538 163.956, 191.521 163.327, 190.693 163.290, 190.643 163.289, 190.642 163.219, 190.549 163.148, 190.457 163.129, 190.432 " />
    <path fill="#FFFFFF" stroke="#FFFFFF" stroke-width="13.0" stroke-linecap="round" stroke-linejoin="round" d=" M 166.295, 193.812 166.078, 193.629 164.917, 192.548 164.206, 191.812 164.013, 191.612 164.001, 191.600 163.997, 191.595 163.957, 191.554 163.956, 191.553 163.860, 191.454 " />
    <path fill="#FFFFFF" stroke="#FFFFFF" stroke-width="13.0" stroke-linecap="round" stroke-linejoin="round" d=" M 170.628, 196.878 169.131, 195.904 167.640, 194.850 166.295, 193.812 166.247, 193.776 " />
    <path fill="#FFFFFF" stroke="#FFFFFF" stroke-width="13.0" stroke-linecap="round" stroke-linejoin="round" d=" M 279.244, 233.367 277.054, 234.437 274.737, 235.452 272.298, 236.412 269.741, 237.313 267.072, 238.153 264.297, 238.932 261.419, 239.648 258.446, 240.299 255.384, 240.884 252.238, 241.401 249.015, 241.850 245.722, 242.230 242.364, 242.540 238.949, 242.780 235.484, 242.948 231.976, 243.045 228.432, 243.070 224.858, 243.023 221.262, 242.905 217.652, 242.716 214.034, 242.455 210.416, 242.124 206.805, 241.724 203.209, 241.254 199.634, 240.716 196.088, 240.112 192.579, 239.441 189.112, 238.707 185.695, 237.909 182.335, 237.050 179.039, 236.132 175.813, 235.156 172.665, 234.124 169.599, 233.038 166.622, 231.901 163.741, 230.715 160.961, 229.482 158.288, 228.204 155.727, 226.885 153.284, 225.527 150.962, 224.132 148.767, 222.704 146.704, 221.245 144.776, 219.759 " />
    <path fill="#FFFFFF" stroke="#FFFFFF" stroke-width="13.0" stroke-linecap="round" stroke-linejoin="round" d=" M 183.171, 202.773 181.230, 202.031 179.094, 201.152 177.032, 200.237 175.049, 199.290 173.150, 198.311 171.337, 197.304 170.628, 196.878 169.615, 196.270 " />
    <path fill="#FFFFFF" stroke="#FFFFFF" stroke-width="13.0" stroke-linecap="round" stroke-linejoin="round" d=" M 245.595, 208.949 245.034, 209.027 243.138, 209.291 240.628, 209.581 238.069, 209.817 235.467, 210.000 232.826, 210.128 230.152, 210.202 227.451, 210.221 224.727, 210.185 221.987, 210.095 219.236, 209.951 216.478, 209.752 213.721, 209.500 210.969, 209.195 208.228, 208.837 205.504, 208.427 202.801, 207.966 200.127, 207.455 197.484, 206.895 194.880, 206.288 192.320, 205.633 189.808, 204.933 187.349, 204.189 184.950, 203.403 183.171, 202.773 182.613, 202.575 " />
    <path fill="#FFFFFF" stroke="#FFFFFF" stroke-width="13.0" stroke-linecap="round" stroke-linejoin="round" d=" M 259.606, 205.377 258.526, 205.757 257.710, 206.045 255.731, 206.669 253.672, 207.246 251.538, 207.777 249.333, 208.260 247.062, 208.694 245.034, 209.027 " />
    <path fill="#FFFFFF" stroke="#FFFFFF" stroke-width="13.0" stroke-linecap="round" stroke-linejoin="round" d=" M 263.414, 203.609 263.398, 203.617 261.832, 204.382 260.158, 205.116 258.526, 205.757 " />
    <path fill="#FFFFFF" stroke="#FFFFFF" stroke-width="13.0" stroke-linecap="round" stroke-linejoin="round" d=" M 266.227, 201.813 266.148, 201.867 266.147, 201.868 266.099, 201.900 266.093, 201.905 266.079, 201.914 265.853, 202.069 264.969, 202.673 263.613, 203.499 263.398, 203.617 " />
    <path fill="#FFFFFF" stroke="#FFFFFF" stroke-width="13.0" stroke-linecap="round" stroke-linejoin="round" d=" M 267.153, 200.959 267.153, 200.960 267.067, 201.034 266.984, 201.107 266.983, 201.108 266.929, 201.155 266.136, 201.849 266.135, 201.850 266.123, 201.860 266.088, 201.888 266.081, 201.893 266.069, 201.902 265.853, 202.069 " />
    <path fill="#FFFFFF" stroke="#FFFFFF" stroke-width="13.0" stroke-linecap="round" stroke-linejoin="round" d=" M 267.725, 200.232 267.375, 200.637 267.339, 200.680 267.269, 200.761 267.259, 200.772 267.247, 200.786 267.231, 200.805 266.984, 201.091 266.983, 201.092 266.929, 201.155 " />
    <path fill="#FFFFFF" stroke="#FFFFFF" stroke-width="13.0" stroke-linecap="round" stroke-linejoin="round" d=" M 267.983, 199.620 267.397, 200.584 267.356, 200.639 267.272, 200.755 267.259, 200.772 " />
    <path fill="#FFFFFF" stroke="#FFFFFF" stroke-width="13.0" stroke-linecap="round" stroke-linejoin="round" d=" M 267.595, 200.094 267.272, 200.755 " />
    <path fill="#FFFFFF" stroke="#FFFFFF" stroke-width="13.0" stroke-linecap="round" stroke-linejoin="round" d=" M 267.282, 200.668 267.231, 200.805 " />
    <path fill="#FFFFFF" stroke="#FFFFFF" stroke-width="13.0" stroke-linecap="round" stroke-linejoin="round" d=" M 266.988, 200.997 266.983, 201.092 " />
    <path fill="#FFFFFF" stroke="#FFFFFF" stroke-width="13.0" stroke-linecap="round" stroke-linejoin="round" d=" M 266.068, 201.748 266.135, 201.850 " />
    <path fill="#FFFFFF" stroke="#FFFFFF" stroke-width="13.0" stroke-linecap="round" stroke-linejoin="round" d=" M 163.073, 190.232 162.885, 189.497 " />
    <path fill="#FFFFFF" stroke="#FFFFFF" stroke-width="13.0" stroke-linecap="round" stroke-linejoin="round" d=" M 163.107, 190.299 163.080, 190.123 " />
    <path fill="#FFFFFF" stroke="#FFFFFF" stroke-width="13.0" stroke-linecap="round" stroke-linejoin="round" d=" M 163.292, 190.631 163.311, 190.505 " />
    <path fill="#FFFFFF" stroke="#FFFFFF" stroke-width="13.0" stroke-linecap="round" stroke-linejoin="round" d=" M 163.972, 191.540 164.084, 191.427 " />
  </g>
</svg>