<?xml version='1.0' encoding='utf-8'?>
<svg xmlns="http://www.w3.org/2000/svg" version="1.1" width="400" height="400" viewBox="0 0 400 400">
  <g>
    <path fill="#FFFFFF" stroke="#FFFFFF" stroke-width="13.0" stroke-linecap="round" stroke-linejoin="round" d=" M 284.665, 70.851 284.668, 70.941 284.633, 71.315 284.549, 71.687 284.417, 72.058 284.236, 72.426 284.007, 72.792 283.729, 73.155 283.404, 73.515 283.031, 73.872 282.610, 74.226 282.142, 74.577 281.627, 74.923 281.065, 75.266 280.457, 75.605 279.803, 75.939 279.103, 76.269 278.358, 76.594 277.568, 76.914 276.734, 77.229 275.855, 77.539 274.934, 77.843 273.970, 78.142 272.964, 78.435 271.916, 78.721 270.828, 79.002 269.934, 79.219 269.699, 79.276 268.530, 79.543 267.323, 79.804 266.078, 80.058 264.795, 80.305 263.475, 80.545 262.120, 80.777 260.730, 81.002 259.306, 81.220 257.848, 81.430 256.358, 81.631 254.836, 81.825 253.284, 82.011 251.702, 82.189 250.091, 82.358 248.453, 82.519 246.788, 82.672 245.097, 82.816 243.381, 82.951 241.642, 83.077 239.880, 83.195 238.096, 83.304 236.292, 83.404 234.468, 83.494 232.626, 83.576 230.767, 83.648 228.892, 83.712 227.001, 83.766 225.097, 83.811 223.180, 83.847 221.252, 83.873 219.313, 83.890 217.365, 83.898 215.409, 83.896 213.446, 83.885 211.478, 83.865 209.505, 83.835 207.528, 83.796 205.550, 83.748 203.571, 83.691 201.591, 83.624 199.614, 83.548 197.639, 83.464 195.668, 83.370 193.701, 83.267 191.741, 83.155 189.789, 83.034 187.845, 82.905 185.911, 82.766 183.987, 82.619 182.076, 82.464 180.178, 82.300 178.294, 82.128 176.426, 81.947 174.575, 81.758 172.741, 81.562 170.926, 81.357 169.131, 81.145 167.357, 80.924 165.605, 80.697 163.876, 80.462 162.171, 80.219 160.492, 79.970 158.839, 79.714 157.213, 79.450 155.615, 79.181 154.046, 78.904 152.508, 78.622 151.000, 78.333 149.525, 78.038 148.082, 77.737 146.673, 77.431 145.298, 77.120 143.959, 76.803 142.656, 76.481 141.390, 76.154 140.162, 75.823 138.972, 75.487 137.821, 75.147 137.210, 74.957 136.711, 74.802 135.640, 74.454 134.611, 74.103 133.624, 73.748 132.679, 73.389 131.777, 73.028 130.919, 72.664 130.105, 72.297 129.335, 71.928 128.610, 71.557 127.931, 71.184 127.297, 70.810 126.710, 70.433 126.169, 70.056 125.675, 69.678 125.229, 69.299 124.829, 68.919 124.478, 68.539 124.174, 68.159 123.919, 67.779 123.711, 67.400 123.553, 67.021 123.442, 66.643 123.380, 66.266 123.367, 65.891 123.369, 65.867 " />
    <path fill="#FFFFFF" stroke="#FFFFFF" stroke-width="13.0" stroke-linecap="round" stroke-linejoin="round" d=" M 123.075, 65.528 117.684, 73.950 116.919, 75.145 116.671, 75.541 116.475, 75.941 116.331, 76.342 114.322, 83.453 114.229, 83.865 114.190, 84.279 113.876, 94.274 113.562, 104.269 113.249, 114.265 112.935, 124.260 112.621, 134.255 112.308, 144.250 111.994, 154.245 111.680, 164.240 111.366, 174.235 111.127, 181.880 111.141, 182.295 111.210, 182.712 111.332, 183.131 112.922, 188.174 113.094, 188.585 113.319, 188.996 113.596, 189.408 113.925, 189.820 114.307, 190.233 114.740, 190.644 115.224, 191.056 123.161, 197.139 123.817, 197.643 124.297, 198.010 124.823, 198.377 125.395, 198.743 126.011, 199.107 126.671, 199.470 127.376, 199.831 128.125, 200.190 128.917, 200.546 129.751, 200.900 130.628, 201.252 131.547, 201.600 132.507, 201.946 133.508, 202.288 134.548, 202.626 135.629, 202.961 136.748, 203.292 137.905, 203.618 139.099, 203.940 140.330, 204.258 141.597, 204.571 142.899, 204.879 144.236, 205.182 145.606, 205.480 147.009, 205.772 148.444, 206.059 149.910, 206.340 151.406, 206.615 152.932, 206.883 154.485, 207.146 156.067, 207.402 157.674, 207.651 159.307, 207.894 160.965, 208.129 162.646, 208.358 164.350, 208.579 166.075, 208.793 167.821, 209.000 169.586, 209.199 171.369, 209.390 173.169, 209.574 174.986, 209.749 176.818, 209.917 178.664, 210.076 180.522, 210.227 182.392, 210.370 184.273, 210.505 186.164, 210.631 188.062, 210.748 189.968, 210.857 191.880, 210.957 193.797, 211.048 195.718, 211.131 197.641, 211.205 199.565, 211.269 201.490, 211.325 203.414, 211.372 205.336, 211.410 207.255, 211.438 209.169, 211.458 211.078, 211.469 212.980, 211.470 214.874, 211.463 216.760, 211.446 218.635, 211.421 220.499, 211.386 222.350, 211.342 224.189, 211.290 226.012, 211.228 227.820, 211.158 229.611, 211.078 231.385, 210.990 233.139, 210.893 234.874, 210.787 236.587, 210.673 238.279, 210.550 239.947, 210.418 241.591, 210.278 243.211, 210.130 244.804, 209.974 246.370, 209.809 247.908, 209.636 249.418, 209.455 250.898, 209.267 252.347, 209.070 253.764, 208.866 255.149, 208.655 256.501, 208.436 257.819, 208.210 259.102, 207.977 260.350, 207.737 261.561, 207.490 262.735, 207.236 263.871, 206.976 264.969, 206.709 266.027, 206.437 267.046, 206.158 268.025, 205.873 268.962, 205.583 269.858, 205.287 270.712, 204.986 271.523, 204.680 272.291, 204.368 273.016, 204.052 273.697, 203.732 274.333, 203.406 274.924, 203.077 275.471, 202.744 283.773, 197.170 284.404, 196.746 284.962, 196.370 285.470, 195.990 285.926, 195.606 286.331, 195.218 286.684, 194.828 286.985, 194.434 287.233, 194.037 287.429, 193.637 289.332, 188.704 289.479, 188.294 289.571, 187.882 289.610, 187.468 289.924, 177.473 290.238, 167.478 290.552, 157.483 290.865, 147.488 291.179, 137.493 291.493, 127.498 291.806, 117.503 292.120, 107.507 292.434, 97.512 292.674, 89.868 292.659, 89.452 292.591, 89.035 291.031, 81.812 290.911, 81.402 290.739, 80.991 290.514, 80.580 285.661, 71.836 284.952, 70.559 " />
    <path fill="#FFFFFF" stroke="#FFFFFF" stroke-width="13.0" stroke-linecap="round" stroke-linejoin="round" d=" M 269.934, 79.219 270.243, 79.120 271.820, 78.608 273.316, 78.069 274.673, 77.514 275.888, 76.944 277.477, 76.197 278.570, 75.600 280.081, 74.655 281.042, 74.032 281.848, 73.398 283.268, 72.256 283.929, 71.599 284.665, 70.851 284.952, 70.559 285.217, 70.289 286.346, 68.840 286.860, 68.154 287.820, 66.575 288.172, 65.873 288.948, 64.188 289.527, 62.425 289.712, 61.705 290.086, 59.884 290.251, 58.033 290.264, 57.303 290.216, 55.445 289.957, 53.605 289.798, 52.874 289.331, 51.079 288.662, 49.349 288.336, 48.626 287.477, 46.991 286.988, 46.274 285.954, 44.757 284.751, 43.371 284.115, 42.674 282.771, 41.447 281.988, 40.763 281.051, 40.082 279.605, 39.045 278.535, 38.381 276.998, 37.538 275.806, 36.893 274.470, 36.255 272.995, 35.624 271.457, 35.016 269.881, 34.408 268.175, 33.811 266.341, 33.225 264.383, 32.651 262.305, 32.091 260.112, 31.545 258.782, 31.222 256.534, 30.705 254.181, 30.205 251.730, 29.722 249.184, 29.257 246.549, 28.812 243.831, 28.387 241.033, 27.983 238.164, 27.601 235.227, 27.242 232.229, 26.906 229.176, 26.594 226.074, 26.307 222.930, 26.045 219.749, 25.809 216.539, 25.599 213.305, 25.416 210.054, 25.260 206.792, 25.131 203.527, 25.031 200.265, 24.957 197.012, 24.912 193.775, 24.895 190.561, 24.907 187.375, 24.946 184.225, 25.013 181.116, 25.108 178.055, 25.231 175.048, 25.381 172.102, 25.559 169.221, 25.763 166.413, 25.994 163.682, 26.250 161.034, 26.532 158.474, 26.839 156.008, 27.170 153.640, 27.525 151.376, 27.902 150.022, 28.142 147.811, 28.552 145.715, 28.983 143.739, 29.435 141.886, 29.907 140.159, 30.399 138.563, 30.908 136.986, 31.420 135.490, 31.959 134.133, 32.514 132.918, 33.084 131.329, 33.831 130.236, 34.428 128.725, 35.373 127.764, 35.996 126.958, 36.630 125.538, 37.772 124.877, 38.429 123.589, 39.738 122.460, 41.188 121.946, 41.874 120.986, 43.453 120.634, 44.155 119.858, 45.840 119.279, 47.603 119.094, 48.323 118.720, 50.144 118.555, 51.995 118.542, 52.725 118.590, 54.583 118.849, 56.423 119.008, 57.154 119.475, 58.949 120.144, 60.679 120.470, 61.402 121.329, 63.037 121.818, 63.754 122.852, 65.271 123.075, 65.528 123.369, 65.867 124.055, 66.657 124.691, 67.354 126.035, 68.581 126.817, 69.265 127.755, 69.946 129.201, 70.983 130.271, 71.647 131.808, 72.490 133.000, 73.135 134.335, 73.773 135.811, 74.404 137.210, 74.957 " />
    <path fill="#FFFFFF" stroke="#FFFFFF" stroke-width="13.0" stroke-linecap="round" stroke-linejoin="round" d=" M 283.268, 72.256 282.448, 72.902 281.469, 73.535 280.335, 74.155 279.047, 74.760 277.608, 75.348 276.021, 75.920 274.289, 76.472 272.416, 77.006 270.404, 77.518 268.259, 78.009 265.985, 78.477 263.586, 78.921 261.067, 79.341 258.433, 79.735 255.690, 80.103 252.843, 80.445 249.897, 80.758 246.859, 81.044 243.735, 81.300 240.530, 81.527 237.253, 81.725 233.908, 81.892 230.503, 82.029 227.045, 82.135 223.541, 82.209 219.997, 82.253 216.421, 82.266 212.820, 82.247 209.202, 82.197 205.573, 82.115 201.941, 82.003 198.313, 81.860 194.697, 81.686 191.100, 81.483 187.528, 81.249 183.990, 80.987 180.492, 80.696 177.042, 80.376 173.646, 80.029 170.311, 79.656 167.044, 79.256 163.852, 78.831 160.741, 78.382 157.716, 77.909 154.785, 77.414 151.953, 76.897 149.227, 76.359 146.610, 75.803 144.109, 75.228 141.729, 74.636 139.474, 74.028 137.349, 73.405 135.359, 72.769 133.507, 72.121 131.797, 71.462 130.232, 70.793 128.816, 70.116 127.552, 69.432 126.441, 68.743 125.487, 68.050 124.691, 67.354 " />
    <path fill="#FFFFFF" stroke="#FFFFFF" stroke-width="13.0" stroke-linecap="round" stroke-linejoin="round" d=" M 252.919, 48.691 252.369, 48.783 250.888, 49.030 248.765, 49.348 246.553, 49.645 244.258, 49.920 241.883, 50.173 239.434, 50.403 236.915, 50.609 234.332, 50.793 231.689, 50.952 228.993, 51.087 226.248, 51.197 223.460, 51.282 220.635, 51.342 217.778, 51.378 214.895, 51.388 211.992, 51.372 209.075, 51.332 206.150, 51.267 203.222, 51.176 200.297, 51.061 197.382, 50.921 194.481, 50.757 191.602, 50.569 188.750, 50.357 185.930, 50.122 183.148, 49.865 180.410, 49.585 177.722, 49.284 175.088, 48.961 172.515, 48.619 170.006, 48.257 167.568, 47.875 165.205, 47.476 162.922, 47.059 160.724, 46.626 158.614, 46.178 156.987, 45.803 156.598, 45.714 " />
  </g>
</svg>