<?xml version='1.0' encoding='utf-8'?>
<svg xmlns="http://www.w3.org/2000/svg" version="1.1" width="400" height="400" viewBox="0 0 400 400">
  <g>
    <path fill="#FFFFFF" stroke="#FFFFFF" stroke-width="13.0" stroke-linecap="round" stroke-linejoin="round" d=" M 111.312, 225.965 111.039, 226.412 110.493, 227.328 109.997, 228.249 109.553, 229.172 109.160, 230.098 108.819, 231.027 108.531, 231.956 108.294, 232.887 106.806, 239.471 106.619, 240.421 106.484, 241.370 106.404, 242.319 106.377, 243.267 106.404, 244.212 106.843, 254.203 107.281, 264.193 107.720, 274.184 108.158, 284.174 108.597, 294.164 109.035, 304.155 109.474, 314.145 109.912, 324.135 110.338, 333.831 110.419, 334.774 110.553, 335.714 110.741, 336.651 110.983, 337.583 111.277, 338.511 111.625, 339.433 113.552, 343.845 113.945, 344.743 114.390, 345.635 114.886, 346.521 115.433, 347.398 116.031, 348.268 116.680, 349.130 117.378, 349.983 118.126, 350.826 118.924, 351.659 119.770, 352.482 120.664, 353.294 121.605, 354.094 122.594, 354.883 123.629, 355.659 124.710, 356.422 125.837, 357.172 127.007, 357.908 128.222, 358.630 129.479, 359.338 130.779, 360.030 132.121, 360.706 133.503, 361.367 140.635, 364.742 141.909, 365.320 143.219, 365.882 144.563, 366.430 145.941, 366.962 147.351, 367.477 148.792, 367.977 150.265, 368.460 151.767, 368.926 153.299, 369.375 154.858, 369.807 156.445, 370.221 158.058, 370.617 159.696, 370.995 161.359, 371.354 163.045, 371.695 164.753, 372.018 166.482, 372.321 168.232, 372.605 170.001, 372.869 171.787, 373.114 173.591, 373.340 175.411, 373.545 177.245, 373.731 179.093, 373.897 180.954, 374.042 182.826, 374.168 184.709, 374.273 186.601, 374.357 188.501, 374.422 190.408, 374.466 192.320, 374.489 194.237, 374.492 196.158, 374.474 198.081, 374.436 200.005, 374.378 201.929, 374.299 203.852, 374.199 205.773, 374.080 207.690, 373.940 209.603, 373.780 211.509, 373.600 213.409, 373.400 215.301, 373.180 217.184, 372.940 219.056, 372.681 220.916, 372.402 222.765, 372.105 224.599, 371.788 226.419, 371.452 228.222, 371.098 230.009, 370.725 231.777, 370.334 233.527, 369.925 235.256, 369.498 236.964, 369.054 238.650, 368.593 240.312, 368.115 241.951, 367.620 243.564, 367.108 245.150, 366.581 246.710, 366.038 248.241, 365.479 249.743, 364.906 251.216, 364.318 252.657, 363.715 254.067, 363.098 255.444, 362.468 256.788, 361.825 258.097, 361.168 259.372, 360.499 260.611, 359.819 261.813, 359.126 268.685, 355.102 269.985, 354.317 271.242, 353.520 272.457, 352.712 273.627, 351.892 274.753, 351.061 275.834, 350.221 276.869, 349.371 277.857, 348.512 278.799, 347.644 279.693, 346.768 280.538, 345.885 281.335, 344.995 282.083, 344.098 282.781, 343.195 283.430, 342.287 284.027, 341.375 284.574, 340.458 285.070, 339.537 285.515, 338.613 285.907, 337.687 286.248, 336.758 287.778, 332.205 288.072, 331.256 288.314, 330.306 288.501, 329.356 288.635, 328.407 288.716, 327.458 288.743, 326.510 288.716, 325.565 288.277, 315.574 287.839, 305.584 287.400, 295.593 286.962, 285.603 286.523, 275.613 286.085, 265.622 285.646, 255.632 285.207, 245.642 284.782, 235.946 284.701, 235.003 284.567, 234.063 284.379, 233.126 284.137, 232.194 283.842, 231.266 281.786, 224.847 281.445, 223.943 281.052, 223.045 280.608, 222.153 280.112, 221.268 279.565, 220.391 278.967, 219.521 278.267, 218.573 " />
    <path fill="#FFFFFF" stroke="#FFFFFF" stroke-width="13.0" stroke-linecap="round" stroke-linejoin="round" d=" M 273.973, 226.798 273.920, 226.923 273.510, 227.774 273.053, 228.623 272.549, 229.468 271.998, 230.310 271.400, 231.147 270.757, 231.979 270.067, 232.805 269.333, 233.626 268.553, 234.440 267.729, 235.247 266.861, 236.047 265.950, 236.839 264.996, 237.623 264.000, 238.398 262.962, 239.163 261.883, 239.919 260.764, 240.664 259.604, 241.399 258.406, 242.123 257.170, 242.835 255.896, 243.535 254.585, 244.223 253.239, 244.898 251.857, 245.559 250.440, 246.208 248.991, 246.842 247.508, 247.461 245.994, 248.066 244.450, 248.656 242.875, 249.230 241.271, 249.789 239.639, 250.331 237.981, 250.857 236.296, 251.366 234.587, 251.858 232.853, 252.332 231.097, 252.789 229.318, 253.228 227.519, 253.648 225.701, 254.051 223.863, 254.434 222.009, 254.798 220.137, 255.143 218.251, 255.469 216.350, 255.775 214.437, 256.062 212.512, 256.328 210.576, 256.575 208.630, 256.801 206.677, 257.006 204.716, 257.192 202.749, 257.356 200.778, 257.500 198.803, 257.623 196.825, 257.725 194.846, 257.806 192.868, 257.867 190.890, 257.906 188.915, 257.924 186.944, 257.921 184.977, 257.897 183.016, 257.852 181.062, 257.786 179.117, 257.699 177.181, 257.591 175.256, 257.462 173.342, 257.312 171.441, 257.142 169.555, 256.951 167.684, 256.739 165.829, 256.507 163.991, 256.255 162.173, 255.983 160.374, 255.691 158.595, 255.380 156.839, 255.048 155.105, 254.698 153.395, 254.328 151.710, 253.939 150.052, 253.532 148.420, 253.106 146.816, 252.662 145.241, 252.201 143.696, 251.721 142.182, 251.225 140.699, 250.711 139.249, 250.180 137.833, 249.633 136.451, 249.070 135.104, 248.492 133.793, 247.898 132.519, 247.289 131.283, 246.665 130.084, 246.027 128.925, 245.375 127.805, 244.709 126.726, 244.031 125.688, 243.339 124.691, 242.636 123.737, 241.920 122.826, 241.194 121.958, 240.456 121.133, 239.707 120.354, 238.949 119.619, 238.181 118.929, 237.403 118.285, 236.617 117.688, 235.823 117.136, 235.021 116.632, 234.212 116.495, 233.968 " />
    <path fill="#FFFFFF" stroke="#FFFFFF" stroke-width="13.0" stroke-linecap="round" stroke-linejoin="round" d=" M 193.659, 163.952 190.236, 164.108 186.819, 164.329 183.417, 164.617 180.035, 164.969 176.681, 165.386 173.361, 165.866 170.081, 166.409 166.849, 167.014 163.672, 167.678 160.554, 168.402 157.503, 169.183 154.525, 170.020 153.712, 170.261 150.750, 171.171 147.875, 172.136 145.092, 173.151 142.406, 174.217 139.824, 175.329 137.351, 176.487 134.991, 177.688 133.872, 178.278 131.586, 179.543 129.425, 180.848 127.393, 182.188 125.495, 183.562 124.334, 184.429 122.543, 185.859 120.895, 187.316 119.393, 188.799 118.290, 189.899 116.917, 191.427 115.700, 192.976 114.720, 194.258 113.645, 195.843 112.829, 197.263 111.906, 198.880 111.148, 200.507 110.505, 202.052 109.909, 203.701 109.462, 205.328 109.033, 206.991 108.776, 208.654 108.533, 210.341 108.447, 212.007 108.416, 213.714 108.502, 215.376 108.683, 217.074 108.942, 218.724 109.332, 220.383 109.761, 222.015 110.361, 223.630 110.948, 225.211 111.312, 225.965 111.713, 226.797 112.488, 228.279 113.411, 229.829 114.359, 231.186 115.434, 232.695 116.495, 233.968 116.668, 234.175 117.754, 235.364 119.127, 236.794 120.652, 238.191 121.844, 239.186 123.492, 240.526 125.284, 241.827 127.216, 243.088 128.443, 243.846 130.475, 245.042 132.637, 246.192 134.923, 247.294 137.330, 248.347 138.489, 248.833 140.962, 249.814 143.545, 250.742 146.230, 251.616 149.014, 252.432 151.890, 253.191 154.852, 253.890 157.895, 254.528 158.715, 254.694 161.766, 255.257 164.884, 255.758 168.062, 256.196 171.294, 256.569 174.573, 256.878 177.894, 257.121 181.248, 257.298 184.630, 257.409 188.033, 257.453 191.449, 257.431 194.872, 257.341 198.295, 257.186 201.712, 256.964 205.114, 256.677 208.496, 256.325 211.850, 255.908 215.171, 255.427 218.450, 254.884 221.682, 254.280 224.860, 253.615 227.977, 252.892 231.028, 252.111 234.006, 251.274 234.819, 251.033 237.781, 250.122 240.656, 249.158 243.440, 248.142 246.125, 247.077 248.707, 245.964 251.180, 244.806 253.541, 243.606 254.659, 243.016 256.945, 241.750 259.106, 240.446 261.138, 239.105 263.036, 237.731 264.197, 236.864 265.988, 235.435 267.637, 233.977 269.138, 232.494 270.241, 231.395 271.614, 229.866 272.831, 228.318 273.812, 227.036 273.973, 226.798 274.886, 225.450 275.703, 224.031 276.625, 222.414 277.383, 220.787 278.026, 219.241 278.267, 218.573 278.622, 217.593 279.069, 215.965 279.498, 214.303 279.755, 212.640 279.998, 210.953 280.084, 209.287 280.116, 207.579 280.029, 205.917 279.848, 204.220 279.589, 202.569 279.200, 200.911 278.770, 199.279 278.170, 197.663 277.583, 196.083 276.818, 194.496 276.043, 193.015 275.120, 191.464 274.172, 190.108 273.098, 188.599 271.863, 187.118 270.777, 185.930 269.404, 184.499 267.879, 183.102 266.688, 182.107 265.039, 180.767 263.247, 179.466 261.315, 178.206 260.088, 177.447 258.056, 176.252 255.895, 175.102 253.608, 174.000 251.201, 172.947 250.043, 172.461 247.569, 171.480 244.986, 170.551 242.301, 169.678 239.517, 168.861 236.641, 168.103 233.679, 167.404 230.636, 166.766 229.816, 166.599 226.765, 166.036 223.647, 165.535 220.469, 165.098 217.237, 164.724 213.958, 164.416 210.637, 164.173 207.283, 163.995 203.901, 163.885 200.498, 163.841 197.082, 163.863 193.659, 163.952 " />
    <path fill="#FFFFFF" stroke="#FFFFFF" stroke-width="13.0" stroke-linecap="round" stroke-linejoin="round" d=" M 142.337, 212.259 142.034, 211.895 142.030, 211.890 141.973, 211.821 141.959, 211.805 141.934, 211.775 141.922, 211.761 141.889, 211.721 141.887, 211.718 141.809, 211.608 141.183, 210.730 " />
    <path fill="#FFFFFF" stroke="#FFFFFF" stroke-width="13.0" stroke-linecap="round" stroke-linejoin="round" d=" M 143.322, 213.187 143.005, 212.897 142.985, 212.879 142.982, 212.876 142.546, 212.477 142.337, 212.259 142.063, 211.973 142.043, 211.953 142.036, 211.945 142.020, 211.928 141.985, 211.892 141.980, 211.887 141.953, 211.859 141.930, 211.834 141.923, 211.828 141.614, 211.505 " />
    <path fill="#FFFFFF" stroke="#FFFFFF" stroke-width="13.0" stroke-linecap="round" stroke-linejoin="round" d=" M 145.600, 214.804 144.817, 214.293 143.553, 213.375 143.322, 213.187 142.988, 212.916 142.966, 212.898 142.963, 212.895 142.668, 212.656 142.656, 212.646 142.391, 212.430 " />
    <path fill="#FFFFFF" stroke="#FFFFFF" stroke-width="13.0" stroke-linecap="round" stroke-linejoin="round" d=" M 150.820, 217.440 149.718, 216.958 148.036, 216.147 146.447, 215.302 145.600, 214.804 144.952, 214.423 " />
    <path fill="#FFFFFF" stroke="#FFFFFF" stroke-width="13.0" stroke-linecap="round" stroke-linejoin="round" d=" M 264.197, 236.864 262.265, 238.262 260.198, 239.627 257.998, 240.954 255.672, 242.242 253.222, 243.489 250.655, 244.690 247.975, 245.845 245.188, 246.951 242.299, 248.005 239.315, 249.006 236.240, 249.951 233.083, 250.838 229.848, 251.667 226.542, 252.434 223.172, 253.139 219.745, 253.780 216.268, 254.355 212.747, 254.865 209.190, 255.307 205.604, 255.681 201.996, 255.985 198.373, 256.220 194.743, 256.385 191.113, 256.480 187.490, 256.503 183.882, 256.457 180.296, 256.339 176.739, 256.151 173.218, 255.894 169.741, 255.566 166.313, 255.170 162.943, 254.706 159.637, 254.175 156.402, 253.578 153.244, 252.916 150.170, 252.191 147.185, 251.404 144.296, 250.556 141.509, 249.649 138.828, 248.686 136.261, 247.668 133.811, 246.596 131.484, 245.475 129.284, 244.304 127.216, 243.088 " />
    <path fill="#FFFFFF" stroke="#FFFFFF" stroke-width="13.0" stroke-linecap="round" stroke-linejoin="round" d=" M 164.648, 221.499 162.926, 221.138 160.646, 220.600 158.432, 220.016 156.289, 219.388 154.222, 218.715 152.234, 218.001 150.820, 217.440 150.330, 217.246 " />
    <path fill="#FFFFFF" stroke="#FFFFFF" stroke-width="13.0" stroke-linecap="round" stroke-linejoin="round" d=" M 225.294, 218.698 224.963, 218.791 222.888, 219.374 220.422, 220.005 217.903, 220.590 215.335, 221.127 212.723, 221.616 210.073, 222.055 207.389, 222.443 204.678, 222.780 201.945, 223.065 199.195, 223.297 196.435, 223.476 193.668, 223.602 190.902, 223.674 188.141, 223.692 185.391, 223.656 182.658, 223.566 179.947, 223.423 177.263, 223.227 174.613, 222.978 172.001, 222.676 169.433, 222.322 166.913, 221.917 164.648, 221.499 164.447, 221.462 " />
    <path fill="#FFFFFF" stroke="#FFFFFF" stroke-width="13.0" stroke-linecap="round" stroke-linejoin="round" d=" M 238.893, 213.222 238.240, 213.554 237.076, 214.146 235.172, 215.037 233.184, 215.894 231.117, 216.714 228.975, 217.496 226.761, 218.238 224.963, 218.791 " />
    <path fill="#FFFFFF" stroke="#FFFFFF" stroke-width="13.0" stroke-linecap="round" stroke-linejoin="round" d=" M 243.935, 209.925 243.139, 210.501 242.539, 210.936 241.045, 211.922 239.456, 212.881 238.240, 213.554 " />
    <path fill="#FFFFFF" stroke="#FFFFFF" stroke-width="13.0" stroke-linecap="round" stroke-linejoin="round" d=" M 246.258, 207.711 246.144, 207.824 246.138, 207.830 245.572, 208.389 245.565, 208.396 245.546, 208.415 245.232, 208.725 245.200, 208.757 244.037, 209.785 243.139, 210.501 " />
    <path fill="#FFFFFF" stroke="#FFFFFF" stroke-width="13.0" stroke-linecap="round" stroke-linejoin="round" d=" M 246.914, 206.721 246.516, 207.228 246.514, 207.230 246.477, 207.277 246.465, 207.293 246.451, 207.310 246.409, 207.363 246.406, 207.366 246.396, 207.380 246.392, 207.384 246.112, 207.741 246.087, 207.772 245.550, 208.370 245.543, 208.378 245.526, 208.397 245.232, 208.725 " />
    <path fill="#FFFFFF" stroke="#FFFFFF" stroke-width="13.0" stroke-linecap="round" stroke-linejoin="round" d=" M 246.640, 206.962 246.602, 207.017 246.554, 207.089 246.504, 207.162 246.490, 207.183 246.490, 207.183 246.479, 207.199 246.408, 207.305 246.399, 207.317 246.112, 207.741 " />
    <path fill="#FFFFFF" stroke="#FFFFFF" stroke-width="13.0" stroke-linecap="round" stroke-linejoin="round" d=" M 246.897, 206.308 246.583, 206.984 246.520, 207.118 246.490, 207.182 246.490, 207.183 " />
    <path fill="#FFFFFF" stroke="#FFFFFF" stroke-width="13.0" stroke-linecap="round" stroke-linejoin="round" d=" M 246.627, 206.824 246.520, 207.118 " />
    <path fill="#FFFFFF" stroke="#FFFFFF" stroke-width="13.0" stroke-linecap="round" stroke-linejoin="round" d=" M 246.602, 206.406 246.479, 207.199 " />
    <path fill="#FFFFFF" stroke="#FFFFFF" stroke-width="13.0" stroke-linecap="round" stroke-linejoin="round" d=" M 246.412, 207.078 246.399, 207.317 " />
    <path fill="#FFFFFF" stroke="#FFFFFF" stroke-width="13.0" stroke-linecap="round" stroke-linejoin="round" d=" M 141.956, 211.793 141.791, 211.168 " />
    <path fill="#FFFFFF" stroke="#FFFFFF" stroke-width="13.0" stroke-linecap="round" stroke-linejoin="round" d=" M 141.973, 211.821 141.956, 211.793 141.926, 211.744 141.860, 211.633 141.846, 211.609 141.540, 211.095 " />
    <path fill="#FFFFFF" stroke="#FFFFFF" stroke-width="13.0" stroke-linecap="round" stroke-linejoin="round" d=" M 142.034, 211.895 142.023, 211.821 " />
    <path fill="#FFFFFF" stroke="#FFFFFF" stroke-width="13.0" stroke-linecap="round" stroke-linejoin="round" d=" M 141.860, 211.633 141.837, 211.585 " />
  </g>
</svg>