<?xml version='1.0' encoding='utf-8'?>
<svg xmlns="http://www.w3.org/2000/svg" version="1.1" width="400" height="400" viewBox="0 0 400 400">
  <g>
    <path fill="#FFFFFF" stroke="#FFFFFF" stroke-width="13.0" stroke-linecap="round" stroke-linejoin="round" d=" M 121.602, 73.482 116.264, 81.938 115.792, 82.685 115.541, 83.137 115.342, 83.591 115.196, 84.047 113.255, 91.136 113.160, 91.604 113.118, 92.073 112.899, 102.070 112.680, 112.068 112.462, 122.066 112.243, 132.063 112.024, 142.061 111.805, 152.059 111.586, 162.056 111.367, 172.054 111.149, 182.051 110.993, 189.185 111.005, 189.656 111.070, 190.127 111.190, 190.598 112.828, 195.597 112.998, 196.060 113.220, 196.523 113.495, 196.986 113.822, 197.448 114.200, 197.909 114.631, 198.370 115.113, 198.829 115.646, 199.286 116.230, 199.741 124.269, 205.690 124.777, 206.066 125.346, 206.473 125.960, 206.877 126.618, 207.279 127.321, 207.678 128.068, 208.074 128.858, 208.467 129.690, 208.857 130.565, 209.243 131.482, 209.625 132.440, 210.004 133.439, 210.378 134.478, 210.747 135.557, 211.112 136.674, 211.471 137.829, 211.826 139.022, 212.175 140.252, 212.518 141.517, 212.856 142.818, 213.187 144.153, 213.513 145.522, 213.832 146.924, 214.144 148.357, 214.450 149.822, 214.748 151.317, 215.040 152.842, 215.324 154.394, 215.601 155.974, 215.869 157.581, 216.131 159.213, 216.384 160.870, 216.629 162.551, 216.865 164.254, 217.094 165.978, 217.313 167.723, 217.524 169.487, 217.726 171.270, 217.919 173.070, 218.104 174.887, 218.278 176.718, 218.444 178.564, 218.600 180.422, 218.747 182.292, 218.884 184.173, 219.012 186.064, 219.130 187.962, 219.238 189.868, 219.336 191.780, 219.424 193.698, 219.502 195.618, 219.571 197.542, 219.629 199.467, 219.677 201.392, 219.715 203.317, 219.743 205.239, 219.760 207.159, 219.768 209.074, 219.765 210.983, 219.752 212.886, 219.729 214.781, 219.696 216.668, 219.652 218.544, 219.599 220.409, 219.535 222.262, 219.461 224.101, 219.378 225.926, 219.284 227.735, 219.181 229.528, 219.067 231.302, 218.944 233.058, 218.812 234.794, 218.669 236.509, 218.517 238.202, 218.356 239.872, 218.185 241.518, 218.006 243.139, 217.817 244.734, 217.619 246.302, 217.412 247.842, 217.196 249.354, 216.972 250.835, 216.739 252.286, 216.498 253.706, 216.248 255.093, 215.991 256.447, 215.726 257.767, 215.453 259.052, 215.172 260.302, 214.884 261.515, 214.589 262.691, 214.286 263.830, 213.977 264.930, 213.661 265.990, 213.338 267.012, 213.010 267.992, 212.675 268.932, 212.334 269.830, 211.987 270.687, 211.635 271.500, 211.278 272.271, 210.916 272.998, 210.549 273.681, 210.177 274.320, 209.801 274.914, 209.420 283.204, 203.829 283.717, 203.483 284.330, 203.054 284.891, 202.621 285.402, 202.184 285.861, 201.744 286.268, 201.300 286.624, 200.853 286.927, 200.403 287.179, 199.951 287.378, 199.496 289.233, 194.576 289.382, 194.110 289.477, 193.642 289.519, 193.173 289.738, 183.176 289.957, 173.178 290.175, 163.181 290.394, 153.183 290.613, 143.185 290.832, 133.188 291.051, 123.190 291.270, 113.193 291.488, 103.195 291.645, 96.061 291.633, 95.591 291.567, 95.120 289.938, 87.951 289.821, 87.489 289.651, 87.026 289.429, 86.563 284.466, 77.882 283.955, 76.988 " />
    <path fill="#FFFFFF" stroke="#FFFFFF" stroke-width="13.0" stroke-linecap="round" stroke-linejoin="round" d=" M 283.433, 77.578 283.420, 77.728 283.333, 78.151 283.198, 78.572 283.015, 78.991 282.784, 79.407 282.504, 79.822 282.176, 80.234 281.800, 80.643 281.377, 81.049 280.907, 81.452 280.389, 81.851 279.825, 82.246 279.214, 82.637 278.557, 83.024 277.855, 83.407 277.107, 83.784 276.314, 84.157 275.478, 84.524 274.597, 84.886 273.673, 85.243 272.707, 85.593 271.698, 85.937 270.648, 86.276 269.557, 86.607 268.426, 86.932 267.256, 87.250 266.046, 87.561 265.111, 87.789 264.798, 87.865 263.513, 88.161 262.192, 88.450 260.834, 88.730 259.442, 89.003 258.016, 89.268 256.556, 89.525 255.064, 89.772 253.540, 90.012 251.986, 90.242 250.402, 90.464 248.790, 90.677 247.149, 90.881 245.483, 91.075 243.790, 91.260 242.073, 91.435 240.332, 91.601 238.568, 91.758 236.783, 91.904 234.977, 92.040 233.152, 92.167 231.309, 92.284 229.448, 92.390 227.572, 92.486 225.680, 92.572 223.775, 92.648 221.857, 92.713 219.928, 92.768 217.988, 92.813 216.039, 92.847 214.082, 92.871 212.118, 92.884 210.149, 92.887 208.175, 92.879 206.198, 92.861 204.219, 92.833 202.239, 92.794 200.260, 92.744 198.282, 92.684 196.306, 92.614 194.335, 92.534 192.369, 92.443 190.409, 92.342 188.456, 92.231 186.512, 92.110 184.578, 91.979 182.655, 91.838 180.744, 91.687 178.846, 91.526 176.962, 91.356 175.095, 91.176 173.243, 90.986 171.410, 90.788 169.596, 90.580 167.801, 90.363 166.028, 90.137 164.277, 89.902 162.549, 89.659 160.845, 89.407 159.166, 89.147 157.514, 88.878 155.889, 88.602 154.292, 88.317 152.725, 88.025 151.187, 87.726 149.681, 87.418 148.207, 87.104 146.765, 86.783 145.358, 86.455 143.985, 86.120 142.647, 85.779 141.346, 85.432 140.081, 85.079 139.597, 84.937 138.855, 84.720 137.666, 84.355 136.518, 83.986 135.409, 83.611 134.340, 83.231 133.313, 82.846 132.328, 82.457 131.385, 82.064 130.485, 81.667 129.629, 81.266 128.816, 80.862 128.049, 80.455 127.326, 80.044 126.649, 79.631 126.017, 79.215 125.432, 78.797 124.894, 78.377 124.402, 77.956 123.958, 77.533 123.561, 77.108 123.212, 76.683 122.911, 76.257 122.657, 75.831 122.453, 75.404 122.296, 74.977 122.188, 74.551 122.130, 74.134 " />
    <path fill="#FFFFFF" stroke="#FFFFFF" stroke-width="13.0" stroke-linecap="round" stroke-linejoin="round" d=" M 265.111, 87.789 265.677, 87.618 267.169, 87.143 268.940, 86.551 270.577, 85.940 272.078, 85.310 273.603, 84.596 274.994, 83.936 276.239, 83.261 277.717, 82.332 278.836, 81.628 279.802, 80.912 281.196, 79.784 282.021, 79.042 283.285, 77.745 283.433, 77.578 283.955, 76.988 283.961, 76.981 285.075, 75.534 285.594, 74.751 286.539, 73.174 287.296, 71.500 287.655, 70.693 288.217, 68.936 288.407, 68.118 288.764, 66.304 288.910, 64.461 288.928, 63.635 288.863, 61.787 288.586, 59.959 288.431, 59.134 287.947, 57.353 287.623, 56.532 286.941, 54.826 286.066, 53.210 285.581, 52.404 284.532, 50.910 283.890, 50.117 282.683, 48.766 281.892, 47.989 280.548, 46.801 279.615, 46.043 278.528, 45.291 277.092, 44.298 275.877, 43.569 274.517, 42.849 273.025, 42.069 271.553, 41.374 269.944, 40.692 268.200, 40.023 266.731, 39.483 264.900, 38.843 262.945, 38.220 260.870, 37.613 258.679, 37.024 256.378, 36.455 253.969, 35.906 251.458, 35.379 250.297, 35.141 247.754, 34.649 245.121, 34.179 242.403, 33.734 239.608, 33.313 236.739, 32.919 233.803, 32.550 230.806, 32.210 227.754, 31.897 224.653, 31.612 221.509, 31.357 218.328, 31.132 215.118, 30.936 211.884, 30.771 208.632, 30.637 205.370, 30.535 202.105, 30.463 198.841, 30.423 195.587, 30.415 192.349, 30.438 189.133, 30.493 185.945, 30.579 182.793, 30.696 179.683, 30.844 176.620, 31.024 173.611, 31.233 170.661, 31.472 167.778, 31.741 164.967, 32.039 162.233, 32.365 159.582, 32.719 157.019, 33.099 155.849, 33.286 153.318, 33.703 150.887, 34.146 148.563, 34.614 146.348, 35.107 144.249, 35.622 142.269, 36.159 140.411, 36.718 138.920, 37.194 137.149, 37.786 135.511, 38.397 134.010, 39.026 132.486, 39.740 131.095, 40.400 129.850, 41.076 128.372, 42.004 127.253, 42.708 126.287, 43.425 124.893, 44.553 124.068, 45.294 122.803, 46.591 122.128, 47.355 121.014, 48.803 120.494, 49.586 119.550, 51.162 118.793, 52.837 118.433, 53.643 117.872, 55.401 117.682, 56.218 117.325, 58.033 117.178, 59.876 117.160, 60.702 117.226, 62.550 117.503, 64.378 117.657, 65.203 118.141, 66.983 118.465, 67.805 119.148, 69.511 120.023, 71.127 120.507, 71.932 121.557, 73.427 121.602, 73.482 122.130, 74.134 122.199, 74.219 123.405, 75.570 124.197, 76.348 125.540, 77.535 126.474, 78.294 127.561, 79.046 128.997, 80.038 130.211, 80.767 131.572, 81.488 133.064, 82.268 134.536, 82.962 136.145, 83.644 137.888, 84.313 139.358, 84.854 139.597, 84.937 " />
    <path fill="#FFFFFF" stroke="#FFFFFF" stroke-width="13.0" stroke-linecap="round" stroke-linejoin="round" d=" M 281.196, 79.784 280.213, 80.513 279.074, 81.229 277.781, 81.931 276.338, 82.616 274.746, 83.283 273.010, 83.931 271.132, 84.559 269.116, 85.165 266.967, 85.748 264.689, 86.308 262.286, 86.842 259.763, 87.350 257.125, 87.831 254.378, 88.283 251.527, 88.707 248.578, 89.100 245.537, 89.463 242.410, 89.794 239.203, 90.093 235.922, 90.359 232.575, 90.592 229.168, 90.792 225.707, 90.957 222.201, 91.087 218.655, 91.183 215.078, 91.244 211.476, 91.270 207.856, 91.260 204.226, 91.216 200.593, 91.136 196.965, 91.022 193.348, 90.873 189.750, 90.690 186.179, 90.472 182.641, 90.221 179.143, 89.938 175.694, 89.621 172.298, 89.273 168.965, 88.894 165.699, 88.484 162.508, 88.045 159.398, 87.578 156.376, 87.082 153.446, 86.560 150.617, 86.012 147.892, 85.440 145.278, 84.844 142.780, 84.226 140.403, 83.588 138.151, 82.929 136.029, 82.252 134.042, 81.558 132.194, 80.849 130.487, 80.126 128.926, 79.389 127.514, 78.642 126.254, 77.885 125.147, 77.119 124.197, 76.348 " />
    <path fill="#FFFFFF" stroke="#FFFFFF" stroke-width="13.0" stroke-linecap="round" stroke-linejoin="round" d=" M 244.987, 57.754 244.635, 57.806 242.688, 58.095 240.311, 58.412 237.859, 58.705 236.962, 58.800 235.338, 58.972 232.752, 59.213 230.107, 59.427 227.877, 59.583 227.409, 59.615 224.662, 59.776 221.872, 59.909 219.046, 60.014 216.187, 60.091 213.303, 60.140 210.399, 60.161 207.481, 60.154 204.554, 60.118 201.626, 60.054 198.700, 59.961 195.785, 59.841 192.884, 59.694 190.005, 59.518 187.153, 59.316 184.333, 59.087 181.552, 58.832 178.815, 58.552 178.376, 58.502 176.127, 58.246 173.494, 57.916 170.922, 57.562 169.306, 57.319 168.415, 57.185 165.978, 56.785 163.617, 56.364 161.685, 55.990 161.335, 55.923 " />
  </g>
</svg>