<?xml version='1.0' encoding='utf-8'?>
<svg xmlns="http://www.w3.org/2000/svg" version="1.1" width="400" height="400" viewBox="0 0 400 400">
  <g>
    <path fill="#FFFFFF" stroke="#FFFFFF" stroke-width="13.0" stroke-linecap="round" stroke-linejoin="round" d=" M 136.819, 202.450 133.268, 207.073 132.779, 207.736 132.341, 208.406 131.955, 209.085 131.621, 209.770 131.338, 210.462 128.939, 217.115 128.704, 217.828 128.523, 218.547 128.394, 219.271 128.319, 220.001 127.405, 229.959 126.491, 239.917 125.576, 249.876 124.662, 259.834 123.748, 269.792 122.833, 279.750 121.919, 289.708 121.005, 299.666 120.090, 309.624 119.751, 313.318 119.730, 314.052 119.762, 314.791 119.848, 315.534 119.988, 316.280 120.180, 317.030 121.477, 321.904 121.718, 322.641 122.012, 323.380 122.357, 324.121 122.754, 324.863 123.203, 325.605 123.703, 326.348 124.253, 327.091 124.855, 327.832 125.506, 328.573 126.208, 329.312 126.959, 330.050 127.758, 330.784 128.607, 331.516 129.503, 332.245 130.447, 332.970 137.915, 338.683 138.803, 339.329 139.732, 339.971 140.703, 340.608 141.713, 341.240 142.764, 341.867 143.853, 342.489 144.981, 343.104 146.147, 343.713 147.349, 344.316 148.588, 344.911 149.863, 345.498 151.172, 346.078 152.516, 346.649 153.892, 347.212 155.301, 347.766 156.742, 348.311 158.213, 348.846 159.714, 349.372 161.244, 349.887 162.802, 350.391 164.386, 350.885 165.997, 351.368 167.633, 351.839 169.293, 352.299 170.977, 352.747 172.682, 353.182 174.408, 353.605 176.155, 354.015 177.920, 354.413 179.703, 354.797 181.503, 355.167 183.319, 355.524 185.150, 355.867 186.994, 356.196 188.850, 356.511 190.718, 356.811 192.596, 357.096 194.483, 357.367 196.378, 357.622 198.280, 357.862 200.188, 358.088 202.100, 358.297 204.015, 358.491 205.933, 358.670 207.851, 358.832 209.770, 358.979 211.687, 359.109 213.601, 359.224 215.513, 359.323 217.419, 359.405 219.319, 359.471 221.213, 359.521 223.098, 359.554 224.974, 359.571 226.840, 359.572 228.694, 359.557 230.535, 359.525 232.363, 359.477 234.175, 359.412 235.972, 359.332 237.752, 359.235 239.513, 359.122 241.256, 358.993 242.978, 358.848 244.679, 358.687 246.357, 358.510 248.012, 358.317 249.643, 358.109 251.249, 357.886 252.828, 357.647 254.380, 357.393 255.904, 357.124 257.399, 356.840 258.864, 356.541 260.298, 356.228 261.700, 355.901 263.070, 355.559 264.407, 355.204 265.709, 354.834 266.976, 354.452 268.208, 354.056 269.403, 353.647 270.561, 353.225 271.681, 352.791 272.762, 352.344 273.804, 351.886 274.807, 351.416 275.769, 350.934 284.231, 346.637 285.258, 346.087 286.239, 345.526 287.173, 344.952 288.059, 344.367 288.898, 343.771 289.687, 343.164 290.428, 342.547 291.119, 341.920 291.760, 341.284 292.351, 340.638 292.892, 339.984 293.381, 339.321 293.819, 338.650 294.205, 337.971 294.540, 337.285 296.707, 332.718 296.995, 332.012 297.231, 331.299 297.412, 330.580 297.541, 329.855 297.615, 329.125 298.530, 319.167 299.444, 309.209 300.359, 299.251 301.273, 289.293 302.187, 279.334 303.102, 269.376 304.016, 259.418 304.930, 249.460 305.845, 239.502 306.184, 235.809 306.205, 235.074 306.173, 234.335 306.087, 233.592 304.939, 226.610 304.802, 225.879 304.613, 225.145 304.372, 224.408 304.079, 223.669 303.733, 222.929 300.949, 217.471 " />
    <path fill="#FFFFFF" stroke="#FFFFFF" stroke-width="13.0" stroke-linecap="round" stroke-linejoin="round" d=" M 298.346, 220.646 298.131, 221.088 297.774, 221.714 297.371, 222.332 296.920, 222.944 296.422, 223.547 295.877, 224.142 295.286, 224.729 294.649, 225.307 293.966, 225.876 293.238, 226.435 292.465, 226.985 291.648, 227.524 290.787, 228.052 289.883, 228.570 288.936, 229.077 287.947, 229.572 286.916, 230.056 285.844, 230.527 284.732, 230.986 283.581, 231.433 282.390, 231.867 281.161, 232.287 279.895, 232.694 278.591, 233.088 277.252, 233.468 275.878, 233.833 274.469, 234.184 273.027, 234.521 271.552, 234.843 270.046, 235.150 268.509, 235.442 266.942, 235.719 265.345, 235.980 263.721, 236.226 262.070, 236.455 260.393, 236.669 258.691, 236.867 256.965, 237.049 255.216, 237.215 253.445, 237.364 251.653, 237.497 249.842, 237.613 248.012, 237.712 246.164, 237.795 244.300, 237.862 242.421, 237.911 240.527, 237.944 240.399, 237.945 238.621, 237.960 236.702, 237.959 234.773, 237.941 232.834, 237.907 230.887, 237.856 228.933, 237.788 226.972, 237.703 225.007, 237.602 223.038, 237.484 221.066, 237.350 219.094, 237.199 217.121, 237.032 215.149, 236.848 213.179, 236.649 211.213, 236.433 209.252, 236.202 207.296, 235.954 205.347, 235.692 203.406, 235.413 201.475, 235.120 199.554, 234.811 197.645, 234.488 195.749, 234.150 193.867, 233.797 191.999, 233.430 191.703, 233.369 190.148, 233.049 188.314, 232.654 186.499, 232.246 184.703, 231.824 182.928, 231.389 181.174, 230.941 179.443, 230.480 177.736, 230.008 176.054, 229.523 174.397, 229.027 172.767, 228.519 171.165, 228.000 169.592, 227.470 168.049, 226.930 166.536, 226.379 165.054, 225.819 163.605, 225.249 162.190, 224.671 160.808, 224.083 159.462, 223.487 158.151, 222.883 156.877, 222.271 155.640, 221.651 154.441, 221.025 153.282, 220.392 152.161, 219.753 151.081, 219.108 150.042, 218.458 149.044, 217.803 148.088, 217.143 147.175, 216.478 146.305, 215.810 145.479, 215.138 144.697, 214.464 143.960, 213.786 143.268, 213.107 142.621, 212.425 142.021, 211.743 141.466, 211.059 140.959, 210.374 140.498, 209.690 140.084, 209.005 139.718, 208.321 139.400, 207.639 139.129, 206.957 138.907, 206.278 138.889, 206.209 " />
    <path fill="#FFFFFF" stroke="#FFFFFF" stroke-width="13.0" stroke-linecap="round" stroke-linejoin="round" d=" M 240.399, 237.945 241.808, 237.916 244.954, 237.798 248.046, 237.628 251.080, 237.407 254.048, 237.136 254.940, 237.040 257.905, 236.711 260.792, 236.331 263.593, 235.901 266.304, 235.422 268.919, 234.895 271.433, 234.320 273.841, 233.700 276.138, 233.035 277.463, 232.643 279.691, 231.919 281.797, 231.153 283.776, 230.345 285.625, 229.498 287.042, 228.843 288.789, 227.940 290.396, 227.001 291.773, 226.125 293.262, 225.133 294.601, 224.108 295.901, 223.027 297.106, 221.954 298.155, 220.851 298.346, 220.646 299.341, 219.585 300.242, 218.439 300.949, 217.471 301.275, 217.024 302.021, 215.840 302.882, 214.299 303.467, 213.081 304.141, 211.439 304.559, 210.192 305.035, 208.475 305.283, 207.204 305.552, 205.440 305.628, 204.151 305.685, 202.369 305.590, 201.068 305.435, 199.296 305.168, 197.988 304.805, 196.255 304.370, 194.946 303.806, 193.280 303.207, 191.977 302.452, 190.405 301.696, 189.113 300.765, 187.660 299.858, 186.385 298.769, 185.075 297.719, 183.821 296.514, 182.572 295.308, 181.449 293.975, 180.228 292.496, 179.016 290.873, 177.816 289.614, 176.925 287.885, 175.762 286.022, 174.616 284.028, 173.488 281.908, 172.381 280.699, 171.766 278.505, 170.705 276.195, 169.669 273.775, 168.659 271.249, 167.679 268.623, 166.729 265.901, 165.812 263.090, 164.930 262.196, 164.664 259.367, 163.837 256.462, 163.048 253.486, 162.297 250.445, 161.586 247.346, 160.918 244.194, 160.292 240.997, 159.711 237.760, 159.175 234.491, 158.686 231.195, 158.244 227.879, 157.851 224.550, 157.507 221.215, 157.213 217.880, 156.969 214.553, 156.777 211.239, 156.636 207.945, 156.546 204.679, 156.509 201.446, 156.523 198.254, 156.590 195.108, 156.708 192.015, 156.877 188.982, 157.098 186.013, 157.370 185.121, 157.465 182.156, 157.794 179.270, 158.174 176.469, 158.605 173.758, 159.084 171.143, 159.611 168.629, 160.185 166.221, 160.805 163.924, 161.470 162.599, 161.863 160.370, 162.586 158.264, 163.353 156.285, 164.160 154.437, 165.007 153.020, 165.663 151.273, 166.565 149.666, 167.505 148.288, 168.380 146.800, 169.372 145.460, 170.398 144.161, 171.478 142.955, 172.552 141.907, 173.655 140.721, 174.921 139.820, 176.067 138.787, 177.481 138.041, 178.666 137.180, 180.206 136.595, 181.425 135.921, 183.066 135.502, 184.314 135.027, 186.030 134.778, 187.301 134.510, 189.065 134.433, 190.354 134.376, 192.136 134.472, 193.438 134.627, 195.210 134.894, 196.518 135.257, 198.251 135.692, 199.559 136.256, 201.225 136.819, 202.450 136.855, 202.528 137.610, 204.100 138.366, 205.393 138.889, 206.209 139.297, 206.845 140.204, 208.121 141.293, 209.430 142.343, 210.684 143.547, 211.934 144.754, 213.057 146.087, 214.278 147.566, 215.489 149.189, 216.689 150.447, 217.580 152.177, 218.743 154.040, 219.889 156.033, 221.017 158.154, 222.124 159.363, 222.740 161.557, 223.801 163.867, 224.837 166.287, 225.846 168.813, 226.827 171.439, 227.776 174.161, 228.693 176.972, 229.576 177.866, 229.842 180.695, 230.668 183.600, 231.458 186.576, 232.209 189.617, 232.919 191.703, 233.369 " />
    <path fill="#FFFFFF" stroke="#FFFFFF" stroke-width="13.0" stroke-linecap="round" stroke-linejoin="round" d=" M 167.670, 188.319 167.181, 187.812 167.178, 187.809 167.176, 187.807 167.046, 187.672 167.001, 187.626 166.261, 186.741 " />
    <path fill="#FFFFFF" stroke="#FFFFFF" stroke-width="13.0" stroke-linecap="round" stroke-linejoin="round" d=" M 169.231, 189.557 168.712, 189.173 167.670, 188.319 167.624, 188.282 167.309, 187.993 167.280, 187.966 167.261, 187.949 167.231, 187.922 167.170, 187.866 166.644, 187.384 " />
    <path fill="#FFFFFF" stroke="#FFFFFF" stroke-width="13.0" stroke-linecap="round" stroke-linejoin="round" d=" M 291.773, 226.125 290.138, 227.081 288.359, 228.000 286.441, 228.879 284.387, 229.718 282.201, 230.513 279.888, 231.264 277.453, 231.969 274.899, 232.627 272.233, 233.236 269.460, 233.795 266.585, 234.303 263.615, 234.759 260.554, 235.162 257.410, 235.511 254.189, 235.806 250.897, 236.045 247.540, 236.230 244.126, 236.358 240.661, 236.430 237.153, 236.445 233.608, 236.405 230.034, 236.308 226.438, 236.154 222.826, 235.945 219.207, 235.681 215.588, 235.362 211.975, 234.989 208.377, 234.562 204.800, 234.083 201.251, 233.552 197.738, 232.970 194.269, 232.340 190.848, 231.661 187.485, 230.935 184.185, 230.164 180.955, 229.349 177.802, 228.493 174.732, 227.595 171.751, 226.660 168.865, 225.687 166.080, 224.680 163.402, 223.641 160.835, 222.570 158.386, 221.472 156.059, 220.347 153.859, 219.198 151.789, 218.027 149.856, 216.837 148.061, 215.631 146.409, 214.410 144.904, 213.176 143.547, 211.934 " />
    <path fill="#FFFFFF" stroke="#FFFFFF" stroke-width="13.0" stroke-linecap="round" stroke-linejoin="round" d=" M 173.764, 192.236 172.947, 191.810 171.413, 190.942 169.978, 190.059 169.231, 189.557 168.647, 189.164 " />
    <path fill="#FFFFFF" stroke="#FFFFFF" stroke-width="13.0" stroke-linecap="round" stroke-linejoin="round" d=" M 187.358, 197.494 185.330, 196.857 183.130, 196.116 181.008, 195.349 178.967, 194.556 177.011, 193.741 175.780, 193.188 175.144, 192.903 173.764, 192.236 173.370, 192.046 " />
    <path fill="#FFFFFF" stroke="#FFFFFF" stroke-width="13.0" stroke-linecap="round" stroke-linejoin="round" d=" M 251.505, 203.507 251.321, 203.524 248.980, 203.738 246.400, 203.926 243.769, 204.071 241.094, 204.171 238.378, 204.227 235.629, 204.240 232.851, 204.208 230.049, 204.132 227.231, 204.012 224.401, 203.848 221.564, 203.641 218.728, 203.391 215.896, 203.098 213.076, 202.764 210.273, 202.388 207.492, 201.972 204.739, 201.516 202.019, 201.022 199.339, 200.490 196.703, 199.921 194.117, 199.317 191.585, 198.678 189.114, 198.007 187.358, 197.494 186.708, 197.304 " />
    <path fill="#FFFFFF" stroke="#FFFFFF" stroke-width="13.0" stroke-linecap="round" stroke-linejoin="round" d=" M 267.744, 200.366 266.680, 200.674 265.888, 200.903 264.282, 201.317 263.942, 201.405 261.910, 201.869 259.796, 202.295 257.605, 202.682 255.342, 203.030 253.009, 203.337 251.321, 203.524 " />
    <path fill="#FFFFFF" stroke="#FFFFFF" stroke-width="13.0" stroke-linecap="round" stroke-linejoin="round" d=" M 272.702, 198.338 272.523, 198.420 272.502, 198.430 271.386, 198.941 271.279, 198.990 269.756, 199.612 268.135, 200.202 266.680, 200.674 " />
    <path fill="#FFFFFF" stroke="#FFFFFF" stroke-width="13.0" stroke-linecap="round" stroke-linejoin="round" d=" M 273.752, 197.638 273.673, 197.685 273.648, 197.700 273.617, 197.718 273.596, 197.730 273.512, 197.779 273.239, 197.938 272.571, 198.329 271.386, 198.941 " />
    <path fill="#FFFFFF" stroke="#FFFFFF" stroke-width="13.0" stroke-linecap="round" stroke-linejoin="round" d=" M 274.370, 197.092 273.871, 197.473 273.759, 197.559 273.739, 197.574 273.687, 197.614 273.425, 197.815 273.239, 197.938 " />
    <path fill="#FFFFFF" stroke="#FFFFFF" stroke-width="13.0" stroke-linecap="round" stroke-linejoin="round" d=" M 274.601, 196.694 273.889, 197.443 273.759, 197.559 " />
    <path fill="#FFFFFF" stroke="#FFFFFF" stroke-width="13.0" stroke-linecap="round" stroke-linejoin="round" d=" M 274.007, 197.207 273.687, 197.614 " />
    <path fill="#FFFFFF" stroke="#FFFFFF" stroke-width="13.0" stroke-linecap="round" stroke-linejoin="round" d=" M 167.178, 187.809 167.175, 187.805 166.734, 187.184 " />
    <path fill="#FFFFFF" stroke="#FFFFFF" stroke-width="13.0" stroke-linecap="round" stroke-linejoin="round" d=" M 167.181, 187.812 167.167, 187.788 " />
  </g>
</svg>