<?xml version='1.0' encoding='utf-8'?>
<svg xmlns="http://www.w3.org/2000/svg" version="1.1" width="400" height="400" viewBox="0 0 400 400">
  <g>
    <path fill="#FFFFFF" stroke="#FFFFFF" stroke-width="13.0" stroke-linecap="round" stroke-linejoin="round" d=" M 103.637, 140.428 101.712, 143.745 101.264, 144.552 100.868, 145.360 100.524, 146.170 100.231, 146.981 99.991, 147.792 99.804, 148.603 98.349, 155.403 98.211, 156.230 98.127, 157.055 98.096, 157.879 98.119, 158.701 98.600, 168.689 99.081, 178.678 99.562, 188.666 100.042, 198.655 100.523, 208.643 101.004, 218.631 101.485, 228.620 101.966, 238.608 102.447, 248.597 102.552, 250.785 102.629, 251.604 102.759, 252.420 102.943, 253.232 103.181, 254.040 103.472, 254.843 105.431, 259.405 105.768, 260.188 106.158, 260.965 106.599, 261.736 107.091, 262.500 107.634, 263.258 108.229, 264.008 108.873, 264.751 109.568, 265.485 110.312, 266.211 111.106, 266.927 111.948, 267.634 112.838, 268.331 113.776, 269.018 114.762, 269.693 115.793, 270.358 116.871, 271.011 117.994, 271.651 119.161, 272.280 127.007, 276.430 128.093, 276.982 129.217, 277.522 130.379, 278.050 131.579, 278.566 132.815, 279.069 134.087, 279.559 135.394, 280.035 136.735, 280.498 138.110, 280.947 139.517, 281.381 140.956, 281.802 142.426, 282.207 143.926, 282.598 145.455, 282.973 147.013, 283.333 148.597, 283.678 150.208, 284.006 151.844, 284.319 153.505, 284.615 155.189, 284.895 156.895, 285.159 158.622, 285.406 160.370, 285.635 162.137, 285.848 163.922, 286.044 165.724, 286.223 167.543, 286.384 169.376, 286.527 171.222, 286.654 173.082, 286.762 174.953, 286.853 176.834, 286.926 178.725, 286.981 180.624, 287.019 182.530, 287.039 184.442, 287.041 186.358, 287.025 188.278, 286.991 190.201, 286.939 192.125, 286.870 194.048, 286.782 195.971, 286.678 197.892, 286.555 199.809, 286.415 201.721, 286.257 203.628, 286.082 205.528, 285.890 207.420, 285.681 209.303, 285.455 211.175, 285.211 213.037, 284.951 214.885, 284.675 216.720, 284.382 218.541, 284.072 220.345, 283.747 222.133, 283.406 223.902, 283.049 225.653, 282.677 227.383, 282.289 229.092, 281.887 230.779, 281.469 232.443, 281.038 234.083, 280.592 235.697, 280.132 237.285, 279.658 238.847, 279.171 240.380, 278.671 241.884, 278.158 243.358, 277.633 244.801, 277.095 246.213, 276.546 247.593, 275.985 248.938, 275.412 250.250, 274.829 251.527, 274.236 252.768, 273.632 253.973, 273.019 255.141, 272.396 256.270, 271.764 257.361, 271.124 258.413, 270.475 259.425, 269.818 266.882, 264.904 267.966, 264.163 269.004, 263.414 269.995, 262.658 270.940, 261.895 271.837, 261.125 272.686, 260.349 273.486, 259.568 274.238, 258.781 274.939, 257.990 275.591, 257.195 276.192, 256.396 276.743, 255.594 277.242, 254.789 277.690, 253.982 278.087, 253.173 278.431, 252.362 278.724, 251.551 280.233, 246.832 280.478, 246.004 280.670, 245.177 280.808, 244.350 280.892, 243.525 280.922, 242.701 280.899, 241.880 280.419, 231.891 279.938, 221.903 279.457, 211.914 278.976, 201.926 278.495, 191.938 278.014, 181.949 277.534, 171.961 277.053, 161.972 276.572, 151.984 276.467, 149.795 276.390, 148.976 276.259, 148.161 276.075, 147.349 275.838, 146.541 273.739, 139.917 273.454, 139.130 273.116, 138.348 272.727, 137.571 272.287, 136.801 271.795, 136.037 269.189, 132.401 " />
    <path fill="#FFFFFF" stroke="#FFFFFF" stroke-width="13.0" stroke-linecap="round" stroke-linejoin="round" d=" M 266.251, 137.598 266.163, 137.844 265.845, 138.591 265.479, 139.336 265.066, 140.080 264.606, 140.822 264.098, 141.562 263.544, 142.298 262.943, 143.031 262.297, 143.761 261.604, 144.486 260.866, 145.206 260.084, 145.921 259.257, 146.631 258.386, 147.334 257.472, 148.031 256.515, 148.721 255.516, 149.404 254.475, 150.080 253.393, 150.747 252.271, 151.405 251.110, 152.055 249.909, 152.696 248.670, 153.326 247.394, 153.947 246.081, 154.558 244.732, 155.157 243.348, 155.745 241.929, 156.322 240.477, 156.887 238.993, 157.440 237.477, 157.981 235.930, 158.508 234.354, 159.022 232.748, 159.523 231.115, 160.010 229.455, 160.483 227.769, 160.942 226.058, 161.386 224.323, 161.815 222.565, 162.229 220.786, 162.627 218.986, 163.010 217.166, 163.377 215.328, 163.728 213.472, 164.062 211.600, 164.381 209.713, 164.682 207.812, 164.966 205.898, 165.234 203.973, 165.484 202.036, 165.717 200.091, 165.932 198.137, 166.130 196.176, 166.309 194.209, 166.471 192.238, 166.615 190.263, 166.741 188.286, 166.849 186.308, 166.939 184.329, 167.010 182.352, 167.063 180.378, 167.098 178.407, 167.115 176.441, 167.113 174.481, 167.093 172.528, 167.054 170.584, 166.997 168.649, 166.922 166.725, 166.828 164.813, 166.717 162.914, 166.587 161.029, 166.439 159.159, 166.274 157.306, 166.090 155.470, 165.889 153.653, 165.670 151.856, 165.433 150.079, 165.180 148.325, 164.909 146.593, 164.621 144.885, 164.316 143.203, 163.995 141.546, 163.657 139.917, 163.302 138.316, 162.932 136.743, 162.546 135.201, 162.144 133.689, 161.727 132.209, 161.295 130.762, 160.848 129.348, 160.386 127.969, 159.911 126.625, 159.421 125.317, 158.917 124.046, 158.400 122.812, 157.870 121.617, 157.327 120.461, 156.771 119.344, 156.204 118.268, 155.625 117.233, 155.034 116.240, 154.432 115.289, 153.820 114.381, 153.197 113.516, 152.564 112.695, 151.921 111.919, 151.270 111.188, 150.609 110.501, 149.940 109.861, 149.264 109.267, 148.579 108.719, 147.887 108.218, 147.189 107.764, 146.484 107.358, 145.773 107.197, 145.452 " />
    <path fill="#FFFFFF" stroke="#FFFFFF" stroke-width="13.0" stroke-linecap="round" stroke-linejoin="round" d=" M 185.219, 81.239 181.875, 81.404 178.537, 81.624 175.213, 81.900 171.908, 82.231 168.630, 82.617 168.276, 82.663 164.955, 83.113 161.675, 83.616 158.442, 84.173 155.262, 84.781 152.143, 85.440 149.090, 86.148 146.110, 86.904 143.208, 87.707 140.391, 88.554 137.664, 89.444 135.032, 90.376 132.501, 91.347 131.400, 91.791 128.923, 92.822 126.559, 93.888 124.312, 94.988 122.189, 96.120 120.192, 97.282 118.955, 98.029 117.052, 99.241 115.287, 100.479 113.662, 101.739 112.449, 102.729 110.942, 104.032 109.584, 105.353 108.468, 106.542 107.245, 107.899 106.178, 109.269 105.193, 110.632 104.274, 112.031 103.456, 113.525 102.692, 114.946 102.095, 116.372 101.456, 117.985 101.023, 119.425 100.582, 121.113 100.318, 122.560 100.085, 124.296 99.992, 125.745 99.970, 127.499 100.050, 128.943 100.240, 130.687 100.492, 132.119 100.891, 133.824 101.313, 135.238 101.914, 136.875 102.503, 138.264 103.293, 139.806 103.637, 140.428 104.045, 141.166 105.011, 142.587 105.917, 143.912 106.986, 145.213 107.197, 145.452 108.096, 146.473 109.308, 147.731 110.674, 148.961 111.897, 150.035 113.392, 151.216 115.035, 152.364 116.334, 153.230 118.089, 154.324 119.982, 155.382 122.008, 156.401 123.306, 157.024 125.420, 157.984 127.657, 158.901 130.012, 159.776 132.481, 160.604 135.059, 161.386 136.191, 161.721 138.815, 162.439 141.535, 163.107 144.346, 163.725 147.241, 164.292 150.216, 164.805 153.263, 165.265 156.378, 165.670 159.553, 166.020 162.782, 166.313 166.059, 166.550 169.377, 166.729 172.730, 166.851 173.077, 166.863 176.380, 166.925 179.703, 166.930 183.040, 166.879 186.384, 166.771 189.728, 166.607 193.066, 166.386 196.390, 166.110 199.695, 165.779 202.973, 165.393 203.327, 165.347 206.648, 164.898 209.928, 164.394 213.161, 163.838 216.341, 163.229 219.460, 162.570 222.513, 161.862 225.493, 161.106 228.395, 160.304 231.212, 159.456 233.939, 158.566 236.571, 157.635 239.102, 156.664 240.203, 156.219 242.680, 155.189 245.044, 154.123 247.291, 153.022 249.414, 151.890 251.411, 150.729 252.648, 149.981 254.551, 148.769 256.316, 147.532 257.941, 146.271 259.154, 145.281 260.661, 143.978 262.019, 142.657 263.135, 141.468 264.358, 140.111 265.425, 138.741 266.251, 137.598 266.410, 137.378 267.329, 135.979 268.147, 134.485 268.911, 133.064 269.189, 132.401 269.508, 131.638 270.147, 130.026 270.580, 128.586 271.021, 126.898 271.285, 125.450 271.518, 123.714 271.611, 122.265 271.633, 120.511 271.553, 119.067 271.363, 117.323 271.111, 115.891 270.712, 114.186 270.290, 112.773 269.689, 111.136 269.100, 109.746 268.310, 108.204 267.558, 106.844 266.592, 105.423 265.686, 104.099 264.617, 102.798 263.507, 101.538 262.295, 100.279 260.929, 99.049 259.706, 97.976 258.211, 96.795 256.568, 95.646 255.269, 94.780 253.514, 93.686 251.621, 92.628 249.595, 91.609 248.297, 90.986 246.183, 90.027 243.946, 89.109 241.591, 88.235 239.122, 87.406 236.544, 86.624 235.412, 86.289 232.788, 85.572 230.068, 84.903 227.257, 84.285 224.362, 83.719 221.387, 83.205 218.340, 82.745 215.225, 82.340 212.050, 81.990 208.821, 81.697 205.544, 81.460 202.226, 81.281 198.873, 81.160 198.526, 81.148 195.223, 81.086 191.900, 81.080 188.563, 81.131 185.219, 81.239 " />
    <path fill="#FFFFFF" stroke="#FFFFFF" stroke-width="13.0" stroke-linecap="round" stroke-linejoin="round" d=" M 132.762, 123.429 132.659, 123.303 132.063, 122.434 " />
    <path fill="#FFFFFF" stroke="#FFFFFF" stroke-width="13.0" stroke-linecap="round" stroke-linejoin="round" d=" M 134.246, 124.635 133.834, 124.347 133.049, 123.727 132.975, 123.669 132.974, 123.668 132.929, 123.632 132.889, 123.600 132.847, 123.568 132.825, 123.551 132.819, 123.545 132.779, 123.514 " />
    <path fill="#FFFFFF" stroke="#FFFFFF" stroke-width="13.0" stroke-linecap="round" stroke-linejoin="round" d=" M 137.178, 126.277 136.375, 125.873 134.983, 125.095 134.246, 124.635 133.693, 124.290 " />
    <path fill="#FFFFFF" stroke="#FFFFFF" stroke-width="13.0" stroke-linecap="round" stroke-linejoin="round" d=" M 259.154, 145.281 257.501, 146.564 255.704, 147.824 253.767, 149.057 251.695, 150.263 249.491, 151.438 247.160, 152.580 244.706, 153.686 242.135, 154.756 239.451, 155.785 236.660, 156.773 233.768, 157.717 230.781, 158.615 227.704, 159.466 224.544, 160.268 221.306, 161.019 217.999, 161.718 214.627, 162.363 211.199, 162.953 207.720, 163.487 204.199, 163.964 200.641, 164.382 197.055, 164.741 193.447, 165.041 189.824, 165.280 186.195, 165.459 182.566, 165.576 178.944, 165.631 175.338, 165.625 171.753, 165.558 168.198, 165.429 164.680, 165.239 161.205, 164.988 157.781, 164.677 154.414, 164.306 151.111, 163.877 147.879, 163.389 144.725, 162.844 141.655, 162.244 138.674, 161.588 135.790, 160.879 133.007, 160.119 130.332, 159.307 127.770, 158.447 125.325, 157.540 123.003, 156.587 120.809, 155.591 118.747, 154.554 116.821, 153.478 115.035, 152.364 " />
    <path fill="#FFFFFF" stroke="#FFFFFF" stroke-width="13.0" stroke-linecap="round" stroke-linejoin="round" d=" M 144.752, 129.096 143.630, 128.755 141.730, 128.117 139.916, 127.444 138.195, 126.738 137.316, 126.339 137.308, 126.335 137.297, 126.330 137.178, 126.277 136.567, 125.999 " />
    <path fill="#FFFFFF" stroke="#FFFFFF" stroke-width="13.0" stroke-linecap="round" stroke-linejoin="round" d=" M 173.690, 133.156 171.302, 133.069 168.621, 132.924 165.972, 132.733 163.363, 132.496 160.797, 132.213 158.280, 131.886 155.817, 131.514 153.413, 131.099 151.073, 130.641 148.801, 130.142 146.603, 129.602 144.752, 129.096 144.482, 129.022 " />
    <path fill="#FFFFFF" stroke="#FFFFFF" stroke-width="13.0" stroke-linecap="round" stroke-linejoin="round" d=" M 199.093, 131.906 199.021, 131.914 196.304, 132.233 193.494, 132.515 190.666, 132.750 187.827, 132.937 184.983, 133.077 182.139, 133.169 179.300, 133.213 176.474, 133.208 173.690, 133.156 173.665, 133.155 " />
    <path fill="#FFFFFF" stroke="#FFFFFF" stroke-width="13.0" stroke-linecap="round" stroke-linejoin="round" d=" M 227.651, 124.935 227.253, 125.087 225.606, 125.719 223.479, 126.472 221.275, 127.191 218.998, 127.876 216.653, 128.525 214.245, 129.136 211.777, 129.708 209.256, 130.241 206.687, 130.732 204.074, 131.182 201.423, 131.589 199.021, 131.914 " />
    <path fill="#FFFFFF" stroke="#FFFFFF" stroke-width="13.0" stroke-linecap="round" stroke-linejoin="round" d=" M 235.178, 121.153 234.447, 121.579 234.306, 121.661 234.294, 121.668 234.287, 121.671 233.641, 122.047 232.006, 122.919 230.277, 123.766 228.457, 124.587 227.253, 125.087 " />
    <path fill="#FFFFFF" stroke="#FFFFFF" stroke-width="13.0" stroke-linecap="round" stroke-linejoin="round" d=" M 237.834, 119.172 237.828, 119.177 237.788, 119.208 237.169, 119.688 236.639, 120.099 235.340, 121.009 234.447, 121.579 " />
    <path fill="#FFFFFF" stroke="#FFFFFF" stroke-width="13.0" stroke-linecap="round" stroke-linejoin="round" d=" M 238.640, 118.311 238.506, 118.442 238.503, 118.445 238.467, 118.480 238.440, 118.507 238.399, 118.546 238.352, 118.592 238.345, 118.599 238.277, 118.665 237.683, 119.243 237.169, 119.688 " />
    <path fill="#FFFFFF" stroke="#FFFFFF" stroke-width="13.0" stroke-linecap="round" stroke-linejoin="round" d=" M 239.079, 117.648 238.612, 118.248 238.504, 118.388 238.502, 118.389 238.473, 118.426 238.356, 118.578 238.355, 118.578 238.350, 118.585 238.277, 118.665 " />
    <path fill="#FFFFFF" stroke="#FFFFFF" stroke-width="13.0" stroke-linecap="round" stroke-linejoin="round" d=" M 238.698, 118.092 238.504, 118.387 238.502, 118.389 " />
    <path fill="#FFFFFF" stroke="#FFFFFF" stroke-width="13.0" stroke-linecap="round" stroke-linejoin="round" d=" M 238.750, 117.767 238.473, 118.426 " />
    <path fill="#FFFFFF" stroke="#FFFFFF" stroke-width="13.0" stroke-linecap="round" stroke-linejoin="round" d=" M 238.381, 118.479 238.350, 118.585 " />
    <path fill="#FFFFFF" stroke="#FFFFFF" stroke-width="13.0" stroke-linecap="round" stroke-linejoin="round" d=" M 132.837, 123.507 132.549, 122.986 " />
    <path fill="#FFFFFF" stroke="#FFFFFF" stroke-width="13.0" stroke-linecap="round" stroke-linejoin="round" d=" M 133.049, 123.727 132.837, 123.507 132.792, 123.461 132.762, 123.429 132.687, 123.351 132.251, 122.898 " />
    <path fill="#FFFFFF" stroke="#FFFFFF" stroke-width="13.0" stroke-linecap="round" stroke-linejoin="round" d=" M 137.308, 126.335 137.662, 126.110 " />
  </g>
</svg>