<?xml version='1.0' encoding='utf-8'?>
<svg xmlns="http://www.w3.org/2000/svg" version="1.1" width="500" height="650" viewBox="0 0 500 650">
  <g>
    <path fill="none" stroke="none" transform="matrix(1 0 0 -1 250 325)" d="M-118.904 192.029L-124.242 183.573L-127.715 178.072L-128.096 177.386L-128.397 176.697L-128.619 176.005L-131.26 166.36L-131.563 165.253L-131.708 164.544L-131.771 163.833L-131.99 153.835L-132.209 143.838L-132.427 133.84L-132.646 123.842L-132.865 113.845L-133.084 103.847L-133.303 93.85L-133.522 83.852L-133.74 73.854L-133.959 63.857L-134.178 53.859L-134.397 43.862L-134.616 33.864L-134.834 23.866L-134.995 16.545L-134.976 15.832L-134.877 15.118L-134.696 14.402L-132.211 6.82101L-131.953 6.11899L-131.616 5.41699L-131.2 4.715L-130.704 4.01401L-130.129 3.314L-129.476 2.616L-128.745 1.92001L-127.937 1.22601L-127.05 0.535004L-119.012 -5.41299L-114.088 -9.05701L-113.225 -9.67401L-112.294 -10.287L-111.295 -10.896L-110.23 -11.502L-109.097 -12.103L-107.899 -12.699L-106.636 -13.29L-105.309 -13.875L-103.919 -14.455L-102.465 -15.029L-100.95 -15.596L-99.375 -16.156L-97.739 -16.709L-96.045 -17.255L-94.292 -17.792L-92.483 -18.322L-90.618 -18.843L-88.699 -19.355L-86.726 -19.858L-84.701 -20.351L-82.625 -20.835L-80.499 -21.309L-78.325 -21.772L-76.103 -22.225L-73.836 -22.667L-71.524 -23.098L-69.169 -23.518L-66.772 -23.925L-64.335 -24.321L-61.86 -24.705L-59.347 -25.077L-56.798 -25.436L-54.215 -25.782L-51.6 -26.115L-48.953 -26.435L-46.277 -26.742L-43.573 -27.035L-40.843 -27.314L-38.088 -27.579L-35.311 -27.83L-32.512 -28.067L-29.693 -28.29L-26.857 -28.498L-24.004 -28.691L-21.137 -28.87L-18.257 -29.034L-15.366 -29.183L-12.466 -29.317L-9.55901 -29.435L-6.645 -29.539L-3.728 -29.627L-0.807999 -29.7L2.112 -29.757L5.03 -29.8L7.946 -29.826L10.857 -29.838L13.762 -29.833L16.658 -29.814L19.544 -29.779L22.418 -29.728L25.279 -29.663L28.125 -29.581L30.954 -29.485L33.764 -29.373L36.553 -29.246L39.321 -29.104L42.065 -28.948L44.784 -28.776L47.475 -28.589L50.138 -28.388L52.771 -28.172L55.372 -27.941L57.94 -27.697L60.473 -27.438L62.969 -27.165L65.428 -26.879L67.847 -26.578L70.225 -26.264L72.561 -25.937L74.853 -25.597L77.1 -25.244L79.301 -24.878L81.454 -24.5L83.558 -24.11L85.611 -23.707L87.613 -23.293L89.562 -22.867L91.458 -22.431L93.298 -21.983L95.082 -21.524L96.808 -21.055L98.477 -20.576L100.086 -20.087L101.634 -19.588L103.122 -19.08L104.547 -18.563L105.91 -18.038L107.208 -17.504L108.442 -16.962L109.611 -16.412L110.714 -15.855L111.75 -15.291L112.718 -14.721L113.619 -14.144L121.91 -8.552L126.972 -5.13901L127.9 -4.48901L128.752 -3.832L129.526 -3.16901L130.222 -2.50101L130.84 -1.828L131.38 -1.14999L131.84 -0.467987L132.221 0.217987L132.523 0.907013L135.336 8.37L135.562 9.077L135.707 9.78601L135.771 10.497L135.989 20.495L136.208 30.492L136.427 40.49L136.646 50.487L136.865 60.485L137.083 70.483L137.302 80.48L137.521 90.478L137.74 100.475L137.959 110.473L138.178 120.471L138.396 130.468L138.615 140.466L138.834 150.463L138.994 157.784L138.976 158.498L138.876 159.212L136.66 168.963L136.405 170.085L136.228 170.786L135.97 171.487L135.634 172.189L130.671 180.87L127.331 186.711" />
    <path fill="none" stroke="black" stroke-width="24" stroke-linecap="round" stroke-linejoin="round" transform="matrix(1 0 0 -1 250 325)" d="M-118.904 192.029L-124.242 183.573L-127.715 178.072L-128.096 177.386L-128.397 176.697L-128.619 176.005L-131.26 166.36L-131.563 165.253L-131.708 164.544L-131.771 163.833L-131.99 153.835L-132.209 143.838L-132.427 133.84L-132.646 123.842L-132.865 113.845L-133.084 103.847L-133.303 93.85L-133.522 83.852L-133.74 73.854L-133.959 63.857L-134.178 53.859L-134.397 43.862L-134.616 33.864L-134.834 23.866L-134.995 16.545L-134.976 15.832L-134.877 15.118L-134.696 14.402L-132.211 6.82101L-131.953 6.11899L-131.616 5.41699L-131.2 4.715L-130.704 4.01401L-130.129 3.314L-129.476 2.616L-128.745 1.92001L-127.937 1.22601L-127.05 0.535004L-119.012 -5.41299L-114.088 -9.05701L-113.225 -9.67401L-112.294 -10.287L-111.295 -10.896L-110.23 -11.502L-109.097 -12.103L-107.899 -12.699L-106.636 -13.29L-105.309 -13.875L-103.919 -14.455L-102.465 -15.029L-100.95 -15.596L-99.375 -16.156L-97.739 -16.709L-96.045 -17.255L-94.292 -17.792L-92.483 -18.322L-90.618 -18.843L-88.699 -19.355L-86.726 -19.858L-84.701 -20.351L-82.625 -20.835L-80.499 -21.309L-78.325 -21.772L-76.103 -22.225L-73.836 -22.667L-71.524 -23.098L-69.169 -23.518L-66.772 -23.925L-64.335 -24.321L-61.86 -24.705L-59.347 -25.077L-56.798 -25.436L-54.215 -25.782L-51.6 -26.115L-48.953 -26.435L-46.277 -26.742L-43.573 -27.035L-40.843 -27.314L-38.088 -27.579L-35.311 -27.83L-32.512 -28.067L-29.693 -28.29L-26.857 -28.498L-24.004 -28.691L-21.137 -28.87L-18.257 -29.034L-15.366 -29.183L-12.466 -29.317L-9.55901 -29.435L-6.645 -29.539L-3.728 -29.627L-0.807999 -29.7L2.112 -29.757L5.03 -29.8L7.946 -29.826L10.857 -29.838L13.762 -29.833L16.658 -29.814L19.544 -29.779L22.418 -29.728L25.279 -29.663L28.125 -29.581L30.954 -29.485L33.764 -29.373L36.553 -29.246L39.321 -29.104L42.065 -28.948L44.784 -28.776L47.475 -28.589L50.138 -28.388L52.771 -28.172L55.372 -27.941L57.94 -27.697L60.473 -27.438L62.969 -27.165L65.428 -26.879L67.847 -26.578L70.225 -26.264L72.561 -25.937L74.853 -25.597L77.1 -25.244L79.301 -24.878L81.454 -24.5L83.558 -24.11L85.611 -23.707L87.613 -23.293L89.562 -22.867L91.458 -22.431L93.298 -21.983L95.082 -21.524L96.808 -21.055L98.477 -20.576L100.086 -20.087L101.634 -19.588L103.122 -19.08L104.547 -18.563L105.91 -18.038L107.208 -17.504L108.442 -16.962L109.611 -16.412L110.714 -15.855L111.75 -15.291L112.718 -14.721L113.619 -14.144L121.91 -8.552L126.972 -5.13901L127.9 -4.48901L128.752 -3.832L129.526 -3.16901L130.222 -2.50101L130.84 -1.828L131.38 -1.14999L131.84 -0.467987L132.221 0.217987L132.523 0.907013L135.336 8.37L135.562 9.077L135.707 9.78601L135.771 10.497L135.989 20.495L136.208 30.492L136.427 40.49L136.646 50.487L136.865 60.485L137.083 70.483L137.302 80.48L137.521 90.478L137.74 100.475L137.959 110.473L138.178 120.471L138.396 130.468L138.615 140.466L138.834 150.463L138.994 157.784L138.976 158.498L138.876 159.212L136.66 168.963L136.405 170.085L136.228 170.786L135.97 171.487L135.634 172.189L130.671 180.87L127.331 186.711" />
    <path fill="none" stroke="black" stroke-width="24" stroke-linecap="round" stroke-linejoin="round" transform="matrix(1 0 0 -1 250 325)" d="M126.54 185.817L126.52 185.589L126.389 184.948L126.184 184.31L125.906 183.674L125.555 183.042L125.131 182.413L124.634 181.788L124.064 181.168L123.422 180.552L122.708 179.941L121.923 179.336L121.067 178.737L120.141 178.143L119.145 177.556L118.079 176.977L116.945 176.404L115.744 175.839L114.475 175.281L113.139 174.732L111.738 174.192L110.272 173.66L108.743 173.138L107.15 172.625L105.495 172.122L103.78 171.63L102.004 171.147L100.17 170.676L98.752 170.331L98.277 170.215L96.329 169.766L94.324 169.328L92.265 168.902L90.154 168.488L87.99 168.087L85.776 167.698L83.513 167.322L81.203 166.959L78.845 166.609L76.443 166.272L73.998 165.95L71.51 165.641L68.982 165.346L66.415 165.066L63.81 164.8L61.169 164.548L58.495 164.311L55.787 164.089L53.049 163.882L50.281 163.69L47.485 163.513L44.663 163.352L41.817 163.206L38.948 163.076L36.059 162.961L33.15 162.862L30.223 162.778L27.281 162.71L24.326 162.659L21.358 162.622L18.379 162.602L15.393 162.598L12.399 162.61L9.401 162.637L6.399 162.681L3.396 162.74L0.393997 162.815L-2.606 162.905L-5.60201 163.012L-8.592 163.134L-11.574 163.271L-14.547 163.425L-17.508 163.593L-20.457 163.777L-23.39 163.976L-26.307 164.19L-29.206 164.419L-32.084 164.662L-34.94 164.921L-37.773 165.193L-40.581 165.481L-43.361 165.782L-46.113 166.097L-48.835 166.426L-51.524 166.769L-54.18 167.125L-56.801 167.494L-59.385 167.876L-61.931 168.271L-64.437 168.678L-66.902 169.097L-69.323 169.529L-71.701 169.972L-74.032 170.426L-76.317 170.892L-78.553 171.369L-80.739 171.856L-82.874 172.353L-84.956 172.861L-86.985 173.378L-88.959 173.905L-90.877 174.44L-91.612 174.655L-92.737 174.985L-94.539 175.538L-96.282 176.099L-97.964 176.667L-99.584 177.243L-101.142 177.827L-102.636 178.416L-104.066 179.013L-105.431 179.615L-106.73 180.223L-107.962 180.836L-109.126 181.454L-110.222 182.076L-111.249 182.703L-112.207 183.333L-113.094 183.967L-113.911 184.604L-114.657 185.244L-115.331 185.885L-115.933 186.529L-116.462 187.174L-116.919 187.82L-117.303 188.467L-117.614 189.114L-117.851 189.761L-118.015 190.408L-118.103 191.039" />
    <path fill="none" stroke="black" stroke-width="24" stroke-linecap="round" stroke-linejoin="round" transform="matrix(1 0 0 -1 250 325)" d="M98.752 170.331L99.61 170.589L101.873 171.31L104.559 172.208L107.042 173.135L109.319 174.089L111.631 175.172L113.74 176.173L115.629 177.198L117.871 178.606L119.568 179.673L121.033 180.761L123.147 182.471L124.398 183.596L126.316 185.563L126.54 185.817L127.331 186.711L127.341 186.722L129.031 188.917L129.818 190.105L131.251 192.495L132.399 195.035L132.944 196.259L133.796 198.924L134.084 200.164L134.625 202.916L134.847 205.711L134.875 206.964L134.775 209.766L134.355 212.539L134.121 213.791L133.387 216.491L132.896 217.737L131.86 220.325L130.533 222.775L129.798 223.997L128.206 226.263L127.233 227.466L125.403 229.515L124.202 230.693L122.165 232.495L120.749 233.645L119.1 234.786L116.922 236.291L115.08 237.397L113.017 238.489L110.754 239.673L108.522 240.726L106.081 241.76L103.437 242.775L101.208 243.594L98.431 244.564L95.466 245.51L92.32 246.43L88.997 247.323L85.506 248.187L81.853 249.019L78.045 249.819L76.284 250.18L72.426 250.926L68.433 251.638L64.312 252.314L60.072 252.951L55.721 253.55L51.268 254.109L46.723 254.626L42.094 255.1L37.39 255.531L32.622 255.918L27.798 256.26L22.929 256.557L18.023 256.807L13.092 257.01L8.145 257.166L3.192 257.274L-1.757 257.335L-6.69299 257.348L-11.604 257.313L-16.482 257.23L-21.316 257.099L-26.097 256.921L-30.815 256.696L-35.46 256.424L-40.024 256.107L-44.497 255.744L-48.869 255.336L-53.133 254.884L-57.28 254.39L-61.301 253.853L-65.188 253.276L-66.963 252.993L-70.802 252.36L-74.488 251.688L-78.013 250.978L-81.372 250.232L-84.556 249.45L-87.559 248.635L-90.376 247.788L-92.638 247.066L-95.324 246.169L-97.808 245.241L-100.084 244.287L-102.397 243.204L-104.506 242.203L-106.395 241.178L-108.636 239.77L-110.333 238.703L-111.798 237.616L-113.912 235.905L-115.164 234.78L-117.082 232.813L-118.106 231.654L-119.796 229.459L-120.584 228.271L-122.016 225.881L-123.164 223.341L-123.71 222.118L-124.561 219.452L-124.85 218.212L-125.391 215.461L-125.613 212.665L-125.64 211.412L-125.541 208.61L-125.12 205.837L-124.887 204.586L-124.152 201.886L-123.661 200.64L-122.626 198.052L-121.299 195.601L-120.564 194.38L-118.972 192.113L-118.904 192.029L-118.103 191.039L-117.999 190.911L-116.169 188.861L-114.968 187.683L-112.931 185.881L-111.515 184.731L-109.866 183.591L-107.688 182.086L-105.846 180.979L-103.782 179.887L-101.52 178.704L-99.287 177.651L-96.847 176.616L-94.202 175.601L-91.974 174.782L-91.612 174.655" />
    <path fill="none" stroke="black" stroke-width="24" stroke-linecap="round" stroke-linejoin="round" transform="matrix(1 0 0 -1 250 325)" d="M123.147 182.471L121.656 181.365L119.929 180.279L117.969 179.215L115.779 178.176L113.365 177.164L110.732 176.181L107.883 175.229L104.827 174.31L101.567 173.425L98.111 172.577L94.467 171.766L90.641 170.996L86.64 170.267L82.474 169.58L78.15 168.938L73.677 168.341L69.065 167.791L64.321 167.289L59.457 166.835L54.482 166.431L49.405 166.078L44.238 165.776L38.99 165.526L33.671 165.328L28.294 165.182L22.868 165.09L17.405 165.051L11.915 165.065L6.409 165.133L0.899002 165.253L-4.604 165.427L-10.089 165.653L-15.546 165.931L-20.962 166.26L-26.328 166.641L-31.633 167.071L-36.865 167.551L-42.014 168.079L-47.07 168.654L-52.023 169.275L-56.863 169.941L-61.58 170.651L-66.164 171.402L-70.606 172.194L-74.898 173.025L-79.03 173.893L-82.995 174.796L-86.784 175.733L-90.389 176.702L-93.804 177.701L-97.022 178.727L-100.036 179.78L-102.84 180.856L-105.428 181.953L-107.795 183.07L-109.937 184.203L-111.849 185.351L-113.527 186.512L-114.968 187.683" />
    <path fill="none" stroke="black" stroke-width="24" stroke-linecap="round" stroke-linejoin="round" transform="matrix(1 0 0 -1 250 325)" d="M68.23 215.884L67.696 215.804L64.744 215.366L61.138 214.885L57.419 214.441L56.059 214.297L53.596 214.036L49.674 213.671L45.663 213.345L42.28 213.11L41.57 213.06L37.404 212.817L33.173 212.615L28.886 212.455L24.551 212.338L20.176 212.264L15.772 212.232L11.346 212.244L6.907 212.298L2.465 212.395L-1.97099 212.535L-6.39301 212.717L-10.792 212.941L-15.159 213.207L-19.485 213.514L-23.762 213.861L-27.98 214.248L-32.131 214.673L-32.797 214.749L-36.207 215.137L-40.2 215.638L-44.102 216.175L-46.552 216.543L-47.905 216.746L-51.6 217.352L-55.182 217.991L-58.112 218.558L-58.642 218.66" />
  </g>
</svg>