<?xml version='1.0' encoding='utf-8'?>
<svg xmlns="http://www.w3.org/2000/svg" version="1.1" width="500" height="650" viewBox="0 0 500 650">
  <g>
    <path fill="none" stroke="none" transform="matrix(1 0 0 -1 250 325)" d="M-146.151 90.494L-149.07 85.463L-149.749 84.24L-150.35 83.013L-150.872 81.785L-151.316 80.555L-151.68 79.326L-151.965 78.096L-154.056 68.317L-154.171 67.781L-154.38 66.528L-154.508 65.276L-154.554 64.026L-154.519 62.78L-154.038 52.792L-153.558 42.804L-153.077 32.815L-152.596 22.827L-152.115 12.838L-151.634 2.85001L-151.153 -7.13901L-150.673 -17.127L-150.192 -27.116L-149.711 -37.104L-149.23 -47.092L-148.749 -57.081L-148.269 -67.069L-147.796 -76.881L-147.68 -78.123L-147.482 -79.36L-147.203 -80.592L-146.842 -81.817L-146.401 -83.035L-143.429 -89.955L-142.918 -91.142L-142.328 -92.32L-141.659 -93.489L-140.912 -94.649L-140.088 -95.798L-139.187 -96.936L-138.209 -98.062L-137.155 -99.176L-136.026 -100.276L-134.823 -101.363L-133.546 -102.435L-132.195 -103.492L-130.772 -104.533L-129.278 -105.558L-127.714 -106.566L-126.079 -107.556L-124.376 -108.528L-122.606 -109.481L-113.767 -114.157L-110.706 -115.776L-109.059 -116.613L-107.354 -117.432L-105.591 -118.233L-103.772 -119.015L-101.897 -119.778L-99.968 -120.52L-97.986 -121.243L-95.951 -121.945L-93.866 -122.626L-91.732 -123.285L-89.549 -123.922L-87.32 -124.538L-85.045 -125.13L-82.726 -125.699L-80.364 -126.246L-77.961 -126.768L-75.518 -127.266L-73.036 -127.741L-70.518 -128.19L-67.964 -128.615L-65.376 -129.014L-62.756 -129.389L-60.105 -129.737L-57.425 -130.06L-54.718 -130.357L-51.985 -130.628L-49.227 -130.872L-46.447 -131.09L-43.646 -131.281L-40.826 -131.446L-37.988 -131.584L-35.134 -131.695L-32.267 -131.779L-29.387 -131.835L-26.496 -131.865L-23.596 -131.868L-20.69 -131.844L-17.778 -131.793L-14.862 -131.714L-11.944 -131.609L-9.02699 -131.477L-6.11099 -131.318L-3.198 -131.132L-0.289993 -130.919L2.61 -130.68L5.502 -130.415L8.384 -130.124L11.254 -129.806L14.109 -129.463L16.949 -129.094L19.772 -128.7L22.576 -128.28L25.359 -127.836L28.12 -127.367L30.857 -126.873L33.568 -126.356L36.252 -125.814L38.906 -125.25L41.531 -124.662L44.123 -124.052L46.682 -123.419L49.205 -122.764L51.692 -122.088L54.141 -121.39L56.55 -120.672L58.917 -119.933L61.243 -119.175L63.524 -118.397L65.76 -117.6L67.949 -116.784L70.09 -115.951L72.182 -115.1L74.223 -114.232L76.213 -113.348L78.15 -112.448L80.032 -111.532L81.859 -110.602L83.63 -109.657L85.343 -108.699L86.998 -107.728L88.594 -106.744L90.129 -105.748L98.478 -100.244L101.437 -98.294L103.081 -97.17L104.656 -96.035L106.16 -94.888L107.592 -93.73L108.953 -92.563L110.241 -91.386L111.454 -90.201L112.594 -89.008L113.658 -87.809L114.646 -86.602L115.558 -85.391L116.393 -84.174L117.151 -82.953L117.831 -81.729L118.432 -80.502L118.954 -79.273L119.398 -78.043L121.687 -70.885L122.058 -69.63L122.349 -68.375L122.558 -67.122L122.686 -65.87L122.732 -64.62L122.697 -63.374L122.217 -53.386L121.736 -43.397L121.255 -33.409L120.774 -23.421L120.293 -13.432L119.812 -3.444L119.332 6.54501L118.851 16.533L118.37 26.522L117.889 36.51L117.408 46.499L116.928 56.487L116.447 66.475L115.974 76.287L115.858 77.529L115.66 78.766L115.381 79.998L115.021 81.223L111.999 90.756L111.837 91.269L111.405 92.462L110.893 93.649L110.303 94.827L109.635 95.995L108.888 97.155L104.936 102.669" />
    <path fill="none" stroke="black" stroke-width="24" stroke-linecap="round" stroke-linejoin="round" transform="matrix(1 0 0 -1 250 325)" d="M-146.151 90.494L-149.07 85.463L-149.749 84.24L-150.35 83.013L-150.872 81.785L-151.316 80.555L-151.68 79.326L-151.965 78.096L-154.056 68.317L-154.171 67.781L-154.38 66.528L-154.508 65.276L-154.554 64.026L-154.519 62.78L-154.038 52.792L-153.558 42.804L-153.077 32.815L-152.596 22.827L-152.115 12.838L-151.634 2.85001L-151.153 -7.13901L-150.673 -17.127L-150.192 -27.116L-149.711 -37.104L-149.23 -47.092L-148.749 -57.081L-148.269 -67.069L-147.796 -76.881L-147.68 -78.123L-147.482 -79.36L-147.203 -80.592L-146.842 -81.817L-146.401 -83.035L-143.429 -89.955L-142.918 -91.142L-142.328 -92.32L-141.659 -93.489L-140.912 -94.649L-140.088 -95.798L-139.187 -96.936L-138.209 -98.062L-137.155 -99.176L-136.026 -100.276L-134.823 -101.363L-133.546 -102.435L-132.195 -103.492L-130.772 -104.533L-129.278 -105.558L-127.714 -106.566L-126.079 -107.556L-124.376 -108.528L-122.606 -109.481L-113.767 -114.157L-110.706 -115.776L-109.059 -116.613L-107.354 -117.432L-105.591 -118.233L-103.772 -119.015L-101.897 -119.778L-99.968 -120.52L-97.986 -121.243L-95.951 -121.945L-93.866 -122.626L-91.732 -123.285L-89.549 -123.922L-87.32 -124.538L-85.045 -125.13L-82.726 -125.699L-80.364 -126.246L-77.961 -126.768L-75.518 -127.266L-73.036 -127.741L-70.518 -128.19L-67.964 -128.615L-65.376 -129.014L-62.756 -129.389L-60.105 -129.737L-57.425 -130.06L-54.718 -130.357L-51.985 -130.628L-49.227 -130.872L-46.447 -131.09L-43.646 -131.281L-40.826 -131.446L-37.988 -131.584L-35.134 -131.695L-32.267 -131.779L-29.387 -131.835L-26.496 -131.865L-23.596 -131.868L-20.69 -131.844L-17.778 -131.793L-14.862 -131.714L-11.944 -131.609L-9.02699 -131.477L-6.11099 -131.318L-3.198 -131.132L-0.289993 -130.919L2.61 -130.68L5.502 -130.415L8.384 -130.124L11.254 -129.806L14.109 -129.463L16.949 -129.094L19.772 -128.7L22.576 -128.28L25.359 -127.836L28.12 -127.367L30.857 -126.873L33.568 -126.356L36.252 -125.814L38.906 -125.25L41.531 -124.662L44.123 -124.052L46.682 -123.419L49.205 -122.764L51.692 -122.088L54.141 -121.39L56.55 -120.672L58.917 -119.933L61.243 -119.175L63.524 -118.397L65.76 -117.6L67.949 -116.784L70.09 -115.951L72.182 -115.1L74.223 -114.232L76.213 -113.348L78.15 -112.448L80.032 -111.532L81.859 -110.602L83.63 -109.657L85.343 -108.699L86.998 -107.728L88.594 -106.744L90.129 -105.748L98.478 -100.244L101.437 -98.294L103.081 -97.17L104.656 -96.035L106.16 -94.888L107.592 -93.73L108.953 -92.563L110.241 -91.386L111.454 -90.201L112.594 -89.008L113.658 -87.809L114.646 -86.602L115.558 -85.391L116.393 -84.174L117.151 -82.953L117.831 -81.729L118.432 -80.502L118.954 -79.273L119.398 -78.043L121.687 -70.885L122.058 -69.63L122.349 -68.375L122.558 -67.122L122.686 -65.87L122.732 -64.62L122.697 -63.374L122.217 -53.386L121.736 -43.397L121.255 -33.409L120.774 -23.421L120.293 -13.432L119.812 -3.444L119.332 6.54501L118.851 16.533L118.37 26.522L117.889 36.51L117.408 46.499L116.928 56.487L116.447 66.475L115.974 76.287L115.858 77.529L115.66 78.766L115.381 79.998L115.021 81.223L111.999 90.756L111.837 91.269L111.405 92.462L110.893 93.649L110.303 94.827L109.635 95.995L108.888 97.155L104.936 102.669" />
    <path fill="none" stroke="black" stroke-width="24" stroke-linecap="round" stroke-linejoin="round" transform="matrix(1 0 0 -1 250 325)" d="M100.481 94.786L100.347 94.414L99.865 93.281L99.311 92.15L98.684 91.021L97.986 89.896L97.216 88.775L96.375 87.658L95.464 86.546L94.483 85.44L93.433 84.34L92.314 83.248L91.127 82.163L89.873 81.087L88.552 80.02L87.166 78.963L85.714 77.916L84.199 76.88L82.621 75.856L80.98 74.844L79.278 73.845L77.516 72.86L75.695 71.888L73.816 70.932L71.881 69.99L69.889 69.064L67.843 68.155L65.744 67.263L63.593 66.388L61.391 65.531L59.14 64.692L56.84 63.873L54.494 63.073L52.103 62.293L49.668 61.533L47.191 60.794L44.673 60.077L42.116 59.382L39.521 58.708L36.89 58.057L34.224 57.43L31.525 56.825L28.795 56.245L26.035 55.688L23.247 55.156L20.433 54.648L17.594 54.166L14.732 53.709L11.848 53.278L8.946 52.872L6.02499 52.493L3.088 52.14L0.138 51.813L-2.826 51.514L-5.8 51.241L-8.783 50.995L-11.773 50.777L-14.768 50.585L-17.767 50.422L-20.767 50.286L-23.767 50.178L-26.766 50.097L-29.76 50.044L-32.749 50.019L-35.731 50.022L-38.704 50.053L-41.665 50.111L-44.614 50.198L-47.549 50.312L-50.467 50.453L-53.367 50.623L-56.248 50.82L-59.107 51.044L-61.942 51.295L-64.753 51.573L-67.537 51.879L-70.293 52.211L-73.019 52.569L-75.713 52.954L-78.374 53.365L-81.001 53.802L-83.59 54.264L-86.142 54.751L-88.655 55.264L-91.126 55.801L-93.555 56.363L-95.94 56.948L-98.279 57.558L-100.572 58.19L-102.816 58.846L-105.011 59.524L-107.155 60.224L-109.247 60.946L-111.285 61.689L-113.269 62.452L-115.197 63.237L-117.068 64.041L-118.881 64.864L-120.634 65.707L-122.328 66.567L-123.96 67.446L-125.529 68.342L-127.036 69.255L-128.478 70.184L-129.856 71.128L-131.167 72.088L-132.412 73.063L-133.589 74.051L-134.699 75.053L-135.739 76.067L-136.711 77.094L-137.612 78.132L-138.443 79.181L-139.203 80.24L-139.891 81.309L-140.507 82.387L-140.751 82.874" />
    <path fill="none" stroke="black" stroke-width="24" stroke-linecap="round" stroke-linejoin="round" transform="matrix(1 0 0 -1 250 325)" d="M-22.418 180.264L-27.49 180.014L-32.552 179.68L-37.594 179.261L-42.606 178.759L-47.578 178.174L-48.114 178.104L-53.151 177.422L-58.126 176.659L-63.03 175.815L-67.852 174.892L-72.583 173.893L-77.213 172.819L-81.733 171.672L-86.134 170.455L-90.407 169.17L-94.544 167.82L-98.535 166.407L-102.373 164.934L-104.043 164.26L-107.801 162.697L-111.386 161.08L-114.793 159.411L-118.014 157.694L-121.042 155.933L-122.918 154.799L-125.804 152.961L-128.482 151.084L-130.946 149.172L-132.786 147.671L-135.072 145.695L-137.13 143.691L-138.823 141.888L-140.679 139.829L-142.296 137.751L-143.791 135.684L-145.185 133.563L-146.425 131.297L-147.584 129.141L-148.49 126.979L-149.459 124.533L-150.116 122.349L-150.784 119.789L-151.185 117.594L-151.538 114.961L-151.679 112.764L-151.712 110.103L-151.591 107.913L-151.303 105.268L-150.92 103.096L-150.316 100.51L-149.675 98.366L-148.764 95.883L-147.87 93.776L-146.672 91.437L-146.151 90.494L-145.532 89.375L-144.067 87.219L-142.692 85.211L-141.072 83.238L-140.751 82.874L-139.388 81.326L-137.55 79.418L-135.477 77.553L-133.623 75.924L-131.355 74.133L-128.864 72.391L-126.893 71.077L-124.231 69.418L-121.361 67.814L-118.288 66.268L-116.319 65.323L-113.113 63.868L-109.72 62.476L-106.148 61.15L-102.403 59.893L-98.494 58.708L-96.777 58.2L-92.797 57.111L-88.672 56.098L-84.409 55.16L-80.017 54.301L-75.506 53.522L-70.884 52.824L-66.16 52.21L-61.345 51.68L-56.447 51.235L-51.477 50.876L-46.444 50.604L-41.36 50.42L-40.833 50.402L-35.824 50.307L-30.784 50.299L-25.723 50.377L-20.651 50.541L-15.579 50.79L-10.517 51.124L-5.47501 51.543L-0.462997 52.045L4.509 52.63L5.04601 52.7L10.082 53.382L15.058 54.146L19.961 54.99L24.783 55.912L29.514 56.912L34.144 57.986L38.665 59.133L43.066 60.35L47.338 61.635L51.475 62.985L55.466 64.398L59.304 65.87L60.974 66.545L64.732 68.107L68.317 69.724L71.724 71.393L74.945 73.11L77.973 74.872L79.849 76.005L82.735 77.844L85.413 79.721L87.877 81.632L89.718 83.133L92.003 85.11L94.061 87.113L95.754 88.916L97.61 90.975L99.228 93.053L100.481 94.786L100.723 95.12L102.116 97.241L103.357 99.507L104.515 101.663L104.936 102.669L105.421 103.826L106.39 106.271L107.047 108.455L107.715 111.015L108.116 113.211L108.47 115.843L108.611 118.041L108.644 120.702L108.523 122.891L108.234 125.537L107.852 127.708L107.247 130.294L106.606 132.438L105.696 134.921L104.802 137.029L103.603 139.367L102.464 141.429L100.998 143.585L99.623 145.594L98.003 147.567L96.319 149.478L94.481 151.386L92.409 153.252L90.554 154.88L88.286 156.671L85.795 158.413L83.824 159.727L81.163 161.386L78.292 162.991L75.219 164.536L73.25 165.481L70.044 166.936L66.651 168.328L63.079 169.654L59.335 170.911L55.425 172.097L53.708 172.605L49.728 173.693L45.603 174.707L41.34 175.644L36.949 176.503L32.437 177.283L27.815 177.98L23.092 178.595L18.276 179.125L13.378 179.57L8.408 179.928L3.37601 180.2L-1.709 180.385L-2.23599 180.403L-7.245 180.497L-12.285 180.505L-17.346 180.427L-22.418 180.264" />
    <path fill="none" stroke="black" stroke-width="24" stroke-linecap="round" stroke-linejoin="round" transform="matrix(1 0 0 -1 250 325)" d="M-101.978 116.276L-102.134 116.466L-103.037 117.786" />
    <path fill="none" stroke="black" stroke-width="24" stroke-linecap="round" stroke-linejoin="round" transform="matrix(1 0 0 -1 250 325)" d="M-99.727 114.447L-100.352 114.884L-101.542 115.824L-101.655 115.913L-101.656 115.914L-101.725 115.968L-101.786 116.016L-101.848 116.065L-101.881 116.092L-101.891 116.099L-101.952 116.147" />
    <path fill="none" stroke="black" stroke-width="24" stroke-linecap="round" stroke-linejoin="round" transform="matrix(1 0 0 -1 250 325)" d="M-95.279 111.957L-96.498 112.57L-98.609 113.75L-99.727 114.447L-100.566 114.97" />
    <path fill="none" stroke="black" stroke-width="24" stroke-linecap="round" stroke-linejoin="round" transform="matrix(1 0 0 -1 250 325)" d="M89.718 83.133L87.21 81.188L84.484 79.278L81.547 77.406L78.404 75.578L75.061 73.796L71.526 72.064L67.804 70.385L63.904 68.764L59.834 67.202L55.602 65.704L51.215 64.273L46.684 62.91L42.018 61.619L37.224 60.403L32.315 59.264L27.298 58.205L22.184 57.226L16.985 56.331L11.709 55.522L6.368 54.799L0.972 54.164L-4.467 53.619L-9.939 53.165L-15.433 52.802L-20.938 52.531L-26.442 52.354L-31.934 52.269L-37.404 52.278L-42.841 52.38L-48.232 52.576L-53.569 52.864L-58.839 53.244L-64.033 53.716L-69.139 54.279L-74.148 54.93L-79.049 55.67L-83.833 56.496L-88.49 57.407L-93.01 58.401L-97.385 59.476L-101.605 60.63L-105.663 61.861L-109.549 63.165L-113.257 64.541L-116.778 65.986L-120.106 67.496L-123.234 69.07L-126.155 70.702L-128.864 72.391" />
    <path fill="none" stroke="black" stroke-width="24" stroke-linecap="round" stroke-linejoin="round" transform="matrix(1 0 0 -1 250 325)" d="M-83.793 107.682L-85.494 108.198L-88.377 109.165L-91.127 110.186L-93.738 111.257L-95.071 111.862L-95.083 111.868L-95.1 111.876L-95.279 111.957L-96.206 112.378" />
    <path fill="none" stroke="black" stroke-width="24" stroke-linecap="round" stroke-linejoin="round" transform="matrix(1 0 0 -1 250 325)" d="M-39.904 101.524L-43.525 101.655L-47.592 101.875L-51.609 102.165L-55.567 102.524L-59.459 102.953L-63.276 103.449L-67.011 104.013L-70.657 104.643L-74.206 105.337L-77.651 106.095L-80.985 106.914L-83.793 107.682L-84.202 107.794" />
    <path fill="none" stroke="black" stroke-width="24" stroke-linecap="round" stroke-linejoin="round" transform="matrix(1 0 0 -1 250 325)" d="M-1.37601 103.42L-1.485 103.407L-5.605 102.923L-9.868 102.495L-14.157 102.139L-18.462 101.855L-22.776 101.643L-27.09 101.504L-31.395 101.437L-35.682 101.444L-39.904 101.524L-39.942 101.525" />
    <path fill="none" stroke="black" stroke-width="24" stroke-linecap="round" stroke-linejoin="round" transform="matrix(1 0 0 -1 250 325)" d="M41.938 113.993L41.334 113.761L38.836 112.803L35.61 111.661L32.267 110.57L28.814 109.531L25.257 108.548L21.604 107.621L17.862 106.753L14.039 105.945L10.142 105.199L6.179 104.517L2.158 103.9L-1.485 103.407" />
    <path fill="none" stroke="black" stroke-width="24" stroke-linecap="round" stroke-linejoin="round" transform="matrix(1 0 0 -1 250 325)" d="M53.353 119.728L52.244 119.083L52.03 118.958L52.012 118.947L52.002 118.942L51.022 118.371L48.543 117.05L45.92 115.765L43.16 114.52L41.334 113.761" />
    <path fill="none" stroke="black" stroke-width="24" stroke-linecap="round" stroke-linejoin="round" transform="matrix(1 0 0 -1 250 325)" d="M57.381 122.732L57.372 122.725L57.311 122.678L56.373 121.95L55.569 121.326L53.6 119.946L52.244 119.083" />
    <path fill="none" stroke="black" stroke-width="24" stroke-linecap="round" stroke-linejoin="round" transform="matrix(1 0 0 -1 250 325)" d="M58.605 124.038L58.401 123.839L58.396 123.835L58.342 123.782L58.301 123.742L58.239 123.682L58.167 123.612L58.157 123.602L58.054 123.501L57.153 122.625L56.373 121.95" />
    <path fill="none" stroke="black" stroke-width="24" stroke-linecap="round" stroke-linejoin="round" transform="matrix(1 0 0 -1 250 325)" d="M59.27 125.044L58.562 124.134L58.397 123.922L58.395 123.92L58.351 123.863L58.173 123.633L58.172 123.633L58.164 123.623L58.054 123.501" />
    <path fill="none" stroke="black" stroke-width="24" stroke-linecap="round" stroke-linejoin="round" transform="matrix(1 0 0 -1 250 325)" d="M58.691 124.37L58.398 123.923L58.395 123.92" />
    <path fill="none" stroke="black" stroke-width="24" stroke-linecap="round" stroke-linejoin="round" transform="matrix(1 0 0 -1 250 325)" d="M58.77 124.863L58.351 123.863" />
    <path fill="none" stroke="black" stroke-width="24" stroke-linecap="round" stroke-linejoin="round" transform="matrix(1 0 0 -1 250 325)" d="M58.212 123.783L58.164 123.623" />
    <path fill="none" stroke="black" stroke-width="24" stroke-linecap="round" stroke-linejoin="round" transform="matrix(1 0 0 -1 250 325)" d="M51.169 119.371L52.012 118.947" />
    <path fill="none" stroke="black" stroke-width="24" stroke-linecap="round" stroke-linejoin="round" transform="matrix(1 0 0 -1 250 325)" d="M-101.864 116.158L-102.3 116.948" />
    <path fill="none" stroke="black" stroke-width="24" stroke-linecap="round" stroke-linejoin="round" transform="matrix(1 0 0 -1 250 325)" d="M-101.542 115.824L-101.864 116.158L-101.932 116.228L-101.978 116.276L-102.092 116.394L-102.753 117.081" />
  </g>
</svg>