<?xml version='1.0' encoding='utf-8'?>
<svg xmlns="http://www.w3.org/2000/svg" version="1.1" width="500" height="650" viewBox="0 0 500 650">
  <g>
    <path fill="none" stroke="none" transform="matrix(1 0 0 -1 250 325)" d="M-117.411 204.669L-122.767 196.224L-126.712 190.005L-127.088 189.41L-127.385 188.81L-127.602 188.208L-130.283 178.574L-130.608 177.406L-130.748 176.788L-130.807 176.168L-131.082 166.172L-131.356 156.175L-131.631 146.179L-131.905 136.183L-132.18 126.187L-132.455 116.191L-132.729 106.194L-133.004 96.198L-133.279 86.202L-133.553 76.206L-133.828 66.209L-134.102 56.213L-134.377 46.217L-134.652 36.221L-134.876 28.058L-134.853 27.435L-134.749 26.81L-134.563 26.184L-132.122 18.541L-131.86 17.926L-131.519 17.311L-131.098 16.695L-130.598 16.079L-130.019 15.464L-129.362 14.849L-128.627 14.235L-120.67 8.17801L-115.553 4.28201L-114.825 3.733L-114.027 3.186L-113.16 2.64099L-112.225 2.099L-111.223 1.55899L-110.153 1.021L-109.018 0.488007L-107.816 -0.0419922L-106.55 -0.569L-105.219 -1.09L-103.825 -1.608L-102.369 -2.12L-100.851 -2.62701L-99.272 -3.129L-97.633 -3.625L-95.935 -4.11499L-94.18 -4.59799L-92.368 -5.07501L-90.5 -5.54501L-88.578 -6.00699L-86.603 -6.46201L-84.575 -6.909L-82.496 -7.34799L-80.368 -7.77899L-78.191 -8.20099L-75.967 -8.61401L-73.698 -9.01801L-71.384 -9.41299L-69.027 -9.798L-66.628 -10.173L-64.19 -10.539L-61.712 -10.893L-59.198 -11.238L-56.647 -11.572L-54.063 -11.895L-51.446 -12.207L-48.798 -12.507L-46.121 -12.796L-43.416 -13.074L-40.685 -13.339L-37.929 -13.593L-35.15 -13.835L-32.351 -14.064L-29.531 -14.281L-26.694 -14.485L-23.841 -14.677L-20.974 -14.856L-18.094 -15.022L-15.203 -15.175L-12.303 -15.315L-9.395 -15.442L-6.48199 -15.556L-3.565 -15.656L-0.645004 -15.743L2.274 -15.817L5.19299 -15.877L8.108 -15.924L11.018 -15.957L13.922 -15.977L16.817 -15.983L19.702 -15.976L22.575 -15.955L25.435 -15.92L28.279 -15.872L31.107 -15.811L33.915 -15.736L36.703 -15.647L39.469 -15.546L42.212 -15.431L44.928 -15.302L47.618 -15.161L50.279 -15.007L52.91 -14.839L55.509 -14.659L58.074 -14.466L60.605 -14.26L63.099 -14.042L65.555 -13.812L67.971 -13.569L70.347 -13.314L72.68 -13.047L74.97 -12.769L77.214 -12.478L79.412 -12.177L81.561 -11.864L83.662 -11.54L85.713 -11.205L87.711 -10.86L89.657 -10.504L91.549 -10.137L93.386 -9.76099L95.166 -9.375L96.89 -8.979L98.554 -8.57401L100.16 -8.16L101.705 -7.737L103.189 -7.306L104.611 -6.866L105.969 -6.418L107.264 -5.96301L108.494 -5.49899L109.659 -5.02899L110.758 -4.552L111.79 -4.06799L112.755 -3.577L113.652 -3.08099L114.48 -2.578L115.24 -2.07101L123.517 3.54099L128.838 7.14801L129.607 7.72101L130.299 8.298L130.913 8.88101L131.448 9.46799L131.904 10.06L132.28 10.656L132.577 11.255L135.434 18.753L135.656 19.367L135.796 19.985L135.855 20.606L136.129 30.602L136.404 40.598L136.679 50.594L136.953 60.59L137.228 70.587L137.503 80.583L137.777 90.579L138.052 100.575L138.326 110.572L138.601 120.568L138.876 130.564L139.15 140.56L139.425 150.557L139.7 160.553L139.924 168.716L139.901 169.339L139.797 169.963L137.649 179.73L137.389 180.914L137.207 181.527L136.945 182.142L136.604 182.757L131.719 191.483L128.071 198" />
    <path fill="none" stroke="black" stroke-width="24" stroke-linecap="round" stroke-linejoin="round" transform="matrix(1 0 0 -1 250 325)" d="M127.663 197.581L127.67 197.388L127.617 196.827L127.49 196.269L127.289 195.713L127.016 195.161L126.669 194.611L126.248 194.066L125.755 193.524L125.19 192.987L124.552 192.455L123.842 191.927L123.061 191.405L122.209 190.889L121.287 190.378L120.295 189.874L119.234 189.376L118.104 188.885L116.906 188.402L115.641 187.925L114.309 187.457L112.912 186.996L111.45 186.544L109.924 186.1L108.335 185.665L106.684 185.239L105.922 185.054L104.972 184.823L103.2 184.416L101.369 184.019L99.48 183.632L97.535 183.256L95.534 182.889L93.478 182.534L91.37 182.19L89.209 181.857L86.999 181.535L84.739 181.225L82.431 180.926L80.076 180.64L77.677 180.365L75.234 180.103L72.749 179.854L70.224 179.617L67.659 179.392L65.057 179.181L62.419 178.982L59.746 178.797L57.041 178.625L54.304 178.466L51.538 178.321L48.744 178.189L45.924 178.071L43.08 177.966L40.213 177.875L37.324 177.798L34.417 177.735L31.492 177.685L28.551 177.65L25.597 177.628L22.63 177.621L19.652 177.627L16.666 177.647L13.674 177.681L10.676 177.729L7.675 177.791L4.673 177.867L1.67 177.957L-1.32899 178.06L-4.325 178.177L-7.315 178.307L-10.297 178.451L-13.27 178.609L-16.232 178.78L-19.181 178.964L-22.115 179.161L-25.032 179.371L-27.931 179.594L-30.81 179.83L-33.668 180.079L-36.502 180.339L-39.31 180.613L-42.092 180.898L-44.845 181.195L-47.568 181.504L-50.259 181.825L-52.917 182.157L-55.539 182.5L-58.125 182.855L-60.673 183.22L-63.181 183.595L-65.647 183.981L-68.071 184.377L-70.45 184.783L-72.784 185.199L-75.071 185.624L-77.31 186.058L-79.498 186.5L-81.636 186.952L-83.721 187.412L-85.753 187.88L-87.729 188.355L-89.65 188.838L-91.513 189.328L-93.318 189.825L-95.064 190.329L-96.405 190.735L-96.749 190.839L-98.373 191.355L-99.934 191.877L-101.432 192.404L-102.865 192.936L-104.233 193.472L-105.536 194.013L-106.771 194.558L-107.939 195.107L-109.039 195.66L-110.07 196.215L-111.031 196.773L-111.922 197.333L-112.743 197.896L-113.492 198.46L-114.17 199.026L-114.776 199.593L-115.31 200.16L-115.771 200.728L-116.159 201.295L-116.473 201.863L-116.715 202.43L-116.883 202.995L-116.977 203.56L-116.997 204.122L-116.991 204.188" />
    <path fill="none" stroke="black" stroke-width="24" stroke-linecap="round" stroke-linejoin="round" transform="matrix(1 0 0 -1 250 325)" d="M-117.411 204.669L-122.767 196.224L-126.712 190.005L-127.088 189.41L-127.385 188.81L-127.602 188.208L-130.283 178.574L-130.608 177.406L-130.748 176.788L-130.807 176.168L-131.082 166.172L-131.356 156.175L-131.631 146.179L-131.905 136.183L-132.18 126.187L-132.455 116.191L-132.729 106.194L-133.004 96.198L-133.279 86.202L-133.553 76.206L-133.828 66.209L-134.102 56.213L-134.377 46.217L-134.652 36.221L-134.876 28.058L-134.853 27.435L-134.749 26.81L-134.563 26.184L-132.122 18.541L-131.86 17.926L-131.519 17.311L-131.098 16.695L-130.598 16.079L-130.019 15.464L-129.362 14.849L-128.627 14.235L-120.67 8.17801L-115.553 4.28201L-114.825 3.733L-114.027 3.186L-113.16 2.64099L-112.225 2.099L-111.223 1.55899L-110.153 1.021L-109.018 0.488007L-107.816 -0.0419922L-106.55 -0.569L-105.219 -1.09L-103.825 -1.608L-102.369 -2.12L-100.851 -2.62701L-99.272 -3.129L-97.633 -3.625L-95.935 -4.11499L-94.18 -4.59799L-92.368 -5.07501L-90.5 -5.54501L-88.578 -6.00699L-86.603 -6.46201L-84.575 -6.909L-82.496 -7.34799L-80.368 -7.77899L-78.191 -8.20099L-75.967 -8.61401L-73.698 -9.01801L-71.384 -9.41299L-69.027 -9.798L-66.628 -10.173L-64.19 -10.539L-61.712 -10.893L-59.198 -11.238L-56.647 -11.572L-54.063 -11.895L-51.446 -12.207L-48.798 -12.507L-46.121 -12.796L-43.416 -13.074L-40.685 -13.339L-37.929 -13.593L-35.15 -13.835L-32.351 -14.064L-29.531 -14.281L-26.694 -14.485L-23.841 -14.677L-20.974 -14.856L-18.094 -15.022L-15.203 -15.175L-12.303 -15.315L-9.395 -15.442L-6.48199 -15.556L-3.565 -15.656L-0.645004 -15.743L2.274 -15.817L5.19299 -15.877L8.108 -15.924L11.018 -15.957L13.922 -15.977L16.817 -15.983L19.702 -15.976L22.575 -15.955L25.435 -15.92L28.279 -15.872L31.107 -15.811L33.915 -15.736L36.703 -15.647L39.469 -15.546L42.212 -15.431L44.928 -15.302L47.618 -15.161L50.279 -15.007L52.91 -14.839L55.509 -14.659L58.074 -14.466L60.605 -14.26L63.099 -14.042L65.555 -13.812L67.971 -13.569L70.347 -13.314L72.68 -13.047L74.97 -12.769L77.214 -12.478L79.412 -12.177L81.561 -11.864L83.662 -11.54L85.713 -11.205L87.711 -10.86L89.657 -10.504L91.549 -10.137L93.386 -9.76099L95.166 -9.375L96.89 -8.979L98.554 -8.57401L100.16 -8.16L101.705 -7.737L103.189 -7.306L104.611 -6.866L105.969 -6.418L107.264 -5.96301L108.494 -5.49899L109.659 -5.02899L110.758 -4.552L111.79 -4.06799L112.755 -3.577L113.652 -3.08099L114.48 -2.578L115.24 -2.07101L123.517 3.54099L128.838 7.14801L129.607 7.72101L130.299 8.298L130.913 8.88101L131.448 9.46799L131.904 10.06L132.28 10.656L132.577 11.255L135.434 18.753L135.656 19.367L135.796 19.985L135.855 20.606L136.129 30.602L136.404 40.598L136.679 50.594L136.953 60.59L137.228 70.587L137.503 80.583L137.777 90.579L138.052 100.575L138.326 110.572L138.601 120.568L138.876 130.564L139.15 140.56L139.425 150.557L139.7 160.553L139.924 168.716L139.901 169.339L139.797 169.963L137.649 179.73L137.389 180.914L137.207 181.527L136.945 182.142L136.604 182.757L131.719 191.483L128.071 198" />
    <path fill="none" stroke="black" stroke-width="24" stroke-linecap="round" stroke-linejoin="round" transform="matrix(1 0 0 -1 250 325)" d="M105.922 185.054L108.196 185.806L110.466 186.621L112.524 187.459L114.365 188.32L116.771 189.464L118.428 190.364L120.713 191.809L122.17 192.746L123.392 193.701L125.539 195.443L126.541 196.431L127.663 197.581L128.071 198L128.487 198.425L130.19 200.632L130.969 201.663L132.416 204.064L132.949 205.118L134.116 207.679L134.983 210.357L135.264 211.438L135.821 214.202L136.059 217.012L136.078 218.106L135.995 220.925L135.59 223.716L135.349 224.81L134.63 227.531L133.605 230.152L133.111 231.234L131.798 233.71L130.21 236.02L129.478 237.078L127.645 239.175L126.68 240.216L124.633 242.071L123.446 243.092L122.023 244.107L119.824 245.674L118.2 246.663L115.864 247.936L114.055 248.895L112.029 249.845L109.79 250.782L107.453 251.7L105.062 252.601L102.473 253.488L99.691 254.356L96.721 255.206L93.569 256.035L90.242 256.841L88.221 257.328L84.811 258.091L81.242 258.828L77.523 259.539L73.662 260.222L69.665 260.876L65.541 261.499L61.297 262.089L56.944 262.647L52.489 263.17L47.942 263.658L43.311 264.109L38.606 264.524L33.836 264.9L29.011 265.237L24.141 265.535L19.236 265.792L14.305 266.009L9.358 266.185L4.405 266.319L-0.542999 266.412L-5.47701 266.463L-10.387 266.472L-15.263 266.438L-20.095 266.363L-24.873 266.246L-29.588 266.087L-34.231 265.888L-38.791 265.647L-43.261 265.366L-47.63 265.045L-51.89 264.685L-56.032 264.286L-60.048 263.85L-63.93 263.377L-67.671 262.869L-71.262 262.325L-74.696 261.748L-76.747 261.371L-80.1 260.747L-83.278 260.09L-86.275 259.402L-89.086 258.685L-91.704 257.94L-94.125 257.169L-96.513 256.379L-98.783 255.565L-100.84 254.726L-102.682 253.865L-105.088 252.721L-106.745 251.821L-109.029 250.376L-110.487 249.439L-111.709 248.484L-113.856 246.742L-114.857 245.755L-116.803 243.76L-118.506 241.553L-119.286 240.523L-120.733 238.121L-121.266 237.067L-122.433 234.506L-123.3 231.828L-123.58 230.747L-124.137 227.983L-124.375 225.173L-124.395 224.079L-124.311 221.26L-123.907 218.469L-123.665 217.375L-122.947 214.654L-121.922 212.033L-121.427 210.951L-120.115 208.475L-118.527 206.166L-117.794 205.108L-117.411 204.669L-116.991 204.188L-115.962 203.01L-114.996 201.969L-112.95 200.114L-111.763 199.093L-110.34 198.078L-108.14 196.512L-106.517 195.522L-104.181 194.25L-102.371 193.29L-100.345 192.34L-98.107 191.403L-96.405 190.735" />
    <path fill="none" stroke="black" stroke-width="24" stroke-linecap="round" stroke-linejoin="round" transform="matrix(1 0 0 -1 250 325)" d="M125.539 195.443L124.295 194.471L122.812 193.517L121.092 192.582L119.139 191.67L116.957 190.78L114.551 189.916L111.924 189.079L109.083 188.271L106.032 187.492L102.779 186.746L99.33 186.033L95.692 185.355L91.871 184.713L87.877 184.109L83.716 183.543L79.397 183.017L74.93 182.532L70.322 182.089L65.583 181.688L60.723 181.331L55.752 181.019L50.679 180.751L45.514 180.528L40.269 180.352L34.954 180.222L29.579 180.138L24.155 180.101L18.693 180.111L13.205 180.167L7.7 180.27L2.19099 180.42L-3.312 180.615L-8.797 180.857L-14.254 181.143L-19.671 181.474L-25.038 181.849L-30.344 182.268L-35.578 182.729L-40.729 183.231L-45.788 183.773L-50.743 184.355L-55.586 184.976L-60.306 185.633L-64.893 186.326L-69.34 187.052L-73.635 187.812L-77.772 188.603L-81.741 189.424L-85.535 190.272L-89.146 191.147L-92.567 192.046L-95.79 192.968L-98.81 193.911L-101.62 194.873L-104.214 195.852L-106.588 196.845L-108.736 197.852L-110.655 198.87L-112.34 199.897L-113.788 200.93L-114.996 201.969" />
    <path fill="none" stroke="black" stroke-width="24" stroke-linecap="round" stroke-linejoin="round" transform="matrix(1 0 0 -1 250 325)" d="M79.345 231.124L79.073 231.078L76.265 230.607L73.044 230.119L69.69 229.663L66.208 229.239L62.607 228.848L58.892 228.491L55.072 228.168L51.154 227.88L47.146 227.628L43.056 227.412L38.892 227.233L34.664 227.091L30.379 226.986L26.045 226.918L21.673 226.888L17.269 226.896L12.845 226.942L8.407 227.025L3.966 227.145L-0.470993 227.303L-4.89301 227.497L-9.29201 227.728L-13.659 227.995L-17.986 228.298L-22.263 228.635L-26.483 229.007L-30.636 229.411L-34.714 229.849L-38.709 230.318L-42.613 230.818L-46.418 231.348L-50.117 231.906L-53.701 232.492L-57.165 233.105L-60.5 233.743L-63.7 234.404L-66.663 235.067L-66.758 235.088" />
  </g>
</svg>