<?xml version='1.0' encoding='utf-8'?>
<svg xmlns="http://www.w3.org/2000/svg" version="1.1" width="500" height="650" viewBox="0 0 500 650">
  <g>
    <path fill="none" stroke="none" transform="matrix(1 0 0 -1 250 325)" d="M-127.131 -33.806L-128.205 -35.41L-129.036 -36.772L-129.789 -38.142L-130.464 -39.52L-131.061 -40.904L-131.579 -42.294L-132.019 -43.689L-134.63 -53.342L-134.69 -53.561L-135.057 -54.989L-135.343 -56.42L-135.547 -57.853L-135.671 -59.288L-135.712 -60.724L-135.693 -70.724L-135.673 -80.724L-135.654 -90.724L-135.634 -100.724L-135.615 -110.724L-135.596 -120.724L-135.576 -130.724L-135.557 -140.724L-135.538 -150.724L-135.518 -160.724L-135.499 -170.724L-135.479 -180.724L-135.46 -190.724L-135.448 -196.753L-135.408 -198.188L-135.287 -199.623L-135.084 -201.056L-134.799 -202.486L-134.434 -203.912L-133.987 -205.334L-133.46 -206.751L-130.828 -213.537L-130.233 -214.92L-129.559 -216.296L-128.806 -217.665L-127.977 -219.025L-127.07 -220.375L-126.087 -221.716L-125.027 -223.045L-123.893 -224.363L-122.684 -225.668L-121.401 -226.96L-120.044 -228.238L-118.616 -229.501L-117.116 -230.748L-115.546 -231.979L-113.905 -233.193L-112.197 -234.389L-110.421 -235.566L-108.578 -236.724L-106.67 -237.862L-104.697 -238.979L-102.662 -240.075L-93.809 -244.724L-92.011 -245.668L-90.131 -246.631L-88.197 -247.574L-86.209 -248.495L-84.17 -249.395L-82.08 -250.273L-79.94 -251.129L-77.753 -251.962L-75.518 -252.771L-73.238 -253.556L-70.914 -254.316L-68.547 -255.052L-66.139 -255.762L-63.691 -256.447L-61.205 -257.105L-58.682 -257.737L-56.124 -258.341L-53.531 -258.919L-50.907 -259.468L-48.252 -259.99L-45.567 -260.483L-42.856 -260.948L-40.118 -261.383L-37.356 -261.79L-34.572 -262.167L-31.767 -262.514L-28.943 -262.831L-26.101 -263.119L-23.244 -263.376L-20.373 -263.602L-17.489 -263.799L-14.595 -263.964L-11.692 -264.099L-8.782 -264.203L-5.867 -264.276L-2.948 -264.318L-0.0269928 -264.329L2.89301 -264.309L5.812 -264.259L8.72701 -264.177L11.637 -264.064L14.54 -263.921L17.435 -263.747L20.319 -263.542L23.19 -263.307L26.048 -263.042L28.89 -262.746L31.714 -262.42L34.519 -262.064L37.304 -261.679L40.066 -261.265L42.804 -260.821L45.516 -260.348L48.201 -259.847L50.857 -259.318L53.482 -258.761L56.075 -258.176L58.634 -257.563L61.158 -256.924L63.645 -256.259L66.094 -255.567L68.502 -254.85L70.87 -254.107L73.195 -253.339L75.476 -252.548L77.711 -251.732L79.9 -250.893L82.04 -250.031L84.131 -249.147L86.171 -248.24L88.16 -247.313L90.095 -246.365L91.976 -245.397L100.811 -240.713L102.587 -239.772L104.623 -238.67L106.597 -237.547L108.506 -236.403L110.35 -235.24L112.128 -234.057L113.838 -232.856L115.479 -231.638L117.051 -230.402L118.552 -229.15L119.982 -227.883L121.339 -226.601L122.624 -225.306L123.834 -223.997L124.97 -222.676L126.031 -221.343L127.016 -220L127.924 -218.647L128.755 -217.284L129.509 -215.913L130.184 -214.535L130.781 -213.151L133.386 -206.357L133.914 -204.938L134.362 -203.515L134.73 -202.087L135.015 -200.656L135.22 -199.223L135.343 -197.788L135.385 -196.352L135.365 -186.352L135.346 -176.352L135.327 -166.352L135.307 -156.352L135.288 -146.352L135.268 -136.352L135.249 -126.352L135.23 -116.352L135.21 -106.352L135.191 -96.352L135.171 -86.352L135.152 -76.352L135.133 -66.352L135.121 -60.324L135.081 -58.888L134.959 -57.454L134.756 -56.021L134.472 -54.591L134.106 -53.164L131.457 -43.522L131.396 -43.3L130.958 -41.906L130.442 -40.518L129.846 -39.135L129.173 -37.76L128.421 -36.392L127.591 -35.032L126.685 -33.682L126.375 -33.223" />
    <path fill="none" stroke="black" stroke-width="24" stroke-linecap="round" stroke-linejoin="round" transform="matrix(1 0 0 -1 250 325)" d="M-127.131 -33.806L-128.205 -35.41L-129.036 -36.772L-129.789 -38.142L-130.464 -39.52L-131.061 -40.904L-131.579 -42.294L-132.019 -43.689L-134.63 -53.342L-134.69 -53.561L-135.057 -54.989L-135.343 -56.42L-135.547 -57.853L-135.671 -59.288L-135.712 -60.724L-135.693 -70.724L-135.673 -80.724L-135.654 -90.724L-135.634 -100.724L-135.615 -110.724L-135.596 -120.724L-135.576 -130.724L-135.557 -140.724L-135.538 -150.724L-135.518 -160.724L-135.499 -170.724L-135.479 -180.724L-135.46 -190.724L-135.448 -196.753L-135.408 -198.188L-135.287 -199.623L-135.084 -201.056L-134.799 -202.486L-134.434 -203.912L-133.987 -205.334L-133.46 -206.751L-130.828 -213.537L-130.233 -214.92L-129.559 -216.296L-128.806 -217.665L-127.977 -219.025L-127.07 -220.375L-126.087 -221.716L-125.027 -223.045L-123.893 -224.363L-122.684 -225.668L-121.401 -226.96L-120.044 -228.238L-118.616 -229.501L-117.116 -230.748L-115.546 -231.979L-113.905 -233.193L-112.197 -234.389L-110.421 -235.566L-108.578 -236.724L-106.67 -237.862L-104.697 -238.979L-102.662 -240.075L-93.809 -244.724L-92.011 -245.668L-90.131 -246.631L-88.197 -247.574L-86.209 -248.495L-84.17 -249.395L-82.08 -250.273L-79.94 -251.129L-77.753 -251.962L-75.518 -252.771L-73.238 -253.556L-70.914 -254.316L-68.547 -255.052L-66.139 -255.762L-63.691 -256.447L-61.205 -257.105L-58.682 -257.737L-56.124 -258.341L-53.531 -258.919L-50.907 -259.468L-48.252 -259.99L-45.567 -260.483L-42.856 -260.948L-40.118 -261.383L-37.356 -261.79L-34.572 -262.167L-31.767 -262.514L-28.943 -262.831L-26.101 -263.119L-23.244 -263.376L-20.373 -263.602L-17.489 -263.799L-14.595 -263.964L-11.692 -264.099L-8.782 -264.203L-5.867 -264.276L-2.948 -264.318L-0.0269928 -264.329L2.89301 -264.309L5.812 -264.259L8.72701 -264.177L11.637 -264.064L14.54 -263.921L17.435 -263.747L20.319 -263.542L23.19 -263.307L26.048 -263.042L28.89 -262.746L31.714 -262.42L34.519 -262.064L37.304 -261.679L40.066 -261.265L42.804 -260.821L45.516 -260.348L48.201 -259.847L50.857 -259.318L53.482 -258.761L56.075 -258.176L58.634 -257.563L61.158 -256.924L63.645 -256.259L66.094 -255.567L68.502 -254.85L70.87 -254.107L73.195 -253.339L75.476 -252.548L77.711 -251.732L79.9 -250.893L82.04 -250.031L84.131 -249.147L86.171 -248.24L88.16 -247.313L90.095 -246.365L91.976 -245.397L100.811 -240.713L102.587 -239.772L104.623 -238.67L106.597 -237.547L108.506 -236.403L110.35 -235.24L112.128 -234.057L113.838 -232.856L115.479 -231.638L117.051 -230.402L118.552 -229.15L119.982 -227.883L121.339 -226.601L122.624 -225.306L123.834 -223.997L124.97 -222.676L126.031 -221.343L127.016 -220L127.924 -218.647L128.755 -217.284L129.509 -215.913L130.184 -214.535L130.781 -213.151L133.386 -206.357L133.914 -204.938L134.362 -203.515L134.73 -202.087L135.015 -200.656L135.22 -199.223L135.343 -197.788L135.385 -196.352L135.365 -186.352L135.346 -176.352L135.327 -166.352L135.307 -156.352L135.288 -146.352L135.268 -136.352L135.249 -126.352L135.23 -116.352L135.21 -106.352L135.191 -96.352L135.171 -86.352L135.152 -76.352L135.133 -66.352L135.121 -60.324L135.081 -58.888L134.959 -57.454L134.756 -56.021L134.472 -54.591L134.106 -53.164L131.457 -43.522L131.396 -43.3L130.958 -41.906L130.442 -40.518L129.846 -39.135L129.173 -37.76L128.421 -36.392L127.591 -35.032L126.685 -33.682L126.375 -33.223" />
    <path fill="none" stroke="black" stroke-width="24" stroke-linecap="round" stroke-linejoin="round" transform="matrix(1 0 0 -1 250 325)" d="M119.312 -45.402L119.054 -45.928L118.359 -47.191L117.593 -48.447L116.756 -49.695L115.848 -50.933L114.87 -52.161L113.823 -53.379L112.707 -54.586L111.523 -55.78L110.272 -56.962L108.954 -58.13L107.57 -59.284L106.121 -60.423L104.608 -61.546L103.032 -62.653L101.393 -63.743L99.693 -64.815L97.933 -65.87L96.114 -66.905L94.237 -67.921L92.303 -68.917L90.312 -69.892L88.268 -70.845L86.17 -71.777L84.019 -72.687L81.818 -73.573L79.568 -74.436L77.269 -75.275L74.924 -76.089L72.533 -76.878L70.098 -77.642L67.621 -78.38L65.103 -79.091L62.545 -79.775L59.95 -80.433L57.318 -81.062L54.652 -81.664L51.953 -82.237L49.221 -82.781L46.461 -83.297L43.671 -83.782L40.856 -84.239L38.015 -84.665L35.152 -85.061L32.267 -85.427L29.362 -85.762L26.44 -86.066L23.501 -86.339L20.548 -86.581L17.583 -86.791L14.607 -86.97L11.621 -87.118L8.629 -87.234L5.631 -87.318L2.629 -87.37L-0.373993 -87.39L-3.37801 -87.379L-6.379 -87.335L-9.377 -87.26L-12.369 -87.153L-15.355 -87.015L-18.331 -86.845L-21.296 -86.643L-24.249 -86.41L-27.187 -86.145L-30.109 -85.85L-33.013 -85.523L-35.898 -85.166L-38.761 -84.779L-41.601 -84.361L-44.416 -83.913L-47.205 -83.435L-49.965 -82.928L-52.696 -82.391L-55.395 -81.826L-58.06 -81.233L-60.691 -80.611L-63.286 -79.961L-65.843 -79.284L-68.36 -78.581L-70.836 -77.85L-73.27 -77.094L-75.66 -76.311L-78.005 -75.504L-80.303 -74.672L-82.552 -73.816L-84.752 -72.936L-86.902 -72.033L-88.999 -71.107L-91.042 -70.16L-93.031 -69.191L-94.965 -68.201L-96.841 -67.19L-98.659 -66.16L-100.418 -65.111L-102.117 -64.044L-103.754 -62.958L-105.329 -61.856L-106.841 -60.737L-108.289 -59.603L-109.671 -58.453L-110.988 -57.289L-112.238 -56.111L-113.421 -54.92L-114.536 -53.717L-115.581 -52.502L-116.558 -51.276L-117.464 -50.041L-118.3 -48.796L-119.065 -47.542L-119.758 -46.281L-119.803 -46.189" />
    <path fill="none" stroke="black" stroke-width="24" stroke-linecap="round" stroke-linejoin="round" transform="matrix(1 0 0 -1 250 325)" d="M-0.449997 54.988L-5.646 54.93L-10.831 54.771L-15.996 54.512L-21.129 54.154L-26.221 53.696L-31.261 53.14L-36.239 52.487L-41.145 51.738L-45.969 50.895L-50.701 49.959L-55.333 48.933L-59.853 47.818L-61.139 47.496L-65.636 46.269L-70.002 44.956L-74.227 43.56L-78.304 42.084L-82.224 40.53L-85.98 38.903L-89.563 37.204L-91.323 36.369L-94.795 34.568L-98.076 32.702L-101.161 30.774L-102.944 29.556L-105.877 27.536L-108.598 25.461L-111.101 23.336L-112.821 21.761L-115.137 19.556L-117.222 17.309L-118.774 15.447L-120.648 13.132L-122.28 10.782L-123.615 8.67401L-125.017 6.26999L-126.169 3.841L-127.245 1.53201L-128.151 -0.937012L-128.934 -3.38L-129.587 -5.879L-130.061 -8.414L-130.455 -10.932L-130.611 -13.515L-130.744 -16.041L-130.614 -18.566L-130.448 -21.148L-130.056 -23.665L-129.572 -26.199L-128.922 -28.696L-128.13 -31.137L-127.226 -33.603L-127.131 -33.806L-126.14 -35.909L-124.991 -38.334L-123.592 -40.734L-122.248 -42.839L-120.618 -45.183L-119.803 -46.189L-118.746 -47.493L-117.187 -49.351L-115.104 -51.592L-112.79 -53.79L-111.063 -55.359L-108.562 -57.477L-105.843 -59.544L-102.912 -61.555L-101.122 -62.769L-98.039 -64.687L-94.759 -66.543L-91.29 -68.334L-87.638 -70.055L-85.942 -70.852L-82.188 -72.469L-78.269 -74.011L-74.194 -75.475L-69.97 -76.858L-65.606 -78.158L-61.11 -79.372L-59.818 -79.69L-55.299 -80.792L-50.669 -81.804L-45.937 -82.726L-41.114 -83.555L-36.209 -84.289L-31.232 -84.927L-26.192 -85.468L-21.101 -85.911L-15.968 -86.255L-10.804 -86.499L-5.618 -86.642L-0.421997 -86.685L4.774 -86.627L9.959 -86.468L15.124 -86.209L20.257 -85.85L25.349 -85.392L30.389 -84.836L35.367 -84.183L40.273 -83.434L45.097 -82.591L49.829 -81.656L54.461 -80.63L58.981 -79.515L60.267 -79.193L64.764 -77.965L69.13 -76.653L73.355 -75.257L77.432 -73.78L81.352 -72.227L85.108 -70.599L88.691 -68.901L90.452 -68.066L93.923 -66.265L97.204 -64.398L100.289 -62.471L102.072 -61.252L105.005 -59.232L107.726 -57.157L110.23 -55.032L111.949 -53.458L114.265 -51.253L116.35 -49.005L117.902 -47.144L119.312 -45.402L119.776 -44.828L121.409 -42.479L122.743 -40.37L124.145 -37.966L125.297 -35.538L126.373 -33.229L126.375 -33.223L127.279 -30.759L128.062 -28.316L128.715 -25.817L129.189 -23.282L129.583 -20.764L129.739 -18.182L129.872 -15.656L129.742 -13.13L129.576 -10.548L129.184 -8.03101L128.7 -5.49799L128.05 -3.00101L127.258 -0.559998L126.354 1.90701L125.268 4.21301L124.119 6.638L122.72 9.03799L121.376 11.143L119.746 13.487L117.874 15.797L116.315 17.654L114.232 19.895L111.919 22.093L110.191 23.663L107.69 25.78L104.971 27.847L102.04 29.859L100.25 31.072L97.167 32.99L93.888 34.847L90.418 36.637L86.766 38.359L85.07 39.156L81.316 40.772L77.397 42.314L73.322 43.778L69.098 45.162L64.734 46.461L60.238 47.675L58.947 47.994L54.427 49.095L49.797 50.108L45.065 51.029L40.242 51.858L35.337 52.592L30.36 53.231L25.32 53.772L20.229 54.215L15.096 54.558L9.93201 54.802L4.746 54.946L-0.449997 54.988" />
    <path fill="none" stroke="black" stroke-width="24" stroke-linecap="round" stroke-linejoin="round" transform="matrix(1 0 0 -1 250 325)" d="M-79.782 -14.257L-79.783 -14.255L-79.818 -14.195L-79.85 -14.14L-79.956 -13.958L-80.051 -13.796L-80.785 -12.247" />
    <path fill="none" stroke="black" stroke-width="24" stroke-linecap="round" stroke-linejoin="round" transform="matrix(1 0 0 -1 250 325)" d="M-79.333 -14.883L-79.429 -14.765L-79.472 -14.702L-79.474 -14.699L-79.782 -14.257L-79.783 -14.256L-79.815 -14.209L-79.836 -14.18L-79.927 -14.048L-79.956 -14.006L-80.499 -13.225" />
    <path fill="none" stroke="black" stroke-width="24" stroke-linecap="round" stroke-linejoin="round" transform="matrix(1 0 0 -1 250 325)" d="M-77.807 -16.457L-78.29 -15.998L-78.319 -15.971L-78.322 -15.968L-78.344 -15.947L-78.365 -15.925L-78.369 -15.921L-79.333 -14.883L-79.474 -14.731L-79.476 -14.729L-79.558 -14.641L-79.678 -14.511L-79.731 -14.455L-79.737 -14.448L-79.758 -14.425" />
    <path fill="none" stroke="black" stroke-width="24" stroke-linecap="round" stroke-linejoin="round" transform="matrix(1 0 0 -1 250 325)" d="M-74.305 -19.174L-74.82 -18.821L-76.737 -17.363L-77.807 -16.457L-78.316 -16.026L-78.35 -15.998L-78.353 -15.995L-78.394 -15.96L-78.398 -15.957L-78.501 -15.87" />
    <path fill="none" stroke="black" stroke-width="24" stroke-linecap="round" stroke-linejoin="round" transform="matrix(1 0 0 -1 250 325)" d="M-66.269 -23.611L-67.313 -23.119L-69.864 -21.802L-72.276 -20.437L-74.305 -19.174L-74.543 -19.026" />
    <path fill="none" stroke="black" stroke-width="24" stroke-linecap="round" stroke-linejoin="round" transform="matrix(1 0 0 -1 250 325)" d="M102.072 -61.252L98.933 -63.214L95.593 -65.113L92.06 -66.946L88.341 -68.709L84.443 -70.398L80.374 -72.011L76.143 -73.543L71.757 -74.992L67.227 -76.354L62.559 -77.628L57.766 -78.81L52.855 -79.898L47.836 -80.89L42.721 -81.784L37.518 -82.578L32.24 -83.271L26.895 -83.86L21.496 -84.346L16.053 -84.726L10.576 -85.001L5.077 -85.169L-0.432999 -85.231L-5.942 -85.186L-11.441 -85.034L-16.917 -84.775L-22.36 -84.411L-27.759 -83.941L-33.103 -83.367L-38.381 -82.69L-43.582 -81.912L-48.697 -81.033L-53.714 -80.056L-58.624 -78.982L-63.417 -77.814L-68.082 -76.554L-72.612 -75.205L-76.996 -73.769L-81.226 -72.25L-85.293 -70.649L-89.189 -68.972L-92.906 -67.22L-96.437 -65.397L-99.775 -63.508L-102.912 -61.555" />
    <path fill="none" stroke="black" stroke-width="24" stroke-linecap="round" stroke-linejoin="round" transform="matrix(1 0 0 -1 250 325)" d="M-47.363 -30.104L-50.668 -29.212L-54.028 -28.211L-57.279 -27.146L-60.416 -26.019L-63.433 -24.832L-66.269 -23.611L-66.322 -23.588" />
    <path fill="none" stroke="black" stroke-width="24" stroke-linecap="round" stroke-linejoin="round" transform="matrix(1 0 0 -1 250 325)" d="M47.51 -29.686L46.437 -29.95L43.857 -30.586L40.114 -31.416L36.289 -32.172L32.39 -32.853L28.426 -33.458L24.403 -33.986L20.33 -34.435L16.214 -34.806L12.066 -35.096L7.892 -35.305L3.701 -35.433L-0.498001 -35.48L-4.69701 -35.446L-8.888 -35.33L-13.061 -35.133L-17.21 -34.855L-21.324 -34.497L-25.397 -34.06L-29.419 -33.544L-33.384 -32.95L-37.281 -32.281L-41.105 -31.536L-44.847 -30.718L-47.363 -30.104L-48.5 -29.827" />
    <path fill="none" stroke="black" stroke-width="24" stroke-linecap="round" stroke-linejoin="round" transform="matrix(1 0 0 -1 250 325)" d="M68.104 -22.086L66.373 -22.906L65.346 -23.393L62.455 -24.646L59.437 -25.842L56.299 -26.979L53.046 -28.053L49.686 -29.064L46.437 -29.95" />
    <path fill="none" stroke="black" stroke-width="24" stroke-linecap="round" stroke-linejoin="round" transform="matrix(1 0 0 -1 250 325)" d="M73.579 -18.807L73.432 -18.899L71.31 -20.225L68.897 -21.597L66.373 -22.906" />
    <path fill="none" stroke="black" stroke-width="24" stroke-linecap="round" stroke-linejoin="round" transform="matrix(1 0 0 -1 250 325)" d="M77.548 -15.639L77.53 -15.655L77.525 -15.659L77.483 -15.694L77.478 -15.699L77.447 -15.725L76.942 -16.154L75.783 -17.138L73.864 -18.601L73.432 -18.899" />
    <path fill="none" stroke="black" stroke-width="24" stroke-linecap="round" stroke-linejoin="round" transform="matrix(1 0 0 -1 250 325)" d="M78.817 -14.191L78.791 -14.219L78.674 -14.345L78.602 -14.422L78.6 -14.425L78.473 -14.562L77.496 -15.615L77.493 -15.618L77.45 -15.664L77.444 -15.67L77.418 -15.698L77.401 -15.717L76.942 -16.154" />
    <path fill="none" stroke="black" stroke-width="24" stroke-linecap="round" stroke-linejoin="round" transform="matrix(1 0 0 -1 250 325)" d="M79.57 -12.988L79.087 -13.683L79.049 -13.738L78.954 -13.875L78.935 -13.902L78.921 -13.922L78.908 -13.94L78.6 -14.384L78.598 -14.387L78.497 -14.532L78.473 -14.562" />
    <path fill="none" stroke="black" stroke-width="24" stroke-linecap="round" stroke-linejoin="round" transform="matrix(1 0 0 -1 250 325)" d="M79.867 -12.009L79.131 -13.561L79.074 -13.66L78.963 -13.85L78.936 -13.896L78.921 -13.922" />
    <path fill="none" stroke="black" stroke-width="24" stroke-linecap="round" stroke-linejoin="round" transform="matrix(1 0 0 -1 250 325)" d="M79.357 -12.775L78.963 -13.85" />
    <path fill="none" stroke="black" stroke-width="24" stroke-linecap="round" stroke-linejoin="round" transform="matrix(1 0 0 -1 250 325)" d="M78.976 -13.681L78.908 -13.94" />
    <path fill="none" stroke="black" stroke-width="24" stroke-linecap="round" stroke-linejoin="round" transform="matrix(1 0 0 -1 250 325)" d="M78.588 -14.198L78.598 -14.387" />
    <path fill="none" stroke="black" stroke-width="24" stroke-linecap="round" stroke-linejoin="round" transform="matrix(1 0 0 -1 250 325)" d="M77.327 -15.414L77.493 -15.618" />
    <path fill="none" stroke="black" stroke-width="24" stroke-linecap="round" stroke-linejoin="round" transform="matrix(1 0 0 -1 250 325)" d="M-79.85 -14.14L-80.264 -13.011" />
    <path fill="none" stroke="black" stroke-width="24" stroke-linecap="round" stroke-linejoin="round" transform="matrix(1 0 0 -1 250 325)" d="M-79.783 -14.255L-79.871 -13.916" />
    <path fill="none" stroke="black" stroke-width="24" stroke-linecap="round" stroke-linejoin="round" transform="matrix(1 0 0 -1 250 325)" d="M-79.472 -14.702L-79.458 -14.432" />
  </g>
</svg>