<?xml version='1.0' encoding='utf-8'?>
<svg xmlns="http://www.w3.org/2000/svg" version="1.1" width="500" height="650" viewBox="0 0 500 650">
  <g>
    <path fill="none" stroke="none" transform="matrix(1 0 0 -1 250 325)" d="M-116.669 204.092L-122.061 195.67L-126.006 189.507L-126.383 188.906L-126.68 188.3L-126.898 187.691L-129.617 178.068L-129.946 176.906L-130.086 176.281L-130.145 175.653L-130.459 165.658L-130.773 155.663L-131.087 145.668L-131.4 135.673L-131.714 125.678L-132.028 115.683L-132.341 105.688L-132.655 95.692L-132.969 85.697L-133.282 75.702L-133.596 65.707L-133.91 55.712L-134.224 45.717L-134.537 35.722L-134.791 27.626L-134.769 26.995L-134.665 26.363L-134.48 25.728L-132.069 18.08L-131.807 17.457L-131.466 16.832L-131.046 16.207L-130.546 15.582L-129.968 14.957L-129.311 14.333L-128.576 13.709L-120.64 7.625L-115.544 3.71899L-114.815 3.16101L-114.018 2.604L-113.152 2.04999L-112.217 1.49701L-111.215 0.946991L-110.146 0.399994L-109.011 -0.144989L-107.81 -0.684998L-106.544 -1.22198L-105.214 -1.755L-103.82 -2.284L-102.364 -2.80801L-100.847 -3.32599L-99.268 -3.84L-97.63 -4.34698L-95.933 -4.849L-94.178 -5.34399L-92.367 -5.83301L-90.499 -6.315L-88.578 -6.79001L-86.603 -7.25699L-84.575 -7.71701L-82.497 -8.168L-80.369 -8.61099L-78.193 -9.04599L-75.97 -9.47198L-73.7 -9.88901L-71.387 -10.296L-69.03 -10.694L-66.632 -11.083L-64.194 -11.461L-61.717 -11.829L-59.203 -12.186L-56.653 -12.533L-54.069 -12.868L-51.453 -13.193L-48.805 -13.506L-46.129 -13.808L-43.424 -14.099L-40.693 -14.377L-37.938 -14.643L-35.16 -14.897L-32.36 -15.139L-29.542 -15.368L-26.705 -15.585L-23.852 -15.789L-20.985 -15.98L-18.105 -16.158L-15.215 -16.323L-12.315 -16.475L-9.408 -16.613L-6.495 -16.739L-3.578 -16.85L-0.658997 -16.948L2.25999 -17.033L5.17799 -17.104L8.093 -17.161L11.003 -17.205L13.906 -17.235L16.801 -17.251L19.686 -17.253L22.559 -17.242L25.419 -17.217L28.263 -17.178L31.09 -17.126L33.898 -17.059L36.686 -16.98L39.452 -16.886L42.194 -16.779L44.911 -16.659L47.6 -16.525L50.261 -16.378L52.892 -16.217L55.491 -16.044L58.056 -15.857L60.586 -15.658L63.08 -15.446L65.536 -15.221L67.953 -14.983L70.328 -14.734L72.661 -14.471L74.951 -14.197L77.195 -13.911L79.393 -13.614L81.542 -13.304L83.643 -12.983L85.694 -12.652L87.692 -12.309L89.638 -11.955L91.53 -11.591L93.367 -11.216L95.148 -10.832L96.871 -10.437L98.536 -10.033L100.141 -9.61899L101.687 -9.19601L103.171 -8.76501L104.592 -8.32401L105.951 -7.87601L107.246 -7.41901L108.477 -6.95401L109.642 -6.48199L110.741 -6.00299L111.773 -5.51599L112.738 -5.02301L113.635 -4.52399L114.464 -4.01801L122.766 1.556L128.012 5.078L128.859 5.64899L129.63 6.22501L130.322 6.80801L130.936 7.39499L131.471 7.98801L131.927 8.586L132.304 9.18701L132.601 9.793L135.487 17.276L135.709 17.897L135.85 18.522L135.909 19.15L136.223 29.145L136.537 39.14L136.85 49.135L137.164 59.13L137.478 69.125L137.791 79.121L138.105 89.116L138.419 99.111L138.733 109.106L139.046 119.101L139.36 129.096L139.674 139.091L139.987 149.086L140.301 159.081L140.555 167.177L140.533 167.808L140.429 168.44L138.318 178.215L138.064 179.395L137.882 180.017L137.621 180.64L137.28 181.264L132.427 190.007L128.844 196.463" />
    <path fill="none" stroke="black" stroke-width="24" stroke-linecap="round" stroke-linejoin="round" transform="matrix(1 0 0 -1 250 325)" d="M128.408 196.019L128.413 195.883L128.36 195.315L128.232 194.751L128.032 194.189L127.758 193.631L127.41 193.076L126.99 192.525L126.496 191.979L125.93 191.437L125.292 190.9L124.583 190.369L123.801 189.843L122.949 189.323L122.027 188.809L121.034 188.302L119.973 187.802L118.843 187.309L117.644 186.823L116.379 186.345L115.047 185.876L113.65 185.414L112.188 184.961L110.662 184.518L109.073 184.083L107.422 183.657L106.066 183.328L105.71 183.242L103.938 182.836L102.107 182.44L100.218 182.055L98.272 181.681L96.271 181.317L94.216 180.964L92.107 180.623L89.947 180.293L87.736 179.975L85.476 179.669L83.168 179.375L80.814 179.093L78.415 178.823L75.972 178.566L73.487 178.322L70.961 178.091L68.397 177.873L65.795 177.668L63.157 177.476L60.484 177.297L57.779 177.133L55.043 176.981L52.277 176.844L49.483 176.72L46.663 176.61L43.819 176.514L40.952 176.432L38.064 176.363L35.157 176.309L32.232 176.27L29.292 176.244L26.337 176.232L23.371 176.234L20.394 176.251L17.408 176.282L14.416 176.327L11.418 176.386L8.41701 176.459L5.41499 176.546L2.414 176.647L-0.585999 176.762L-3.58099 176.89L-6.571 177.033L-9.55299 177.189L-12.525 177.358L-15.487 177.542L-18.435 177.738L-21.369 177.948L-24.286 178.171L-27.184 178.406L-30.063 178.655L-32.92 178.916L-35.753 179.19L-38.562 179.476L-41.343 179.775L-44.096 180.085L-46.818 180.407L-49.509 180.741L-52.166 181.087L-54.788 181.443L-57.373 181.811L-59.92 182.189L-62.428 182.578L-64.894 182.977L-67.317 183.386L-69.696 183.805L-72.03 184.234L-74.316 184.672L-76.554 185.119L-78.742 185.575L-80.879 186.039L-82.964 186.512L-84.995 186.992L-86.971 187.481L-88.891 187.976L-90.754 188.479L-92.559 188.988L-94.304 189.504L-95.232 189.792L-95.989 190.026L-97.612 190.554L-99.173 191.087L-100.67 191.626L-102.103 192.169L-103.471 192.717L-104.773 193.27L-106.008 193.826L-107.175 194.385L-108.274 194.948L-109.305 195.514L-110.266 196.082L-111.157 196.653L-111.977 197.225L-112.726 197.799L-113.403 198.374L-114.009 198.949L-114.542 199.525L-115.002 200.102L-115.39 200.678L-115.704 201.253L-115.945 201.828L-116.113 202.401L-116.207 202.973L-116.227 203.543L-116.223 203.579" />
    <path fill="none" stroke="black" stroke-width="24" stroke-linecap="round" stroke-linejoin="round" transform="matrix(1 0 0 -1 250 325)" d="M-116.669 204.092L-122.061 195.67L-126.006 189.507L-126.383 188.906L-126.68 188.3L-126.898 187.691L-129.617 178.068L-129.946 176.906L-130.086 176.281L-130.145 175.653L-130.459 165.658L-130.773 155.663L-131.087 145.668L-131.4 135.673L-131.714 125.678L-132.028 115.683L-132.341 105.688L-132.655 95.692L-132.969 85.697L-133.282 75.702L-133.596 65.707L-133.91 55.712L-134.224 45.717L-134.537 35.722L-134.791 27.626L-134.769 26.995L-134.665 26.363L-134.48 25.728L-132.069 18.08L-131.807 17.457L-131.466 16.832L-131.046 16.207L-130.546 15.582L-129.968 14.957L-129.311 14.333L-128.576 13.709L-120.64 7.625L-115.544 3.71899L-114.815 3.16101L-114.018 2.604L-113.152 2.04999L-112.217 1.49701L-111.215 0.946991L-110.146 0.399994L-109.011 -0.144989L-107.81 -0.684998L-106.544 -1.22198L-105.214 -1.755L-103.82 -2.284L-102.364 -2.80801L-100.847 -3.32599L-99.268 -3.84L-97.63 -4.34698L-95.933 -4.849L-94.178 -5.34399L-92.367 -5.83301L-90.499 -6.315L-88.578 -6.79001L-86.603 -7.25699L-84.575 -7.71701L-82.497 -8.168L-80.369 -8.61099L-78.193 -9.04599L-75.97 -9.47198L-73.7 -9.88901L-71.387 -10.296L-69.03 -10.694L-66.632 -11.083L-64.194 -11.461L-61.717 -11.829L-59.203 -12.186L-56.653 -12.533L-54.069 -12.868L-51.453 -13.193L-48.805 -13.506L-46.129 -13.808L-43.424 -14.099L-40.693 -14.377L-37.938 -14.643L-35.16 -14.897L-32.36 -15.139L-29.542 -15.368L-26.705 -15.585L-23.852 -15.789L-20.985 -15.98L-18.105 -16.158L-15.215 -16.323L-12.315 -16.475L-9.408 -16.613L-6.495 -16.739L-3.578 -16.85L-0.658997 -16.948L2.25999 -17.033L5.17799 -17.104L8.093 -17.161L11.003 -17.205L13.906 -17.235L16.801 -17.251L19.686 -17.253L22.559 -17.242L25.419 -17.217L28.263 -17.178L31.09 -17.126L33.898 -17.059L36.686 -16.98L39.452 -16.886L42.194 -16.779L44.911 -16.659L47.6 -16.525L50.261 -16.378L52.892 -16.217L55.491 -16.044L58.056 -15.857L60.586 -15.658L63.08 -15.446L65.536 -15.221L67.953 -14.983L70.328 -14.734L72.661 -14.471L74.951 -14.197L77.195 -13.911L79.393 -13.614L81.542 -13.304L83.643 -12.983L85.694 -12.652L87.692 -12.309L89.638 -11.955L91.53 -11.591L93.367 -11.216L95.148 -10.832L96.871 -10.437L98.536 -10.033L100.141 -9.61899L101.687 -9.19601L103.171 -8.76501L104.592 -8.32401L105.951 -7.87601L107.246 -7.41901L108.477 -6.95401L109.642 -6.48199L110.741 -6.00299L111.773 -5.51599L112.738 -5.02301L113.635 -4.52399L114.464 -4.01801L122.766 1.556L128.012 5.078L128.859 5.64899L129.63 6.22501L130.322 6.80801L130.936 7.39499L131.471 7.98801L131.927 8.586L132.304 9.18701L132.601 9.793L135.487 17.276L135.709 17.897L135.85 18.522L135.909 19.15L136.223 29.145L136.537 39.14L136.85 49.135L137.164 59.13L137.478 69.125L137.791 79.121L138.105 89.116L138.419 99.111L138.733 109.106L139.046 119.101L139.36 129.096L139.674 139.091L139.987 149.086L140.301 159.081L140.555 167.177L140.533 167.808L140.429 168.44L138.318 178.215L138.064 179.395L137.882 180.017L137.621 180.64L137.28 181.264L132.427 190.007L128.844 196.463" />
    <path fill="none" stroke="black" stroke-width="24" stroke-linecap="round" stroke-linejoin="round" transform="matrix(1 0 0 -1 250 325)" d="M106.066 183.328L106.535 183.478L108.927 184.255L111.197 185.072L113.255 185.914L115.097 186.779L117.507 187.911L119.165 188.817L121.455 190.251L122.913 191.195L124.136 192.157L126.29 193.888L127.292 194.885L128.408 196.019L128.844 196.463L129.246 196.871L130.957 199.069L131.738 200.11L133.194 202.504L133.727 203.57L134.905 206.125L135.782 208.798L136.063 209.891L136.631 212.652L136.88 215.46L136.9 216.567L136.828 219.385L136.434 222.176L136.193 223.285L135.485 226.007L134.471 228.63L133.977 229.728L132.674 232.207L131.932 233.295L130.363 235.595L128.539 237.697L127.574 238.755L125.535 240.616L124.349 241.653L122.927 242.686L120.734 244.258L119.112 245.265L116.781 246.544L114.972 247.522L112.947 248.49L110.709 249.446L108.376 250.369L105.986 251.291L103.398 252.197L100.616 253.086L97.647 253.956L94.496 254.805L91.17 255.633L89.152 256.123L85.743 256.907L82.175 257.666L78.457 258.399L74.596 259.103L70.6 259.779L66.476 260.423L62.234 261.036L57.882 261.615L53.427 262.16L48.881 262.67L44.25 263.143L39.546 263.578L34.777 263.975L29.953 264.333L25.084 264.651L20.179 264.929L15.248 265.166L10.302 265.361L5.35001 265.514L0.401993 265.625L-4.53101 265.693L-9.44099 265.719L-14.316 265.702L-19.148 265.642L-23.926 265.54L-28.641 265.396L-33.283 265.209L-37.843 264.981L-42.312 264.712L-46.681 264.403L-50.941 264.053L-55.083 263.664L-59.099 263.236L-62.981 262.771L-66.722 262.269L-70.313 261.731L-73.747 261.159L-75.801 260.794L-79.153 260.173L-82.332 259.519L-85.329 258.833L-88.14 258.117L-90.758 257.372L-93.179 256.6L-95.571 255.823L-97.841 255.006L-99.899 254.164L-101.741 253.299L-104.152 252.166L-105.809 251.261L-108.1 249.827L-109.558 248.883L-110.78 247.921L-112.934 246.189L-113.936 245.193L-115.89 243.207L-117.602 241.008L-118.382 239.968L-119.838 237.574L-120.372 236.508L-121.549 233.952L-122.427 231.279L-122.708 230.187L-123.275 227.425L-123.525 224.617L-123.545 223.51L-123.472 220.692L-123.079 217.901L-122.838 216.792L-122.13 214.07L-121.115 211.447L-120.621 210.35L-119.318 207.87L-118.577 206.782L-117.008 204.483L-116.669 204.092L-116.223 203.579L-115.184 202.38L-114.219 201.323L-112.18 199.462L-110.993 198.425L-109.571 197.392L-107.379 195.82L-105.756 194.813L-103.425 193.534L-101.616 192.556L-99.591 191.588L-97.353 190.631L-95.232 189.792" />
    <path fill="none" stroke="black" stroke-width="24" stroke-linecap="round" stroke-linejoin="round" transform="matrix(1 0 0 -1 250 325)" d="M126.29 193.888L125.046 192.909L123.562 191.948L121.842 191.008L119.888 190.091L117.706 189.198L115.299 188.332L112.672 187.493L109.83 186.685L106.78 185.908L103.527 185.163L100.077 184.454L96.439 183.78L92.618 183.143L88.624 182.545L84.463 181.986L80.145 181.469L75.677 180.993L71.069 180.56L66.331 180.171L61.471 179.827L56.5 179.527L51.427 179.274L46.263 179.066L41.019 178.906L35.704 178.792L30.329 178.726L24.906 178.707L19.444 178.736L13.956 178.812L8.453 178.935L2.944 179.105L-2.558 179.322L-8.043 179.586L-13.499 179.894L-18.915 180.248L-24.282 180.646L-29.587 181.088L-34.82 181.573L-39.97 182.099L-45.028 182.666L-49.983 183.272L-54.824 183.916L-59.544 184.598L-64.13 185.315L-68.576 186.066L-72.871 186.85L-77.006 187.665L-80.975 188.509L-84.768 189.381L-88.378 190.279L-91.798 191.201L-95.02 192.146L-98.039 193.11L-100.848 194.094L-103.442 195.093L-105.815 196.107L-107.962 197.134L-109.88 198.171L-111.564 199.216L-113.011 200.267L-114.219 201.323" />
    <path fill="none" stroke="black" stroke-width="24" stroke-linecap="round" stroke-linejoin="round" transform="matrix(1 0 0 -1 250 325)" d="M80.261 229.628L79.426 229.489L77.181 229.115L73.96 228.633L70.606 228.182L67.124 227.765L63.523 227.382L59.808 227.033L55.988 226.719L52.07 226.441L48.062 226.2L43.973 225.995L39.81 225.828L35.581 225.699L31.296 225.607L26.964 225.554L22.591 225.539L18.189 225.562L13.764 225.623L9.327 225.722L4.886 225.86L0.449997 226.035L-3.97099 226.247L-8.37 226.496L-12.737 226.781L-17.063 227.102L-21.34 227.458L-25.558 227.849L-29.711 228.273L-33.788 228.73L-37.783 229.219L-41.686 229.738L-45.491 230.288L-49.188 230.866L-52.772 231.471L-56.235 232.103L-59.569 232.76L-62.768 233.441L-65.236 234.008L-65.826 234.144" />
  </g>
</svg>