<?xml version='1.0' encoding='utf-8'?>
<svg xmlns="http://www.w3.org/2000/svg" version="1.1" width="500" height="650" viewBox="0 0 500 650">
  <g>
    <path fill="none" stroke="none" transform="matrix(1 0 0 -1 250 325)" d="M-131.959 -38.316L-132.574 -39.268L-133.4 -40.673L-134.149 -42.086L-134.82 -43.505L-135.412 -44.929L-135.926 -46.358L-136.36 -47.791L-138.796 -57.489L-138.836 -57.651L-139.199 -59.116L-139.48 -60.583L-139.68 -62.051L-139.798 -63.52L-139.835 -64.988L-139.62 -74.985L-139.405 -84.983L-139.19 -94.981L-138.974 -104.978L-138.759 -114.976L-138.544 -124.974L-138.329 -134.971L-138.113 -144.969L-137.898 -154.967L-137.683 -164.964L-137.468 -174.962L-137.252 -184.96L-137.037 -194.958L-136.922 -200.294L-136.878 -201.761L-136.751 -203.225L-136.544 -204.686L-136.255 -206.143L-135.885 -207.594L-135.434 -209.041L-134.902 -210.48L-132.136 -217.182L-131.536 -218.585L-130.857 -219.981L-130.101 -221.367L-129.267 -222.743L-128.356 -224.109L-127.368 -225.462L-126.305 -226.804L-125.167 -228.132L-123.953 -229.446L-122.666 -230.746L-121.306 -232.029L-119.874 -233.297L-118.37 -234.547L-116.796 -235.779L-115.153 -236.993L-113.441 -238.187L-111.661 -239.361L-109.815 -240.514L-107.903 -241.646L-105.928 -242.756L-103.889 -243.843L-101.789 -244.906L-92.803 -249.294L-91.187 -250.083L-89.25 -251.014L-87.26 -251.923L-85.218 -252.81L-83.125 -253.673L-80.984 -254.513L-78.794 -255.328L-76.557 -256.118L-74.275 -256.884L-71.949 -257.623L-69.58 -258.336L-67.17 -259.023L-64.721 -259.682L-62.233 -260.314L-59.708 -260.919L-57.148 -261.495L-54.554 -262.042L-51.928 -262.561L-49.272 -263.051L-46.587 -263.511L-43.874 -263.941L-41.135 -264.342L-38.373 -264.712L-35.588 -265.052L-32.782 -265.361L-29.958 -265.639L-27.116 -265.887L-24.258 -266.103L-21.387 -266.288L-18.503 -266.441L-15.609 -266.563L-12.706 -266.653L-9.79601 -266.712L-6.881 -266.739L-3.963 -266.734L-1.043 -266.698L1.877 -266.63L4.795 -266.531L7.71001 -266.4L10.619 -266.237L13.521 -266.043L16.414 -265.818L19.297 -265.562L22.167 -265.274L25.024 -264.956L27.864 -264.608L30.687 -264.229L33.491 -263.819L36.274 -263.38L39.034 -262.911L41.77 -262.413L44.48 -261.886L47.163 -261.33L49.816 -260.746L52.439 -260.133L55.03 -259.493L57.587 -258.826L60.108 -258.131L62.592 -257.41L65.038 -256.664L67.444 -255.891L69.809 -255.093L72.131 -254.271L74.409 -253.425L76.641 -252.554L78.827 -251.661L80.964 -250.745L83.052 -249.807L85.089 -248.848L87.074 -247.868L89.006 -246.867L97.794 -242.097L99.227 -241.319L101.321 -240.181L103.354 -239.021L105.324 -237.841L107.229 -236.641L109.069 -235.422L110.842 -234.185L112.548 -232.93L114.185 -231.657L115.753 -230.369L117.25 -229.065L118.675 -227.747L120.028 -226.415L121.308 -225.07L122.515 -223.713L123.646 -222.344L124.702 -220.965L125.683 -219.576L126.586 -218.178L127.413 -216.772L128.162 -215.359L128.833 -213.939L129.426 -212.514L131.894 -205.719L132.418 -204.261L132.861 -202.799L133.224 -201.334L133.505 -199.867L133.705 -198.399L133.824 -196.93L133.86 -195.462L133.645 -185.464L133.43 -175.467L133.215 -165.469L132.999 -155.471L132.784 -145.474L132.569 -135.476L132.354 -125.478L132.138 -115.481L131.923 -105.483L131.708 -95.485L131.493 -85.488L131.277 -75.49L131.062 -65.492L130.947 -60.156L130.903 -58.689L130.776 -57.225L130.569 -55.764L130.28 -54.307L129.91 -52.855L127.059 -43.27L127.006 -43.091L126.564 -41.674L126.043 -40.263L125.443 -38.86L124.765 -37.466L124.009 -36.08L123.175 -34.704L122.264 -33.339L121.828 -32.724" />
    <path fill="none" stroke="black" stroke-width="24" stroke-linecap="round" stroke-linejoin="round" transform="matrix(1 0 0 -1 250 325)" d="M-131.959 -38.316L-132.574 -39.268L-133.4 -40.673L-134.149 -42.086L-134.82 -43.505L-135.412 -44.929L-135.926 -46.358L-136.36 -47.791L-138.796 -57.489L-138.836 -57.651L-139.199 -59.116L-139.48 -60.583L-139.68 -62.051L-139.798 -63.52L-139.835 -64.988L-139.62 -74.985L-139.405 -84.983L-139.19 -94.981L-138.974 -104.978L-138.759 -114.976L-138.544 -124.974L-138.329 -134.971L-138.113 -144.969L-137.898 -154.967L-137.683 -164.964L-137.468 -174.962L-137.252 -184.96L-137.037 -194.958L-136.922 -200.294L-136.878 -201.761L-136.751 -203.225L-136.544 -204.686L-136.255 -206.143L-135.885 -207.594L-135.434 -209.041L-134.902 -210.48L-132.136 -217.182L-131.536 -218.585L-130.857 -219.981L-130.101 -221.367L-129.267 -222.743L-128.356 -224.109L-127.368 -225.462L-126.305 -226.804L-125.167 -228.132L-123.953 -229.446L-122.666 -230.746L-121.306 -232.029L-119.874 -233.297L-118.37 -234.547L-116.796 -235.779L-115.153 -236.993L-113.441 -238.187L-111.661 -239.361L-109.815 -240.514L-107.903 -241.646L-105.928 -242.756L-103.889 -243.843L-101.789 -244.906L-92.803 -249.294L-91.187 -250.083L-89.25 -251.014L-87.26 -251.923L-85.218 -252.81L-83.125 -253.673L-80.984 -254.513L-78.794 -255.328L-76.557 -256.118L-74.275 -256.884L-71.949 -257.623L-69.58 -258.336L-67.17 -259.023L-64.721 -259.682L-62.233 -260.314L-59.708 -260.919L-57.148 -261.495L-54.554 -262.042L-51.928 -262.561L-49.272 -263.051L-46.587 -263.511L-43.874 -263.941L-41.135 -264.342L-38.373 -264.712L-35.588 -265.052L-32.782 -265.361L-29.958 -265.639L-27.116 -265.887L-24.258 -266.103L-21.387 -266.288L-18.503 -266.441L-15.609 -266.563L-12.706 -266.653L-9.79601 -266.712L-6.881 -266.739L-3.963 -266.734L-1.043 -266.698L1.877 -266.63L4.795 -266.531L7.71001 -266.4L10.619 -266.237L13.521 -266.043L16.414 -265.818L19.297 -265.562L22.167 -265.274L25.024 -264.956L27.864 -264.608L30.687 -264.229L33.491 -263.819L36.274 -263.38L39.034 -262.911L41.77 -262.413L44.48 -261.886L47.163 -261.33L49.816 -260.746L52.439 -260.133L55.03 -259.493L57.587 -258.826L60.108 -258.131L62.592 -257.41L65.038 -256.664L67.444 -255.891L69.809 -255.093L72.131 -254.271L74.409 -253.425L76.641 -252.554L78.827 -251.661L80.964 -250.745L83.052 -249.807L85.089 -248.848L87.074 -247.868L89.006 -246.867L97.794 -242.097L99.227 -241.319L101.321 -240.181L103.354 -239.021L105.324 -237.841L107.229 -236.641L109.069 -235.422L110.842 -234.185L112.548 -232.93L114.185 -231.657L115.753 -230.369L117.25 -229.065L118.675 -227.747L120.028 -226.415L121.308 -225.07L122.515 -223.713L123.646 -222.344L124.702 -220.965L125.683 -219.576L126.586 -218.178L127.413 -216.772L128.162 -215.359L128.833 -213.939L129.426 -212.514L131.894 -205.719L132.418 -204.261L132.861 -202.799L133.224 -201.334L133.505 -199.867L133.705 -198.399L133.824 -196.93L133.86 -195.462L133.645 -185.464L133.43 -175.467L133.215 -165.469L132.999 -155.471L132.784 -145.474L132.569 -135.476L132.354 -125.478L132.138 -115.481L131.923 -105.483L131.708 -95.485L131.493 -85.488L131.277 -75.49L131.062 -65.492L130.947 -60.156L130.903 -58.689L130.776 -57.225L130.569 -55.764L130.28 -54.307L129.91 -52.855L127.059 -43.27L127.006 -43.091L126.564 -41.674L126.043 -40.263L125.443 -38.86L124.765 -37.466L124.009 -36.08L123.175 -34.704L122.264 -33.339L121.828 -32.724" />
    <path fill="none" stroke="black" stroke-width="24" stroke-linecap="round" stroke-linejoin="round" transform="matrix(1 0 0 -1 250 325)" d="M114.621 -45.976L114.414 -46.414L113.724 -47.717L112.961 -49.013L112.128 -50.301L111.225 -51.582L110.251 -52.853L109.208 -54.115L108.096 -55.366L106.916 -56.606L105.669 -57.834L104.355 -59.049L102.975 -60.251L101.53 -61.439L100.021 -62.611L98.448 -63.768L96.814 -64.909L95.118 -66.033L93.361 -67.139L91.546 -68.227L89.672 -69.296L87.741 -70.345L85.755 -71.374L83.713 -72.382L81.619 -73.368L79.472 -74.333L77.274 -75.275L75.026 -76.193L72.731 -77.088L70.389 -77.959L68.001 -78.804L65.569 -79.624L63.095 -80.419L60.579 -81.187L58.025 -81.928L55.432 -82.642L52.803 -83.329L50.139 -83.987L47.441 -84.617L44.713 -85.218L41.954 -85.789L39.167 -86.331L36.353 -86.844L33.515 -87.326L30.653 -87.777L27.77 -88.198L24.867 -88.588L21.946 -88.947L19.009 -89.274L16.057 -89.569L13.093 -89.833L10.117 -90.064L7.133 -90.264L4.14101 -90.431L1.144 -90.566L-1.85699 -90.668L-4.85899 -90.738L-7.862 -90.775L-10.863 -90.78L-13.861 -90.752L-16.853 -90.692L-19.838 -90.599L-22.814 -90.473L-25.78 -90.316L-28.733 -90.126L-31.671 -89.903L-34.594 -89.649L-37.499 -89.363L-40.384 -89.045L-43.248 -88.696L-46.089 -88.315L-48.905 -87.903L-51.694 -87.46L-54.456 -86.987L-57.187 -86.484L-59.888 -85.95L-62.555 -85.387L-65.187 -84.795L-67.784 -84.173L-70.342 -83.523L-72.861 -82.845L-75.339 -82.139L-77.775 -81.405L-80.167 -80.645L-82.514 -79.858L-84.814 -79.045L-87.066 -78.207L-89.269 -77.344L-91.42 -76.456L-93.52 -75.544L-95.566 -74.609L-97.558 -73.651L-99.494 -72.671L-101.374 -71.669L-103.195 -70.646L-104.957 -69.603L-106.658 -68.54L-108.299 -67.457L-109.877 -66.357L-111.392 -65.238L-112.843 -64.102L-114.23 -62.95L-115.55 -61.781L-116.804 -60.598L-117.99 -59.4L-119.108 -58.189L-120.158 -56.965L-121.138 -55.728L-122.048 -54.48L-122.888 -53.221L-123.657 -51.953L-123.904 -51.499" />
    <path fill="none" stroke="black" stroke-width="24" stroke-linecap="round" stroke-linejoin="round" transform="matrix(1 0 0 -1 250 325)" d="M-6.034 53.692L-11.229 53.547L-16.413 53.301L-21.576 52.952L-26.707 52.501L-31.797 51.95L-36.834 51.299L-41.809 50.551L-46.712 49.705L-51.532 48.765L-56.261 47.731L-60.888 46.607L-62.054 46.317L-66.669 45.078L-71.16 43.75L-75.521 42.337L-79.741 40.842L-83.813 39.267L-87.727 37.615L-91.477 35.89L-93.139 35.084L-96.787 33.254L-100.252 31.357L-103.527 29.396L-106.605 27.376L-108.356 26.149L-111.282 24.036L-113.996 21.871L-116.492 19.659L-118.175 18.074L-120.483 15.783L-122.56 13.452L-124.071 11.582L-125.938 9.185L-127.562 6.75699L-128.853 4.642L-130.247 2.16199L-131.391 -0.338013L-132.421 -2.651L-133.319 -5.189L-134.053 -7.63101L-134.698 -10.195L-135.122 -12.724L-135.508 -15.304L-135.632 -17.884L-135.738 -20.459L-135.6 -23.038L-135.384 -25.603L-134.984 -28.169L-134.451 -30.681L-133.793 -33.222L-132.952 -35.636L-132.041 -38.142L-131.959 -38.316L-130.874 -40.623L-129.752 -42.875L-128.345 -45.305L-126.958 -47.372L-125.321 -49.742L-123.904 -51.499L-123.442 -52.072L-121.842 -53.887L-119.753 -56.143L-117.433 -58.352L-115.669 -59.875L-113.162 -61.998L-110.437 -64.066L-107.5 -66.074L-105.678 -67.238L-102.589 -69.148L-99.305 -70.991L-95.83 -72.765L-92.173 -74.464L-90.45 -75.21L-86.692 -76.801L-82.769 -78.312L-78.69 -79.742L-74.462 -81.087L-70.095 -82.344L-65.596 -83.511L-60.976 -84.586L-56.242 -85.566L-55.128 -85.793L-50.395 -86.657L-45.57 -87.425L-40.663 -88.096L-35.685 -88.667L-30.644 -89.138L-25.553 -89.507L-20.419 -89.774L-15.255 -89.939L-10.07 -90.001L-4.875 -89.96L0.320007 -89.816L5.504 -89.569L10.667 -89.22L15.798 -88.769L20.887 -88.218L25.925 -87.567L30.9 -86.819L35.802 -85.973L40.623 -85.033L45.351 -84L49.978 -82.875L51.145 -82.585L55.759 -81.346L60.251 -80.018L64.612 -78.605L68.832 -77.11L72.903 -75.535L76.818 -73.883L80.568 -72.158L82.23 -71.352L85.878 -69.522L89.343 -67.625L92.617 -65.664L95.696 -63.644L97.446 -62.417L100.373 -60.304L103.086 -58.14L105.582 -55.927L107.265 -54.342L109.574 -52.051L111.651 -49.72L113.162 -47.85L114.621 -45.976L115.029 -45.453L116.653 -43.025L117.944 -40.91L119.338 -38.43L120.481 -35.93L121.511 -33.618L121.828 -32.724L122.409 -31.079L123.144 -28.637L123.788 -26.073L124.213 -23.544L124.599 -20.964L124.723 -18.384L124.829 -15.809L124.691 -13.23L124.475 -10.665L124.075 -8.099L123.541 -5.58701L122.883 -3.04599L122.043 -0.631989L121.132 1.87399L119.965 4.354L118.843 6.60699L117.436 9.03699L116.049 11.104L114.412 13.473L112.533 15.803L110.933 17.619L108.844 19.875L106.523 22.083L104.76 23.607L102.252 25.73L99.527 27.798L96.591 29.806L94.769 30.969L91.68 32.88L88.395 34.723L84.921 36.497L81.264 38.196L79.541 38.942L75.783 40.533L71.86 42.044L67.781 43.474L63.553 44.819L59.185 46.076L54.687 47.243L50.066 48.318L45.333 49.298L44.219 49.524L39.485 50.389L34.66 51.157L29.754 51.828L24.775 52.399L19.735 52.869L14.643 53.239L9.50999 53.506L4.34599 53.671L-0.839005 53.733L-6.034 53.692" />
    <path fill="none" stroke="black" stroke-width="24" stroke-linecap="round" stroke-linejoin="round" transform="matrix(1 0 0 -1 250 325)" d="M-83.949 -19.504L-84.343 -19.015L-84.344 -19.014L-84.582 -18.718L-84.636 -18.652L-84.665 -18.61L-84.67 -18.602L-84.725 -18.523L-84.748 -18.491L-84.788 -18.433L-84.84 -18.357L-84.884 -18.293L-85.712 -17.095" />
    <path fill="none" stroke="black" stroke-width="24" stroke-linecap="round" stroke-linejoin="round" transform="matrix(1 0 0 -1 250 325)" d="M-82.29 -21.13L-83.583 -19.9L-83.649 -19.827L-83.675 -19.799L-83.69 -19.784L-83.949 -19.504L-84.351 -19.069L-84.353 -19.068L-84.426 -18.989L-84.483 -18.927L-84.603 -18.797L-84.642 -18.755L-84.659 -18.737L-84.668 -18.728L-84.674 -18.721L-84.737 -18.653L-84.742 -18.648L-85.001 -18.367" />
    <path fill="none" stroke="black" stroke-width="24" stroke-linecap="round" stroke-linejoin="round" transform="matrix(1 0 0 -1 250 325)" d="M-78.577 -23.86L-80.081 -22.831L-82.003 -21.373L-82.29 -21.13L-83.726 -19.914L-83.749 -19.894L-83.767 -19.879L-83.771 -19.876" />
    <path fill="none" stroke="black" stroke-width="24" stroke-linecap="round" stroke-linejoin="round" transform="matrix(1 0 0 -1 250 325)" d="M-70.31 -28.208L-72.59 -27.148L-75.145 -25.844L-77.561 -24.488L-78.577 -23.86L-79.832 -23.084" />
    <path fill="none" stroke="black" stroke-width="24" stroke-linecap="round" stroke-linejoin="round" transform="matrix(1 0 0 -1 250 325)" d="M97.446 -62.417L94.314 -64.473L90.981 -66.469L87.454 -68.399L83.742 -70.262L79.85 -72.052L75.787 -73.766L71.561 -75.401L67.181 -76.953L62.655 -78.42L57.993 -79.797L53.204 -81.084L48.297 -82.276L43.283 -83.372L38.172 -84.369L32.973 -85.265L27.697 -86.059L22.356 -86.749L16.959 -87.334L11.518 -87.811L6.043 -88.181L0.546005 -88.443L-4.963 -88.596L-10.472 -88.64L-15.97 -88.574L-21.446 -88.4L-26.889 -88.116L-32.289 -87.724L-37.633 -87.225L-42.913 -86.619L-48.116 -85.909L-53.232 -85.094L-58.251 -84.177L-63.164 -83.16L-67.959 -82.045L-72.628 -80.834L-77.161 -79.529L-81.549 -78.133L-85.783 -76.649L-89.854 -75.08L-93.755 -73.429L-97.477 -71.699L-101.014 -69.894L-104.357 -68.018L-107.5 -66.074" />
    <path fill="none" stroke="black" stroke-width="24" stroke-linecap="round" stroke-linejoin="round" transform="matrix(1 0 0 -1 250 325)" d="M-46.254 -35.425L-48.934 -34.87L-52.49 -34.043L-55.953 -33.144L-59.315 -32.176L-62.569 -31.141L-65.71 -30.041L-68.729 -28.877L-70.31 -28.208L-71.622 -27.652" />
    <path fill="none" stroke="black" stroke-width="24" stroke-linecap="round" stroke-linejoin="round" transform="matrix(1 0 0 -1 250 325)" d="M38.539 -33.039L37.643 -33.257L34.799 -33.948L30.978 -34.783L27.082 -35.543L23.12 -36.226L19.099 -36.831L15.028 -37.357L10.915 -37.803L6.76801 -38.167L2.59599 -38.449L-1.59399 -38.648L-5.79201 -38.765L-9.99001 -38.798L-14.181 -38.748L-18.354 -38.615L-22.503 -38.399L-26.618 -38.1L-30.691 -37.72L-34.714 -37.258L-38.68 -36.717L-42.579 -36.096L-46.254 -35.425L-46.405 -35.397" />
    <path fill="none" stroke="black" stroke-width="24" stroke-linecap="round" stroke-linejoin="round" transform="matrix(1 0 0 -1 250 325)" d="M60.021 -25.303L59.367 -25.604L57.135 -26.631L54.122 -27.902L50.988 -29.115L47.739 -30.266L44.382 -31.354L40.925 -32.376L37.643 -33.257" />
    <path fill="none" stroke="black" stroke-width="24" stroke-linecap="round" stroke-linejoin="round" transform="matrix(1 0 0 -1 250 325)" d="M68.263 -20.441L67.708 -20.805L65.999 -21.927L63.591 -23.369L61.042 -24.764L59.367 -25.604" />
    <path fill="none" stroke="black" stroke-width="24" stroke-linecap="round" stroke-linejoin="round" transform="matrix(1 0 0 -1 250 325)" d="M72.249 -17.092L71.443 -17.807L70.489 -18.652L68.575 -20.179L67.708 -20.805" />
    <path fill="none" stroke="black" stroke-width="24" stroke-linecap="round" stroke-linejoin="round" transform="matrix(1 0 0 -1 250 325)" d="M73.544 -15.538L73.515 -15.571L73.414 -15.685L73.119 -16.016L72.817 -16.354L72.817 -16.354L72.773 -16.404L72.76 -16.418L72.74 -16.441L72.134 -17.121L71.443 -17.807" />
    <path fill="none" stroke="black" stroke-width="24" stroke-linecap="round" stroke-linejoin="round" transform="matrix(1 0 0 -1 250 325)" d="M74.327 -14.24L73.897 -14.883L73.892 -14.891L73.811 -15.012L73.78 -15.058L73.777 -15.062L73.697 -15.182L73.695 -15.184L73.689 -15.194L73.568 -15.374L73.562 -15.384L73.26 -15.834L73.119 -16.016" />
    <path fill="none" stroke="black" stroke-width="24" stroke-linecap="round" stroke-linejoin="round" transform="matrix(1 0 0 -1 250 325)" d="M74.659 -13.172L73.928 -14.77L73.928 -14.771L73.818 -14.965L73.803 -14.993L73.788 -15.019L73.697 -15.182L73.695 -15.184" />
    <path fill="none" stroke="black" stroke-width="24" stroke-linecap="round" stroke-linejoin="round" transform="matrix(1 0 0 -1 250 325)" d="M74.19 -13.898L73.824 -14.934L73.803 -14.993" />
    <path fill="none" stroke="black" stroke-width="24" stroke-linecap="round" stroke-linejoin="round" transform="matrix(1 0 0 -1 250 325)" d="M73.852 -14.763L73.788 -15.019" />
    <path fill="none" stroke="black" stroke-width="24" stroke-linecap="round" stroke-linejoin="round" transform="matrix(1 0 0 -1 250 325)" d="M73.739 -14.149L73.689 -15.194" />
    <path fill="none" stroke="black" stroke-width="24" stroke-linecap="round" stroke-linejoin="round" transform="matrix(1 0 0 -1 250 325)" d="M73.55 -15.157L73.562 -15.384" />
    <path fill="none" stroke="black" stroke-width="24" stroke-linecap="round" stroke-linejoin="round" transform="matrix(1 0 0 -1 250 325)" d="M72.492 -16.086L72.76 -16.418" />
    <path fill="none" stroke="black" stroke-width="24" stroke-linecap="round" stroke-linejoin="round" transform="matrix(1 0 0 -1 250 325)" d="M-84.855 -18.248L-85.401 -16.746" />
    <path fill="none" stroke="black" stroke-width="24" stroke-linecap="round" stroke-linejoin="round" transform="matrix(1 0 0 -1 250 325)" d="M-84.749 -18.43L-84.965 -17.597" />
    <path fill="none" stroke="black" stroke-width="24" stroke-linecap="round" stroke-linejoin="round" transform="matrix(1 0 0 -1 250 325)" d="M-84.672 -18.563L-84.675 -18.545" />
    <path fill="none" stroke="black" stroke-width="24" stroke-linecap="round" stroke-linejoin="round" transform="matrix(1 0 0 -1 250 325)" d="M-84.343 -19.015L-84.337 -18.977" />
    <path fill="none" stroke="black" stroke-width="24" stroke-linecap="round" stroke-linejoin="round" transform="matrix(1 0 0 -1 250 325)" d="M-84.582 -18.718L-84.672 -18.563L-84.674 -18.561L-84.749 -18.43L-84.811 -18.324L-84.855 -18.248L-84.913 -18.148L-85.224 -17.61" />
  </g>
</svg>