<?xml version='1.0' encoding='utf-8'?>
<svg xmlns="http://www.w3.org/2000/svg" version="1.1" width="500" height="650" viewBox="0 0 500 650">
  <g>
    <path fill="none" stroke="none" transform="matrix(1 0 0 -1 250 325)" d="M-153.332 94.966L-155.845 90.414L-156.521 89.161L-157.118 87.906L-157.636 86.651L-158.076 85.397L-158.436 84.143L-158.717 82.892L-160.593 73.069L-160.691 72.561L-160.896 71.286L-161.02 70.015L-161.063 68.748L-161.025 67.486L-160.319 57.51L-159.614 47.535L-158.909 37.56L-158.203 27.585L-157.498 17.61L-156.792 7.63501L-156.087 -2.34L-155.381 -12.315L-154.676 -22.29L-153.97 -32.265L-153.265 -42.24L-152.559 -52.215L-151.854 -62.191L-151.181 -71.701L-151.061 -72.958L-150.86 -74.208L-150.578 -75.451L-150.215 -76.686L-149.771 -77.912L-149.246 -79.129L-146.128 -85.947L-145.535 -87.13L-144.863 -88.303L-144.114 -89.464L-143.288 -90.613L-142.384 -91.75L-141.404 -92.873L-140.349 -93.981L-139.218 -95.075L-138.013 -96.154L-136.734 -97.216L-135.382 -98.262L-133.957 -99.291L-132.462 -100.301L-130.896 -101.293L-129.261 -102.266L-127.557 -103.219L-125.786 -104.151L-116.828 -108.596L-113.691 -110.152L-112.044 -110.969L-110.338 -111.767L-108.575 -112.546L-106.755 -113.304L-104.88 -114.041L-102.951 -114.758L-100.969 -115.453L-98.935 -116.126L-96.85 -116.776L-94.716 -117.404L-92.534 -118.009L-90.305 -118.59L-88.031 -119.148L-85.713 -119.681L-83.352 -120.19L-80.949 -120.674L-78.507 -121.133L-76.027 -121.567L-73.51 -121.975L-70.958 -122.357L-68.371 -122.713L-65.753 -123.043L-63.104 -123.346L-60.426 -123.622L-57.721 -123.872L-54.989 -124.095L-52.234 -124.291L-49.456 -124.459L-46.657 -124.6L-43.839 -124.713L-41.004 -124.799L-38.153 -124.858L-35.288 -124.889L-32.411 -124.892L-29.523 -124.868L-26.627 -124.816L-23.723 -124.736L-20.814 -124.629L-17.902 -124.495L-14.987 -124.333L-12.073 -124.144L-9.16 -123.927L-6.25101 -123.684L-3.347 -123.414L-0.449997 -123.117L2.438 -122.793L5.31599 -122.443L8.18201 -122.067L11.034 -121.665L13.87 -121.238L16.689 -120.785L19.488 -120.307L22.267 -119.804L25.024 -119.276L27.757 -118.724L30.464 -118.148L33.143 -117.549L35.794 -116.927L38.414 -116.281L41.002 -115.614L43.556 -114.924L46.075 -114.213L48.558 -113.48L51.002 -112.727L53.406 -111.953L55.77 -111.16L58.09 -110.347L60.367 -109.516L62.598 -108.666L64.783 -107.798L66.92 -106.913L69.007 -106.011L71.044 -105.093L73.029 -104.159L74.961 -103.21L76.839 -102.246L78.662 -101.269L80.428 -100.278L82.137 -99.274L83.788 -98.259L85.379 -97.231L86.909 -96.193L95.153 -90.532L97.997 -88.579L99.636 -87.409L101.206 -86.228L102.705 -85.037L104.133 -83.837L105.489 -82.628L106.772 -81.411L107.981 -80.187L109.116 -78.957L110.176 -77.721L111.16 -76.479L112.068 -75.234L112.898 -73.985L113.652 -72.733L114.327 -71.48L114.925 -70.225L115.443 -68.97L115.883 -67.715L118.009 -60.531L118.377 -59.252L118.663 -57.975L118.869 -56.7L118.993 -55.429L119.036 -54.162L118.998 -52.9L118.292 -42.925L117.587 -32.95L116.881 -22.974L116.176 -12.999L115.47 -3.02399L114.765 6.95099L114.059 16.926L113.354 26.901L112.648 36.876L111.943 46.851L111.238 56.826L110.532 66.801L109.827 76.776L109.154 86.287L109.034 87.543L108.833 88.793L108.551 90.036L108.187 91.272L104.947 100.732L104.778 101.228L104.342 102.43L103.828 103.622L103.235 104.805L102.564 105.977L101.816 107.138L100.989 108.286L97.584 112.806" />
    <path fill="none" stroke="black" stroke-width="24" stroke-linecap="round" stroke-linejoin="round" transform="matrix(1 0 0 -1 250 325)" d="M-153.332 94.966L-155.845 90.414L-156.521 89.161L-157.118 87.906L-157.636 86.651L-158.076 85.397L-158.436 84.143L-158.717 82.892L-160.593 73.069L-160.691 72.561L-160.896 71.286L-161.02 70.015L-161.063 68.748L-161.025 67.486L-160.319 57.51L-159.614 47.535L-158.909 37.56L-158.203 27.585L-157.498 17.61L-156.792 7.63501L-156.087 -2.34L-155.381 -12.315L-154.676 -22.29L-153.97 -32.265L-153.265 -42.24L-152.559 -52.215L-151.854 -62.191L-151.181 -71.701L-151.061 -72.958L-150.86 -74.208L-150.578 -75.451L-150.215 -76.686L-149.771 -77.912L-149.246 -79.129L-146.128 -85.947L-145.535 -87.13L-144.863 -88.303L-144.114 -89.464L-143.288 -90.613L-142.384 -91.75L-141.404 -92.873L-140.349 -93.981L-139.218 -95.075L-138.013 -96.154L-136.734 -97.216L-135.382 -98.262L-133.957 -99.291L-132.462 -100.301L-130.896 -101.293L-129.261 -102.266L-127.557 -103.219L-125.786 -104.151L-116.828 -108.596L-113.691 -110.152L-112.044 -110.969L-110.338 -111.767L-108.575 -112.546L-106.755 -113.304L-104.88 -114.041L-102.951 -114.758L-100.969 -115.453L-98.935 -116.126L-96.85 -116.776L-94.716 -117.404L-92.534 -118.009L-90.305 -118.59L-88.031 -119.148L-85.713 -119.681L-83.352 -120.19L-80.949 -120.674L-78.507 -121.133L-76.027 -121.567L-73.51 -121.975L-70.958 -122.357L-68.371 -122.713L-65.753 -123.043L-63.104 -123.346L-60.426 -123.622L-57.721 -123.872L-54.989 -124.095L-52.234 -124.291L-49.456 -124.459L-46.657 -124.6L-43.839 -124.713L-41.004 -124.799L-38.153 -124.858L-35.288 -124.889L-32.411 -124.892L-29.523 -124.868L-26.627 -124.816L-23.723 -124.736L-20.814 -124.629L-17.902 -124.495L-14.987 -124.333L-12.073 -124.144L-9.16 -123.927L-6.25101 -123.684L-3.347 -123.414L-0.449997 -123.117L2.438 -122.793L5.31599 -122.443L8.18201 -122.067L11.034 -121.665L13.87 -121.238L16.689 -120.785L19.488 -120.307L22.267 -119.804L25.024 -119.276L27.757 -118.724L30.464 -118.148L33.143 -117.549L35.794 -116.927L38.414 -116.281L41.002 -115.614L43.556 -114.924L46.075 -114.213L48.558 -113.48L51.002 -112.727L53.406 -111.953L55.77 -111.16L58.09 -110.347L60.367 -109.516L62.598 -108.666L64.783 -107.798L66.92 -106.913L69.007 -106.011L71.044 -105.093L73.029 -104.159L74.961 -103.21L76.839 -102.246L78.662 -101.269L80.428 -100.278L82.137 -99.274L83.788 -98.259L85.379 -97.231L86.909 -96.193L95.153 -90.532L97.997 -88.579L99.636 -87.409L101.206 -86.228L102.705 -85.037L104.133 -83.837L105.489 -82.628L106.772 -81.411L107.981 -80.187L109.116 -78.957L110.176 -77.721L111.16 -76.479L112.068 -75.234L112.898 -73.985L113.652 -72.733L114.327 -71.48L114.925 -70.225L115.443 -68.97L115.883 -67.715L118.009 -60.531L118.377 -59.252L118.663 -57.975L118.869 -56.7L118.993 -55.429L119.036 -54.162L118.998 -52.9L118.292 -42.925L117.587 -32.95L116.881 -22.974L116.176 -12.999L115.47 -3.02399L114.765 6.95099L114.059 16.926L113.354 26.901L112.648 36.876L111.943 46.851L111.238 56.826L110.532 66.801L109.827 76.776L109.154 86.287L109.034 87.543L108.833 88.793L108.551 90.036L108.187 91.272L104.947 100.732L104.778 101.228L104.342 102.43L103.828 103.622L103.235 104.805L102.564 105.977L101.816 107.138L100.989 108.286L97.584 112.806" />
    <path fill="none" stroke="black" stroke-width="24" stroke-linecap="round" stroke-linejoin="round" transform="matrix(1 0 0 -1 250 325)" d="M93.156 104.471L92.968 103.935L92.49 102.778L91.939 101.621L91.317 100.466L90.622 99.312L89.856 98.161L89.02 97.013L88.113 95.868L87.136 94.729L86.089 93.595L84.975 92.466L83.792 91.345L82.542 90.23L81.226 89.124L79.844 88.026L78.397 86.938L76.886 85.859L75.312 84.792L73.676 83.735L71.978 82.69L70.221 81.658L68.405 80.639L66.53 79.634L64.599 78.643L62.612 77.667L60.571 76.707L58.476 75.763L56.33 74.836L54.132 73.925L51.886 73.033L49.591 72.159L47.25 71.304L44.863 70.468L42.433 69.652L39.96 68.857L37.447 68.082L34.894 67.329L32.304 66.597L29.677 65.888L27.016 65.201L24.321 64.538L21.596 63.898L18.84 63.281L16.056 62.689L13.246 62.122L10.412 61.579L7.554 61.062L4.675 60.57L1.776 60.105L-1.14101 59.665L-4.073 59.251L-7.02 58.865L-9.98 58.505L-12.95 58.172L-15.929 57.867L-18.915 57.589L-21.907 57.339L-24.902 57.116L-27.899 56.922L-30.896 56.755L-33.891 56.617L-36.882 56.507L-39.868 56.425L-42.847 56.372L-45.817 56.347L-48.775 56.35L-51.722 56.382L-54.653 56.442L-57.569 56.53L-60.467 56.647L-63.345 56.792L-66.201 56.965L-69.035 57.166L-71.844 57.395L-74.626 57.652L-77.38 57.937L-80.104 58.249L-82.796 58.588L-85.456 58.954L-88.081 59.347L-90.669 59.766L-93.22 60.212L-95.731 60.684L-98.201 61.182L-100.629 61.705L-103.013 62.254L-105.352 62.827L-107.644 63.425L-109.888 64.047L-112.082 64.693L-114.226 65.362L-116.318 66.054L-118.356 66.768L-120.34 67.505L-122.268 68.263L-124.14 69.043L-125.953 69.843L-127.707 70.664L-129.401 71.504L-131.034 72.364L-132.604 73.242L-134.112 74.139L-135.555 75.053L-136.934 75.985L-138.246 76.933L-139.493 77.897L-140.672 78.876L-141.783 79.871L-142.825 80.879L-143.798 81.901L-144.701 82.936L-145.534 83.984L-146.296 85.043L-146.987 86.113L-147.598 87.181" />
    <path fill="none" stroke="black" stroke-width="24" stroke-linecap="round" stroke-linejoin="round" transform="matrix(1 0 0 -1 250 325)" d="M-30.724 187.961L-35.79 187.613L-40.846 187.178L-45.882 186.659L-50.888 186.055L-51.287 186.006L-56.368 185.303L-61.398 184.517L-66.366 183.649L-71.262 182.701L-76.077 181.675L-80.8 180.572L-85.423 179.396L-89.935 178.148L-94.328 176.832L-98.593 175.449L-102.721 174.002L-106.705 172.495L-110.535 170.93L-112.176 170.235L-115.925 168.581L-119.503 166.874L-122.901 165.118L-126.114 163.317L-129.134 161.474L-130.975 160.315L-133.853 158.397L-136.523 156.444L-138.979 154.46L-140.779 152.932L-143.057 150.886L-145.107 148.816L-146.755 146.988L-148.603 144.867L-150.213 142.73L-151.658 140.641L-153.044 138.465L-154.183 136.282L-155.383 133.976L-156.282 131.766L-157.195 129.309L-157.845 127.083L-158.455 124.517L-158.85 122.284L-159.144 119.651L-159.279 117.421L-159.253 114.766L-159.126 112.549L-158.778 109.916L-158.39 107.722L-157.727 105.155L-157.081 102.994L-156.114 100.536L-155.216 98.416L-153.963 96.108L-153.332 94.966L-152.819 94.039L-151.425 92.008L-149.925 89.91L-148.301 87.941L-147.598 87.181L-146.571 86.07L-144.73 84.171L-142.654 82.319L-140.758 80.736L-138.487 78.963L-135.994 77.245L-133.987 75.979L-131.323 74.347L-128.451 72.775L-125.377 71.267L-123.377 70.371L-120.17 68.957L-116.777 67.61L-113.205 66.334L-109.461 65.131L-105.552 64.003L-103.81 63.541L-99.831 62.513L-95.707 61.564L-91.446 60.694L-87.057 59.906L-82.548 59.202L-77.929 58.582L-73.208 58.049L-68.396 57.602L-63.502 57.244L-58.536 56.974L-53.508 56.794L-48.428 56.703L-43.307 56.702L-38.153 56.791L-37.843 56.797L-32.787 56.972L-27.721 57.233L-22.655 57.582L-17.599 58.016L-12.563 58.536L-7.558 59.14L-7.158 59.189L-2.077 59.892L2.953 60.678L7.92101 61.546L12.817 62.494L17.632 63.52L22.355 64.622L26.978 65.798L31.49 67.046L35.883 68.363L40.148 69.746L44.276 71.193L48.26 72.7L52.09 74.265L53.731 74.959L57.48 76.614L61.058 78.321L64.456 80.077L67.669 81.878L70.689 83.72L72.53 84.88L75.408 86.798L78.078 88.751L80.534 90.735L82.334 92.263L84.611 94.309L86.662 96.379L88.31 98.206L90.158 100.328L91.768 102.464L93.156 104.471L93.213 104.553L94.599 106.73L95.738 108.912L96.938 111.219L97.584 112.806L97.837 113.428L98.75 115.885L99.4 118.111L100.01 120.678L100.404 122.911L100.699 125.544L100.834 127.773L100.807 130.429L100.68 132.646L100.333 135.279L99.945 137.473L99.282 140.04L98.636 142.201L97.669 144.659L96.77 146.778L95.518 149.087L94.374 151.155L92.98 153.187L91.48 155.285L89.856 157.254L88.126 159.124L86.284 161.024L84.209 162.875L82.313 164.459L80.042 166.231L77.548 167.95L75.542 169.216L72.878 170.848L70.006 172.419L66.932 173.928L64.932 174.823L61.725 176.238L58.332 177.584L54.76 178.861L51.016 180.064L47.107 181.191L45.365 181.653L41.386 182.681L37.262 183.631L33.001 184.5L28.612 185.288L24.103 185.993L19.484 186.612L14.763 187.146L9.951 187.592L5.05701 187.951L0.0910034 188.22L-4.937 188.401L-10.017 188.491L-15.139 188.492L-20.292 188.403L-20.602 188.397L-25.658 188.223L-30.724 187.961" />
    <path fill="none" stroke="black" stroke-width="24" stroke-linecap="round" stroke-linejoin="round" transform="matrix(1 0 0 -1 250 325)" d="M-108.928 120.815L-109.262 121.112L-109.28 121.128L-109.401 121.236L-109.403 121.238L-109.464 121.301L-109.492 121.33L-109.699 121.543L-110.653 122.528" />
    <path fill="none" stroke="black" stroke-width="24" stroke-linecap="round" stroke-linejoin="round" transform="matrix(1 0 0 -1 250 325)" d="M-107.012 119.436L-108.287 120.314L-108.928 120.815L-109.238 121.057L-109.258 121.072L-109.279 121.088L-109.397 121.181L-109.421 121.199L-109.434 121.209L-109.493 121.255L-109.889 121.564" />
    <path fill="none" stroke="black" stroke-width="24" stroke-linecap="round" stroke-linejoin="round" transform="matrix(1 0 0 -1 250 325)" d="M-102.482 117.04L-103.153 117.369L-103.189 117.387L-103.197 117.391L-104.465 118.013L-106.577 119.169L-107.012 119.436L-108.194 120.159L-108.244 120.191L-108.536 120.369" />
    <path fill="none" stroke="black" stroke-width="24" stroke-linecap="round" stroke-linejoin="round" transform="matrix(1 0 0 -1 250 325)" d="M82.334 92.263L79.834 90.244L77.117 88.256L74.188 86.304L71.053 84.391L67.718 82.522L64.191 80.7L60.478 78.928L56.587 77.211L52.525 75.552L48.301 73.953L43.923 72.419L39.401 70.953L34.742 69.556L29.958 68.233L25.056 66.986L20.047 65.817L14.942 64.729L9.75 63.724L4.48199 62.803L-0.852005 61.97L-6.24001 61.224L-11.673 60.569L-17.138 60.005L-22.625 59.534L-28.123 59.156L-33.621 58.871L-39.108 58.682L-44.572 58.588L-50.003 58.589L-55.39 58.685L-60.722 58.876L-65.988 59.162L-71.178 59.542L-76.28 60.016L-81.286 60.581L-86.184 61.238L-90.965 61.985L-95.62 62.821L-100.138 63.743L-104.512 64.75L-108.731 65.84L-112.787 67.01L-116.674 68.259L-120.381 69.584L-123.903 70.981L-127.231 72.449L-130.36 73.985L-133.283 75.584L-135.994 77.245" />
    <path fill="none" stroke="black" stroke-width="24" stroke-linecap="round" stroke-linejoin="round" transform="matrix(1 0 0 -1 250 325)" d="M-90.892 113.016L-93.491 113.765L-96.373 114.691L-99.123 115.674L-101.735 116.71L-102.482 117.04L-103.183 117.349L-103.223 117.367L-103.23 117.37L-104.203 117.799" />
    <path fill="none" stroke="black" stroke-width="24" stroke-linecap="round" stroke-linejoin="round" transform="matrix(1 0 0 -1 250 325)" d="M-39.462 107.899L-43.327 107.833L-47.466 107.833L-51.571 107.907L-55.635 108.052L-59.648 108.27L-63.603 108.56L-67.492 108.921L-71.307 109.352L-75.04 109.853L-78.684 110.422L-82.232 111.059L-85.675 111.761L-89.008 112.529L-90.892 113.016L-92.224 113.359" />
    <path fill="none" stroke="black" stroke-width="24" stroke-linecap="round" stroke-linejoin="round" transform="matrix(1 0 0 -1 250 325)" d="M-13.714 109.891L-14.045 109.851L-17.971 109.378L-22.255 108.936L-26.555 108.566L-30.864 108.27L-35.173 108.047L-39.462 107.899L-39.473 107.899" />
    <path fill="none" stroke="black" stroke-width="24" stroke-linecap="round" stroke-linejoin="round" transform="matrix(1 0 0 -1 250 325)" d="M33.769 122.026L32.877 121.661L30.674 120.761L27.454 119.543L24.118 118.374L20.671 117.256L17.121 116.192L13.474 115.184L9.739 114.233L5.92101 113.342L2.03 112.513L-1.927 111.747L-5.942 111.045L-10.006 110.41L-14.045 109.851" />
    <path fill="none" stroke="black" stroke-width="24" stroke-linecap="round" stroke-linejoin="round" transform="matrix(1 0 0 -1 250 325)" d="M45.182 128.075L44.784 127.832L44.778 127.828L44.744 127.807L43.996 127.351L42.857 126.656L40.384 125.27L37.768 123.918L35.014 122.605L32.877 121.661" />
    <path fill="none" stroke="black" stroke-width="24" stroke-linecap="round" stroke-linejoin="round" transform="matrix(1 0 0 -1 250 325)" d="M49.228 131.221L48.254 130.434L47.422 129.762L45.458 128.326L44.744 127.85L44.738 127.845L44.708 127.825L43.996 127.351" />
    <path fill="none" stroke="black" stroke-width="24" stroke-linecap="round" stroke-linejoin="round" transform="matrix(1 0 0 -1 250 325)" d="M50.481 132.595L50.396 132.509L50.385 132.498L50.366 132.479L50.323 132.435L50.235 132.347L50.227 132.339L50.225 132.337L50.026 132.135L49.035 131.136L48.254 130.434" />
    <path fill="none" stroke="black" stroke-width="24" stroke-linecap="round" stroke-linejoin="round" transform="matrix(1 0 0 -1 250 325)" d="M51.182 133.659L50.574 132.852L50.46 132.701L50.444 132.679L50.396 132.616L50.254 132.427L50.25 132.421L50.089 132.209L50.026 132.135" />
    <path fill="none" stroke="black" stroke-width="24" stroke-linecap="round" stroke-linejoin="round" transform="matrix(1 0 0 -1 250 325)" d="M51.397 134.434L50.649 133L50.464 132.71L50.444 132.679" />
    <path fill="none" stroke="black" stroke-width="24" stroke-linecap="round" stroke-linejoin="round" transform="matrix(1 0 0 -1 250 325)" d="M50.772 133.539L50.396 132.616" />
    <path fill="none" stroke="black" stroke-width="24" stroke-linecap="round" stroke-linejoin="round" transform="matrix(1 0 0 -1 250 325)" d="M50.265 132.473L50.25 132.421" />
    <path fill="none" stroke="black" stroke-width="24" stroke-linecap="round" stroke-linejoin="round" transform="matrix(1 0 0 -1 250 325)" d="M43.759 128.291L44.037 128.155L44.708 127.825" />
    <path fill="none" stroke="black" stroke-width="24" stroke-linecap="round" stroke-linejoin="round" transform="matrix(1 0 0 -1 250 325)" d="M-109.484 121.337L-110.112 122.473" />
    <path fill="none" stroke="black" stroke-width="24" stroke-linecap="round" stroke-linejoin="round" transform="matrix(1 0 0 -1 250 325)" d="M-109.401 121.236L-109.484 121.337L-109.519 121.379L-109.99 121.951" />
    <path fill="none" stroke="black" stroke-width="24" stroke-linecap="round" stroke-linejoin="round" transform="matrix(1 0 0 -1 250 325)" d="M-109.262 121.112L-109.422 121.489" />
  </g>
</svg>