<?xml version='1.0' encoding='utf-8'?>
<svg xmlns="http://www.w3.org/2000/svg" version="1.1" width="500" height="650" viewBox="0 0 500 650">
  <g>
    <path fill="none" stroke="none" transform="matrix(1 0 0 -1 250 325)" d="M-92.329 93.825L-98.677 86.099L-99.786 84.749L-100.448 83.875L-101.032 82.987L-101.537 82.085L-101.964 81.17L-105.709 71.898L-106.037 71.085L-106.393 70.139L-106.668 69.181L-106.862 68.211L-108.186 58.299L-109.509 48.387L-110.833 38.475L-112.156 28.563L-113.48 18.651L-114.804 8.73901L-116.127 -1.173L-117.451 -11.085L-118.774 -20.997L-120.098 -30.909L-121.422 -40.821L-122.745 -50.733L-124.069 -60.645L-125.392 -70.557L-125.925 -74.545L-126.038 -75.526L-126.071 -76.517L-126.022 -77.518L-125.893 -78.528L-125.683 -79.546L-124.034 -87.137L-123.749 -88.144L-123.385 -89.157L-122.942 -90.178L-122.421 -91.204L-121.822 -92.235L-121.145 -93.272L-120.39 -94.312L-119.559 -95.356L-118.651 -96.402L-117.668 -97.451L-116.609 -98.502L-115.475 -99.553L-114.268 -100.605L-106.716 -107.16L-102.991 -110.393L-101.843 -111.335L-100.63 -112.277L-99.353 -113.217L-98.012 -114.155L-96.609 -115.091L-95.144 -116.024L-93.618 -116.952L-92.032 -117.877L-90.388 -118.797L-88.685 -119.712L-86.925 -120.62L-85.109 -121.522L-83.238 -122.418L-81.314 -123.305L-79.336 -124.185L-77.308 -125.056L-75.229 -125.918L-73.102 -126.77L-70.927 -127.612L-68.705 -128.444L-66.439 -129.264L-64.129 -130.073L-61.777 -130.869L-59.383 -131.653L-56.951 -132.424L-54.481 -133.181L-51.974 -133.925L-49.432 -134.654L-46.857 -135.367L-44.25 -136.066L-41.613 -136.749L-38.948 -137.416L-36.255 -138.066L-33.536 -138.699L-30.794 -139.315L-28.03 -139.913L-25.246 -140.493L-22.442 -141.055L-19.622 -141.597L-16.786 -142.121L-13.936 -142.626L-11.074 -143.11L-8.202 -143.575L-5.32201 -144.02L-2.43401 -144.443L0.457993 -144.847L3.354 -145.229L6.25101 -145.59L9.14799 -145.929L12.043 -146.247L14.934 -146.542L17.82 -146.816L20.699 -147.067L23.569 -147.297L26.429 -147.503L29.276 -147.687L32.109 -147.848L34.927 -147.987L37.726 -148.102L40.507 -148.195L43.267 -148.264L46.005 -148.31L48.718 -148.333L51.406 -148.334L54.066 -148.31L56.697 -148.264L59.298 -148.195L61.866 -148.103L64.401 -147.987L66.901 -147.849L69.364 -147.688L71.789 -147.504L74.174 -147.297L76.518 -147.068L78.82 -146.817L81.078 -146.543L83.29 -146.247L85.456 -145.93L87.574 -145.591L89.643 -145.23L91.661 -144.848L93.628 -144.445L95.542 -144.021L97.402 -143.576L99.207 -143.112L100.956 -142.627L102.648 -142.123L104.281 -141.599L105.855 -141.056L107.369 -140.495L108.822 -139.915L110.213 -139.316L111.541 -138.701L120.549 -134.358L125.056 -132.184L126.467 -131.478L127.806 -130.753L129.072 -130.009L130.265 -129.248L131.384 -128.468L132.428 -127.672L133.396 -126.859L134.289 -126.03L135.105 -125.185L135.845 -124.325L136.506 -123.451L137.09 -122.562L137.596 -121.66L141.183 -114.76L141.619 -113.827L141.975 -112.881L142.25 -111.923L142.444 -110.953L143.768 -101.041L145.091 -91.129L146.415 -81.217L147.738 -71.305L149.062 -61.393L150.386 -51.481L151.709 -41.569L153.033 -31.657L154.356 -21.745L155.68 -11.833L157.004 -1.92099L158.327 7.991L159.651 17.903L160.974 27.815L161.507 31.803L161.62 32.784L161.653 33.775L161.604 34.776L160.424 44.706L160.319 45.588L160.192 46.578L159.986 47.576L159.702 48.582L159.338 49.596L158.895 50.615L154.797 59.737L154.237 60.983" />
    <path fill="none" stroke="black" stroke-width="24" stroke-linecap="round" stroke-linejoin="round" transform="matrix(1 0 0 -1 250 325)" d="M-92.329 93.825L-98.677 86.099L-99.786 84.749L-100.448 83.875L-101.032 82.987L-101.537 82.085L-101.964 81.17L-105.709 71.898L-106.037 71.085L-106.393 70.139L-106.668 69.181L-106.862 68.211L-108.186 58.299L-109.509 48.387L-110.833 38.475L-112.156 28.563L-113.48 18.651L-114.804 8.73901L-116.127 -1.173L-117.451 -11.085L-118.774 -20.997L-120.098 -30.909L-121.422 -40.821L-122.745 -50.733L-124.069 -60.645L-125.392 -70.557L-125.925 -74.545L-126.038 -75.526L-126.071 -76.517L-126.022 -77.518L-125.893 -78.528L-125.683 -79.546L-124.034 -87.137L-123.749 -88.144L-123.385 -89.157L-122.942 -90.178L-122.421 -91.204L-121.822 -92.235L-121.145 -93.272L-120.39 -94.312L-119.559 -95.356L-118.651 -96.402L-117.668 -97.451L-116.609 -98.502L-115.475 -99.553L-114.268 -100.605L-106.716 -107.16L-102.991 -110.393L-101.843 -111.335L-100.63 -112.277L-99.353 -113.217L-98.012 -114.155L-96.609 -115.091L-95.144 -116.024L-93.618 -116.952L-92.032 -117.877L-90.388 -118.797L-88.685 -119.712L-86.925 -120.62L-85.109 -121.522L-83.238 -122.418L-81.314 -123.305L-79.336 -124.185L-77.308 -125.056L-75.229 -125.918L-73.102 -126.77L-70.927 -127.612L-68.705 -128.444L-66.439 -129.264L-64.129 -130.073L-61.777 -130.869L-59.383 -131.653L-56.951 -132.424L-54.481 -133.181L-51.974 -133.925L-49.432 -134.654L-46.857 -135.367L-44.25 -136.066L-41.613 -136.749L-38.948 -137.416L-36.255 -138.066L-33.536 -138.699L-30.794 -139.315L-28.03 -139.913L-25.246 -140.493L-22.442 -141.055L-19.622 -141.597L-16.786 -142.121L-13.936 -142.626L-11.074 -143.11L-8.202 -143.575L-5.32201 -144.02L-2.43401 -144.443L0.457993 -144.847L3.354 -145.229L6.25101 -145.59L9.14799 -145.929L12.043 -146.247L14.934 -146.542L17.82 -146.816L20.699 -147.067L23.569 -147.297L26.429 -147.503L29.276 -147.687L32.109 -147.848L34.927 -147.987L37.726 -148.102L40.507 -148.195L43.267 -148.264L46.005 -148.31L48.718 -148.333L51.406 -148.334L54.066 -148.31L56.697 -148.264L59.298 -148.195L61.866 -148.103L64.401 -147.987L66.901 -147.849L69.364 -147.688L71.789 -147.504L74.174 -147.297L76.518 -147.068L78.82 -146.817L81.078 -146.543L83.29 -146.247L85.456 -145.93L87.574 -145.591L89.643 -145.23L91.661 -144.848L93.628 -144.445L95.542 -144.021L97.402 -143.576L99.207 -143.112L100.956 -142.627L102.648 -142.123L104.281 -141.599L105.855 -141.056L107.369 -140.495L108.822 -139.915L110.213 -139.316L111.541 -138.701L120.549 -134.358L125.056 -132.184L126.467 -131.478L127.806 -130.753L129.072 -130.009L130.265 -129.248L131.384 -128.468L132.428 -127.672L133.396 -126.859L134.289 -126.03L135.105 -125.185L135.845 -124.325L136.506 -123.451L137.09 -122.562L137.596 -121.66L141.183 -114.76L141.619 -113.827L141.975 -112.881L142.25 -111.923L142.444 -110.953L143.768 -101.041L145.091 -91.129L146.415 -81.217L147.738 -71.305L149.062 -61.393L150.386 -51.481L151.709 -41.569L153.033 -31.657L154.356 -21.745L155.68 -11.833L157.004 -1.92099L158.327 7.991L159.651 17.903L160.974 27.815L161.507 31.803L161.62 32.784L161.653 33.775L161.604 34.776L160.424 44.706L160.319 45.588L160.192 46.578L159.986 47.576L159.702 48.582L159.338 49.596L158.895 50.615L154.797 59.737L154.237 60.983" />
    <path fill="none" stroke="black" stroke-width="24" stroke-linecap="round" stroke-linejoin="round" transform="matrix(1 0 0 -1 250 325)" d="M151.332 57.916L151.094 57.405L150.628 56.573L150.089 55.754L149.479 54.948L148.798 54.155L148.045 53.377L147.222 52.612L146.329 51.863L145.367 51.129L144.336 50.411L143.236 49.708L142.069 49.023L140.834 48.354L139.534 47.703L138.168 47.07L136.738 46.455L135.244 45.859L133.687 45.281L132.068 44.723L130.388 44.184L128.649 43.666L126.85 43.167L124.994 42.689L123.082 42.232L121.113 41.796L119.091 41.382L117.015 40.989L114.888 40.618L112.709 40.269L110.482 39.943L108.207 39.639L105.885 39.357L103.518 39.099L101.108 38.863L98.655 38.651L96.162 38.462L93.629 38.296L91.299 38.167L91.058 38.154L88.451 38.035L85.81 37.94L83.136 37.869L80.43 37.821L77.694 37.797L74.93 37.797L72.14 37.821L69.325 37.869L66.487 37.94L63.627 38.035L60.748 38.154L57.851 38.296L54.937 38.462L52.009 38.651L49.069 38.864L46.117 39.099L43.157 39.358L40.189 39.639L37.216 39.944L34.238 40.27L31.259 40.619L28.28 40.99L25.302 41.383L22.328 41.798L19.359 42.234L16.397 42.691L13.443 43.169L10.5 43.667L7.57001 44.186L4.65401 44.724L1.75301 45.283L-1.13 45.86L-3.993 46.457L-6.836 47.072L-9.65601 47.705L-12.451 48.356L-15.22 49.025L-17.961 49.71L-20.673 50.413L-23.354 51.131L-26.002 51.865L-28.616 52.615L-31.194 53.379L-33.734 54.158L-36.235 54.95L-38.548 55.708L-38.696 55.757L-41.115 56.576L-43.491 57.407L-45.821 58.251L-48.106 59.106L-50.343 59.972L-52.53 60.848L-54.668 61.735L-56.754 62.63L-58.787 63.535L-60.766 64.448L-62.69 65.368L-64.557 66.296L-66.367 67.231L-68.118 68.171L-69.81 69.117L-71.44 70.068L-73.01 71.023L-74.516 71.982L-75.959 72.944L-77.338 73.909L-78.651 74.876L-79.898 75.845L-81.079 76.814L-82.192 77.783L-83.237 78.753L-84.213 79.721L-85.119 80.688L-85.956 81.653L-86.722 82.615L-87.418 83.574L-88.042 84.529L-88.594 85.48L-89.075 86.426L-89.483 87.366L-89.818 88.301L-90.081 89.228L-90.227 89.936" />
    <path fill="none" stroke="black" stroke-width="24" stroke-linecap="round" stroke-linejoin="round" transform="matrix(1 0 0 -1 250 325)" d="M91.299 38.167L92.542 38.253L96.676 38.619L100.676 39.057L102.461 39.277L106.411 39.797L110.208 40.388L113.844 41.049L117.313 41.778L120.608 42.575L123.721 43.437L125.917 44.065L128.906 45.01L131.698 46.019L134.286 47.089L136.545 48.082L138.972 49.233L141.181 50.442L143.378 51.765L145.401 53.052L147.194 54.393L149.271 56.024L150.855 57.437L151.332 57.916L152.741 59.329L154.103 60.811L154.237 60.983L155.764 62.935L156.892 64.48L158.3 66.803L159.184 68.406L160.314 70.891L160.947 72.546L161.78 75.155L162.156 76.854L162.678 79.546L162.88 82.281L162.996 84.015L162.877 86.752L162.734 88.511L162.295 91.207L161.895 92.983L161.145 95.595L160.494 97.38L159.447 99.868L158.553 101.653L157.228 103.976L156.102 105.754L154.523 107.876L153.174 109.639L151.589 111.411L149.813 113.268L148.026 115.014L146.015 116.762L144.091 118.317L141.901 120.029L139.498 121.736L136.888 123.434L134.926 124.621L132.173 126.271L129.227 127.906L126.094 129.523L122.78 131.118L119.293 132.688L115.638 134.23L113.963 134.914L110.237 136.391L106.362 137.833L102.347 139.24L98.199 140.607L93.927 141.932L89.54 143.212L85.046 144.446L80.455 145.629L75.775 146.761L71.016 147.838L66.188 148.859L61.3 149.821L56.363 150.722L51.386 151.562L46.378 152.337L41.352 153.047L36.315 153.689L31.279 154.264L26.254 154.769L21.25 155.203L16.276 155.566L11.343 155.857L6.46201 156.076L1.64101 156.221L-3.11 156.293L-7.78101 156.291L-12.362 156.216L-16.845 156.068L-21.221 155.846L-25.479 155.552L-29.613 155.185L-33.614 154.747L-35.398 154.528L-39.348 154.007L-43.145 153.416L-46.782 152.756L-50.251 152.026L-53.545 151.23L-56.659 150.368L-58.854 149.74L-61.844 148.794L-64.635 147.785L-67.224 146.715L-69.482 145.723L-71.909 144.571L-74.119 143.362L-76.315 142.039L-78.339 140.752L-80.132 139.412L-82.209 137.781L-83.793 136.367L-85.679 134.475L-87.04 132.993L-88.702 130.87L-89.829 129.324L-91.238 127.002L-92.121 125.398L-93.252 122.913L-93.884 121.258L-94.717 118.649L-95.093 116.95L-95.615 114.258L-95.818 111.523L-95.934 109.789L-95.814 107.052L-95.671 105.293L-95.232 102.597L-94.832 100.821L-94.082 98.209L-93.432 96.424L-92.384 93.937L-92.329 93.825L-91.491 92.152L-90.227 89.936L-90.166 89.828L-89.039 88.05L-87.46 85.928L-86.112 84.165L-84.527 82.393L-82.75 80.537L-80.964 78.79L-78.952 77.043L-77.028 75.488L-74.838 73.776L-72.435 72.069L-69.825 70.37L-67.864 69.184L-65.11 67.534L-62.164 65.898L-59.031 64.282L-55.717 62.687L-52.23 61.117L-48.576 59.575L-46.901 58.89L-43.174 57.414L-39.299 55.971L-38.548 55.708" />
    <path fill="none" stroke="black" stroke-width="24" stroke-linecap="round" stroke-linejoin="round" transform="matrix(1 0 0 -1 250 325)" d="M-46.675 116.846L-46.694 116.867L-46.799 116.985L-46.936 117.138L-47.159 117.429L-47.887 118.381" />
    <path fill="none" stroke="black" stroke-width="24" stroke-linecap="round" stroke-linejoin="round" transform="matrix(1 0 0 -1 250 325)" d="M-45.387 115.684L-46.281 116.46L-46.675 116.846L-46.69 116.86L-46.777 116.945L-46.932 117.097L-47.258 117.416L-47.594 117.745" />
    <path fill="none" stroke="black" stroke-width="24" stroke-linecap="round" stroke-linejoin="round" transform="matrix(1 0 0 -1 250 325)" d="M143.378 51.765L141.129 50.534L138.659 49.362L135.972 48.252L133.075 47.205L129.973 46.223L126.671 45.309L123.178 44.465L119.499 43.691L115.643 42.991L111.616 42.364L107.428 41.812L103.086 41.337L98.6 40.94L93.978 40.62L89.23 40.38L84.365 40.218L79.393 40.137L74.324 40.135L69.168 40.213L63.936 40.371L58.638 40.608L53.284 40.924L47.887 41.318L42.456 41.789L37.002 42.337L31.537 42.961L26.071 43.658L20.615 44.428L15.181 45.27L9.78 46.181L4.42101 47.159L-0.882996 48.203L-6.123 49.311L-11.287 50.48L-16.366 51.708L-21.349 52.993L-26.226 54.331L-30.988 55.721L-35.624 57.159L-40.125 58.642L-44.483 60.169L-48.688 61.734L-52.732 63.336L-56.607 64.971L-60.305 66.636L-63.819 68.328L-67.141 70.042L-70.265 71.776L-73.185 73.526L-75.894 75.288L-78.388 77.06L-80.661 78.837L-82.709 80.616L-84.527 82.393" />
    <path fill="none" stroke="black" stroke-width="24" stroke-linecap="round" stroke-linejoin="round" transform="matrix(1 0 0 -1 250 325)" d="M-41.404 112.936L-43.189 114.098L-44.67 115.15L-45.039 115.412L-45.387 115.684L-46.214 116.331L-46.323 116.416L-46.491 116.547L-46.567 116.607L-46.597 116.63L-46.725 116.73" />
    <path fill="none" stroke="black" stroke-width="24" stroke-linecap="round" stroke-linejoin="round" transform="matrix(1 0 0 -1 250 325)" d="M-28.395 106.567L-30.506 107.458L-33.325 108.727L-36.003 110.016L-38.535 111.322L-40.916 112.644L-41.404 112.936L-43.141 113.977" />
    <path fill="none" stroke="black" stroke-width="24" stroke-linecap="round" stroke-linejoin="round" transform="matrix(1 0 0 -1 250 325)" d="M96.293 90.028L95.637 89.956L92.891 89.656L89.838 89.385L89.375 89.344L85.752 89.094L82.031 88.905L78.218 88.779L74.321 88.715L70.349 88.714L66.308 88.775L62.207 88.898L58.055 89.084L53.86 89.332L49.63 89.64L45.373 90.01L41.099 90.439L36.816 90.928L32.532 91.475L28.256 92.078L23.998 92.738L19.764 93.452L15.565 94.218L11.407 95.037L7.30099 95.905L3.25301 96.821L-0.727005 97.784L-4.633 98.79L-8.455 99.839L-12.186 100.928L-15.82 102.055L-19.347 103.218L-22.763 104.414L-22.776 104.419L-26.058 105.641L-28.395 106.567L-29.228 106.897" />
    <path fill="none" stroke="black" stroke-width="24" stroke-linecap="round" stroke-linejoin="round" transform="matrix(1 0 0 -1 250 325)" d="M111.691 93.169L110.012 92.705L109.175 92.473L106.512 91.829L103.709 91.24L100.77 90.706L97.701 90.228L95.637 89.956" />
    <path fill="none" stroke="black" stroke-width="24" stroke-linecap="round" stroke-linejoin="round" transform="matrix(1 0 0 -1 250 325)" d="M115.938 94.869L115.883 94.847L115.677 94.762L115.557 94.712L114.656 94.34L113.945 94.046L113.824 94.002L111.796 93.269L110.012 92.705" />
    <path fill="none" stroke="black" stroke-width="24" stroke-linecap="round" stroke-linejoin="round" transform="matrix(1 0 0 -1 250 325)" d="M117.09 95.613L116.878 95.497L116.494 95.287L116.284 95.172L116.251 95.154L116.188 95.119L115.465 94.723L114.656 94.34" />
    <path fill="none" stroke="black" stroke-width="24" stroke-linecap="round" stroke-linejoin="round" transform="matrix(1 0 0 -1 250 325)" d="M117.585 96.143L116.777 95.539L116.32 95.198L116.292 95.18L116.251 95.154" />
  </g>
</svg>