<?xml version='1.0' encoding='utf-8'?>
<svg xmlns="http://www.w3.org/2000/svg" version="1.1" width="500" height="650" viewBox="0 0 500 650">
  <g>
    <path fill="none" stroke="none" transform="matrix(1 0 0 -1 250 325)" d="M-119.469 31.088L-125.101 22.825L-126.07 21.403L-126.666 20.492L-127.183 19.574L-127.621 18.649L-127.98 17.718L-130.886 8.14999L-131.145 7.297L-131.43 6.34201L-131.634 5.38101L-131.757 4.41599L-132.199 -5.57401L-132.641 -15.565L-133.083 -25.555L-133.525 -35.545L-133.967 -45.535L-134.409 -55.526L-134.851 -65.516L-135.293 -75.506L-135.735 -85.496L-136.177 -95.486L-136.62 -105.477L-137.062 -115.467L-137.504 -125.457L-137.946 -135.447L-138.134 -139.708L-138.175 -140.677L-138.135 -141.649L-138.013 -142.624L-137.81 -143.602L-137.525 -144.58L-135.211 -152.013L-134.852 -152.974L-134.414 -153.934L-133.898 -154.895L-133.302 -155.855L-132.628 -156.813L-131.876 -157.769L-131.047 -158.723L-130.141 -159.674L-129.158 -160.621L-128.099 -161.564L-126.965 -162.502L-125.757 -163.434L-117.669 -169.316L-113.501 -172.348L-112.352 -173.178L-111.137 -174.003L-109.857 -174.822L-108.513 -175.633L-107.106 -176.438L-105.637 -177.234L-104.107 -178.022L-102.516 -178.802L-100.865 -179.572L-99.156 -180.333L-97.389 -181.083L-95.566 -181.823L-93.687 -182.552L-91.754 -183.269L-89.768 -183.975L-87.731 -184.668L-85.642 -185.348L-83.504 -186.016L-81.319 -186.669L-79.086 -187.309L-76.808 -187.934L-74.485 -188.545L-72.121 -189.14L-69.714 -189.72L-67.268 -190.285L-64.784 -190.833L-62.263 -191.365L-59.707 -191.879L-57.117 -192.377L-54.494 -192.858L-51.841 -193.32L-49.159 -193.765L-46.45 -194.192L-43.715 -194.6L-40.955 -194.989L-38.173 -195.359L-35.371 -195.71L-32.549 -196.042L-29.71 -196.354L-26.855 -196.646L-23.986 -196.919L-21.105 -197.171L-18.214 -197.403L-15.313 -197.614L-12.406 -197.805L-9.493 -197.976L-6.577 -198.125L-3.659 -198.254L-0.740997 -198.362L2.175 -198.448L5.088 -198.514L7.995 -198.558L10.896 -198.582L13.787 -198.584L16.669 -198.565L19.538 -198.525L22.393 -198.464L25.232 -198.382L28.054 -198.279L30.856 -198.155L33.639 -198.01L36.398 -197.844L39.133 -197.658L41.843 -197.451L44.525 -197.224L47.179 -196.976L49.801 -196.708L52.392 -196.42L54.948 -196.112L57.47 -195.785L59.954 -195.438L62.401 -195.072L64.807 -194.686L67.172 -194.282L69.495 -193.86L71.773 -193.419L74.006 -192.96L76.193 -192.484L78.331 -191.99L80.42 -191.479L82.458 -190.951L84.444 -190.406L86.378 -189.845L88.257 -189.269L90.08 -188.676L91.848 -188.069L93.557 -187.447L95.208 -186.81L96.8 -186.16L98.331 -185.496L99.801 -184.818L101.208 -184.128L102.552 -183.425L103.833 -182.71L105.048 -181.984L113.623 -176.839L118.049 -174.184L119.332 -173.361L120.541 -172.527L121.675 -171.681L122.735 -170.824L123.718 -169.956L124.625 -169.079L125.455 -168.192L126.208 -167.297L126.882 -166.393L127.478 -165.482L127.996 -164.563L128.434 -163.638L131.397 -156.437L131.763 -155.487L132.048 -154.532L132.252 -153.571L132.375 -152.606L132.817 -142.616L133.259 -132.626L133.701 -122.635L134.143 -112.645L134.585 -102.655L135.027 -92.665L135.469 -82.675L135.911 -72.684L136.353 -62.694L136.795 -52.704L137.237 -42.714L137.679 -32.723L138.121 -22.733L138.564 -12.743L138.752 -8.48199L138.793 -7.513L138.753 -6.54099L138.631 -5.56601L138.428 -4.58899L136.378 5.19901L136.196 6.07001L135.917 7.02899L135.558 7.98901L135.121 8.95001L134.604 9.91L129.724 18.638L128.857 20.189" />
    <path fill="none" stroke="black" stroke-width="24" stroke-linecap="round" stroke-linejoin="round" transform="matrix(1 0 0 -1 250 325)" d="M-119.469 31.088L-125.101 22.825L-126.07 21.403L-126.666 20.492L-127.183 19.574L-127.621 18.649L-127.98 17.718L-130.886 8.14999L-131.145 7.297L-131.43 6.34201L-131.634 5.38101L-131.757 4.41599L-132.199 -5.57401L-132.641 -15.565L-133.083 -25.555L-133.525 -35.545L-133.967 -45.535L-134.409 -55.526L-134.851 -65.516L-135.293 -75.506L-135.735 -85.496L-136.177 -95.486L-136.62 -105.477L-137.062 -115.467L-137.504 -125.457L-137.946 -135.447L-138.134 -139.708L-138.175 -140.677L-138.135 -141.649L-138.013 -142.624L-137.81 -143.602L-137.525 -144.58L-135.211 -152.013L-134.852 -152.974L-134.414 -153.934L-133.898 -154.895L-133.302 -155.855L-132.628 -156.813L-131.876 -157.769L-131.047 -158.723L-130.141 -159.674L-129.158 -160.621L-128.099 -161.564L-126.965 -162.502L-125.757 -163.434L-117.669 -169.316L-113.501 -172.348L-112.352 -173.178L-111.137 -174.003L-109.857 -174.822L-108.513 -175.633L-107.106 -176.438L-105.637 -177.234L-104.107 -178.022L-102.516 -178.802L-100.865 -179.572L-99.156 -180.333L-97.389 -181.083L-95.566 -181.823L-93.687 -182.552L-91.754 -183.269L-89.768 -183.975L-87.731 -184.668L-85.642 -185.348L-83.504 -186.016L-81.319 -186.669L-79.086 -187.309L-76.808 -187.934L-74.485 -188.545L-72.121 -189.14L-69.714 -189.72L-67.268 -190.285L-64.784 -190.833L-62.263 -191.365L-59.707 -191.879L-57.117 -192.377L-54.494 -192.858L-51.841 -193.32L-49.159 -193.765L-46.45 -194.192L-43.715 -194.6L-40.955 -194.989L-38.173 -195.359L-35.371 -195.71L-32.549 -196.042L-29.71 -196.354L-26.855 -196.646L-23.986 -196.919L-21.105 -197.171L-18.214 -197.403L-15.313 -197.614L-12.406 -197.805L-9.493 -197.976L-6.577 -198.125L-3.659 -198.254L-0.740997 -198.362L2.175 -198.448L5.088 -198.514L7.995 -198.558L10.896 -198.582L13.787 -198.584L16.669 -198.565L19.538 -198.525L22.393 -198.464L25.232 -198.382L28.054 -198.279L30.856 -198.155L33.639 -198.01L36.398 -197.844L39.133 -197.658L41.843 -197.451L44.525 -197.224L47.179 -196.976L49.801 -196.708L52.392 -196.42L54.948 -196.112L57.47 -195.785L59.954 -195.438L62.401 -195.072L64.807 -194.686L67.172 -194.282L69.495 -193.86L71.773 -193.419L74.006 -192.96L76.193 -192.484L78.331 -191.99L80.42 -191.479L82.458 -190.951L84.444 -190.406L86.378 -189.845L88.257 -189.269L90.08 -188.676L91.848 -188.069L93.557 -187.447L95.208 -186.81L96.8 -186.16L98.331 -185.496L99.801 -184.818L101.208 -184.128L102.552 -183.425L103.833 -182.71L105.048 -181.984L113.623 -176.839L118.049 -174.184L119.332 -173.361L120.541 -172.527L121.675 -171.681L122.735 -170.824L123.718 -169.956L124.625 -169.079L125.455 -168.192L126.208 -167.297L126.882 -166.393L127.478 -165.482L127.996 -164.563L128.434 -163.638L131.397 -156.437L131.763 -155.487L132.048 -154.532L132.252 -153.571L132.375 -152.606L132.817 -142.616L133.259 -132.626L133.701 -122.635L134.143 -112.645L134.585 -102.655L135.027 -92.665L135.469 -82.675L135.911 -72.684L136.353 -62.694L136.795 -52.704L137.237 -42.714L137.679 -32.723L138.121 -22.733L138.564 -12.743L138.752 -8.48199L138.793 -7.513L138.753 -6.54099L138.631 -5.56601L138.428 -4.58899L136.378 5.19901L136.196 6.07001L135.917 7.02899L135.558 7.98901L135.121 8.95001L134.604 9.91L129.724 18.638L128.857 20.189" />
    <path fill="none" stroke="black" stroke-width="24" stroke-linecap="round" stroke-linejoin="round" transform="matrix(1 0 0 -1 250 325)" d="M126.398 17.087L126.397 17.086L126.066 16.228L125.662 15.375L125.185 14.528L124.635 13.688L124.014 12.855L123.32 12.029L122.555 11.212L121.719 10.403L120.812 9.604L119.836 8.814L118.79 8.034L117.675 7.26401L116.493 6.50601L115.243 5.759L113.926 5.02399L112.544 4.30099L111.097 3.591L109.585 2.89401L108.011 2.211L106.374 1.54199L104.676 0.888L102.918 0.247986L101.101 -0.377014L99.225 -0.985992L97.293 -1.57901L95.305 -2.155L93.262 -2.715L91.166 -3.258L89.018 -3.784L86.819 -4.29199L84.571 -4.78201L82.275 -5.254L79.932 -5.707L77.543 -6.142L75.111 -6.55701L72.636 -6.953L71.317 -7.151L70.121 -7.32999L67.566 -7.686L64.973 -8.02301L62.344 -8.34L59.68 -8.63599L56.983 -8.91101L54.254 -9.16599L51.496 -9.39999L48.71 -9.61301L45.897 -9.80499L43.059 -9.97501L40.198 -10.124L37.316 -10.252L34.414 -10.358L31.494 -10.442L28.558 -10.505L25.608 -10.546L22.645 -10.565L19.672 -10.563L16.689 -10.539L13.699 -10.493L10.704 -10.425L7.705 -10.336L4.70399 -10.226L1.70399 -10.093L-1.295 -9.939L-4.28999 -9.76401L-7.28 -9.56799L-10.263 -9.35001L-13.236 -9.112L-16.199 -8.853L-19.149 -8.573L-22.085 -8.272L-25.005 -7.95099L-27.906 -7.60999L-30.788 -7.24899L-33.649 -6.86801L-36.487 -6.46799L-39.299 -6.048L-42.086 -5.60901L-44.844 -5.15201L-47.572 -4.67599L-50.268 -4.18201L-52.932 -3.67001L-55.561 -3.14099L-58.153 -2.59399L-60.708 -2.03101L-63.223 -1.45001L-65.294 -0.950989L-65.698 -0.854004L-68.13 -0.240997L-70.518 0.386993L-72.86 1.03L-75.156 1.68799L-77.404 2.35999L-79.603 3.04599L-81.75 3.745L-83.846 4.45801L-85.888 5.18399L-87.876 5.92099L-89.807 6.67099L-91.682 7.43201L-93.499 8.203L-95.257 8.98599L-96.954 9.77802L-98.59 10.579L-100.164 11.39L-101.675 12.209L-103.122 13.036L-104.504 13.871L-105.82 14.713L-107.069 15.561L-108.251 16.415L-109.365 17.275L-110.41 18.139L-111.386 19.008L-112.292 19.881L-113.128 20.758L-113.892 21.637L-114.586 22.519L-115.207 23.402L-115.756 24.287L-116.232 25.172L-116.636 26.058L-116.966 26.943L-117.176 27.664" />
    <path fill="none" stroke="black" stroke-width="24" stroke-linecap="round" stroke-linejoin="round" transform="matrix(1 0 0 -1 250 325)" d="M71.317 -7.151L74.999 -6.48001L78.894 -5.68701L80.684 -5.29199L84.517 -4.423L88.189 -3.49799L91.693 -2.51999L95.021 -1.48901L98.167 -0.408997L101.125 0.718994L103.279 1.55701L106.102 2.75601L108.72 3.99899L111.129 5.28299L113.307 6.48801L115.545 7.83801L117.56 9.224L119.643 10.751L121.463 12.197L123.047 13.674L124.98 15.497L126.347 17.026L126.398 17.087L128.064 19.09L128.857 20.189L129.201 20.667L130.673 22.941L131.57 24.558L132.77 27.006L133.417 28.658L134.325 31.242L134.717 32.922L135.317 35.601L135.598 38.331L135.73 40.034L135.69 42.78L135.56 44.49L135.2 47.208L134.809 48.92L134.135 51.567L133.488 53.272L132.513 55.808L131.244 58.21L130.358 59.882L129.222 61.551L127.702 63.746L126.337 65.387L124.584 67.358L123.001 68.964L121.048 70.681L119.261 72.247L117.248 73.796L115.011 75.327L112.973 76.703L110.565 78.182L107.947 79.637L105.125 81.065L103.088 82.072L100.132 83.44L96.986 84.775L93.659 86.075L90.156 87.337L86.485 88.559L84.699 89.123L80.955 90.275L77.06 91.384L73.024 92.446L68.854 93.459L64.558 94.422L60.146 95.333L55.625 96.19L51.006 96.99L46.297 97.733L41.509 98.417L36.649 99.04L31.73 99.602L26.759 100.101L21.748 100.536L16.707 100.906L11.644 101.211L6.57201 101.449L1.5 101.622L-3.562 101.727L-8.604 101.765L-13.615 101.736L-18.586 101.64L-23.506 101.477L-28.365 101.247L-33.155 100.951L-37.864 100.59L-42.483 100.163L-47.004 99.673L-51.417 99.12L-55.713 98.505L-59.884 97.829L-63.921 97.094L-67.816 96.301L-69.606 95.906L-73.439 95.037L-77.111 94.112L-80.615 93.133L-83.943 92.103L-87.089 91.023L-90.047 89.895L-92.201 89.057L-95.024 87.858L-97.642 86.615L-100.051 85.331L-102.23 84.126L-104.467 82.776L-106.482 81.39L-108.566 79.863L-110.385 78.417L-111.969 76.94L-113.902 75.117L-115.269 73.587L-116.986 71.523L-118.124 69.947L-119.595 67.673L-120.492 66.055L-121.692 63.608L-122.34 61.956L-123.247 59.372L-123.639 57.692L-124.239 55.013L-124.521 52.282L-124.652 50.58L-124.613 47.834L-124.482 46.124L-124.122 43.406L-123.732 41.694L-123.057 39.047L-122.411 37.342L-121.435 34.806L-120.166 32.404L-119.469 31.088L-119.28 30.732L-118.144 29.063L-117.176 27.664L-116.625 26.868L-115.259 25.227L-113.507 23.256L-111.923 21.65L-109.97 19.933L-108.183 18.367L-106.17 16.818L-103.933 15.287L-101.895 13.911L-99.487 12.432L-96.869 10.977L-94.047 9.54901L-92.01 8.54199L-89.054 7.17401L-85.909 5.83899L-82.581 4.539L-79.078 3.27701L-75.407 2.05499L-73.622 1.491L-69.877 0.338013L-65.983 -0.769989L-65.294 -0.950989" />
    <path fill="none" stroke="black" stroke-width="24" stroke-linecap="round" stroke-linejoin="round" transform="matrix(1 0 0 -1 250 325)" d="M119.643 10.751L117.593 9.34L115.315 7.96701L112.815 6.634L110.097 5.34399L107.167 4.10001L104.031 2.90399L100.695 1.758L97.166 0.665009L93.451 -0.372009L89.557 -1.353L85.492 -2.27399L81.265 -3.13501L76.884 -3.93201L72.357 -4.66599L67.695 -5.33301L62.905 -5.93399L57.999 -6.466L52.985 -6.92801L47.875 -7.32001L42.677 -7.642L37.404 -7.89099L32.064 -8.06799L26.67 -8.172L21.231 -8.20401L15.76 -8.16299L10.266 -8.048L4.761 -7.86099L-0.744003 -7.60199L-6.23801 -7.272L-11.709 -6.87L-17.147 -6.39801L-22.542 -5.85599L-27.881 -5.24701L-33.154 -4.57001L-38.351 -3.828L-43.462 -3.022L-48.475 -2.15302L-53.38 -1.224L-58.169 -0.234985L-62.831 0.809998L-67.357 1.91L-71.737 3.06299L-75.964 4.26501L-80.028 5.51599L-83.921 6.81201L-87.635 8.14999L-91.164 9.52899L-94.499 10.945L-97.634 12.395L-100.563 13.877L-103.28 15.387L-105.779 16.922L-108.056 18.48L-110.105 20.057L-111.923 21.65" />
    <path fill="none" stroke="black" stroke-width="24" stroke-linecap="round" stroke-linejoin="round" transform="matrix(1 0 0 -1 250 325)" d="M-71.015 55.21L-71.669 55.54L-72.97 56.264L-73.684 56.66L-75.207 57.596L-75.538 57.799" />
    <path fill="none" stroke="black" stroke-width="24" stroke-linecap="round" stroke-linejoin="round" transform="matrix(1 0 0 -1 250 325)" d="M-58.708 50.404L-61.082 51.194L-63.913 52.214L-66.602 53.265L-69.144 54.344L-71.015 55.21L-71.533 55.449" />
    <path fill="none" stroke="black" stroke-width="24" stroke-linecap="round" stroke-linejoin="round" transform="matrix(1 0 0 -1 250 325)" d="M69.822 44.665L69.402 44.58L66.509 43.991L63.075 43.366L60.138 42.89L59.528 42.791L55.874 42.268L52.12 41.797L48.275 41.38L44.346 41.018L40.34 40.71L36.267 40.459L32.134 40.263L27.949 40.125L23.721 40.043L19.459 40.018L15.171 40.051L10.865 40.14L6.55099 40.287L2.237 40.49L-2.069 40.749L-6.35699 41.064L-10.619 41.434L-14.847 41.858L-19.031 42.336L-23.164 42.866L-27.237 43.448L-31.242 44.079L-35.171 44.76L-39.016 45.489L-42.769 46.263L-46.423 47.083L-49.061 47.724L-49.97 47.945L-53.403 48.848L-56.715 49.791L-58.708 50.404L-59.9 50.771" />
    <path fill="none" stroke="black" stroke-width="24" stroke-linecap="round" stroke-linejoin="round" transform="matrix(1 0 0 -1 250 325)" d="M84.551 49.127L82.781 48.452L82.161 48.216L79.619 47.342L76.929 46.51L74.097 45.719L71.13 44.972L69.402 44.58" />
    <path fill="none" stroke="black" stroke-width="24" stroke-linecap="round" stroke-linejoin="round" transform="matrix(1 0 0 -1 250 325)" d="M88.441 51.157L88.084 50.967L88.079 50.964L88.072 50.961L87.991 50.917L87.891 50.864L87.754 50.791L86.901 50.336L86.586 50.169L84.755 49.299L84.571 49.212L82.781 48.452" />
    <path fill="none" stroke="black" stroke-width="24" stroke-linecap="round" stroke-linejoin="round" transform="matrix(1 0 0 -1 250 325)" d="M89.39 51.964L88.466 51.328L88.267 51.191L88.188 51.136L88.183 51.133L87.976 50.99L87.909 50.944L86.901 50.336" />
    <path fill="none" stroke="black" stroke-width="24" stroke-linecap="round" stroke-linejoin="round" transform="matrix(1 0 0 -1 250 325)" d="M89.707 52.498L88.59 51.456L88.288 51.215L88.188 51.136" />
    <path fill="none" stroke="black" stroke-width="24" stroke-linecap="round" stroke-linejoin="round" transform="matrix(1 0 0 -1 250 325)" d="M-76.29 58.429L-77.103 59.254" />
  </g>
</svg>