<?xml version='1.0' encoding='utf-8'?>
<svg xmlns="http://www.w3.org/2000/svg" version="1.1" width="500" height="650" viewBox="0 0 500 650">
  <g>
    <path fill="none" stroke="none" transform="matrix(1 0 0 -1 250 325)" d="M-123.927 44.501L-126.741 40.184L-127.499 38.97L-128.179 37.75L-128.781 36.524L-129.303 35.292L-129.747 34.056L-130.112 32.815L-132.695 23.155L-132.824 22.669L-133.115 21.4L-133.325 20.129L-133.453 18.856L-133.499 17.582L-133.514 7.582L-133.529 -2.418L-133.543 -12.418L-133.558 -22.418L-133.573 -32.418L-133.588 -42.418L-133.603 -52.418L-133.618 -62.418L-133.632 -72.418L-133.647 -82.418L-133.662 -92.418L-133.677 -102.418L-133.692 -112.418L-133.705 -121.724L-133.67 -122.998L-133.554 -124.272L-133.355 -125.544L-133.076 -126.814L-132.715 -128.081L-132.273 -129.344L-129.655 -136.354L-129.143 -137.588L-128.552 -138.818L-127.882 -140.041L-127.135 -141.258L-126.31 -142.467L-125.407 -143.669L-124.429 -144.861L-123.374 -146.044L-122.244 -147.217L-121.039 -148.38L-119.76 -149.53L-118.408 -150.668L-116.984 -151.794L-115.488 -152.905L-113.922 -154.003L-112.286 -155.085L-110.582 -156.152L-108.809 -157.202L-100.181 -162.256L-97.376 -163.899L-95.727 -164.825L-94.02 -165.736L-92.256 -166.631L-90.435 -167.508L-88.558 -168.369L-86.627 -169.211L-84.642 -170.035L-82.606 -170.841L-80.519 -171.627L-78.383 -172.393L-76.198 -173.139L-73.966 -173.864L-71.689 -174.568L-69.367 -175.25L-67.003 -175.911L-64.597 -176.549L-62.152 -177.164L-59.668 -177.756L-57.147 -178.325L-54.59 -178.87L-52 -179.39L-49.377 -179.886L-46.724 -180.358L-44.041 -180.804L-41.331 -181.225L-38.595 -181.62L-35.835 -181.99L-33.052 -182.333L-30.248 -182.651L-27.425 -182.941L-24.584 -183.206L-21.728 -183.443L-18.857 -183.653L-15.974 -183.837L-13.081 -183.993L-10.178 -184.122L-7.269 -184.224L-4.354 -184.298L-1.435 -184.345L1.485 -184.364L4.40601 -184.356L7.325 -184.32L10.241 -184.257L13.151 -184.167L16.055 -184.049L18.949 -183.904L21.834 -183.731L24.706 -183.532L27.565 -183.305L30.408 -183.052L33.233 -182.772L36.04 -182.465L38.826 -182.133L41.589 -181.774L44.329 -181.389L47.042 -180.978L49.729 -180.542L52.386 -180.081L55.013 -179.595L57.608 -179.084L60.169 -178.549L62.695 -177.99L65.185 -177.407L67.636 -176.802L70.047 -176.173L72.417 -175.521L74.744 -174.848L77.028 -174.152L79.266 -173.436L81.457 -172.698L83.6 -171.94L85.694 -171.162L87.738 -170.365L89.729 -169.548L91.668 -168.713L93.552 -167.86L95.381 -166.989L97.153 -166.101L98.868 -165.197L100.525 -164.277L109.169 -159.249L111.961 -157.624L113.743 -156.58L115.457 -155.52L117.102 -154.444L118.678 -153.353L120.183 -152.247L121.617 -151.127L122.979 -149.994L124.268 -148.848L125.483 -147.691L126.624 -146.522L127.689 -145.343L128.678 -144.154L129.591 -142.956L130.427 -141.75L131.185 -140.536L131.865 -139.315L132.467 -138.088L132.99 -136.856L135.628 -129.856L136.081 -128.594L136.453 -127.329L136.744 -126.06L136.953 -124.789L137.081 -123.516L137.127 -122.242L137.142 -112.242L137.157 -102.242L137.172 -92.242L137.187 -82.242L137.201 -72.242L137.216 -62.242L137.231 -52.242L137.246 -42.242L137.261 -32.242L137.276 -22.242L137.29 -12.242L137.305 -2.242L137.32 7.758L137.334 17.064L137.299 18.338L137.182 19.612L136.984 20.884L136.704 22.154L134.15 31.822L134.021 32.31L133.667 33.552L133.234 34.79L132.722 36.024L132.132 37.253L131.462 38.475L130.715 39.692L127.778 44.227" />
    <path fill="none" stroke="black" stroke-width="24" stroke-linecap="round" stroke-linejoin="round" transform="matrix(1 0 0 -1 250 325)" d="M-123.927 44.501L-126.741 40.184L-127.499 38.97L-128.179 37.75L-128.781 36.524L-129.303 35.292L-129.747 34.056L-130.112 32.815L-132.695 23.155L-132.824 22.669L-133.115 21.4L-133.325 20.129L-133.453 18.856L-133.499 17.582L-133.514 7.582L-133.529 -2.418L-133.543 -12.418L-133.558 -22.418L-133.573 -32.418L-133.588 -42.418L-133.603 -52.418L-133.618 -62.418L-133.632 -72.418L-133.647 -82.418L-133.662 -92.418L-133.677 -102.418L-133.692 -112.418L-133.705 -121.724L-133.67 -122.998L-133.554 -124.272L-133.355 -125.544L-133.076 -126.814L-132.715 -128.081L-132.273 -129.344L-129.655 -136.354L-129.143 -137.588L-128.552 -138.818L-127.882 -140.041L-127.135 -141.258L-126.31 -142.467L-125.407 -143.669L-124.429 -144.861L-123.374 -146.044L-122.244 -147.217L-121.039 -148.38L-119.76 -149.53L-118.408 -150.668L-116.984 -151.794L-115.488 -152.905L-113.922 -154.003L-112.286 -155.085L-110.582 -156.152L-108.809 -157.202L-100.181 -162.256L-97.376 -163.899L-95.727 -164.825L-94.02 -165.736L-92.256 -166.631L-90.435 -167.508L-88.558 -168.369L-86.627 -169.211L-84.642 -170.035L-82.606 -170.841L-80.519 -171.627L-78.383 -172.393L-76.198 -173.139L-73.966 -173.864L-71.689 -174.568L-69.367 -175.25L-67.003 -175.911L-64.597 -176.549L-62.152 -177.164L-59.668 -177.756L-57.147 -178.325L-54.59 -178.87L-52 -179.39L-49.377 -179.886L-46.724 -180.358L-44.041 -180.804L-41.331 -181.225L-38.595 -181.62L-35.835 -181.99L-33.052 -182.333L-30.248 -182.651L-27.425 -182.941L-24.584 -183.206L-21.728 -183.443L-18.857 -183.653L-15.974 -183.837L-13.081 -183.993L-10.178 -184.122L-7.269 -184.224L-4.354 -184.298L-1.435 -184.345L1.485 -184.364L4.40601 -184.356L7.325 -184.32L10.241 -184.257L13.151 -184.167L16.055 -184.049L18.949 -183.904L21.834 -183.731L24.706 -183.532L27.565 -183.305L30.408 -183.052L33.233 -182.772L36.04 -182.465L38.826 -182.133L41.589 -181.774L44.329 -181.389L47.042 -180.978L49.729 -180.542L52.386 -180.081L55.013 -179.595L57.608 -179.084L60.169 -178.549L62.695 -177.99L65.185 -177.407L67.636 -176.802L70.047 -176.173L72.417 -175.521L74.744 -174.848L77.028 -174.152L79.266 -173.436L81.457 -172.698L83.6 -171.94L85.694 -171.162L87.738 -170.365L89.729 -169.548L91.668 -168.713L93.552 -167.86L95.381 -166.989L97.153 -166.101L98.868 -165.197L100.525 -164.277L109.169 -159.249L111.961 -157.624L113.743 -156.58L115.457 -155.52L117.102 -154.444L118.678 -153.353L120.183 -152.247L121.617 -151.127L122.979 -149.994L124.268 -148.848L125.483 -147.691L126.624 -146.522L127.689 -145.343L128.678 -144.154L129.591 -142.956L130.427 -141.75L131.185 -140.536L131.865 -139.315L132.467 -138.088L132.99 -136.856L135.628 -129.856L136.081 -128.594L136.453 -127.329L136.744 -126.06L136.953 -124.789L137.081 -123.516L137.127 -122.242L137.142 -112.242L137.157 -102.242L137.172 -92.242L137.187 -82.242L137.201 -72.242L137.216 -62.242L137.231 -52.242L137.246 -42.242L137.261 -32.242L137.276 -22.242L137.29 -12.242L137.305 -2.242L137.32 7.758L137.334 17.064L137.299 18.338L137.182 19.612L136.984 20.884L136.704 22.154L134.15 31.822L134.021 32.31L133.667 33.552L133.234 34.79L132.722 36.024L132.132 37.253L131.462 38.475L130.715 39.692L127.778 44.227" />
    <path fill="none" stroke="black" stroke-width="24" stroke-linecap="round" stroke-linejoin="round" transform="matrix(1 0 0 -1 250 325)" d="M122.655 36.067L122.499 35.702L121.945 34.571L121.318 33.446L120.619 32.327L119.848 31.215L119.007 30.111L118.095 29.015L117.113 27.928L116.062 26.85L114.942 25.783L113.754 24.727L112.498 23.683L111.176 22.651L109.789 21.631L108.336 20.625L106.819 19.633L105.239 18.656L103.597 17.694L101.894 16.748L100.13 15.818L98.307 14.905L96.427 14.01L94.489 13.132L92.496 12.273L90.448 11.434L88.346 10.614L86.193 9.814L83.989 9.034L81.736 8.276L79.434 7.539L77.086 6.82401L74.692 6.13101L72.255 5.461L69.776 4.815L67.255 4.19101L64.695 3.59201L62.098 3.017L59.464 2.46701L56.796 1.94199L54.094 1.44199L51.361 0.967987L48.599 0.519989L45.808 0.0969849L42.991 -0.299011L40.149 -0.667999L37.284 -1.01001L34.398 -1.32501L31.492 -1.61301L28.569 -1.87399L25.629 -2.10599L22.676 -2.311L19.709 -2.48901L16.733 -2.638L13.747 -2.759L10.754 -2.85199L7.756 -2.91699L4.754 -2.95401L1.75 -2.96201L-1.25301 -2.94199L-4.254 -2.89401L-7.252 -2.81799L-10.244 -2.71301L-13.229 -2.58099L-16.204 -2.42001L-19.169 -2.23199L-22.121 -2.01501L-25.058 -1.771L-27.979 -1.49899L-30.882 -1.20001L-33.766 -0.873993L-36.627 -0.520996L-39.466 -0.140991L-42.28 0.265991L-45.066 0.699005L-47.825 1.15701L-50.554 1.642L-53.251 2.15201L-55.915 2.68799L-58.543 3.24799L-61.136 3.83301L-63.69 4.44199L-66.205 5.07401L-68.679 5.73099L-71.11 6.41L-73.498 7.112L-75.84 7.836L-78.134 8.58099L-80.381 9.34799L-82.578 10.136L-84.725 10.944L-86.819 11.773L-88.859 12.62L-90.845 13.486L-92.775 14.371L-94.648 15.274L-96.462 16.194L-98.218 17.13L-99.913 18.083L-101.546 19.051L-103.118 20.035L-104.626 21.032L-106.07 22.044L-107.448 23.069L-108.761 24.106L-110.007 25.155L-111.186 26.216L-112.297 27.287L-113.338 28.368L-114.311 29.459L-115.213 30.558L-116.045 31.666L-116.805 32.781L-117.494 33.902L-118.111 35.03L-118.636 36.121" />
    <path fill="none" stroke="black" stroke-width="24" stroke-linecap="round" stroke-linejoin="round" transform="matrix(1 0 0 -1 250 325)" d="M2.159 128.78L-3.03799 128.745L-8.224 128.621L-13.389 128.408L-18.524 128.106L-23.617 127.716L-28.659 127.239L-33.639 126.675L-38.547 126.027L-43.374 125.294L-48.11 124.479L-52.745 123.584L-57.269 122.609L-61.674 121.557L-65.951 120.431L-70.092 119.232L-74.087 117.962L-75.739 117.409L-79.665 116.043L-83.426 114.61L-87.015 113.115L-90.425 111.559L-93.648 109.945L-95.543 108.942L-98.634 107.241L-101.523 105.489L-104.203 103.689L-106.089 102.314L-108.6 100.437L-110.887 98.517L-112.948 96.561L-114.741 94.844L-116.598 92.823L-118.181 90.86L-119.821 88.781L-121.216 86.675L-122.573 84.475L-123.733 82.324L-124.818 79.951L-125.732 77.763L-126.523 75.257L-127.185 73.042L-127.667 70.445L-128.07 68.211L-128.211 65.973L-128.376 63.326L-128.255 61.084L-128.098 58.439L-127.715 56.204L-127.239 53.606L-126.598 51.388L-125.813 48.879L-124.918 46.687L-123.927 44.501L-123.84 44.31L-122.7 42.155L-121.349 39.95L-119.972 37.839L-118.636 36.121L-118.35 35.753L-116.772 33.784L-114.933 31.755L-113.143 30.033L-111.1 28.068L-108.829 26.14L-106.335 24.253L-104.451 22.871L-101.787 21.06L-98.913 19.297L-95.837 17.585L-93.942 16.574L-90.733 14.949L-87.337 13.379L-83.761 11.87L-80.012 10.423L-76.099 9.043L-74.444 8.48199L-70.46 7.198L-66.331 5.983L-62.064 4.84L-57.668 3.772L-53.152 2.78L-48.525 1.866L-43.797 1.03299L-38.976 0.282013L-34.074 -0.38501L-29.099 -0.967987L-24.061 -1.46399L-18.971 -1.87299L-13.839 -2.19501L-8.67599 -2.42801L-3.491 -2.57199L1.705 -2.62601L6.901 -2.59201L12.087 -2.46701L17.252 -2.254L22.387 -1.952L27.48 -1.56201L32.522 -1.08499L37.502 -0.522003L42.41 0.127014L47.237 0.859009L51.973 1.67401L56.608 2.57001L61.132 3.54501L65.537 4.59601L69.815 5.72299L73.955 6.922L77.95 8.19101L79.602 8.745L83.528 10.111L87.289 11.543L90.878 13.039L94.288 14.595L97.512 16.208L99.406 17.212L102.497 18.912L105.386 20.664L108.066 22.465L109.953 23.839L112.463 25.717L114.751 27.636L116.811 29.593L118.604 31.309L120.462 33.331L122.044 35.294L122.655 36.067L123.684 37.373L125.079 39.479L126.437 41.679L127.596 43.83L127.778 44.227L128.681 46.203L129.595 48.391L130.386 50.896L131.048 53.112L131.53 55.709L131.933 57.942L132.074 60.18L132.239 62.828L132.118 65.069L131.961 67.715L131.578 69.949L131.102 72.548L130.461 74.766L129.677 77.275L128.781 79.466L127.704 81.843L126.563 83.999L125.212 86.204L123.835 88.315L122.213 90.4L120.635 92.369L118.796 94.398L117.006 96.121L114.963 98.086L112.692 100.014L110.199 101.901L108.314 103.283L105.65 105.093L102.776 106.857L99.7 108.569L97.806 109.579L94.596 111.205L91.2 112.774L87.624 114.284L83.876 115.73L79.962 117.111L78.308 117.671L74.324 118.956L70.194 120.171L65.927 121.313L61.531 122.382L57.015 123.374L52.388 124.287L47.66 125.12L42.84 125.871L37.937 126.539L32.962 127.121L27.924 127.618L22.834 128.027L17.703 128.348L12.539 128.581L7.354 128.725L2.159 128.78" />
    <path fill="none" stroke="black" stroke-width="24" stroke-linecap="round" stroke-linejoin="round" transform="matrix(1 0 0 -1 250 325)" d="M-75.685 65.203L-76.131 65.541L-77.548 66.744L-77.733 66.9L-77.913 67.074L-78.021 67.177L-78.026 67.183L-78.118 67.271L-78.154 67.305L-79.173 68.286" />
    <path fill="none" stroke="black" stroke-width="24" stroke-linecap="round" stroke-linejoin="round" transform="matrix(1 0 0 -1 250 325)" d="M-70.942 62.272L-72.184 62.964L-72.547 63.186L-74.298 64.26L-75.685 65.203L-76.257 65.592" />
    <path fill="none" stroke="black" stroke-width="24" stroke-linecap="round" stroke-linejoin="round" transform="matrix(1 0 0 -1 250 325)" d="M109.953 23.839L107.225 22.007L104.285 20.223L101.139 18.493L97.793 16.818L94.253 15.203L90.528 13.651L86.625 12.164L82.551 10.747L78.314 9.401L73.924 8.129L69.388 6.935L64.717 5.819L59.919 4.78601L55.004 3.836L49.983 2.97198L44.864 2.19501L39.659 1.50699L34.378 0.910004L29.032 0.403992L23.631 -0.0100098L18.186 -0.329987L12.709 -0.556L7.21001 -0.687012L1.7 -0.723999L-3.81 -0.665985L-9.308 -0.514008L-14.783 -0.266998L-20.225 0.0740051L-25.623 0.507996L-30.964 1.035L-36.24 1.65201L-41.439 2.35999L-46.55 3.15701L-51.564 4.04001L-56.47 5.008L-61.259 6.06L-65.921 7.19299L-70.445 8.405L-74.825 9.69299L-79.049 11.055L-83.111 12.489L-87.001 13.99L-90.713 15.557L-94.237 17.185L-97.569 18.873L-100.699 20.615L-103.624 22.41L-106.335 24.253" />
    <path fill="none" stroke="black" stroke-width="24" stroke-linecap="round" stroke-linejoin="round" transform="matrix(1 0 0 -1 250 325)" d="M-58.972 57.231L-61.094 57.98L-63.979 59.094L-66.731 60.255L-69.346 61.463L-70.942 62.272L-71.816 62.715" />
    <path fill="none" stroke="black" stroke-width="24" stroke-linecap="round" stroke-linejoin="round" transform="matrix(1 0 0 -1 250 325)" d="M63.424 57.242L62.745 57.026L60.195 56.217L56.849 55.247L53.393 54.337L49.832 53.487L46.176 52.7L42.43 51.976L38.603 51.317L34.702 50.725L30.735 50.201L26.711 49.745L22.636 49.36L18.52 49.045L14.37 48.801L10.196 48.628L6.005 48.528L1.80499 48.5L-2.394 48.544L-6.584 48.66L-10.757 48.849L-14.904 49.109L-19.018 49.439L-23.089 49.841L-27.11 50.311L-31.072 50.851L-34.967 51.458L-38.789 52.131L-42.528 52.869L-46.177 53.671L-49.73 54.534L-53.178 55.458L-56.516 56.44L-58.972 57.231L-59.736 57.478" />
    <path fill="none" stroke="black" stroke-width="24" stroke-linecap="round" stroke-linejoin="round" transform="matrix(1 0 0 -1 250 325)" d="M75.558 62.433L74.78 62.043L73.077 61.191L70.452 59.993L67.689 58.842L64.794 57.74L62.745 57.026" />
    <path fill="none" stroke="black" stroke-width="24" stroke-linecap="round" stroke-linejoin="round" transform="matrix(1 0 0 -1 250 325)" d="M80.033 65.293L79.559 64.975L78.062 63.969L76.41 62.967L75.937 62.68L74.78 62.043" />
    <path fill="none" stroke="black" stroke-width="24" stroke-linecap="round" stroke-linejoin="round" transform="matrix(1 0 0 -1 250 325)" d="M82.983 67.976L82.034 67.075L81.992 67.035L81.898 66.945L81.896 66.944L81.809 66.86L81.53 66.596L81.395 66.483L79.917 65.243L79.559 64.975" />
    <path fill="none" stroke="black" stroke-width="24" stroke-linecap="round" stroke-linejoin="round" transform="matrix(1 0 0 -1 250 325)" d="M82.452 67.633L82.229 67.39L82.081 67.229L82.06 67.206L82.009 67.15L81.395 66.483" />
    <path fill="none" stroke="black" stroke-width="24" stroke-linecap="round" stroke-linejoin="round" transform="matrix(1 0 0 -1 250 325)" d="M82.864 68.419L82.094 67.258L82.06 67.206" />
    <path fill="none" stroke="black" stroke-width="24" stroke-linecap="round" stroke-linejoin="round" transform="matrix(1 0 0 -1 250 325)" d="M82.248 67.594L82.009 67.15" />
    <path fill="none" stroke="black" stroke-width="24" stroke-linecap="round" stroke-linejoin="round" transform="matrix(1 0 0 -1 250 325)" d="M-78.201 67.463L-78.215 67.486L-79.026 68.729" />
    <path fill="none" stroke="black" stroke-width="24" stroke-linecap="round" stroke-linejoin="round" transform="matrix(1 0 0 -1 250 325)" d="M-78.132 67.387L-78.404 67.901" />
    <path fill="none" stroke="black" stroke-width="24" stroke-linecap="round" stroke-linejoin="round" transform="matrix(1 0 0 -1 250 325)" d="M-77.548 66.744L-78.132 67.387L-78.201 67.463L-78.21 67.473L-78.354 67.633L-78.633 67.941" />
  </g>
</svg>