<?xml version='1.0' encoding='utf-8'?>
<svg xmlns="http://www.w3.org/2000/svg" version="1.1" width="500" height="650" viewBox="0 0 500 650">
  <g>
    <path fill="none" stroke="none" transform="matrix(1 0 0 -1 250 325)" d="M-154.457 -22.125L-157.932 -28.559L-158.527 -29.753L-159.043 -30.947L-159.481 -32.14L-159.839 -33.331L-160.117 -34.52L-161.934 -44.354L-162.044 -44.951L-162.248 -46.162L-162.37 -47.368L-162.41 -48.57L-162.37 -49.766L-161.626 -59.739L-160.882 -69.711L-160.138 -79.683L-159.394 -89.655L-158.65 -99.628L-157.906 -109.6L-157.162 -119.572L-156.418 -129.545L-155.674 -139.517L-154.93 -149.489L-154.187 -159.461L-153.443 -169.434L-152.699 -179.406L-151.901 -190.096L-151.779 -191.286L-151.576 -192.47L-151.292 -193.646L-150.926 -194.815L-150.48 -195.974L-149.953 -197.124L-146.804 -203.997L-146.209 -205.115L-145.536 -206.221L-144.785 -207.316L-143.956 -208.4L-143.051 -209.47L-142.069 -210.527L-141.012 -211.57L-139.879 -212.599L-138.672 -213.612L-137.392 -214.61L-136.038 -215.591L-134.612 -216.555L-133.115 -217.501L-131.548 -218.43L-129.911 -219.339L-128.206 -220.229L-119.294 -224.766L-115.893 -226.497L-114.304 -227.277L-112.656 -228.04L-110.949 -228.783L-109.185 -229.507L-107.364 -230.212L-105.488 -230.897L-103.558 -231.561L-101.575 -232.204L-99.54 -232.827L-97.455 -233.427L-95.32 -234.006L-93.137 -234.563L-90.908 -235.097L-88.633 -235.607L-86.314 -236.095L-83.952 -236.559L-81.55 -237L-79.107 -237.416L-76.627 -237.808L-74.109 -238.175L-71.557 -238.518L-68.97 -238.835L-66.352 -239.128L-63.703 -239.395L-61.025 -239.636L-58.319 -239.852L-55.588 -240.042L-52.833 -240.206L-50.055 -240.344L-47.257 -240.456L-44.439 -240.542L-41.604 -240.601L-38.754 -240.635L-35.889 -240.642L-33.012 -240.622L-30.125 -240.577L-27.229 -240.505L-24.326 -240.407L-21.418 -240.283L-18.506 -240.133L-15.593 -239.957L-12.679 -239.755L-9.767 -239.527L-6.85899 -239.274L-3.95599 -238.995L-1.06 -238.691L1.827 -238.362L4.70399 -238.008L7.569 -237.629L10.419 -237.226L13.254 -236.798L16.072 -236.347L18.87 -235.872L21.648 -235.373L24.403 -234.852L27.134 -234.307L29.84 -233.74L32.518 -233.151L35.167 -232.541L37.785 -231.908L40.372 -231.255L42.924 -230.581L45.442 -229.887L47.922 -229.174L50.365 -228.44L52.767 -227.688L55.129 -226.918L57.448 -226.129L59.723 -225.323L61.952 -224.5L64.135 -223.66L66.27 -222.804L68.355 -221.933L70.39 -221.046L72.373 -220.146L74.303 -219.231L76.179 -218.303L78 -217.362L79.764 -216.408L81.471 -215.444L83.119 -214.468L84.708 -213.481L86.237 -212.485L87.704 -211.479L95.844 -205.67L98.92 -203.476L100.487 -202.344L101.984 -201.203L103.41 -200.054L104.763 -198.897L106.044 -197.734L107.251 -196.564L108.383 -195.388L109.441 -194.208L110.422 -193.023L111.328 -191.835L112.156 -190.645L112.907 -189.452L113.58 -188.258L114.175 -187.064L114.692 -185.87L115.129 -184.676L115.487 -183.484L117.588 -176.2L117.872 -174.987L118.076 -173.777L118.198 -172.57L118.238 -171.368L118.198 -170.172L117.454 -160.2L116.71 -150.227L115.966 -140.255L115.222 -130.283L114.478 -120.31L113.734 -110.338L112.99 -100.366L112.246 -90.394L111.502 -80.421L110.758 -70.449L110.014 -60.477L109.271 -50.504L108.527 -40.532L107.729 -29.843L107.607 -28.652L107.404 -27.468L107.119 -26.292L106.754 -25.124L103.499 -15.668L103.299 -15.089L102.862 -13.953L102.346 -12.826L101.751 -11.709L101.078 -10.603L100.327 -9.509L95.71 -3.35999" />
    <path fill="none" stroke="black" stroke-width="24" stroke-linecap="round" stroke-linejoin="round" transform="matrix(1 0 0 -1 250 325)" d="M-154.457 -22.125L-157.932 -28.559L-158.527 -29.753L-159.043 -30.947L-159.481 -32.14L-159.839 -33.331L-160.117 -34.52L-161.934 -44.354L-162.044 -44.951L-162.248 -46.162L-162.37 -47.368L-162.41 -48.57L-162.37 -49.766L-161.626 -59.739L-160.882 -69.711L-160.138 -79.683L-159.394 -89.655L-158.65 -99.628L-157.906 -109.6L-157.162 -119.572L-156.418 -129.545L-155.674 -139.517L-154.93 -149.489L-154.187 -159.461L-153.443 -169.434L-152.699 -179.406L-151.901 -190.096L-151.779 -191.286L-151.576 -192.47L-151.292 -193.646L-150.926 -194.815L-150.48 -195.974L-149.953 -197.124L-146.804 -203.997L-146.209 -205.115L-145.536 -206.221L-144.785 -207.316L-143.956 -208.4L-143.051 -209.47L-142.069 -210.527L-141.012 -211.57L-139.879 -212.599L-138.672 -213.612L-137.392 -214.61L-136.038 -215.591L-134.612 -216.555L-133.115 -217.501L-131.548 -218.43L-129.911 -219.339L-128.206 -220.229L-119.294 -224.766L-115.893 -226.497L-114.304 -227.277L-112.656 -228.04L-110.949 -228.783L-109.185 -229.507L-107.364 -230.212L-105.488 -230.897L-103.558 -231.561L-101.575 -232.204L-99.54 -232.827L-97.455 -233.427L-95.32 -234.006L-93.137 -234.563L-90.908 -235.097L-88.633 -235.607L-86.314 -236.095L-83.952 -236.559L-81.55 -237L-79.107 -237.416L-76.627 -237.808L-74.109 -238.175L-71.557 -238.518L-68.97 -238.835L-66.352 -239.128L-63.703 -239.395L-61.025 -239.636L-58.319 -239.852L-55.588 -240.042L-52.833 -240.206L-50.055 -240.344L-47.257 -240.456L-44.439 -240.542L-41.604 -240.601L-38.754 -240.635L-35.889 -240.642L-33.012 -240.622L-30.125 -240.577L-27.229 -240.505L-24.326 -240.407L-21.418 -240.283L-18.506 -240.133L-15.593 -239.957L-12.679 -239.755L-9.767 -239.527L-6.85899 -239.274L-3.95599 -238.995L-1.06 -238.691L1.827 -238.362L4.70399 -238.008L7.569 -237.629L10.419 -237.226L13.254 -236.798L16.072 -236.347L18.87 -235.872L21.648 -235.373L24.403 -234.852L27.134 -234.307L29.84 -233.74L32.518 -233.151L35.167 -232.541L37.785 -231.908L40.372 -231.255L42.924 -230.581L45.442 -229.887L47.922 -229.174L50.365 -228.44L52.767 -227.688L55.129 -226.918L57.448 -226.129L59.723 -225.323L61.952 -224.5L64.135 -223.66L66.27 -222.804L68.355 -221.933L70.39 -221.046L72.373 -220.146L74.303 -219.231L76.179 -218.303L78 -217.362L79.764 -216.408L81.471 -215.444L83.119 -214.468L84.708 -213.481L86.237 -212.485L87.704 -211.479L95.844 -205.67L98.92 -203.476L100.487 -202.344L101.984 -201.203L103.41 -200.054L104.763 -198.897L106.044 -197.734L107.251 -196.564L108.383 -195.388L109.441 -194.208L110.422 -193.023L111.328 -191.835L112.156 -190.645L112.907 -189.452L113.58 -188.258L114.175 -187.064L114.692 -185.87L115.129 -184.676L115.487 -183.484L117.588 -176.2L117.872 -174.987L118.076 -173.777L118.198 -172.57L118.238 -171.368L118.198 -170.172L117.454 -160.2L116.71 -150.227L115.966 -140.255L115.222 -130.283L114.478 -120.31L113.734 -110.338L112.99 -100.366L112.246 -90.394L111.502 -80.421L110.758 -70.449L110.014 -60.477L109.271 -50.504L108.527 -40.532L107.729 -29.843L107.607 -28.652L107.404 -27.468L107.119 -26.292L106.754 -25.124L103.499 -15.668L103.299 -15.089L102.862 -13.953L102.346 -12.826L101.751 -11.709L101.078 -10.603L100.327 -9.509L95.71 -3.35999" />
    <path fill="none" stroke="black" stroke-width="24" stroke-linecap="round" stroke-linejoin="round" transform="matrix(1 0 0 -1 250 325)" d="M91.928 -10.248L91.845 -10.522L91.442 -11.622L90.966 -12.723L90.418 -13.824L89.797 -14.925L89.105 -16.024L88.341 -17.122L87.507 -18.217L86.602 -19.309L85.627 -20.397L84.583 -21.48L83.47 -22.559L82.29 -23.631L81.042 -24.698L79.728 -25.757L78.348 -26.809L76.903 -27.852L75.394 -28.886L73.822 -29.911L72.188 -30.925L70.493 -31.929L68.738 -32.921L66.924 -33.901L65.051 -34.869L63.122 -35.823L61.138 -36.764L59.098 -37.69L57.006 -38.602L54.861 -39.498L52.666 -40.378L50.421 -41.242L48.128 -42.088L45.789 -42.917L43.405 -43.728L40.976 -44.521L38.505 -45.294L35.994 -46.048L33.443 -46.782L30.854 -47.496L28.229 -48.189L25.569 -48.86L22.877 -49.51L20.152 -50.139L17.399 -50.744L14.616 -51.327L11.808 -51.887L8.974 -52.423L6.118 -52.936L3.24001 -53.425L0.343002 -53.889L-2.57201 -54.328L-5.504 -54.743L-8.44901 -55.133L-11.408 -55.497L-14.377 -55.835L-17.355 -56.148L-20.34 -56.435L-23.331 -56.695L-26.325 -56.929L-29.321 -57.137L-32.317 -57.318L-35.312 -57.473L-38.302 -57.6L-41.288 -57.701L-44.266 -57.775L-47.235 -57.821L-50.193 -57.841L-53.139 -57.834L-56.07 -57.8L-58.985 -57.738L-61.883 -57.65L-64.761 -57.535L-67.617 -57.393L-70.45 -57.224L-73.259 -57.029L-76.041 -56.807L-78.795 -56.559L-81.519 -56.284L-84.212 -55.984L-86.872 -55.657L-89.497 -55.305L-92.085 -54.927L-94.636 -54.524L-97.148 -54.096L-99.619 -53.643L-102.047 -53.166L-104.432 -52.664L-106.771 -52.139L-109.064 -51.59L-111.308 -51.018L-113.504 -50.422L-115.648 -49.805L-117.741 -49.165L-119.78 -48.503L-121.765 -47.82L-123.694 -47.116L-125.566 -46.391L-127.381 -45.646L-129.136 -44.882L-130.831 -44.098L-132.465 -43.296L-134.037 -42.475L-135.546 -41.637L-136.99 -40.781L-138.37 -39.908L-139.685 -39.02L-140.932 -38.115L-142.113 -37.196L-143.226 -36.262L-144.269 -35.314L-145.244 -34.352L-146.149 -33.377L-146.984 -32.391L-147.747 -31.392L-148.44 -30.383L-149.06 -29.363L-149.468 -28.598" />
    <path fill="none" stroke="black" stroke-width="24" stroke-linecap="round" stroke-linejoin="round" transform="matrix(1 0 0 -1 250 325)" d="M-32.49 69.598L-37.554 69.228L-42.609 68.777L-47.643 68.245L-52.646 67.634L-57.609 66.944L-62.522 66.178L-67.374 65.336L-72.155 64.42L-76.857 63.433L-77.821 63.224L-82.541 62.142L-87.161 60.991L-91.67 59.773L-96.06 58.49L-100.322 57.146L-104.447 55.742L-108.427 54.282L-112.254 52.768L-115.92 51.204L-117.636 50.421L-121.21 48.775L-124.604 47.084L-127.813 45.352L-130.83 43.581L-133.648 41.776L-135.538 40.533L-138.204 38.661L-140.657 36.761L-142.891 34.837L-144.722 33.233L-146.769 31.255L-148.585 29.26L-150.251 27.363L-151.857 25.325L-153.293 23.202L-154.675 21.128L-155.81 19.05L-156.999 16.713L-157.894 14.611L-158.796 12.126L-159.442 10.01L-160.04 7.418L-160.431 5.298L-160.714 2.64099L-160.844 0.524994L-160.806 -2.15201L-160.675 -4.25299L-160.316 -6.90799L-159.924 -8.98499L-159.249 -11.572L-158.599 -13.616L-157.622 -16.094L-156.72 -18.096L-155.457 -20.423L-154.457 -22.125L-154.309 -22.376L-152.784 -24.515L-151.402 -26.409L-149.775 -28.264L-149.468 -28.598L-148.036 -30.155L-146.191 -31.941L-144.256 -33.575L-142.209 -35.288L-139.935 -36.951L-137.439 -38.561L-135.426 -39.852L-132.76 -41.379L-129.886 -42.847L-127.821 -43.8L-124.804 -45.18L-121.595 -46.496L-118.2 -47.746L-114.627 -48.929L-110.881 -50.04L-109.052 -50.565L-105.225 -51.582L-101.245 -52.525L-97.12 -53.394L-92.858 -54.185L-88.468 -54.898L-83.959 -55.531L-79.339 -56.082L-74.619 -56.552L-69.807 -56.938L-68.801 -57.003L-64.019 -57.298L-59.167 -57.51L-54.255 -57.639L-49.292 -57.685L-44.288 -57.647L-39.254 -57.525L-34.2 -57.321L-29.135 -57.033L-24.071 -56.663L-19.016 -56.212L-13.982 -55.68L-8.979 -55.069L-4.01601 -54.38L0.897003 -53.613L5.74899 -52.771L10.53 -51.856L15.232 -50.869L16.196 -50.659L20.916 -49.577L25.536 -48.426L30.045 -47.208L34.435 -45.926L38.697 -44.581L42.822 -43.177L46.802 -41.717L50.629 -40.204L54.295 -38.64L56.011 -37.857L59.585 -36.211L62.98 -34.52L66.189 -32.787L69.205 -31.016L72.024 -29.211L73.914 -27.969L76.58 -26.096L79.032 -24.196L81.266 -22.272L83.097 -20.669L85.144 -18.69L86.96 -16.695L88.627 -14.799L90.232 -12.761L91.668 -10.638L91.928 -10.248L93.05 -8.564L94.185 -6.48499L95.374 -4.14801L95.71 -3.35999L96.269 -2.047L97.171 0.438995L97.817 2.55399L98.415 5.147L98.806 7.267L99.089 9.92401L99.219 12.039L99.181 14.717L99.05 16.818L98.691 19.472L98.299 21.549L97.625 24.136L96.975 26.181L95.997 28.658L95.095 30.661L93.832 32.988L92.685 34.94L91.159 37.079L89.777 38.974L88.15 40.828L86.411 42.719L84.567 44.506L82.631 46.139L80.584 47.852L78.31 49.515L75.815 51.125L73.801 52.417L71.135 53.943L68.261 55.411L66.196 56.365L63.179 57.744L59.97 59.06L56.576 60.311L53.002 61.493L49.256 62.605L47.427 63.129L43.6 64.146L39.62 65.09L35.495 65.958L31.233 66.75L26.843 67.462L22.334 68.095L17.715 68.647L12.994 69.116L8.18201 69.502L7.17599 69.568L2.394 69.863L-2.45799 70.075L-7.37 70.204L-12.333 70.249L-17.336 70.211L-22.371 70.09L-27.425 69.885L-32.49 69.598" />
    <path fill="none" stroke="black" stroke-width="24" stroke-linecap="round" stroke-linejoin="round" transform="matrix(1 0 0 -1 250 325)" d="M-109.979 4.57001L-111.293 5.53201L-111.389 5.60101L-111.43 5.63199L-111.48 5.668L-111.509 5.689L-111.581 5.75L-111.665 5.82001L-112.952 6.897" />
    <path fill="none" stroke="black" stroke-width="24" stroke-linecap="round" stroke-linejoin="round" transform="matrix(1 0 0 -1 250 325)" d="M-106.27 2.56601L-108.198 3.54999L-109.979 4.57001L-110.158 4.673" />
    <path fill="none" stroke="black" stroke-width="24" stroke-linecap="round" stroke-linejoin="round" transform="matrix(1 0 0 -1 250 325)" d="M83.097 -20.669L80.824 -22.627L78.328 -24.56L75.614 -26.466L72.689 -28.34L69.558 -30.177L66.228 -31.976L62.704 -33.731L58.995 -35.439L55.108 -37.098L51.049 -38.703L46.829 -40.251L42.455 -41.739L37.936 -43.165L33.28 -44.525L28.499 -45.817L23.6 -47.038L18.594 -48.185L13.492 -49.256L8.302 -50.25L3.037 -51.163L-2.29401 -51.995L-7.681 -52.743L-13.111 -53.407L-18.574 -53.984L-24.059 -54.474L-29.556 -54.875L-35.052 -55.187L-40.538 -55.409L-46.001 -55.541L-51.431 -55.582L-56.817 -55.533L-62.149 -55.393L-67.414 -55.163L-72.604 -54.842L-77.706 -54.433L-82.712 -53.936L-87.61 -53.351L-92.392 -52.68L-97.047 -51.924L-101.567 -51.084L-105.941 -50.163L-110.161 -49.163L-114.219 -48.085L-118.107 -46.931L-121.816 -45.703L-125.34 -44.406L-128.67 -43.039L-131.801 -41.608L-134.726 -40.114L-137.439 -38.561" />
    <path fill="none" stroke="black" stroke-width="24" stroke-linecap="round" stroke-linejoin="round" transform="matrix(1 0 0 -1 250 325)" d="M-96.35 -1.01001L-97.992 -0.52301L-100.743 0.386993L-102.279 0.953003L-103.357 1.35001L-105.827 2.36301L-106.27 2.56601L-108.149 3.42499" />
    <path fill="none" stroke="black" stroke-width="24" stroke-linecap="round" stroke-linejoin="round" transform="matrix(1 0 0 -1 250 325)" d="M-65.434 -5.98801L-69.11 -5.69299L-72.925 -5.31299L-76.658 -4.86801L-80.303 -4.35599L-83.85 -3.78L-87.295 -3.14001L-90.628 -2.439L-93.845 -1.67599L-96.35 -1.01001L-96.938 -0.854004" />
    <path fill="none" stroke="black" stroke-width="24" stroke-linecap="round" stroke-linejoin="round" transform="matrix(1 0 0 -1 250 325)" d="M5.24699 -0.721008L4.67101 -0.84201L1.248 -1.561L-2.819 -2.33899L-6.946 -3.05499L-11.124 -3.707L-15.345 -4.29401L-19.601 -4.814L-23.883 -5.26599L-28.182 -5.64999L-32.49 -5.96399L-36.797 -6.20901L-41.096 -6.383L-45.378 -6.48599L-49.634 -6.51801L-53.855 -6.48001L-58.033 -6.37L-62.16 -6.189L-65.434 -5.98801L-66.227 -5.939" />
    <path fill="none" stroke="black" stroke-width="24" stroke-linecap="round" stroke-linejoin="round" transform="matrix(1 0 0 -1 250 325)" d="M35.074 8.78299L34.871 8.69699L32.111 7.51901L29.018 6.29599L25.802 5.116L22.468 3.98199L19.024 2.89499L15.476 1.858L11.832 0.873993L8.09801 -0.0559998L4.67101 -0.84201" />
    <path fill="none" stroke="black" stroke-width="24" stroke-linecap="round" stroke-linejoin="round" transform="matrix(1 0 0 -1 250 325)" d="M45.684 14.655L44.315 13.778L43.515 13.265L41.193 11.902L40.654 11.612L38.723 10.569L36.109 9.267L34.871 8.69699" />
    <path fill="none" stroke="black" stroke-width="24" stroke-linecap="round" stroke-linejoin="round" transform="matrix(1 0 0 -1 250 325)" d="M49.202 17.602L48.986 17.416L48.927 17.365L48.874 17.319L48.851 17.299L48.825 17.277L48.545 17.036L48.507 17.004L47.628 16.246L47.559 16.187L45.755 14.789L44.315 13.778" />
    <path fill="none" stroke="black" stroke-width="24" stroke-linecap="round" stroke-linejoin="round" transform="matrix(1 0 0 -1 250 325)" d="M50.095 18.8L49.202 17.819L49.178 17.792L49.075 17.679L49.018 17.617L48.985 17.581L48.814 17.393L48.813 17.392L47.628 16.246" />
    <path fill="none" stroke="black" stroke-width="24" stroke-linecap="round" stroke-linejoin="round" transform="matrix(1 0 0 -1 250 325)" d="M49.519 18.288L49.267 17.968L49.154 17.825L49.042 17.683L49.012 17.645L48.813 17.392" />
    <path fill="none" stroke="black" stroke-width="24" stroke-linecap="round" stroke-linejoin="round" transform="matrix(1 0 0 -1 250 325)" d="M49.738 18.893L49.154 17.825" />
    <path fill="none" stroke="black" stroke-width="24" stroke-linecap="round" stroke-linejoin="round" transform="matrix(1 0 0 -1 250 325)" d="M49.121 17.899L49.012 17.645" />
    <path fill="none" stroke="black" stroke-width="24" stroke-linecap="round" stroke-linejoin="round" transform="matrix(1 0 0 -1 250 325)" d="M-111.659 5.88599L-112.507 7.04901" />
    <path fill="none" stroke="black" stroke-width="24" stroke-linecap="round" stroke-linejoin="round" transform="matrix(1 0 0 -1 250 325)" d="M-111.293 5.53201L-111.42 5.65399L-111.468 5.70001L-111.659 5.88599L-111.721 5.94601L-112.269 6.47699" />
    <path fill="none" stroke="black" stroke-width="24" stroke-linecap="round" stroke-linejoin="round" transform="matrix(1 0 0 -1 250 325)" d="M-111.42 5.65399L-111.716 6.15799" />
  </g>
</svg>