<?xml version='1.0' encoding='utf-8'?>
<svg xmlns="http://www.w3.org/2000/svg" version="1.1" width="500" height="650" viewBox="0 0 500 650">
  <g>
    <path fill="none" stroke="none" transform="matrix(1 0 0 -1 250 325)" d="M-116.993 205.311L-122.366 196.877L-126.343 190.632L-126.72 190.041L-127.016 189.445L-127.234 188.846L-129.933 179.218L-130.261 178.048L-130.402 177.434L-130.46 176.817L-130.755 166.821L-131.05 156.825L-131.345 146.83L-131.64 136.834L-131.935 126.838L-132.23 116.843L-132.525 106.847L-132.82 96.852L-133.115 86.856L-133.41 76.86L-133.705 66.865L-134 56.869L-134.295 46.873L-134.59 36.878L-134.832 28.687L-134.809 28.068L-134.705 27.446L-134.519 26.823L-132.093 19.174L-131.831 18.561L-131.49 17.948L-131.069 17.335L-130.569 16.721L-129.99 16.107L-129.333 15.494L-128.597 14.882L-120.654 8.806L-115.546 4.89801L-114.817 4.35101L-114.019 3.80499L-113.152 3.26099L-112.217 2.71899L-111.215 2.17899L-110.145 1.64301L-109.009 1.10901L-107.808 0.579987L-106.541 0.053009L-105.211 -0.468994L-103.817 -0.985992L-102.36 -1.49899L-100.842 -2.00699L-99.263 -2.509L-97.624 -3.00601L-95.927 -3.49701L-94.171 -3.98199L-92.359 -4.45999L-90.492 -4.931L-88.57 -5.39499L-86.594 -5.85199L-84.566 -6.30099L-82.488 -6.742L-80.359 -7.17499L-78.183 -7.60001L-75.959 -8.01501L-73.689 -8.422L-71.375 -8.82001L-69.018 -9.20801L-66.62 -9.586L-64.181 -9.95499L-61.704 -10.313L-59.189 -10.661L-56.639 -10.999L-54.055 -11.325L-51.438 -11.641L-48.79 -11.946L-46.113 -12.239L-43.408 -12.521L-40.677 -12.791L-37.922 -13.049L-35.143 -13.295L-32.344 -13.529L-29.524 -13.751L-26.688 -13.96L-23.835 -14.157L-20.967 -14.341L-18.087 -14.513L-15.196 -14.671L-12.296 -14.816L-9.38901 -14.949L-6.476 -15.068L-3.55901 -15.174L-0.639999 -15.267L2.28 -15.346L5.198 -15.412L8.11301 -15.465L11.023 -15.504L13.926 -15.53L16.821 -15.542L19.706 -15.541L22.579 -15.526L25.439 -15.498L28.283 -15.456L31.11 -15.401L33.919 -15.332L36.706 -15.25L39.472 -15.155L42.214 -15.046L44.931 -14.924L47.621 -14.789L50.281 -14.641L52.912 -14.48L55.511 -14.306L58.076 -14.12L60.606 -13.92L63.1 -13.709L65.556 -13.484L67.972 -13.248L70.347 -12.999L72.68 -12.739L74.97 -12.467L77.214 -12.183L79.411 -11.887L81.561 -11.58L83.661 -11.262L85.712 -10.934L87.71 -10.594L89.656 -10.244L91.548 -9.884L93.384 -9.513L95.164 -9.133L96.887 -8.74301L98.552 -8.34299L100.157 -7.935L101.702 -7.517L103.186 -7.091L104.607 -6.65701L105.966 -6.21399L107.26 -5.763L108.491 -5.30499L109.655 -4.83899L110.754 -4.367L111.786 -3.88699L112.75 -3.40201L113.647 -2.909L114.475 -2.41199L115.235 -1.90799L123.522 3.689L128.853 7.289L129.622 7.85699L130.314 8.42999L130.927 9.009L131.462 9.59201L131.918 10.18L132.294 10.772L132.591 11.367L135.463 18.861L135.685 19.472L135.825 20.086L135.884 20.703L136.179 30.699L136.474 40.695L136.769 50.69L137.064 60.686L137.359 70.682L137.654 80.677L137.949 90.673L138.244 100.669L138.539 110.664L138.834 120.66L139.129 130.656L139.424 140.651L139.719 150.647L140.014 160.642L140.255 168.833L140.233 169.452L140.128 170.074L138.001 179.845L137.742 181.032L137.56 181.642L137.298 182.254L132.433 190.991L128.45 198.142" />
    <path fill="none" stroke="black" stroke-width="24" stroke-linecap="round" stroke-linejoin="round" transform="matrix(1 0 0 -1 250 325)" d="M128.053 197.737L128.06 197.534L128.007 196.976L127.88 196.421L127.68 195.869L127.407 195.32L127.06 194.774L126.64 194.232L126.147 193.694L125.581 193.161L124.944 192.633L124.234 192.11L123.453 191.592L122.602 191.08L121.68 190.574L120.688 190.074L119.627 189.581L118.497 189.095L117.299 188.616L116.034 188.145L114.703 187.682L113.306 187.227L111.844 186.78L110.318 186.341L108.73 185.912L107.079 185.492L106.488 185.35L105.367 185.081L103.595 184.68L101.764 184.289L99.876 183.908L97.93 183.537L95.93 183.177L93.874 182.828L91.766 182.49L89.606 182.163L87.395 181.848L85.136 181.544L82.828 181.252L80.474 180.972L78.075 180.704L75.632 180.448L73.147 180.205L70.622 179.975L68.058 179.757L65.456 179.552L62.818 179.36L60.145 179.181L57.44 179.016L54.704 178.863L51.938 178.725L49.144 178.599L46.325 178.488L43.48 178.39L40.613 178.305L37.725 178.235L34.818 178.178L31.893 178.135L28.953 178.106L25.998 178.09L23.032 178.089L20.054 178.102L17.069 178.128L14.076 178.168L11.079 178.222L8.078 178.29L5.075 178.372L2.07401 178.467L-0.925995 178.576L-3.922 178.699L-6.912 178.835L-9.894 178.985L-12.867 179.148L-15.828 179.324L-18.777 179.513L-21.711 179.716L-24.628 179.931L-27.527 180.159L-30.406 180.4L-33.263 180.653L-36.097 180.918L-38.905 181.196L-41.687 181.486L-44.44 181.787L-47.163 182.101L-49.854 182.425L-52.511 182.761L-55.134 183.108L-57.719 183.466L-60.267 183.835L-62.775 184.214L-65.241 184.603L-67.665 185.002L-70.045 185.411L-72.378 185.829L-74.665 186.257L-76.904 186.693L-79.092 187.138L-81.23 187.592L-83.315 188.054L-85.347 188.524L-87.323 189.001L-89.244 189.485L-91.107 189.977L-92.912 190.475L-94.658 190.98L-96.207 191.45L-96.343 191.491L-97.967 192.008L-99.528 192.53L-101.026 193.057L-102.459 193.59L-103.828 194.127L-105.13 194.668L-106.365 195.213L-107.534 195.761L-108.633 196.313L-109.664 196.868L-110.626 197.425L-111.517 197.984L-112.338 198.546L-113.087 199.109L-113.765 199.673L-114.371 200.238L-114.905 200.804L-115.366 201.369L-115.754 201.935L-116.069 202.5L-116.31 203.065L-116.478 203.628L-116.573 204.189L-116.593 204.749L-116.585 204.842" />
    <path fill="none" stroke="black" stroke-width="24" stroke-linecap="round" stroke-linejoin="round" transform="matrix(1 0 0 -1 250 325)" d="M-116.993 205.311L-122.366 196.877L-126.343 190.632L-126.72 190.041L-127.016 189.445L-127.234 188.846L-129.933 179.218L-130.261 178.048L-130.402 177.434L-130.46 176.817L-130.755 166.821L-131.05 156.825L-131.345 146.83L-131.64 136.834L-131.935 126.838L-132.23 116.843L-132.525 106.847L-132.82 96.852L-133.115 86.856L-133.41 76.86L-133.705 66.865L-134 56.869L-134.295 46.873L-134.59 36.878L-134.832 28.687L-134.809 28.068L-134.705 27.446L-134.519 26.823L-132.093 19.174L-131.831 18.561L-131.49 17.948L-131.069 17.335L-130.569 16.721L-129.99 16.107L-129.333 15.494L-128.597 14.882L-120.654 8.806L-115.546 4.89801L-114.817 4.35101L-114.019 3.80499L-113.152 3.26099L-112.217 2.71899L-111.215 2.17899L-110.145 1.64301L-109.009 1.10901L-107.808 0.579987L-106.541 0.053009L-105.211 -0.468994L-103.817 -0.985992L-102.36 -1.49899L-100.842 -2.00699L-99.263 -2.509L-97.624 -3.00601L-95.927 -3.49701L-94.171 -3.98199L-92.359 -4.45999L-90.492 -4.931L-88.57 -5.39499L-86.594 -5.85199L-84.566 -6.30099L-82.488 -6.742L-80.359 -7.17499L-78.183 -7.60001L-75.959 -8.01501L-73.689 -8.422L-71.375 -8.82001L-69.018 -9.20801L-66.62 -9.586L-64.181 -9.95499L-61.704 -10.313L-59.189 -10.661L-56.639 -10.999L-54.055 -11.325L-51.438 -11.641L-48.79 -11.946L-46.113 -12.239L-43.408 -12.521L-40.677 -12.791L-37.922 -13.049L-35.143 -13.295L-32.344 -13.529L-29.524 -13.751L-26.688 -13.96L-23.835 -14.157L-20.967 -14.341L-18.087 -14.513L-15.196 -14.671L-12.296 -14.816L-9.38901 -14.949L-6.476 -15.068L-3.55901 -15.174L-0.639999 -15.267L2.28 -15.346L5.198 -15.412L8.11301 -15.465L11.023 -15.504L13.926 -15.53L16.821 -15.542L19.706 -15.541L22.579 -15.526L25.439 -15.498L28.283 -15.456L31.11 -15.401L33.919 -15.332L36.706 -15.25L39.472 -15.155L42.214 -15.046L44.931 -14.924L47.621 -14.789L50.281 -14.641L52.912 -14.48L55.511 -14.306L58.076 -14.12L60.606 -13.92L63.1 -13.709L65.556 -13.484L67.972 -13.248L70.347 -12.999L72.68 -12.739L74.97 -12.467L77.214 -12.183L79.411 -11.887L81.561 -11.58L83.661 -11.262L85.712 -10.934L87.71 -10.594L89.656 -10.244L91.548 -9.884L93.384 -9.513L95.164 -9.133L96.887 -8.74301L98.552 -8.34299L100.157 -7.935L101.702 -7.517L103.186 -7.091L104.607 -6.65701L105.966 -6.21399L107.26 -5.763L108.491 -5.30499L109.655 -4.83899L110.754 -4.367L111.786 -3.88699L112.75 -3.40201L113.647 -2.909L114.475 -2.41199L115.235 -1.90799L123.522 3.689L128.853 7.289L129.622 7.85699L130.314 8.42999L130.927 9.009L131.462 9.59201L131.918 10.18L132.294 10.772L132.591 11.367L135.463 18.861L135.685 19.472L135.825 20.086L135.884 20.703L136.179 30.699L136.474 40.695L136.769 50.69L137.064 60.686L137.359 70.682L137.654 80.677L137.949 90.673L138.244 100.669L138.539 110.664L138.834 120.66L139.129 130.656L139.424 140.651L139.719 150.647L140.014 160.642L140.255 168.833L140.233 169.452L140.128 170.074L138.001 179.845L137.742 181.032L137.56 181.642L137.298 182.254L132.433 190.991L128.45 198.142" />
    <path fill="none" stroke="black" stroke-width="24" stroke-linecap="round" stroke-linejoin="round" transform="matrix(1 0 0 -1 250 325)" d="M106.488 185.35L108.585 186.04L110.855 186.846L112.912 187.676L114.753 188.528L117.162 189.669L118.819 190.561L121.106 192.002L122.564 192.931L123.785 193.879L125.936 195.617L126.937 196.598L128.053 197.737L128.45 198.142L128.887 198.589L130.595 200.793L131.374 201.817L132.826 204.216L133.359 205.264L134.531 207.823L135.404 210.5L135.684 211.574L136.246 214.338L136.49 217.148L136.51 218.237L136.432 221.056L136.033 223.848L135.791 224.938L135.078 227.66L134.059 230.284L133.564 231.362L132.257 233.841L130.673 236.154L129.941 237.208L128.113 239.31L127.147 240.348L125.104 242.207L123.917 243.225L121.694 244.816L120.298 245.81L118.675 246.798L116.341 248.076L114.532 249.035L112.506 249.984L110.267 250.921L107.932 251.844L105.541 252.747L102.952 253.634L100.17 254.504L97.2 255.355L94.048 256.186L91.948 256.699L88.702 257.488L85.291 258.255L81.723 258.996L78.004 259.711L74.143 260.399L70.146 261.057L66.022 261.686L61.779 262.282L57.426 262.846L52.971 263.376L48.423 263.871L43.793 264.33L39.088 264.752L34.318 265.136L29.494 265.482L24.624 265.788L19.719 266.055L14.788 266.281L9.841 266.466L4.88901 266.61L-0.0590057 266.713L-4.993 266.774L-9.90199 266.793L-14.778 266.77L-19.609 266.705L-24.388 266.599L-29.102 266.451L-33.745 266.262L-38.305 266.032L-42.774 265.762L-47.142 265.452L-51.402 265.103L-55.544 264.715L-59.56 264.289L-63.442 263.827L-67.182 263.329L-70.772 262.796L-74.206 262.229L-76.259 261.854L-79.611 261.24L-82.789 260.593L-85.786 259.915L-88.596 259.208L-91.214 258.472L-93.634 257.71L-96.024 256.924L-98.294 256.118L-100.351 255.288L-102.192 254.435L-104.601 253.295L-106.258 252.403L-108.545 250.962L-110.003 250.032L-111.224 249.085L-113.375 247.347L-114.376 246.366L-116.326 244.374L-118.034 242.171L-118.813 241.147L-120.265 238.748L-120.798 237.7L-121.97 235.14L-122.843 232.464L-123.123 231.389L-123.685 228.625L-123.929 225.815L-123.949 224.727L-123.871 221.908L-123.472 219.116L-123.23 218.026L-122.517 215.303L-121.498 212.68L-121.003 211.602L-119.696 209.123L-118.112 206.81L-117.38 205.756L-116.993 205.311L-116.585 204.842L-115.552 203.654L-114.586 202.616L-112.543 200.756L-111.356 199.738L-109.133 198.147L-107.737 197.154L-106.114 196.166L-103.78 194.888L-101.971 193.929L-99.945 192.98L-97.706 192.043L-96.207 191.45" />
    <path fill="none" stroke="black" stroke-width="24" stroke-linecap="round" stroke-linejoin="round" transform="matrix(1 0 0 -1 250 325)" d="M125.936 195.617L124.693 194.653L123.21 193.706L121.49 192.78L119.538 191.876L117.356 190.996L114.949 190.142L112.323 189.314L109.482 188.516L106.432 187.748L103.18 187.013L99.731 186.311L96.093 185.644L92.273 185.013L88.279 184.42L84.118 183.866L79.8 183.352L75.333 182.879L70.725 182.447L65.987 182.059L61.127 181.714L56.156 181.413L51.084 181.158L45.92 180.947L40.675 180.783L35.36 180.664L29.985 180.592L24.562 180.567L19.1 180.588L13.612 180.656L8.108 180.77L2.599 180.93L-2.903 181.136L-8.388 181.388L-13.845 181.685L-19.262 182.025L-24.628 182.41L-29.934 182.837L-35.167 183.307L-40.319 183.817L-45.377 184.368L-50.332 184.957L-55.175 185.585L-59.895 186.248L-64.482 186.947L-68.928 187.68L-73.224 188.445L-77.361 189.24L-81.33 190.065L-85.124 190.917L-88.735 191.795L-92.155 192.697L-95.379 193.621L-98.398 194.565L-101.208 195.528L-103.803 196.507L-106.177 197.501L-108.325 198.507L-110.244 199.524L-111.929 200.549L-113.378 201.58L-114.586 202.616" />
    <path fill="none" stroke="black" stroke-width="24" stroke-linecap="round" stroke-linejoin="round" transform="matrix(1 0 0 -1 250 325)" d="M79.833 231.437L79.768 231.427L76.753 230.929L73.533 230.451L70.179 230.004L66.698 229.589L63.096 229.208L59.382 228.86L55.562 228.547L51.644 228.269L47.636 228.027L43.547 227.82L39.384 227.651L35.156 227.518L30.871 227.423L26.538 227.365L22.165 227.344L17.762 227.361L13.338 227.416L8.89999 227.508L4.459 227.637L0.022995 227.803L-4.399 228.006L-8.798 228.245L-13.165 228.52L-17.491 228.83L-21.769 229.175L-25.988 229.553L-30.141 229.965L-34.219 230.409L-38.214 230.884L-42.118 231.39L-45.923 231.925L-49.621 232.488L-53.206 233.079L-56.669 233.695L-60.004 234.337L-63.204 235.002L-66.262 235.689L-67.211 235.919L-69.173 236.396" />
  </g>
</svg>