<?xml version='1.0' encoding='utf-8'?>
<svg xmlns="http://www.w3.org/2000/svg" version="1.1" width="500" height="650" viewBox="0 0 500 650">
  <g>
    <path fill="none" stroke="none" transform="matrix(1 0 0 -1 250 325)" d="M-107.568 162.416L-113.465 154.34L-113.815 153.86L-114.465 152.892L-115.037 151.915L-115.529 150.929L-115.943 149.934L-119.13 140.456L-119.385 139.699L-119.726 138.676L-119.986 137.645L-120.165 136.607L-120.263 135.563L-120.979 125.588L-121.696 115.614L-122.412 105.64L-123.128 95.665L-123.845 85.691L-124.561 75.717L-125.277 65.742L-125.993 55.768L-126.71 45.794L-127.426 35.819L-128.142 25.845L-128.859 15.871L-129.575 5.897L-130.291 -4.078L-130.515 -7.19501L-130.531 -8.245L-130.467 -9.29999L-130.32 -10.36L-130.093 -11.423L-127.977 -18.858L-127.674 -19.903L-127.292 -20.951L-126.831 -22.001L-126.292 -23.052L-125.673 -24.104L-124.977 -25.155L-124.202 -26.206L-123.351 -27.255L-122.423 -28.303L-121.418 -29.348L-120.338 -30.39L-119.183 -31.427L-117.954 -32.461L-116.652 -33.489L-108.655 -39.494L-104.856 -42.348L-103.623 -43.264L-102.325 -44.175L-100.965 -45.08L-99.541 -45.978L-98.055 -46.869L-96.508 -47.752L-94.901 -48.626L-93.235 -49.492L-91.511 -50.348L-89.73 -51.194L-87.892 -52.029L-86 -52.854L-84.054 -53.667L-82.055 -54.469L-80.004 -55.258L-77.904 -56.034L-75.755 -56.796L-73.557 -57.545L-71.314 -58.28L-69.026 -58.999L-66.694 -59.704L-64.32 -60.393L-61.905 -61.066L-59.451 -61.723L-56.959 -62.363L-54.43 -62.985L-51.867 -63.59L-49.271 -64.178L-46.643 -64.747L-43.985 -65.297L-41.298 -65.828L-38.584 -66.34L-35.846 -66.833L-33.083 -67.305L-30.299 -67.758L-27.494 -68.19L-24.671 -68.601L-21.831 -68.992L-18.976 -69.361L-16.107 -69.709L-13.227 -70.035L-10.337 -70.339L-7.438 -70.622L-4.533 -70.882L-1.623 -71.12L1.28999 -71.336L4.20399 -71.529L7.117 -71.699L10.028 -71.846L12.935 -71.971L15.837 -72.072L18.731 -72.151L21.615 -72.206L24.489 -72.238L27.35 -72.248L30.196 -72.234L33.026 -72.197L35.838 -72.136L38.631 -72.053L41.403 -71.947L44.151 -71.818L46.875 -71.666L49.573 -71.491L52.243 -71.293L54.883 -71.073L57.492 -70.83L60.069 -70.565L62.612 -70.279L65.119 -69.97L67.588 -69.639L70.019 -69.287L72.41 -68.913L74.759 -68.518L77.065 -68.103L79.327 -67.666L81.543 -67.21L83.712 -66.733L85.832 -66.236L87.903 -65.72L89.923 -65.185L91.89 -64.631L93.805 -64.058L95.664 -63.467L97.468 -62.858L99.216 -62.232L100.906 -61.589L102.537 -60.929L104.108 -60.252L105.618 -59.56L107.067 -58.852L108.454 -58.129L117.226 -53.329L121.308 -51.095L122.784 -50.272L124.189 -49.433L125.521 -48.58L126.78 -47.711L127.965 -46.828L129.075 -45.931L130.11 -45.021L131.069 -44.099L131.951 -43.164L132.757 -42.218L133.485 -41.26L134.135 -40.293L134.707 -39.315L135.199 -38.329L138.351 -31.284L138.773 -30.268L139.115 -29.245L139.375 -28.214L139.554 -27.176L139.652 -26.132L140.368 -16.157L141.084 -6.18301L141.801 3.79099L142.517 13.766L143.233 23.74L143.95 33.714L144.666 43.688L145.382 53.663L146.098 63.637L146.815 73.611L147.531 83.586L148.247 93.56L148.964 103.534L149.68 113.509L149.904 116.626L149.92 117.676L149.855 118.731L149.709 119.79L147.909 129.627L147.763 130.424L147.54 131.466L147.237 132.511L146.856 133.559L146.395 134.608L145.855 135.659L141.173 144.495L141.103 144.626" />
    <path fill="none" stroke="black" stroke-width="24" stroke-linecap="round" stroke-linejoin="round" transform="matrix(1 0 0 -1 250 325)" d="M-107.568 162.416L-113.465 154.34L-113.815 153.86L-114.465 152.892L-115.037 151.915L-115.529 150.929L-115.943 149.934L-119.13 140.456L-119.385 139.699L-119.726 138.676L-119.986 137.645L-120.165 136.607L-120.263 135.563L-120.979 125.588L-121.696 115.614L-122.412 105.64L-123.128 95.665L-123.845 85.691L-124.561 75.717L-125.277 65.742L-125.993 55.768L-126.71 45.794L-127.426 35.819L-128.142 25.845L-128.859 15.871L-129.575 5.897L-130.291 -4.078L-130.515 -7.19501L-130.531 -8.245L-130.467 -9.29999L-130.32 -10.36L-130.093 -11.423L-127.977 -18.858L-127.674 -19.903L-127.292 -20.951L-126.831 -22.001L-126.292 -23.052L-125.673 -24.104L-124.977 -25.155L-124.202 -26.206L-123.351 -27.255L-122.423 -28.303L-121.418 -29.348L-120.338 -30.39L-119.183 -31.427L-117.954 -32.461L-116.652 -33.489L-108.655 -39.494L-104.856 -42.348L-103.623 -43.264L-102.325 -44.175L-100.965 -45.08L-99.541 -45.978L-98.055 -46.869L-96.508 -47.752L-94.901 -48.626L-93.235 -49.492L-91.511 -50.348L-89.73 -51.194L-87.892 -52.029L-86 -52.854L-84.054 -53.667L-82.055 -54.469L-80.004 -55.258L-77.904 -56.034L-75.755 -56.796L-73.557 -57.545L-71.314 -58.28L-69.026 -58.999L-66.694 -59.704L-64.32 -60.393L-61.905 -61.066L-59.451 -61.723L-56.959 -62.363L-54.43 -62.985L-51.867 -63.59L-49.271 -64.178L-46.643 -64.747L-43.985 -65.297L-41.298 -65.828L-38.584 -66.34L-35.846 -66.833L-33.083 -67.305L-30.299 -67.758L-27.494 -68.19L-24.671 -68.601L-21.831 -68.992L-18.976 -69.361L-16.107 -69.709L-13.227 -70.035L-10.337 -70.339L-7.438 -70.622L-4.533 -70.882L-1.623 -71.12L1.28999 -71.336L4.20399 -71.529L7.117 -71.699L10.028 -71.846L12.935 -71.971L15.837 -72.072L18.731 -72.151L21.615 -72.206L24.489 -72.238L27.35 -72.248L30.196 -72.234L33.026 -72.197L35.838 -72.136L38.631 -72.053L41.403 -71.947L44.151 -71.818L46.875 -71.666L49.573 -71.491L52.243 -71.293L54.883 -71.073L57.492 -70.83L60.069 -70.565L62.612 -70.279L65.119 -69.97L67.588 -69.639L70.019 -69.287L72.41 -68.913L74.759 -68.518L77.065 -68.103L79.327 -67.666L81.543 -67.21L83.712 -66.733L85.832 -66.236L87.903 -65.72L89.923 -65.185L91.89 -64.631L93.805 -64.058L95.664 -63.467L97.468 -62.858L99.216 -62.232L100.906 -61.589L102.537 -60.929L104.108 -60.252L105.618 -59.56L107.067 -58.852L108.454 -58.129L117.226 -53.329L121.308 -51.095L122.784 -50.272L124.189 -49.433L125.521 -48.58L126.78 -47.711L127.965 -46.828L129.075 -45.931L130.11 -45.021L131.069 -44.099L131.951 -43.164L132.757 -42.218L133.485 -41.26L134.135 -40.293L134.707 -39.315L135.199 -38.329L138.351 -31.284L138.773 -30.268L139.115 -29.245L139.375 -28.214L139.554 -27.176L139.652 -26.132L140.368 -16.157L141.084 -6.18301L141.801 3.79099L142.517 13.766L143.233 23.74L143.95 33.714L144.666 43.688L145.382 53.663L146.098 63.637L146.815 73.611L147.531 83.586L148.247 93.56L148.964 103.534L149.68 113.509L149.904 116.626L149.92 117.676L149.855 118.731L149.709 119.79L147.909 129.627L147.763 130.424L147.54 131.466L147.237 132.511L146.856 133.559L146.395 134.608L145.855 135.659L141.173 144.495L141.103 144.626" />
    <path fill="none" stroke="black" stroke-width="24" stroke-linecap="round" stroke-linejoin="round" transform="matrix(1 0 0 -1 250 325)" d="M137.858 140.59L137.683 140.172L137.229 139.262L136.702 138.361L136.103 137.469L135.432 136.587L134.689 135.714L133.876 134.853L132.992 134.002L132.038 133.163L131.014 132.337L129.922 131.523L128.761 130.722L127.533 129.935L126.239 129.162L124.878 128.404L123.452 127.66L121.962 126.932L120.409 126.22L118.793 125.525L117.116 124.846L115.379 124.185L113.582 123.54L111.726 122.914L109.814 122.307L107.845 121.718L105.822 121.148L103.745 120.598L101.615 120.067L99.435 119.556L97.205 119.066L94.926 118.596L92.6 118.148L90.229 117.72L87.813 117.314L85.354 116.93L82.854 116.568L80.315 116.228L77.737 115.91L75.122 115.615L72.473 115.343L69.789 115.093L67.729 114.921L67.074 114.867L64.328 114.664L61.554 114.484L58.753 114.327L55.927 114.195L53.077 114.085L50.205 114L47.313 113.938L44.402 113.9L41.475 113.885L38.533 113.895L35.578 113.928L32.612 113.985L29.636 114.066L26.653 114.17L23.663 114.298L20.669 114.45L17.673 114.625L14.677 114.823L11.681 115.045L8.689 115.289L5.702 115.557L2.72099 115.848L-0.251007 116.161L-3.213 116.496L-6.16299 116.854L-9.099 117.233L-12.02 117.635L-14.923 118.058L-17.807 118.502L-20.67 118.967L-23.511 119.453L-26.327 119.96L-29.118 120.487L-31.881 121.033L-34.614 121.599L-37.317 122.184L-39.987 122.788L-40.774 122.974L-42.623 123.41L-45.222 124.05L-47.785 124.708L-50.309 125.384L-52.792 126.076L-55.234 126.784L-57.632 127.509L-59.985 128.249L-62.292 129.005L-64.551 129.775L-66.762 130.559L-68.922 131.357L-71.03 132.168L-73.085 132.992L-75.087 133.828L-77.033 134.677L-78.922 135.536L-80.754 136.406L-82.527 137.286L-84.241 138.176L-85.893 139.076L-87.484 139.983L-89.012 140.899L-90.476 141.823L-91.875 142.753L-93.209 143.69L-94.477 144.633L-95.678 145.58L-96.811 146.533L-97.875 147.49L-98.871 148.45L-99.797 149.413L-100.653 150.379L-101.437 151.346L-102.151 152.315L-102.793 153.284L-103.363 154.254L-103.861 155.223L-104.286 156.19L-104.638 157.157L-104.827 157.81" />
    <path fill="none" stroke="black" stroke-width="24" stroke-linecap="round" stroke-linejoin="round" transform="matrix(1 0 0 -1 250 325)" d="M67.729 114.921L70.717 115.22L75.105 115.739L79.375 116.327L83.518 116.984L85.164 117.247L89.266 117.987L93.222 118.794L97.024 119.666L100.663 120.601L104.134 121.598L107.428 122.655L109.494 123.351L112.672 124.489L115.657 125.683L118.443 126.932L120.57 127.999L123.202 129.324L125.619 130.699L127.817 132.122L129.918 133.544L131.927 135.036L133.705 136.57L135.67 138.296L137.237 139.894L137.858 140.59L138.998 141.871L140.34 143.526L141.103 144.626L141.864 145.723L142.971 147.43L144.231 149.812L145.092 151.565L146.066 154.093L146.674 155.884L147.345 158.52L147.694 160.341L148.049 163.042L148.138 164.885L148.172 167.609L147.998 169.466L147.712 172.168L147.107 174.818L146.677 176.67L145.766 179.217L145.084 181.062L143.883 183.467L142.957 185.296L141.781 187.126L140.327 189.326L138.923 191.13L137.232 193.11L135.612 194.88L133.758 196.641L131.894 198.338L129.846 200.055L127.576 201.756L125.592 203.138L123.152 204.786L120.504 206.411L117.653 208.011L114.604 209.581L112.681 210.554L109.51 212.06L106.157 213.53L102.631 214.963L98.938 216.356L95.085 217.705L91.081 219.008L89.52 219.493L85.467 220.719L81.282 221.894L76.972 223.017L72.547 224.086L68.016 225.097L63.388 226.05L58.673 226.941L53.878 227.771L49.015 228.536L44.094 229.235L39.123 229.867L34.113 230.43L29.075 230.924L24.017 231.347L18.951 231.699L13.887 231.978L8.83501 232.185L3.80499 232.319L-1.194 232.379L-6.149 232.365L-11.053 232.279L-15.895 232.118L-20.664 231.885L-25.353 231.579L-29.95 231.202L-34.447 230.753L-38.835 230.234L-43.106 229.645L-47.249 228.989L-48.895 228.726L-52.997 227.986L-56.953 227.179L-60.755 226.307L-64.394 225.371L-67.865 224.374L-71.158 223.318L-73.224 222.622L-76.403 221.484L-79.388 220.289L-82.173 219.041L-84.301 217.974L-86.932 216.648L-89.35 215.273L-91.548 213.851L-93.648 212.429L-95.658 210.936L-97.436 209.402L-99.401 207.676L-100.968 206.078L-102.728 204.102L-104.071 202.446L-105.595 200.25L-106.701 198.542L-107.962 196.161L-108.823 194.408L-109.797 191.879L-110.405 190.088L-111.075 187.453L-111.425 185.632L-111.78 182.93L-111.868 181.087L-111.903 178.364L-111.729 176.506L-111.442 173.804L-110.838 171.155L-110.408 169.303L-109.497 166.755L-108.815 164.911L-107.614 162.506L-107.568 162.416L-106.688 160.676L-105.512 158.846L-104.827 157.81L-104.058 156.646L-102.654 154.842L-100.963 152.862L-99.343 151.092L-97.489 149.332L-95.625 147.634L-93.577 145.917L-91.307 144.217L-89.322 142.835L-86.883 141.187L-84.235 139.561L-81.383 137.961L-78.335 136.391L-76.412 135.418L-73.24 133.913L-69.888 132.442L-66.362 131.009L-62.669 129.617L-58.816 128.268L-54.811 126.965L-53.251 126.479L-49.198 125.253L-45.012 124.078L-40.774 122.974" />
    <path fill="none" stroke="black" stroke-width="24" stroke-linecap="round" stroke-linejoin="round" transform="matrix(1 0 0 -1 250 325)" d="M-62.51 186.67L-62.568 186.725L-62.577 186.734L-62.609 186.765L-62.749 186.918L-62.893 187.075L-63.496 187.733L-63.751 188.013" />
    <path fill="none" stroke="black" stroke-width="24" stroke-linecap="round" stroke-linejoin="round" transform="matrix(1 0 0 -1 250 325)" d="M-60.552 185.128L-61.66 185.957L-62.51 186.67L-62.562 186.714L-62.571 186.721L-62.645 186.783L-62.77 186.888L-62.844 186.951L-63.166 187.22" />
    <path fill="none" stroke="black" stroke-width="24" stroke-linecap="round" stroke-linejoin="round" transform="matrix(1 0 0 -1 250 325)" d="M129.918 133.544L127.68 132.096L125.22 130.696L122.542 129.347L119.65 128.052L116.552 126.812L113.253 125.631L109.761 124.511L106.081 123.453L102.221 122.461L98.19 121.537L93.995 120.681L89.645 119.896L85.148 119.184L80.514 118.545L75.752 117.982L70.871 117.495L65.882 117.085L60.794 116.753L55.617 116.5L50.363 116.326L45.041 116.232L39.663 116.217L34.238 116.283L28.779 116.428L23.296 116.652L17.8 116.955L12.302 117.337L6.814 117.796L1.34599 118.332L-4.091 118.944L-9.48599 119.629L-14.827 120.388L-20.105 121.218L-25.308 122.118L-30.426 123.086L-35.448 124.12L-40.366 125.217L-45.167 126.377L-49.844 127.596L-54.387 128.871L-58.786 130.201L-63.032 131.583L-67.118 133.013L-71.034 134.49L-74.773 136.009L-78.328 137.569L-81.691 139.165L-84.855 140.795L-87.814 142.455L-90.563 144.142L-93.095 145.853L-95.405 147.584L-97.489 149.332" />
    <path fill="none" stroke="black" stroke-width="24" stroke-linecap="round" stroke-linejoin="round" transform="matrix(1 0 0 -1 250 325)" d="M-55.012 181.899L-55.863 182.337L-58.058 183.569L-60.096 184.82L-60.552 185.128L-61.708 185.909L-61.775 185.954L-61.974 186.089" />
    <path fill="none" stroke="black" stroke-width="24" stroke-linecap="round" stroke-linejoin="round" transform="matrix(1 0 0 -1 250 325)" d="M-38.609 175.474L-41.219 176.323L-44.333 177.413L-44.517 177.483L-47.318 178.538L-50.167 179.696L-52.876 180.885L-55.012 181.899L-55.439 182.102" />
    <path fill="none" stroke="black" stroke-width="24" stroke-linecap="round" stroke-linejoin="round" transform="matrix(1 0 0 -1 250 325)" d="M76.786 167.68L75.267 167.439L73.262 167.121L69.63 166.621L65.898 166.179L62.073 165.798L58.162 165.476L54.175 165.216L50.118 165.018L46 164.882L41.829 164.808L37.614 164.796L33.363 164.848L29.084 164.961L24.787 165.137L20.479 165.375L16.171 165.674L11.869 166.034L7.584 166.454L3.323 166.933L-0.904999 167.471L-5.091 168.065L-9.22701 168.716L-13.305 169.421L-17.316 170.18L-21.253 170.99L-25.106 171.85L-28.87 172.759L-32.535 173.714L-36.095 174.714L-38.609 175.474L-39.543 175.756" />
    <path fill="none" stroke="black" stroke-width="24" stroke-linecap="round" stroke-linejoin="round" transform="matrix(1 0 0 -1 250 325)" d="M93.133 171.787L91.97 171.414L90.471 170.933L87.666 170.127L84.725 169.371L81.653 168.666L80.786 168.49L78.456 168.014L75.267 167.439" />
    <path fill="none" stroke="black" stroke-width="24" stroke-linecap="round" stroke-linejoin="round" transform="matrix(1 0 0 -1 250 325)" d="M97.956 173.847L97.819 173.786L95.812 172.886L93.514 171.967L91.97 171.414" />
    <path fill="none" stroke="black" stroke-width="24" stroke-linecap="round" stroke-linejoin="round" transform="matrix(1 0 0 -1 250 325)" d="M101.159 175.812L100.247 175.222L100.23 175.211L100.064 175.104L99.721 174.881L99.542 174.766L97.819 173.786" />
    <path fill="none" stroke="black" stroke-width="24" stroke-linecap="round" stroke-linejoin="round" transform="matrix(1 0 0 -1 250 325)" d="M101.73 176.524L101.053 175.94L100.476 175.442L100.359 175.355L100.183 175.225L99.721 174.881" />
    <path fill="none" stroke="black" stroke-width="24" stroke-linecap="round" stroke-linejoin="round" transform="matrix(1 0 0 -1 250 325)" d="M100.829 175.883L100.183 175.225" />
    <path fill="none" stroke="black" stroke-width="24" stroke-linecap="round" stroke-linejoin="round" transform="matrix(1 0 0 -1 250 325)" d="M-62.568 186.725L-62.941 187.463" />
    <path fill="none" stroke="black" stroke-width="24" stroke-linecap="round" stroke-linejoin="round" transform="matrix(1 0 0 -1 250 325)" d="M-62.749 186.918L-63.014 187.258" />
  </g>
</svg>