<?xml version='1.0' encoding='utf-8'?>
<svg xmlns="http://www.w3.org/2000/svg" version="1.1" width="500" height="650" viewBox="0 0 500 650">
  <g>
    <path fill="none" stroke="none" transform="matrix(1 0 0 -1 250 325)" d="M-79.876 5.625L-86.5 -1.867L-86.753 -2.15302L-87.489 -3.07901L-88.149 -4.022L-88.73 -4.98099L-89.234 -5.95599L-93.283 -15.1L-93.596 -15.806L-94.03 -16.817L-94.385 -17.842L-94.659 -18.882L-94.853 -19.936L-96.481 -29.803L-98.109 -39.669L-99.738 -49.536L-101.366 -59.402L-102.994 -69.269L-104.623 -79.135L-106.251 -89.002L-107.879 -98.868L-109.508 -108.735L-111.136 -118.601L-112.764 -128.468L-114.393 -138.335L-116.021 -148.201L-117.649 -158.068L-118.102 -160.809L-118.215 -161.876L-118.248 -162.956L-118.2 -164.047L-118.071 -165.149L-117.862 -166.262L-116.439 -173.818L-116.155 -174.918L-115.793 -176.028L-115.352 -177.146L-114.833 -178.272L-114.237 -179.404L-113.562 -180.543L-112.811 -181.688L-111.983 -182.837L-111.08 -183.99L-110.1 -185.147L-109.046 -186.307L-107.917 -187.469L-106.715 -188.633L-105.439 -189.797L-98.003 -196.482L-94.633 -199.511L-93.425 -200.555L-92.153 -201.598L-90.818 -202.639L-89.42 -203.679L-87.961 -204.717L-86.442 -205.751L-84.862 -206.781L-83.224 -207.807L-81.528 -208.828L-79.776 -209.844L-77.967 -210.853L-76.104 -211.856L-74.187 -212.851L-72.218 -213.838L-70.198 -214.816L-68.128 -215.785L-66.009 -216.745L-63.842 -217.694L-61.63 -218.632L-59.373 -219.558L-57.072 -220.473L-54.729 -221.375L-52.346 -222.263L-49.923 -223.138L-47.463 -223.999L-44.966 -224.845L-42.434 -225.676L-39.87 -226.491L-37.273 -227.29L-34.647 -228.072L-31.992 -228.837L-29.31 -229.585L-26.602 -230.314L-23.871 -231.024L-21.118 -231.716L-18.344 -232.388L-15.552 -233.041L-12.743 -233.673L-9.918 -234.285L-7.08 -234.876L-4.229 -235.445L-1.369 -235.993L1.5 -236.519L4.37601 -237.023L7.257 -237.504L10.141 -237.962L13.027 -238.397L15.912 -238.809L18.796 -239.197L21.676 -239.561L24.551 -239.901L27.418 -240.216L30.277 -240.507L33.125 -240.774L35.961 -241.016L38.783 -241.232L41.589 -241.424L44.378 -241.59L47.148 -241.731L49.897 -241.846L52.624 -241.936L55.326 -242.001L58.003 -242.04L60.653 -242.053L63.274 -242.041L65.865 -242.003L68.423 -241.939L70.948 -241.85L73.438 -241.736L75.892 -241.596L78.307 -241.431L80.683 -241.24L83.018 -241.024L85.31 -240.784L87.559 -240.518L89.763 -240.228L91.921 -239.913L94.03 -239.574L96.091 -239.211L98.102 -238.824L100.061 -238.413L101.968 -237.979L103.82 -237.522L105.618 -237.042L107.361 -236.539L109.046 -236.014L110.673 -235.467L112.241 -234.898L113.749 -234.308L115.196 -233.697L124.387 -229.756L128.638 -227.933L130.184 -227.229L131.66 -226.502L133.065 -225.753L134.399 -224.982L135.66 -224.19L136.849 -223.377L137.964 -222.545L139.004 -221.692L139.969 -220.82L140.858 -219.93L141.672 -219.021L142.408 -218.095L143.068 -217.152L143.65 -216.192L147.431 -209.485L147.945 -208.49L148.38 -207.479L148.734 -206.453L149.008 -205.413L149.202 -204.359L150.83 -194.493L152.459 -184.626L154.087 -174.76L155.716 -164.893L157.344 -155.027L158.972 -145.16L160.601 -135.294L162.229 -125.427L163.857 -115.561L165.486 -105.694L167.114 -95.828L168.742 -85.961L170.371 -76.094L171.999 -66.228L172.451 -63.486L172.565 -62.419L172.597 -61.34L172.549 -60.249L171.653 -50.289L171.583 -49.509L171.457 -48.429L171.252 -47.338L170.969 -46.238L170.606 -45.128L170.166 -44.011L166.346 -34.897" />
    <path fill="none" stroke="black" stroke-width="24" stroke-linecap="round" stroke-linejoin="round" transform="matrix(1 0 0 -1 250 325)" d="M-79.876 5.625L-86.5 -1.867L-86.753 -2.15302L-87.489 -3.07901L-88.149 -4.022L-88.73 -4.98099L-89.234 -5.95599L-93.283 -15.1L-93.596 -15.806L-94.03 -16.817L-94.385 -17.842L-94.659 -18.882L-94.853 -19.936L-96.481 -29.803L-98.109 -39.669L-99.738 -49.536L-101.366 -59.402L-102.994 -69.269L-104.623 -79.135L-106.251 -89.002L-107.879 -98.868L-109.508 -108.735L-111.136 -118.601L-112.764 -128.468L-114.393 -138.335L-116.021 -148.201L-117.649 -158.068L-118.102 -160.809L-118.215 -161.876L-118.248 -162.956L-118.2 -164.047L-118.071 -165.149L-117.862 -166.262L-116.439 -173.818L-116.155 -174.918L-115.793 -176.028L-115.352 -177.146L-114.833 -178.272L-114.237 -179.404L-113.562 -180.543L-112.811 -181.688L-111.983 -182.837L-111.08 -183.99L-110.1 -185.147L-109.046 -186.307L-107.917 -187.469L-106.715 -188.633L-105.439 -189.797L-98.003 -196.482L-94.633 -199.511L-93.425 -200.555L-92.153 -201.598L-90.818 -202.639L-89.42 -203.679L-87.961 -204.717L-86.442 -205.751L-84.862 -206.781L-83.224 -207.807L-81.528 -208.828L-79.776 -209.844L-77.967 -210.853L-76.104 -211.856L-74.187 -212.851L-72.218 -213.838L-70.198 -214.816L-68.128 -215.785L-66.009 -216.745L-63.842 -217.694L-61.63 -218.632L-59.373 -219.558L-57.072 -220.473L-54.729 -221.375L-52.346 -222.263L-49.923 -223.138L-47.463 -223.999L-44.966 -224.845L-42.434 -225.676L-39.87 -226.491L-37.273 -227.29L-34.647 -228.072L-31.992 -228.837L-29.31 -229.585L-26.602 -230.314L-23.871 -231.024L-21.118 -231.716L-18.344 -232.388L-15.552 -233.041L-12.743 -233.673L-9.918 -234.285L-7.08 -234.876L-4.229 -235.445L-1.369 -235.993L1.5 -236.519L4.37601 -237.023L7.257 -237.504L10.141 -237.962L13.027 -238.397L15.912 -238.809L18.796 -239.197L21.676 -239.561L24.551 -239.901L27.418 -240.216L30.277 -240.507L33.125 -240.774L35.961 -241.016L38.783 -241.232L41.589 -241.424L44.378 -241.59L47.148 -241.731L49.897 -241.846L52.624 -241.936L55.326 -242.001L58.003 -242.04L60.653 -242.053L63.274 -242.041L65.865 -242.003L68.423 -241.939L70.948 -241.85L73.438 -241.736L75.892 -241.596L78.307 -241.431L80.683 -241.24L83.018 -241.024L85.31 -240.784L87.559 -240.518L89.763 -240.228L91.921 -239.913L94.03 -239.574L96.091 -239.211L98.102 -238.824L100.061 -238.413L101.968 -237.979L103.82 -237.522L105.618 -237.042L107.361 -236.539L109.046 -236.014L110.673 -235.467L112.241 -234.898L113.749 -234.308L115.196 -233.697L124.387 -229.756L128.638 -227.933L130.184 -227.229L131.66 -226.502L133.065 -225.753L134.399 -224.982L135.66 -224.19L136.849 -223.377L137.964 -222.545L139.004 -221.692L139.969 -220.82L140.858 -219.93L141.672 -219.021L142.408 -218.095L143.068 -217.152L143.65 -216.192L147.431 -209.485L147.945 -208.49L148.38 -207.479L148.734 -206.453L149.008 -205.413L149.202 -204.359L150.83 -194.493L152.459 -184.626L154.087 -174.76L155.716 -164.893L157.344 -155.027L158.972 -145.16L160.601 -135.294L162.229 -125.427L163.857 -115.561L165.486 -105.694L167.114 -95.828L168.742 -85.961L170.371 -76.094L171.999 -66.228L172.451 -63.486L172.565 -62.419L172.597 -61.34L172.549 -60.249L171.653 -50.289L171.583 -49.509L171.457 -48.429L171.252 -47.338L170.969 -46.238L170.606 -45.128L170.166 -44.011L166.346 -34.897" />
    <path fill="none" stroke="black" stroke-width="24" stroke-linecap="round" stroke-linejoin="round" transform="matrix(1 0 0 -1 250 325)" d="M162.53 -38.897L162.429 -39.092L161.892 -39.977L161.284 -40.846L160.605 -41.7L159.856 -42.537L159.036 -43.358L158.146 -44.162L157.187 -44.948L156.16 -45.715L155.064 -46.465L153.901 -47.195L152.672 -47.905L151.376 -48.596L150.016 -49.266L148.591 -49.915L147.102 -50.544L145.552 -51.15L143.939 -51.735L142.266 -52.298L140.533 -52.838L138.741 -53.355L136.892 -53.848L134.987 -54.319L133.026 -54.765L131.012 -55.187L128.944 -55.585L126.825 -55.959L124.655 -56.308L122.437 -56.631L120.17 -56.93L117.858 -57.203L115.5 -57.45L113.099 -57.672L110.656 -57.868L108.172 -58.038L105.649 -58.182L103.088 -58.299L100.492 -58.391L97.861 -58.456L95.197 -58.495L92.502 -58.508L89.777 -58.494L87.024 -58.454L85.143 -58.409L84.244 -58.388L81.44 -58.295L78.613 -58.177L75.765 -58.032L72.897 -57.861L70.011 -57.664L67.11 -57.441L64.193 -57.192L61.264 -56.918L58.325 -56.619L55.376 -56.294L52.42 -55.945L49.458 -55.57L46.493 -55.171L43.525 -54.748L40.558 -54.301L37.592 -53.83L34.629 -53.335L31.672 -52.817L28.722 -52.276L25.78 -51.713L22.849 -51.127L19.93 -50.52L17.025 -49.89L14.136 -49.24L11.265 -48.569L8.41299 -47.878L5.582 -47.167L2.77299 -46.436L-0.0110016 -45.686L-2.769 -44.917L-5.49899 -44.131L-8.2 -43.327L-10.87 -42.505L-11.57 -42.283L-13.508 -41.667L-16.111 -40.812L-18.679 -39.942L-21.209 -39.057L-23.7 -38.157L-26.151 -37.243L-28.56 -36.316L-30.926 -35.375L-33.248 -34.423L-35.523 -33.458L-37.751 -32.482L-39.93 -31.495L-42.058 -30.499L-44.136 -29.493L-46.161 -28.478L-48.132 -27.454L-50.048 -26.424L-51.907 -25.386L-53.71 -24.341L-55.454 -23.291L-57.139 -22.236L-58.763 -21.177L-60.325 -20.113L-61.826 -19.046L-63.263 -17.977L-64.636 -16.906L-65.943 -15.833L-67.186 -14.76L-68.361 -13.687L-69.469 -12.615L-70.51 -11.544L-71.482 -10.475L-72.385 -9.40799L-73.218 -8.345L-73.981 -7.285L-74.673 -6.23001L-75.295 -5.17999L-75.845 -4.13599L-76.323 -3.099L-76.729 -2.06799L-77.063 -1.04501L-77.325 -0.0310059L-77.409 0.417999" />
    <path fill="none" stroke="black" stroke-width="24" stroke-linecap="round" stroke-linejoin="round" transform="matrix(1 0 0 -1 250 325)" d="M85.143 -58.409L86.841 -58.433L91.404 -58.418L95.869 -58.321L100.228 -58.142L101.746 -58.057L106.088 -57.792L110.302 -57.445L114.381 -57.016L118.315 -56.506L122.097 -55.917L125.72 -55.25L129.176 -54.505L131.263 -54.023L134.616 -53.185L137.785 -52.271L140.763 -51.284L143.544 -50.225L145.789 -49.357L148.418 -48.206L150.836 -46.987L153.039 -45.783L155.279 -44.475L157.295 -43.102L159.396 -41.582L161.211 -40.124L162.53 -38.897L163.134 -38.334L164.733 -36.796L166.09 -35.201L166.346 -34.897L167.816 -33.151L168.94 -31.483L170.417 -29.227L171.298 -27.492L172.502 -25.064L173.409 -22.511L174.042 -20.71L174.642 -18.061L175.018 -16.212L175.301 -13.509L175.417 -11.621L175.378 -8.90799L175.235 -6.98901L174.876 -4.30801L174.478 -2.36801L173.806 0.235992L173.159 2.19L172.187 4.67599L171.297 6.634L170.043 8.961L168.922 10.915L167.558 12.885L166.067 14.986L164.488 16.939L162.773 18.805L160.994 20.734L158.991 22.667L156.767 24.602L154.94 26.128L152.548 28.022L149.948 29.91L147.146 31.788L144.148 33.652L142.357 34.761L139.237 36.568L135.937 38.354L132.463 40.115L128.824 41.848L125.026 43.549L121.076 45.215L119.616 45.804L115.617 47.394L111.486 48.943L107.231 50.449L102.862 51.908L98.386 53.316L93.813 54.672L89.151 55.973L84.412 57.216L79.603 58.398L74.735 59.517L69.817 60.57L64.859 61.557L59.872 62.474L54.865 63.32L49.849 64.093L44.833 64.792L39.827 65.414L34.843 65.96L29.889 66.428L24.976 66.816L20.113 67.125L15.311 67.353L10.579 67.5L5.927 67.566L1.36301 67.55L-3.10201 67.453L-7.46001 67.275L-8.979 67.189L-13.321 66.924L-17.535 66.577L-21.613 66.148L-25.548 65.639L-29.33 65.05L-32.952 64.382L-36.408 63.638L-38.496 63.155L-41.849 62.317L-45.017 61.403L-47.995 60.416L-50.776 59.357L-53.021 58.489L-55.651 57.339L-58.069 56.119L-60.272 54.915L-62.512 53.607L-64.528 52.234L-66.629 50.714L-68.443 49.256L-70.367 47.466L-71.966 45.929L-73.323 44.333L-75.049 42.284L-76.172 40.616L-77.65 38.359L-78.53 36.625L-79.734 34.197L-80.642 31.643L-81.275 29.842L-81.875 27.193L-82.25 25.344L-82.533 22.641L-82.649 20.753L-82.61 18.04L-82.468 16.121L-82.109 13.441L-81.711 11.5L-81.039 8.896L-80.391 6.94199L-79.876 5.625L-79.419 4.45599L-78.53 2.49799L-77.409 0.417999L-77.276 0.17099L-76.154 -1.78201L-74.79 -3.75299L-73.299 -5.854L-71.721 -7.80701L-70.005 -9.673L-68.227 -11.602L-66.223 -13.535L-63.999 -15.47L-62.173 -16.996L-59.78 -18.89L-57.18 -20.778L-54.379 -22.656L-51.381 -24.52L-49.59 -25.629L-46.469 -27.436L-43.169 -29.222L-39.696 -30.983L-36.056 -32.716L-32.258 -34.417L-28.309 -36.083L-26.848 -36.671L-22.849 -38.262L-18.718 -39.811L-14.464 -41.317L-11.57 -42.283" />
    <path fill="none" stroke="black" stroke-width="24" stroke-linecap="round" stroke-linejoin="round" transform="matrix(1 0 0 -1 250 325)" d="M-30.465 23.168L-31.075 23.698L-32.344 24.922L-32.549 25.12L-32.604 25.18L-32.647 25.227L-32.65 25.23L-32.749 25.337L-32.785 25.377L-33.857 26.539" />
    <path fill="none" stroke="black" stroke-width="24" stroke-linecap="round" stroke-linejoin="round" transform="matrix(1 0 0 -1 250 325)" d="M153.039 -45.783L150.578 -47.024L147.902 -48.195L145.016 -49.294L141.925 -50.319L138.636 -51.267L135.156 -52.137L131.492 -52.926L127.651 -53.634L123.64 -54.259L119.468 -54.799L115.143 -55.254L110.674 -55.622L106.071 -55.903L101.341 -56.097L96.495 -56.202L91.542 -56.219L86.493 -56.148L81.358 -55.988L76.146 -55.741L70.869 -55.406L65.537 -54.984L60.161 -54.477L54.751 -53.884L49.319 -53.208L43.875 -52.45L38.431 -51.611L32.997 -50.693L27.585 -49.698L22.205 -48.627L16.868 -47.483L11.584 -46.269L6.36501 -44.986L1.22099 -43.638L-3.83701 -42.226L-8.8 -40.755L-13.658 -39.226L-18.4 -37.643L-23.017 -36.009L-27.5 -34.327L-31.841 -32.601L-36.029 -30.835L-40.056 -29.031L-43.916 -27.193L-47.599 -25.326L-51.098 -23.432L-54.407 -21.516L-57.519 -19.582L-60.426 -17.633L-63.125 -15.673L-65.608 -13.707L-67.872 -11.738L-69.911 -9.76999L-71.721 -7.80701" />
    <path fill="none" stroke="black" stroke-width="24" stroke-linecap="round" stroke-linejoin="round" transform="matrix(1 0 0 -1 250 325)" d="M-24.657 19.065L-25.266 19.444L-27.423 20.89L-29.424 22.343L-30.465 23.168L-31.266 23.801" />
    <path fill="none" stroke="black" stroke-width="24" stroke-linecap="round" stroke-linejoin="round" transform="matrix(1 0 0 -1 250 325)" d="M-7.89301 10.815L-10.743 12.017L-13.812 13.392L-16.754 14.792L-17.318 15.079L-19.561 16.216L-22.228 17.659L-24.657 19.065L-24.749 19.119" />
    <path fill="none" stroke="black" stroke-width="24" stroke-linecap="round" stroke-linejoin="round" transform="matrix(1 0 0 -1 250 325)" d="M99.074 -7.00299L98.715 -7.017L95.367 -7.15399L91.569 -7.237L87.688 -7.25L83.73 -7.194L79.706 -7.069L75.621 -6.875L71.485 -6.61301L67.306 -6.28201L63.093 -5.88501L58.853 -5.42099L54.596 -4.89099L50.33 -4.297L46.063 -3.63901L41.805 -2.91901L37.563 -2.13901L33.346 -1.29999L29.163 -0.403992L25.023 0.548004L20.932 1.55301L16.901 2.60999L12.936 3.716L9.047 4.86899L5.24001 6.06799L1.52299 7.30801L-2.095 8.58899L-5.60899 9.90701L-7.89301 10.815L-9.011 11.259" />
    <path fill="none" stroke="black" stroke-width="24" stroke-linecap="round" stroke-linejoin="round" transform="matrix(1 0 0 -1 250 325)" d="M119.722 -4.21799L118.601 -4.45901L116.929 -4.819L114.002 -5.35901L110.945 -5.83499L110.085 -5.94601L107.766 -6.24701L104.47 -6.59299L101.064 -6.87399L98.715 -7.017" />
    <path fill="none" stroke="black" stroke-width="24" stroke-linecap="round" stroke-linejoin="round" transform="matrix(1 0 0 -1 250 325)" d="M127.088 -1.77802L126.65 -1.944L126.595 -1.965L125.082 -2.54099L124.947 -2.59299L122.655 -3.353L120.216 -4.056L118.601 -4.45901" />
    <path fill="none" stroke="black" stroke-width="24" stroke-linecap="round" stroke-linejoin="round" transform="matrix(1 0 0 -1 250 325)" d="M128.555 -0.903015L128.058 -1.15399L128.035 -1.16501L127.845 -1.26099L127.843 -1.26199L127.833 -1.267L127.522 -1.42401L126.777 -1.79999L125.082 -2.54099" />
    <path fill="none" stroke="black" stroke-width="24" stroke-linecap="round" stroke-linejoin="round" transform="matrix(1 0 0 -1 250 325)" d="M128.484 -0.747009L127.982 -1.14999" />
    <path fill="none" stroke="black" stroke-width="24" stroke-linecap="round" stroke-linejoin="round" transform="matrix(1 0 0 -1 250 325)" d="M128.503 -0.479004L127.875 -1.21799" />
    <path fill="none" stroke="black" stroke-width="24" stroke-linecap="round" stroke-linejoin="round" transform="matrix(1 0 0 -1 250 325)" d="M-32.671 25.327L-32.783 25.574" />
    <path fill="none" stroke="black" stroke-width="24" stroke-linecap="round" stroke-linejoin="round" transform="matrix(1 0 0 -1 250 325)" d="M-32.344 24.922L-32.671 25.327L-32.701 25.365L-32.816 25.507L-32.934 25.653L-33.255 26.05" />
  </g>
</svg>