<?xml version='1.0' encoding='utf-8'?>
<svg xmlns="http://www.w3.org/2000/svg" version="1.1" width="500" height="650" viewBox="0 0 500 650">
  <g>
    <path fill="none" stroke="none" transform="matrix(1 0 0 -1 250 325)" d="M-125.103 151.955L-130.338 143.435L-131.156 142.105L-131.709 141.153L-132.183 140.198L-132.578 139.241L-132.894 138.281L-135.34 128.584L-135.554 127.734L-135.795 126.753L-135.954 125.771L-136.032 124.787L-135.993 114.787L-135.954 104.788L-135.915 94.788L-135.877 84.788L-135.838 74.788L-135.799 64.788L-135.761 54.788L-135.722 44.788L-135.683 34.788L-135.644 24.788L-135.606 14.788L-135.567 4.78799L-135.528 -5.21201L-135.49 -15.212L-135.474 -19.291L-135.47 -20.275L-135.385 -21.257L-135.218 -22.238L-134.969 -23.218L-134.64 -24.195L-131.971 -31.498L-131.568 -32.453L-131.086 -33.404L-130.526 -34.352L-129.886 -35.295L-129.169 -36.232L-128.373 -37.164L-127.501 -38.09L-126.551 -39.008L-125.526 -39.92L-124.424 -40.823L-123.248 -41.718L-121.998 -42.603L-120.674 -43.479L-112.303 -48.949L-108.139 -51.67L-106.887 -52.446L-105.571 -53.213L-104.191 -53.969L-102.748 -54.716L-101.244 -55.451L-99.678 -56.175L-98.053 -56.887L-96.368 -57.587L-94.626 -58.274L-92.826 -58.948L-90.971 -59.609L-89.06 -60.256L-87.096 -60.888L-85.08 -61.506L-83.012 -62.109L-80.895 -62.697L-78.728 -63.268L-76.514 -63.824L-74.255 -64.363L-71.95 -64.886L-69.602 -65.392L-67.212 -65.88L-64.782 -66.351L-62.312 -66.803L-59.805 -67.238L-57.262 -67.654L-54.685 -68.051L-52.074 -68.429L-49.433 -68.789L-46.761 -69.128L-44.061 -69.449L-41.335 -69.749L-38.584 -70.029L-35.809 -70.29L-33.014 -70.53L-30.198 -70.749L-27.364 -70.948L-24.513 -71.126L-21.648 -71.284L-18.769 -71.42L-15.88 -71.536L-12.981 -71.63L-10.074 -71.704L-7.16 -71.756L-4.243 -71.787L-1.323 -71.797L1.59801 -71.786L4.51801 -71.753L7.435 -71.7L10.347 -71.625L13.254 -71.529L16.152 -71.412L19.041 -71.274L21.918 -71.115L24.782 -70.935L27.631 -70.735L30.463 -70.514L33.277 -70.273L36.071 -70.011L38.844 -69.729L41.593 -69.428L44.317 -69.106L47.014 -68.765L49.683 -68.405L52.321 -68.025L54.929 -67.627L57.503 -67.209L60.043 -66.774L62.546 -66.32L65.012 -65.848L67.439 -65.359L69.825 -64.852L72.169 -64.328L74.469 -63.788L76.725 -63.231L78.934 -62.658L81.096 -62.069L83.209 -61.465L85.272 -60.846L87.284 -60.213L89.243 -59.565L91.148 -58.903L92.998 -58.228L94.793 -57.54L96.53 -56.84L98.209 -56.127L99.829 -55.402L101.389 -54.666L102.887 -53.919L104.324 -53.162L105.698 -52.395L107.008 -51.618L108.254 -50.832L116.583 -45.297L120.726 -42.544L122.043 -41.658L123.286 -40.763L124.455 -39.859L125.549 -38.947L126.568 -38.028L127.51 -37.102L128.375 -36.17L129.164 -35.232L129.874 -34.289L130.506 -33.341L131.059 -32.389L131.534 -31.434L131.929 -30.476L134.541 -23.153L134.863 -22.173L135.104 -21.191L135.263 -20.209L135.341 -19.226L135.302 -9.22601L135.263 0.773987L135.225 10.774L135.186 20.774L135.147 30.774L135.109 40.774L135.07 50.774L135.031 60.774L134.992 70.774L134.954 80.773L134.915 90.773L134.876 100.773L134.838 110.773L134.799 120.773L134.783 124.853L134.779 125.836L134.694 126.819L134.527 127.8L134.279 128.779L131.758 138.456L131.537 139.305L131.214 140.262L130.811 141.217L130.33 142.168L129.769 143.115L124.469 151.595L123.586 153.007" />
    <path fill="none" stroke="black" stroke-width="24" stroke-linecap="round" stroke-linejoin="round" transform="matrix(1 0 0 -1 250 325)" d="M-125.103 151.955L-130.338 143.435L-131.156 142.105L-131.709 141.153L-132.183 140.198L-132.578 139.241L-132.894 138.281L-135.34 128.584L-135.554 127.734L-135.795 126.753L-135.954 125.771L-136.032 124.787L-135.993 114.787L-135.954 104.788L-135.915 94.788L-135.877 84.788L-135.838 74.788L-135.799 64.788L-135.761 54.788L-135.722 44.788L-135.683 34.788L-135.644 24.788L-135.606 14.788L-135.567 4.78799L-135.528 -5.21201L-135.49 -15.212L-135.474 -19.291L-135.47 -20.275L-135.385 -21.257L-135.218 -22.238L-134.969 -23.218L-134.64 -24.195L-131.971 -31.498L-131.568 -32.453L-131.086 -33.404L-130.526 -34.352L-129.886 -35.295L-129.169 -36.232L-128.373 -37.164L-127.501 -38.09L-126.551 -39.008L-125.526 -39.92L-124.424 -40.823L-123.248 -41.718L-121.998 -42.603L-120.674 -43.479L-112.303 -48.949L-108.139 -51.67L-106.887 -52.446L-105.571 -53.213L-104.191 -53.969L-102.748 -54.716L-101.244 -55.451L-99.678 -56.175L-98.053 -56.887L-96.368 -57.587L-94.626 -58.274L-92.826 -58.948L-90.971 -59.609L-89.06 -60.256L-87.096 -60.888L-85.08 -61.506L-83.012 -62.109L-80.895 -62.697L-78.728 -63.268L-76.514 -63.824L-74.255 -64.363L-71.95 -64.886L-69.602 -65.392L-67.212 -65.88L-64.782 -66.351L-62.312 -66.803L-59.805 -67.238L-57.262 -67.654L-54.685 -68.051L-52.074 -68.429L-49.433 -68.789L-46.761 -69.128L-44.061 -69.449L-41.335 -69.749L-38.584 -70.029L-35.809 -70.29L-33.014 -70.53L-30.198 -70.749L-27.364 -70.948L-24.513 -71.126L-21.648 -71.284L-18.769 -71.42L-15.88 -71.536L-12.981 -71.63L-10.074 -71.704L-7.16 -71.756L-4.243 -71.787L-1.323 -71.797L1.59801 -71.786L4.51801 -71.753L7.435 -71.7L10.347 -71.625L13.254 -71.529L16.152 -71.412L19.041 -71.274L21.918 -71.115L24.782 -70.935L27.631 -70.735L30.463 -70.514L33.277 -70.273L36.071 -70.011L38.844 -69.729L41.593 -69.428L44.317 -69.106L47.014 -68.765L49.683 -68.405L52.321 -68.025L54.929 -67.627L57.503 -67.209L60.043 -66.774L62.546 -66.32L65.012 -65.848L67.439 -65.359L69.825 -64.852L72.169 -64.328L74.469 -63.788L76.725 -63.231L78.934 -62.658L81.096 -62.069L83.209 -61.465L85.272 -60.846L87.284 -60.213L89.243 -59.565L91.148 -58.903L92.998 -58.228L94.793 -57.54L96.53 -56.84L98.209 -56.127L99.829 -55.402L101.389 -54.666L102.887 -53.919L104.324 -53.162L105.698 -52.395L107.008 -51.618L108.254 -50.832L116.583 -45.297L120.726 -42.544L122.043 -41.658L123.286 -40.763L124.455 -39.859L125.549 -38.947L126.568 -38.028L127.51 -37.102L128.375 -36.17L129.164 -35.232L129.874 -34.289L130.506 -33.341L131.059 -32.389L131.534 -31.434L131.929 -30.476L134.541 -23.153L134.863 -22.173L135.104 -21.191L135.263 -20.209L135.341 -19.226L135.302 -9.22601L135.263 0.773987L135.225 10.774L135.186 20.774L135.147 30.774L135.109 40.774L135.07 50.774L135.031 60.774L134.992 70.774L134.954 80.773L134.915 90.773L134.876 100.773L134.838 110.773L134.799 120.773L134.783 124.853L134.779 125.836L134.694 126.819L134.527 127.8L134.279 128.779L131.758 138.456L131.537 139.305L131.214 140.262L130.811 141.217L130.33 142.168L129.769 143.115L124.469 151.595L123.586 153.007" />
    <path fill="none" stroke="black" stroke-width="24" stroke-linecap="round" stroke-linejoin="round" transform="matrix(1 0 0 -1 250 325)" d="M121.176 149.628L120.918 148.844L120.554 147.961L120.116 147.08L119.606 146.203L119.024 145.329L118.369 144.459L117.643 143.595L116.845 142.735L115.976 141.882L115.037 141.035L114.029 140.194L112.951 139.361L111.805 138.536L110.591 137.719L109.31 136.911L107.962 136.112L106.549 135.323L105.072 134.544L103.531 133.776L101.927 133.019L100.261 132.274L98.534 131.541L96.748 130.82L94.903 130.113L93 129.418L91.041 128.738L89.026 128.072L86.958 127.42L84.836 126.784L82.663 126.163L80.44 125.558L78.168 124.968L75.849 124.396L73.483 123.84L71.072 123.301L68.619 122.78L66.123 122.277L65.003 122.063L63.588 121.792L61.013 121.325L58.401 120.877L55.754 120.448L53.073 120.038L50.359 119.648L47.615 119.277L44.841 118.926L42.04 118.596L39.213 118.286L36.362 117.996L33.489 117.727L30.595 117.479L27.683 117.251L24.753 117.045L21.808 116.861L18.849 116.697L15.878 116.555L12.898 116.435L9.909 116.336L6.914 116.259L3.914 116.204L0.910995 116.171L-2.092 116.159L-5.095 116.169L-8.095 116.201L-11.091 116.255L-14.08 116.331L-17.061 116.428L-20.033 116.547L-22.993 116.687L-25.939 116.849L-28.871 117.032L-31.785 117.237L-34.681 117.463L-37.556 117.71L-40.409 117.977L-43.238 118.266L-46.042 118.574L-48.818 118.904L-51.565 119.253L-54.282 119.622L-56.966 120.012L-59.617 120.42L-62.232 120.848L-64.81 121.295L-67.194 121.732L-67.349 121.76L-69.849 122.244L-72.306 122.746L-74.721 123.266L-77.091 123.804L-79.415 124.358L-81.691 124.93L-83.919 125.518L-86.097 126.122L-88.223 126.742L-90.297 127.378L-92.316 128.028L-94.281 128.693L-96.189 129.373L-98.039 130.066L-99.831 130.773L-101.564 131.492L-103.235 132.225L-104.845 132.969L-106.392 133.725L-107.876 134.492L-109.295 135.27L-110.648 136.059L-111.935 136.857L-113.156 137.665L-114.308 138.481L-115.392 139.306L-116.408 140.138L-117.353 140.978L-118.228 141.825L-119.033 142.678L-119.766 143.537L-120.427 144.402L-121.017 145.271L-121.533 146.144L-121.978 147.021L-122.349 147.902L-122.536 148.456" />
    <path fill="none" stroke="black" stroke-width="24" stroke-linecap="round" stroke-linejoin="round" transform="matrix(1 0 0 -1 250 325)" d="M65.003 122.063L66.964 122.483L70.963 123.423L74.817 124.415L76.585 124.887L80.374 125.952L83.999 127.067L87.454 128.228L90.73 129.432L93.823 130.679L95.871 131.584L98.836 132.897L101.6 134.248L104.158 135.634L106.505 137.051L108.623 138.353L110.796 139.828L112.744 141.33L114.751 142.95L116.501 144.502L118.321 146.386L119.859 147.983L121.153 149.598L121.176 149.628L122.769 151.738L123.586 153.007L123.832 153.39L125.193 155.727L126.014 157.409L127.095 159.907L127.665 161.611L128.447 164.232L128.761 165.952L129.231 168.653L129.382 171.39L129.434 173.12L129.263 175.858L129.053 177.583L128.563 180.277L128.093 181.991L127.292 184.6L126.568 186.295L125.471 188.777L124.498 190.445L123.126 192.762L121.914 194.396L120.29 196.512L118.85 198.107L117.005 199.987L115.349 201.536L113.459 203.061L111.458 204.651L109.375 206.122L107.069 207.563L104.967 208.834L102.493 210.215L99.811 211.561L96.926 212.87L94.842 213.771L91.825 215.012L88.622 216.212L85.238 217.367L81.68 218.475L77.956 219.534L74.074 220.542L72.351 220.988L68.41 221.921L64.328 222.8L60.116 223.624L55.78 224.391L51.33 225.099L46.775 225.747L42.124 226.333L37.386 226.857L32.57 227.317L27.688 227.713L22.747 228.043L17.759 228.306L12.733 228.504L7.67999 228.634L2.60899 228.697L-2.46899 228.693L-7.54401 228.621L-12.605 228.482L-17.643 228.276L-22.648 228.003L-27.609 227.665L-32.516 227.261L-37.359 226.792L-42.13 226.26L-46.817 225.666L-51.412 225.01L-55.905 224.294L-60.288 223.52L-64.551 222.689L-68.686 221.802L-72.685 220.862L-76.539 219.871L-78.307 219.399L-82.095 218.333L-85.721 217.219L-89.175 216.058L-92.452 214.853L-95.545 213.607L-97.592 212.702L-100.557 211.388L-103.322 210.037L-105.88 208.652L-108.227 207.235L-110.344 205.932L-112.517 204.457L-114.466 202.956L-116.473 201.336L-118.223 199.784L-120.043 197.9L-121.58 196.303L-122.875 194.687L-124.491 192.548L-125.554 190.896L-126.915 188.559L-127.735 186.877L-128.816 184.379L-129.387 182.674L-130.169 180.054L-130.483 178.334L-130.953 175.633L-131.103 172.895L-131.156 171.165L-130.984 168.428L-130.775 166.702L-130.284 164.008L-129.815 162.294L-129.014 159.686L-128.29 157.991L-127.193 155.509L-126.22 153.841L-125.103 151.955L-124.848 151.524L-123.635 149.889L-122.536 148.456L-122.012 147.774L-120.572 146.179L-118.726 144.298L-117.071 142.749L-115.181 141.225L-113.18 139.635L-111.096 138.163L-108.791 136.722L-106.689 135.451L-104.215 134.07L-101.533 132.724L-98.647 131.416L-96.564 130.514L-93.547 129.273L-90.343 128.074L-86.959 126.919L-83.402 125.811L-79.678 124.752L-75.795 123.743L-74.073 123.298L-70.131 122.365L-67.194 121.732" />
    <path fill="none" stroke="black" stroke-width="24" stroke-linecap="round" stroke-linejoin="round" transform="matrix(1 0 0 -1 250 325)" d="M-81.821 180.187L-82.059 180.336L-83.11 181.078L-83.125 181.089L-83.158 181.112L-83.372 181.264L-83.551 181.389L-83.591 181.418" />
    <path fill="none" stroke="black" stroke-width="24" stroke-linecap="round" stroke-linejoin="round" transform="matrix(1 0 0 -1 250 325)" d="M114.751 142.95L112.768 141.422L110.557 139.921L108.121 138.45L105.466 137.012L102.596 135.61L99.519 134.246L96.24 132.925L92.765 131.647L89.102 130.416L85.257 129.234L81.24 128.104L77.057 127.028L72.717 126.008L68.23 125.046L63.603 124.143L58.847 123.303L53.97 122.526L48.984 121.815L43.897 121.17L38.72 120.592L33.463 120.084L28.138 119.646L22.754 119.278L17.323 118.982L11.855 118.759L6.362 118.608L0.854004 118.53L-4.657 118.525L-10.16 118.594L-15.644 118.735L-21.098 118.949L-26.512 119.236L-31.874 119.594L-37.173 120.023L-42.398 120.522L-47.54 121.091L-52.588 121.727L-57.532 122.43L-62.361 123.198L-67.066 124.03L-71.638 124.925L-76.068 125.879L-80.345 126.892L-84.463 127.961L-88.411 129.084L-92.184 130.259L-95.772 131.484L-99.169 132.756L-102.368 134.072L-105.363 135.43L-108.147 136.827L-110.714 138.26L-113.061 139.727L-115.181 141.225" />
    <path fill="none" stroke="black" stroke-width="24" stroke-linecap="round" stroke-linejoin="round" transform="matrix(1 0 0 -1 250 325)" d="M-77.332 177.92L-78.496 178.448L-80.561 179.484L-80.6 179.506L-81.821 180.187L-82.465 180.547" />
    <path fill="none" stroke="black" stroke-width="24" stroke-linecap="round" stroke-linejoin="round" transform="matrix(1 0 0 -1 250 325)" d="M-63.24 173.303L-64.712 173.685L-67.722 174.541L-70.597 175.437L-73.332 176.37L-75.921 177.339L-77.332 177.92L-78.359 178.342" />
    <path fill="none" stroke="black" stroke-width="24" stroke-linecap="round" stroke-linejoin="round" transform="matrix(1 0 0 -1 250 325)" d="M63.341 174.266L62.292 173.996L60.063 173.423L56.662 172.623L55.444 172.362L53.145 171.869L49.519 171.162L45.792 170.503L41.97 169.895L38.062 169.337L34.075 168.831L30.017 168.379L25.898 167.98L21.724 167.637L17.505 167.349L13.248 167.117L8.963 166.942L4.658 166.824L0.341003 166.763L-3.978 166.759L-8.291 166.812L-12.589 166.923L-16.863 167.091L-21.106 167.316L-25.308 167.596L-29.461 167.933L-33.557 168.324L-37.587 168.769L-41.543 169.268L-45.417 169.819L-49.202 170.421L-52.89 171.073L-56.473 171.774L-57.166 171.924L-59.944 172.522L-63.24 173.303L-63.296 173.316" />
    <path fill="none" stroke="black" stroke-width="24" stroke-linecap="round" stroke-linejoin="round" transform="matrix(1 0 0 -1 250 325)" d="M75.505 178.475L75.462 178.458L73.006 177.468L70.357 176.494L67.566 175.556L64.636 174.655L62.292 173.996" />
    <path fill="none" stroke="black" stroke-width="24" stroke-linecap="round" stroke-linejoin="round" transform="matrix(1 0 0 -1 250 325)" d="M81.644 181.778L81.181 181.499L81.148 181.479L81.097 181.448L80.963 181.367L80.962 181.366L80.915 181.338L80.813 181.276L79.851 180.696L79.837 180.687L78.837 180.146L77.868 179.621L75.74 178.581L75.462 178.458" />
    <path fill="none" stroke="black" stroke-width="24" stroke-linecap="round" stroke-linejoin="round" transform="matrix(1 0 0 -1 250 325)" d="M81.786 182.139L81.681 182.046L81.42 181.815L81.32 181.726L81.185 181.606" />
  </g>
</svg>