<?xml version='1.0' encoding='utf-8'?>
<svg xmlns="http://www.w3.org/2000/svg" version="1.1" width="500" height="650" viewBox="0 0 500 650">
  <g>
    <path fill="none" stroke="none" transform="matrix(1 0 0 -1 250 325)" d="M-105.195 120.553L-107.893 117.172L-108.786 116.002L-109.602 114.817L-110.341 113.619L-111.001 112.407L-111.584 111.183L-112.088 109.948L-115.564 100.572L-115.717 100.16L-116.151 98.888L-116.504 97.607L-116.777 96.315L-116.968 95.016L-117.905 85.059L-118.842 75.103L-119.779 65.147L-120.715 55.191L-121.652 45.235L-122.589 35.279L-123.526 25.323L-124.463 15.367L-125.399 5.41101L-126.336 -4.54501L-127.273 -14.501L-128.21 -24.457L-129.147 -34.413L-129.95 -42.948L-130.06 -44.256L-130.089 -45.571L-130.037 -46.892L-129.903 -48.219L-129.688 -49.55L-129.393 -50.886L-127.426 -58.073L-127.056 -59.385L-126.608 -60.7L-126.081 -62.016L-125.476 -63.333L-124.792 -64.65L-124.031 -65.965L-123.193 -67.279L-122.278 -68.591L-121.286 -69.899L-120.219 -71.204L-119.078 -72.503L-117.862 -73.797L-116.572 -75.084L-115.21 -76.365L-113.776 -77.637L-112.27 -78.901L-110.695 -80.155L-109.051 -81.399L-107.338 -82.632L-99.159 -88.385L-96.683 -90.127L-95.087 -91.221L-93.433 -92.305L-91.72 -93.377L-89.95 -94.436L-88.123 -95.482L-86.242 -96.514L-84.307 -97.532L-82.319 -98.535L-80.279 -99.523L-78.189 -100.494L-76.05 -101.449L-73.863 -102.386L-71.63 -103.305L-69.352 -104.206L-67.03 -105.088L-64.666 -105.95L-62.26 -106.792L-59.815 -107.614L-57.333 -108.415L-54.813 -109.194L-52.259 -109.951L-49.671 -110.686L-47.052 -111.398L-44.402 -112.086L-41.723 -112.751L-39.018 -113.392L-36.286 -114.008L-33.531 -114.599L-30.754 -115.165L-27.957 -115.706L-25.14 -116.22L-22.307 -116.708L-19.458 -117.17L-16.595 -117.605L-13.72 -118.013L-10.836 -118.393L-7.942 -118.746L-5.04201 -119.072L-2.13699 -119.369L0.770996 -119.638L3.681 -119.879L6.591 -120.092L9.498 -120.276L12.402 -120.431L15.3 -120.557L18.192 -120.655L21.074 -120.724L23.945 -120.763L26.804 -120.774L29.649 -120.756L32.477 -120.709L35.289 -120.633L38.081 -120.528L40.852 -120.394L43.6 -120.232L46.324 -120.041L49.022 -119.821L51.692 -119.573L54.334 -119.297L56.944 -118.992L59.523 -118.66L62.067 -118.3L64.576 -117.913L67.048 -117.498L69.482 -117.056L71.875 -116.588L74.228 -116.093L76.537 -115.572L78.803 -115.025L81.023 -114.453L83.196 -113.855L85.321 -113.233L87.396 -112.586L89.421 -111.915L91.394 -111.221L93.314 -110.503L95.18 -109.763L96.99 -109L98.744 -108.215L107.853 -104.088L110.673 -102.811L112.565 -101.911L114.392 -100.989L116.153 -100.043L117.846 -99.076L119.471 -98.087L121.026 -97.077L122.511 -96.046L123.924 -94.995L125.266 -93.926L126.534 -92.838L127.729 -91.732L128.849 -90.608L129.895 -89.469L130.864 -88.313L131.757 -87.142L132.573 -85.957L133.312 -84.758L133.974 -83.546L137.238 -76.869L137.833 -75.62L138.347 -74.359L138.782 -73.088L139.135 -71.806L139.407 -70.515L139.599 -69.215L140.536 -59.259L141.472 -49.303L142.409 -39.347L143.346 -29.391L144.283 -19.435L145.22 -9.479L146.156 0.47699L147.093 10.433L148.03 20.389L148.967 30.345L149.904 40.301L150.84 50.257L151.777 60.213L152.58 68.748L152.69 70.056L152.719 71.371L152.667 72.692L152.533 74.019L152.319 75.35L150.653 85.211L150.581 85.636L150.291 86.944L149.922 88.256L149.474 89.57L148.947 90.886L148.342 92.202L147.659 93.518L145.806 97.027" />
    <path fill="none" stroke="black" stroke-width="24" stroke-linecap="round" stroke-linejoin="round" transform="matrix(1 0 0 -1 250 325)" d="M-105.195 120.553L-107.893 117.172L-108.786 116.002L-109.602 114.817L-110.341 113.619L-111.001 112.407L-111.584 111.183L-112.088 109.948L-115.564 100.572L-115.717 100.16L-116.151 98.888L-116.504 97.607L-116.777 96.315L-116.968 95.016L-117.905 85.059L-118.842 75.103L-119.779 65.147L-120.715 55.191L-121.652 45.235L-122.589 35.279L-123.526 25.323L-124.463 15.367L-125.399 5.41101L-126.336 -4.54501L-127.273 -14.501L-128.21 -24.457L-129.147 -34.413L-129.95 -42.948L-130.06 -44.256L-130.089 -45.571L-130.037 -46.892L-129.903 -48.219L-129.688 -49.55L-129.393 -50.886L-127.426 -58.073L-127.056 -59.385L-126.608 -60.7L-126.081 -62.016L-125.476 -63.333L-124.792 -64.65L-124.031 -65.965L-123.193 -67.279L-122.278 -68.591L-121.286 -69.899L-120.219 -71.204L-119.078 -72.503L-117.862 -73.797L-116.572 -75.084L-115.21 -76.365L-113.776 -77.637L-112.27 -78.901L-110.695 -80.155L-109.051 -81.399L-107.338 -82.632L-99.159 -88.385L-96.683 -90.127L-95.087 -91.221L-93.433 -92.305L-91.72 -93.377L-89.95 -94.436L-88.123 -95.482L-86.242 -96.514L-84.307 -97.532L-82.319 -98.535L-80.279 -99.523L-78.189 -100.494L-76.05 -101.449L-73.863 -102.386L-71.63 -103.305L-69.352 -104.206L-67.03 -105.088L-64.666 -105.95L-62.26 -106.792L-59.815 -107.614L-57.333 -108.415L-54.813 -109.194L-52.259 -109.951L-49.671 -110.686L-47.052 -111.398L-44.402 -112.086L-41.723 -112.751L-39.018 -113.392L-36.286 -114.008L-33.531 -114.599L-30.754 -115.165L-27.957 -115.706L-25.14 -116.22L-22.307 -116.708L-19.458 -117.17L-16.595 -117.605L-13.72 -118.013L-10.836 -118.393L-7.942 -118.746L-5.04201 -119.072L-2.13699 -119.369L0.770996 -119.638L3.681 -119.879L6.591 -120.092L9.498 -120.276L12.402 -120.431L15.3 -120.557L18.192 -120.655L21.074 -120.724L23.945 -120.763L26.804 -120.774L29.649 -120.756L32.477 -120.709L35.289 -120.633L38.081 -120.528L40.852 -120.394L43.6 -120.232L46.324 -120.041L49.022 -119.821L51.692 -119.573L54.334 -119.297L56.944 -118.992L59.523 -118.66L62.067 -118.3L64.576 -117.913L67.048 -117.498L69.482 -117.056L71.875 -116.588L74.228 -116.093L76.537 -115.572L78.803 -115.025L81.023 -114.453L83.196 -113.855L85.321 -113.233L87.396 -112.586L89.421 -111.915L91.394 -111.221L93.314 -110.503L95.18 -109.763L96.99 -109L98.744 -108.215L107.853 -104.088L110.673 -102.811L112.565 -101.911L114.392 -100.989L116.153 -100.043L117.846 -99.076L119.471 -98.087L121.026 -97.077L122.511 -96.046L123.924 -94.995L125.266 -93.926L126.534 -92.838L127.729 -91.732L128.849 -90.608L129.895 -89.469L130.864 -88.313L131.757 -87.142L132.573 -85.957L133.312 -84.758L133.974 -83.546L137.238 -76.869L137.833 -75.62L138.347 -74.359L138.782 -73.088L139.135 -71.806L139.407 -70.515L139.599 -69.215L140.536 -59.259L141.472 -49.303L142.409 -39.347L143.346 -29.391L144.283 -19.435L145.22 -9.479L146.156 0.47699L147.093 10.433L148.03 20.389L148.967 30.345L149.904 40.301L150.84 50.257L151.777 60.213L152.58 68.748L152.69 70.056L152.719 71.371L152.667 72.692L152.533 74.019L152.319 75.35L150.653 85.211L150.581 85.636L150.291 86.944L149.922 88.256L149.474 89.57L148.947 90.886L148.342 92.202L147.659 93.518L145.806 97.027" />
    <path fill="none" stroke="black" stroke-width="24" stroke-linecap="round" stroke-linejoin="round" transform="matrix(1 0 0 -1 250 325)" d="M139.45 88.545L139.344 88.352L138.663 87.247L137.911 86.155L137.087 85.076L136.194 84.01L135.23 82.96L134.198 81.924L133.096 80.905L131.927 79.902L130.69 78.916L129.387 77.947L128.019 76.997L126.585 76.066L125.087 75.154L123.526 74.262L121.903 73.391L120.219 72.54L118.475 71.712L116.671 70.905L114.81 70.12L112.891 69.359L110.917 68.621L108.888 67.907L106.806 67.217L104.671 66.552L102.486 65.912L100.251 65.297L97.968 64.709L95.639 64.146L93.264 63.611L90.845 63.102L88.383 62.62L85.881 62.166L83.339 61.739L80.758 61.341L78.142 60.971L75.491 60.629L72.806 60.316L70.09 60.032L67.344 59.777L64.569 59.551L61.768 59.354L58.942 59.187L56.092 59.05L53.221 58.942L50.33 58.864L47.421 58.815L44.496 58.797L41.556 58.808L38.603 58.849L35.639 58.919L32.666 59.02L29.686 59.15L26.7 59.31L23.71 59.499L20.718 59.717L17.725 59.965L14.735 60.242L11.747 60.547L8.765 60.882L5.78999 61.245L2.823 61.636L-0.132996 62.056L-3.077 62.503L-6.007 62.978L-8.92101 63.48L-11.817 64.009L-14.694 64.565L-17.55 65.147L-20.383 65.755L-23.191 66.388L-25.974 67.047L-28.728 67.731L-31.453 68.439L-34.147 69.171L-36.808 69.926L-39.435 70.705L-42.025 71.506L-44.579 72.33L-47.093 73.175L-49.566 74.041L-51.998 74.928L-54.385 75.835L-56.728 76.761L-59.025 77.706L-61.274 78.67L-63.473 79.652L-65.622 80.651L-67.72 81.666L-69.764 82.697L-71.754 83.744L-73.689 84.806L-75.567 85.882L-77.387 86.971L-79.149 88.073L-80.85 89.187L-82.491 90.313L-84.07 91.449L-85.586 92.596L-87.038 93.752L-88.425 94.917L-89.747 96.09L-91.003 97.27L-92.192 98.457L-93.313 99.649L-94.365 100.847L-95.349 102.049L-96.263 103.256L-97.106 104.465L-97.879 105.676L-98.581 106.889L-99.211 108.103L-99.769 109.316L-100.255 110.53L-100.319 110.717" />
    <path fill="none" stroke="black" stroke-width="24" stroke-linecap="round" stroke-linejoin="round" transform="matrix(1 0 0 -1 250 325)" d="M23.595 194.232L18.419 194.589L13.254 194.853L8.11099 195.023L2.99899 195.099L-2.07001 195.08L-7.086 194.968L-12.04 194.761L-16.921 194.461L-21.72 194.068L-26.427 193.583L-31.032 193.007L-35.527 192.34L-39.901 191.585L-44.147 190.743L-45.745 190.394L-49.943 189.446L-53.992 188.412L-57.884 187.296L-61.612 186.098L-65.167 184.822L-68.543 183.469L-70.515 182.671L-73.768 181.216L-76.825 179.69L-79.679 178.096L-81.679 176.924L-84.372 175.234L-86.847 173.48L-88.752 171.985L-91.04 170.144L-93.098 168.245L-94.851 166.456L-96.699 164.478L-98.305 162.45L-99.856 160.402L-101.232 158.305L-102.529 156.059L-103.665 153.902L-104.682 151.495L-105.569 149.287L-106.287 146.76L-106.918 144.509L-107.289 142.228L-107.696 139.621L-107.807 137.313L-107.893 134.678L-107.742 132.352L-107.507 129.734L-107.096 127.401L-106.545 124.844L-105.88 122.514L-105.195 120.553L-105.024 120.062L-104.11 117.746L-102.966 115.44L-101.813 113.148L-100.413 110.859L-100.319 110.717L-99.02 108.768L-97.398 106.517L-95.538 104.278L-93.94 102.448L-91.877 100.26L-89.589 98.093L-87.835 96.562L-85.369 94.457L-82.69 92.382L-79.804 90.34L-76.716 88.335L-74.976 87.214L-71.756 85.289L-68.352 83.408L-64.769 81.575L-61.015 79.795L-57.097 78.07L-55.576 77.422L-51.59 75.791L-47.459 74.221L-43.192 72.716L-38.798 71.277L-34.286 69.909L-29.664 68.614L-24.942 67.394L-20.13 66.252L-15.236 65.191L-10.272 64.212L-5.24699 63.317L-0.169998 62.508L4.94701 61.787L10.094 61.156L15.262 60.614L20.439 60.165L25.615 59.808L30.78 59.544L35.923 59.374L41.034 59.298L46.103 59.316L51.12 59.429L56.074 59.635L60.955 59.935L65.754 60.328L70.461 60.813L75.066 61.39L79.56 62.056L83.935 62.811L88.181 63.654L89.779 64.003L93.977 64.951L98.026 65.984L101.918 67.101L105.646 68.298L109.201 69.575L112.577 70.927L114.549 71.726L117.802 73.18L120.859 74.706L123.713 76.301L125.713 77.473L128.406 79.163L130.881 80.916L132.786 82.411L135.074 84.253L137.132 86.151L138.885 87.941L139.45 88.545L140.732 89.919L142.338 91.947L143.89 93.995L145.266 96.091L145.806 97.027L146.563 98.337L147.698 100.495L148.716 102.901L149.602 105.11L150.321 107.637L150.952 109.888L151.323 112.168L151.73 114.775L151.84 117.084L151.927 119.719L151.776 122.045L151.541 124.663L151.13 126.996L150.579 129.553L149.914 131.882L149.058 134.335L148.144 136.65L147 138.957L145.847 141.249L144.447 143.538L143.054 145.628L141.432 147.879L139.571 150.118L137.973 151.949L135.911 154.137L133.623 156.304L131.869 157.835L129.403 159.94L126.724 162.015L123.837 164.057L120.749 166.062L119.01 167.183L115.79 169.108L112.385 170.989L108.802 172.821L105.048 174.602L101.131 176.327L99.61 176.975L95.623 178.606L91.493 180.175L87.226 181.681L82.832 183.119L78.32 184.487L73.698 185.783L68.976 187.002L64.163 188.144L59.27 189.206L54.306 190.185L49.28 191.08L44.204 191.888L39.087 192.609L33.94 193.241L28.772 193.782L23.595 194.232" />
    <path fill="none" stroke="black" stroke-width="24" stroke-linecap="round" stroke-linejoin="round" transform="matrix(1 0 0 -1 250 325)" d="M-57.113 138.159L-57.12 138.171L-57.19 138.286L-57.297 138.46L-57.39 138.612L-58.147 140.118" />
    <path fill="none" stroke="black" stroke-width="24" stroke-linecap="round" stroke-linejoin="round" transform="matrix(1 0 0 -1 250 325)" d="M-56.448 137.294L-56.761 137.671L-57.105 138.148L-57.113 138.159L-57.12 138.169L-57.174 138.243L-57.266 138.372L-57.314 138.439L-57.863 139.199" />
    <path fill="none" stroke="black" stroke-width="24" stroke-linecap="round" stroke-linejoin="round" transform="matrix(1 0 0 -1 250 325)" d="M-54.401 135.264L-55.641 136.438L-56.448 137.294L-56.835 137.705L-56.946 137.822L-57.041 137.923L-57.052 137.935L-57.075 137.959L-57.078 137.963L-57.095 137.981" />
    <path fill="none" stroke="black" stroke-width="24" stroke-linecap="round" stroke-linejoin="round" transform="matrix(1 0 0 -1 250 325)" d="M-49.181 131.416L-49.874 131.866L-51.997 133.368L-53.169 134.275L-53.967 134.894L-54.401 135.264L-55.638 136.319L-55.665 136.343L-55.781 136.441" />
    <path fill="none" stroke="black" stroke-width="24" stroke-linecap="round" stroke-linejoin="round" transform="matrix(1 0 0 -1 250 325)" d="M125.713 77.473L122.808 75.85L119.697 74.296L116.386 72.816L112.882 71.413L109.192 70.088L105.323 68.845L101.284 67.686L97.081 66.613L92.724 65.629L88.222 64.736L83.583 63.936L78.817 63.229L73.934 62.618L68.943 62.103L63.854 61.686L58.678 61.368L53.425 61.149L48.105 61.03L42.73 61.011L37.31 61.091L31.856 61.272L26.379 61.551L20.89 61.93L15.401 62.407L9.92101 62.981L4.463 63.65L-0.962997 64.415L-6.34599 65.272L-11.675 66.221L-16.94 67.26L-22.128 68.385L-27.232 69.596L-32.239 70.89L-37.14 72.263L-41.925 73.714L-46.584 75.239L-51.109 76.835L-55.489 78.5L-59.716 80.229L-63.782 82.02L-67.678 83.868L-71.397 85.77L-74.931 87.722L-78.272 89.72L-81.415 91.76L-84.353 93.839L-87.079 95.951L-89.589 98.093" />
    <path fill="none" stroke="black" stroke-width="24" stroke-linecap="round" stroke-linejoin="round" transform="matrix(1 0 0 -1 250 325)" d="M-36.415 124.841L-38.596 125.801L-41.486 127.172L-44.244 128.582L-46.864 130.03L-49.181 131.416L-49.343 131.512" />
    <path fill="none" stroke="black" stroke-width="24" stroke-linecap="round" stroke-linejoin="round" transform="matrix(1 0 0 -1 250 325)" d="M79.078 113.995L78.665 113.913L75.646 113.314L72.111 112.704L68.479 112.165L64.757 111.699L60.953 111.307L57.075 110.99L53.13 110.747L49.126 110.58L45.072 110.489L40.976 110.475L36.845 110.536L32.688 110.673L28.514 110.887L24.331 111.175L20.147 111.538L15.971 111.976L11.811 112.486L7.67599 113.069L3.573 113.722L-0.488007 114.446L-4.5 115.237L-8.455 116.095L-12.344 117.018L-16.16 118.003L-19.895 119.05L-23.542 120.156L-27.093 121.318L-30.541 122.535L-33.88 123.804L-36.415 124.841L-37.101 125.121" />
    <path fill="none" stroke="black" stroke-width="24" stroke-linecap="round" stroke-linejoin="round" transform="matrix(1 0 0 -1 250 325)" d="M95.029 118.975L93.244 118.26L92.43 117.934L89.693 116.952L86.824 116.03L83.828 115.17L80.711 114.375L78.665 113.913" />
    <path fill="none" stroke="black" stroke-width="24" stroke-linecap="round" stroke-linejoin="round" transform="matrix(1 0 0 -1 250 325)" d="M99.796 121.541L98.592 120.868L97.697 120.369L97.202 120.121L95.449 119.246L93.244 118.26" />
    <path fill="none" stroke="black" stroke-width="24" stroke-linecap="round" stroke-linejoin="round" transform="matrix(1 0 0 -1 250 325)" d="M101.442 122.798L101.411 122.776L101.055 122.524L99.696 121.561L98.592 120.868" />
    <path fill="none" stroke="black" stroke-width="24" stroke-linecap="round" stroke-linejoin="round" transform="matrix(1 0 0 -1 250 325)" d="M102.488 123.842L102.083 123.468L101.989 123.382L101.898 123.297L101.87 123.271L101.091 122.553L101.055 122.524" />
    <path fill="none" stroke="black" stroke-width="24" stroke-linecap="round" stroke-linejoin="round" transform="matrix(1 0 0 -1 250 325)" d="M103.004 124.684L102.035 123.46L101.949 123.352L101.898 123.297" />
    <path fill="none" stroke="black" stroke-width="24" stroke-linecap="round" stroke-linejoin="round" transform="matrix(1 0 0 -1 250 325)" d="M102.332 123.976L101.87 123.271" />
    <path fill="none" stroke="black" stroke-width="24" stroke-linecap="round" stroke-linejoin="round" transform="matrix(1 0 0 -1 250 325)" d="M-57.19 138.286L-57.587 139.292" />
    <path fill="none" stroke="black" stroke-width="24" stroke-linecap="round" stroke-linejoin="round" transform="matrix(1 0 0 -1 250 325)" d="M-57.105 138.148L-57.147 138.295" />
  </g>
</svg>