<?xml version='1.0' encoding='utf-8'?>
<svg xmlns="http://www.w3.org/2000/svg" version="1.1" width="500" height="650" viewBox="0 0 500 650">
  <g>
    <path fill="none" stroke="none" transform="matrix(1 0 0 -1 250 325)" d="M-137.926 77.253L-141.182 71.915L-141.862 70.704L-142.464 69.488L-142.988 68.269L-143.432 67.047L-143.797 65.823L-146.102 56.093L-146.224 55.579L-146.515 54.329L-146.726 53.078L-146.854 51.828L-146.901 50.579L-146.639 40.582L-146.376 30.586L-146.114 20.589L-145.851 10.593L-145.589 0.596008L-145.326 -9.39999L-145.064 -19.397L-144.801 -29.393L-144.539 -39.39L-144.276 -49.387L-144.014 -59.383L-143.751 -69.38L-143.489 -79.376L-143.232 -89.168L-143.197 -90.415L-143.081 -91.66L-142.884 -92.901L-142.605 -94.139L-142.245 -95.372L-141.805 -96.599L-138.988 -103.572L-138.477 -104.769L-137.887 -105.96L-137.218 -107.142L-136.471 -108.317L-135.647 -109.482L-134.746 -110.638L-133.768 -111.783L-132.715 -112.917L-131.586 -114.039L-130.382 -115.149L-129.104 -116.246L-127.753 -117.329L-126.33 -118.398L-124.836 -119.452L-123.271 -120.49L-121.636 -121.511L-119.932 -122.516L-118.161 -123.503L-109.425 -128.368L-106.462 -130.018L-104.815 -130.886L-103.109 -131.738L-101.345 -132.573L-99.525 -133.389L-97.649 -134.188L-95.719 -134.968L-93.736 -135.728L-91.701 -136.469L-89.615 -137.189L-87.48 -137.889L-85.296 -138.568L-83.065 -139.226L-80.789 -139.861L-78.469 -140.475L-76.106 -141.066L-73.701 -141.634L-71.257 -142.179L-68.774 -142.7L-66.254 -143.198L-63.698 -143.671L-61.109 -144.119L-58.487 -144.543L-55.835 -144.942L-53.154 -145.316L-50.445 -145.664L-47.71 -145.987L-44.95 -146.283L-42.168 -146.554L-39.366 -146.798L-36.543 -147.016L-33.704 -147.208L-30.848 -147.372L-27.979 -147.511L-25.097 -147.622L-22.204 -147.706L-19.303 -147.764L-16.394 -147.794L-13.48 -147.798L-10.562 -147.775L-7.64301 -147.725L-4.72301 -147.647L-1.80499 -147.543L1.11 -147.412L4.02 -147.255L6.922 -147.07L9.817 -146.86L12.7 -146.622L15.572 -146.359L18.43 -146.069L21.272 -145.754L24.097 -145.413L26.903 -145.046L29.688 -144.654L32.451 -144.236L35.19 -143.794L37.903 -143.328L40.589 -142.837L43.246 -142.322L45.873 -141.784L48.467 -141.222L51.028 -140.637L53.553 -140.029L56.042 -139.4L58.493 -138.748L60.904 -138.075L63.273 -137.38L65.601 -136.665L67.884 -135.93L70.122 -135.175L72.313 -134.4L74.456 -133.607L76.55 -132.795L78.593 -131.965L80.584 -131.118L82.523 -130.254L84.407 -129.374L86.236 -128.477L88.008 -127.566L89.724 -126.639L91.38 -125.698L92.977 -124.744L101.446 -119.427L104.326 -117.62L106.04 -116.54L107.685 -115.447L109.261 -114.341L110.767 -113.221L112.202 -112.09L113.564 -110.948L114.853 -109.795L116.068 -108.632L117.209 -107.46L118.274 -106.28L119.264 -105.092L120.177 -103.897L121.014 -102.695L121.772 -101.488L122.453 -100.276L123.056 -99.059L123.579 -97.84L124.024 -96.617L126.471 -89.505L126.844 -88.256L127.135 -87.006L127.345 -85.756L127.474 -84.505L127.521 -83.256L127.259 -73.26L126.996 -63.263L126.733 -53.267L126.471 -43.27L126.208 -33.273L125.946 -23.277L125.683 -13.28L125.421 -3.284L125.158 6.71301L124.896 16.709L124.633 26.706L124.371 36.702L124.108 46.699L123.851 56.49L123.817 57.738L123.701 58.983L123.504 60.224L123.225 61.462L122.865 62.694L120.053 72.291L119.904 72.797L119.472 73.999L118.961 75.196L118.371 76.386L117.703 77.568L116.957 78.742L113.392 83.95" />
    <path fill="none" stroke="black" stroke-width="24" stroke-linecap="round" stroke-linejoin="round" transform="matrix(1 0 0 -1 250 325)" d="M-137.926 77.253L-141.182 71.915L-141.862 70.704L-142.464 69.488L-142.988 68.269L-143.432 67.047L-143.797 65.823L-146.102 56.093L-146.224 55.579L-146.515 54.329L-146.726 53.078L-146.854 51.828L-146.901 50.579L-146.639 40.582L-146.376 30.586L-146.114 20.589L-145.851 10.593L-145.589 0.596008L-145.326 -9.39999L-145.064 -19.397L-144.801 -29.393L-144.539 -39.39L-144.276 -49.387L-144.014 -59.383L-143.751 -69.38L-143.489 -79.376L-143.232 -89.168L-143.197 -90.415L-143.081 -91.66L-142.884 -92.901L-142.605 -94.139L-142.245 -95.372L-141.805 -96.599L-138.988 -103.572L-138.477 -104.769L-137.887 -105.96L-137.218 -107.142L-136.471 -108.317L-135.647 -109.482L-134.746 -110.638L-133.768 -111.783L-132.715 -112.917L-131.586 -114.039L-130.382 -115.149L-129.104 -116.246L-127.753 -117.329L-126.33 -118.398L-124.836 -119.452L-123.271 -120.49L-121.636 -121.511L-119.932 -122.516L-118.161 -123.503L-109.425 -128.368L-106.462 -130.018L-104.815 -130.886L-103.109 -131.738L-101.345 -132.573L-99.525 -133.389L-97.649 -134.188L-95.719 -134.968L-93.736 -135.728L-91.701 -136.469L-89.615 -137.189L-87.48 -137.889L-85.296 -138.568L-83.065 -139.226L-80.789 -139.861L-78.469 -140.475L-76.106 -141.066L-73.701 -141.634L-71.257 -142.179L-68.774 -142.7L-66.254 -143.198L-63.698 -143.671L-61.109 -144.119L-58.487 -144.543L-55.835 -144.942L-53.154 -145.316L-50.445 -145.664L-47.71 -145.987L-44.95 -146.283L-42.168 -146.554L-39.366 -146.798L-36.543 -147.016L-33.704 -147.208L-30.848 -147.372L-27.979 -147.511L-25.097 -147.622L-22.204 -147.706L-19.303 -147.764L-16.394 -147.794L-13.48 -147.798L-10.562 -147.775L-7.64301 -147.725L-4.72301 -147.647L-1.80499 -147.543L1.11 -147.412L4.02 -147.255L6.922 -147.07L9.817 -146.86L12.7 -146.622L15.572 -146.359L18.43 -146.069L21.272 -145.754L24.097 -145.413L26.903 -145.046L29.688 -144.654L32.451 -144.236L35.19 -143.794L37.903 -143.328L40.589 -142.837L43.246 -142.322L45.873 -141.784L48.467 -141.222L51.028 -140.637L53.553 -140.029L56.042 -139.4L58.493 -138.748L60.904 -138.075L63.273 -137.38L65.601 -136.665L67.884 -135.93L70.122 -135.175L72.313 -134.4L74.456 -133.607L76.55 -132.795L78.593 -131.965L80.584 -131.118L82.523 -130.254L84.407 -129.374L86.236 -128.477L88.008 -127.566L89.724 -126.639L91.38 -125.698L92.977 -124.744L101.446 -119.427L104.326 -117.62L106.04 -116.54L107.685 -115.447L109.261 -114.341L110.767 -113.221L112.202 -112.09L113.564 -110.948L114.853 -109.795L116.068 -108.632L117.209 -107.46L118.274 -106.28L119.264 -105.092L120.177 -103.897L121.014 -102.695L121.772 -101.488L122.453 -100.276L123.056 -99.059L123.579 -97.84L124.024 -96.617L126.471 -89.505L126.844 -88.256L127.135 -87.006L127.345 -85.756L127.474 -84.505L127.521 -83.256L127.259 -73.26L126.996 -63.263L126.733 -53.267L126.471 -43.27L126.208 -33.273L125.946 -23.277L125.683 -13.28L125.421 -3.284L125.158 6.71301L124.896 16.709L124.633 26.706L124.371 36.702L124.108 46.699L123.851 56.49L123.817 57.738L123.701 58.983L123.504 60.224L123.225 61.462L122.865 62.694L120.053 72.291L119.904 72.797L119.472 73.999L118.961 75.196L118.371 76.386L117.703 77.568L116.957 78.742L113.392 83.95" />
    <path fill="none" stroke="black" stroke-width="24" stroke-linecap="round" stroke-linejoin="round" transform="matrix(1 0 0 -1 250 325)" d="M108.766 76.169L108.758 76.146L108.275 75.022L107.72 73.901L107.093 72.784L106.393 71.671L105.622 70.563L104.781 69.461L103.868 68.366L102.886 67.278L101.834 66.198L100.714 65.126L99.526 64.063L98.27 63.01L96.948 61.967L95.56 60.936L94.107 59.916L92.59 58.908L91.01 57.913L89.368 56.932L87.664 55.964L85.9 55.012L84.078 54.074L82.197 53.152L80.259 52.247L78.266 51.358L76.218 50.487L74.117 49.634L71.964 48.799L69.76 47.983L67.507 47.186L65.205 46.41L62.858 45.654L60.464 44.919L58.027 44.204L55.548 43.512L53.028 42.842L50.469 42.194L47.872 41.57L45.238 40.968L42.57 40.39L39.869 39.837L37.137 39.307L34.375 38.802L31.585 38.323L28.768 37.868L25.927 37.439L23.063 37.036L20.177 36.659L17.272 36.308L14.35 35.983L11.411 35.686L8.45799 35.415L5.492 35.171L2.51601 34.954L-0.468994 34.764L-3.461 34.602L-6.45799 34.468L-9.459 34.361L-12.462 34.281L-15.464 34.229L-18.465 34.205L-21.461 34.209L-24.452 34.241L-27.436 34.3L-30.411 34.387L-33.374 34.501L-36.325 34.643L-39.262 34.813L-42.182 35.01L-45.084 35.234L-47.966 35.485L-50.827 35.763L-53.664 36.068L-56.477 36.4L-59.263 36.758L-62.02 37.142L-64.748 37.553L-67.444 37.988L-70.106 38.45L-72.734 38.936L-75.325 39.448L-77.879 39.984L-80.393 40.544L-82.865 41.128L-85.295 41.736L-87.682 42.367L-90.022 43.021L-92.316 43.697L-94.562 44.395L-96.758 45.115L-98.903 45.856L-100.996 46.618L-103.035 47.4L-105.02 48.202L-106.949 49.023L-108.82 49.862L-110.634 50.721L-112.388 51.597L-114.082 52.49L-115.715 53.4L-117.285 54.326L-118.792 55.267L-120.235 56.224L-121.612 57.195L-122.924 58.181L-124.169 59.179L-125.347 60.19L-126.457 61.213L-127.498 62.248L-128.469 63.293L-129.37 64.349L-130.201 65.414L-130.961 66.489L-131.649 67.571L-132.265 68.661L-132.69 69.518" />
    <path fill="none" stroke="black" stroke-width="24" stroke-linecap="round" stroke-linejoin="round" transform="matrix(1 0 0 -1 250 325)" d="M-13.155 164.327L-18.23 164.173L-23.296 163.935L-28.342 163.611L-33.357 163.203L-38.333 162.712L-38.891 162.652L-43.932 162.065L-48.911 161.395L-53.818 160.644L-58.644 159.811L-63.379 158.901L-68.013 157.914L-72.537 156.851L-76.941 155.717L-81.218 154.512L-85.358 153.239L-89.352 151.901L-93.194 150.5L-94.893 149.858L-98.654 148.365L-102.243 146.815L-105.653 145.21L-108.877 143.553L-111.908 141.847L-113.819 140.75L-116.708 138.965L-119.389 137.137L-121.855 135.271L-123.736 133.806L-126.024 131.871L-128.085 129.905L-129.822 128.135L-131.68 126.11L-133.3 124.062L-134.843 122.023L-136.239 119.927L-137.531 117.685L-138.692 115.55L-139.599 113.403L-140.623 110.977L-141.282 108.805L-142.006 106.258L-142.408 104.069L-142.82 101.443L-142.962 99.247L-143.053 96.588L-142.933 94.395L-142.703 91.745L-142.321 89.565L-141.773 86.968L-141.133 84.811L-140.278 82.312L-139.385 80.186L-138.239 77.825L-137.926 77.253L-137.1 75.741L-135.684 73.558L-134.31 71.522L-132.69 69.518L-132.689 69.518L-131.052 67.576L-129.214 65.632L-127.141 63.726L-125.328 62.063L-123.059 60.228L-120.568 58.438L-118.634 57.088L-115.972 55.377L-113.1 53.718L-110.026 52.113L-108.089 51.132L-104.881 49.616L-101.487 48.159L-97.913 46.765L-94.167 45.436L-90.256 44.176L-88.565 43.637L-84.583 42.473L-80.456 41.38L-76.19 40.362L-71.796 39.419L-67.283 38.555L-62.658 37.769L-57.931 37.065L-53.113 36.444L-48.212 35.906L-43.239 35.453L-38.203 35.086L-33.115 34.806L-32.61 34.779L-27.597 34.59L-22.553 34.486L-17.489 34.469L-12.414 34.537L-7.338 34.69L-2.272 34.929L2.77299 35.253L7.789 35.661L12.765 36.152L13.323 36.211L18.364 36.798L23.343 37.468L28.25 38.22L33.076 39.052L37.811 39.963L42.444 40.95L46.968 42.012L51.373 43.147L55.649 44.352L59.789 45.625L63.784 46.963L67.626 48.364L69.325 49.006L73.086 50.498L76.675 52.049L80.084 53.654L83.308 55.311L86.34 57.017L88.251 58.114L91.14 59.899L93.82 61.727L96.287 63.592L98.167 65.058L100.455 66.993L102.516 68.959L104.254 70.729L106.112 72.754L107.731 74.802L108.766 76.169L109.275 76.841L110.671 78.937L111.963 81.178L113.123 83.313L113.392 83.95L114.031 85.46L115.055 87.886L115.713 90.059L116.437 92.606L116.84 94.795L117.251 97.42L117.394 99.616L117.485 102.276L117.365 104.469L117.134 107.119L116.753 109.299L116.205 111.895L115.565 114.053L114.71 116.552L113.816 118.678L112.671 121.038L111.532 123.123L110.116 125.306L108.741 127.341L107.121 129.346L105.483 131.288L103.645 133.232L101.572 135.138L99.76 136.801L97.491 138.636L94.999 140.425L93.066 141.776L90.403 143.486L87.532 145.146L84.458 146.75L82.521 147.731L79.313 149.248L75.919 150.705L72.345 152.099L68.599 153.427L64.687 154.687L62.997 155.227L59.015 156.391L54.887 157.483L50.622 158.502L46.228 159.444L41.714 160.309L37.089 161.094L32.363 161.798L27.545 162.42L22.644 162.958L17.67 163.41L12.635 163.777L7.547 164.058L7.041 164.085L2.02901 164.274L-3.015 164.377L-8.07899 164.395L-13.155 164.327" />
    <path fill="none" stroke="black" stroke-width="24" stroke-linecap="round" stroke-linejoin="round" transform="matrix(1 0 0 -1 250 325)" d="M-90.973 100.154L-91.298 100.388L-92.661 101.49L-92.898 101.682" />
    <path fill="none" stroke="black" stroke-width="24" stroke-linecap="round" stroke-linejoin="round" transform="matrix(1 0 0 -1 250 325)" d="M-86.475 97.512L-87.404 97.998L-89.516 99.218L-90.973 100.154L-91.474 100.476" />
    <path fill="none" stroke="black" stroke-width="24" stroke-linecap="round" stroke-linejoin="round" transform="matrix(1 0 0 -1 250 325)" d="M98.167 65.058L95.656 63.159L92.928 61.299L89.988 59.483L86.842 57.712L83.496 55.993L79.957 54.326L76.232 52.717L72.328 51.168L68.255 49.683L64.018 48.264L59.629 46.914L55.094 45.637L50.423 44.433L45.626 43.307L40.712 42.26L35.691 41.294L30.574 40.412L25.37 39.615L20.09 38.904L14.745 38.282L9.34599 37.749L3.90199 37.306L-1.57401 36.955L-7.071 36.696L-12.58 36.529L-18.088 36.455L-23.584 36.474L-29.058 36.587L-34.498 36.792L-39.893 37.089L-45.233 37.478L-50.507 37.958L-55.704 38.528L-60.813 39.188L-65.825 39.934L-70.729 40.767L-75.516 41.684L-80.175 42.683L-84.698 43.763L-89.075 44.922L-93.298 46.156L-97.357 47.464L-101.245 48.842L-104.955 50.289L-108.478 51.801L-111.807 53.375L-114.936 55.008L-117.858 56.697L-120.568 58.438" />
    <path fill="none" stroke="black" stroke-width="24" stroke-linecap="round" stroke-linejoin="round" transform="matrix(1 0 0 -1 250 325)" d="M-74.892 92.94L-76.363 93.414L-79.247 94.437L-81.998 95.51L-84.611 96.631L-86.443 97.497L-86.454 97.503L-86.462 97.507L-86.475 97.512L-87.08 97.799" />
    <path fill="none" stroke="black" stroke-width="24" stroke-linecap="round" stroke-linejoin="round" transform="matrix(1 0 0 -1 250 325)" d="M-30.715 85.874L-34.342 86.074L-38.411 86.371L-42.43 86.737L-46.391 87.171L-50.285 87.673L-54.105 88.242L-57.843 88.877L-61.491 89.576L-65.042 90.338L-68.489 91.161L-71.824 92.043L-74.892 92.94L-75.043 92.984" />
    <path fill="none" stroke="black" stroke-width="24" stroke-linecap="round" stroke-linejoin="round" transform="matrix(1 0 0 -1 250 325)" d="M7.858 87.043L7.558 87.013L3.62601 86.625L-0.639999 86.278L-4.931 86.003L-9.24001 85.8L-13.557 85.669L-17.874 85.611L-22.181 85.626L-26.471 85.714L-30.715 85.874L-30.735 85.875" />
    <path fill="none" stroke="black" stroke-width="24" stroke-linecap="round" stroke-linejoin="round" transform="matrix(1 0 0 -1 250 325)" d="M51.186 96.804L50.209 96.448L48.081 95.672L44.852 94.591L41.507 93.562L38.05 92.588L34.491 91.671L30.835 90.813L27.09 90.015L23.264 89.279L19.363 88.607L15.397 87.999L11.374 87.458L7.558 87.013" />
    <path fill="none" stroke="black" stroke-width="24" stroke-linecap="round" stroke-linejoin="round" transform="matrix(1 0 0 -1 250 325)" d="M62.584 102.328L61.084 101.484L60.895 101.378L60.876 101.367L60.875 101.366L60.251 101.015L57.769 99.74L55.145 98.504L52.382 97.311L50.209 96.448" />
    <path fill="none" stroke="black" stroke-width="24" stroke-linecap="round" stroke-linejoin="round" transform="matrix(1 0 0 -1 250 325)" d="M66.584 105.26L66.299 105.044L66.243 105.001L65.199 104.212L64.77 103.887L62.799 102.543L61.084 101.484" />
    <path fill="none" stroke="black" stroke-width="24" stroke-linecap="round" stroke-linejoin="round" transform="matrix(1 0 0 -1 250 325)" d="M67.771 106.544L67.34 106.133L67.306 106.1L67.233 106.031L67.231 106.029L67.156 105.958L67.064 105.869L67.052 105.858L66.868 105.682L66.318 105.158L65.199 104.212" />
    <path fill="none" stroke="black" stroke-width="24" stroke-linecap="round" stroke-linejoin="round" transform="matrix(1 0 0 -1 250 325)" d="M68.396 107.54L67.492 106.397L67.296 106.149L67.272 106.123L67.27 106.121L67.251 106.1L67.075 105.908L67.063 105.896L66.868 105.682" />
    <path fill="none" stroke="black" stroke-width="24" stroke-linecap="round" stroke-linejoin="round" transform="matrix(1 0 0 -1 250 325)" d="M67.77 106.879L67.282 106.146L67.279 106.142L67.251 106.1" />
    <path fill="none" stroke="black" stroke-width="24" stroke-linecap="round" stroke-linejoin="round" transform="matrix(1 0 0 -1 250 325)" d="M67.8 107.373L67.279 106.142" />
    <path fill="none" stroke="black" stroke-width="24" stroke-linecap="round" stroke-linejoin="round" transform="matrix(1 0 0 -1 250 325)" d="M67.188 106.305L67.063 105.896" />
    <path fill="none" stroke="black" stroke-width="24" stroke-linecap="round" stroke-linejoin="round" transform="matrix(1 0 0 -1 250 325)" d="M59.575 102.046L60.876 101.367" />
    <path fill="none" stroke="black" stroke-width="24" stroke-linecap="round" stroke-linejoin="round" transform="matrix(1 0 0 -1 250 325)" d="M-93.214 102.075L-94.072 103.345" />
    <path fill="none" stroke="black" stroke-width="24" stroke-linecap="round" stroke-linejoin="round" transform="matrix(1 0 0 -1 250 325)" d="M-93.074 101.927L-93.385 102.495" />
    <path fill="none" stroke="black" stroke-width="24" stroke-linecap="round" stroke-linejoin="round" transform="matrix(1 0 0 -1 250 325)" d="M-92.661 101.49L-93.074 101.927L-93.146 102.003L-93.214 102.075L-93.323 102.19L-93.742 102.633" />
    <path fill="none" stroke="black" stroke-width="24" stroke-linecap="round" stroke-linejoin="round" transform="matrix(1 0 0 -1 250 325)" d="M-86.454 97.503L-86.242 97.633" />
  </g>
</svg>