<?xml version='1.0' encoding='utf-8'?>
<svg xmlns="http://www.w3.org/2000/svg" version="1.1" width="500" height="650" viewBox="0 0 500 650">
  <g>
    <path fill="none" stroke="none" transform="matrix(1 0 0 -1 250 325)" d="M-101.023 64.065L-107.07 56.101L-107.85 55.074L-108.518 54.193L-109.108 53.299L-109.62 52.395L-110.052 51.481L-110.406 50.557L-113.797 41.15L-114.101 40.305L-114.381 39.353L-114.58 38.392L-114.698 37.422L-115.648 27.468L-116.597 17.513L-117.547 7.55801L-118.496 -2.397L-119.446 -12.352L-120.395 -22.307L-121.345 -32.261L-122.294 -42.216L-123.244 -52.171L-124.193 -62.126L-125.143 -72.081L-126.092 -82.035L-127.042 -91.99L-127.991 -101.945L-128.388 -106.105L-128.425 -107.081L-128.381 -108.065L-128.255 -109.056L-128.048 -110.052L-126.112 -117.595L-125.83 -118.576L-125.469 -119.563L-125.029 -120.553L-124.509 -121.547L-123.912 -122.543L-123.236 -123.542L-122.483 -124.542L-121.652 -125.544L-120.745 -126.545L-119.761 -127.546L-118.702 -128.547L-117.568 -129.546L-116.36 -130.543L-108.576 -136.821L-104.656 -139.983L-103.507 -140.875L-102.293 -141.763L-101.014 -142.648L-99.671 -143.529L-98.266 -144.406L-96.798 -145.277L-95.27 -146.143L-93.681 -147.003L-92.032 -147.856L-90.326 -148.702L-88.562 -149.541L-86.741 -150.371L-84.866 -151.193L-82.937 -152.006L-80.955 -152.809L-78.921 -153.602L-76.837 -154.384L-74.703 -155.155L-72.522 -155.915L-70.294 -156.663L-68.021 -157.398L-65.704 -158.121L-63.345 -158.83L-60.945 -159.526L-58.505 -160.207L-56.026 -160.874L-53.512 -161.526L-50.962 -162.162L-48.378 -162.783L-45.763 -163.388L-43.117 -163.976L-40.442 -164.547L-37.74 -165.101L-35.013 -165.638L-32.261 -166.157L-29.487 -166.658L-26.693 -167.14L-23.879 -167.604L-21.048 -168.048L-18.202 -168.474L-15.342 -168.879L-12.469 -169.265L-9.58701 -169.631L-6.69501 -169.977L-3.797 -170.302L-0.893005 -170.607L2.013 -170.891L4.922 -171.154L7.83 -171.396L10.737 -171.616L13.64 -171.815L16.538 -171.993L19.429 -172.148L22.31 -172.282L25.182 -172.395L28.041 -172.485L30.886 -172.553L33.715 -172.6L36.527 -172.624L39.319 -172.626L42.091 -172.607L44.841 -172.565L47.566 -172.501L50.266 -172.416L52.938 -172.308L55.581 -172.179L58.193 -172.028L60.774 -171.855L63.32 -171.66L65.832 -171.444L68.306 -171.207L70.743 -170.949L73.139 -170.669L75.495 -170.369L77.808 -170.048L80.077 -169.707L82.3 -169.345L84.477 -168.963L86.606 -168.562L88.685 -168.141L90.714 -167.7L92.691 -167.24L94.616 -166.762L96.486 -166.265L98.301 -165.75L100.059 -165.217L101.761 -164.667L103.404 -164.099L104.987 -163.514L106.51 -162.913L107.972 -162.296L109.371 -161.663L110.708 -161.014L111.981 -160.35L120.811 -155.657L125.312 -153.264L126.66 -152.507L127.935 -151.734L129.137 -150.946L130.264 -150.144L131.316 -149.326L132.292 -148.495L133.192 -147.65L134.016 -146.792L134.762 -145.922L135.43 -145.04L136.021 -144.147L136.532 -143.242L136.965 -142.328L140.295 -135.28L140.656 -134.337L140.936 -133.385L141.136 -132.424L141.254 -131.455L142.203 -121.5L143.153 -111.545L144.102 -101.59L145.052 -91.635L146.001 -81.681L146.951 -71.726L147.9 -61.771L148.85 -51.816L149.799 -41.861L150.749 -31.907L151.698 -21.952L152.648 -11.997L153.597 -2.04199L154.547 7.91299L154.943 12.072L154.98 13.049L154.936 14.033L154.81 15.023L153.259 24.902L153.121 25.782L152.918 26.758L152.636 27.74L152.275 28.726L151.835 29.716L147.402 38.679L146.476 40.55" />
    <path fill="none" stroke="black" stroke-width="24" stroke-linecap="round" stroke-linejoin="round" transform="matrix(1 0 0 -1 250 325)" d="M-101.023 64.065L-107.07 56.101L-107.85 55.074L-108.518 54.193L-109.108 53.299L-109.62 52.395L-110.052 51.481L-110.406 50.557L-113.797 41.15L-114.101 40.305L-114.381 39.353L-114.58 38.392L-114.698 37.422L-115.648 27.468L-116.597 17.513L-117.547 7.55801L-118.496 -2.397L-119.446 -12.352L-120.395 -22.307L-121.345 -32.261L-122.294 -42.216L-123.244 -52.171L-124.193 -62.126L-125.143 -72.081L-126.092 -82.035L-127.042 -91.99L-127.991 -101.945L-128.388 -106.105L-128.425 -107.081L-128.381 -108.065L-128.255 -109.056L-128.048 -110.052L-126.112 -117.595L-125.83 -118.576L-125.469 -119.563L-125.029 -120.553L-124.509 -121.547L-123.912 -122.543L-123.236 -123.542L-122.483 -124.542L-121.652 -125.544L-120.745 -126.545L-119.761 -127.546L-118.702 -128.547L-117.568 -129.546L-116.36 -130.543L-108.576 -136.821L-104.656 -139.983L-103.507 -140.875L-102.293 -141.763L-101.014 -142.648L-99.671 -143.529L-98.266 -144.406L-96.798 -145.277L-95.27 -146.143L-93.681 -147.003L-92.032 -147.856L-90.326 -148.702L-88.562 -149.541L-86.741 -150.371L-84.866 -151.193L-82.937 -152.006L-80.955 -152.809L-78.921 -153.602L-76.837 -154.384L-74.703 -155.155L-72.522 -155.915L-70.294 -156.663L-68.021 -157.398L-65.704 -158.121L-63.345 -158.83L-60.945 -159.526L-58.505 -160.207L-56.026 -160.874L-53.512 -161.526L-50.962 -162.162L-48.378 -162.783L-45.763 -163.388L-43.117 -163.976L-40.442 -164.547L-37.74 -165.101L-35.013 -165.638L-32.261 -166.157L-29.487 -166.658L-26.693 -167.14L-23.879 -167.604L-21.048 -168.048L-18.202 -168.474L-15.342 -168.879L-12.469 -169.265L-9.58701 -169.631L-6.69501 -169.977L-3.797 -170.302L-0.893005 -170.607L2.013 -170.891L4.922 -171.154L7.83 -171.396L10.737 -171.616L13.64 -171.815L16.538 -171.993L19.429 -172.148L22.31 -172.282L25.182 -172.395L28.041 -172.485L30.886 -172.553L33.715 -172.6L36.527 -172.624L39.319 -172.626L42.091 -172.607L44.841 -172.565L47.566 -172.501L50.266 -172.416L52.938 -172.308L55.581 -172.179L58.193 -172.028L60.774 -171.855L63.32 -171.66L65.832 -171.444L68.306 -171.207L70.743 -170.949L73.139 -170.669L75.495 -170.369L77.808 -170.048L80.077 -169.707L82.3 -169.345L84.477 -168.963L86.606 -168.562L88.685 -168.141L90.714 -167.7L92.691 -167.24L94.616 -166.762L96.486 -166.265L98.301 -165.75L100.059 -165.217L101.761 -164.667L103.404 -164.099L104.987 -163.514L106.51 -162.913L107.972 -162.296L109.371 -161.663L110.708 -161.014L111.981 -160.35L120.811 -155.657L125.312 -153.264L126.66 -152.507L127.935 -151.734L129.137 -150.946L130.264 -150.144L131.316 -149.326L132.292 -148.495L133.192 -147.65L134.016 -146.792L134.762 -145.922L135.43 -145.04L136.021 -144.147L136.532 -143.242L136.965 -142.328L140.295 -135.28L140.656 -134.337L140.936 -133.385L141.136 -132.424L141.254 -131.455L142.203 -121.5L143.153 -111.545L144.102 -101.59L145.052 -91.635L146.001 -81.681L146.951 -71.726L147.9 -61.771L148.85 -51.816L149.799 -41.861L150.749 -31.907L151.698 -21.952L152.648 -11.997L153.597 -2.04199L154.547 7.91299L154.943 12.072L154.98 13.049L154.936 14.033L154.81 15.023L153.259 24.902L153.121 25.782L152.918 26.758L152.636 27.74L152.275 28.726L151.835 29.716L147.402 38.679L146.476 40.55" />
    <path fill="none" stroke="black" stroke-width="24" stroke-linecap="round" stroke-linejoin="round" transform="matrix(1 0 0 -1 250 325)" d="M143.816 37.536L143.715 37.273L143.315 36.429L142.844 35.596L142.3 34.772L141.683 33.959L140.996 33.157L140.237 32.366L139.407 31.588L138.507 30.821L137.537 30.068L136.498 29.328L135.39 28.601L134.215 27.889L132.973 27.191L131.664 26.509L130.289 25.842L128.85 25.191L127.347 24.556L125.781 23.938L124.152 23.336L122.463 22.753L120.713 22.186L118.905 21.638L117.039 21.109L115.115 20.598L113.137 20.106L111.103 19.633L109.017 19.18L106.878 18.747L104.689 18.334L102.451 17.942L100.164 17.57L97.831 17.219L95.453 16.889L93.03 16.58L90.566 16.293L88.06 16.027L86.313 15.859L85.516 15.783L82.933 15.561L80.314 15.361L77.661 15.183L74.974 15.028L72.256 14.895L69.508 14.784L66.732 14.696L63.93 14.63L61.102 14.587L58.252 14.567L55.38 14.57L52.488 14.595L49.579 14.642L46.653 14.713L43.713 14.806L40.761 14.921L37.797 15.059L34.825 15.219L31.845 15.402L28.859 15.606L25.87 15.833L22.879 16.082L19.888 16.352L16.899 16.644L13.913 16.957L10.933 17.292L7.96001 17.647L4.995 18.024L2.041 18.421L-0.899994 18.838L-3.827 19.275L-6.73801 19.732L-9.631 20.209L-12.505 20.705L-15.358 21.22L-18.187 21.754L-20.992 22.306L-23.771 22.875L-26.521 23.463L-29.242 24.068L-31.932 24.69L-34.588 25.328L-37.211 25.983L-39.797 26.653L-42.345 27.339L-44.854 28.04L-47.323 28.755L-47.858 28.916L-49.749 29.484L-52.131 30.227L-54.469 30.983L-56.76 31.752L-59.003 32.534L-61.197 33.327L-63.34 34.131L-65.431 34.947L-67.47 35.773L-69.454 36.608L-71.382 37.453L-73.254 38.307L-75.068 39.17L-76.823 40.04L-78.518 40.917L-80.152 41.801L-81.724 42.692L-83.233 43.588L-84.678 44.489L-86.059 45.395L-87.374 46.305L-88.623 47.219L-89.805 48.136L-90.918 49.055L-91.964 49.976L-92.94 50.898L-93.847 51.821L-94.683 52.744L-95.449 53.667L-96.143 54.589L-96.766 55.51L-97.317 56.429L-97.796 57.345L-98.202 58.258L-98.535 59.167L-98.795 60.072L-98.869 60.431" />
    <path fill="none" stroke="black" stroke-width="24" stroke-linecap="round" stroke-linejoin="round" transform="matrix(1 0 0 -1 250 325)" d="M86.313 15.859L88.716 16.144L92.736 16.703L96.615 17.326L98.455 17.631L102.271 18.334L105.927 19.101L109.414 19.93L112.727 20.819L115.858 21.767L118.01 22.477L121.016 23.503L123.825 24.586L126.429 25.722L128.635 26.797L131.077 28.008L133.302 29.269L135.304 30.578L137.475 32.003L139.281 33.38L141.289 35.086L142.885 36.528L143.816 37.536L144.694 38.488L146.067 39.991L146.476 40.55L147.194 41.531L148.783 43.732L149.67 45.325L150.996 47.711L152.031 50.237L152.673 51.887L153.407 54.526L153.791 56.212L154.212 58.923L154.336 60.637L154.436 63.379L154.298 65.113L154.077 67.841L153.536 70.525L153.142 72.261L152.293 74.85L151.648 76.587L150.505 79.042L149.615 80.771L148.2 83.053L147.076 84.768L145.707 86.487L144.065 88.533L142.481 90.227L140.628 92.029L138.841 93.691L136.827 95.348L134.835 96.843L132.642 98.459L130.236 100.063L127.621 101.652L125.6 102.779L122.842 104.317L119.889 105.833L116.749 107.324L113.427 108.789L109.931 110.224L106.267 111.625L104.543 112.263L100.807 113.598L96.921 114.895L92.894 116.151L88.733 117.365L84.448 118.534L80.047 119.654L75.538 120.725L70.931 121.744L66.235 122.709L61.46 123.618L56.615 124.469L51.71 125.261L46.754 125.991L41.758 126.658L36.732 127.262L31.686 127.801L26.63 128.273L21.574 128.678L16.529 129.015L11.504 129.283L6.50999 129.482L1.55701 129.611L-3.34599 129.67L-8.188 129.66L-12.959 129.579L-17.651 129.428L-22.253 129.208L-26.756 128.919L-31.152 128.561L-35.431 128.136L-39.584 127.643L-43.605 127.085L-47.483 126.461L-49.323 126.156L-53.139 125.453L-56.795 124.686L-60.283 123.858L-63.595 122.968L-66.726 122.02L-68.878 121.31L-71.885 120.284L-74.693 119.202L-77.297 118.066L-79.503 116.99L-81.946 115.779L-84.17 114.518L-86.172 113.21L-88.343 111.784L-90.15 110.407L-92.157 108.701L-93.754 107.259L-95.562 105.3L-96.936 103.797L-98.062 102.256L-99.652 100.056L-100.538 98.463L-101.864 96.076L-102.899 93.55L-103.541 91.901L-104.275 89.261L-104.66 87.576L-105.08 84.864L-105.204 83.151L-105.304 80.409L-105.167 78.675L-104.945 75.946L-104.405 73.263L-104.011 71.527L-103.162 68.937L-102.516 67.201L-101.373 64.745L-101.023 64.065L-100.483 63.016L-99.068 60.734L-98.869 60.431L-97.944 59.02L-96.576 57.3L-94.934 55.254L-93.349 53.56L-91.496 51.759L-89.709 50.096L-87.695 48.44L-85.703 46.944L-83.51 45.328L-81.104 43.724L-78.489 42.135L-76.468 41.008L-73.71 39.471L-70.757 37.955L-67.617 36.463L-64.296 34.998L-60.799 33.564L-57.135 32.162L-55.411 31.524L-51.675 30.189L-47.858 28.916" />
    <path fill="none" stroke="black" stroke-width="24" stroke-linecap="round" stroke-linejoin="round" transform="matrix(1 0 0 -1 250 325)" d="M137.475 32.003L135.437 30.671L133.173 29.388L130.687 28.156L127.984 26.977L125.069 25.853L121.949 24.788L118.629 23.783L115.117 22.84L111.418 21.961L107.542 21.148L103.495 20.402L99.286 19.726L94.923 19.12L90.415 18.585L85.771 18.123L81.001 17.735L76.114 17.421L71.119 17.182L66.028 17.019L60.849 16.931L55.595 16.92L50.274 16.984L44.899 17.124L39.479 17.34L34.026 17.631L28.55 17.997L23.063 18.436L17.576 18.949L12.1 19.533L6.645 20.188L1.22301 20.913L-4.155 21.706L-9.478 22.564L-14.737 23.488L-19.919 24.474L-25.016 25.522L-30.015 26.627L-34.908 27.79L-39.685 29.006L-44.335 30.274L-48.85 31.591L-53.221 32.955L-57.438 34.363L-61.493 35.811L-65.379 37.297L-69.086 38.818L-72.609 40.372L-75.938 41.954L-79.069 43.561L-81.994 45.191L-84.709 46.84L-87.206 48.505L-89.481 50.182L-91.531 51.868L-93.349 53.56" />
    <path fill="none" stroke="black" stroke-width="24" stroke-linecap="round" stroke-linejoin="round" transform="matrix(1 0 0 -1 250 325)" d="M-51.32 85.519L-53.293 86.718L-53.649 86.955L-55.145 87.952L-55.158 87.961L-56.029 88.603L-56.118 88.669L-56.118 88.669L-56.13 88.678L-56.269 88.781L-56.332 88.827L-56.337 88.831L-56.682 89.085L-56.833 89.196" />
    <path fill="none" stroke="black" stroke-width="24" stroke-linecap="round" stroke-linejoin="round" transform="matrix(1 0 0 -1 250 325)" d="M-38.579 79.819L-40.637 80.606L-43.463 81.766L-46.147 82.949L-48.685 84.155L-51.071 85.38L-51.32 85.519L-53.301 86.622" />
    <path fill="none" stroke="black" stroke-width="24" stroke-linecap="round" stroke-linejoin="round" transform="matrix(1 0 0 -1 250 325)" d="M89.906 68.036L88.489 67.808L86.607 67.506L83.188 67.031L79.768 66.625L79.655 66.612L76.015 66.25L72.277 65.945L68.446 65.699L64.532 65.512L60.542 65.384L56.483 65.315L52.365 65.306L48.195 65.357L43.982 65.467L39.735 65.636L35.461 65.864L31.17 66.151L26.869 66.495L22.569 66.897L18.277 67.355L14.002 67.868L9.75301 68.436L5.53799 69.057L1.366 69.73L-2.755 70.454L-6.817 71.227L-10.811 72.048L-14.73 72.915L-18.564 73.825L-22.308 74.779L-25.953 75.773L-29.491 76.805L-30.636 77.162L-32.916 77.874L-36.222 78.977L-38.579 79.819L-39.4 80.112" />
    <path fill="none" stroke="black" stroke-width="24" stroke-linecap="round" stroke-linejoin="round" transform="matrix(1 0 0 -1 250 325)" d="M102.13 71.072L101.498 70.881L99.6 70.306L96.923 69.588L94.104 68.918L91.15 68.298L88.489 67.808" />
    <path fill="none" stroke="black" stroke-width="24" stroke-linecap="round" stroke-linejoin="round" transform="matrix(1 0 0 -1 250 325)" d="M106.459 72.86L106.101 72.704L104.454 71.985L104.262 71.912L102.292 71.152L101.498 70.881" />
    <path fill="none" stroke="black" stroke-width="24" stroke-linecap="round" stroke-linejoin="round" transform="matrix(1 0 0 -1 250 325)" d="M109.158 74.565L107.686 73.602L107.62 73.565L107.46 73.474L107.333 73.402L107.037 73.235L107.034 73.233L106.101 72.704" />
    <path fill="none" stroke="black" stroke-width="24" stroke-linecap="round" stroke-linejoin="round" transform="matrix(1 0 0 -1 250 325)" d="M-56.444 89.048L-56.489 89.116L-56.951 89.82" />
  </g>
</svg>