<?xml version='1.0' encoding='utf-8'?>
<svg xmlns="http://www.w3.org/2000/svg" version="1.1" width="500" height="650" viewBox="0 0 500 650">
  <g>
    <path fill="none" stroke="none" transform="matrix(1 0 0 -1 250 325)" d="M-116.365 202.42L-121.777 194.011L-125.674 187.955L-126.051 187.34L-126.349 186.721L-126.567 186.098L-129.307 176.481L-129.635 175.328L-129.776 174.69L-129.836 174.048L-130.168 164.053L-130.5 154.059L-130.833 144.064L-131.165 134.07L-131.497 124.075L-131.829 114.081L-132.161 104.086L-132.493 94.092L-132.826 84.097L-133.158 74.103L-133.49 64.108L-133.822 54.114L-134.154 44.119L-134.486 34.125L-134.751 26.155L-134.73 25.51L-134.626 24.863L-134.442 24.214L-132.045 16.569L-131.784 15.931L-131.444 15.292L-131.024 14.653L-130.525 14.013L-129.947 13.373L-129.291 12.734L-128.557 12.095L-127.745 11.458L-119.813 5.36899L-114.816 1.53299L-114.019 0.963989L-113.153 0.394989L-112.219 -0.17099L-111.218 -0.734009L-110.15 -1.29501L-109.015 -1.853L-107.815 -2.40701L-106.549 -2.95801L-105.22 -3.504L-103.827 -4.04599L-102.371 -4.58301L-100.854 -5.11499L-99.277 -5.642L-97.639 -6.16199L-95.943 -6.677L-94.188 -7.186L-92.377 -7.68799L-90.511 -8.18201L-88.59 -8.67001L-86.615 -9.14999L-84.588 -9.62201L-82.511 -10.086L-80.383 -10.542L-78.208 -10.988L-75.985 -11.426L-73.716 -11.855L-71.403 -12.274L-69.047 -12.684L-66.65 -13.083L-64.212 -13.473L-61.735 -13.852L-59.222 -14.22L-56.672 -14.577L-54.089 -14.923L-51.473 -15.258L-48.826 -15.581L-46.149 -15.893L-43.445 -16.193L-40.715 -16.48L-37.96 -16.755L-35.182 -17.018L-32.383 -17.269L-29.564 -17.506L-26.728 -17.731L-23.876 -17.942L-21.009 -18.141L-18.129 -18.326L-15.239 -18.498L-12.34 -18.656L-9.433 -18.801L-6.52 -18.932L-3.603 -19.049L-0.684998 -19.153L2.235 -19.243L5.15199 -19.319L8.067 -19.38L10.977 -19.428L13.88 -19.462L16.775 -19.481L19.66 -19.487L22.533 -19.479L25.392 -19.456L28.236 -19.419L31.064 -19.369L33.872 -19.304L36.66 -19.225L39.426 -19.133L42.168 -19.026L44.885 -18.906L47.574 -18.772L50.235 -18.625L52.866 -18.464L55.465 -18.289L58.031 -18.101L60.561 -17.9L63.055 -17.686L65.511 -17.458L67.928 -17.218L70.304 -16.965L72.637 -16.7L74.927 -16.422L77.171 -16.132L79.369 -15.83L81.519 -15.516L83.62 -15.19L85.671 -14.853L87.67 -14.504L89.617 -14.145L91.509 -13.774L93.346 -13.393L95.127 -13.002L96.851 -12.6L98.516 -12.189L100.122 -11.768L101.668 -11.337L103.152 -10.897L104.574 -10.449L105.934 -9.991L107.229 -9.52499L108.46 -9.052L109.626 -8.57001L110.725 -8.08099L111.758 -7.58499L112.724 -7.082L113.621 -6.57199L114.45 -6.056L122.77 -0.506989L128.016 2.992L128.864 3.57401L129.634 4.16299L130.327 4.758L130.942 5.358L131.478 5.96399L131.934 6.57401L132.312 7.189L132.61 7.80801L135.51 15.278L135.733 15.914L135.874 16.553L135.934 17.194L136.266 27.189L136.598 37.183L136.93 47.178L137.262 57.172L137.595 67.167L137.927 77.161L138.259 87.156L138.591 97.15L138.923 107.145L139.255 117.139L139.587 127.134L139.92 137.128L140.252 147.123L140.584 157.117L140.849 165.087L140.827 165.732L140.724 166.379L138.629 176.157L138.379 177.328L138.198 177.964L137.937 178.601L137.597 179.24L132.756 187.99L129.245 194.335" />
    <path fill="none" stroke="black" stroke-width="24" stroke-linecap="round" stroke-linejoin="round" transform="matrix(1 0 0 -1 250 325)" d="M128.757 193.84L128.759 193.791L128.705 193.21L128.577 192.633L128.376 192.059L128.101 191.488L127.753 190.921L127.332 190.358L126.838 189.8L126.271 189.247L125.633 188.699L124.922 188.156L124.14 187.619L123.288 187.088L122.365 186.564L121.372 186.047L120.31 185.536L119.179 185.033L117.98 184.538L116.714 184.051L115.382 183.572L113.984 183.102L112.522 182.64L110.995 182.188L109.406 181.745L107.754 181.312L106.042 180.889L105.531 180.77L104.269 180.476L102.438 180.073L100.548 179.681L98.603 179.301L96.601 178.931L94.545 178.573L92.436 178.226L90.276 177.891L88.065 177.568L85.804 177.257L83.496 176.959L81.142 176.673L78.742 176.4L76.299 176.14L73.814 175.893L71.288 175.66L68.724 175.439L66.121 175.232L63.483 175.039L60.81 174.859L58.105 174.694L55.369 174.542L52.603 174.404L49.809 174.281L46.989 174.171L44.145 174.076L41.278 173.995L38.39 173.929L35.483 173.877L32.558 173.839L29.618 173.816L26.663 173.807L23.697 173.813L20.72 173.833L17.734 173.868L14.742 173.917L11.744 173.98L8.744 174.058L5.742 174.15L2.741 174.257L-0.259003 174.378L-3.254 174.512L-6.243 174.661L-9.22501 174.824L-12.197 175.001L-15.158 175.191L-18.107 175.396L-21.04 175.613L-23.956 175.844L-26.855 176.088L-29.733 176.346L-32.59 176.616L-35.423 176.899L-38.231 177.195L-41.012 177.503L-43.764 177.823L-46.486 178.156L-49.176 178.5L-51.833 178.856L-54.454 179.224L-57.039 179.602L-59.586 179.992L-62.093 180.392L-64.558 180.803L-66.981 181.224L-69.36 181.655L-71.693 182.096L-73.979 182.546L-76.216 183.006L-78.404 183.475L-80.54 183.952L-82.624 184.437L-84.655 184.931L-86.63 185.432L-88.55 185.941L-90.412 186.457L-92.216 186.98L-93.914 187.495L-93.961 187.509L-95.645 188.045L-97.267 188.586L-98.827 189.134L-100.324 189.686L-101.756 190.243L-103.123 190.805L-104.425 191.371L-105.659 191.941L-106.826 192.515L-107.924 193.091L-108.954 193.671L-109.914 194.253L-110.805 194.837L-111.624 195.423L-112.372 196.011L-113.049 196.599L-113.654 197.189L-114.187 197.779L-114.646 198.368L-115.033 198.958L-115.347 199.547L-115.587 200.134L-115.754 200.721L-115.847 201.306L-115.865 201.842" />
    <path fill="none" stroke="black" stroke-width="24" stroke-linecap="round" stroke-linejoin="round" transform="matrix(1 0 0 -1 250 325)" d="M-116.365 202.42L-121.777 194.011L-125.674 187.955L-126.051 187.34L-126.349 186.721L-126.567 186.098L-129.307 176.481L-129.635 175.328L-129.776 174.69L-129.836 174.048L-130.168 164.053L-130.5 154.059L-130.833 144.064L-131.165 134.07L-131.497 124.075L-131.829 114.081L-132.161 104.086L-132.493 94.092L-132.826 84.097L-133.158 74.103L-133.49 64.108L-133.822 54.114L-134.154 44.119L-134.486 34.125L-134.751 26.155L-134.73 25.51L-134.626 24.863L-134.442 24.214L-132.045 16.569L-131.784 15.931L-131.444 15.292L-131.024 14.653L-130.525 14.013L-129.947 13.373L-129.291 12.734L-128.557 12.095L-127.745 11.458L-119.813 5.36899L-114.816 1.53299L-114.019 0.963989L-113.153 0.394989L-112.219 -0.17099L-111.218 -0.734009L-110.15 -1.29501L-109.015 -1.853L-107.815 -2.40701L-106.549 -2.95801L-105.22 -3.504L-103.827 -4.04599L-102.371 -4.58301L-100.854 -5.11499L-99.277 -5.642L-97.639 -6.16199L-95.943 -6.677L-94.188 -7.186L-92.377 -7.68799L-90.511 -8.18201L-88.59 -8.67001L-86.615 -9.14999L-84.588 -9.62201L-82.511 -10.086L-80.383 -10.542L-78.208 -10.988L-75.985 -11.426L-73.716 -11.855L-71.403 -12.274L-69.047 -12.684L-66.65 -13.083L-64.212 -13.473L-61.735 -13.852L-59.222 -14.22L-56.672 -14.577L-54.089 -14.923L-51.473 -15.258L-48.826 -15.581L-46.149 -15.893L-43.445 -16.193L-40.715 -16.48L-37.96 -16.755L-35.182 -17.018L-32.383 -17.269L-29.564 -17.506L-26.728 -17.731L-23.876 -17.942L-21.009 -18.141L-18.129 -18.326L-15.239 -18.498L-12.34 -18.656L-9.433 -18.801L-6.52 -18.932L-3.603 -19.049L-0.684998 -19.153L2.235 -19.243L5.15199 -19.319L8.067 -19.38L10.977 -19.428L13.88 -19.462L16.775 -19.481L19.66 -19.487L22.533 -19.479L25.392 -19.456L28.236 -19.419L31.064 -19.369L33.872 -19.304L36.66 -19.225L39.426 -19.133L42.168 -19.026L44.885 -18.906L47.574 -18.772L50.235 -18.625L52.866 -18.464L55.465 -18.289L58.031 -18.101L60.561 -17.9L63.055 -17.686L65.511 -17.458L67.928 -17.218L70.304 -16.965L72.637 -16.7L74.927 -16.422L77.171 -16.132L79.369 -15.83L81.519 -15.516L83.62 -15.19L85.671 -14.853L87.67 -14.504L89.617 -14.145L91.509 -13.774L93.346 -13.393L95.127 -13.002L96.851 -12.6L98.516 -12.189L100.122 -11.768L101.668 -11.337L103.152 -10.897L104.574 -10.449L105.934 -9.991L107.229 -9.52499L108.46 -9.052L109.626 -8.57001L110.725 -8.08099L111.758 -7.58499L112.724 -7.082L113.621 -6.57199L114.45 -6.056L122.77 -0.506989L128.016 2.992L128.864 3.57401L129.634 4.16299L130.327 4.758L130.942 5.358L131.478 5.96399L131.934 6.57401L132.312 7.189L132.61 7.80801L135.51 15.278L135.733 15.914L135.874 16.553L135.934 17.194L136.266 27.189L136.598 37.183L136.93 47.178L137.262 57.172L137.595 67.167L137.927 77.161L138.259 87.156L138.591 97.15L138.923 107.145L139.255 117.139L139.587 127.134L139.92 137.128L140.252 147.123L140.584 157.117L140.849 165.087L140.827 165.732L140.724 166.379L138.629 176.157L138.379 177.328L138.198 177.964L137.937 178.601L137.597 179.24L132.756 187.99L129.245 194.335" />
    <path fill="none" stroke="black" stroke-width="24" stroke-linecap="round" stroke-linejoin="round" transform="matrix(1 0 0 -1 250 325)" d="M105.531 180.77L106.78 181.17L109.258 181.976L111.529 182.809L113.588 183.667L115.961 184.771L117.844 185.673L119.502 186.597L121.796 188.023L123.254 188.986L125.39 190.693L126.635 191.693L128.577 193.657L128.757 193.84L129.245 194.335L129.596 194.691L131.312 196.883L132.093 197.946L133.554 200.335L134.088 201.424L135.27 203.975L136.153 206.644L136.435 207.761L137.008 210.519L137.262 213.324L137.283 214.456L137.216 217.272L136.827 220.061L136.588 221.195L135.885 223.916L134.875 226.539L134.382 227.661L133.084 230.14L132.344 231.253L130.779 233.553L128.959 235.656L127.995 236.738L125.959 238.599L124.774 239.661L123.353 240.718L121.164 242.29L119.542 243.322L117.695 244.345L115.406 245.602L113.382 246.594L111.145 247.575L108.701 248.541L106.426 249.44L103.838 250.37L101.058 251.282L98.09 252.175L94.94 253.047L91.614 253.897L89.598 254.382L86.189 255.187L82.622 255.967L78.905 256.72L75.045 257.445L71.05 258.14L66.927 258.804L62.686 259.435L58.334 260.032L53.88 260.594L49.334 261.12L44.705 261.609L40.001 262.059L35.233 262.47L30.409 262.841L25.54 263.172L20.636 263.461L15.706 263.708L10.76 263.913L5.808 264.075L0.860001 264.194L-4.073 264.269L-8.98199 264.301L-13.858 264.289L-18.689 264.233L-23.467 264.134L-28.182 263.991L-32.824 263.806L-37.385 263.578L-41.854 263.307L-46.223 262.995L-50.483 262.642L-54.625 262.249L-58.642 261.816L-62.525 261.344L-66.266 260.835L-69.857 260.289L-73.292 259.708L-75.347 259.355L-78.7 258.724L-81.879 258.059L-84.877 257.361L-87.689 256.631L-90.308 255.872L-92.645 255.124L-95.123 254.318L-97.394 253.485L-99.453 252.627L-101.826 251.523L-103.709 250.621L-105.367 249.697L-107.66 248.271L-109.119 247.308L-111.255 245.601L-112.5 244.6L-114.442 242.637L-115.461 241.603L-117.176 239.411L-117.958 238.348L-119.418 235.959L-119.953 234.87L-121.135 232.319L-122.017 229.65L-122.3 228.533L-122.872 225.775L-123.127 222.97L-123.148 221.838L-123.08 219.022L-122.692 216.233L-122.452 215.099L-121.749 212.378L-120.74 209.755L-120.247 208.633L-118.949 206.154L-118.208 205.041L-116.643 202.741L-116.365 202.42L-115.865 201.842L-114.823 200.638L-113.86 199.556L-111.824 197.695L-110.639 196.633L-109.218 195.576L-107.028 194.004L-105.407 192.972L-103.56 191.948L-101.271 190.692L-99.247 189.7L-97.01 188.719L-94.565 187.753L-93.914 187.495" />
    <path fill="none" stroke="black" stroke-width="24" stroke-linecap="round" stroke-linejoin="round" transform="matrix(1 0 0 -1 250 325)" d="M125.39 190.693L123.905 189.712L122.184 188.753L120.23 187.817L118.046 186.907L115.638 186.023L113.01 185.169L110.168 184.345L107.117 183.554L103.863 182.796L100.413 182.074L96.774 181.389L92.952 180.742L88.957 180.135L84.796 179.568L80.477 179.044L76.009 178.562L71.401 178.125L66.662 177.732L61.802 177.385L56.831 177.084L51.758 176.83L46.594 176.624L41.349 176.465L36.034 176.355L30.659 176.293L25.236 176.28L19.775 176.315L14.287 176.399L8.784 176.531L3.276 176.711L-2.226 176.939L-7.71001 177.214L-13.166 177.535L-18.582 177.903L-23.948 178.316L-29.252 178.773L-34.484 179.275L-39.634 179.818L-44.691 180.403L-49.645 181.028L-54.486 181.693L-59.204 182.395L-63.79 183.133L-68.235 183.906L-72.529 184.712L-76.664 185.55L-80.631 186.417L-84.423 187.313L-88.032 188.235L-91.45 189.182L-94.672 190.151L-97.689 191.141L-100.497 192.149L-103.09 193.174L-105.462 194.214L-107.608 195.266L-109.525 196.329L-111.208 197.399L-112.654 198.476L-113.86 199.556" />
    <path fill="none" stroke="black" stroke-width="24" stroke-linecap="round" stroke-linejoin="round" transform="matrix(1 0 0 -1 250 325)" d="M80.677 227.299L78.874 226.994L77.596 226.777L74.375 226.288L71.02 225.831L67.538 225.408L63.936 225.02L60.221 224.667L56.401 224.35L52.483 224.071L48.475 223.828L44.385 223.623L40.222 223.457L35.994 223.329L31.709 223.24L27.376 223.19L27.077 223.19L23.004 223.18L18.601 223.208L14.177 223.276L9.74001 223.382L5.299 223.527L0.863998 223.711L-3.55701 223.933L-7.95599 224.192L-12.322 224.488L-12.595 224.509L-16.648 224.821L-20.924 225.19L-25.142 225.594L-29.294 226.032L-33.371 226.504L-37.365 227.008L-41.267 227.544L-45.071 228.109L-48.768 228.705L-52.351 229.328L-55.813 229.978L-59.147 230.653L-62.345 231.353L-63.872 231.713L-65.402 232.075" />
  </g>
</svg>