<?xml version='1.0' encoding='utf-8'?>
<svg xmlns="http://www.w3.org/2000/svg" version="1.1" width="500" height="650" viewBox="0 0 500 650">
  <g>
    <path fill="none" stroke="none" transform="matrix(1 0 0 -1 250 325)" d="M-120.383 176.906L-125.718 168.448L-128.172 164.557L-128.637 163.768L-129.024 162.976L-129.33 162.18L-129.558 161.381L-132.167 151.728L-132.444 150.706L-132.594 149.889L-132.663 149.069L-132.83 139.071L-132.996 129.072L-133.163 119.073L-133.33 109.075L-133.497 99.076L-133.664 89.078L-133.83 79.079L-133.997 69.08L-134.164 59.082L-134.331 49.083L-134.497 39.084L-134.664 29.086L-134.831 19.087L-134.998 9.08899L-135.101 2.92801L-135.088 2.10699L-134.994 1.28601L-134.818 0.463013L-134.561 -0.359009L-132.04 -7.84698L-131.709 -8.65201L-131.298 -9.457L-130.807 -10.26L-130.238 -11.061L-129.591 -11.86L-128.865 -12.655L-128.061 -13.448L-127.18 -14.236L-126.223 -15.02L-125.189 -15.799L-117.054 -21.614L-112.371 -24.961L-111.377 -25.655L-110.316 -26.343L-109.188 -27.026L-107.994 -27.703L-106.735 -28.373L-105.413 -29.037L-104.026 -29.693L-102.577 -30.342L-101.066 -30.983L-99.494 -31.615L-97.863 -32.239L-96.172 -32.854L-94.424 -33.459L-92.618 -34.054L-90.757 -34.639L-88.841 -35.213L-86.872 -35.776L-84.85 -36.328L-82.777 -36.869L-80.654 -37.397L-78.483 -37.914L-76.264 -38.417L-74 -38.908L-71.691 -39.386L-69.339 -39.85L-66.945 -40.301L-64.51 -40.737L-62.037 -41.159L-59.526 -41.567L-56.98 -41.96L-54.399 -42.338L-51.786 -42.701L-49.141 -43.048L-46.467 -43.38L-43.764 -43.695L-41.036 -43.995L-38.282 -44.279L-35.506 -44.546L-32.708 -44.796L-29.89 -45.03L-27.055 -45.247L-24.203 -45.447L-21.336 -45.63L-18.457 -45.796L-15.567 -45.944L-12.667 -46.075L-9.75999 -46.189L-6.84599 -46.285L-3.929 -46.363L-1.009 -46.424L1.911 -46.467L4.83099 -46.492L7.74699 -46.5L10.659 -46.489L13.564 -46.461L16.461 -46.416L19.348 -46.353L22.224 -46.272L25.086 -46.173L27.933 -46.057L30.763 -45.923L33.574 -45.773L36.366 -45.604L39.135 -45.419L41.881 -45.216L44.602 -44.997L47.296 -44.761L49.961 -44.508L52.597 -44.238L55.2 -43.952L57.771 -43.65L60.306 -43.332L62.805 -42.998L65.267 -42.648L67.689 -42.283L70.07 -41.903L72.409 -41.508L74.705 -41.098L76.955 -40.674L79.159 -40.235L81.316 -39.783L83.423 -39.316L85.48 -38.837L87.486 -38.344L89.439 -37.838L91.338 -37.32L93.182 -36.79L94.97 -36.248L96.701 -35.694L98.374 -35.129L99.987 -34.553L101.54 -33.967L103.032 -33.37L104.462 -32.764L105.829 -32.148L107.132 -31.523L108.37 -30.889L109.544 -30.247L110.651 -29.597L111.692 -28.94L120.017 -23.399L124.767 -20.238L125.853 -19.496L126.863 -18.747L127.797 -17.991L128.654 -17.228L129.434 -16.459L130.136 -15.685L130.759 -14.905L131.304 -14.12L131.77 -13.331L132.156 -12.538L132.463 -11.742L135.236 -4.332L135.468 -3.517L135.619 -2.70001L135.688 -1.88L135.854 8.11801L136.021 18.117L136.188 28.116L136.355 38.114L136.522 48.113L136.688 58.111L136.855 68.11L137.022 78.109L137.189 88.107L137.355 98.106L137.522 108.104L137.689 118.103L137.856 128.102L138.023 138.1L138.125 144.261L138.113 145.081L138.019 145.903L137.843 146.725L135.557 156.461L135.317 157.48L135.065 158.286L134.734 159.091L134.323 159.895L129.273 168.527L126.733 172.87" />
    <path fill="none" stroke="black" stroke-width="24" stroke-linecap="round" stroke-linejoin="round" transform="matrix(1 0 0 -1 250 325)" d="M-120.383 176.906L-125.718 168.448L-128.172 164.557L-128.637 163.768L-129.024 162.976L-129.33 162.18L-129.558 161.381L-132.167 151.728L-132.444 150.706L-132.594 149.889L-132.663 149.069L-132.83 139.071L-132.996 129.072L-133.163 119.073L-133.33 109.075L-133.497 99.076L-133.664 89.078L-133.83 79.079L-133.997 69.08L-134.164 59.082L-134.331 49.083L-134.497 39.084L-134.664 29.086L-134.831 19.087L-134.998 9.08899L-135.101 2.92801L-135.088 2.10699L-134.994 1.28601L-134.818 0.463013L-134.561 -0.359009L-132.04 -7.84698L-131.709 -8.65201L-131.298 -9.457L-130.807 -10.26L-130.238 -11.061L-129.591 -11.86L-128.865 -12.655L-128.061 -13.448L-127.18 -14.236L-126.223 -15.02L-125.189 -15.799L-117.054 -21.614L-112.371 -24.961L-111.377 -25.655L-110.316 -26.343L-109.188 -27.026L-107.994 -27.703L-106.735 -28.373L-105.413 -29.037L-104.026 -29.693L-102.577 -30.342L-101.066 -30.983L-99.494 -31.615L-97.863 -32.239L-96.172 -32.854L-94.424 -33.459L-92.618 -34.054L-90.757 -34.639L-88.841 -35.213L-86.872 -35.776L-84.85 -36.328L-82.777 -36.869L-80.654 -37.397L-78.483 -37.914L-76.264 -38.417L-74 -38.908L-71.691 -39.386L-69.339 -39.85L-66.945 -40.301L-64.51 -40.737L-62.037 -41.159L-59.526 -41.567L-56.98 -41.96L-54.399 -42.338L-51.786 -42.701L-49.141 -43.048L-46.467 -43.38L-43.764 -43.695L-41.036 -43.995L-38.282 -44.279L-35.506 -44.546L-32.708 -44.796L-29.89 -45.03L-27.055 -45.247L-24.203 -45.447L-21.336 -45.63L-18.457 -45.796L-15.567 -45.944L-12.667 -46.075L-9.75999 -46.189L-6.84599 -46.285L-3.929 -46.363L-1.009 -46.424L1.911 -46.467L4.83099 -46.492L7.74699 -46.5L10.659 -46.489L13.564 -46.461L16.461 -46.416L19.348 -46.353L22.224 -46.272L25.086 -46.173L27.933 -46.057L30.763 -45.923L33.574 -45.773L36.366 -45.604L39.135 -45.419L41.881 -45.216L44.602 -44.997L47.296 -44.761L49.961 -44.508L52.597 -44.238L55.2 -43.952L57.771 -43.65L60.306 -43.332L62.805 -42.998L65.267 -42.648L67.689 -42.283L70.07 -41.903L72.409 -41.508L74.705 -41.098L76.955 -40.674L79.159 -40.235L81.316 -39.783L83.423 -39.316L85.48 -38.837L87.486 -38.344L89.439 -37.838L91.338 -37.32L93.182 -36.79L94.97 -36.248L96.701 -35.694L98.374 -35.129L99.987 -34.553L101.54 -33.967L103.032 -33.37L104.462 -32.764L105.829 -32.148L107.132 -31.523L108.37 -30.889L109.544 -30.247L110.651 -29.597L111.692 -28.94L120.017 -23.399L124.767 -20.238L125.853 -19.496L126.863 -18.747L127.797 -17.991L128.654 -17.228L129.434 -16.459L130.136 -15.685L130.759 -14.905L131.304 -14.12L131.77 -13.331L132.156 -12.538L132.463 -11.742L135.236 -4.332L135.468 -3.517L135.619 -2.70001L135.688 -1.88L135.854 8.11801L136.021 18.117L136.188 28.116L136.355 38.114L136.522 48.113L136.688 58.111L136.855 68.11L137.022 78.109L137.189 88.107L137.355 98.106L137.522 108.104L137.689 118.103L137.856 128.102L138.023 138.1L138.125 144.261L138.113 145.081L138.019 145.903L137.843 146.725L135.557 156.461L135.317 157.48L135.065 158.286L134.734 159.091L134.323 159.895L129.273 168.527L126.733 172.87" />
    <path fill="none" stroke="black" stroke-width="24" stroke-linecap="round" stroke-linejoin="round" transform="matrix(1 0 0 -1 250 325)" d="M125.391 171.13L125.358 170.95L125.149 170.213L124.866 169.479L124.509 168.749L124.08 168.021L123.578 167.298L123.003 166.579L122.356 165.865L121.637 165.156L120.847 164.453L119.987 163.756L119.055 163.066L118.054 162.382L116.984 161.706L115.845 161.038L114.639 160.377L113.365 159.726L112.025 159.083L110.619 158.45L109.149 157.826L107.615 157.213L106.018 156.61L104.359 156.017L102.639 155.436L100.859 154.867L99.02 154.309L97.124 153.764L95.171 153.231L93.162 152.711L91.1 152.205L88.984 151.711L88.635 151.634L86.817 151.232L84.6 150.766L82.333 150.315L80.019 149.879L77.658 149.458L75.253 149.051L72.804 148.66L70.313 148.285L67.782 147.925L65.212 147.582L62.605 147.255L59.962 146.944L57.284 146.65L54.574 146.373L51.833 146.113L49.063 145.87L46.265 145.644L43.441 145.436L40.593 145.245L37.723 145.072L34.832 144.917L31.921 144.78L28.993 144.66L26.05 144.559L23.093 144.476L20.124 144.411L17.145 144.364L14.157 144.335L11.163 144.325L8.164 144.332L5.162 144.358L2.159 144.403L-0.843002 144.465L-3.84399 144.546L-6.839 144.644L-9.82899 144.761L-12.811 144.896L-15.784 145.048L-18.744 145.219L-21.692 145.407L-24.625 145.612L-27.541 145.836L-30.438 146.076L-33.315 146.334L-36.17 146.608L-39.002 146.9L-41.808 147.208L-44.587 147.533L-47.337 147.874L-50.057 148.231L-52.744 148.604L-55.398 148.993L-58.017 149.397L-60.599 149.816L-63.142 150.25L-65.645 150.699L-68.107 151.163L-70.526 151.64L-72.901 152.131L-75.229 152.636L-77.511 153.154L-79.744 153.685L-81.926 154.228L-83.69 154.688L-84.058 154.784L-86.137 155.352L-88.162 155.931L-90.133 156.522L-92.047 157.123L-93.903 157.735L-95.701 158.357L-97.44 158.989L-99.118 159.631L-100.734 160.281L-102.288 160.94L-103.778 161.607L-105.204 162.282L-106.564 162.965L-107.858 163.654L-109.086 164.35L-110.246 165.052L-111.337 165.76L-112.359 166.474L-113.312 167.192L-114.195 167.915L-115.007 168.641L-115.748 169.372L-116.417 170.105L-117.014 170.841L-117.538 171.58L-117.99 172.32L-118.369 173.061L-118.675 173.804L-118.907 174.547L-119.008 175.019" />
    <path fill="none" stroke="black" stroke-width="24" stroke-linecap="round" stroke-linejoin="round" transform="matrix(1 0 0 -1 250 325)" d="M88.635 151.634L89.479 151.856L92.67 152.782L94.787 153.413L97.869 154.398L100.759 155.419L103.453 156.474L105.944 157.561L108.198 158.587L110.532 159.728L112.65 160.897L114.845 162.254L116.779 163.472L118.485 164.715L120.562 166.381L122.062 167.667L123.949 169.594L125.229 170.919L125.391 171.13L126.263 172.261L126.733 172.87L127.941 174.437L129.351 176.795L130.157 178.184L131.291 180.705L131.846 182.118L132.683 184.764L132.982 186.194L133.508 188.926L133.715 191.7L133.753 193.143L133.638 195.923L133.413 197.367L132.979 200.11L132.23 202.784L131.748 204.214L130.699 206.773L129.965 208.189L128.633 210.594L127.656 211.988L126.064 214.203L124.854 215.571L123.03 217.562L121.598 218.898L119.575 220.635L117.935 221.935L116.065 223.219L113.913 224.651L111.857 225.892L109.584 227.113L107.361 228.215L104.927 229.387L102.291 230.534L99.456 231.654L96.428 232.744L94.325 233.449L91.185 234.483L87.869 235.484L84.383 236.451L80.736 237.38L76.934 238.271L72.984 239.121L68.895 239.928L64.676 240.692L60.334 241.41L55.878 242.081L54.623 242.265L50.173 242.873L45.631 243.432L41.004 243.941L36.303 244.401L31.536 244.808L26.714 245.163L21.845 245.466L16.941 245.715L12.01 245.909L7.063 246.049L2.10899 246.135L-2.841 246.165L-7.77699 246.141L-12.69 246.061L-17.57 245.927L-22.407 245.738L-27.19 245.495L-31.911 245.198L-36.56 244.849L-41.127 244.447L-45.604 243.993L-46.853 243.851L-51.34 243.335L-55.715 242.767L-59.971 242.149L-64.097 241.484L-68.087 240.771L-71.932 240.012L-75.624 239.209L-79.157 238.364L-82.522 237.477L-85.713 236.552L-87.83 235.921L-90.912 234.936L-93.802 233.915L-96.496 232.859L-98.987 231.772L-101.241 230.747L-103.575 229.606L-105.693 228.437L-107.887 227.08L-109.822 225.861L-111.528 224.619L-113.605 222.953L-115.105 221.667L-116.992 219.74L-118.272 218.415L-119.306 217.073L-120.983 214.896L-122.394 212.539L-123.2 211.15L-124.334 208.629L-124.889 207.216L-125.726 204.57L-126.024 203.14L-126.551 200.408L-126.758 197.634L-126.795 196.191L-126.681 193.411L-126.456 191.967L-126.022 189.224L-125.273 186.55L-124.791 185.119L-123.742 182.561L-123.008 181.145L-121.676 178.74L-120.699 177.345L-120.383 176.906L-119.107 175.131L-119.008 175.019L-117.897 173.763L-116.073 171.772L-114.641 170.435L-112.618 168.698L-110.978 167.399L-109.108 166.115L-106.956 164.682L-104.9 163.441L-102.627 162.221L-100.404 161.118L-97.97 159.947L-95.334 158.799L-92.499 157.68L-89.471 156.589L-87.368 155.885L-84.228 154.851L-83.69 154.688" />
    <path fill="none" stroke="black" stroke-width="24" stroke-linecap="round" stroke-linejoin="round" transform="matrix(1 0 0 -1 250 325)" d="M-10.624 194.903L-7.381 194.955L-2.95399 194.977L1.485 194.95L5.92799 194.873L10.364 194.747L14.786 194.573L17.581 194.431" />
    <path fill="none" stroke="black" stroke-width="24" stroke-linecap="round" stroke-linejoin="round" transform="matrix(1 0 0 -1 250 325)" d="M120.562 166.381L118.826 165.117L116.857 163.877L114.659 162.663L112.237 161.479L109.595 160.326L106.738 159.207L103.673 158.125L100.406 157.08L96.943 156.076L93.291 155.114L89.457 154.197L85.45 153.325L81.277 152.502L76.947 151.728L72.469 151.005L67.851 150.335L63.102 149.719L58.233 149.158L53.253 148.654L48.173 148.207L43.001 147.818L37.75 147.488L32.429 147.217L27.049 147.007L21.621 146.858L16.156 146.769L10.664 146.742L5.158 146.776L-0.352005 146.871L-5.856 147.027L-11.341 147.243L-16.796 147.52L-22.212 147.856L-27.576 148.252L-32.878 148.705L-38.108 149.216L-43.255 149.783L-48.308 150.405L-53.257 151.08L-58.093 151.808L-62.805 152.588L-67.385 153.416L-71.822 154.293L-76.108 155.215L-80.235 156.181L-84.193 157.19L-87.976 158.239L-91.575 159.325L-94.983 160.448L-98.193 161.604L-101.2 162.792L-103.996 164.008L-106.576 165.251L-108.935 166.518L-111.069 167.806L-112.972 169.112L-114.641 170.435" />
    <path fill="none" stroke="black" stroke-width="24" stroke-linecap="round" stroke-linejoin="round" transform="matrix(1 0 0 -1 250 325)" d="M-41.351 197.817L-44.157 198.24L-47.85 198.85L-51.439 199.5L-54.916 200.186L-58.276 200.909L-60.409 201.409L-61.51 201.667L-64.612 202.457L-66.954 203.106L-67.577 203.279L-70.397 204.131L-71.355 204.446L-73.068 205.011" />
    <path fill="none" stroke="black" stroke-width="24" stroke-linecap="round" stroke-linejoin="round" transform="matrix(1 0 0 -1 250 325)" d="M48.26 196.305L48.124 196.291L44.246 195.898L40.15 195.537L35.981 195.224L31.747 194.958L27.457 194.74L23.12 194.57L18.744 194.45L17.581 194.431L14.338 194.379L9.911 194.357L5.472 194.384L1.02901 194.461L-3.407 194.586L-7.82899 194.761L-10.624 194.903L-12.227 194.984L-16.593 195.255L-20.918 195.574L-25.193 195.939L-29.409 196.351L-33.558 196.808L-37.632 197.309L-41.351 197.817L-41.622 197.854" />
    <path fill="none" stroke="black" stroke-width="24" stroke-linecap="round" stroke-linejoin="round" transform="matrix(1 0 0 -1 250 325)" d="M80.063 202.371L78.543 201.93L77.349 201.584L74.486 200.83L74.165 200.753L71.482 200.111L68.342 199.428L67.605 199.283L65.071 198.783L61.678 198.177L58.168 197.61L54.548 197.085L50.827 196.602L48.124 196.291" />
  </g>
</svg>