<?xml version='1.0' encoding='utf-8'?>
<svg xmlns="http://www.w3.org/2000/svg" version="1.1" width="500" height="650" viewBox="0 0 500 650">
  <g>
    <path fill="none" stroke="none" transform="matrix(1 0 0 -1 250 325)" d="M-126.785 -33.563L-126.991 -33.87L-127.898 -35.221L-128.729 -36.582L-129.481 -37.951L-130.156 -39.327L-130.752 -40.711L-131.269 -42.1L-131.708 -43.494L-134.338 -53.142L-134.398 -53.363L-134.765 -54.79L-135.05 -56.22L-135.254 -57.653L-135.376 -59.088L-135.417 -60.524L-135.417 -70.524L-135.417 -80.524L-135.417 -90.524L-135.417 -100.524L-135.417 -110.524L-135.417 -120.524L-135.417 -130.524L-135.417 -140.524L-135.417 -150.524L-135.417 -160.524L-135.417 -170.524L-135.417 -180.524L-135.417 -190.524L-135.417 -196.552L-135.376 -197.988L-135.254 -199.423L-135.05 -200.856L-134.765 -202.287L-134.398 -203.714L-133.951 -205.136L-133.423 -206.554L-130.805 -213.344L-130.209 -214.728L-129.534 -216.105L-128.781 -217.474L-127.951 -218.836L-127.043 -220.188L-126.059 -221.529L-124.999 -222.861L-123.864 -224.18L-122.654 -225.487L-121.37 -226.781L-120.013 -228.061L-118.584 -229.326L-117.084 -230.575L-115.512 -231.808L-113.872 -233.024L-112.162 -234.223L-110.386 -235.403L-108.542 -236.563L-106.634 -237.704L-104.661 -238.825L-102.625 -239.924L-93.78 -244.59L-91.993 -245.533L-90.113 -246.498L-88.178 -247.443L-86.19 -248.368L-84.151 -249.271L-82.06 -250.152L-79.92 -251.011L-77.732 -251.847L-75.497 -252.659L-73.217 -253.448L-70.892 -254.212L-68.525 -254.951L-66.117 -255.665L-63.668 -256.353L-61.182 -257.015L-58.658 -257.65L-56.099 -258.259L-53.507 -258.84L-50.882 -259.393L-48.227 -259.919L-45.542 -260.416L-42.83 -260.884L-40.092 -261.324L-37.33 -261.734L-34.546 -262.115L-31.741 -262.467L-28.916 -262.789L-26.075 -263.08L-23.217 -263.341L-20.346 -263.572L-17.462 -263.773L-14.568 -263.943L-11.665 -264.082L-8.755 -264.19L-5.839 -264.267L-2.92101 -264.314L0 -264.329L2.92101 -264.314L5.839 -264.267L8.755 -264.19L11.665 -264.082L14.568 -263.943L17.462 -263.773L20.346 -263.572L23.217 -263.341L26.074 -263.08L28.916 -262.789L31.741 -262.467L34.546 -262.115L37.33 -261.734L40.092 -261.324L42.83 -260.884L45.542 -260.416L48.226 -259.919L50.882 -259.393L53.507 -258.84L56.099 -258.259L58.658 -257.65L61.182 -257.015L63.668 -256.353L66.117 -255.665L68.525 -254.951L70.892 -254.212L73.217 -253.448L75.497 -252.659L77.732 -251.847L79.92 -251.011L82.06 -250.152L84.15 -249.271L86.19 -248.368L88.178 -247.443L90.113 -246.498L91.993 -245.533L100.838 -240.866L102.625 -239.924L104.66 -238.825L106.633 -237.704L108.542 -236.563L110.386 -235.403L112.162 -234.223L113.872 -233.024L115.512 -231.808L117.083 -230.575L118.584 -229.326L120.013 -228.061L121.37 -226.781L122.654 -225.487L123.864 -224.18L124.999 -222.861L126.059 -221.529L127.043 -220.188L127.95 -218.836L128.781 -217.474L129.534 -216.105L130.209 -214.728L130.805 -213.344L133.423 -206.554L133.951 -205.136L134.398 -203.714L134.765 -202.287L135.05 -200.856L135.254 -199.423L135.376 -197.988L135.417 -196.552L135.417 -186.552L135.417 -176.552L135.417 -166.552L135.417 -156.552L135.417 -146.552L135.417 -136.552L135.417 -126.552L135.417 -116.552L135.417 -106.552L135.417 -96.552L135.417 -86.552L135.417 -76.552L135.417 -66.552L135.417 -60.524L135.376 -59.088L135.254 -57.653L135.05 -56.22L134.765 -54.79L134.398 -53.363L131.768 -43.715L131.707 -43.494L131.269 -42.1L130.752 -40.711L130.156 -39.327L129.481 -37.951L128.728 -36.582L127.898 -35.221L126.991 -33.87L126.721 -33.468" />
    <path fill="none" stroke="black" stroke-width="24" stroke-linecap="round" stroke-linejoin="round" transform="matrix(1 0 0 -1 250 325)" d="M-126.785 -33.563L-126.991 -33.87L-127.898 -35.221L-128.729 -36.582L-129.481 -37.951L-130.156 -39.327L-130.752 -40.711L-131.269 -42.1L-131.708 -43.494L-134.338 -53.142L-134.398 -53.363L-134.765 -54.79L-135.05 -56.22L-135.254 -57.653L-135.376 -59.088L-135.417 -60.524L-135.417 -70.524L-135.417 -80.524L-135.417 -90.524L-135.417 -100.524L-135.417 -110.524L-135.417 -120.524L-135.417 -130.524L-135.417 -140.524L-135.417 -150.524L-135.417 -160.524L-135.417 -170.524L-135.417 -180.524L-135.417 -190.524L-135.417 -196.552L-135.376 -197.988L-135.254 -199.423L-135.05 -200.856L-134.765 -202.287L-134.398 -203.714L-133.951 -205.136L-133.423 -206.554L-130.805 -213.344L-130.209 -214.728L-129.534 -216.105L-128.781 -217.474L-127.951 -218.836L-127.043 -220.188L-126.059 -221.529L-124.999 -222.861L-123.864 -224.18L-122.654 -225.487L-121.37 -226.781L-120.013 -228.061L-118.584 -229.326L-117.084 -230.575L-115.512 -231.808L-113.872 -233.024L-112.162 -234.223L-110.386 -235.403L-108.542 -236.563L-106.634 -237.704L-104.661 -238.825L-102.625 -239.924L-93.78 -244.59L-91.993 -245.533L-90.113 -246.498L-88.178 -247.443L-86.19 -248.368L-84.151 -249.271L-82.06 -250.152L-79.92 -251.011L-77.732 -251.847L-75.497 -252.659L-73.217 -253.448L-70.892 -254.212L-68.525 -254.951L-66.117 -255.665L-63.668 -256.353L-61.182 -257.015L-58.658 -257.65L-56.099 -258.259L-53.507 -258.84L-50.882 -259.393L-48.227 -259.919L-45.542 -260.416L-42.83 -260.884L-40.092 -261.324L-37.33 -261.734L-34.546 -262.115L-31.741 -262.467L-28.916 -262.789L-26.075 -263.08L-23.217 -263.341L-20.346 -263.572L-17.462 -263.773L-14.568 -263.943L-11.665 -264.082L-8.755 -264.19L-5.839 -264.267L-2.92101 -264.314L0 -264.329L2.92101 -264.314L5.839 -264.267L8.755 -264.19L11.665 -264.082L14.568 -263.943L17.462 -263.773L20.346 -263.572L23.217 -263.341L26.074 -263.08L28.916 -262.789L31.741 -262.467L34.546 -262.115L37.33 -261.734L40.092 -261.324L42.83 -260.884L45.542 -260.416L48.226 -259.919L50.882 -259.393L53.507 -258.84L56.099 -258.259L58.658 -257.65L61.182 -257.015L63.668 -256.353L66.117 -255.665L68.525 -254.951L70.892 -254.212L73.217 -253.448L75.497 -252.659L77.732 -251.847L79.92 -251.011L82.06 -250.152L84.15 -249.271L86.19 -248.368L88.178 -247.443L90.113 -246.498L91.993 -245.533L100.838 -240.866L102.625 -239.924L104.66 -238.825L106.633 -237.704L108.542 -236.563L110.386 -235.403L112.162 -234.223L113.872 -233.024L115.512 -231.808L117.083 -230.575L118.584 -229.326L120.013 -228.061L121.37 -226.781L122.654 -225.487L123.864 -224.18L124.999 -222.861L126.059 -221.529L127.043 -220.188L127.95 -218.836L128.781 -217.474L129.534 -216.105L130.209 -214.728L130.805 -213.344L133.423 -206.554L133.951 -205.136L134.398 -203.714L134.765 -202.287L135.05 -200.856L135.254 -199.423L135.376 -197.988L135.417 -196.552L135.417 -186.552L135.417 -176.552L135.417 -166.552L135.417 -156.552L135.417 -146.552L135.417 -136.552L135.417 -126.552L135.417 -116.552L135.417 -106.552L135.417 -96.552L135.417 -86.552L135.417 -76.552L135.417 -66.552L135.417 -60.524L135.376 -59.088L135.254 -57.653L135.05 -56.22L134.765 -54.79L134.398 -53.363L131.768 -43.715L131.707 -43.494L131.269 -42.1L130.752 -40.711L130.156 -39.327L129.481 -37.951L128.728 -36.582L127.898 -35.221L126.991 -33.87L126.721 -33.468" />
    <path fill="none" stroke="black" stroke-width="24" stroke-linecap="round" stroke-linejoin="round" transform="matrix(1 0 0 -1 250 325)" d="M119.64 -45.628L119.406 -46.104L118.712 -47.367L117.947 -48.621L117.11 -49.867L116.203 -51.104L115.226 -52.332L114.18 -53.548L113.064 -54.753L111.881 -55.945L110.63 -57.125L109.313 -58.291L107.929 -59.443L106.481 -60.58L104.969 -61.701L103.393 -62.805L101.755 -63.893L100.056 -64.963L98.296 -66.015L96.478 -67.047L94.601 -68.06L92.667 -69.053L90.677 -70.025L88.633 -70.976L86.536 -71.905L84.386 -72.811L82.185 -73.694L79.935 -74.554L77.637 -75.389L75.292 -76.2L72.902 -76.986L70.467 -77.746L67.991 -78.48L65.473 -79.187L62.916 -79.868L60.321 -80.521L57.689 -81.147L55.023 -81.745L52.324 -82.314L49.593 -82.854L46.833 -83.365L44.044 -83.847L41.229 -84.299L38.388 -84.722L35.525 -85.113L32.64 -85.475L29.736 -85.806L26.814 -86.105L23.875 -86.374L20.922 -86.612L17.957 -86.818L14.981 -86.992L11.995 -87.135L9.00301 -87.247L6.005 -87.326L3.00301 -87.374L0 -87.39L-3.00301 -87.374L-6.005 -87.326L-9.00301 -87.247L-11.995 -87.135L-14.981 -86.992L-17.957 -86.818L-20.922 -86.612L-23.875 -86.374L-26.814 -86.105L-29.736 -85.806L-32.64 -85.475L-35.525 -85.113L-38.388 -84.722L-41.229 -84.299L-44.044 -83.847L-46.833 -83.365L-49.593 -82.854L-52.324 -82.314L-55.023 -81.745L-57.69 -81.147L-60.321 -80.521L-62.916 -79.868L-65.473 -79.187L-67.991 -78.48L-70.467 -77.746L-72.902 -76.986L-75.292 -76.2L-77.637 -75.389L-79.935 -74.554L-82.185 -73.694L-84.386 -72.811L-86.536 -71.905L-88.633 -70.976L-90.678 -70.025L-92.667 -69.053L-94.601 -68.06L-96.478 -67.047L-98.296 -66.015L-100.056 -64.963L-101.755 -63.893L-103.393 -62.805L-104.969 -61.701L-106.481 -60.58L-107.929 -59.443L-109.313 -58.291L-110.63 -57.125L-111.881 -55.945L-113.064 -54.753L-114.18 -53.548L-115.226 -52.332L-116.203 -51.104L-117.11 -49.867L-117.947 -48.621L-118.712 -47.367L-119.406 -46.104L-119.475 -45.963" />
    <path fill="none" stroke="black" stroke-width="24" stroke-linecap="round" stroke-linejoin="round" transform="matrix(1 0 0 -1 250 325)" d="M-0.0540009 54.989L-5.25 54.938L-10.435 54.787L-15.6 54.536L-20.733 54.185L-25.824 53.734L-30.864 53.186L-35.842 52.54L-40.747 51.798L-45.571 50.962L-50.303 50.034L-54.934 49.014L-59.454 47.906L-60.743 47.586L-65.239 46.366L-69.604 45.059L-73.828 43.669L-77.905 42.199L-81.824 40.652L-85.579 39.03L-87.271 38.23L-90.925 36.504L-94.395 34.708L-97.675 32.846L-100.759 30.923L-102.546 29.708L-105.478 27.692L-108.198 25.621L-110.7 23.5L-112.424 21.927L-114.739 19.726L-116.822 17.482L-118.378 15.622L-120.251 13.309L-121.882 10.963L-123.221 8.85599L-124.622 6.45401L-125.772 4.02701L-126.854 1.72L-127.758 -0.747986L-128.546 -3.19L-129.198 -5.68799L-129.677 -8.22299L-130.069 -10.74L-130.23 -13.322L-130.362 -15.848L-130.23 -18.374L-130.069 -20.956L-129.677 -23.473L-129.198 -26.008L-128.546 -28.506L-127.758 -30.948L-126.854 -33.416L-126.785 -33.563L-125.772 -35.723L-124.622 -38.15L-123.221 -40.552L-121.882 -42.659L-120.251 -45.005L-119.475 -45.963L-118.378 -47.318L-116.822 -49.178L-114.739 -51.422L-112.424 -53.623L-110.7 -55.195L-108.198 -57.317L-105.478 -59.388L-102.546 -61.404L-100.759 -62.619L-97.675 -64.542L-94.395 -66.404L-90.925 -68.199L-87.271 -69.926L-85.579 -70.725L-81.824 -72.348L-77.905 -73.895L-73.828 -75.365L-69.604 -76.755L-65.239 -78.061L-60.743 -79.282L-59.454 -79.602L-54.934 -80.71L-50.303 -81.73L-45.571 -82.658L-40.747 -83.494L-35.842 -84.236L-30.864 -84.881L-25.824 -85.43L-20.733 -85.88L-15.6 -86.232L-10.435 -86.483L-5.25 -86.634L-0.0540009 -86.684L5.142 -86.634L10.328 -86.483L15.492 -86.232L20.625 -85.88L25.717 -85.43L30.757 -84.881L35.734 -84.236L40.64 -83.494L45.463 -82.658L50.195 -81.73L54.826 -80.71L59.346 -79.602L60.635 -79.282L65.131 -78.061L69.496 -76.755L73.721 -75.365L77.797 -73.895L81.717 -72.348L85.471 -70.725L87.164 -69.926L90.817 -68.199L94.288 -66.404L97.568 -64.542L100.652 -62.619L102.439 -61.404L105.371 -59.388L108.091 -57.317L110.593 -55.195L112.316 -53.623L114.631 -51.422L116.715 -49.178L118.271 -47.318L119.64 -45.628L120.144 -45.005L121.775 -42.659L123.114 -40.552L124.515 -38.15L125.665 -35.723L126.721 -33.468L126.746 -33.416L127.651 -30.948L128.439 -28.506L129.09 -26.008L129.569 -23.473L129.962 -20.956L130.123 -18.374L130.254 -15.848L130.123 -13.322L129.962 -10.74L129.569 -8.22299L129.09 -5.68799L128.439 -3.19L127.651 -0.747986L126.746 1.72L125.665 4.02701L124.515 6.45401L123.114 8.85599L121.775 10.963L120.144 13.31L118.271 15.622L116.715 17.482L114.631 19.726L112.316 21.927L110.593 23.5L108.091 25.621L105.371 27.692L102.439 29.708L100.652 30.923L97.568 32.846L94.288 34.708L90.817 36.504L87.164 38.23L85.471 39.03L81.717 40.652L77.797 42.199L73.721 43.669L69.496 45.059L65.131 46.366L60.635 47.586L59.346 47.906L54.826 49.014L50.195 50.034L45.463 50.962L40.64 51.798L35.734 52.54L30.757 53.186L25.717 53.734L20.625 54.185L15.492 54.536L10.328 54.787L5.142 54.938L-0.0540009 54.989" />
    <path fill="none" stroke="black" stroke-width="24" stroke-linecap="round" stroke-linejoin="round" transform="matrix(1 0 0 -1 250 325)" d="M-79.405 -14.089L-79.431 -14.045L-79.46 -13.995L-79.569 -13.808L-79.645 -13.678L-80.38 -12.128" />
    <path fill="none" stroke="black" stroke-width="24" stroke-linecap="round" stroke-linejoin="round" transform="matrix(1 0 0 -1 250 325)" d="M-78.956 -14.722L-79.017 -14.648L-79.089 -14.544L-79.091 -14.541L-79.399 -14.098L-79.405 -14.089L-79.429 -14.055L-79.448 -14.027L-79.542 -13.893L-79.576 -13.844L-80.088 -13.106" />
    <path fill="none" stroke="black" stroke-width="24" stroke-linecap="round" stroke-linejoin="round" transform="matrix(1 0 0 -1 250 325)" d="M-77.428 -16.306L-77.909 -15.848L-77.926 -15.832L-77.936 -15.821L-77.941 -15.816L-77.983 -15.771L-77.986 -15.768L-78.956 -14.722L-79.091 -14.578L-79.093 -14.575L-79.17 -14.493L-79.289 -14.364L-79.341 -14.308" />
    <path fill="none" stroke="black" stroke-width="24" stroke-linecap="round" stroke-linejoin="round" transform="matrix(1 0 0 -1 250 325)" d="M-73.922 -19.036L-74.396 -18.711L-76.314 -17.25L-77.428 -16.306L-77.936 -15.875L-77.968 -15.848L-77.972 -15.845L-78.014 -15.809L-78.018 -15.806L-78.078 -15.754" />
    <path fill="none" stroke="black" stroke-width="24" stroke-linecap="round" stroke-linejoin="round" transform="matrix(1 0 0 -1 250 325)" d="M-65.877 -23.495L-66.882 -23.02L-69.434 -21.699L-71.847 -20.33L-73.922 -19.036L-74.115 -18.916" />
    <path fill="none" stroke="black" stroke-width="24" stroke-linecap="round" stroke-linejoin="round" transform="matrix(1 0 0 -1 250 325)" d="M102.439 -61.404L99.3 -63.361L95.962 -65.255L92.43 -67.083L88.711 -68.84L84.814 -70.524L80.746 -72.13L76.516 -73.656L72.131 -75.098L67.601 -76.454L62.934 -77.721L58.141 -78.896L53.231 -79.977L48.213 -80.961L43.098 -81.848L37.896 -82.634L32.618 -83.319L27.274 -83.9L21.874 -84.378L16.431 -84.75L10.955 -85.017L5.45599 -85.177L-0.0540009 -85.231L-5.563 -85.177L-11.062 -85.017L-16.539 -84.75L-21.982 -84.378L-27.381 -83.9L-32.725 -83.319L-38.003 -82.634L-43.205 -81.848L-48.32 -80.961L-53.338 -79.977L-58.249 -78.896L-63.042 -77.721L-67.708 -76.454L-72.238 -75.098L-76.623 -73.656L-80.854 -72.13L-84.922 -70.524L-88.819 -68.84L-92.537 -67.083L-96.069 -65.255L-99.408 -63.361L-102.546 -61.404" />
    <path fill="none" stroke="black" stroke-width="24" stroke-linecap="round" stroke-linejoin="round" transform="matrix(1 0 0 -1 250 325)" d="M-46.954 -30.027L-50.231 -29.137L-53.591 -28.132L-56.843 -27.062L-59.981 -25.93L-62.998 -24.739L-65.877 -23.495L-65.888 -23.49" />
    <path fill="none" stroke="black" stroke-width="24" stroke-linecap="round" stroke-linejoin="round" transform="matrix(1 0 0 -1 250 325)" d="M47.951 -29.756L46.846 -30.027L44.298 -30.652L40.556 -31.475L36.732 -32.226L32.833 -32.901L28.869 -33.501L24.846 -34.023L20.773 -34.466L16.658 -34.83L12.51 -35.114L8.336 -35.317L4.145 -35.439L-0.0540009 -35.48L-4.25301 -35.439L-8.444 -35.317L-12.617 -35.114L-16.766 -34.83L-20.881 -34.466L-24.954 -34.023L-28.976 -33.501L-32.941 -32.901L-36.839 -32.226L-40.663 -31.475L-44.406 -30.652L-46.954 -30.027L-48.059 -29.756" />
    <path fill="none" stroke="black" stroke-width="24" stroke-linecap="round" stroke-linejoin="round" transform="matrix(1 0 0 -1 250 325)" d="M65.78 -23.49L65.77 -23.495L62.89 -24.739L59.873 -25.93L56.735 -27.062L53.483 -28.132L50.123 -29.137L46.846 -30.027" />
    <path fill="none" stroke="black" stroke-width="24" stroke-linecap="round" stroke-linejoin="round" transform="matrix(1 0 0 -1 250 325)" d="M74.007 -18.916L73.815 -19.036L71.74 -20.33L69.327 -21.699L66.775 -23.02L65.77 -23.495" />
    <path fill="none" stroke="black" stroke-width="24" stroke-linecap="round" stroke-linejoin="round" transform="matrix(1 0 0 -1 250 325)" d="M77.971 -15.754L77.91 -15.806L77.906 -15.809L77.865 -15.845L77.861 -15.848L77.829 -15.875L77.321 -16.306L76.207 -17.25L74.289 -18.711L73.815 -19.036" />
    <path fill="none" stroke="black" stroke-width="24" stroke-linecap="round" stroke-linejoin="round" transform="matrix(1 0 0 -1 250 325)" d="M79.234 -14.308L79.181 -14.364L79.062 -14.493L78.986 -14.575L78.983 -14.578L78.849 -14.722L77.879 -15.768L77.875 -15.771L77.833 -15.816L77.829 -15.821L77.819 -15.832L77.802 -15.848L77.321 -16.306" />
    <path fill="none" stroke="black" stroke-width="24" stroke-linecap="round" stroke-linejoin="round" transform="matrix(1 0 0 -1 250 325)" d="M79.981 -13.106L79.468 -13.844L79.434 -13.893L79.341 -14.027L79.321 -14.055L79.298 -14.089L79.292 -14.098L78.984 -14.541L78.981 -14.544L78.909 -14.648L78.849 -14.722" />
    <path fill="none" stroke="black" stroke-width="24" stroke-linecap="round" stroke-linejoin="round" transform="matrix(1 0 0 -1 250 325)" d="M80.272 -12.128L79.537 -13.678L79.462 -13.808L79.353 -13.995L79.323 -14.045L79.298 -14.089" />
    <path fill="none" stroke="black" stroke-width="24" stroke-linecap="round" stroke-linejoin="round" transform="matrix(1 0 0 -1 250 325)" d="M79.757 -12.893L79.353 -13.995" />
    <path fill="none" stroke="black" stroke-width="24" stroke-linecap="round" stroke-linejoin="round" transform="matrix(1 0 0 -1 250 325)" d="M79.37 -13.798L79.292 -14.098" />
    <path fill="none" stroke="black" stroke-width="24" stroke-linecap="round" stroke-linejoin="round" transform="matrix(1 0 0 -1 250 325)" d="M78.969 -14.315L78.981 -14.544" />
    <path fill="none" stroke="black" stroke-width="24" stroke-linecap="round" stroke-linejoin="round" transform="matrix(1 0 0 -1 250 325)" d="M77.679 -15.529L77.875 -15.771" />
    <path fill="none" stroke="black" stroke-width="24" stroke-linecap="round" stroke-linejoin="round" transform="matrix(1 0 0 -1 250 325)" d="M-79.46 -13.995L-79.864 -12.893" />
    <path fill="none" stroke="black" stroke-width="24" stroke-linecap="round" stroke-linejoin="round" transform="matrix(1 0 0 -1 250 325)" d="M-79.089 -14.544L-79.077 -14.315" />
    <path fill="none" stroke="black" stroke-width="24" stroke-linecap="round" stroke-linejoin="round" transform="matrix(1 0 0 -1 250 325)" d="M-79.399 -14.098L-79.477 -13.798" />
    <path fill="none" stroke="black" stroke-width="24" stroke-linecap="round" stroke-linejoin="round" transform="matrix(1 0 0 -1 250 325)" d="M-77.983 -15.771L-77.786 -15.529" />
  </g>
</svg>