<?xml version='1.0' encoding='utf-8'?>
<svg xmlns="http://www.w3.org/2000/svg" version="1.1" width="500" height="650" viewBox="0 0 500 650">
  <g>
    <path fill="none" stroke="none" transform="matrix(1 0 0 -1 250 325)" d="M-111.682 188.573L-117.256 180.27L-120.113 176.014L-120.591 175.281L-120.989 174.543L-121.308 173.799L-121.547 173.049L-124.442 163.478L-124.76 162.427L-124.923 161.658L-125.004 160.884L-125.476 150.895L-125.948 140.906L-126.42 130.918L-126.892 120.929L-127.364 110.94L-127.836 100.951L-128.308 90.962L-128.779 80.973L-129.251 70.984L-129.723 60.996L-130.195 51.007L-130.667 41.018L-131.139 31.029L-131.611 21.04L-131.925 14.395L-131.925 13.617L-131.843 12.836L-131.68 12.052L-129.387 4.44901L-129.147 3.67801L-128.828 2.905L-128.43 2.13L-127.952 1.35501L-127.396 0.57901L-126.76 -0.196991L-126.047 -0.972992L-125.256 -1.74701L-124.388 -2.521L-123.443 -3.29199L-115.519 -9.392L-110.824 -13.005L-109.908 -13.695L-108.925 -14.382L-107.875 -15.066L-106.759 -15.747L-105.576 -16.425L-104.329 -17.098L-103.017 -17.767L-101.642 -18.431L-100.203 -19.09L-98.703 -19.743L-97.142 -20.39L-95.521 -21.031L-93.841 -21.665L-92.103 -22.291L-90.308 -22.91L-88.457 -23.521L-86.551 -24.123L-84.592 -24.717L-82.58 -25.302L-80.517 -25.877L-78.404 -26.443L-76.242 -26.998L-74.032 -27.543L-71.777 -28.077L-69.477 -28.6L-67.133 -29.112L-64.748 -29.612L-62.322 -30.1L-59.857 -30.576L-57.354 -31.039L-54.815 -31.489L-52.242 -31.926L-49.636 -32.35L-46.998 -32.76L-44.331 -33.156L-41.635 -33.538L-38.913 -33.905L-36.166 -34.258L-33.396 -34.596L-30.603 -34.919L-27.791 -35.227L-24.961 -35.519L-22.114 -35.796L-19.253 -36.057L-16.378 -36.302L-13.492 -36.532L-10.596 -36.745L-7.692 -36.941L-4.782 -37.121L-1.868 -37.285L1.049 -37.432L3.966 -37.562L6.883 -37.676L9.797 -37.772L12.707 -37.852L15.611 -37.915L18.507 -37.961L21.393 -37.989L24.267 -38.001L27.129 -37.995L29.976 -37.973L32.806 -37.933L35.618 -37.876L38.41 -37.803L41.181 -37.712L43.928 -37.604L46.65 -37.48L49.346 -37.339L52.013 -37.181L54.651 -37.007L57.257 -36.816L59.83 -36.609L62.369 -36.385L64.871 -36.146L67.336 -35.89L69.762 -35.619L72.148 -35.332L74.491 -35.03L76.791 -34.712L79.047 -34.379L81.256 -34.031L83.418 -33.669L85.531 -33.292L87.594 -32.901L89.606 -32.496L91.565 -32.077L93.471 -31.645L95.322 -31.2L97.117 -30.741L98.855 -30.27L100.535 -29.786L102.156 -29.29L103.717 -28.783L105.217 -28.264L106.655 -27.733L108.031 -27.192L109.342 -26.64L110.59 -26.078L111.772 -25.506L112.889 -24.925L113.939 -24.334L114.922 -23.735L123.386 -18.41L128.39 -15.262L129.411 -14.584L130.356 -13.897L131.224 -13.201L132.015 -12.497L132.728 -11.785L133.363 -11.066L133.919 -10.339L134.397 -9.60699L134.795 -8.86801L135.114 -8.12299L138.114 -0.770996L138.358 -0.00698853L138.521 0.761993L138.603 1.53601L139.075 11.525L139.547 21.514L140.019 31.503L140.49 41.492L140.962 51.48L141.434 61.469L141.906 71.458L142.378 81.447L142.85 91.436L143.322 101.425L143.794 111.414L144.266 121.402L144.738 131.391L145.21 141.38L145.524 148.026L145.524 148.803L145.442 149.584L143.463 159.386L143.245 160.464L143.085 161.232L142.846 162.002L142.527 162.775L142.129 163.549L137.363 172.34L134.831 177.01" />
    <path fill="none" stroke="black" stroke-width="24" stroke-linecap="round" stroke-linejoin="round" transform="matrix(1 0 0 -1 250 325)" d="M-111.682 188.573L-117.256 180.27L-120.113 176.014L-120.591 175.281L-120.989 174.543L-121.308 173.799L-121.547 173.049L-124.442 163.478L-124.76 162.427L-124.923 161.658L-125.004 160.884L-125.476 150.895L-125.948 140.906L-126.42 130.918L-126.892 120.929L-127.364 110.94L-127.836 100.951L-128.308 90.962L-128.779 80.973L-129.251 70.984L-129.723 60.996L-130.195 51.007L-130.667 41.018L-131.139 31.029L-131.611 21.04L-131.925 14.395L-131.925 13.617L-131.843 12.836L-131.68 12.052L-129.387 4.44901L-129.147 3.67801L-128.828 2.905L-128.43 2.13L-127.952 1.35501L-127.396 0.57901L-126.76 -0.196991L-126.047 -0.972992L-125.256 -1.74701L-124.388 -2.521L-123.443 -3.29199L-115.519 -9.392L-110.824 -13.005L-109.908 -13.695L-108.925 -14.382L-107.875 -15.066L-106.759 -15.747L-105.576 -16.425L-104.329 -17.098L-103.017 -17.767L-101.642 -18.431L-100.203 -19.09L-98.703 -19.743L-97.142 -20.39L-95.521 -21.031L-93.841 -21.665L-92.103 -22.291L-90.308 -22.91L-88.457 -23.521L-86.551 -24.123L-84.592 -24.717L-82.58 -25.302L-80.517 -25.877L-78.404 -26.443L-76.242 -26.998L-74.032 -27.543L-71.777 -28.077L-69.477 -28.6L-67.133 -29.112L-64.748 -29.612L-62.322 -30.1L-59.857 -30.576L-57.354 -31.039L-54.815 -31.489L-52.242 -31.926L-49.636 -32.35L-46.998 -32.76L-44.331 -33.156L-41.635 -33.538L-38.913 -33.905L-36.166 -34.258L-33.396 -34.596L-30.603 -34.919L-27.791 -35.227L-24.961 -35.519L-22.114 -35.796L-19.253 -36.057L-16.378 -36.302L-13.492 -36.532L-10.596 -36.745L-7.692 -36.941L-4.782 -37.121L-1.868 -37.285L1.049 -37.432L3.966 -37.562L6.883 -37.676L9.797 -37.772L12.707 -37.852L15.611 -37.915L18.507 -37.961L21.393 -37.989L24.267 -38.001L27.129 -37.995L29.976 -37.973L32.806 -37.933L35.618 -37.876L38.41 -37.803L41.181 -37.712L43.928 -37.604L46.65 -37.48L49.346 -37.339L52.013 -37.181L54.651 -37.007L57.257 -36.816L59.83 -36.609L62.369 -36.385L64.871 -36.146L67.336 -35.89L69.762 -35.619L72.148 -35.332L74.491 -35.03L76.791 -34.712L79.047 -34.379L81.256 -34.031L83.418 -33.669L85.531 -33.292L87.594 -32.901L89.606 -32.496L91.565 -32.077L93.471 -31.645L95.322 -31.2L97.117 -30.741L98.855 -30.27L100.535 -29.786L102.156 -29.29L103.717 -28.783L105.217 -28.264L106.655 -27.733L108.031 -27.192L109.342 -26.64L110.59 -26.078L111.772 -25.506L112.889 -24.925L113.939 -24.334L114.922 -23.735L123.386 -18.41L128.39 -15.262L129.411 -14.584L130.356 -13.897L131.224 -13.201L132.015 -12.497L132.728 -11.785L133.363 -11.066L133.919 -10.339L134.397 -9.60699L134.795 -8.86801L135.114 -8.12299L138.114 -0.770996L138.358 -0.00698853L138.521 0.761993L138.603 1.53601L139.075 11.525L139.547 21.514L140.019 31.503L140.49 41.492L140.962 51.48L141.434 61.469L141.906 71.458L142.378 81.447L142.85 91.436L143.322 101.425L143.794 111.414L144.266 121.402L144.738 131.391L145.21 141.38L145.524 148.026L145.524 148.803L145.442 149.584L143.463 159.386L143.245 160.464L143.085 161.232L142.846 162.002L142.527 162.775L142.129 163.549L137.363 172.34L134.831 177.01" />
    <path fill="none" stroke="black" stroke-width="24" stroke-linecap="round" stroke-linejoin="round" transform="matrix(1 0 0 -1 250 325)" d="M133.689 175.656L133.604 175.254L133.383 174.563L133.089 173.877L132.722 173.196L132.282 172.52L131.769 171.851L131.183 171.188L130.526 170.531L129.797 169.882L128.997 169.241L128.126 168.607L127.185 167.982L126.174 167.366L125.094 166.758L123.946 166.16L122.73 165.572L121.447 164.994L120.098 164.427L118.684 163.87L117.205 163.325L115.662 162.791L114.057 162.269L112.39 161.759L110.663 161.262L108.875 160.777L107.029 160.306L105.126 159.848L103.166 159.403L101.151 158.972L100.529 158.847L99.082 158.556L96.961 158.154L94.788 157.766L92.565 157.394L90.293 157.036L87.973 156.694L85.608 156.367L83.198 156.056L80.745 155.761L78.25 155.482L75.715 155.219L73.142 154.973L70.531 154.743L67.885 154.53L65.205 154.334L62.493 154.155L59.75 153.992L56.978 153.847L54.178 153.719L51.353 153.609L48.504 153.516L45.633 153.44L42.742 153.382L39.831 153.341L36.903 153.318L33.961 153.312L31.005 153.324L28.037 153.353L25.059 153.4L22.073 153.465L19.08 153.547L16.084 153.646L13.084 153.763L10.084 153.897L7.084 154.048L4.08701 154.216L1.095 154.401L-1.89101 154.604L-4.869 154.823L-7.83701 155.058L-10.793 155.31L-13.736 155.579L-16.663 155.864L-19.574 156.164L-22.465 156.481L-25.337 156.813L-28.186 157.161L-31.011 157.524L-33.81 157.902L-36.582 158.294L-39.325 158.702L-42.037 159.123L-44.717 159.559L-47.364 160.008L-49.974 160.471L-52.548 160.947L-55.083 161.436L-57.578 161.938L-60.031 162.452L-62.441 162.979L-64.806 163.517L-67.125 164.066L-69.397 164.626L-71.62 165.198L-73.794 165.779L-75.915 166.371L-77.984 166.972L-79.695 167.49L-79.999 167.583L-81.959 168.202L-83.862 168.83L-85.708 169.467L-87.496 170.111L-89.223 170.763L-90.89 171.421L-92.496 172.087L-94.038 172.758L-95.517 173.436L-96.931 174.119L-98.281 174.807L-99.563 175.499L-100.779 176.196L-101.928 176.896L-103.007 177.6L-104.018 178.307L-104.959 179.016L-105.83 179.727L-106.631 180.44L-107.36 181.155L-108.017 181.87L-108.603 182.585L-109.116 183.3L-109.556 184.015L-109.923 184.729L-110.217 185.441L-110.438 186.152L-110.585 186.86L-110.603 187.033" />
    <path fill="none" stroke="black" stroke-width="24" stroke-linecap="round" stroke-linejoin="round" transform="matrix(1 0 0 -1 250 325)" d="M100.529 158.847L100.608 158.866L103.632 159.685L105.845 160.297L108.749 161.175L111.457 162.092L113.963 163.045L116.252 164.022L118.602 165.031L120.736 166.073L122.651 167.146L124.927 168.475L126.651 169.599L128.78 171.217L130.299 172.388L131.578 173.585L133.545 175.487L133.689 175.656L134.599 176.725L134.831 177.01L136.343 178.862L137.161 180.138L138.653 182.478L139.865 184.974L140.441 186.295L141.359 188.924L141.679 190.269L142.289 192.994L142.581 195.769L142.641 197.135L142.611 199.926L142.261 202.695L142.059 204.065L141.393 206.769L140.933 208.138L139.963 210.737L138.698 213.206L137.995 214.554L136.46 216.845L135.518 218.178L133.74 220.256L132.569 221.568L131.159 222.877L129.192 224.688L127.573 225.969L125.433 227.506L123.62 228.754L121.585 229.992L119.332 231.217L117.147 232.405L114.734 233.589L112.116 234.756L109.301 235.903L107.158 236.72L104.218 237.82L101.095 238.895L97.797 239.945L94.328 240.967L90.698 241.959L86.911 242.919L82.978 243.845L78.904 244.734L77.348 245.051L73.246 245.882L69.023 246.675L64.689 247.428L60.252 248.14L55.721 248.809L51.106 249.433L46.414 250.012L41.657 250.544L36.844 251.029L31.983 251.464L27.086 251.85L22.161 252.186L17.22 252.47L12.271 252.703L7.325 252.884L2.39101 253.012L-2.52 253.087L-7.39799 253.11L-12.234 253.079L-17.018 252.996L-21.74 252.86L-26.391 252.671L-30.961 252.431L-35.442 252.138L-39.824 251.795L-44.098 251.402L-45.577 251.244L-49.839 250.79L-53.973 250.286L-57.971 249.734L-61.825 249.133L-65.527 248.486L-69.07 247.794L-72.446 247.058L-75.649 246.28L-78.672 245.461L-80.885 244.849L-83.789 243.971L-86.497 243.055L-89.004 242.102L-91.292 241.125L-93.642 240.116L-95.777 239.074L-97.691 238.001L-99.967 236.672L-101.691 235.548L-103.821 233.93L-105.339 232.758L-106.619 231.562L-108.585 229.66L-109.639 228.421L-111.384 226.285L-112.201 225.008L-113.694 222.669L-114.905 220.173L-115.481 218.852L-116.399 216.222L-116.719 214.877L-117.329 212.153L-117.621 209.377L-117.681 208.012L-117.652 205.221L-117.301 202.451L-117.099 201.082L-116.433 198.378L-115.974 197.008L-115.003 194.409L-113.738 191.94L-113.035 190.592L-111.682 188.573L-111.5 188.302L-110.603 187.033L-110.558 186.969L-108.78 184.891L-107.61 183.579L-106.199 182.27L-104.232 180.459L-102.613 179.178L-100.473 177.641L-98.66 176.393L-96.625 175.155L-94.372 173.929L-92.188 172.742L-89.774 171.557L-87.157 170.39L-84.341 169.243L-82.198 168.426L-79.695 167.49" />
    <path fill="none" stroke="black" stroke-width="24" stroke-linecap="round" stroke-linejoin="round" transform="matrix(1 0 0 -1 250 325)" d="M128.78 171.217L127.026 170.073L125.039 168.959L122.824 167.878L120.385 166.831L117.727 165.82L114.856 164.848L111.776 163.917L108.495 163.028L105.019 162.184L101.355 161.385L97.51 160.634L93.493 159.932L89.31 159.28L84.971 158.68L80.485 158.134L75.86 157.641L71.105 157.203L66.231 156.821L61.247 156.496L56.163 156.229L50.989 156.019L45.736 155.868L40.414 155.775L35.035 155.741L29.608 155.766L24.146 155.85L18.658 155.993L13.156 156.193L7.651 156.452L2.15401 156.769L-3.32401 157.142L-8.772 157.571L-14.179 158.056L-19.533 158.595L-24.825 159.187L-30.043 159.831L-35.178 160.525L-40.218 161.269L-45.153 162.061L-49.975 162.898L-54.672 163.781L-59.235 164.706L-63.656 165.672L-67.925 166.676L-72.034 167.718L-75.975 168.794L-79.738 169.903L-83.318 171.043L-86.707 172.21L-89.898 173.404L-92.884 174.62L-95.659 175.858L-98.219 177.113L-100.557 178.385L-102.669 179.67L-104.551 180.966L-106.199 182.27" />
    <path fill="none" stroke="black" stroke-width="24" stroke-linecap="round" stroke-linejoin="round" transform="matrix(1 0 0 -1 250 325)" d="M-42.035 210.161L-43.481 210.477L-45.43 210.903L-48.776 211.69L-51.66 212.422L-51.996 212.507L-55.084 213.35L-58.034 214.22L-60.84 215.113L-63.495 216.028L-64.321 216.336L-65.996 216.963" />
    <path fill="none" stroke="black" stroke-width="24" stroke-linecap="round" stroke-linejoin="round" transform="matrix(1 0 0 -1 250 325)" d="M69.12 205.164L69.062 205.158L67.548 204.997L65.391 204.767L61.558 204.414L57.628 204.106L53.61 203.844L49.511 203.628L45.34 203.459L41.106 203.337L36.815 203.263L32.479 203.235L28.104 203.255L23.7 203.323L19.275 203.438L14.84 203.6L10.402 203.809L5.97 204.064L1.554 204.365L-2.838 204.711L-7.19701 205.102L-11.514 205.536L-15.78 206.013L-19.987 206.532L-24.126 207.092L-28.189 207.692L-32.168 208.33L-36.055 209.006L-39.842 209.717L-42.035 210.161L-43.521 210.463" />
    <path fill="none" stroke="black" stroke-width="24" stroke-linecap="round" stroke-linejoin="round" transform="matrix(1 0 0 -1 250 325)" d="M92.061 209.528L90.249 209.037L89.49 208.831L86.765 208.169L83.894 207.544L80.88 206.955L77.732 206.405L77.262 206.332L74.454 205.894L71.053 205.424L68.982 205.171L67.548 204.997" />
  </g>
</svg>