<?xml version='1.0' encoding='utf-8'?>
<svg xmlns="http://www.w3.org/2000/svg" version="1.1" width="500" height="650" viewBox="0 0 500 650">
  <g>
    <path fill="none" stroke="none" transform="matrix(1 0 0 -1 250 325)" d="M-150.652 97.54L-153.317 92.808L-153.995 91.566L-154.594 90.322L-155.114 89.078L-155.556 87.832L-155.918 86.588L-156.201 85.344L-158.163 75.538L-158.267 75.02L-158.474 73.753L-158.601 72.489L-158.645 71.228L-158.609 69.972L-157.992 59.991L-157.376 50.01L-156.759 40.029L-156.142 30.048L-155.526 20.067L-154.909 10.086L-154.292 0.105011L-153.676 -9.87601L-153.059 -19.857L-152.443 -29.838L-151.826 -39.819L-151.209 -49.8L-150.593 -59.781L-149.998 -69.4L-149.88 -70.652L-149.681 -71.897L-149.4 -73.136L-149.039 -74.368L-148.596 -75.592L-148.073 -76.807L-145.017 -83.656L-144.425 -84.838L-143.755 -86.009L-143.008 -87.171L-142.183 -88.32L-141.28 -89.458L-140.302 -90.583L-139.247 -91.694L-138.118 -92.791L-136.913 -93.873L-135.636 -94.94L-134.285 -95.991L-132.861 -97.025L-131.367 -98.042L-129.802 -99.041L-128.167 -100.021L-126.464 -100.982L-124.694 -101.923L-115.781 -106.458L-112.674 -108.039L-111.027 -108.865L-109.322 -109.672L-107.559 -110.459L-105.74 -111.227L-103.865 -111.975L-101.936 -112.703L-99.954 -113.409L-97.92 -114.094L-95.836 -114.757L-93.702 -115.397L-91.52 -116.016L-89.291 -116.611L-87.016 -117.182L-84.698 -117.73L-82.337 -118.254L-79.934 -118.754L-77.492 -119.229L-75.011 -119.679L-72.494 -120.104L-69.941 -120.503L-67.354 -120.877L-64.735 -121.225L-62.085 -121.546L-59.407 -121.841L-56.701 -122.11L-53.968 -122.352L-51.212 -122.567L-48.433 -122.755L-45.634 -122.917L-42.815 -123.051L-39.979 -123.157L-37.127 -123.237L-34.261 -123.289L-31.382 -123.314L-28.493 -123.311L-25.595 -123.281L-22.69 -123.223L-19.78 -123.138L-16.866 -123.026L-13.95 -122.887L-11.034 -122.72L-8.12 -122.527L-5.209 -122.306L-2.304 -122.059L0.595001 -121.785L3.485 -121.485L6.364 -121.158L9.23199 -120.805L12.085 -120.426L14.923 -120.022L17.744 -119.592L20.546 -119.137L23.326 -118.657L26.085 -118.153L28.82 -117.624L31.529 -117.071L34.21 -116.495L36.863 -115.895L39.485 -115.273L42.075 -114.627L44.631 -113.96L47.152 -113.271L49.637 -112.561L52.083 -111.829L54.49 -111.077L56.855 -110.305L59.178 -109.514L61.457 -108.703L63.691 -107.874L65.877 -107.027L68.016 -106.162L70.106 -105.28L72.145 -104.382L74.132 -103.467L76.067 -102.537L77.947 -101.592L79.772 -100.633L81.54 -99.66L83.251 -98.674L84.904 -97.676L86.497 -96.665L88.03 -95.643L96.316 -90.045L99.205 -88.094L100.846 -86.942L102.418 -85.779L103.92 -84.605L105.35 -83.421L106.709 -82.228L107.994 -81.027L109.206 -79.818L110.343 -78.602L111.405 -77.38L112.391 -76.152L113.301 -74.919L114.134 -73.682L114.889 -72.442L115.567 -71.2L116.167 -69.956L116.687 -68.71L117.129 -67.465L119.319 -60.292L119.689 -59.022L119.978 -57.753L120.185 -56.486L120.312 -55.222L120.356 -53.961L120.32 -52.704L119.703 -42.723L119.087 -32.743L118.47 -22.762L117.853 -12.781L117.237 -2.79999L116.62 7.181L116.003 17.162L115.387 27.143L114.77 37.124L114.154 47.105L113.537 57.086L112.92 67.067L112.304 77.048L111.709 86.668L111.591 87.919L111.392 89.165L111.111 90.404L110.75 91.636L107.596 101.125L107.429 101.627L106.996 102.826L106.483 104.017L105.892 105.198L105.222 106.37L104.475 107.53L103.65 108.68L100.352 113.142" />
    <path fill="none" stroke="black" stroke-width="24" stroke-linecap="round" stroke-linejoin="round" transform="matrix(1 0 0 -1 250 325)" d="M-150.652 97.54L-153.317 92.808L-153.995 91.566L-154.594 90.322L-155.114 89.078L-155.556 87.832L-155.918 86.588L-156.201 85.344L-158.163 75.538L-158.267 75.02L-158.474 73.753L-158.601 72.489L-158.645 71.228L-158.609 69.972L-157.992 59.991L-157.376 50.01L-156.759 40.029L-156.142 30.048L-155.526 20.067L-154.909 10.086L-154.292 0.105011L-153.676 -9.87601L-153.059 -19.857L-152.443 -29.838L-151.826 -39.819L-151.209 -49.8L-150.593 -59.781L-149.998 -69.4L-149.88 -70.652L-149.681 -71.897L-149.4 -73.136L-149.039 -74.368L-148.596 -75.592L-148.073 -76.807L-145.017 -83.656L-144.425 -84.838L-143.755 -86.009L-143.008 -87.171L-142.183 -88.32L-141.28 -89.458L-140.302 -90.583L-139.247 -91.694L-138.118 -92.791L-136.913 -93.873L-135.636 -94.94L-134.285 -95.991L-132.861 -97.025L-131.367 -98.042L-129.802 -99.041L-128.167 -100.021L-126.464 -100.982L-124.694 -101.923L-115.781 -106.458L-112.674 -108.039L-111.027 -108.865L-109.322 -109.672L-107.559 -110.459L-105.74 -111.227L-103.865 -111.975L-101.936 -112.703L-99.954 -113.409L-97.92 -114.094L-95.836 -114.757L-93.702 -115.397L-91.52 -116.016L-89.291 -116.611L-87.016 -117.182L-84.698 -117.73L-82.337 -118.254L-79.934 -118.754L-77.492 -119.229L-75.011 -119.679L-72.494 -120.104L-69.941 -120.503L-67.354 -120.877L-64.735 -121.225L-62.085 -121.546L-59.407 -121.841L-56.701 -122.11L-53.968 -122.352L-51.212 -122.567L-48.433 -122.755L-45.634 -122.917L-42.815 -123.051L-39.979 -123.157L-37.127 -123.237L-34.261 -123.289L-31.382 -123.314L-28.493 -123.311L-25.595 -123.281L-22.69 -123.223L-19.78 -123.138L-16.866 -123.026L-13.95 -122.887L-11.034 -122.72L-8.12 -122.527L-5.209 -122.306L-2.304 -122.059L0.595001 -121.785L3.485 -121.485L6.364 -121.158L9.23199 -120.805L12.085 -120.426L14.923 -120.022L17.744 -119.592L20.546 -119.137L23.326 -118.657L26.085 -118.153L28.82 -117.624L31.529 -117.071L34.21 -116.495L36.863 -115.895L39.485 -115.273L42.075 -114.627L44.631 -113.96L47.152 -113.271L49.637 -112.561L52.083 -111.829L54.49 -111.077L56.855 -110.305L59.178 -109.514L61.457 -108.703L63.691 -107.874L65.877 -107.027L68.016 -106.162L70.106 -105.28L72.145 -104.382L74.132 -103.467L76.067 -102.537L77.947 -101.592L79.772 -100.633L81.54 -99.66L83.251 -98.674L84.904 -97.676L86.497 -96.665L88.03 -95.643L96.316 -90.045L99.205 -88.094L100.846 -86.942L102.418 -85.779L103.92 -84.605L105.35 -83.421L106.709 -82.228L107.994 -81.027L109.206 -79.818L110.343 -78.602L111.405 -77.38L112.391 -76.152L113.301 -74.919L114.134 -73.682L114.889 -72.442L115.567 -71.2L116.167 -69.956L116.687 -68.71L117.129 -67.465L119.319 -60.292L119.689 -59.022L119.978 -57.753L120.185 -56.486L120.312 -55.222L120.356 -53.961L120.32 -52.704L119.703 -42.723L119.087 -32.743L118.47 -22.762L117.853 -12.781L117.237 -2.79999L116.62 7.181L116.003 17.162L115.387 27.143L114.77 37.124L114.154 47.105L113.537 57.086L112.92 67.067L112.304 77.048L111.709 86.668L111.591 87.919L111.392 89.165L111.111 90.404L110.75 91.636L107.596 101.125L107.429 101.627L106.996 102.826L106.483 104.017L105.892 105.198L105.222 106.37L104.475 107.53L103.65 108.68L100.352 113.142" />
    <path fill="none" stroke="black" stroke-width="24" stroke-linecap="round" stroke-linejoin="round" transform="matrix(1 0 0 -1 250 325)" d="M95.906 104.97L95.74 104.502L95.26 103.354L94.707 102.207L94.083 101.062L93.386 99.919L92.618 98.779L91.78 97.642L90.87 96.511L89.891 95.384L88.843 94.263L87.726 93.148L86.541 92.041L85.289 90.941L83.971 89.85L82.586 88.768L81.137 87.696L79.624 86.634L78.048 85.583L76.41 84.544L74.71 83.517L72.95 82.503L71.132 81.502L69.255 80.516L67.322 79.544L65.332 78.588L63.289 77.648L61.192 76.724L59.043 75.817L56.844 74.927L54.595 74.056L52.298 73.203L49.954 72.37L47.566 71.556L45.133 70.762L42.658 69.989L40.143 69.237L37.588 68.506L34.995 67.797L32.367 67.111L29.703 66.448L27.007 65.807L24.279 65.191L21.521 64.598L18.735 64.03L15.923 63.486L13.087 62.967L10.227 62.474L7.34599 62.006L4.44501 61.564L1.52699 61.148L-1.408 60.758L-4.356 60.396L-7.317 60.06L-10.289 59.751L-13.27 59.469L-16.258 59.215L-19.251 58.988L-22.248 58.789L-25.247 58.618L-28.245 58.474L-31.242 58.359L-34.234 58.272L-37.222 58.213L-40.202 58.182L-43.173 58.179L-46.133 58.204L-49.08 58.258L-52.013 58.34L-54.93 58.449L-57.828 58.587L-60.707 58.753L-63.565 58.946L-66.399 59.168L-69.209 59.417L-71.992 59.693L-74.746 59.996L-77.471 60.327L-80.164 60.685L-82.824 61.069L-85.449 61.48L-88.038 61.916L-90.589 62.379L-93.101 62.868L-95.572 63.381L-98 63.92L-100.384 64.484L-102.723 65.072L-105.015 65.684L-107.259 66.319L-109.453 66.978L-111.597 67.66L-113.688 68.364L-115.727 69.091L-117.71 69.839L-119.638 70.608L-121.509 71.397L-123.322 72.207L-125.075 73.037L-126.769 73.886L-128.401 74.754L-129.971 75.64L-131.478 76.543L-132.92 77.464L-134.298 78.401L-135.61 79.354L-136.855 80.323L-138.033 81.306L-139.143 82.304L-140.185 83.315L-141.157 84.34L-142.059 85.377L-142.89 86.425L-143.651 87.485L-144.34 88.555L-144.958 89.636L-145.04 89.799" />
    <path fill="none" stroke="black" stroke-width="24" stroke-linecap="round" stroke-linejoin="round" transform="matrix(1 0 0 -1 250 325)" d="M-27.572 189.277L-32.641 188.968L-37.699 188.573L-42.738 188.093L-47.747 187.53L-48.153 187.478L-53.238 186.817L-58.271 186.072L-63.242 185.245L-68.142 184.338L-72.96 183.353L-77.687 182.291L-82.313 181.155L-86.829 179.947L-91.226 178.67L-95.495 177.325L-99.627 175.916L-103.614 174.446L-107.448 172.917L-109.101 172.231L-112.854 170.612L-116.435 168.94L-119.838 167.218L-123.055 165.45L-126.079 163.639L-127.934 162.49L-130.816 160.603L-133.49 158.679L-135.95 156.723L-137.765 155.206L-140.047 153.187L-142.102 151.142L-143.767 149.325L-145.619 147.227L-147.233 145.113L-148.698 143.033L-150.088 140.877L-151.296 138.601L-152.451 136.414L-153.354 134.222L-154.289 131.77L-154.943 129.56L-155.576 126.996L-155.974 124.777L-156.292 122.144L-156.43 119.926L-156.427 117.268L-156.303 115.061L-155.979 112.423L-155.594 110.237L-154.954 107.663L-154.311 105.507L-153.367 103.04L-152.47 100.924L-151.239 98.604L-150.652 97.54L-150.098 96.537L-148.706 94.504L-147.225 92.392L-145.604 90.421L-145.04 89.799L-143.892 88.534L-142.053 86.63L-139.979 84.772L-138.099 83.171L-135.83 81.39L-133.338 79.661L-131.345 78.377L-128.683 76.733L-125.812 75.147L-122.739 73.623L-120.751 72.709L-117.545 71.277L-114.152 69.912L-110.58 68.615L-106.836 67.39L-102.928 66.238L-101.196 65.758L-97.217 64.706L-93.092 63.73L-88.831 62.833L-84.441 62.016L-79.931 61.282L-75.311 60.631L-70.589 60.065L-65.776 59.585L-60.88 59.191L-55.913 58.886L-50.883 58.669L-45.801 58.541L-40.677 58.502L-40.256 58.501L-35.218 58.55L-30.16 58.686L-25.092 58.908L-20.023 59.217L-14.964 59.612L-9.92599 60.092L-4.91701 60.655L-4.50999 60.707L0.574005 61.368L5.60699 62.113L10.579 62.94L15.478 63.847L20.297 64.832L25.023 65.894L29.65 67.03L34.166 68.238L38.562 69.515L42.831 70.86L46.963 72.269L50.951 73.739L54.785 75.268L56.437 75.954L60.19 77.573L63.772 79.245L67.174 80.966L70.391 82.735L73.415 84.546L75.27 85.695L78.152 87.582L80.826 89.506L83.286 91.462L85.102 92.979L87.383 94.998L89.438 97.043L91.104 98.86L92.956 100.958L94.569 103.072L95.906 104.97L96.034 105.152L97.424 107.308L98.633 109.583L99.788 111.771L100.352 113.142L100.69 113.963L101.626 116.415L102.279 118.625L102.912 121.189L103.31 123.408L103.628 126.041L103.766 128.259L103.763 130.917L103.64 133.124L103.315 135.761L102.93 137.948L102.29 140.522L101.647 142.678L100.703 145.145L99.807 147.261L98.576 149.581L97.434 151.648L96.042 153.681L94.562 155.793L92.94 157.764L91.228 159.651L89.389 161.555L87.315 163.413L85.435 165.014L83.166 166.795L80.674 168.524L78.682 169.808L76.019 171.452L73.149 173.037L70.075 174.562L68.088 175.476L64.881 176.908L61.489 178.273L57.917 179.57L54.173 180.795L50.264 181.947L48.532 182.427L44.553 183.479L40.429 184.455L36.167 185.352L31.777 186.169L27.268 186.903L22.647 187.554L17.926 188.12L13.112 188.6L8.217 188.994L3.24899 189.299L-1.78101 189.516L-6.86301 189.644L-11.987 189.683L-12.408 189.684L-17.445 189.635L-22.503 189.499L-27.572 189.277" />
    <path fill="none" stroke="black" stroke-width="24" stroke-linecap="round" stroke-linejoin="round" transform="matrix(1 0 0 -1 250 325)" d="M-106.168 123.179L-106.407 123.393L-106.422 123.406L-106.438 123.421L-106.609 123.598L-106.61 123.598L-106.659 123.649L-106.842 123.839L-107.687 124.713" />
    <path fill="none" stroke="black" stroke-width="24" stroke-linecap="round" stroke-linejoin="round" transform="matrix(1 0 0 -1 250 325)" d="M-104.271 121.785L-105.309 122.505L-106.168 123.179L-106.39 123.353L-106.406 123.366L-106.44 123.392L-106.538 123.469L-106.581 123.503L-106.607 123.523L-106.637 123.547L-106.909 123.76" />
    <path fill="none" stroke="black" stroke-width="24" stroke-linecap="round" stroke-linejoin="round" transform="matrix(1 0 0 -1 250 325)" d="M-99.771 119.351L-100.137 119.533L-100.157 119.542L-100.171 119.549L-101.475 120.196L-103.586 121.362L-104.271 121.785L-105.367 122.462L-105.431 122.501L-105.544 122.571" />
    <path fill="none" stroke="black" stroke-width="24" stroke-linecap="round" stroke-linejoin="round" transform="matrix(1 0 0 -1 250 325)" d="M85.102 92.979L82.598 90.988L79.877 89.031L76.943 87.11L73.804 85.23L70.466 83.395L66.934 81.607L63.217 79.872L59.322 78.192L55.256 76.571L51.028 75.012L46.646 73.518L42.12 72.092L37.457 70.738L32.668 69.457L27.763 68.252L22.75 67.126L17.641 66.081L12.446 65.119L7.174 64.243L1.83701 63.453L-3.55499 62.752L-8.99001 62.14L-14.459 61.62L-19.949 61.191L-25.45 60.856L-30.95 60.614L-36.44 60.467L-41.906 60.413L-47.34 60.455L-52.729 60.591L-58.062 60.821L-63.33 61.145L-68.521 61.562L-73.625 62.071L-78.632 62.671L-83.532 63.361L-88.314 64.14L-92.969 65.006L-97.488 65.958L-101.861 66.992L-106.081 68.108L-110.137 69.303L-114.023 70.575L-117.73 71.921L-121.251 73.338L-124.579 74.824L-127.707 76.375L-130.628 77.989L-133.338 79.661" />
    <path fill="none" stroke="black" stroke-width="24" stroke-linecap="round" stroke-linejoin="round" transform="matrix(1 0 0 -1 250 325)" d="M-88.218 115.226L-90.492 115.896L-93.374 116.839L-96.123 117.837L-98.734 118.888L-99.771 119.351L-100.154 119.522L-100.175 119.531L-100.19 119.538L-101.203 119.99" />
    <path fill="none" stroke="black" stroke-width="24" stroke-linecap="round" stroke-linejoin="round" transform="matrix(1 0 0 -1 250 325)" d="M-40.622 109.627L-44.447 109.657L-48.554 109.76L-52.619 109.935L-56.634 110.182L-60.59 110.5L-64.48 110.888L-68.296 111.346L-72.03 111.872L-75.674 112.465L-79.222 113.125L-82.666 113.85L-85.999 114.639L-88.218 115.226L-89.215 115.49" />
    <path fill="none" stroke="black" stroke-width="24" stroke-linecap="round" stroke-linejoin="round" transform="matrix(1 0 0 -1 250 325)" d="M-10.67 111.459L-10.731 111.452L-14.93 110.98L-19.216 110.572L-23.519 110.236L-27.83 109.973L-32.141 109.784L-36.443 109.668L-40.622 109.627L-40.728 109.626" />
    <path fill="none" stroke="black" stroke-width="24" stroke-linecap="round" stroke-linejoin="round" transform="matrix(1 0 0 -1 250 325)" d="M36.843 123.175L36.047 122.858L33.744 121.939L30.522 120.751L27.182 119.612L23.732 118.526L20.179 117.493L16.529 116.517L12.791 115.599L8.97099 114.741L5.077 113.944L1.117 113.212L-2.901 112.543L-6.968 111.941L-10.731 111.452" />
    <path fill="none" stroke="black" stroke-width="24" stroke-linecap="round" stroke-linejoin="round" transform="matrix(1 0 0 -1 250 325)" d="M48.26 129.102L47.525 128.662L47.512 128.654L47.493 128.643L47.094 128.404L45.932 127.708L43.456 126.346L40.837 125.021L38.08 123.734L36.047 122.858" />
    <path fill="none" stroke="black" stroke-width="24" stroke-linecap="round" stroke-linejoin="round" transform="matrix(1 0 0 -1 250 325)" d="M52.301 132.194L52.273 132.171L51.308 131.404L50.491 130.755L48.525 129.341L47.503 128.672L47.49 128.663L47.474 128.652L47.094 128.404" />
    <path fill="none" stroke="black" stroke-width="24" stroke-linecap="round" stroke-linejoin="round" transform="matrix(1 0 0 -1 250 325)" d="M53.544 133.543L53.409 133.408L53.391 133.391L53.383 133.383L53.329 133.329L53.245 133.246L53.225 133.225L53.214 133.215L53.048 133.049L52.095 132.101L51.308 131.404" />
    <path fill="none" stroke="black" stroke-width="24" stroke-linecap="round" stroke-linejoin="round" transform="matrix(1 0 0 -1 250 325)" d="M54.232 134.585L53.58 133.73L53.452 133.563L53.439 133.546L53.394 133.487L53.239 133.284L53.232 133.275L53.136 133.149L53.048 133.049" />
    <path fill="none" stroke="black" stroke-width="24" stroke-linecap="round" stroke-linejoin="round" transform="matrix(1 0 0 -1 250 325)" d="M53.681 133.921L53.455 133.571L53.439 133.546" />
    <path fill="none" stroke="black" stroke-width="24" stroke-linecap="round" stroke-linejoin="round" transform="matrix(1 0 0 -1 250 325)" d="M53.788 134.443L53.394 133.487" />
    <path fill="none" stroke="black" stroke-width="24" stroke-linecap="round" stroke-linejoin="round" transform="matrix(1 0 0 -1 250 325)" d="M53.261 133.372L53.232 133.275" />
    <path fill="none" stroke="black" stroke-width="24" stroke-linecap="round" stroke-linejoin="round" transform="matrix(1 0 0 -1 250 325)" d="M46.551 129.11L47.107 128.834L47.474 128.652" />
    <path fill="none" stroke="black" stroke-width="24" stroke-linecap="round" stroke-linejoin="round" transform="matrix(1 0 0 -1 250 325)" d="M-106.609 123.598L-107.179 124.63" />
    <path fill="none" stroke="black" stroke-width="24" stroke-linecap="round" stroke-linejoin="round" transform="matrix(1 0 0 -1 250 325)" d="M-106.61 123.598L-106.672 123.674L-107.041 124.122" />
    <path fill="none" stroke="black" stroke-width="24" stroke-linecap="round" stroke-linejoin="round" transform="matrix(1 0 0 -1 250 325)" d="M-106.407 123.393L-106.508 123.632" />
  </g>
</svg>