<?xml version='1.0' encoding='utf-8'?>
<svg xmlns="http://www.w3.org/2000/svg" version="1.1" width="500" height="650" viewBox="0 0 500 650">
  <g>
    <path fill="none" stroke="none" transform="matrix(1 0 0 -1 250 325)" d="M-154.694 74.673L-157.221 70.026L-157.895 68.784L-158.49 67.542L-159.007 66.299L-159.445 65.057L-159.803 63.816L-160.083 62.577L-161.904 52.745L-162.002 52.216L-162.206 50.955L-162.328 49.698L-162.37 48.446L-162.33 47.199L-161.574 37.227L-160.817 27.256L-160.061 17.284L-159.305 7.31299L-158.549 -2.65799L-157.793 -12.63L-157.037 -22.601L-156.281 -32.572L-155.524 -42.544L-154.768 -52.515L-154.012 -62.487L-153.256 -72.458L-152.5 -82.429L-151.758 -92.216L-151.636 -93.457L-151.434 -94.692L-151.15 -95.918L-150.785 -97.137L-150.34 -98.346L-149.814 -99.546L-146.659 -106.366L-146.065 -107.532L-145.392 -108.687L-144.642 -109.83L-143.814 -110.961L-142.909 -112.079L-141.928 -113.183L-140.872 -114.273L-139.74 -115.348L-138.533 -116.407L-137.253 -117.45L-135.9 -118.476L-134.475 -119.485L-132.979 -120.475L-131.412 -121.447L-129.776 -122.399L-128.072 -123.331L-126.3 -124.243L-117.334 -128.673L-114.163 -130.24L-112.515 -131.038L-110.808 -131.817L-109.045 -132.577L-107.224 -133.316L-105.349 -134.034L-103.419 -134.732L-101.437 -135.408L-99.402 -136.061L-97.318 -136.693L-95.183 -137.302L-93.001 -137.887L-90.772 -138.449L-88.498 -138.988L-86.179 -139.502L-83.818 -139.992L-81.416 -140.457L-78.974 -140.897L-76.494 -141.312L-73.977 -141.702L-71.424 -142.065L-68.839 -142.403L-66.22 -142.714L-63.572 -143L-60.894 -143.258L-58.189 -143.49L-55.458 -143.695L-52.703 -143.873L-49.926 -144.025L-47.128 -144.148L-44.31 -144.245L-41.476 -144.315L-38.625 -144.357L-35.761 -144.372L-32.885 -144.359L-29.998 -144.319L-27.102 -144.252L-24.199 -144.157L-21.291 -144.035L-18.379 -143.887L-15.466 -143.711L-12.552 -143.508L-9.64101 -143.278L-6.733 -143.021L-3.83 -142.738L-0.934006 -142.429L1.953 -142.093L4.83 -141.732L7.69501 -141.344L10.545 -140.932L13.38 -140.493L16.198 -140.03L18.996 -139.542L21.774 -139.03L24.529 -138.494L27.26 -137.933L29.966 -137.349L32.644 -136.742L35.293 -136.113L37.912 -135.461L40.498 -134.787L43.051 -134.091L45.569 -133.374L48.05 -132.637L50.492 -131.879L52.895 -131.101L55.257 -130.304L57.576 -129.488L59.851 -128.654L62.081 -127.802L64.264 -126.932L66.399 -126.046L68.485 -125.143L70.52 -124.225L72.503 -123.291L74.434 -122.343L76.31 -121.38L78.131 -120.404L79.896 -119.415L81.603 -118.414L83.252 -117.401L84.841 -116.377L86.37 -115.343L94.565 -109.612L97.407 -107.625L99.044 -106.46L100.612 -105.284L102.109 -104.099L103.536 -102.905L104.89 -101.703L106.171 -100.494L107.378 -99.277L108.512 -98.055L109.569 -96.828L110.552 -95.596L111.458 -94.36L112.287 -93.121L113.038 -91.88L113.712 -90.638L114.308 -89.394L114.825 -88.151L115.263 -86.908L117.35 -79.699L117.716 -78.433L118.001 -77.17L118.205 -75.909L118.328 -74.652L118.369 -73.4L118.329 -72.152L117.573 -62.181L116.817 -52.21L116.061 -42.238L115.305 -32.267L114.549 -22.296L113.793 -12.324L113.036 -2.353L112.28 7.61899L111.524 17.59L110.768 27.561L110.012 37.533L109.256 47.504L108.5 57.475L107.757 67.262L107.636 68.504L107.433 69.738L107.15 70.965L106.785 72.183L103.502 81.629L103.323 82.145L102.886 83.33L102.37 84.506L101.776 85.671L101.104 86.826L100.354 87.969L99.527 89.099L95.969 93.784" />
    <path fill="none" stroke="black" stroke-width="24" stroke-linecap="round" stroke-linejoin="round" transform="matrix(1 0 0 -1 250 325)" d="M-154.694 74.673L-157.221 70.026L-157.895 68.784L-158.49 67.542L-159.007 66.299L-159.445 65.057L-159.803 63.816L-160.083 62.577L-161.904 52.745L-162.002 52.216L-162.206 50.955L-162.328 49.698L-162.37 48.446L-162.33 47.199L-161.574 37.227L-160.817 27.256L-160.061 17.284L-159.305 7.31299L-158.549 -2.65799L-157.793 -12.63L-157.037 -22.601L-156.281 -32.572L-155.524 -42.544L-154.768 -52.515L-154.012 -62.487L-153.256 -72.458L-152.5 -82.429L-151.758 -92.216L-151.636 -93.457L-151.434 -94.692L-151.15 -95.918L-150.785 -97.137L-150.34 -98.346L-149.814 -99.546L-146.659 -106.366L-146.065 -107.532L-145.392 -108.687L-144.642 -109.83L-143.814 -110.961L-142.909 -112.079L-141.928 -113.183L-140.872 -114.273L-139.74 -115.348L-138.533 -116.407L-137.253 -117.45L-135.9 -118.476L-134.475 -119.485L-132.979 -120.475L-131.412 -121.447L-129.776 -122.399L-128.072 -123.331L-126.3 -124.243L-117.334 -128.673L-114.163 -130.24L-112.515 -131.038L-110.808 -131.817L-109.045 -132.577L-107.224 -133.316L-105.349 -134.034L-103.419 -134.732L-101.437 -135.408L-99.402 -136.061L-97.318 -136.693L-95.183 -137.302L-93.001 -137.887L-90.772 -138.449L-88.498 -138.988L-86.179 -139.502L-83.818 -139.992L-81.416 -140.457L-78.974 -140.897L-76.494 -141.312L-73.977 -141.702L-71.424 -142.065L-68.839 -142.403L-66.22 -142.714L-63.572 -143L-60.894 -143.258L-58.189 -143.49L-55.458 -143.695L-52.703 -143.873L-49.926 -144.025L-47.128 -144.148L-44.31 -144.245L-41.476 -144.315L-38.625 -144.357L-35.761 -144.372L-32.885 -144.359L-29.998 -144.319L-27.102 -144.252L-24.199 -144.157L-21.291 -144.035L-18.379 -143.887L-15.466 -143.711L-12.552 -143.508L-9.64101 -143.278L-6.733 -143.021L-3.83 -142.738L-0.934006 -142.429L1.953 -142.093L4.83 -141.732L7.69501 -141.344L10.545 -140.932L13.38 -140.493L16.198 -140.03L18.996 -139.542L21.774 -139.03L24.529 -138.494L27.26 -137.933L29.966 -137.349L32.644 -136.742L35.293 -136.113L37.912 -135.461L40.498 -134.787L43.051 -134.091L45.569 -133.374L48.05 -132.637L50.492 -131.879L52.895 -131.101L55.257 -130.304L57.576 -129.488L59.851 -128.654L62.081 -127.802L64.264 -126.932L66.399 -126.046L68.485 -125.143L70.52 -124.225L72.503 -123.291L74.434 -122.343L76.31 -121.38L78.131 -120.404L79.896 -119.415L81.603 -118.414L83.252 -117.401L84.841 -116.377L86.37 -115.343L94.565 -109.612L97.407 -107.625L99.044 -106.46L100.612 -105.284L102.109 -104.099L103.536 -102.905L104.89 -101.703L106.171 -100.494L107.378 -99.277L108.512 -98.055L109.569 -96.828L110.552 -95.596L111.458 -94.36L112.287 -93.121L113.038 -91.88L113.712 -90.638L114.308 -89.394L114.825 -88.151L115.263 -86.908L117.35 -79.699L117.716 -78.433L118.001 -77.17L118.205 -75.909L118.328 -74.652L118.369 -73.4L118.329 -72.152L117.573 -62.181L116.817 -52.21L116.061 -42.238L115.305 -32.267L114.549 -22.296L113.793 -12.324L113.036 -2.353L112.28 7.61899L111.524 17.59L110.768 27.561L110.012 37.533L109.256 47.504L108.5 57.475L107.757 67.262L107.636 68.504L107.433 69.738L107.15 70.965L106.785 72.183L103.502 81.629L103.323 82.145L102.886 83.33L102.37 84.506L101.776 85.671L101.104 86.826L100.354 87.969L99.527 89.099L95.969 93.784" />
    <path fill="none" stroke="black" stroke-width="24" stroke-linecap="round" stroke-linejoin="round" transform="matrix(1 0 0 -1 250 325)" d="M91.731 85.788L91.447 84.982L90.97 83.836L90.421 82.69L89.8 81.544L89.107 80.4L88.343 79.258L87.508 78.119L86.603 76.983L85.627 75.852L84.583 74.725L83.47 73.604L82.289 72.489L81.041 71.381L79.726 70.281L78.346 69.188L76.9 68.105L75.391 67.031L73.819 65.967L72.184 64.914L70.489 63.872L68.733 62.842L66.919 61.826L65.046 60.822L63.116 59.832L61.131 58.857L59.092 57.897L56.999 56.952L54.854 56.024L52.658 55.112L50.413 54.218L48.12 53.342L45.781 52.484L43.396 51.645L40.967 50.825L38.496 50.026L35.984 49.246L33.433 48.488L30.844 47.751L28.219 47.035L25.559 46.342L22.867 45.672L20.142 45.024L17.388 44.4L14.606 43.8L11.797 43.224L8.964 42.672L6.10699 42.145L3.23 41.643L0.332001 41.167L-2.58299 40.716L-5.51401 40.292L-8.46001 39.893L-11.418 39.522L-14.387 39.177L-17.365 38.858L-20.35 38.567L-23.341 38.304L-26.335 38.067L-29.331 37.859L-32.327 37.678L-35.321 37.525L-38.312 37.399L-41.297 37.302L-44.275 37.233L-47.244 37.192L-50.202 37.179L-53.147 37.194L-56.078 37.237L-58.993 37.309L-61.89 37.408L-64.768 37.536L-67.624 37.691L-70.457 37.874L-73.265 38.085L-76.047 38.324L-78.801 38.59L-81.524 38.883L-84.217 39.203L-86.876 39.55L-89.501 39.924L-92.089 40.325L-94.639 40.752L-97.151 41.204L-99.621 41.683L-102.049 42.186L-104.433 42.715L-106.772 43.269L-109.064 43.847L-111.308 44.449L-113.503 45.075L-115.647 45.725L-117.739 46.397L-119.778 47.092L-121.762 47.809L-123.691 48.548L-125.562 49.308L-127.376 50.089L-129.131 50.89L-130.825 51.711L-132.459 52.552L-134.03 53.411L-135.538 54.289L-136.982 55.185L-138.362 56.098L-139.675 57.027L-140.923 57.973L-142.103 58.935L-143.214 59.911L-144.258 60.902L-145.232 61.907L-146.136 62.925L-146.97 63.955L-147.733 64.998L-148.425 66.052L-149.045 67.116L-149.1 67.224" />
    <path fill="none" stroke="black" stroke-width="24" stroke-linecap="round" stroke-linejoin="round" transform="matrix(1 0 0 -1 250 325)" d="M-32.484 167.909L-37.548 167.537L-42.603 167.08L-47.637 166.539L-52.64 165.915L-57.603 165.209L-58.114 165.128L-63.142 164.323L-68.108 163.438L-73.001 162.475L-77.814 161.434L-82.534 160.319L-87.154 159.131L-91.664 157.873L-96.054 156.548L-100.316 155.158L-104.442 153.705L-108.422 152.194L-112.25 150.626L-113.884 149.913L-117.63 148.258L-121.205 146.551L-124.6 144.798L-127.81 143L-130.827 141.163L-132.66 139.985L-135.535 138.074L-138.202 136.13L-140.655 134.156L-142.445 132.611L-144.72 130.577L-146.767 128.52L-148.404 126.678L-150.249 124.571L-151.856 122.451L-153.29 120.349L-154.673 118.191L-155.809 116.027L-156.996 113.709L-157.892 111.521L-158.792 109.054L-159.439 106.851L-160.036 104.276L-160.427 102.067L-160.708 99.428L-160.84 97.223L-160.8 94.563L-160.67 92.373L-160.309 89.736L-159.918 87.57L-159.242 85.001L-158.593 82.869L-157.614 80.41L-156.712 78.321L-155.448 76.013L-154.694 74.673L-154.302 73.975L-152.905 71.975L-151.393 69.878L-149.767 67.941L-149.1 67.224L-148.027 66.072L-146.184 64.205L-144.106 62.387L-142.201 60.805L-139.928 59.066L-137.433 57.381L-135.418 56.117L-132.753 54.519L-129.88 52.982L-126.805 51.508L-124.798 50.613L-121.59 49.233L-118.197 47.92L-114.624 46.679L-110.879 45.51L-106.97 44.417L-105.223 43.953L-101.244 42.959L-97.119 42.043L-92.858 41.207L-88.469 40.453L-83.961 39.782L-79.342 39.195L-74.622 38.693L-69.81 38.279L-64.917 37.951L-59.952 37.712L-54.925 37.562L-49.846 37.5L-49.296 37.497L-44.293 37.523L-39.259 37.637L-34.205 37.837L-29.141 38.124L-24.076 38.496L-19.022 38.953L-13.988 39.494L-8.985 40.118L-4.022 40.824L-3.511 40.905L1.517 41.71L6.483 42.595L11.376 43.558L16.189 44.599L20.909 45.714L25.529 46.902L30.039 48.16L34.429 49.485L38.691 50.875L42.817 52.328L46.797 53.839L50.625 55.407L52.259 56.12L56.006 57.775L59.58 59.482L62.975 61.235L66.185 63.033L69.203 64.87L71.035 66.048L73.91 67.959L76.577 69.903L79.03 71.877L80.82 73.422L83.095 75.456L85.142 77.513L86.779 79.355L88.624 81.462L90.231 83.582L91.665 85.684L91.731 85.788L93.048 87.842L94.184 90.006L95.371 92.324L95.969 93.784L96.267 94.512L97.167 96.979L97.814 99.182L98.411 101.757L98.802 103.966L99.083 106.605L99.215 108.81L99.175 111.47L99.045 113.66L98.684 116.297L98.293 118.463L97.617 121.032L96.968 123.164L95.989 125.623L95.087 127.712L93.823 130.02L92.677 132.058L91.28 134.058L89.768 136.155L88.142 138.092L86.402 139.961L84.559 141.828L82.481 143.646L80.576 145.228L78.303 146.967L75.808 148.652L73.793 149.916L71.128 151.514L68.255 153.051L65.18 154.525L63.174 155.42L59.966 156.8L56.572 158.113L52.999 159.354L49.254 160.523L45.345 161.616L43.598 162.08L39.619 163.074L35.495 163.99L31.234 164.826L26.844 165.58L22.336 166.251L17.717 166.838L12.997 167.34L8.186 167.754L3.29201 168.082L-1.673 168.321L-6.7 168.471L-11.779 168.533L-12.329 168.536L-17.332 168.51L-22.365 168.396L-27.42 168.196L-32.484 167.909" />
    <path fill="none" stroke="black" stroke-width="24" stroke-linecap="round" stroke-linejoin="round" transform="matrix(1 0 0 -1 250 325)" d="M-110.748 101.19L-110.911 101.332L-110.924 101.343L-111.03 101.436L-111.13 101.538L-111.135 101.543L-111.165 101.573L-111.384 101.795L-112.281 102.704" />
    <path fill="none" stroke="black" stroke-width="24" stroke-linecap="round" stroke-linejoin="round" transform="matrix(1 0 0 -1 250 325)" d="M-108.912 99.876L-109.921 100.557L-110.748 101.19L-110.899 101.305L-110.913 101.316L-111.001 101.383L-111.075 101.44L-111.104 101.462L-111.176 101.518L-111.193 101.53L-111.524 101.783" />
    <path fill="none" stroke="black" stroke-width="24" stroke-linecap="round" stroke-linejoin="round" transform="matrix(1 0 0 -1 250 325)" d="M-104.498 97.559L-106.104 98.328L-108.217 99.459L-108.912 99.876L-109.975 100.513L-110.044 100.554L-110.177 100.634" />
    <path fill="none" stroke="black" stroke-width="24" stroke-linecap="round" stroke-linejoin="round" transform="matrix(1 0 0 -1 250 325)" d="M80.82 73.422L78.323 71.413L75.609 69.434L72.683 67.488L69.552 65.581L66.221 63.716L62.696 61.895L58.987 60.124L55.098 58.406L51.04 56.744L46.819 55.141L42.444 53.601L37.925 52.127L33.269 50.722L28.487 49.388L23.588 48.128L18.582 46.946L13.479 45.842L8.28999 44.82L3.024 43.882L-2.30701 43.029L-7.69299 42.263L-13.123 41.585L-18.586 40.998L-24.071 40.502L-29.568 40.098L-35.064 39.787L-40.549 39.57L-46.012 39.447L-51.442 39.418L-56.827 39.483L-62.158 39.643L-67.423 39.897L-72.612 40.244L-77.714 40.683L-82.719 41.215L-87.617 41.837L-92.397 42.549L-97.052 43.349L-101.57 44.236L-105.944 45.207L-110.163 46.261L-114.22 47.395L-118.107 48.608L-121.815 49.896L-125.338 51.258L-128.667 52.69L-131.797 54.191L-134.721 55.755L-137.433 57.381" />
    <path fill="none" stroke="black" stroke-width="24" stroke-linecap="round" stroke-linejoin="round" transform="matrix(1 0 0 -1 250 325)" d="M-93.085 93.639L-95.134 94.212L-98.016 95.111L-100.767 96.067L-103.379 97.077L-104.241 97.448L-104.248 97.451L-104.269 97.46L-104.498 97.559L-105.849 98.14" />
    <path fill="none" stroke="black" stroke-width="24" stroke-linecap="round" stroke-linejoin="round" transform="matrix(1 0 0 -1 250 325)" d="M-49.488 88.625L-53.223 88.67L-57.286 88.792L-61.298 88.986L-65.253 89.25L-69.141 89.585L-72.955 89.99L-76.688 90.465L-80.332 91.007L-83.879 91.617L-87.323 92.292L-90.656 93.033L-93.085 93.639L-93.872 93.836" />
    <path fill="none" stroke="black" stroke-width="24" stroke-linecap="round" stroke-linejoin="round" transform="matrix(1 0 0 -1 250 325)" d="M-11.16 91.454L-11.176 91.452L-15.382 90.854L-19.637 90.323L-23.919 89.863L-28.218 89.474L-32.525 89.157L-36.833 88.914L-41.131 88.743L-45.413 88.647L-49.488 88.625L-49.668 88.624" />
    <path fill="none" stroke="black" stroke-width="24" stroke-linecap="round" stroke-linejoin="round" transform="matrix(1 0 0 -1 250 325)" d="M32.079 103.092L31.805 102.98L28.985 101.825L25.769 100.604L22.435 99.43L18.99 98.307L15.442 97.236L11.797 96.219L8.064 95.259L4.24899 94.358L0.360001 93.517L-3.595 92.738L-7.608 92.023L-11.176 91.452" />
    <path fill="none" stroke="black" stroke-width="24" stroke-linecap="round" stroke-linejoin="round" transform="matrix(1 0 0 -1 250 325)" d="M43.486 109.115L42.755 108.669L42.641 108.6L42.628 108.592L42.617 108.585L41.164 107.7L38.693 106.317L36.079 104.967L33.328 103.653L31.805 102.98" />
    <path fill="none" stroke="black" stroke-width="24" stroke-linecap="round" stroke-linejoin="round" transform="matrix(1 0 0 -1 250 325)" d="M47.534 112.225L46.903 111.717L45.729 110.773L43.768 109.343L42.755 108.669" />
    <path fill="none" stroke="black" stroke-width="24" stroke-linecap="round" stroke-linejoin="round" transform="matrix(1 0 0 -1 250 325)" d="M48.792 113.566L48.739 113.513L48.687 113.46L48.493 113.265L47.348 112.115L46.903 111.717" />
    <path fill="none" stroke="black" stroke-width="24" stroke-linecap="round" stroke-linejoin="round" transform="matrix(1 0 0 -1 250 325)" d="M49.499 114.594L49.02 113.961L48.943 113.859L48.871 113.765L48.809 113.682L48.493 113.265" />
    <path fill="none" stroke="black" stroke-width="24" stroke-linecap="round" stroke-linejoin="round" transform="matrix(1 0 0 -1 250 325)" d="M49.721 115.331L48.975 113.909L48.943 113.859" />
    <path fill="none" stroke="black" stroke-width="24" stroke-linecap="round" stroke-linejoin="round" transform="matrix(1 0 0 -1 250 325)" d="M49.107 114.411L48.809 113.682" />
    <path fill="none" stroke="black" stroke-width="24" stroke-linecap="round" stroke-linejoin="round" transform="matrix(1 0 0 -1 250 325)" d="M-111.13 101.538L-111.722 102.591" />
    <path fill="none" stroke="black" stroke-width="24" stroke-linecap="round" stroke-linejoin="round" transform="matrix(1 0 0 -1 250 325)" d="M-111.135 101.543L-111.173 101.588L-111.609 102.108" />
    <path fill="none" stroke="black" stroke-width="24" stroke-linecap="round" stroke-linejoin="round" transform="matrix(1 0 0 -1 250 325)" d="M-110.911 101.332L-111.021 101.589" />
  </g>
</svg>