<?xml version='1.0' encoding='utf-8'?>
<svg xmlns="http://www.w3.org/2000/svg" version="1.1" width="500" height="650" viewBox="0 0 500 650">
  <g>
    <path fill="none" stroke="none" transform="matrix(1 0 0 -1 250 325)" d="M-82.489 108.374L-89.05 100.827L-89.302 100.537L-90.038 99.621L-90.698 98.689L-91.279 97.741L-91.783 96.777L-92.209 95.799L-96.185 86.624L-96.506 85.882L-96.86 84.87L-97.134 83.843L-97.328 82.803L-98.882 72.925L-100.435 63.046L-101.989 53.168L-103.543 43.289L-105.097 33.411L-106.651 23.532L-108.205 13.654L-109.759 3.77499L-111.313 -6.103L-112.867 -15.982L-114.421 -25.86L-115.974 -35.739L-117.528 -45.617L-119.082 -55.496L-119.548 -58.456L-119.661 -59.509L-119.693 -60.573L-119.644 -61.648L-119.515 -62.735L-119.305 -63.831L-117.826 -71.39L-117.541 -72.474L-117.178 -73.566L-116.736 -74.667L-116.216 -75.774L-115.619 -76.888L-114.943 -78.008L-114.191 -79.133L-113.362 -80.262L-112.456 -81.396L-111.475 -82.532L-110.419 -83.671L-109.289 -84.812L-108.085 -85.953L-106.808 -87.095L-99.336 -93.742L-95.917 -96.784L-94.708 -97.807L-93.434 -98.83L-92.097 -99.851L-90.698 -100.87L-89.237 -101.887L-87.715 -102.9L-86.134 -103.909L-84.494 -104.913L-82.796 -105.913L-81.041 -106.906L-79.23 -107.893L-77.364 -108.874L-75.445 -109.846L-73.474 -110.811L-71.451 -111.767L-69.378 -112.713L-67.257 -113.65L-65.088 -114.577L-62.873 -115.492L-60.613 -116.396L-58.309 -117.287L-55.963 -118.166L-53.577 -119.032L-51.152 -119.885L-48.688 -120.723L-46.189 -121.546L-43.654 -122.355L-41.087 -123.147L-38.487 -123.924L-35.858 -124.684L-33.2 -125.426L-30.515 -126.152L-27.804 -126.859L-25.07 -127.548L-22.314 -128.218L-19.537 -128.869L-16.742 -129.5L-13.93 -130.112L-11.102 -130.703L-8.25999 -131.273L-5.407 -131.822L-2.54401 -132.35L0.328995 -132.856L3.207 -133.341L6.091 -133.803L8.979 -134.242L11.867 -134.659L14.756 -135.052L17.643 -135.422L20.526 -135.769L23.403 -136.092L26.274 -136.391L29.136 -136.666L31.987 -136.916L34.825 -137.143L37.65 -137.344L40.459 -137.521L43.251 -137.673L46.024 -137.8L48.775 -137.902L51.505 -137.98L54.21 -138.032L56.89 -138.059L59.542 -138.06L62.166 -138.037L64.759 -137.989L67.32 -137.915L69.847 -137.817L72.339 -137.693L74.795 -137.545L77.213 -137.372L79.591 -137.174L81.928 -136.951L84.223 -136.704L86.474 -136.433L88.68 -136.138L90.839 -135.818L92.951 -135.475L95.013 -135.108L97.026 -134.718L98.986 -134.305L100.895 -133.869L102.749 -133.41L104.549 -132.929L106.292 -132.426L107.979 -131.902L109.607 -131.355L111.176 -130.788L112.686 -130.2L114.134 -129.592L123.285 -125.56L127.518 -123.695L129.065 -122.994L130.542 -122.271L131.949 -121.526L133.283 -120.761L134.546 -119.975L135.735 -119.169L136.85 -118.343L137.891 -117.498L138.857 -116.635L139.746 -115.753L140.56 -114.854L141.297 -113.938L141.956 -113.005L142.538 -112.057L146.27 -105.311L146.784 -104.328L147.218 -103.33L147.573 -102.317L147.846 -101.291L148.04 -100.251L149.594 -90.372L151.148 -80.494L152.701 -70.615L154.255 -60.737L155.809 -50.858L157.363 -40.98L158.917 -31.101L160.471 -21.223L162.025 -11.344L163.579 -1.466L165.133 8.41299L166.686 18.291L168.24 28.17L169.794 38.048L170.26 41.009L170.373 42.061L170.405 43.125L170.356 44.201L169.389 54.154L169.311 54.952L169.184 56.017L168.979 57.091L168.694 58.174L168.331 59.266L167.89 60.366L163.963 69.563L163.898 69.716" />
    <path fill="none" stroke="black" stroke-width="24" stroke-linecap="round" stroke-linejoin="round" transform="matrix(1 0 0 -1 250 325)" d="M-82.489 108.374L-89.05 100.827L-89.302 100.537L-90.038 99.621L-90.698 98.689L-91.279 97.741L-91.783 96.777L-92.209 95.799L-96.185 86.624L-96.506 85.882L-96.86 84.87L-97.134 83.843L-97.328 82.803L-98.882 72.925L-100.435 63.046L-101.989 53.168L-103.543 43.289L-105.097 33.411L-106.651 23.532L-108.205 13.654L-109.759 3.77499L-111.313 -6.103L-112.867 -15.982L-114.421 -25.86L-115.974 -35.739L-117.528 -45.617L-119.082 -55.496L-119.548 -58.456L-119.661 -59.509L-119.693 -60.573L-119.644 -61.648L-119.515 -62.735L-119.305 -63.831L-117.826 -71.39L-117.541 -72.474L-117.178 -73.566L-116.736 -74.667L-116.216 -75.774L-115.619 -76.888L-114.943 -78.008L-114.191 -79.133L-113.362 -80.262L-112.456 -81.396L-111.475 -82.532L-110.419 -83.671L-109.289 -84.812L-108.085 -85.953L-106.808 -87.095L-99.336 -93.742L-95.917 -96.784L-94.708 -97.807L-93.434 -98.83L-92.097 -99.851L-90.698 -100.87L-89.237 -101.887L-87.715 -102.9L-86.134 -103.909L-84.494 -104.913L-82.796 -105.913L-81.041 -106.906L-79.23 -107.893L-77.364 -108.874L-75.445 -109.846L-73.474 -110.811L-71.451 -111.767L-69.378 -112.713L-67.257 -113.65L-65.088 -114.577L-62.873 -115.492L-60.613 -116.396L-58.309 -117.287L-55.963 -118.166L-53.577 -119.032L-51.152 -119.885L-48.688 -120.723L-46.189 -121.546L-43.654 -122.355L-41.087 -123.147L-38.487 -123.924L-35.858 -124.684L-33.2 -125.426L-30.515 -126.152L-27.804 -126.859L-25.07 -127.548L-22.314 -128.218L-19.537 -128.869L-16.742 -129.5L-13.93 -130.112L-11.102 -130.703L-8.25999 -131.273L-5.407 -131.822L-2.54401 -132.35L0.328995 -132.856L3.207 -133.341L6.091 -133.803L8.979 -134.242L11.867 -134.659L14.756 -135.052L17.643 -135.422L20.526 -135.769L23.403 -136.092L26.274 -136.391L29.136 -136.666L31.987 -136.916L34.825 -137.143L37.65 -137.344L40.459 -137.521L43.251 -137.673L46.024 -137.8L48.775 -137.902L51.505 -137.98L54.21 -138.032L56.89 -138.059L59.542 -138.06L62.166 -138.037L64.759 -137.989L67.32 -137.915L69.847 -137.817L72.339 -137.693L74.795 -137.545L77.213 -137.372L79.591 -137.174L81.928 -136.951L84.223 -136.704L86.474 -136.433L88.68 -136.138L90.839 -135.818L92.951 -135.475L95.013 -135.108L97.026 -134.718L98.986 -134.305L100.895 -133.869L102.749 -133.41L104.549 -132.929L106.292 -132.426L107.979 -131.902L109.607 -131.355L111.176 -130.788L112.686 -130.2L114.134 -129.592L123.285 -125.56L127.518 -123.695L129.065 -122.994L130.542 -122.271L131.949 -121.526L133.283 -120.761L134.546 -119.975L135.735 -119.169L136.85 -118.343L137.891 -117.498L138.857 -116.635L139.746 -115.753L140.56 -114.854L141.297 -113.938L141.956 -113.005L142.538 -112.057L146.27 -105.311L146.784 -104.328L147.218 -103.33L147.573 -102.317L147.846 -101.291L148.04 -100.251L149.594 -90.372L151.148 -80.494L152.701 -70.615L154.255 -60.737L155.809 -50.858L157.363 -40.98L158.917 -31.101L160.471 -21.223L162.025 -11.344L163.579 -1.466L165.133 8.41299L166.686 18.291L168.24 28.17L169.794 38.048L170.26 41.009L170.373 42.061L170.405 43.125L170.356 44.201L169.389 54.154L169.311 54.952L169.184 56.017L168.979 57.091L168.694 58.174L168.331 59.266L167.89 60.366L163.963 69.563L163.898 69.716" />
    <path fill="none" stroke="black" stroke-width="24" stroke-linecap="round" stroke-linejoin="round" transform="matrix(1 0 0 -1 250 325)" d="M160.269 65.913L160.028 65.452L159.491 64.577L158.883 63.718L158.204 62.873L157.454 62.044L156.634 61.232L155.744 60.436L154.784 59.657L153.756 58.896L152.66 58.153L151.496 57.428L150.266 56.722L148.97 56.036L147.608 55.37L146.182 54.723L144.693 54.098L143.141 53.493L141.527 52.91L139.852 52.348L138.118 51.809L136.325 51.291L134.474 50.797L132.567 50.325L130.605 49.877L128.589 49.452L126.519 49.05L124.398 48.673L122.227 48.32L120.006 47.992L117.738 47.688L115.423 47.409L113.063 47.155L110.66 46.926L108.214 46.723L105.728 46.545L103.203 46.392L100.64 46.265L98.041 46.164L95.407 46.088L92.741 46.039L90.043 46.015L87.315 46.017L86.335 46.026L84.56 46.044L81.778 46.098L78.971 46.177L76.141 46.282L73.29 46.413L70.419 46.57L67.53 46.751L64.625 46.959L61.706 47.191L58.774 47.449L55.832 47.732L52.88 48.039L49.92 48.371L46.956 48.728L43.987 49.108L41.017 49.513L38.046 49.941L35.077 50.393L32.111 50.868L29.151 51.366L26.197 51.887L23.253 52.43L20.318 52.995L17.396 53.581L14.488 54.189L11.596 54.818L8.722 55.467L5.866 56.136L3.032 56.825L0.220001 57.534L-2.567 58.261L-5.328 59.007L-8.061 59.771L-10.765 60.552L-13.438 61.351L-16.079 62.166L-17.389 62.584L-18.685 62.997L-21.256 63.844L-23.789 64.706L-26.283 65.582L-28.737 66.473L-31.149 67.377L-33.518 68.294L-35.842 69.223L-38.12 70.164L-40.35 71.117L-42.532 72.08L-44.663 73.054L-46.743 74.037L-48.771 75.029L-50.744 76.029L-52.662 77.037L-54.525 78.052L-56.329 79.074L-58.076 80.102L-59.762 81.134L-61.389 82.172L-62.954 83.214L-64.456 84.259L-65.895 85.307L-67.27 86.357L-68.579 87.409L-69.823 88.461L-71.001 89.514L-72.111 90.567L-73.153 91.618L-74.126 92.668L-75.03 93.716L-75.865 94.76L-76.629 95.801L-77.323 96.838L-77.945 97.871L-78.497 98.897L-78.976 99.918L-79.383 100.932L-79.718 101.939L-79.98 102.939L-80.07 103.406" />
    <path fill="none" stroke="black" stroke-width="24" stroke-linecap="round" stroke-linejoin="round" transform="matrix(1 0 0 -1 250 325)" d="M86.335 46.026L88.967 46.047L93.436 46.161L97.799 46.355L102.045 46.629L103.657 46.742L107.876 47.103L111.958 47.543L115.896 48.062L119.681 48.658L123.307 49.332L126.766 50.081L128.846 50.586L132.202 51.427L135.373 52.341L138.353 53.326L141.136 54.382L143.372 55.272L146.004 56.418L148.424 57.63L150.616 58.855L152.857 60.155L154.874 61.517L156.963 63.057L158.778 64.501L160.269 65.913L160.688 66.31L162.288 67.832L163.645 69.41L163.898 69.716L165.355 71.477L166.479 73.126L167.939 75.397L168.82 77.11L170.006 79.551L170.636 81.322L171.527 83.892L172.108 86.55L172.483 88.374L172.746 91.084L172.861 92.945L172.802 95.663L172.659 97.554L172.28 100.237L171.881 102.148L171.189 104.752L170.54 106.676L169.549 109.16L168.658 111.087L167.387 113.411L166.263 115.332L164.897 117.269L163.389 119.366L161.808 121.285L160.078 123.146L158.296 125.039L156.29 126.937L154.062 128.835L152.223 130.356L149.827 132.213L147.223 134.064L144.418 135.903L142.552 137.049L139.614 138.834L136.489 140.602L133.185 142.348L129.707 144.07L126.063 145.762L122.261 147.423L118.306 149.049L116.837 149.639L112.833 151.19L108.698 152.7L104.438 154.166L100.063 155.585L95.582 156.955L91.004 158.272L86.338 159.535L81.593 160.739L76.779 161.884L71.905 162.967L66.982 163.984L62.019 164.936L57.026 165.819L52.014 166.631L46.992 167.372L41.971 168.04L36.961 168.632L31.971 169.149L27.012 169.589L22.094 169.951L17.226 170.235L12.419 170.439L7.683 170.564L3.026 170.609L-1.54201 170.574L-6.01199 170.459L-10.374 170.265L-14.62 169.992L-16.233 169.878L-20.451 169.518L-24.533 169.078L-28.471 168.559L-32.257 167.962L-35.883 167.289L-39.341 166.54L-41.422 166.034L-44.777 165.194L-47.949 164.28L-50.929 163.294L-53.712 162.239L-55.948 161.348L-58.579 160.203L-60.999 158.99L-63.191 157.765L-65.433 156.466L-67.45 155.104L-69.539 153.564L-71.354 152.119L-73.263 150.311L-74.863 148.788L-76.22 147.21L-77.93 145.144L-79.054 143.495L-80.515 141.224L-81.396 139.51L-82.581 137.07L-83.211 135.299L-84.102 132.728L-84.683 130.07L-85.058 128.246L-85.321 125.537L-85.436 123.675L-85.378 120.958L-85.234 119.067L-84.855 116.384L-84.456 114.473L-83.765 111.868L-83.116 109.945L-82.489 108.374L-82.125 107.46L-81.234 105.534L-80.07 103.406L-79.962 103.21L-78.838 101.289L-77.472 99.352L-75.964 97.255L-74.384 95.336L-72.653 93.475L-70.872 91.581L-68.865 89.684L-66.638 87.786L-64.798 86.265L-62.402 84.407L-59.799 82.557L-56.994 80.718L-55.127 79.572L-52.189 77.786L-49.065 76.018L-45.761 74.272L-42.283 72.551L-38.639 70.858L-34.836 69.197L-30.882 67.572L-29.413 66.981L-25.409 65.43L-21.273 63.92L-17.389 62.584" />
    <path fill="none" stroke="black" stroke-width="24" stroke-linecap="round" stroke-linejoin="round" transform="matrix(1 0 0 -1 250 325)" d="M150.616 58.855L148.153 57.622L145.475 56.456L142.586 55.36L139.493 54.337L136.202 53.388L132.719 52.516L129.051 51.722L125.207 51.008L121.192 50.376L117.017 49.825L112.688 49.359L108.215 48.977L103.607 48.68L98.872 48.469L94.022 48.345L89.064 48.307L84.01 48.356L78.87 48.491L73.653 48.713L68.371 49.021L63.033 49.414L57.651 49.891L52.236 50.452L46.798 51.095L41.349 51.819L35.899 52.623L30.46 53.505L25.041 54.464L19.655 55.496L14.312 56.601L9.02299 57.775L3.799 59.018L-1.351 60.325L-6.41499 61.695L-11.384 63.125L-16.247 64.611L-20.995 66.151L-25.617 67.742L-30.106 69.381L-34.451 71.064L-38.644 72.788L-42.677 74.549L-46.541 76.344L-50.229 78.169L-53.733 80.021L-57.046 81.896L-60.161 83.789L-63.073 85.698L-65.775 87.618L-68.262 89.546L-70.528 91.478L-72.57 93.409L-74.384 95.336" />
    <path fill="none" stroke="black" stroke-width="24" stroke-linecap="round" stroke-linejoin="round" transform="matrix(1 0 0 -1 250 325)" d="M-28.401 123.163L-30.315 124.417L-32.319 125.841L-33.571 126.812L-34.163 127.271" />
    <path fill="none" stroke="black" stroke-width="24" stroke-linecap="round" stroke-linejoin="round" transform="matrix(1 0 0 -1 250 325)" d="M-11.357 114.831L-13.623 115.763L-16.697 117.105L-18.994 118.172L-19.641 118.473L-22.452 119.864L-25.122 121.276L-27.647 122.704L-28.401 123.163L-30.022 124.147" />
    <path fill="none" stroke="black" stroke-width="24" stroke-linecap="round" stroke-linejoin="round" transform="matrix(1 0 0 -1 250 325)" d="M99.915 97.73L98.78 97.657L96.303 97.497L92.593 97.332L88.791 97.234L84.906 97.205L80.945 97.243L76.916 97.349L72.828 97.523L68.688 97.764L64.505 98.072L60.287 98.446L56.043 98.886L51.781 99.39L47.51 99.958L43.239 100.588L38.976 101.279L34.73 102.03L30.509 102.839L26.321 103.705L22.176 104.625L18.081 105.599L14.045 106.624L10.076 107.697L6.18201 108.818L2.371 109.983L-1.35001 111.19L-4.97301 112.437L-8.491 113.721L-11.357 114.831L-11.896 115.04" />
    <path fill="none" stroke="black" stroke-width="24" stroke-linecap="round" stroke-linejoin="round" transform="matrix(1 0 0 -1 250 325)" d="M116.977 100.314L116.543 100.22L114.182 99.709L111.252 99.164L108.193 98.682L106.418 98.448L105.01 98.263L101.711 97.907L98.78 97.657" />
    <path fill="none" stroke="black" stroke-width="24" stroke-linecap="round" stroke-linejoin="round" transform="matrix(1 0 0 -1 250 325)" d="M124.358 102.729L124.266 102.694L124.203 102.67L122.885 102.17L122.215 101.917L119.921 101.158L117.48 100.454L116.543 100.22" />
    <path fill="none" stroke="black" stroke-width="24" stroke-linecap="round" stroke-linejoin="round" transform="matrix(1 0 0 -1 250 325)" d="M125.837 103.572L125.612 103.46L125.536 103.422L125.405 103.356L125.365 103.336L125.334 103.32L125.244 103.275L124.057 102.681L122.885 102.17" />
    <path fill="none" stroke="black" stroke-width="24" stroke-linecap="round" stroke-linejoin="round" transform="matrix(1 0 0 -1 250 325)" d="M125.792 103.664L125.638 103.542" />
    <path fill="none" stroke="black" stroke-width="24" stroke-linecap="round" stroke-linejoin="round" transform="matrix(1 0 0 -1 250 325)" d="M-35.711 128.913L-36.316 129.948" />
    <path fill="none" stroke="black" stroke-width="24" stroke-linecap="round" stroke-linejoin="round" transform="matrix(1 0 0 -1 250 325)" d="M-35.553 128.722L-35.631 128.889" />
  </g>
</svg>