<?xml version='1.0' encoding='utf-8'?>
<svg xmlns="http://www.w3.org/2000/svg" version="1.1" width="500" height="650" viewBox="0 0 500 650">
  <g>
    <path fill="none" stroke="none" transform="matrix(1 0 0 -1 250 325)" d="M-105.017 0.130005L-106.134 -1.21899L-107.111 -2.48001L-108.012 -3.758L-108.836 -5.05099L-109.583 -6.35901L-110.252 -7.67999L-110.843 -9.01501L-114.426 -18.351L-114.51 -18.569L-115.033 -19.943L-115.475 -21.33L-115.837 -22.727L-116.119 -24.134L-116.319 -25.551L-117.323 -35.5L-118.327 -45.45L-119.331 -55.399L-120.335 -65.349L-121.339 -75.298L-122.344 -85.248L-123.348 -95.197L-124.352 -105.146L-125.356 -115.096L-126.36 -125.045L-127.364 -134.995L-128.368 -144.944L-129.373 -154.894L-129.991 -161.024L-130.11 -162.449L-130.148 -163.881L-130.105 -165.321L-129.98 -166.765L-129.774 -168.215L-129.487 -169.669L-129.12 -171.126L-127.196 -178.157L-126.757 -179.588L-126.238 -181.02L-125.642 -182.452L-124.967 -183.884L-124.214 -185.315L-123.385 -186.744L-122.478 -188.17L-121.496 -189.592L-120.437 -191.009L-119.304 -192.421L-118.097 -193.826L-116.816 -195.225L-115.462 -196.615L-114.036 -197.996L-112.539 -199.368L-110.972 -200.729L-109.336 -202.079L-107.631 -203.416L-105.859 -204.741L-104.021 -206.051L-102.118 -207.347L-93.797 -212.894L-92.067 -214.047L-90.304 -215.195L-88.484 -216.329L-86.61 -217.448L-84.681 -218.55L-82.699 -219.637L-80.666 -220.706L-78.583 -221.757L-76.45 -222.79L-74.269 -223.804L-72.042 -224.798L-69.769 -225.772L-67.453 -226.725L-65.094 -227.657L-62.694 -228.567L-60.254 -229.455L-57.777 -230.319L-55.262 -231.16L-52.713 -231.976L-50.13 -232.768L-47.515 -233.535L-44.869 -234.277L-42.195 -234.993L-39.493 -235.682L-36.765 -236.344L-34.014 -236.98L-31.24 -237.587L-28.446 -238.167L-25.633 -238.719L-22.802 -239.241L-19.956 -239.735L-17.096 -240.2L-14.224 -240.635L-11.341 -241.041L-8.45 -241.416L-5.55099 -241.761L-2.64799 -242.076L0.259003 -242.36L3.168 -242.613L6.076 -242.835L8.983 -243.026L11.886 -243.186L14.784 -243.315L17.675 -243.412L20.556 -243.477L23.428 -243.512L26.287 -243.514L29.132 -243.486L31.962 -243.425L34.774 -243.334L37.567 -243.211L40.339 -243.056L43.089 -242.87L45.814 -242.654L48.514 -242.406L51.187 -242.127L53.83 -241.818L56.443 -241.478L59.024 -241.108L61.571 -240.708L64.083 -240.278L66.558 -239.818L68.995 -239.329L71.392 -238.811L73.748 -238.265L76.061 -237.69L78.331 -237.087L80.555 -236.457L82.732 -235.799L84.862 -235.114L86.942 -234.403L88.971 -233.666L90.949 -232.903L100.211 -229.131L102.048 -228.383L104.195 -227.504L106.283 -226.598L108.308 -225.664L110.271 -224.705L112.169 -223.719L114.003 -222.708L115.77 -221.673L117.47 -220.614L119.101 -219.531L120.664 -218.426L122.155 -217.299L123.576 -216.15L124.925 -214.98L126.201 -213.791L127.403 -212.583L128.531 -211.356L129.584 -210.111L130.562 -208.849L131.463 -207.571L132.287 -206.277L133.034 -204.969L133.703 -203.647L137.001 -197.125L137.604 -195.763L138.127 -194.388L138.57 -193.002L138.932 -191.605L139.213 -190.198L139.413 -188.781L140.417 -178.832L141.422 -168.882L142.426 -158.933L143.43 -148.983L144.434 -139.034L145.438 -129.084L146.442 -119.135L147.446 -109.185L148.451 -99.236L149.455 -89.286L150.459 -79.337L151.463 -69.388L152.467 -59.438L153.086 -53.308L153.205 -51.883L153.243 -50.45L153.199 -49.011L153.075 -47.566L152.869 -46.117L151.223 -36.253L151.183 -36.012L150.902 -34.587L150.541 -33.159L150.102 -31.73L149.584 -30.298L148.988 -28.866L148.313 -27.435L147.561 -26.005L147.148 -25.231" />
    <path fill="none" stroke="black" stroke-width="24" stroke-linecap="round" stroke-linejoin="round" transform="matrix(1 0 0 -1 250 325)" d="M-105.017 0.130005L-106.134 -1.21899L-107.111 -2.48001L-108.012 -3.758L-108.836 -5.05099L-109.583 -6.35901L-110.252 -7.67999L-110.843 -9.01501L-114.426 -18.351L-114.51 -18.569L-115.033 -19.943L-115.475 -21.33L-115.837 -22.727L-116.119 -24.134L-116.319 -25.551L-117.323 -35.5L-118.327 -45.45L-119.331 -55.399L-120.335 -65.349L-121.339 -75.298L-122.344 -85.248L-123.348 -95.197L-124.352 -105.146L-125.356 -115.096L-126.36 -125.045L-127.364 -134.995L-128.368 -144.944L-129.373 -154.894L-129.991 -161.024L-130.11 -162.449L-130.148 -163.881L-130.105 -165.321L-129.98 -166.765L-129.774 -168.215L-129.487 -169.669L-129.12 -171.126L-127.196 -178.157L-126.757 -179.588L-126.238 -181.02L-125.642 -182.452L-124.967 -183.884L-124.214 -185.315L-123.385 -186.744L-122.478 -188.17L-121.496 -189.592L-120.437 -191.009L-119.304 -192.421L-118.097 -193.826L-116.816 -195.225L-115.462 -196.615L-114.036 -197.996L-112.539 -199.368L-110.972 -200.729L-109.336 -202.079L-107.631 -203.416L-105.859 -204.741L-104.021 -206.051L-102.118 -207.347L-93.797 -212.894L-92.067 -214.047L-90.304 -215.195L-88.484 -216.329L-86.61 -217.448L-84.681 -218.55L-82.699 -219.637L-80.666 -220.706L-78.583 -221.757L-76.45 -222.79L-74.269 -223.804L-72.042 -224.798L-69.769 -225.772L-67.453 -226.725L-65.094 -227.657L-62.694 -228.567L-60.254 -229.455L-57.777 -230.319L-55.262 -231.16L-52.713 -231.976L-50.13 -232.768L-47.515 -233.535L-44.869 -234.277L-42.195 -234.993L-39.493 -235.682L-36.765 -236.344L-34.014 -236.98L-31.24 -237.587L-28.446 -238.167L-25.633 -238.719L-22.802 -239.241L-19.956 -239.735L-17.096 -240.2L-14.224 -240.635L-11.341 -241.041L-8.45 -241.416L-5.55099 -241.761L-2.64799 -242.076L0.259003 -242.36L3.168 -242.613L6.076 -242.835L8.983 -243.026L11.886 -243.186L14.784 -243.315L17.675 -243.412L20.556 -243.477L23.428 -243.512L26.287 -243.514L29.132 -243.486L31.962 -243.425L34.774 -243.334L37.567 -243.211L40.339 -243.056L43.089 -242.87L45.814 -242.654L48.514 -242.406L51.187 -242.127L53.83 -241.818L56.443 -241.478L59.024 -241.108L61.571 -240.708L64.083 -240.278L66.558 -239.818L68.995 -239.329L71.392 -238.811L73.748 -238.265L76.061 -237.69L78.331 -237.087L80.555 -236.457L82.732 -235.799L84.862 -235.114L86.942 -234.403L88.971 -233.666L90.949 -232.903L100.211 -229.131L102.048 -228.383L104.195 -227.504L106.283 -226.598L108.308 -225.664L110.271 -224.705L112.169 -223.719L114.003 -222.708L115.77 -221.673L117.47 -220.614L119.101 -219.531L120.664 -218.426L122.155 -217.299L123.576 -216.15L124.925 -214.98L126.201 -213.791L127.403 -212.583L128.531 -211.356L129.584 -210.111L130.562 -208.849L131.463 -207.571L132.287 -206.277L133.034 -204.969L133.703 -203.647L137.001 -197.125L137.604 -195.763L138.127 -194.388L138.57 -193.002L138.932 -191.605L139.213 -190.198L139.413 -188.781L140.417 -178.832L141.422 -168.882L142.426 -158.933L143.43 -148.983L144.434 -139.034L145.438 -129.084L146.442 -119.135L147.446 -109.185L148.451 -99.236L149.455 -89.286L150.459 -79.337L151.463 -69.388L152.467 -59.438L153.086 -53.308L153.205 -51.883L153.243 -50.45L153.199 -49.011L153.075 -47.566L152.869 -46.117L151.223 -36.253L151.183 -36.012L150.902 -34.587L150.541 -33.159L150.102 -31.73L149.584 -30.298L148.988 -28.866L148.313 -27.435L147.561 -26.005L147.148 -25.231" />
    <path fill="none" stroke="black" stroke-width="24" stroke-linecap="round" stroke-linejoin="round" transform="matrix(1 0 0 -1 250 325)" d="M138.969 -36.475L138.486 -37.232L137.656 -38.41L136.755 -39.573L135.784 -40.721L134.744 -41.852L133.636 -42.966L132.46 -44.062L131.216 -45.14L129.907 -46.199L128.531 -47.238L127.091 -48.257L125.587 -49.255L124.02 -50.232L122.391 -51.186L120.701 -52.118L118.951 -53.026L117.142 -53.911L115.275 -54.771L113.351 -55.607L111.371 -56.417L109.337 -57.201L107.25 -57.959L105.111 -58.69L102.921 -59.394L100.682 -60.071L98.395 -60.719L96.061 -61.339L93.682 -61.93L91.26 -62.492L88.795 -63.025L86.289 -63.527L83.743 -64L81.16 -64.442L78.541 -64.854L75.887 -65.234L73.2 -65.584L70.482 -65.902L67.733 -66.188L64.957 -66.443L62.154 -66.666L59.327 -66.857L56.476 -67.016L53.604 -67.143L50.712 -67.237L47.802 -67.299L44.876 -67.329L41.936 -67.326L38.983 -67.291L36.02 -67.223L33.047 -67.123L30.067 -66.991L27.082 -66.826L24.092 -66.63L21.102 -66.401L18.11 -66.141L15.121 -65.849L12.135 -65.525L9.155 -65.17L6.18201 -64.784L3.217 -64.368L0.264008 -63.92L-2.677 -63.442L-5.604 -62.934L-8.515 -62.397L-11.408 -61.83L-14.282 -61.233L-17.134 -60.609L-19.963 -59.955L-22.768 -59.274L-25.546 -58.565L-28.297 -57.829L-31.017 -57.067L-33.706 -56.278L-36.363 -55.463L-38.984 -54.624L-41.57 -53.759L-44.118 -52.87L-46.627 -51.958L-49.095 -51.022L-51.52 -50.064L-53.903 -49.083L-56.239 -48.082L-58.53 -47.059L-60.772 -46.017L-62.966 -44.954L-65.108 -43.873L-67.199 -42.774L-69.237 -41.657L-71.22 -40.523L-73.148 -39.373L-75.019 -38.207L-76.832 -37.026L-78.587 -35.831L-80.281 -34.623L-81.914 -33.402L-83.486 -32.169L-84.994 -30.925L-86.439 -29.67L-87.818 -28.406L-89.133 -27.132L-90.381 -25.851L-91.562 -24.562L-92.675 -23.266L-93.719 -21.965L-94.695 -20.658L-95.601 -19.348L-96.436 -18.033L-97.201 -16.716L-97.895 -15.397L-98.517 -14.077L-99.065 -12.761" />
    <path fill="none" stroke="black" stroke-width="24" stroke-linecap="round" stroke-linejoin="round" transform="matrix(1 0 0 -1 250 325)" d="M24.814 75.82L19.639 76.193L14.476 76.464L9.33299 76.633L4.222 76.699L-0.848007 76.663L-5.866 76.525L-10.822 76.284L-15.706 75.942L-20.508 75.499L-25.219 74.955L-29.828 74.313L-31.142 74.118L-35.739 73.362L-40.214 72.508L-44.558 71.557L-48.763 70.511L-52.82 69.372L-56.72 68.144L-60.456 66.827L-62.293 66.172L-65.928 64.742L-69.381 63.229L-72.644 61.635L-74.544 60.601L-77.665 58.899L-80.581 57.122L-83.286 55.273L-85.159 53.879L-87.685 51.931L-89.986 49.918L-91.72 48.221L-93.819 46.119L-95.679 43.959L-97.223 41.994L-98.861 39.756L-100.251 37.468L-101.559 35.278L-102.709 32.925L-103.738 30.572L-104.64 28.163L-105.371 25.687L-106.018 23.233L-106.437 20.678L-106.824 18.189L-106.95 15.674L-107.049 13.086L-106.914 10.553L-106.692 7.98099L-106.297 5.44101L-105.759 2.92899L-105.109 0.393005L-105.017 0.130005L-104.265 -2.01401L-103.367 -4.534L-102.217 -7.05399L-101.096 -9.28799L-99.712 -11.777L-99.065 -12.761L-98.083 -14.256L-96.722 -16.266L-94.876 -18.699L-92.796 -21.113L-91.239 -22.854L-88.965 -25.207L-86.469 -27.532L-83.756 -29.824L-82.1 -31.218L-79.227 -33.433L-76.152 -35.607L-72.882 -37.735L-71.21 -38.746L-67.818 -40.783L-64.247 -42.768L-60.504 -44.696L-56.598 -46.563L-52.536 -48.365L-48.326 -50.098L-43.976 -51.76L-42.725 -52.214L-38.34 -53.766L-33.837 -55.242L-29.223 -56.638L-24.509 -57.952L-19.703 -59.181L-14.816 -60.321L-9.858 -61.372L-4.838 -62.331L0.233994 -63.196L5.34599 -63.965L10.49 -64.637L15.654 -65.21L20.829 -65.683L26.003 -66.055L31.167 -66.326L36.31 -66.495L41.421 -66.562L46.491 -66.526L51.509 -66.387L56.465 -66.147L61.349 -65.804L66.151 -65.361L70.861 -64.818L75.471 -64.175L76.785 -63.981L81.382 -63.225L85.857 -62.37L90.201 -61.419L94.406 -60.373L98.462 -59.235L102.363 -58.006L106.099 -56.689L107.936 -56.034L111.571 -54.605L115.024 -53.091L118.287 -51.497L120.187 -50.463L123.308 -48.762L126.224 -46.984L128.929 -45.135L130.802 -43.741L133.328 -41.793L135.629 -39.78L137.363 -38.083L138.969 -36.475L139.461 -35.981L141.322 -33.821L142.866 -31.857L144.504 -29.619L145.894 -27.331L147.148 -25.231L147.202 -25.141L148.352 -22.788L149.381 -20.434L150.283 -18.026L151.014 -15.55L151.661 -13.096L152.08 -10.54L152.467 -8.052L152.593 -5.53699L152.692 -2.94901L152.557 -0.415009L152.335 2.15701L151.94 4.69699L151.402 7.20901L150.752 9.74399L149.908 12.152L149.01 14.671L147.86 17.192L146.739 19.425L145.355 21.914L143.726 24.394L142.364 26.404L140.519 28.836L138.439 31.25L136.882 32.991L134.608 35.345L132.112 37.67L129.399 39.962L127.743 41.355L124.87 43.57L121.795 45.744L118.525 47.873L116.853 48.883L113.461 50.921L109.89 52.906L106.147 54.834L102.241 56.7L98.179 58.502L93.969 60.236L89.619 61.897L88.368 62.351L83.983 63.904L79.48 65.38L74.866 66.776L70.152 68.09L65.346 69.318L60.459 70.459L55.501 71.51L50.481 72.469L45.409 73.333L40.297 74.102L35.153 74.774L29.989 75.347L24.814 75.82" />
    <path fill="none" stroke="black" stroke-width="24" stroke-linecap="round" stroke-linejoin="round" transform="matrix(1 0 0 -1 250 325)" d="M-55.979 14.901L-56.005 14.959L-56.093 15.152L-56.154 15.286L-56.728 16.896" />
    <path fill="none" stroke="black" stroke-width="24" stroke-linecap="round" stroke-linejoin="round" transform="matrix(1 0 0 -1 250 325)" d="M-55.62 14.259L-55.63 14.274L-55.674 14.353L-55.676 14.356L-55.954 14.856L-55.976 14.895L-55.979 14.901L-56 14.939L-56.078 15.079L-56.115 15.146L-56.54 15.909" />
    <path fill="none" stroke="black" stroke-width="24" stroke-linecap="round" stroke-linejoin="round" transform="matrix(1 0 0 -1 250 325)" d="M-54.287 12.562L-54.561 12.88L-54.577 12.898L-54.584 12.906L-54.643 12.975L-54.645 12.977L-54.667 13.003L-55.62 14.259L-55.677 14.334L-55.679 14.336L-55.785 14.477L-55.892 14.617L-55.921 14.655" />
    <path fill="none" stroke="black" stroke-width="24" stroke-linecap="round" stroke-linejoin="round" transform="matrix(1 0 0 -1 250 325)" d="M-51.119 9.52802L-51.449 9.806L-53.209 11.446L-54.287 12.562L-54.58 12.865L-54.598 12.883L-54.605 12.89L-54.665 12.953L-54.667 12.955L-54.812 13.105" />
    <path fill="none" stroke="black" stroke-width="24" stroke-linecap="round" stroke-linejoin="round" transform="matrix(1 0 0 -1 250 325)" d="M-44.547 4.87799L-46.817 6.35599L-49.079 7.95401L-51.119 9.52802L-51.192 9.58401" />
    <path fill="none" stroke="black" stroke-width="24" stroke-linecap="round" stroke-linejoin="round" transform="matrix(1 0 0 -1 250 325)" d="M120.187 -50.463L116.865 -52.086L113.352 -53.626L109.652 -55.081L105.775 -56.447L101.727 -57.723L97.516 -58.904L93.152 -59.99L88.644 -60.977L83.999 -61.864L79.228 -62.649L74.34 -63.33L69.344 -63.906L64.252 -64.376L59.073 -64.739L53.818 -64.994L48.497 -65.141L43.121 -65.179L37.701 -65.109L32.248 -64.93L26.772 -64.642L21.285 -64.247L15.798 -63.745L10.321 -63.138L4.867 -62.425L-0.554993 -61.61L-5.933 -60.693L-11.256 -59.676L-16.514 -58.562L-21.696 -57.352L-26.791 -56.05L-31.791 -54.657L-36.683 -53.176L-41.459 -51.611L-46.108 -49.964L-50.623 -48.24L-54.992 -46.441L-59.208 -44.57L-63.263 -42.633L-67.147 -40.632L-70.853 -38.572L-74.374 -36.457L-77.703 -34.291L-80.832 -32.079L-83.756 -29.824" />
    <path fill="none" stroke="black" stroke-width="24" stroke-linecap="round" stroke-linejoin="round" transform="matrix(1 0 0 -1 250 325)" d="M-25.524 -4.06201L-28.467 -2.93799L-31.708 -1.603L-34.835 -0.216003L-37.842 1.22101L-40.723 2.70499L-43.472 4.23199L-44.547 4.87799L-46.083 5.80099" />
    <path fill="none" stroke="black" stroke-width="24" stroke-linecap="round" stroke-linejoin="round" transform="matrix(1 0 0 -1 250 325)" d="M69.152 -13.429L68.301 -13.548L65.427 -13.949L61.62 -14.388L57.739 -14.746L53.792 -15.023L49.786 -15.217L45.731 -15.329L41.634 -15.358L37.503 -15.304L33.347 -15.168L29.174 -14.949L24.992 -14.648L20.81 -14.265L16.637 -13.802L12.48 -13.259L8.34801 -12.638L4.24899 -11.939L0.192001 -11.164L-3.815 -10.315L-7.765 -9.39301L-11.648 -8.39999L-15.458 -7.33801L-19.187 -6.20999L-22.826 -5.017L-25.524 -4.06201L-26.37 -3.76199" />
    <path fill="none" stroke="black" stroke-width="24" stroke-linecap="round" stroke-linejoin="round" transform="matrix(1 0 0 -1 250 325)" d="M90.403 -8.01099L88.765 -8.58899L87.527 -9.02499L84.525 -9.97101L81.402 -10.847L78.166 -11.652L74.822 -12.384L71.377 -13.042L68.301 -13.548" />
    <path fill="none" stroke="black" stroke-width="24" stroke-linecap="round" stroke-linejoin="round" transform="matrix(1 0 0 -1 250 325)" d="M96.178 -5.32999L96.154 -5.34201L93.778 -6.50299L91.239 -7.616L88.765 -8.58899" />
    <path fill="none" stroke="black" stroke-width="24" stroke-linecap="round" stroke-linejoin="round" transform="matrix(1 0 0 -1 250 325)" d="M100.444 -2.60699L100.325 -2.68799L100.322 -2.69L100.251 -2.73901L100.241 -2.746L100.22 -2.76001L99.876 -2.995L98.536 -3.91101L96.48 -5.164L96.154 -5.34201" />
    <path fill="none" stroke="black" stroke-width="24" stroke-linecap="round" stroke-linejoin="round" transform="matrix(1 0 0 -1 250 325)" d="M101.849 -1.311L101.848 -1.31201L101.719 -1.42499L101.592 -1.53601L101.59 -1.53799L101.509 -1.60901L100.307 -2.66101L100.305 -2.66299L100.287 -2.67801L100.233 -2.71899L100.223 -2.72699L100.204 -2.742L99.876 -2.995" />
    <path fill="none" stroke="black" stroke-width="24" stroke-linecap="round" stroke-linejoin="round" transform="matrix(1 0 0 -1 250 325)" d="M102.716 -0.208008L102.186 -0.822998L102.13 -0.888L102.024 -1.01099L102.01 -1.02802L101.992 -1.048L101.967 -1.077L101.593 -1.51099L101.591 -1.513L101.509 -1.60901" />
    <path fill="none" stroke="black" stroke-width="24" stroke-linecap="round" stroke-linejoin="round" transform="matrix(1 0 0 -1 250 325)" d="M103.107 0.720001L102.219 -0.742004L102.157 -0.825989L102.029 -1.00201L102.01 -1.02802" />
    <path fill="none" stroke="black" stroke-width="24" stroke-linecap="round" stroke-linejoin="round" transform="matrix(1 0 0 -1 250 325)" d="M102.519 0.00100708L102.029 -1.00201" />
    <path fill="none" stroke="black" stroke-width="24" stroke-linecap="round" stroke-linejoin="round" transform="matrix(1 0 0 -1 250 325)" d="M102.045 -0.869995L101.967 -1.077" />
    <path fill="none" stroke="black" stroke-width="24" stroke-linecap="round" stroke-linejoin="round" transform="matrix(1 0 0 -1 250 325)" d="M101.599 -1.36899L101.591 -1.513" />
    <path fill="none" stroke="black" stroke-width="24" stroke-linecap="round" stroke-linejoin="round" transform="matrix(1 0 0 -1 250 325)" d="M100.203 -2.508L100.305 -2.66299" />
    <path fill="none" stroke="black" stroke-width="24" stroke-linecap="round" stroke-linejoin="round" transform="matrix(1 0 0 -1 250 325)" d="M98.898 -1.22699L99.93 -2.42499L100.204 -2.742" />
    <path fill="none" stroke="black" stroke-width="24" stroke-linecap="round" stroke-linejoin="round" transform="matrix(1 0 0 -1 250 325)" d="M-56.005 14.959L-56.291 16.073" />
    <path fill="none" stroke="black" stroke-width="24" stroke-linecap="round" stroke-linejoin="round" transform="matrix(1 0 0 -1 250 325)" d="M-55.954 14.856L-55.995 15.124" />
    <path fill="none" stroke="black" stroke-width="24" stroke-linecap="round" stroke-linejoin="round" transform="matrix(1 0 0 -1 250 325)" d="M-55.674 14.353L-55.645 14.544" />
    <path fill="none" stroke="black" stroke-width="24" stroke-linecap="round" stroke-linejoin="round" transform="matrix(1 0 0 -1 250 325)" d="M-54.643 12.975L-54.472 13.146" />
  </g>
</svg>