<?xml version='1.0' encoding='utf-8'?>
<svg xmlns="http://www.w3.org/2000/svg" version="1.1" width="500" height="650" viewBox="0 0 500 650">
  <g>
    <path fill="none" stroke="none" transform="matrix(1 0 0 -1 250 325)" d="M-95.825 -3.57199L-101.21 -10.584L-101.951 -11.589L-102.615 -12.606L-103.201 -13.635L-103.709 -14.675L-104.137 -15.725L-107.529 -25.132L-107.775 -25.814L-108.132 -26.895L-108.408 -27.986L-108.602 -29.085L-108.716 -30.192L-109.63 -40.15L-110.544 -50.108L-111.459 -60.066L-112.373 -70.024L-113.287 -79.983L-114.202 -89.941L-115.116 -99.899L-116.03 -109.857L-116.945 -119.815L-117.859 -129.773L-118.773 -139.731L-119.688 -149.689L-120.602 -159.647L-121.516 -169.606L-121.711 -171.722L-121.743 -172.836L-121.694 -173.957L-121.564 -175.083L-121.352 -176.215L-121.06 -177.352L-119.093 -184.745L-118.727 -185.863L-118.282 -186.984L-117.759 -188.107L-117.156 -189.232L-116.476 -190.358L-115.718 -191.485L-114.882 -192.611L-113.97 -193.736L-112.982 -194.859L-111.918 -195.98L-110.78 -197.099L-109.567 -198.213L-108.28 -199.323L-106.921 -200.428L-105.489 -201.528L-97.547 -207.603L-94.162 -210.192L-92.816 -211.172L-91.406 -212.145L-89.934 -213.112L-88.402 -214.071L-86.809 -215.022L-85.156 -215.965L-83.446 -216.898L-81.678 -217.822L-79.854 -218.735L-77.975 -219.638L-76.041 -220.529L-74.056 -221.408L-72.018 -222.275L-69.93 -223.128L-67.793 -223.969L-65.608 -224.795L-63.377 -225.607L-61.1 -226.404L-58.78 -227.185L-56.417 -227.95L-54.014 -228.699L-51.571 -229.431L-49.089 -230.146L-46.572 -230.844L-44.019 -231.523L-41.432 -232.183L-38.814 -232.825L-36.165 -233.447L-33.488 -234.049L-30.783 -234.632L-28.053 -235.194L-25.299 -235.735L-22.523 -236.255L-19.726 -236.754L-16.91 -237.231L-14.077 -237.686L-11.229 -238.119L-8.367 -238.529L-5.493 -238.917L-2.608 -239.281L0.285004 -239.623L3.185 -239.941L6.089 -240.235L8.998 -240.506L11.907 -240.752L14.817 -240.975L17.725 -241.173L20.629 -241.347L23.527 -241.496L26.419 -241.621L29.301 -241.721L32.173 -241.797L35.032 -241.847L37.878 -241.873L40.707 -241.875L43.519 -241.851L46.312 -241.803L49.084 -241.73L51.833 -241.632L54.558 -241.51L57.257 -241.363L59.929 -241.191L62.571 -240.996L65.183 -240.775L67.763 -240.531L70.308 -240.263L72.819 -239.971L75.292 -239.656L77.727 -239.317L80.123 -238.955L82.477 -238.569L84.788 -238.161L87.055 -237.731L89.277 -237.278L91.452 -236.803L93.579 -236.306L95.657 -235.788L97.684 -235.249L99.659 -234.689L101.581 -234.109L103.448 -233.508L105.261 -232.888L107.017 -232.248L108.716 -231.59L110.356 -230.913L111.937 -230.217L113.457 -229.504L114.916 -228.774L123.832 -224.246L127.75 -222.256L129.308 -221.423L130.796 -220.571L132.212 -219.701L133.557 -218.814L134.828 -217.91L136.026 -216.989L137.149 -216.054L138.197 -215.103L139.17 -214.137L140.066 -213.158L140.886 -212.165L141.628 -211.16L142.292 -210.142L142.878 -209.113L143.385 -208.072L146.672 -201.146L147.11 -200.074L147.466 -198.993L147.742 -197.902L147.937 -196.803L148.05 -195.696L148.965 -185.738L149.879 -175.78L150.793 -165.822L151.708 -155.864L152.622 -145.906L153.536 -135.948L154.451 -125.99L155.365 -116.031L156.279 -106.073L157.194 -96.115L158.108 -86.157L159.022 -76.199L159.937 -66.241L160.851 -56.283L161.045 -54.166L161.078 -53.052L161.028 -51.932L160.898 -50.805L159.276 -40.937L159.157 -40.215L158.95 -39.106L158.663 -37.993L158.297 -36.875L157.853 -35.755L157.329 -34.632L153.105 -26.354" />
    <path fill="none" stroke="black" stroke-width="24" stroke-linecap="round" stroke-linejoin="round" transform="matrix(1 0 0 -1 250 325)" d="M-95.825 -3.57199L-101.21 -10.584L-101.951 -11.589L-102.615 -12.606L-103.201 -13.635L-103.709 -14.675L-104.137 -15.725L-107.529 -25.132L-107.775 -25.814L-108.132 -26.895L-108.408 -27.986L-108.602 -29.085L-108.716 -30.192L-109.63 -40.15L-110.544 -50.108L-111.459 -60.066L-112.373 -70.024L-113.287 -79.983L-114.202 -89.941L-115.116 -99.899L-116.03 -109.857L-116.945 -119.815L-117.859 -129.773L-118.773 -139.731L-119.688 -149.689L-120.602 -159.647L-121.516 -169.606L-121.711 -171.722L-121.743 -172.836L-121.694 -173.957L-121.564 -175.083L-121.352 -176.215L-121.06 -177.352L-119.093 -184.745L-118.727 -185.863L-118.282 -186.984L-117.759 -188.107L-117.156 -189.232L-116.476 -190.358L-115.718 -191.485L-114.882 -192.611L-113.97 -193.736L-112.982 -194.859L-111.918 -195.98L-110.78 -197.099L-109.567 -198.213L-108.28 -199.323L-106.921 -200.428L-105.489 -201.528L-97.547 -207.603L-94.162 -210.192L-92.816 -211.172L-91.406 -212.145L-89.934 -213.112L-88.402 -214.071L-86.809 -215.022L-85.156 -215.965L-83.446 -216.898L-81.678 -217.822L-79.854 -218.735L-77.975 -219.638L-76.041 -220.529L-74.056 -221.408L-72.018 -222.275L-69.93 -223.128L-67.793 -223.969L-65.608 -224.795L-63.377 -225.607L-61.1 -226.404L-58.78 -227.185L-56.417 -227.95L-54.014 -228.699L-51.571 -229.431L-49.089 -230.146L-46.572 -230.844L-44.019 -231.523L-41.432 -232.183L-38.814 -232.825L-36.165 -233.447L-33.488 -234.049L-30.783 -234.632L-28.053 -235.194L-25.299 -235.735L-22.523 -236.255L-19.726 -236.754L-16.91 -237.231L-14.077 -237.686L-11.229 -238.119L-8.367 -238.529L-5.493 -238.917L-2.608 -239.281L0.285004 -239.623L3.185 -239.941L6.089 -240.235L8.998 -240.506L11.907 -240.752L14.817 -240.975L17.725 -241.173L20.629 -241.347L23.527 -241.496L26.419 -241.621L29.301 -241.721L32.173 -241.797L35.032 -241.847L37.878 -241.873L40.707 -241.875L43.519 -241.851L46.312 -241.803L49.084 -241.73L51.833 -241.632L54.558 -241.51L57.257 -241.363L59.929 -241.191L62.571 -240.996L65.183 -240.775L67.763 -240.531L70.308 -240.263L72.819 -239.971L75.292 -239.656L77.727 -239.317L80.123 -238.955L82.477 -238.569L84.788 -238.161L87.055 -237.731L89.277 -237.278L91.452 -236.803L93.579 -236.306L95.657 -235.788L97.684 -235.249L99.659 -234.689L101.581 -234.109L103.448 -233.508L105.261 -232.888L107.017 -232.248L108.716 -231.59L110.356 -230.913L111.937 -230.217L113.457 -229.504L114.916 -228.774L123.832 -224.246L127.75 -222.256L129.308 -221.423L130.796 -220.571L132.212 -219.701L133.557 -218.814L134.828 -217.91L136.026 -216.989L137.149 -216.054L138.197 -215.103L139.17 -214.137L140.066 -213.158L140.886 -212.165L141.628 -211.16L142.292 -210.142L142.878 -209.113L143.385 -208.072L146.672 -201.146L147.11 -200.074L147.466 -198.993L147.742 -197.902L147.937 -196.803L148.05 -195.696L148.965 -185.738L149.879 -175.78L150.793 -165.822L151.708 -155.864L152.622 -145.906L153.536 -135.948L154.451 -125.99L155.365 -116.031L156.279 -106.073L157.194 -96.115L158.108 -86.157L159.022 -76.199L159.937 -66.241L160.851 -56.283L161.045 -54.166L161.078 -53.052L161.028 -51.932L160.898 -50.805L159.276 -40.937L159.157 -40.215L158.95 -39.106L158.663 -37.993L158.297 -36.875L157.853 -35.755L157.329 -34.632L153.105 -26.354" />
    <path fill="none" stroke="black" stroke-width="24" stroke-linecap="round" stroke-linejoin="round" transform="matrix(1 0 0 -1 250 325)" d="M149.159 -31.17L148.831 -31.841L148.291 -32.79L147.679 -33.728L146.995 -34.655L146.239 -35.57L145.413 -36.473L144.517 -37.363L143.551 -38.239L142.515 -39.102L141.411 -39.95L140.239 -40.783L139 -41.601L137.694 -42.403L136.323 -43.188L134.887 -43.957L133.386 -44.708L131.823 -45.441L130.198 -46.156L128.511 -46.853L126.764 -47.53L124.958 -48.188L123.094 -48.826L121.174 -49.443L119.197 -50.04L117.166 -50.616L115.082 -51.17L112.945 -51.703L110.758 -52.214L108.521 -52.702L106.236 -53.168L103.905 -53.611L101.528 -54.03L99.107 -54.426L96.644 -54.799L94.14 -55.147L91.596 -55.472L89.015 -55.772L86.397 -56.048L83.744 -56.299L81.058 -56.525L78.341 -56.727L75.594 -56.903L72.818 -57.054L70.016 -57.18L67.189 -57.28L64.338 -57.355L61.466 -57.405L61.272 -57.407L58.575 -57.429L55.665 -57.428L52.739 -57.401L49.799 -57.349L46.845 -57.271L43.881 -57.168L40.908 -57.04L37.927 -56.886L34.941 -56.707L31.951 -56.504L28.959 -56.275L25.966 -56.021L22.976 -55.743L19.989 -55.44L17.007 -55.114L14.032 -54.763L11.065 -54.388L8.11 -53.989L5.166 -53.567L2.237 -53.122L-0.675995 -52.654L-3.571 -52.163L-6.44701 -51.65L-9.302 -51.116L-12.135 -50.559L-12.583 -50.467L-14.942 -49.981L-17.723 -49.382L-20.477 -48.762L-23.2 -48.123L-25.893 -47.463L-28.553 -46.784L-31.178 -46.085L-33.767 -45.369L-36.319 -44.633L-38.831 -43.88L-41.303 -43.11L-43.733 -42.323L-46.119 -41.52L-48.46 -40.7L-50.754 -39.865L-53.001 -39.016L-55.199 -38.152L-57.346 -37.274L-59.441 -36.382L-61.483 -35.478L-63.471 -34.562L-65.403 -33.634L-67.279 -32.695L-69.097 -31.745L-70.856 -30.785L-72.555 -29.816L-74.194 -28.838L-75.77 -27.851L-77.283 -26.857L-78.733 -25.856L-80.118 -24.849L-81.437 -23.835L-82.69 -22.817L-83.876 -21.793L-84.994 -20.766L-86.044 -19.735L-87.025 -18.702L-87.935 -17.666L-88.776 -16.629L-89.546 -15.591L-90.245 -14.553L-90.872 -13.515L-91.427 -12.478L-91.91 -11.442L-92.321 -10.409L-92.658 -9.37799L-92.685 -9.27301" />
    <path fill="none" stroke="black" stroke-width="24" stroke-linecap="round" stroke-linejoin="round" transform="matrix(1 0 0 -1 250 325)" d="M61.272 -57.407L63.409 -57.362L68.18 -57.183L72.87 -56.926L77.471 -56.591L81.973 -56.179L83.326 -56.035L87.823 -55.535L92.201 -54.959L96.449 -54.306L100.561 -53.58L104.527 -52.78L108.34 -51.909L111.992 -50.968L115.476 -49.96L117.485 -49.365L120.865 -48.267L124.059 -47.105L127.061 -45.88L129.864 -44.595L132.013 -43.602L134.664 -42.233L137.101 -40.808L139.19 -39.48L141.448 -37.975L143.479 -36.42L145.45 -34.781L147.278 -33.153L148.868 -31.48L149.159 -31.17L150.667 -29.56L152.033 -27.822L153.105 -26.354L153.6 -25.677L154.732 -23.88L156.038 -21.544L156.925 -19.696L157.947 -17.206L158.582 -15.314L159.303 -12.711L159.68 -10.783L160.087 -8.108L160.203 -6.15302L160.29 -3.45001L160.144 -1.47601L159.91 1.21201L159.505 3.19501L158.954 5.82401L158.294 7.80801L157.438 10.335L156.53 12.311L155.386 14.696L154.238 16.655L152.827 18.858L151.451 20.793L149.799 22.779L148.207 24.681L146.38 26.576L144.55 28.28L142.529 30.131L140.285 31.969L137.824 33.789L135.915 35.14L133.293 36.904L130.467 38.642L127.443 40.353L124.228 42.032L122.394 42.966L119.065 44.574L115.562 46.146L111.892 47.677L108.061 49.164L104.078 50.604L99.95 51.995L95.686 53.333L94.331 53.737L90.04 54.991L85.633 56.188L81.12 57.326L76.508 58.404L71.808 59.418L67.028 60.367L62.179 61.248L57.27 62.061L52.311 62.803L47.312 63.473L42.283 64.069L37.234 64.591L32.176 65.037L27.118 65.406L22.071 65.698L17.045 65.912L12.05 66.048L7.09599 66.105L2.194 66.083L-2.64799 65.982L-7.41901 65.803L-12.11 65.546L-16.711 65.211L-21.213 64.799L-22.566 64.655L-27.063 64.155L-31.44 63.579L-35.689 62.926L-39.801 62.2L-43.767 61.4L-47.58 60.529L-51.232 59.588L-54.716 58.58L-56.725 57.985L-60.105 56.888L-63.299 55.725L-66.301 54.5L-69.104 53.215L-71.253 52.222L-73.903 50.853L-76.34 49.428L-78.429 48.1L-80.687 46.595L-82.718 45.04L-84.689 43.401L-86.518 41.773L-88.108 40.1L-89.906 38.18L-91.273 36.442L-92.839 34.297L-93.971 32.5L-95.277 30.164L-96.164 28.316L-97.187 25.826L-97.821 23.934L-98.543 21.331L-98.919 19.403L-99.327 16.728L-99.443 14.773L-99.529 12.07L-99.384 10.096L-99.149 7.409L-98.744 5.42499L-98.194 2.79599L-97.534 0.812012L-96.678 -1.715L-95.825 -3.57199L-95.77 -3.69101L-94.626 -6.07599L-93.478 -8.035L-92.685 -9.27301L-92.067 -10.238L-90.691 -12.173L-89.039 -14.159L-87.446 -16.061L-85.62 -17.956L-83.789 -19.659L-81.768 -21.511L-79.525 -23.349L-77.063 -25.169L-75.155 -26.52L-72.532 -28.283L-69.706 -30.022L-66.683 -31.733L-63.467 -33.412L-61.633 -34.345L-58.305 -35.954L-54.802 -37.526L-51.131 -39.057L-47.3 -40.544L-43.317 -41.984L-39.19 -43.375L-34.926 -44.713L-33.57 -45.117L-29.28 -46.371L-24.873 -47.568L-20.359 -48.706L-15.748 -49.784L-12.583 -50.467" />
    <path fill="none" stroke="black" stroke-width="24" stroke-linecap="round" stroke-linejoin="round" transform="matrix(1 0 0 -1 250 325)" d="M-49.034 17.859L-49.776 18.628L-49.78 18.634L-49.783 18.636L-49.98 18.841L-50.048 18.911L-51.171 20.253" />
    <path fill="none" stroke="black" stroke-width="24" stroke-linecap="round" stroke-linejoin="round" transform="matrix(1 0 0 -1 250 325)" d="M-46.666 15.983L-47.453 16.565L-49.034 17.859L-49.103 17.916L-49.582 18.354L-49.626 18.395L-49.653 18.42L-49.7 18.462L-49.792 18.547L-50.59 19.278" />
    <path fill="none" stroke="black" stroke-width="24" stroke-linecap="round" stroke-linejoin="round" transform="matrix(1 0 0 -1 250 325)" d="M139.19 -39.48L136.709 -40.93L134.012 -42.323L131.102 -43.657L127.987 -44.928L124.672 -46.135L121.164 -47.274L117.47 -48.343L113.597 -49.34L109.554 -50.264L105.348 -51.112L100.988 -51.883L96.482 -52.574L91.841 -53.185L87.072 -53.715L82.186 -54.162L77.193 -54.526L72.102 -54.805L66.924 -54.999L61.67 -55.108L56.349 -55.132L50.973 -55.07L45.552 -54.923L40.097 -54.691L34.62 -54.374L29.131 -53.973L23.642 -53.489L18.162 -52.923L12.705 -52.276L7.27901 -51.549L1.89799 -50.744L-3.42999 -49.862L-8.69299 -48.905L-13.88 -47.875L-18.981 -46.775L-23.986 -45.605L-28.884 -44.37L-33.667 -43.07L-38.323 -41.71L-42.844 -40.291L-47.221 -38.816L-51.445 -37.289L-55.507 -35.712L-59.4 -34.088L-63.114 -32.422L-66.644 -30.716L-69.981 -28.973L-73.119 -27.198L-76.052 -25.394L-78.774 -23.563L-81.279 -21.711L-83.563 -19.841L-85.62 -17.956" />
    <path fill="none" stroke="black" stroke-width="24" stroke-linecap="round" stroke-linejoin="round" transform="matrix(1 0 0 -1 250 325)" d="M-39.791 11.918L-41.03 12.565L-43.357 13.882L-45.533 15.22L-46.666 15.983L-47.551 16.578" />
    <path fill="none" stroke="black" stroke-width="24" stroke-linecap="round" stroke-linejoin="round" transform="matrix(1 0 0 -1 250 325)" d="M-19.174 3.94501L-22.25 4.91L-25.586 6.034L-28.805 7.198L-31.901 8.39999L-34.867 9.63699L-36.734 10.474L-37.698 10.907L-39.791 11.918L-40.388 12.207" />
    <path fill="none" stroke="black" stroke-width="24" stroke-linecap="round" stroke-linejoin="round" transform="matrix(1 0 0 -1 250 325)" d="M78.116 -5.17599L77.837 -5.202L74.287 -5.52701L70.373 -5.81201L66.383 -6.03L62.325 -6.18301L58.207 -6.26801L54.037 -6.28699L49.824 -6.23801L45.575 -6.12299L41.3 -5.94101L37.008 -5.69299L32.706 -5.379L28.403 -4.99899L24.109 -4.556L19.832 -4.048L15.58 -3.479L11.362 -2.84799L7.187 -2.15601L3.062 -1.40701L-1.00301 -0.600006L-5.00101 0.263L-8.923 1.17899L-12.762 2.14801L-16.51 3.16599L-19.174 3.94501L-20.16 4.233" />
    <path fill="none" stroke="black" stroke-width="24" stroke-linecap="round" stroke-linejoin="round" transform="matrix(1 0 0 -1 250 325)" d="M102.745 -0.411987L101.131 -0.878998L99.93 -1.22699L97.494 -1.854L96.978 -1.987L93.897 -2.69101L90.691 -3.33701L87.368 -3.92499L83.935 -4.452L80.397 -4.91699L77.837 -5.202" />
    <path fill="none" stroke="black" stroke-width="24" stroke-linecap="round" stroke-linejoin="round" transform="matrix(1 0 0 -1 250 325)" d="M110.265 2.664L109.993 2.54001L109.961 2.52499L108.269 1.74899L108.107 1.67499L105.797 0.731995L103.338 -0.162994L101.131 -0.878998" />
    <path fill="none" stroke="black" stroke-width="24" stroke-linecap="round" stroke-linejoin="round" transform="matrix(1 0 0 -1 250 325)" d="M111.858 3.72501L111.737 3.655L111.699 3.63199L111.652 3.60501L111.621 3.58701L111.493 3.51199L111.08 3.26999L110.066 2.677L108.269 1.74899" />
    <path fill="none" stroke="black" stroke-width="24" stroke-linecap="round" stroke-linejoin="round" transform="matrix(1 0 0 -1 250 325)" d="M112.794 4.55499L112.038 3.97601L111.868 3.845L111.838 3.823L111.759 3.76199L111.361 3.45801L111.08 3.26999" />
    <path fill="none" stroke="black" stroke-width="24" stroke-linecap="round" stroke-linejoin="round" transform="matrix(1 0 0 -1 250 325)" d="M113.145 5.15701L112.065 4.021L111.868 3.845" />
    <path fill="none" stroke="black" stroke-width="24" stroke-linecap="round" stroke-linejoin="round" transform="matrix(1 0 0 -1 250 325)" d="M112.244 4.379L111.759 3.76199" />
    <path fill="none" stroke="black" stroke-width="24" stroke-linecap="round" stroke-linejoin="round" transform="matrix(1 0 0 -1 250 325)" d="M-49.78 18.634L-49.785 18.64L-50.454 19.581" />
    <path fill="none" stroke="black" stroke-width="24" stroke-linecap="round" stroke-linejoin="round" transform="matrix(1 0 0 -1 250 325)" d="M-49.776 18.628L-49.797 18.665" />
  </g>
</svg>