<?xml version='1.0' encoding='utf-8'?>
<svg xmlns="http://www.w3.org/2000/svg" version="1.1" width="500" height="650" viewBox="0 0 500 650">
  <g>
    <path fill="none" stroke="none" transform="matrix(1 0 0 -1 250 325)" d="M-126.087 -33.07L-126.352 -33.461L-127.259 -34.809L-128.09 -36.167L-128.843 -37.534L-129.517 -38.908L-130.114 -40.289L-130.632 -41.677L-131.071 -43.07L-133.739 -52.707L-133.8 -52.93L-134.167 -54.356L-134.453 -55.785L-134.657 -57.218L-134.78 -58.652L-134.821 -60.088L-134.86 -70.088L-134.899 -80.087L-134.938 -90.087L-134.977 -100.087L-135.016 -110.087L-135.055 -120.087L-135.094 -130.087L-135.133 -140.087L-135.172 -150.087L-135.211 -160.087L-135.25 -170.087L-135.289 -180.087L-135.328 -190.087L-135.352 -196.115L-135.312 -197.551L-135.19 -198.986L-134.986 -200.42L-134.702 -201.852L-134.336 -203.28L-133.889 -204.704L-133.361 -206.123L-130.77 -212.922L-130.174 -214.307L-129.5 -215.687L-128.747 -217.059L-127.917 -218.423L-127.01 -219.777L-126.027 -221.123L-124.967 -222.457L-123.832 -223.78L-122.623 -225.091L-121.339 -226.389L-119.983 -227.673L-118.554 -228.943L-117.054 -230.197L-115.483 -231.435L-113.843 -232.657L-112.134 -233.861L-110.357 -235.046L-108.514 -236.213L-106.606 -237.36L-104.633 -238.487L-102.598 -239.592L-93.771 -244.293L-92.002 -245.235L-90.122 -246.207L-88.187 -247.159L-86.2 -248.089L-84.16 -248.999L-82.07 -249.887L-79.93 -250.753L-77.743 -251.596L-75.508 -252.415L-73.228 -253.211L-70.904 -253.983L-68.537 -254.73L-66.128 -255.451L-63.68 -256.147L-61.194 -256.817L-58.671 -257.461L-56.112 -258.077L-53.52 -258.667L-50.895 -259.229L-48.24 -259.763L-45.555 -260.269L-42.843 -260.746L-40.106 -261.194L-37.344 -261.614L-34.56 -262.004L-31.755 -262.364L-28.93 -262.695L-26.089 -262.996L-23.231 -263.266L-20.36 -263.507L-17.476 -263.716L-14.582 -263.896L-11.679 -264.044L-8.769 -264.162L-5.854 -264.249L-2.935 -264.304L-0.0149994 -264.329L2.90601 -264.323L5.825 -264.286L8.74001 -264.218L11.65 -264.119L14.553 -263.99L17.447 -263.829L20.331 -263.638L23.203 -263.416L26.06 -263.164L28.902 -262.882L31.726 -262.569L34.532 -262.227L37.316 -261.855L40.078 -261.453L42.816 -261.023L45.528 -260.563L48.213 -260.074L50.868 -259.557L53.493 -259.012L56.086 -258.44L58.645 -257.84L61.169 -257.212L63.656 -256.558L66.104 -255.878L68.513 -255.172L70.88 -254.441L73.205 -253.684L75.485 -252.903L77.72 -252.098L79.909 -251.269L82.049 -250.417L84.14 -249.543L86.18 -248.646L88.168 -247.728L90.103 -246.789L91.984 -245.83L100.846 -241.198L102.65 -240.255L104.686 -239.163L106.66 -238.049L108.569 -236.914L110.412 -235.759L112.19 -234.585L113.899 -233.392L115.54 -232.181L117.112 -230.953L118.613 -229.709L120.042 -228.448L121.399 -227.173L122.683 -225.883L123.894 -224.58L125.029 -223.264L126.09 -221.937L127.074 -220.598L127.982 -219.249L128.813 -217.89L129.566 -216.523L130.241 -215.148L130.838 -213.766L133.483 -206.985L134.012 -205.569L134.459 -204.148L134.826 -202.722L135.112 -201.292L135.316 -199.86L135.439 -198.425L135.48 -196.99L135.519 -186.99L135.558 -176.99L135.597 -166.99L135.636 -156.99L135.675 -146.99L135.714 -136.99L135.753 -126.99L135.792 -116.99L135.831 -106.99L135.87 -96.99L135.909 -86.991L135.948 -76.991L135.987 -66.991L136.011 -60.962L135.97 -59.526L135.849 -58.091L135.645 -56.657L135.36 -55.226L134.994 -53.798L132.402 -44.14L132.343 -43.92L131.905 -42.525L131.388 -41.134L130.792 -39.749L130.118 -38.37L129.366 -36.998L128.536 -35.635L127.419 -33.96" />
    <path fill="none" stroke="black" stroke-width="24" stroke-linecap="round" stroke-linejoin="round" transform="matrix(1 0 0 -1 250 325)" d="M-126.087 -33.07L-126.352 -33.461L-127.259 -34.809L-128.09 -36.167L-128.843 -37.534L-129.517 -38.908L-130.114 -40.289L-130.632 -41.677L-131.071 -43.07L-133.739 -52.707L-133.8 -52.93L-134.167 -54.356L-134.453 -55.785L-134.657 -57.218L-134.78 -58.652L-134.821 -60.088L-134.86 -70.088L-134.899 -80.087L-134.938 -90.087L-134.977 -100.087L-135.016 -110.087L-135.055 -120.087L-135.094 -130.087L-135.133 -140.087L-135.172 -150.087L-135.211 -160.087L-135.25 -170.087L-135.289 -180.087L-135.328 -190.087L-135.352 -196.115L-135.312 -197.551L-135.19 -198.986L-134.986 -200.42L-134.702 -201.852L-134.336 -203.28L-133.889 -204.704L-133.361 -206.123L-130.77 -212.922L-130.174 -214.307L-129.5 -215.687L-128.747 -217.059L-127.917 -218.423L-127.01 -219.777L-126.027 -221.123L-124.967 -222.457L-123.832 -223.78L-122.623 -225.091L-121.339 -226.389L-119.983 -227.673L-118.554 -228.943L-117.054 -230.197L-115.483 -231.435L-113.843 -232.657L-112.134 -233.861L-110.357 -235.046L-108.514 -236.213L-106.606 -237.36L-104.633 -238.487L-102.598 -239.592L-93.771 -244.293L-92.002 -245.235L-90.122 -246.207L-88.187 -247.159L-86.2 -248.089L-84.16 -248.999L-82.07 -249.887L-79.93 -250.753L-77.743 -251.596L-75.508 -252.415L-73.228 -253.211L-70.904 -253.983L-68.537 -254.73L-66.128 -255.451L-63.68 -256.147L-61.194 -256.817L-58.671 -257.461L-56.112 -258.077L-53.52 -258.667L-50.895 -259.229L-48.24 -259.763L-45.555 -260.269L-42.843 -260.746L-40.106 -261.194L-37.344 -261.614L-34.56 -262.004L-31.755 -262.364L-28.93 -262.695L-26.089 -262.996L-23.231 -263.266L-20.36 -263.507L-17.476 -263.716L-14.582 -263.896L-11.679 -264.044L-8.769 -264.162L-5.854 -264.249L-2.935 -264.304L-0.0149994 -264.329L2.90601 -264.323L5.825 -264.286L8.74001 -264.218L11.65 -264.119L14.553 -263.99L17.447 -263.829L20.331 -263.638L23.203 -263.416L26.06 -263.164L28.902 -262.882L31.726 -262.569L34.532 -262.227L37.316 -261.855L40.078 -261.453L42.816 -261.023L45.528 -260.563L48.213 -260.074L50.868 -259.557L53.493 -259.012L56.086 -258.44L58.645 -257.84L61.169 -257.212L63.656 -256.558L66.104 -255.878L68.513 -255.172L70.88 -254.441L73.205 -253.684L75.485 -252.903L77.72 -252.098L79.909 -251.269L82.049 -250.417L84.14 -249.543L86.18 -248.646L88.168 -247.728L90.103 -246.789L91.984 -245.83L100.846 -241.198L102.65 -240.255L104.686 -239.163L106.66 -238.049L108.569 -236.914L110.412 -235.759L112.19 -234.585L113.899 -233.392L115.54 -232.181L117.112 -230.953L118.613 -229.709L120.042 -228.448L121.399 -227.173L122.683 -225.883L123.894 -224.58L125.029 -223.264L126.09 -221.937L127.074 -220.598L127.982 -219.249L128.813 -217.89L129.566 -216.523L130.241 -215.148L130.838 -213.766L133.483 -206.985L134.012 -205.569L134.459 -204.148L134.826 -202.722L135.112 -201.292L135.316 -199.86L135.439 -198.425L135.48 -196.99L135.519 -186.99L135.558 -176.99L135.597 -166.99L135.636 -156.99L135.675 -146.99L135.714 -136.99L135.753 -126.99L135.792 -116.99L135.831 -106.99L135.87 -96.99L135.909 -86.991L135.948 -76.991L135.987 -66.991L136.011 -60.962L135.97 -59.526L135.849 -58.091L135.645 -56.657L135.36 -55.226L134.994 -53.798L132.402 -44.14L132.343 -43.92L131.905 -42.525L131.388 -41.134L130.792 -39.749L130.118 -38.37L129.366 -36.998L128.536 -35.635L127.419 -33.96" />
    <path fill="none" stroke="black" stroke-width="24" stroke-linecap="round" stroke-linejoin="round" transform="matrix(1 0 0 -1 250 325)" d="M120.297 -46.087L120.099 -46.491L119.404 -47.751L118.639 -49.003L117.802 -50.247L116.894 -51.481L115.917 -52.705L114.87 -53.918L113.754 -55.119L112.571 -56.308L111.32 -57.483L110.002 -58.645L108.618 -59.792L107.17 -60.925L105.657 -62.041L104.081 -63.14L102.443 -64.223L100.743 -65.287L98.983 -66.333L97.164 -67.36L95.287 -68.367L93.353 -69.354L91.363 -70.319L89.319 -71.263L87.221 -72.185L85.071 -73.085L82.87 -73.961L80.62 -74.813L78.321 -75.641L75.976 -76.444L73.586 -77.222L71.151 -77.974L68.674 -78.701L66.156 -79.4L63.599 -80.072L61.004 -80.717L58.372 -81.335L55.706 -81.924L53.007 -82.484L50.276 -83.016L47.515 -83.518L44.726 -83.991L41.911 -84.434L39.07 -84.847L36.207 -85.229L33.322 -85.581L30.418 -85.903L27.495 -86.193L24.557 -86.452L21.604 -86.68L18.638 -86.877L15.662 -87.042L12.677 -87.175L9.68401 -87.277L6.686 -87.347L3.685 -87.385L0.682007 -87.391L-2.32201 -87.366L-5.323 -87.308L-8.321 -87.219L-11.314 -87.098L-14.299 -86.945L-17.275 -86.761L-20.24 -86.545L-23.193 -86.298L-26.132 -86.02L-29.054 -85.711L-31.958 -85.371L-34.843 -85L-37.706 -84.599L-40.546 -84.167L-43.361 -83.706L-46.15 -83.215L-48.91 -82.695L-51.641 -82.146L-54.34 -81.568L-57.006 -80.962L-59.637 -80.328L-62.232 -79.666L-64.789 -78.977L-67.306 -78.261L-69.783 -77.519L-72.217 -76.751L-74.607 -75.958L-76.952 -75.14L-79.25 -74.297L-81.499 -73.43L-83.7 -72.54L-85.849 -71.627L-87.947 -70.691L-89.99 -69.734L-91.98 -68.755L-93.913 -67.756L-95.79 -66.737L-97.608 -65.698L-99.367 -64.641L-101.066 -63.566L-102.704 -62.473L-104.279 -61.363L-105.791 -60.237L-107.239 -59.095L-108.622 -57.939L-109.939 -56.769L-111.19 -55.585L-112.373 -54.389L-113.488 -53.18L-114.534 -51.961L-115.511 -50.73L-116.417 -49.491L-117.254 -48.242L-118.019 -46.984L-118.712 -45.72L-118.817 -45.506" />
    <path fill="none" stroke="black" stroke-width="24" stroke-linecap="round" stroke-linejoin="round" transform="matrix(1 0 0 -1 250 325)" d="M0.811005 54.987L-4.38499 54.954L-9.57001 54.819L-14.735 54.585L-19.868 54.25L-24.96 53.816L-29.999 53.284L-34.977 52.654L-39.883 51.928L-44.707 51.108L-49.439 50.195L-54.07 49.19L-58.59 48.097L-59.884 47.781L-64.38 46.575L-68.746 45.283L-72.971 43.906L-77.047 42.449L-80.967 40.914L-84.722 39.304L-86.42 38.511L-90.074 36.796L-93.545 35.011L-96.826 33.16L-99.91 31.247L-101.704 30.037L-104.636 28.031L-107.357 25.969L-109.859 23.856L-111.591 22.289L-113.906 20.095L-115.99 17.858L-117.554 16.003L-119.428 13.696L-121.06 11.355L-122.408 9.25299L-123.809 6.85501L-124.96 4.43201L-126.051 2.12799L-126.956 -0.337006L-127.753 -2.776L-128.406 -5.272L-128.895 -7.80499L-129.288 -10.321L-129.459 -12.903L-129.591 -15.428L-129.461 -17.954L-129.31 -20.537L-128.918 -23.056L-128.449 -25.592L-127.798 -28.092L-127.02 -30.537L-126.116 -33.007L-126.087 -33.07L-125.044 -35.318L-123.895 -37.749L-122.494 -40.155L-121.164 -42.266L-119.534 -44.618L-118.817 -45.506L-117.661 -46.937L-116.114 -48.802L-114.031 -51.053L-111.716 -53.262L-110 -54.839L-107.499 -56.969L-104.779 -59.048L-101.848 -61.074L-100.068 -62.295L-96.984 -64.228L-93.705 -66.1L-90.235 -67.907L-88.477 -68.745L-84.895 -70.45L-81.141 -72.084L-77.222 -73.645L-73.146 -75.128L-68.922 -76.531L-64.557 -77.852L-60.062 -79.087L-58.777 -79.411L-54.257 -80.534L-49.627 -81.568L-44.895 -82.512L-40.072 -83.364L-35.167 -84.121L-30.189 -84.783L-25.15 -85.348L-20.058 -85.815L-14.925 -86.182L-9.761 -86.451L-4.575 -86.618L0.619995 -86.685L5.81599 -86.652L11.002 -86.518L16.166 -86.283L21.3 -85.948L26.391 -85.514L31.431 -84.982L36.409 -84.352L41.315 -83.627L46.138 -82.806L50.871 -81.893L55.502 -80.889L60.022 -79.795L61.316 -79.479L65.812 -78.273L70.177 -76.981L74.402 -75.605L78.479 -74.148L82.399 -72.613L86.154 -71.003L87.852 -70.209L91.506 -68.494L94.977 -66.709L98.258 -64.859L101.342 -62.946L103.135 -61.736L106.068 -59.729L108.789 -57.667L111.291 -55.554L113.022 -53.987L115.338 -51.793L117.422 -49.556L118.986 -47.701L120.297 -46.087L120.86 -45.395L122.492 -43.053L123.839 -40.951L125.241 -38.553L126.392 -36.13L127.419 -33.96L127.482 -33.826L128.388 -31.361L129.185 -28.922L129.837 -26.426L130.326 -23.893L130.72 -21.377L130.891 -18.795L131.023 -16.27L130.892 -13.744L130.742 -11.161L130.349 -8.642L129.88 -6.10599L129.229 -3.60599L128.451 -1.16101L127.547 1.30899L126.476 3.62L125.326 6.05099L123.926 8.457L122.596 10.568L120.965 12.92L119.093 15.239L117.545 17.104L115.462 19.354L113.148 21.563L111.432 23.141L108.93 25.271L106.211 27.35L103.28 29.376L101.499 30.597L98.416 32.53L95.136 34.402L91.666 36.209L89.909 37.047L86.327 38.752L82.572 40.386L78.654 41.947L74.578 43.43L70.353 44.833L65.989 46.154L61.493 47.389L60.209 47.713L55.689 48.836L51.059 49.87L46.327 50.814L41.504 51.666L36.598 52.423L31.621 53.085L26.581 53.65L21.49 54.117L16.357 54.484L11.192 54.752L6.007 54.92L0.811005 54.987" />
    <path fill="none" stroke="black" stroke-width="24" stroke-linecap="round" stroke-linejoin="round" transform="matrix(1 0 0 -1 250 325)" d="M-78.641 -13.761L-78.651 -13.743L-78.677 -13.699L-78.789 -13.507L-78.838 -13.422L-79.572 -11.869" />
    <path fill="none" stroke="black" stroke-width="24" stroke-linecap="round" stroke-linejoin="round" transform="matrix(1 0 0 -1 250 325)" d="M-78.194 -14.404L-78.202 -14.394L-78.315 -14.231L-78.317 -14.227L-78.626 -13.783L-78.641 -13.761L-78.65 -13.747L-78.669 -13.72L-78.765 -13.582L-78.805 -13.524L-79.273 -12.849" />
    <path fill="none" stroke="black" stroke-width="24" stroke-linecap="round" stroke-linejoin="round" transform="matrix(1 0 0 -1 250 325)" d="M-76.664 -16.002L-77.104 -15.581L-77.137 -15.546L-77.163 -15.518L-77.169 -15.511L-77.212 -15.465L-77.215 -15.462L-78.194 -14.404L-78.317 -14.271L-78.32 -14.268L-78.39 -14.192L-78.506 -14.067L-78.519 -14.053" />
    <path fill="none" stroke="black" stroke-width="24" stroke-linecap="round" stroke-linejoin="round" transform="matrix(1 0 0 -1 250 325)" d="M-73.155 -18.757L-73.568 -18.472L-75.485 -17.005L-76.664 -16.002L-77.167 -15.574L-77.198 -15.547L-77.204 -15.542L-77.246 -15.507L-77.249 -15.504" />
    <path fill="none" stroke="black" stroke-width="24" stroke-linecap="round" stroke-linejoin="round" transform="matrix(1 0 0 -1 250 325)" d="M-66.097 -22.781L-68.601 -21.476L-71.013 -20.1L-73.155 -18.757L-73.28 -18.678" />
    <path fill="none" stroke="black" stroke-width="24" stroke-linecap="round" stroke-linejoin="round" transform="matrix(1 0 0 -1 250 325)" d="M103.135 -61.736L99.996 -63.682L96.657 -65.566L93.125 -67.382L89.406 -69.128L85.509 -70.799L81.44 -72.392L77.209 -73.904L72.824 -75.332L68.294 -76.673L63.627 -77.925L58.833 -79.085L53.923 -80.15L48.905 -81.118L43.789 -81.988L38.587 -82.757L33.309 -83.425L27.965 -83.99L22.565 -84.45L17.122 -84.805L11.645 -85.054L6.147 -85.196L0.636993 -85.232L-4.873 -85.16L-10.371 -84.982L-15.848 -84.698L-21.291 -84.308L-26.69 -83.813L-32.034 -83.214L-37.312 -82.512L-42.513 -81.709L-47.628 -80.806L-52.646 -79.805L-57.556 -78.709L-62.349 -77.518L-67.015 -76.237L-71.544 -74.866L-75.929 -73.41L-80.159 -71.87L-84.226 -70.251L-88.123 -68.554L-91.841 -66.785L-95.372 -64.946L-98.71 -63.041L-101.848 -61.074" />
    <path fill="none" stroke="black" stroke-width="24" stroke-linecap="round" stroke-linejoin="round" transform="matrix(1 0 0 -1 250 325)" d="M-46.16 -29.865L-49.394 -28.977L-52.754 -27.96L-56.005 -26.88L-59.143 -25.738L-62.159 -24.537L-65.049 -23.279L-66.097 -22.781L-67.807 -21.967" />
    <path fill="none" stroke="black" stroke-width="24" stroke-linecap="round" stroke-linejoin="round" transform="matrix(1 0 0 -1 250 325)" d="M48.792 -29.912L47.64 -30.191L45.139 -30.796L41.396 -31.608L37.572 -32.346L33.673 -33.009L29.708 -33.595L25.686 -34.104L21.613 -34.534L17.498 -34.885L13.349 -35.156L9.175 -35.345L4.985 -35.454L0.785995 -35.481L-3.414 -35.427L-7.604 -35.291L-11.778 -35.074L-15.926 -34.777L-20.041 -34.4L-24.114 -33.943L-28.136 -33.409L-32.101 -32.796L-35.999 -32.108L-39.823 -31.345L-43.565 -30.51L-46.16 -29.865L-47.217 -29.602" />
    <path fill="none" stroke="black" stroke-width="24" stroke-linecap="round" stroke-linejoin="round" transform="matrix(1 0 0 -1 250 325)" d="M66.618 -23.704L66.544 -23.736L63.728 -24.943L60.71 -26.125L57.572 -27.247L54.32 -28.306L50.96 -29.301L47.64 -30.191" />
    <path fill="none" stroke="black" stroke-width="24" stroke-linecap="round" stroke-linejoin="round" transform="matrix(1 0 0 -1 250 325)" d="M74.841 -19.157L74.581 -19.318L72.573 -20.563L70.16 -21.924L67.607 -23.237L66.544 -23.736" />
    <path fill="none" stroke="black" stroke-width="24" stroke-linecap="round" stroke-linejoin="round" transform="matrix(1 0 0 -1 250 325)" d="M78.799 -16.008L78.677 -16.111L78.673 -16.114L78.631 -16.149L78.629 -16.151L78.595 -16.18L78.085 -16.611L77.034 -17.498L75.116 -18.952L74.581 -19.318" />
    <path fill="none" stroke="black" stroke-width="24" stroke-linecap="round" stroke-linejoin="round" transform="matrix(1 0 0 -1 250 325)" d="M80.056 -14.565L80.041 -14.58L80.022 -14.601L80.013 -14.61L79.963 -14.665L79.841 -14.795L79.757 -14.885L79.755 -14.887L79.611 -15.043L78.648 -16.076L78.645 -16.079L78.64 -16.084L78.601 -16.121L78.598 -16.124L78.569 -16.152L78.085 -16.611" />
    <path fill="none" stroke="black" stroke-width="24" stroke-linecap="round" stroke-linejoin="round" transform="matrix(1 0 0 -1 250 325)" d="M80.795 -13.366L80.237 -14.167L80.21 -14.206L80.119 -14.336L80.098 -14.366L80.065 -14.414L80.061 -14.42L79.756 -14.857L79.754 -14.86L79.723 -14.904L79.611 -15.043" />
    <path fill="none" stroke="black" stroke-width="24" stroke-linecap="round" stroke-linejoin="round" transform="matrix(1 0 0 -1 250 325)" d="M81.079 -12.388L80.343 -13.936L80.24 -14.113L80.135 -14.292L80.101 -14.35L80.065 -14.412L80.061 -14.42" />
    <path fill="none" stroke="black" stroke-width="24" stroke-linecap="round" stroke-linejoin="round" transform="matrix(1 0 0 -1 250 325)" d="M80.554 -13.152L80.135 -14.292" />
    <path fill="none" stroke="black" stroke-width="24" stroke-linecap="round" stroke-linejoin="round" transform="matrix(1 0 0 -1 250 325)" d="M80.158 -14.056L80.065 -14.412" />
    <path fill="none" stroke="black" stroke-width="24" stroke-linecap="round" stroke-linejoin="round" transform="matrix(1 0 0 -1 250 325)" d="M79.739 -14.571L79.754 -14.86" />
    <path fill="none" stroke="black" stroke-width="24" stroke-linecap="round" stroke-linejoin="round" transform="matrix(1 0 0 -1 250 325)" d="M78.403 -15.781L78.645 -16.079" />
    <path fill="none" stroke="black" stroke-width="24" stroke-linecap="round" stroke-linejoin="round" transform="matrix(1 0 0 -1 250 325)" d="M-78.677 -13.699L-79.066 -12.636" />
    <path fill="none" stroke="black" stroke-width="24" stroke-linecap="round" stroke-linejoin="round" transform="matrix(1 0 0 -1 250 325)" d="M-78.315 -14.231L-78.306 -14.061" />
    <path fill="none" stroke="black" stroke-width="24" stroke-linecap="round" stroke-linejoin="round" transform="matrix(1 0 0 -1 250 325)" d="M-78.626 -13.783L-78.688 -13.543" />
    <path fill="none" stroke="black" stroke-width="24" stroke-linecap="round" stroke-linejoin="round" transform="matrix(1 0 0 -1 250 325)" d="M-77.212 -15.465L-77.06 -15.279" />
  </g>
</svg>