<?xml version='1.0' encoding='utf-8'?>
<svg xmlns="http://www.w3.org/2000/svg" version="1.1" width="500" height="650" viewBox="0 0 500 650">
  <g>
    <path fill="none" stroke="none" transform="matrix(1 0 0 -1 250 325)" d="M-134.51 -39.238L-134.924 -39.915L-135.753 -41.305L-136.505 -42.701L-137.178 -44.101L-137.774 -45.506L-138.291 -46.914L-138.728 -48.324L-139.087 -49.735L-141.291 -59.489L-141.344 -59.72L-141.629 -61.161L-141.832 -62.602L-141.954 -64.041L-141.994 -65.478L-141.954 -66.912L-141.515 -76.903L-141.076 -86.893L-140.638 -96.883L-140.199 -106.874L-139.761 -116.864L-139.322 -126.854L-138.884 -136.845L-138.445 -146.835L-138.007 -156.826L-137.568 -166.816L-137.13 -176.806L-136.691 -186.797L-136.253 -196.787L-135.987 -202.834L-135.865 -204.265L-135.661 -205.69L-135.376 -207.111L-135.01 -208.525L-134.563 -209.931L-134.035 -211.33L-131.113 -218.021L-130.516 -219.384L-129.842 -220.737L-129.089 -222.08L-128.259 -223.411L-127.352 -224.731L-126.369 -226.037L-125.31 -227.331L-124.175 -228.609L-122.966 -229.873L-121.683 -231.121L-120.327 -232.353L-118.899 -233.567L-117.399 -234.762L-115.829 -235.94L-114.189 -237.097L-112.481 -238.235L-110.706 -239.351L-108.864 -240.446L-106.956 -241.519L-104.985 -242.568L-102.95 -243.595L-100.854 -244.597L-91.815 -248.874L-90.037 -249.715L-88.104 -250.591L-86.117 -251.445L-84.079 -252.275L-81.99 -253.082L-79.852 -253.864L-77.665 -254.622L-75.432 -255.355L-73.153 -256.062L-70.831 -256.743L-68.465 -257.397L-66.058 -258.025L-63.612 -258.626L-61.127 -259.199L-58.606 -259.744L-56.049 -260.261L-53.458 -260.75L-50.835 -261.21L-48.182 -261.64L-45.499 -262.042L-42.789 -262.413L-40.053 -262.755L-37.294 -263.067L-34.511 -263.349L-31.708 -263.6L-28.886 -263.821L-26.047 -264.011L-23.191 -264.17L-20.322 -264.299L-17.441 -264.396L-14.549 -264.463L-11.648 -264.498L-8.74001 -264.503L-5.827 -264.476L-2.91 -264.418L0.00799561 -264.329L2.92599 -264.21L5.843 -264.059L8.756 -263.877L11.663 -263.665L14.564 -263.423L17.456 -263.149L20.337 -262.846L23.207 -262.513L26.062 -262.149L28.901 -261.756L31.723 -261.334L34.526 -260.882L37.308 -260.402L40.068 -259.893L42.804 -259.355L45.513 -258.79L48.196 -258.197L50.849 -257.577L53.472 -256.929L56.062 -256.256L58.619 -255.556L61.141 -254.83L63.625 -254.08L66.071 -253.304L68.478 -252.504L70.843 -251.681L73.166 -250.834L75.444 -249.964L77.677 -249.072L79.863 -248.158L82.001 -247.222L84.09 -246.267L86.128 -245.291L88.114 -244.295L90.048 -243.281L91.926 -242.248L93.75 -241.198L102.38 -236.145L104.173 -235.095L106.144 -233.905L108.051 -232.696L109.893 -231.469L111.668 -230.226L113.376 -228.966L115.015 -227.692L116.585 -226.402L118.084 -225.099L119.512 -223.783L120.867 -222.455L122.15 -221.115L123.359 -219.765L124.493 -218.405L125.552 -217.036L126.535 -215.659L127.441 -214.275L128.271 -212.884L129.023 -211.488L129.697 -210.087L130.293 -208.681L130.81 -207.273L133.13 -200.367L133.576 -198.928L133.942 -197.488L134.227 -196.047L134.43 -194.607L134.552 -193.168L134.593 -191.731L134.552 -190.296L134.113 -180.306L133.675 -170.316L133.236 -160.325L132.798 -150.335L132.359 -140.344L131.921 -130.354L131.482 -120.364L131.044 -110.373L130.605 -100.383L130.167 -90.393L129.728 -80.402L129.29 -70.412L128.851 -60.421L128.586 -54.375L128.463 -52.944L128.26 -51.518L127.974 -50.098L127.608 -48.684L127.161 -47.277L124.111 -37.754L124.042 -37.541L123.525 -36.17L122.929 -34.808L122.255 -33.455L121.503 -32.113L120.673 -30.782L119.766 -29.463L118.706 -28.026" />
    <path fill="none" stroke="black" stroke-width="24" stroke-linecap="round" stroke-linejoin="round" transform="matrix(1 0 0 -1 250 325)" d="M-134.51 -39.238L-134.924 -39.915L-135.753 -41.305L-136.505 -42.701L-137.178 -44.101L-137.774 -45.506L-138.291 -46.914L-138.728 -48.324L-139.087 -49.735L-141.291 -59.489L-141.344 -59.72L-141.629 -61.161L-141.832 -62.602L-141.954 -64.041L-141.994 -65.478L-141.954 -66.912L-141.515 -76.903L-141.076 -86.893L-140.638 -96.883L-140.199 -106.874L-139.761 -116.864L-139.322 -126.854L-138.884 -136.845L-138.445 -146.835L-138.007 -156.826L-137.568 -166.816L-137.13 -176.806L-136.691 -186.797L-136.253 -196.787L-135.987 -202.834L-135.865 -204.265L-135.661 -205.69L-135.376 -207.111L-135.01 -208.525L-134.563 -209.931L-134.035 -211.33L-131.113 -218.021L-130.516 -219.384L-129.842 -220.737L-129.089 -222.08L-128.259 -223.411L-127.352 -224.731L-126.369 -226.037L-125.31 -227.331L-124.175 -228.609L-122.966 -229.873L-121.683 -231.121L-120.327 -232.353L-118.899 -233.567L-117.399 -234.762L-115.829 -235.94L-114.189 -237.097L-112.481 -238.235L-110.706 -239.351L-108.864 -240.446L-106.956 -241.519L-104.985 -242.568L-102.95 -243.595L-100.854 -244.597L-91.815 -248.874L-90.037 -249.715L-88.104 -250.591L-86.117 -251.445L-84.079 -252.275L-81.99 -253.082L-79.852 -253.864L-77.665 -254.622L-75.432 -255.355L-73.153 -256.062L-70.831 -256.743L-68.465 -257.397L-66.058 -258.025L-63.612 -258.626L-61.127 -259.199L-58.606 -259.744L-56.049 -260.261L-53.458 -260.75L-50.835 -261.21L-48.182 -261.64L-45.499 -262.042L-42.789 -262.413L-40.053 -262.755L-37.294 -263.067L-34.511 -263.349L-31.708 -263.6L-28.886 -263.821L-26.047 -264.011L-23.191 -264.17L-20.322 -264.299L-17.441 -264.396L-14.549 -264.463L-11.648 -264.498L-8.74001 -264.503L-5.827 -264.476L-2.91 -264.418L0.00799561 -264.329L2.92599 -264.21L5.843 -264.059L8.756 -263.877L11.663 -263.665L14.564 -263.423L17.456 -263.149L20.337 -262.846L23.207 -262.513L26.062 -262.149L28.901 -261.756L31.723 -261.334L34.526 -260.882L37.308 -260.402L40.068 -259.893L42.804 -259.355L45.513 -258.79L48.196 -258.197L50.849 -257.577L53.472 -256.929L56.062 -256.256L58.619 -255.556L61.141 -254.83L63.625 -254.08L66.071 -253.304L68.478 -252.504L70.843 -251.681L73.166 -250.834L75.444 -249.964L77.677 -249.072L79.863 -248.158L82.001 -247.222L84.09 -246.267L86.128 -245.291L88.114 -244.295L90.048 -243.281L91.926 -242.248L93.75 -241.198L102.38 -236.145L104.173 -235.095L106.144 -233.905L108.051 -232.696L109.893 -231.469L111.668 -230.226L113.376 -228.966L115.015 -227.692L116.585 -226.402L118.084 -225.099L119.512 -223.783L120.867 -222.455L122.15 -221.115L123.359 -219.765L124.493 -218.405L125.552 -217.036L126.535 -215.659L127.441 -214.275L128.271 -212.884L129.023 -211.488L129.697 -210.087L130.293 -208.681L130.81 -207.273L133.13 -200.367L133.576 -198.928L133.942 -197.488L134.227 -196.047L134.43 -194.607L134.552 -193.168L134.593 -191.731L134.552 -190.296L134.113 -180.306L133.675 -170.316L133.236 -160.325L132.798 -150.335L132.359 -140.344L131.921 -130.354L131.482 -120.364L131.044 -110.373L130.605 -100.383L130.167 -90.393L129.728 -80.402L129.29 -70.412L128.851 -60.421L128.586 -54.375L128.463 -52.944L128.26 -51.518L127.974 -50.098L127.608 -48.684L127.161 -47.277L124.111 -37.754L124.042 -37.541L123.525 -36.17L122.929 -34.808L122.255 -33.455L121.503 -32.113L120.673 -30.782L119.766 -29.463L118.706 -28.026" />
    <path fill="none" stroke="black" stroke-width="24" stroke-linecap="round" stroke-linejoin="round" transform="matrix(1 0 0 -1 250 325)" d="M112.192 -40.5L112.112 -40.689L111.49 -41.981L110.797 -43.268L110.032 -44.55L109.197 -45.826L108.29 -47.096L107.314 -48.358L106.269 -49.611L105.155 -50.856L103.972 -52.091L102.723 -53.315L101.406 -54.528L100.024 -55.729L98.577 -56.918L97.066 -58.093L95.492 -59.254L93.856 -60.4L92.158 -61.531L90.4 -62.645L88.583 -63.743L86.708 -64.823L84.776 -65.885L82.788 -66.928L80.745 -67.952L78.649 -68.955L76.501 -69.938L74.303 -70.9L72.054 -71.84L69.758 -72.757L67.415 -73.652L65.027 -74.523L62.595 -75.37L60.12 -76.192L57.604 -76.99L55.049 -77.762L52.456 -78.508L49.827 -79.227L47.163 -79.92L44.466 -80.586L41.738 -81.224L38.979 -81.833L36.193 -82.415L33.38 -82.967L30.542 -83.491L27.681 -83.985L24.798 -84.449L21.896 -84.884L18.976 -85.288L16.04 -85.662L13.09 -86.005L10.126 -86.316L7.153 -86.597L4.17 -86.847L1.17999 -87.065L-1.81599 -87.252L-4.815 -87.407L-7.81599 -87.53L-10.817 -87.621L-13.816 -87.681L-16.812 -87.708L-19.802 -87.703L-22.785 -87.667L-25.759 -87.599L-28.722 -87.498L-31.673 -87.366L-34.609 -87.202L-37.529 -87.007L-40.431 -86.78L-43.314 -86.522L-46.175 -86.232L-49.013 -85.911L-51.826 -85.56L-54.613 -85.177L-57.371 -84.765L-60.1 -84.322L-62.797 -83.849L-65.462 -83.347L-68.091 -82.815L-70.684 -82.254L-73.239 -81.665L-75.755 -81.047L-78.23 -80.401L-80.662 -79.728L-83.051 -79.028L-85.394 -78.301L-87.691 -77.547L-89.939 -76.768L-92.138 -75.964L-94.286 -75.134L-96.383 -74.28L-98.425 -73.403L-100.414 -72.502L-102.346 -71.578L-104.222 -70.632L-106.039 -69.664L-107.797 -68.675L-109.495 -67.666L-111.132 -66.637L-112.707 -65.588L-114.218 -64.521L-115.665 -63.436L-117.048 -62.334L-118.364 -61.214L-119.614 -60.079L-120.797 -58.929L-121.912 -57.764L-122.957 -56.585L-123.934 -55.393L-124.841 -54.188L-125.677 -52.972L-126.442 -51.745L-126.649 -51.376" />
    <path fill="none" stroke="black" stroke-width="24" stroke-linecap="round" stroke-linejoin="round" transform="matrix(1 0 0 -1 250 325)" d="M-9.617 54.816L-14.809 54.58L-19.99 54.244L-25.151 53.808L-30.28 53.274L-35.368 52.641L-40.403 51.913L-45.377 51.089L-50.278 50.173L-55.098 49.165L-59.826 48.067L-64.453 46.883L-68.97 45.613L-70.203 45.248L-74.695 43.867L-79.057 42.404L-83.278 40.864L-87.351 39.248L-91.267 37.561L-95.018 35.804L-98.598 33.983L-100.294 33.089L-103.761 31.169L-107.039 29.191L-110.12 27.158L-112.999 25.074L-114.759 23.759L-117.477 21.591L-119.977 19.38L-122.254 17.131L-123.927 15.464L-126.009 13.145L-127.856 10.797L-129.342 8.85199L-130.971 6.44699L-132.21 4.29501L-133.61 1.84299L-134.758 -0.625L-135.734 -2.97L-136.637 -5.47L-137.315 -7.93799L-137.966 -10.459L-138.357 -12.981L-138.725 -15.54L-138.856 -18.067L-138.903 -20.657L-138.772 -23.177L-138.497 -25.752L-138.104 -28.255L-137.514 -30.771L-136.862 -33.245L-135.952 -35.696L-135.062 -38.093L-134.51 -39.238L-133.902 -40.499L-132.727 -42.746L-131.327 -45.098L-129.889 -47.155L-128.259 -49.443L-126.649 -51.376L-126.387 -51.689L-124.74 -53.492L-122.658 -55.661L-120.344 -57.78L-118.537 -59.289L-116.037 -61.321L-113.319 -63.295L-110.389 -65.206L-108.528 -66.357L-105.446 -68.17L-102.168 -69.914L-98.7 -71.586L-95.049 -73.182L-93.292 -73.92L-89.54 -75.408L-85.624 -76.816L-81.55 -78.14L-77.329 -79.379L-72.967 -80.53L-68.474 -81.59L-63.86 -82.557L-62.615 -82.81L-57.988 -83.664L-53.259 -84.423L-48.439 -85.087L-43.537 -85.653L-38.564 -86.122L-33.528 -86.49L-28.44 -86.759L-23.311 -86.927L-18.15 -86.994L-12.969 -86.96L-7.77699 -86.825L-2.58501 -86.589L2.59599 -86.253L7.756 -85.817L12.886 -85.282L17.973 -84.65L23.009 -83.922L27.982 -83.098L32.884 -82.181L37.704 -81.173L42.432 -80.076L47.059 -78.891L51.575 -77.622L52.808 -77.256L57.301 -75.875L61.662 -74.413L65.883 -72.873L69.956 -71.257L73.872 -69.569L77.624 -67.813L81.203 -65.992L82.9 -65.098L86.367 -63.178L89.645 -61.199L92.726 -59.166L95.604 -57.083L97.365 -55.767L100.082 -53.6L102.582 -51.389L104.859 -49.14L106.533 -47.473L108.614 -45.154L110.461 -42.806L111.948 -40.861L112.192 -40.5L113.577 -38.456L114.816 -36.303L116.215 -33.851L117.364 -31.383L118.339 -29.039L118.706 -28.026L119.243 -26.539L119.921 -24.071L120.572 -21.549L120.962 -19.027L121.331 -16.469L121.461 -13.941L121.509 -11.352L121.377 -8.83099L121.103 -6.25699L120.71 -3.75299L120.119 -1.23801L119.468 1.237L118.558 3.68701L117.667 6.08401L116.508 8.491L115.332 10.737L113.932 13.089L112.495 15.146L110.865 17.435L108.993 19.681L107.346 21.483L105.263 23.653L102.95 25.772L101.143 27.281L98.642 29.313L95.924 31.286L92.994 33.198L91.133 34.348L88.052 36.161L84.774 37.905L81.306 39.577L77.655 41.174L75.898 41.911L72.146 43.399L68.229 44.807L64.156 46.132L59.935 47.37L55.573 48.521L51.08 49.581L46.465 50.548L45.221 50.801L40.593 51.655L35.865 52.415L31.045 53.078L26.143 53.645L21.169 54.113L16.133 54.482L11.046 54.75L5.91701 54.918L0.755997 54.985L-4.425 54.951L-9.617 54.816" />
    <path fill="none" stroke="black" stroke-width="24" stroke-linecap="round" stroke-linejoin="round" transform="matrix(1 0 0 -1 250 325)" d="M-87.455 -18.45L-87.915 -17.898L-87.921 -17.89L-88.008 -17.786L-88.029 -17.761L-88.067 -17.715L-88.085 -17.694L-88.135 -17.633L-88.139 -17.629L-88.257 -17.463L-89.206 -16.13" />
    <path fill="none" stroke="black" stroke-width="24" stroke-linecap="round" stroke-linejoin="round" transform="matrix(1 0 0 -1 250 325)" d="M-85.962 -19.857L-86.443 -19.417L-86.472 -19.389L-86.477 -19.385L-87.138 -18.78L-87.455 -18.45L-87.871 -18.016L-87.901 -17.985L-87.912 -17.973L-87.936 -17.948L-87.989 -17.893L-87.996 -17.885L-88.037 -17.843L-88.073 -17.806L-88.083 -17.795L-88.552 -17.306" />
    <path fill="none" stroke="black" stroke-width="24" stroke-linecap="round" stroke-linejoin="round" transform="matrix(1 0 0 -1 250 325)" d="M-82.507 -22.309L-83.694 -21.534L-85.611 -20.142L-85.962 -19.857L-86.469 -19.445L-86.502 -19.418L-86.507 -19.414L-86.953 -19.051L-86.971 -19.037L-87.374 -18.709" />
    <path fill="none" stroke="black" stroke-width="24" stroke-linecap="round" stroke-linejoin="round" transform="matrix(1 0 0 -1 250 325)" d="M-74.589 -26.308L-76.261 -25.576L-78.812 -24.347L-81.223 -23.064L-82.507 -22.309L-83.489 -21.731" />
    <path fill="none" stroke="black" stroke-width="24" stroke-linecap="round" stroke-linejoin="round" transform="matrix(1 0 0 -1 250 325)" d="M97.365 -55.767L94.436 -57.888L91.3 -59.957L87.964 -61.971L84.435 -63.924L80.72 -65.815L76.826 -67.637L72.762 -69.389L68.535 -71.066L64.154 -72.665L59.627 -74.182L54.965 -75.615L50.175 -76.962L45.269 -78.218L40.255 -79.382L35.144 -80.451L29.947 -81.423L24.673 -82.296L19.333 -83.068L13.938 -83.739L8.49899 -84.306L3.02699 -84.768L-2.468 -85.124L-7.97301 -85.374L-13.478 -85.518L-18.973 -85.554L-24.445 -85.483L-29.884 -85.304L-35.279 -85.02L-40.619 -84.629L-45.893 -84.132L-51.091 -83.532L-56.203 -82.828L-61.217 -82.022L-66.123 -81.117L-70.913 -80.113L-75.576 -79.013L-80.103 -77.819L-84.484 -76.533L-88.712 -75.158L-92.777 -73.697L-96.671 -72.153L-100.387 -70.528L-103.916 -68.826L-107.252 -67.051L-110.389 -65.206" />
    <path fill="none" stroke="black" stroke-width="24" stroke-linecap="round" stroke-linejoin="round" transform="matrix(1 0 0 -1 250 325)" d="M-53.617 -32.464L-56.229 -31.916L-59.688 -31.101L-63.045 -30.215L-66.295 -29.261L-69.43 -28.242L-72.445 -27.158L-74.589 -26.308L-75.333 -26.012" />
    <path fill="none" stroke="black" stroke-width="24" stroke-linecap="round" stroke-linejoin="round" transform="matrix(1 0 0 -1 250 325)" d="M38.363 -28.215L37.861 -28.356L34.713 -29.241L30.974 -30.198L27.153 -31.085L23.257 -31.9L19.296 -32.641L15.277 -33.306L11.207 -33.895L7.095 -34.406L2.95 -34.838L-1.22 -35.19L-5.408 -35.462L-9.603 -35.652L-13.799 -35.762L-17.987 -35.789L-22.157 -35.735L-26.303 -35.599L-30.414 -35.382L-34.484 -35.084L-38.504 -34.706L-42.465 -34.248L-46.36 -33.712L-50.182 -33.098L-53.617 -32.464L-53.921 -32.408" />
    <path fill="none" stroke="black" stroke-width="24" stroke-linecap="round" stroke-linejoin="round" transform="matrix(1 0 0 -1 250 325)" d="M58.987 -19.91L57.998 -20.413L56.232 -21.312L53.344 -22.664L50.33 -23.963L47.195 -25.206L43.945 -26.392L40.588 -27.518L37.861 -28.356" />
    <path fill="none" stroke="black" stroke-width="24" stroke-linecap="round" stroke-linejoin="round" transform="matrix(1 0 0 -1 250 325)" d="M66.634 -14.91L65.427 -15.784L64.517 -16.443L62.252 -17.938L59.841 -19.393L57.998 -20.413" />
    <path fill="none" stroke="black" stroke-width="24" stroke-linecap="round" stroke-linejoin="round" transform="matrix(1 0 0 -1 250 325)" d="M70.158 -11.552L69.985 -11.724L69.976 -11.732L69.118 -12.58L69.107 -12.59L69.078 -12.619L68.602 -13.089L68.553 -13.138L66.79 -14.697L65.427 -15.784" />
    <path fill="none" stroke="black" stroke-width="24" stroke-linecap="round" stroke-linejoin="round" transform="matrix(1 0 0 -1 250 325)" d="M71.153 -10.05L70.549 -10.819L70.546 -10.822L70.49 -10.894L70.471 -10.917L70.45 -10.944L70.387 -11.024L70.383 -11.029L70.368 -11.049L70.362 -11.056L69.936 -11.597L69.899 -11.645L69.085 -12.552L69.074 -12.563L69.048 -12.592L68.602 -13.089" />
    <path fill="none" stroke="black" stroke-width="24" stroke-linecap="round" stroke-linejoin="round" transform="matrix(1 0 0 -1 250 325)" d="M70.737 -10.415L70.68 -10.5L70.607 -10.608L70.532 -10.719L70.51 -10.75L70.51 -10.751L70.493 -10.775L70.385 -10.935L70.372 -10.954L69.936 -11.597" />
    <path fill="none" stroke="black" stroke-width="24" stroke-linecap="round" stroke-linejoin="round" transform="matrix(1 0 0 -1 250 325)" d="M71.128 -9.42401L70.65 -10.45L70.555 -10.653L70.51 -10.75L70.51 -10.751" />
    <path fill="none" stroke="black" stroke-width="24" stroke-linecap="round" stroke-linejoin="round" transform="matrix(1 0 0 -1 250 325)" d="M70.717 -10.206L70.555 -10.653" />
    <path fill="none" stroke="black" stroke-width="24" stroke-linecap="round" stroke-linejoin="round" transform="matrix(1 0 0 -1 250 325)" d="M70.68 -9.57199L70.493 -10.775" />
    <path fill="none" stroke="black" stroke-width="24" stroke-linecap="round" stroke-linejoin="round" transform="matrix(1 0 0 -1 250 325)" d="M70.391 -10.591L70.372 -10.954" />
    <path fill="none" stroke="black" stroke-width="24" stroke-linecap="round" stroke-linejoin="round" transform="matrix(1 0 0 -1 250 325)" d="M68.173 -11.79L68.567 -12.152L69.048 -12.592" />
    <path fill="none" stroke="black" stroke-width="24" stroke-linecap="round" stroke-linejoin="round" transform="matrix(1 0 0 -1 250 325)" d="M-88.034 -17.743L-88.284 -16.794" />
    <path fill="none" stroke="black" stroke-width="24" stroke-linecap="round" stroke-linejoin="round" transform="matrix(1 0 0 -1 250 325)" d="M-88.008 -17.786L-88.034 -17.743L-88.078 -17.668L-88.178 -17.5L-88.2 -17.464L-88.664 -16.684" />
    <path fill="none" stroke="black" stroke-width="24" stroke-linecap="round" stroke-linejoin="round" transform="matrix(1 0 0 -1 250 325)" d="M-87.915 -17.898L-87.932 -17.785" />
    <path fill="none" stroke="black" stroke-width="24" stroke-linecap="round" stroke-linejoin="round" transform="matrix(1 0 0 -1 250 325)" d="M-88.178 -17.5L-88.214 -17.427" />
    <path fill="none" stroke="black" stroke-width="24" stroke-linecap="round" stroke-linejoin="round" transform="matrix(1 0 0 -1 250 325)" d="M-86.443 -19.417L-85.997 -18.92L-85.88 -18.789" />
  </g>
</svg>