<?xml version='1.0' encoding='utf-8'?>
<svg xmlns="http://www.w3.org/2000/svg" version="1.1" width="500" height="650" viewBox="0 0 500 650">
  <g>
    <path fill="none" stroke="none" transform="matrix(1 0 0 -1 250 325)" d="M-139.768 -3.10501L-143.502 -9.09L-144.177 -10.256L-144.774 -11.428L-145.292 -12.603L-145.731 -13.781L-146.09 -14.963L-148.513 -24.665L-148.655 -25.236L-148.941 -26.444L-149.146 -27.652L-149.268 -28.862L-149.31 -30.071L-149.182 -40.07L-149.053 -50.069L-148.925 -60.068L-148.797 -70.068L-148.669 -80.067L-148.54 -90.066L-148.412 -100.065L-148.284 -110.064L-148.156 -120.063L-148.027 -130.063L-147.899 -140.062L-147.771 -150.061L-147.642 -160.06L-147.508 -170.562L-147.468 -171.77L-147.346 -172.976L-147.143 -174.181L-146.858 -175.382L-146.492 -176.579L-146.046 -177.772L-143.325 -184.817L-142.808 -185.981L-142.212 -187.139L-141.538 -188.291L-140.786 -189.436L-139.956 -190.572L-139.049 -191.701L-138.066 -192.819L-137.006 -193.928L-135.872 -195.026L-134.662 -196.113L-133.379 -197.188L-132.023 -198.251L-130.595 -199.3L-129.095 -200.335L-127.524 -201.356L-125.884 -202.362L-117.256 -207.417L-113.963 -209.345L-112.432 -210.233L-110.839 -211.106L-109.187 -211.963L-107.477 -212.805L-105.709 -213.631L-103.884 -214.44L-102.004 -215.232L-100.07 -216.007L-98.083 -216.763L-96.044 -217.501L-93.954 -218.219L-91.814 -218.919L-89.627 -219.598L-87.392 -220.257L-85.112 -220.896L-82.788 -221.513L-80.422 -222.11L-78.014 -222.684L-75.566 -223.236L-73.08 -223.766L-70.557 -224.273L-67.998 -224.757L-65.406 -225.217L-62.782 -225.654L-60.127 -226.067L-57.442 -226.456L-54.731 -226.82L-51.993 -227.16L-49.232 -227.475L-46.448 -227.765L-43.643 -228.03L-40.819 -228.269L-37.977 -228.483L-35.12 -228.672L-32.249 -228.835L-29.366 -228.971L-26.472 -229.082L-23.569 -229.167L-20.659 -229.226L-17.744 -229.259L-14.826 -229.266L-11.905 -229.247L-8.985 -229.201L-6.06599 -229.13L-3.151 -229.033L-0.240997 -228.909L2.661 -228.76L5.556 -228.585L8.439 -228.384L11.311 -228.158L14.168 -227.907L17.01 -227.63L19.834 -227.328L22.639 -227.001L25.423 -226.649L28.185 -226.273L30.923 -225.873L33.635 -225.448L36.32 -225L38.975 -224.528L41.6 -224.033L44.193 -223.515L46.751 -222.975L49.275 -222.412L51.762 -221.827L54.21 -221.221L56.619 -220.593L58.986 -219.945L61.311 -219.276L63.591 -218.587L65.826 -217.878L68.015 -217.15L70.155 -216.404L72.245 -215.639L74.285 -214.856L76.274 -214.055L78.209 -213.238L80.089 -212.405L81.915 -211.555L83.684 -210.69L85.395 -209.81L87.048 -208.916L88.641 -208.008L90.173 -207.087L98.669 -201.812L101.843 -199.842L103.484 -198.8L105.056 -197.744L106.557 -196.676L107.986 -195.595L109.344 -194.503L110.628 -193.399L111.838 -192.286L112.974 -191.162L114.034 -190.03L115.019 -188.889L115.927 -187.741L116.758 -186.586L117.511 -185.425L118.186 -184.258L118.783 -183.086L119.302 -181.911L119.741 -180.731L122.285 -173.605L122.652 -172.4L122.938 -171.192L123.142 -169.984L123.265 -168.774L123.306 -167.565L123.178 -157.566L123.05 -147.567L122.921 -137.568L122.793 -127.568L122.665 -117.569L122.537 -107.57L122.408 -97.571L122.28 -87.572L122.152 -77.573L122.024 -67.573L121.895 -57.574L121.767 -47.575L121.639 -37.576L121.504 -27.074L121.464 -25.866L121.342 -24.66L121.139 -23.455L120.855 -22.254L118.184 -12.617L118.024 -12.04L117.666 -10.867L117.228 -9.698L116.711 -8.534L116.115 -7.37601L115.442 -6.22501L114.69 -5.08099L111.215 0.182007" />
    <path fill="none" stroke="black" stroke-width="24" stroke-linecap="round" stroke-linejoin="round" transform="matrix(1 0 0 -1 250 325)" d="M-139.768 -3.10501L-143.502 -9.09L-144.177 -10.256L-144.774 -11.428L-145.292 -12.603L-145.731 -13.781L-146.09 -14.963L-148.513 -24.665L-148.655 -25.236L-148.941 -26.444L-149.146 -27.652L-149.268 -28.862L-149.31 -30.071L-149.182 -40.07L-149.053 -50.069L-148.925 -60.068L-148.797 -70.068L-148.669 -80.067L-148.54 -90.066L-148.412 -100.065L-148.284 -110.064L-148.156 -120.063L-148.027 -130.063L-147.899 -140.062L-147.771 -150.061L-147.642 -160.06L-147.508 -170.562L-147.468 -171.77L-147.346 -172.976L-147.143 -174.181L-146.858 -175.382L-146.492 -176.579L-146.046 -177.772L-143.325 -184.817L-142.808 -185.981L-142.212 -187.139L-141.538 -188.291L-140.786 -189.436L-139.956 -190.572L-139.049 -191.701L-138.066 -192.819L-137.006 -193.928L-135.872 -195.026L-134.662 -196.113L-133.379 -197.188L-132.023 -198.251L-130.595 -199.3L-129.095 -200.335L-127.524 -201.356L-125.884 -202.362L-117.256 -207.417L-113.963 -209.345L-112.432 -210.233L-110.839 -211.106L-109.187 -211.963L-107.477 -212.805L-105.709 -213.631L-103.884 -214.44L-102.004 -215.232L-100.07 -216.007L-98.083 -216.763L-96.044 -217.501L-93.954 -218.219L-91.814 -218.919L-89.627 -219.598L-87.392 -220.257L-85.112 -220.896L-82.788 -221.513L-80.422 -222.11L-78.014 -222.684L-75.566 -223.236L-73.08 -223.766L-70.557 -224.273L-67.998 -224.757L-65.406 -225.217L-62.782 -225.654L-60.127 -226.067L-57.442 -226.456L-54.731 -226.82L-51.993 -227.16L-49.232 -227.475L-46.448 -227.765L-43.643 -228.03L-40.819 -228.269L-37.977 -228.483L-35.12 -228.672L-32.249 -228.835L-29.366 -228.971L-26.472 -229.082L-23.569 -229.167L-20.659 -229.226L-17.744 -229.259L-14.826 -229.266L-11.905 -229.247L-8.985 -229.201L-6.06599 -229.13L-3.151 -229.033L-0.240997 -228.909L2.661 -228.76L5.556 -228.585L8.439 -228.384L11.311 -228.158L14.168 -227.907L17.01 -227.63L19.834 -227.328L22.639 -227.001L25.423 -226.649L28.185 -226.273L30.923 -225.873L33.635 -225.448L36.32 -225L38.975 -224.528L41.6 -224.033L44.193 -223.515L46.751 -222.975L49.275 -222.412L51.762 -221.827L54.21 -221.221L56.619 -220.593L58.986 -219.945L61.311 -219.276L63.591 -218.587L65.826 -217.878L68.015 -217.15L70.155 -216.404L72.245 -215.639L74.285 -214.856L76.274 -214.055L78.209 -213.238L80.089 -212.405L81.915 -211.555L83.684 -210.69L85.395 -209.81L87.048 -208.916L88.641 -208.008L90.173 -207.087L98.669 -201.812L101.843 -199.842L103.484 -198.8L105.056 -197.744L106.557 -196.676L107.986 -195.595L109.344 -194.503L110.628 -193.399L111.838 -192.286L112.974 -191.162L114.034 -190.03L115.019 -188.889L115.927 -187.741L116.758 -186.586L117.511 -185.425L118.186 -184.258L118.783 -183.086L119.302 -181.911L119.741 -180.731L122.285 -173.605L122.652 -172.4L122.938 -171.192L123.142 -169.984L123.265 -168.774L123.306 -167.565L123.178 -157.566L123.05 -147.567L122.921 -137.568L122.793 -127.568L122.665 -117.569L122.537 -107.57L122.408 -97.571L122.28 -87.572L122.152 -77.573L122.024 -67.573L121.895 -57.574L121.767 -47.575L121.639 -37.576L121.504 -27.074L121.464 -25.866L121.342 -24.66L121.139 -23.455L120.855 -22.254L118.184 -12.617L118.024 -12.04L117.666 -10.867L117.228 -9.698L116.711 -8.534L116.115 -7.37601L115.442 -6.22501L114.69 -5.08099L111.215 0.182007" />
    <path fill="none" stroke="black" stroke-width="24" stroke-linecap="round" stroke-linejoin="round" transform="matrix(1 0 0 -1 250 325)" d="M106.861 -6.73401L106.796 -6.90701L106.318 -7.991L105.768 -9.07101L105.146 -10.147L104.451 -11.217L103.685 -12.282L102.848 -13.34L101.941 -14.392L100.963 -15.436L99.916 -16.471L98.801 -17.498L97.617 -18.515L96.366 -19.522L95.048 -20.518L93.664 -21.503L92.215 -22.476L90.703 -23.437L89.127 -24.384L87.488 -25.318L85.789 -26.237L84.029 -27.142L82.21 -28.032L80.333 -28.905L78.399 -29.762L76.409 -30.603L74.365 -31.426L72.267 -32.231L70.117 -33.018L67.916 -33.785L65.666 -34.534L63.367 -35.263L61.022 -35.971L58.632 -36.659L56.197 -37.326L53.72 -37.971L51.202 -38.595L48.645 -39.196L46.05 -39.775L43.419 -40.331L40.753 -40.863L38.053 -41.372L35.323 -41.858L32.562 -42.318L29.773 -42.755L26.958 -43.167L24.117 -43.553L21.254 -43.915L18.37 -44.251L15.465 -44.562L12.543 -44.846L9.605 -45.105L6.65199 -45.338L3.687 -45.544L0.710007 -45.724L-2.27499 -45.878L-5.267 -46.004L-8.265 -46.105L-11.266 -46.178L-14.269 -46.225L-17.272 -46.244L-20.274 -46.237L-23.271 -46.204L-26.264 -46.143L-29.249 -46.056L-32.225 -45.942L-35.19 -45.801L-38.142 -45.634L-41.08 -45.44L-44.002 -45.22L-46.906 -44.973L-49.791 -44.701L-52.654 -44.403L-55.494 -44.079L-58.309 -43.73L-61.097 -43.355L-63.857 -42.955L-66.588 -42.53L-69.286 -42.081L-71.952 -41.607L-74.583 -41.11L-77.177 -40.588L-79.734 -40.044L-82.251 -39.476L-84.728 -38.885L-87.161 -38.272L-89.551 -37.637L-91.896 -36.981L-94.193 -36.303L-96.443 -35.604L-98.643 -34.885L-100.792 -34.146L-102.889 -33.387L-104.933 -32.609L-106.922 -31.813L-108.855 -30.999L-110.732 -30.167L-112.55 -29.317L-114.309 -28.451L-116.007 -27.569L-117.645 -26.672L-119.22 -25.759L-120.732 -24.832L-122.179 -23.891L-123.562 -22.937L-124.879 -21.97L-126.129 -20.991L-127.312 -20L-128.427 -18.998L-129.472 -17.985L-130.449 -16.963L-131.356 -15.932L-132.192 -14.892L-132.956 -13.844L-133.65 -12.789L-134.271 -11.727L-134.821 -10.659L-135.07 -10.097" />
    <path fill="none" stroke="black" stroke-width="24" stroke-linecap="round" stroke-linejoin="round" transform="matrix(1 0 0 -1 250 325)" d="M-14.817 81.235L-19.893 81.138L-24.96 80.957L-30.006 80.695L-35.021 80.35L-39.996 79.925L-44.92 79.419L-49.784 78.834L-54.577 78.171L-55.495 78.041L-60.319 77.284L-65.051 76.45L-69.682 75.54L-74.202 74.557L-78.603 73.503L-82.875 72.379L-87.011 71.188L-91 69.933L-94.837 68.615L-98.512 67.238L-100.312 66.556L-103.895 65.091L-107.298 63.571L-110.515 61.999L-113.54 60.378L-115.474 59.278L-118.356 57.578L-121.029 55.836L-123.488 54.054L-125.394 52.589L-127.673 50.738L-129.726 48.855L-131.492 47.086L-133.341 45.144L-134.951 43.177L-136.525 41.139L-137.912 39.123L-139.236 36.88L-140.387 34.824L-141.436 32.413L-142.342 30.325L-142.99 28.228L-143.749 25.675L-144.141 23.559L-144.588 20.925L-144.72 18.8L-144.847 16.128L-144.717 14.003L-144.522 11.338L-144.13 9.22299L-143.617 6.60699L-142.967 4.51099L-142.146 1.98901L-141.242 -0.07901L-140.129 -2.466L-139.768 -3.10501L-138.98 -4.496L-137.596 -6.70999L-136.212 -8.69501L-135.07 -10.097L-134.582 -10.697L-132.973 -12.629L-131.126 -14.53L-129.309 -16.26L-127.258 -18.097L-124.98 -19.897L-123.028 -21.32L-120.571 -23.047L-117.899 -24.731L-115.02 -26.366L-113.045 -27.423L-110.022 -28.977L-106.807 -30.478L-103.404 -31.923L-99.823 -33.309L-96.069 -34.633L-94.316 -35.246L-90.48 -36.479L-86.492 -37.646L-82.358 -38.746L-78.086 -39.775L-73.686 -40.732L-69.167 -41.615L-64.537 -42.422L-59.806 -43.151L-54.983 -43.801L-50.078 -44.371L-49.245 -44.468L-44.382 -44.945L-39.458 -45.342L-34.484 -45.657L-29.468 -45.891L-24.423 -46.042L-19.356 -46.11L-14.28 -46.095L-9.203 -45.998L-4.13699 -45.817L0.908997 -45.555L5.924 -45.21L10.899 -44.785L15.823 -44.279L20.687 -43.694L25.48 -43.031L26.398 -42.901L31.222 -42.144L35.954 -41.31L40.585 -40.4L45.105 -39.417L49.506 -38.363L53.778 -37.239L57.914 -36.049L61.904 -34.793L65.74 -33.475L69.415 -32.098L71.215 -31.416L74.798 -29.951L78.201 -28.431L81.419 -26.859L84.443 -25.238L86.377 -24.138L89.259 -22.439L91.932 -20.696L94.391 -18.914L96.297 -17.449L98.577 -15.598L100.629 -13.715L102.395 -11.946L104.244 -10.004L105.855 -8.03699L106.861 -6.73401L107.428 -5.99899L108.815 -3.983L110.139 -1.73999L111.215 0.182007L111.29 0.31601L112.339 2.72699L113.245 4.815L113.893 6.91199L114.652 9.465L115.045 11.58L115.491 14.215L115.623 16.34L115.75 19.012L115.62 21.137L115.425 23.802L115.033 25.917L114.52 28.533L113.87 30.629L113.049 33.151L112.145 35.219L111.033 37.606L109.884 39.636L108.499 41.85L107.115 43.835L105.485 45.837L103.876 47.769L102.029 49.67L100.212 51.4L98.161 53.237L95.883 55.037L93.931 56.46L91.474 58.187L88.803 59.871L85.923 61.506L83.948 62.563L80.925 64.117L77.71 65.618L74.308 67.063L70.726 68.449L66.972 69.773L65.219 70.386L61.384 71.619L57.395 72.786L53.261 73.886L48.989 74.915L44.59 75.872L40.07 76.755L35.44 77.561L30.709 78.291L25.886 78.941L20.981 79.511L20.148 79.608L15.285 80.085L10.361 80.482L5.38699 80.797L0.371994 81.031L-4.674 81.182L-9.74001 81.25L-14.817 81.235" />
    <path fill="none" stroke="black" stroke-width="24" stroke-linecap="round" stroke-linejoin="round" transform="matrix(1 0 0 -1 250 325)" d="M-94.795 21.528L-95.086 21.828L-95.251 21.998L-95.281 22.029L-96.373 23.341" />
    <path fill="none" stroke="black" stroke-width="24" stroke-linecap="round" stroke-linejoin="round" transform="matrix(1 0 0 -1 250 325)" d="M-93.376 20.366L-94.397 21.172L-94.795 21.528L-94.993 21.706L-94.996 21.709L-95.014 21.725L-95.165 21.86L-95.179 21.873L-95.843 22.468" />
    <path fill="none" stroke="black" stroke-width="24" stroke-linecap="round" stroke-linejoin="round" transform="matrix(1 0 0 -1 250 325)" d="M-89.634 18.058L-90.97 18.817L-92.935 20.055L-93.376 20.366L-94.287 21.006L-94.367 21.062L-94.742 21.326" />
    <path fill="none" stroke="black" stroke-width="24" stroke-linecap="round" stroke-linejoin="round" transform="matrix(1 0 0 -1 250 325)" d="M96.297 -17.449L93.794 -19.262L91.074 -21.036L88.141 -22.765L85.002 -24.448L81.663 -26.079L78.13 -27.657L74.411 -29.177L70.514 -30.638L66.446 -32.035L62.215 -33.367L57.83 -34.629L53.299 -35.821L48.633 -36.939L43.839 -37.981L38.929 -38.945L33.911 -39.83L28.796 -40.633L23.594 -41.352L18.316 -41.987L12.972 -42.536L7.573 -42.998L2.13 -43.372L-3.34599 -43.657L-8.845 -43.852L-14.354 -43.958L-19.863 -43.974L-25.362 -43.9L-30.838 -43.736L-36.28 -43.483L-41.679 -43.141L-47.022 -42.71L-52.3 -42.192L-57.501 -41.588L-62.616 -40.898L-67.633 -40.124L-72.542 -39.269L-77.335 -38.333L-82 -37.318L-86.53 -36.227L-90.913 -35.061L-95.143 -33.823L-99.21 -32.516L-103.106 -31.142L-106.823 -29.703L-110.354 -28.204L-113.692 -26.646L-116.829 -25.033L-119.76 -23.368L-122.479 -21.655L-124.98 -19.897" />
    <path fill="none" stroke="black" stroke-width="24" stroke-linecap="round" stroke-linejoin="round" transform="matrix(1 0 0 -1 250 325)" d="M-79.37 13.69L-80.648 14.141L-83.405 15.208L-86.024 16.32L-86.716 16.643L-88.499 17.475L-89.634 18.058L-90.826 18.671" />
    <path fill="none" stroke="black" stroke-width="24" stroke-linecap="round" stroke-linejoin="round" transform="matrix(1 0 0 -1 250 325)" d="M-47.735 6.823L-51.622 7.34698L-55.446 7.93701L-59.188 8.58899L-62.84 9.302L-66.396 10.076L-69.848 10.908L-73.189 11.796L-76.412 12.739L-79.37 13.69L-79.512 13.736" />
    <path fill="none" stroke="black" stroke-width="24" stroke-linecap="round" stroke-linejoin="round" transform="matrix(1 0 0 -1 250 325)" d="M18.963 7.67999L18.242 7.57999L14.886 7.116L10.75 6.61899L6.562 6.189L2.33 5.827L-1.936 5.534L-6.22701 5.31L-10.537 5.15701L-14.854 5.07401L-19.172 5.061L-23.481 5.11899L-27.773 5.24799L-32.039 5.44601L-36.27 5.715L-40.457 6.052L-44.594 6.45801L-47.735 6.823L-48.67 6.93201" />
    <path fill="none" stroke="black" stroke-width="24" stroke-linecap="round" stroke-linejoin="round" transform="matrix(1 0 0 -1 250 325)" d="M52.81 16.28L51.248 15.695L49.839 15.167L46.739 14.102L43.514 13.087L40.172 12.125L36.72 11.217L33.163 10.365L29.51 9.57001L25.767 8.83499L21.943 8.16101L18.242 7.57999" />
    <path fill="none" stroke="black" stroke-width="24" stroke-linecap="round" stroke-linejoin="round" transform="matrix(1 0 0 -1 250 325)" d="M61.193 20.353L60.443 19.951L58.865 19.106L57.62 18.497L56.389 17.895L53.769 16.725L51.248 15.695" />
    <path fill="none" stroke="black" stroke-width="24" stroke-linecap="round" stroke-linejoin="round" transform="matrix(1 0 0 -1 250 325)" d="M65.153 23.095L65.101 23.057L65.018 22.998L64.224 22.422L63.345 21.785L61.379 20.503L60.443 19.951" />
    <path fill="none" stroke="black" stroke-width="24" stroke-linecap="round" stroke-linejoin="round" transform="matrix(1 0 0 -1 250 325)" d="M66.303 24.262L65.964 23.951L65.912 23.904L65.772 23.775L65.669 23.681L65.506 23.531L65.503 23.529L64.855 22.934L64.224 22.422" />
    <path fill="none" stroke="black" stroke-width="24" stroke-linecap="round" stroke-linejoin="round" transform="matrix(1 0 0 -1 250 325)" d="M66.887 25.147L66.024 24.093L65.815 23.837L65.793 23.811L65.669 23.681" />
    <path fill="none" stroke="black" stroke-width="24" stroke-linecap="round" stroke-linejoin="round" transform="matrix(1 0 0 -1 250 325)" d="M66.225 24.433L65.815 23.837" />
    <path fill="none" stroke="black" stroke-width="24" stroke-linecap="round" stroke-linejoin="round" transform="matrix(1 0 0 -1 250 325)" d="M65.559 23.708L65.503 23.529" />
    <path fill="none" stroke="black" stroke-width="24" stroke-linecap="round" stroke-linejoin="round" transform="matrix(1 0 0 -1 250 325)" d="M-95.086 21.828L-95.654 22.642" />
  </g>
</svg>