<?xml version='1.0' encoding='utf-8'?>
<svg xmlns="http://www.w3.org/2000/svg" version="1.1" width="500" height="650" viewBox="0 0 500 650">
  <g>
    <path fill="none" stroke="none" transform="matrix(1 0 0 -1 250 325)" d="M-82.941 5.34299L-89.384 -2.30499L-89.566 -2.51999L-90.304 -3.42801L-90.965 -4.35199L-91.548 -5.29001L-92.053 -6.24301L-92.479 -7.20901L-96.32 -16.442L-96.635 -17.2L-96.99 -18.2L-97.265 -19.212L-97.459 -20.237L-98.87 -30.136L-100.282 -40.036L-101.694 -49.936L-103.106 -59.836L-104.518 -69.736L-105.93 -79.635L-107.342 -89.535L-108.754 -99.435L-110.166 -109.335L-111.578 -119.235L-112.99 -129.135L-114.402 -139.034L-115.814 -148.934L-117.225 -158.834L-117.682 -162.032L-117.795 -163.068L-117.827 -164.115L-117.779 -165.172L-117.649 -166.239L-117.439 -167.315L-115.853 -174.87L-115.568 -175.934L-115.204 -177.004L-114.762 -178.082L-114.241 -179.166L-113.642 -180.255L-112.966 -181.35L-112.212 -182.449L-111.381 -183.551L-110.475 -184.656L-109.492 -185.764L-108.434 -186.874L-107.302 -187.984L-106.095 -189.095L-98.546 -195.653L-94.911 -198.811L-93.764 -199.806L-92.553 -200.801L-91.277 -201.794L-89.937 -202.784L-88.536 -203.772L-87.072 -204.757L-85.548 -205.738L-83.963 -206.715L-82.32 -207.686L-80.619 -208.652L-78.861 -209.611L-77.047 -210.564L-75.178 -211.509L-73.255 -212.447L-71.28 -213.375L-69.253 -214.295L-67.177 -215.205L-65.051 -216.105L-62.878 -216.994L-60.659 -217.872L-58.395 -218.738L-56.087 -219.592L-53.737 -220.433L-51.347 -221.26L-48.917 -222.074L-46.449 -222.874L-43.945 -223.658L-41.405 -224.428L-38.833 -225.181L-36.229 -225.919L-33.594 -226.64L-30.931 -227.343L-28.241 -228.029L-25.526 -228.698L-22.786 -229.348L-20.025 -229.979L-17.243 -230.591L-14.443 -231.184L-11.625 -231.757L-8.79201 -232.31L-5.94501 -232.842L-3.086 -233.353L-0.216995 -233.844L2.661 -234.313L5.545 -234.76L8.43401 -235.185L11.327 -235.588L14.221 -235.969L17.115 -236.327L20.008 -236.662L22.896 -236.973L25.779 -237.262L28.655 -237.527L31.522 -237.769L34.379 -237.986L37.223 -238.18L40.053 -238.35L42.868 -238.495L45.665 -238.617L48.443 -238.714L51.2 -238.787L53.934 -238.835L56.645 -238.859L59.33 -238.858L61.987 -238.833L64.616 -238.784L67.214 -238.71L69.78 -238.612L72.312 -238.49L74.809 -238.343L77.27 -238.173L79.692 -237.978L82.075 -237.759L84.417 -237.517L86.716 -237.251L88.971 -236.961L91.181 -236.649L93.345 -236.313L95.461 -235.954L97.527 -235.572L99.544 -235.168L101.508 -234.742L103.421 -234.294L105.279 -233.824L107.082 -233.333L108.829 -232.821L110.518 -232.288L112.15 -231.734L113.723 -231.16L115.235 -230.567L116.686 -229.954L118.076 -229.322L127.158 -225.136L131.505 -223.132L132.985 -222.406L134.394 -221.66L135.732 -220.893L136.997 -220.108L138.188 -219.303L139.306 -218.479L140.349 -217.638L141.316 -216.779L142.208 -215.903L143.024 -215.01L143.762 -214.102L144.423 -213.178L145.006 -212.239L148.64 -205.432L149.156 -204.46L149.591 -203.474L149.946 -202.474L150.22 -201.462L150.414 -200.438L151.826 -190.538L153.238 -180.638L154.65 -170.738L156.062 -160.838L157.474 -150.938L158.886 -141.039L160.298 -131.139L161.71 -121.239L163.122 -111.339L164.534 -101.439L165.946 -91.539L167.358 -81.64L168.769 -71.74L170.181 -61.84L170.637 -58.642L170.751 -57.606L170.783 -56.559L170.735 -55.502L169.628 -45.563L169.537 -44.744L169.411 -43.698L169.205 -42.644L168.92 -41.581L168.557 -40.511L168.114 -39.434L164.066 -30.29L163.832 -29.762" />
    <path fill="none" stroke="black" stroke-width="24" stroke-linecap="round" stroke-linejoin="round" transform="matrix(1 0 0 -1 250 325)" d="M-82.941 5.34299L-89.384 -2.30499L-89.566 -2.51999L-90.304 -3.42801L-90.965 -4.35199L-91.548 -5.29001L-92.053 -6.24301L-92.479 -7.20901L-96.32 -16.442L-96.635 -17.2L-96.99 -18.2L-97.265 -19.212L-97.459 -20.237L-98.87 -30.136L-100.282 -40.036L-101.694 -49.936L-103.106 -59.836L-104.518 -69.736L-105.93 -79.635L-107.342 -89.535L-108.754 -99.435L-110.166 -109.335L-111.578 -119.235L-112.99 -129.135L-114.402 -139.034L-115.814 -148.934L-117.225 -158.834L-117.682 -162.032L-117.795 -163.068L-117.827 -164.115L-117.779 -165.172L-117.649 -166.239L-117.439 -167.315L-115.853 -174.87L-115.568 -175.934L-115.204 -177.004L-114.762 -178.082L-114.241 -179.166L-113.642 -180.255L-112.966 -181.35L-112.212 -182.449L-111.381 -183.551L-110.475 -184.656L-109.492 -185.764L-108.434 -186.874L-107.302 -187.984L-106.095 -189.095L-98.546 -195.653L-94.911 -198.811L-93.764 -199.806L-92.553 -200.801L-91.277 -201.794L-89.937 -202.784L-88.536 -203.772L-87.072 -204.757L-85.548 -205.738L-83.963 -206.715L-82.32 -207.686L-80.619 -208.652L-78.861 -209.611L-77.047 -210.564L-75.178 -211.509L-73.255 -212.447L-71.28 -213.375L-69.253 -214.295L-67.177 -215.205L-65.051 -216.105L-62.878 -216.994L-60.659 -217.872L-58.395 -218.738L-56.087 -219.592L-53.737 -220.433L-51.347 -221.26L-48.917 -222.074L-46.449 -222.874L-43.945 -223.658L-41.405 -224.428L-38.833 -225.181L-36.229 -225.919L-33.594 -226.64L-30.931 -227.343L-28.241 -228.029L-25.526 -228.698L-22.786 -229.348L-20.025 -229.979L-17.243 -230.591L-14.443 -231.184L-11.625 -231.757L-8.79201 -232.31L-5.94501 -232.842L-3.086 -233.353L-0.216995 -233.844L2.661 -234.313L5.545 -234.76L8.43401 -235.185L11.327 -235.588L14.221 -235.969L17.115 -236.327L20.008 -236.662L22.896 -236.973L25.779 -237.262L28.655 -237.527L31.522 -237.769L34.379 -237.986L37.223 -238.18L40.053 -238.35L42.868 -238.495L45.665 -238.617L48.443 -238.714L51.2 -238.787L53.934 -238.835L56.645 -238.859L59.33 -238.858L61.987 -238.833L64.616 -238.784L67.214 -238.71L69.78 -238.612L72.312 -238.49L74.809 -238.343L77.27 -238.173L79.692 -237.978L82.075 -237.759L84.417 -237.517L86.716 -237.251L88.971 -236.961L91.181 -236.649L93.345 -236.313L95.461 -235.954L97.527 -235.572L99.544 -235.168L101.508 -234.742L103.421 -234.294L105.279 -233.824L107.082 -233.333L108.829 -232.821L110.518 -232.288L112.15 -231.734L113.723 -231.16L115.235 -230.567L116.686 -229.954L118.076 -229.322L127.158 -225.136L131.505 -223.132L132.985 -222.406L134.394 -221.66L135.732 -220.893L136.997 -220.108L138.188 -219.303L139.306 -218.479L140.349 -217.638L141.316 -216.779L142.208 -215.903L143.024 -215.01L143.762 -214.102L144.423 -213.178L145.006 -212.239L148.64 -205.432L149.156 -204.46L149.591 -203.474L149.946 -202.474L150.22 -201.462L150.414 -200.438L151.826 -190.538L153.238 -180.638L154.65 -170.738L156.062 -160.838L157.474 -150.938L158.886 -141.039L160.298 -131.139L161.71 -121.239L163.122 -111.339L164.534 -101.439L165.946 -91.539L167.358 -81.64L168.769 -71.74L170.181 -61.84L170.637 -58.642L170.751 -57.606L170.783 -56.559L170.735 -55.502L169.628 -45.563L169.537 -44.744L169.411 -43.698L169.205 -42.644L168.92 -41.581L168.557 -40.511L168.114 -39.434L164.066 -30.29L163.832 -29.762" />
    <path fill="none" stroke="black" stroke-width="24" stroke-linecap="round" stroke-linejoin="round" transform="matrix(1 0 0 -1 250 325)" d="M160.402 -33.433L159.995 -34.201L159.457 -35.066L158.848 -35.918L158.167 -36.755L157.416 -37.578L156.594 -38.386L155.702 -39.177L154.74 -39.953L153.71 -40.712L152.612 -41.454L151.446 -42.178L150.213 -42.885L148.914 -43.573L147.549 -44.242L146.121 -44.892L144.628 -45.522L143.073 -46.132L141.456 -46.722L139.778 -47.292L138.04 -47.84L136.244 -48.367L134.389 -48.872L132.479 -49.355L130.513 -49.816L128.492 -50.254L126.419 -50.669L124.293 -51.062L122.118 -51.431L119.893 -51.776L117.62 -52.098L115.3 -52.396L112.936 -52.669L110.528 -52.918L108.078 -53.143L105.587 -53.343L103.057 -53.519L100.489 -53.67L97.885 -53.796L95.246 -53.896L92.574 -53.972L90.096 -54.019L89.871 -54.023L87.138 -54.049L84.377 -54.049L81.59 -54.025L78.778 -53.975L75.943 -53.9L73.086 -53.8L70.21 -53.675L67.315 -53.526L64.405 -53.351L61.48 -53.152L58.543 -52.928L55.594 -52.68L52.637 -52.407L49.672 -52.11L46.701 -51.79L43.727 -51.445L40.751 -51.077L37.775 -50.686L34.8 -50.271L31.829 -49.834L28.863 -49.374L25.904 -48.892L22.953 -48.388L20.013 -47.862L17.086 -47.314L14.173 -46.746L11.275 -46.157L8.395 -45.547L5.534 -44.918L2.69501 -44.268L-0.121994 -43.6L-2.91499 -42.913L-5.681 -42.207L-8.42 -41.483L-11.129 -40.742L-13.807 -39.984L-16.452 -39.209L-19.063 -38.418L-19.945 -38.141L-21.638 -37.611L-24.176 -36.789L-26.675 -35.952L-29.134 -35.101L-31.55 -34.236L-33.923 -33.358L-36.252 -32.467L-38.534 -31.565L-40.768 -30.65L-42.954 -29.725L-45.09 -28.789L-47.173 -27.843L-49.204 -26.888L-51.182 -25.924L-53.103 -24.952L-54.969 -23.973L-56.777 -22.986L-58.527 -21.993L-60.216 -20.994L-61.846 -19.99L-63.413 -18.981L-64.918 -17.968L-66.36 -16.952L-67.737 -15.933L-69.049 -14.912L-70.295 -13.889L-71.474 -12.866L-72.586 -11.842L-73.63 -10.818L-74.605 -9.79599L-75.511 -8.77499L-76.347 -7.755L-77.113 -6.73901L-77.808 -5.72601L-78.431 -4.71701L-78.983 -3.71301L-79.463 -2.71399L-79.871 -1.72101L-80.206 -0.734009L-80.469 0.246002L-80.548 0.653992" />
    <path fill="none" stroke="black" stroke-width="24" stroke-linecap="round" stroke-linejoin="round" transform="matrix(1 0 0 -1 250 325)" d="M90.096 -54.019L93.319 -53.905L97.689 -53.67L101.944 -53.358L103.545 -53.211L107.771 -52.814L111.861 -52.34L115.807 -51.79L119.6 -51.165L123.232 -50.466L126.698 -49.695L129.989 -48.853L132.126 -48.292L135.303 -47.361L138.29 -46.362L141.078 -45.296L143.296 -44.368L145.933 -43.215L148.357 -41.998L150.565 -40.72L152.774 -39.437L154.795 -38.077L156.859 -36.504L158.678 -35.065L160.26 -33.572L160.402 -33.433L162.162 -31.713L163.522 -30.147L163.832 -29.762L165.202 -28.053L166.328 -26.42L167.756 -24.125L168.638 -22.432L169.789 -19.971L170.421 -18.223L171.275 -15.636L171.651 -13.841L172.194 -11.168L172.419 -8.45099L172.535 -6.61899L172.438 -3.897L172.294 -2.03799L171.878 0.644012L171.478 2.51999L170.749 5.121L170.099 7.00601L169.073 9.48401L168.18 11.369L166.875 13.683L165.749 15.561L164.381 17.452L162.841 19.537L161.258 21.408L159.498 23.255L157.713 25.099L155.703 26.945L153.472 28.789L151.607 30.296L149.206 32.099L146.598 33.892L143.788 35.673L141.899 36.805L138.956 38.532L135.826 40.239L132.515 41.923L129.031 43.581L125.381 45.209L121.571 46.804L119.993 47.425L116.122 48.948L112.111 50.433L107.968 51.876L103.7 53.275L99.317 54.627L94.828 55.929L90.241 57.178L85.566 58.372L80.812 59.509L75.989 60.587L71.106 61.602L66.173 62.553L61.201 63.439L56.199 64.257L51.177 65.006L46.146 65.684L41.115 66.289L36.095 66.822L31.096 67.28L26.128 67.662L21.2 67.969L16.323 68.198L11.507 68.351L6.761 68.426L2.095 68.423L-2.48199 68.343L-6.96001 68.185L-11.331 67.95L-15.585 67.638L-17.186 67.491L-21.412 67.094L-25.502 66.62L-29.448 66.07L-33.241 65.445L-36.874 64.746L-40.339 63.975L-43.63 63.133L-45.767 62.572L-48.945 61.641L-51.931 60.642L-54.719 59.575L-56.937 58.648L-59.574 57.495L-61.999 56.278L-64.206 55L-66.415 53.717L-68.436 52.357L-70.5 50.784L-72.319 49.345L-73.901 47.852L-75.804 45.993L-77.164 44.427L-78.843 42.333L-79.969 40.7L-81.397 38.405L-82.28 36.711L-83.43 34.251L-84.062 32.503L-84.917 29.916L-85.292 28.121L-85.836 25.448L-86.06 22.731L-86.176 20.899L-86.079 18.177L-85.936 16.318L-85.519 13.635L-85.119 11.76L-84.391 9.159L-83.741 7.27399L-82.941 5.34299L-82.714 4.79599L-81.821 2.91101L-80.548 0.653992L-80.516 0.596008L-79.39 -1.28101L-78.022 -3.173L-76.482 -5.25699L-74.899 -7.129L-73.139 -8.97501L-71.354 -10.819L-69.344 -12.665L-67.113 -14.509L-65.248 -16.016L-62.847 -17.819L-60.239 -19.612L-57.429 -21.393L-55.54 -22.525L-52.597 -24.252L-49.467 -25.959L-46.157 -27.643L-42.673 -29.301L-39.022 -30.929L-35.212 -32.524L-33.634 -33.145L-29.764 -34.668L-25.752 -36.153L-21.609 -37.596L-19.945 -38.141" />
    <path fill="none" stroke="black" stroke-width="24" stroke-linecap="round" stroke-linejoin="round" transform="matrix(1 0 0 -1 250 325)" d="M-34.683 25.039L-34.916 25.231L-36.25 26.457L-36.389 26.585L-36.394 26.589L-36.413 26.608L-36.505 26.704L-36.607 26.809L-36.636 26.839L-37.149 27.369L-37.706 27.945" />
    <path fill="none" stroke="black" stroke-width="24" stroke-linecap="round" stroke-linejoin="round" transform="matrix(1 0 0 -1 250 325)" d="M152.774 -39.437L150.528 -40.738L148.06 -41.976L145.376 -43.15L142.482 -44.256L139.383 -45.294L136.085 -46.26L132.595 -47.153L128.92 -47.97L125.068 -48.711L121.046 -49.374L116.862 -49.958L112.525 -50.46L108.043 -50.881L103.426 -51.219L98.683 -51.474L93.823 -51.646L88.856 -51.733L83.792 -51.736L78.641 -51.654L73.414 -51.489L68.122 -51.24L62.774 -50.907L57.382 -50.492L51.957 -49.995L46.509 -49.417L41.049 -48.76L35.589 -48.024L30.139 -47.211L24.71 -46.324L19.314 -45.363L13.961 -44.33L8.662 -43.228L3.427 -42.059L-1.73199 -40.825L-6.806 -39.529L-11.784 -38.173L-16.656 -36.76L-21.412 -35.293L-26.044 -33.775L-30.541 -32.208L-34.894 -30.597L-39.095 -28.944L-43.135 -27.253L-47.006 -25.526L-50.701 -23.768L-54.211 -21.983L-57.53 -20.172L-60.651 -18.341L-63.568 -16.493L-66.275 -14.632L-68.766 -12.761L-71.037 -10.884L-73.082 -9.00601L-74.899 -7.129" />
    <path fill="none" stroke="black" stroke-width="24" stroke-linecap="round" stroke-linejoin="round" transform="matrix(1 0 0 -1 250 325)" d="M-29.648 21.577L-31.285 22.614L-33.292 23.995L-34.683 25.039L-35.14 25.382" />
    <path fill="none" stroke="black" stroke-width="24" stroke-linecap="round" stroke-linejoin="round" transform="matrix(1 0 0 -1 250 325)" d="M-14.609 14.307L-17.66 15.585L-18.43 15.928L-20.611 16.9L-23.426 18.24L-26.102 19.601L-28.631 20.981L-29.648 21.577L-31.01 22.376" />
    <path fill="none" stroke="black" stroke-width="24" stroke-linecap="round" stroke-linejoin="round" transform="matrix(1 0 0 -1 250 325)" d="M99.157 -2.276L99.021 -2.28601L95.539 -2.54099L91.821 -2.741L88.012 -2.875L84.119 -2.94299L80.151 -2.94601L76.114 -2.88199L72.018 -2.75201L67.87 -2.55701L63.679 -2.29599L59.453 -1.97101L55.201 -1.58099L50.931 -1.12799L46.652 -0.613007L42.373 -0.0369873L38.101 0.600006L33.847 1.29599L29.618 2.04901L25.423 2.858L21.27 3.72198L17.167 4.638L13.124 5.60501L9.147 6.621L5.246 7.68399L1.427 8.79099L-2.3 9.94101L-5.92999 11.131L-9.45399 12.358L-12.866 13.621L-14.609 14.307L-16.159 14.917" />
    <path fill="none" stroke="black" stroke-width="24" stroke-linecap="round" stroke-linejoin="round" transform="matrix(1 0 0 -1 250 325)" d="M118.928 1.099L117.188 0.653992L116.268 0.417999L113.468 -0.204987L110.532 -0.769989L107.466 -1.27499L104.789 -1.64801L104.278 -1.71899L100.972 -2.103L99.021 -2.28601" />
    <path fill="none" stroke="black" stroke-width="24" stroke-linecap="round" stroke-linejoin="round" transform="matrix(1 0 0 -1 250 325)" d="M123.682 2.84399L122.917 2.55099L121.536 2.02301L119.237 1.254L117.188 0.653992" />
    <path fill="none" stroke="black" stroke-width="24" stroke-linecap="round" stroke-linejoin="round" transform="matrix(1 0 0 -1 250 325)" d="M126.811 4.599L125.993 4.12601L125.321 3.737L125.257 3.69901L125.187 3.659L125.152 3.642L125.043 3.58701L125.011 3.57101L124.892 3.51099L123.404 2.76401L122.917 2.55099" />
    <path fill="none" stroke="black" stroke-width="24" stroke-linecap="round" stroke-linejoin="round" transform="matrix(1 0 0 -1 250 325)" d="M126.026 4.27499L125.879 4.17599L125.444 3.883L125.342 3.814L125.089 3.64301L125.054 3.62L124.892 3.51099" />
    <path fill="none" stroke="black" stroke-width="24" stroke-linecap="round" stroke-linejoin="round" transform="matrix(1 0 0 -1 250 325)" d="M126.273 4.69199L125.774 4.22198L125.342 3.814" />
    <path fill="none" stroke="black" stroke-width="24" stroke-linecap="round" stroke-linejoin="round" transform="matrix(1 0 0 -1 250 325)" d="M125.264 3.862L125.054 3.62" />
    <path fill="none" stroke="black" stroke-width="24" stroke-linecap="round" stroke-linejoin="round" transform="matrix(1 0 0 -1 250 325)" d="M-36.25 26.457L-36.428 26.668L-36.446 26.688L-36.617 26.891L-36.724 27.017L-37.035 27.385L-37.064 27.418" />
    <path fill="none" stroke="black" stroke-width="24" stroke-linecap="round" stroke-linejoin="round" transform="matrix(1 0 0 -1 250 325)" d="M-36.428 26.668L-36.499 26.818" />
  </g>
</svg>