<?xml version='1.0' encoding='utf-8'?>
<svg xmlns="http://www.w3.org/2000/svg" version="1.1" width="500" height="650" viewBox="0 0 500 650">
  <g>
    <path fill="none" stroke="none" transform="matrix(1 0 0 -1 250 325)" d="M-119.643 -27.65L-120.673 -29.092L-121.573 -30.391L-122.395 -31.701L-123.14 -33.022L-123.808 -34.352L-124.396 -35.691L-124.906 -37.037L-125.337 -38.39L-128.261 -47.953L-128.348 -48.239L-128.707 -49.626L-128.985 -51.019L-129.181 -52.416L-129.296 -53.817L-129.615 -63.812L-129.934 -73.807L-130.252 -83.801L-130.571 -93.796L-130.89 -103.791L-131.209 -113.786L-131.528 -123.781L-131.847 -133.776L-132.166 -143.771L-132.485 -153.766L-132.804 -163.761L-133.122 -173.756L-133.441 -183.751L-133.655 -190.453L-133.688 -191.857L-133.64 -193.263L-133.511 -194.67L-133.299 -196.078L-133.007 -197.485L-132.633 -198.89L-132.179 -200.294L-129.776 -207.213L-129.252 -208.586L-128.648 -209.955L-127.967 -211.32L-127.207 -212.679L-126.37 -214.032L-125.456 -215.378L-124.465 -216.716L-123.399 -218.045L-122.257 -219.365L-121.041 -220.674L-119.751 -221.973L-118.388 -223.259L-116.953 -224.533L-115.446 -225.794L-113.869 -227.04L-112.223 -228.271L-110.508 -229.487L-108.726 -230.687L-106.877 -231.869L-104.964 -233.034L-96.319 -238.061L-94.241 -239.269L-92.468 -240.296L-90.638 -241.307L-88.754 -242.299L-86.815 -243.273L-84.823 -244.227L-82.779 -245.163L-80.685 -246.078L-78.541 -246.972L-76.35 -247.845L-74.112 -248.697L-71.828 -249.526L-69.501 -250.332L-67.131 -251.115L-64.72 -251.875L-62.269 -252.61L-59.78 -253.32L-57.254 -254.006L-54.693 -254.666L-52.099 -255.3L-49.472 -255.907L-46.815 -256.489L-44.129 -257.043L-41.416 -257.57L-38.677 -258.069L-35.914 -258.541L-33.129 -258.984L-30.323 -259.399L-27.498 -259.785L-24.656 -260.142L-21.798 -260.469L-18.927 -260.768L-16.043 -261.037L-13.149 -261.276L-10.247 -261.485L-7.33701 -261.665L-4.423 -261.814L-1.505 -261.933L1.414 -262.022L4.334 -262.081L7.25101 -262.109L10.165 -262.107L13.073 -262.074L15.974 -262.012L18.866 -261.918L21.747 -261.795L24.616 -261.642L27.471 -261.458L30.31 -261.244L33.132 -261.001L35.934 -260.728L38.715 -260.425L41.474 -260.093L44.208 -259.732L46.917 -259.342L49.597 -258.924L52.249 -258.476L54.87 -258.001L57.458 -257.498L60.013 -256.967L62.532 -256.409L65.014 -255.824L67.458 -255.213L69.862 -254.575L72.224 -253.911L74.544 -253.222L76.819 -252.508L79.049 -251.77L81.231 -251.007L83.366 -250.221L85.451 -249.411L87.485 -248.579L89.468 -247.725L91.397 -246.848L93.271 -245.951L102.219 -241.485L104.218 -240.488L106.247 -239.464L108.214 -238.417L110.116 -237.349L111.952 -236.26L113.722 -235.15L115.425 -234.021L117.058 -232.872L118.622 -231.705L120.116 -230.52L121.538 -229.318L122.887 -228.1L124.164 -226.867L125.366 -225.618L126.494 -224.356L127.547 -223.08L128.524 -221.792L129.424 -220.492L130.247 -219.181L130.992 -217.86L131.659 -216.529L132.248 -215.19L135.09 -208.431L135.611 -207.057L136.05 -205.676L136.409 -204.289L136.687 -202.896L136.883 -201.499L136.998 -200.098L137.317 -190.103L137.635 -180.108L137.954 -170.113L138.273 -160.118L138.592 -150.123L138.911 -140.128L139.23 -130.133L139.549 -120.139L139.868 -110.144L140.187 -100.149L140.505 -90.154L140.824 -80.159L141.143 -70.164L141.357 -63.461L141.39 -62.057L141.342 -60.651L141.212 -59.244L141.001 -57.837L140.709 -56.43L138.4 -46.7L138.333 -46.417L137.967 -45.04L137.522 -43.664L136.997 -42.292L136.394 -40.923L135.713 -39.559L134.953 -38.201L134.117 -36.848L133.35 -35.616" />
    <path fill="none" stroke="black" stroke-width="24" stroke-linecap="round" stroke-linejoin="round" transform="matrix(1 0 0 -1 250 325)" d="M-119.643 -27.65L-120.673 -29.092L-121.573 -30.391L-122.395 -31.701L-123.14 -33.022L-123.808 -34.352L-124.396 -35.691L-124.906 -37.037L-125.337 -38.39L-128.261 -47.953L-128.348 -48.239L-128.707 -49.626L-128.985 -51.019L-129.181 -52.416L-129.296 -53.817L-129.615 -63.812L-129.934 -73.807L-130.252 -83.801L-130.571 -93.796L-130.89 -103.791L-131.209 -113.786L-131.528 -123.781L-131.847 -133.776L-132.166 -143.771L-132.485 -153.766L-132.804 -163.761L-133.122 -173.756L-133.441 -183.751L-133.655 -190.453L-133.688 -191.857L-133.64 -193.263L-133.511 -194.67L-133.299 -196.078L-133.007 -197.485L-132.633 -198.89L-132.179 -200.294L-129.776 -207.213L-129.252 -208.586L-128.648 -209.955L-127.967 -211.32L-127.207 -212.679L-126.37 -214.032L-125.456 -215.378L-124.465 -216.716L-123.399 -218.045L-122.257 -219.365L-121.041 -220.674L-119.751 -221.973L-118.388 -223.259L-116.953 -224.533L-115.446 -225.794L-113.869 -227.04L-112.223 -228.271L-110.508 -229.487L-108.726 -230.687L-106.877 -231.869L-104.964 -233.034L-96.319 -238.061L-94.241 -239.269L-92.468 -240.296L-90.638 -241.307L-88.754 -242.299L-86.815 -243.273L-84.823 -244.227L-82.779 -245.163L-80.685 -246.078L-78.541 -246.972L-76.35 -247.845L-74.112 -248.697L-71.828 -249.526L-69.501 -250.332L-67.131 -251.115L-64.72 -251.875L-62.269 -252.61L-59.78 -253.32L-57.254 -254.006L-54.693 -254.666L-52.099 -255.3L-49.472 -255.907L-46.815 -256.489L-44.129 -257.043L-41.416 -257.57L-38.677 -258.069L-35.914 -258.541L-33.129 -258.984L-30.323 -259.399L-27.498 -259.785L-24.656 -260.142L-21.798 -260.469L-18.927 -260.768L-16.043 -261.037L-13.149 -261.276L-10.247 -261.485L-7.33701 -261.665L-4.423 -261.814L-1.505 -261.933L1.414 -262.022L4.334 -262.081L7.25101 -262.109L10.165 -262.107L13.073 -262.074L15.974 -262.012L18.866 -261.918L21.747 -261.795L24.616 -261.642L27.471 -261.458L30.31 -261.244L33.132 -261.001L35.934 -260.728L38.715 -260.425L41.474 -260.093L44.208 -259.732L46.917 -259.342L49.597 -258.924L52.249 -258.476L54.87 -258.001L57.458 -257.498L60.013 -256.967L62.532 -256.409L65.014 -255.824L67.458 -255.213L69.862 -254.575L72.224 -253.911L74.544 -253.222L76.819 -252.508L79.049 -251.77L81.231 -251.007L83.366 -250.221L85.451 -249.411L87.485 -248.579L89.468 -247.725L91.397 -246.848L93.271 -245.951L102.219 -241.485L104.218 -240.488L106.247 -239.464L108.214 -238.417L110.116 -237.349L111.952 -236.26L113.722 -235.15L115.425 -234.021L117.058 -232.872L118.622 -231.705L120.116 -230.52L121.538 -229.318L122.887 -228.1L124.164 -226.867L125.366 -225.618L126.494 -224.356L127.547 -223.08L128.524 -221.792L129.424 -220.492L130.247 -219.181L130.992 -217.86L131.659 -216.529L132.248 -215.19L135.09 -208.431L135.611 -207.057L136.05 -205.676L136.409 -204.289L136.687 -202.896L136.883 -201.499L136.998 -200.098L137.317 -190.103L137.635 -180.108L137.954 -170.113L138.273 -160.118L138.592 -150.123L138.911 -140.128L139.23 -130.133L139.549 -120.139L139.868 -110.144L140.187 -100.149L140.505 -90.154L140.824 -80.159L141.143 -70.164L141.357 -63.461L141.39 -62.057L141.342 -60.651L141.212 -59.244L141.001 -57.837L140.709 -56.43L138.4 -46.7L138.333 -46.417L137.967 -45.04L137.522 -43.664L136.997 -42.292L136.394 -40.923L135.713 -39.559L134.953 -38.201L134.117 -36.848L133.35 -35.616" />
    <path fill="none" stroke="black" stroke-width="24" stroke-linecap="round" stroke-linejoin="round" transform="matrix(1 0 0 -1 250 325)" d="M126.364 -46.701L126.28 -46.869L125.593 -48.086L124.835 -49.295L124.005 -50.493L123.105 -51.681L122.134 -52.857L121.095 -54.021L119.986 -55.171L118.809 -56.309L117.565 -57.431L116.254 -58.539L114.878 -59.631L113.436 -60.707L111.93 -61.766L110.361 -62.807L108.729 -63.83L107.036 -64.834L105.283 -65.819L103.47 -66.784L101.6 -67.727L99.672 -68.65L97.688 -69.551L95.65 -70.43L93.558 -71.286L91.414 -72.118L89.219 -72.927L86.974 -73.711L84.681 -74.471L82.341 -75.205L79.956 -75.913L77.527 -76.596L75.055 -77.251L72.542 -77.88L69.989 -78.482L67.399 -79.056L64.772 -79.602L62.11 -80.119L59.415 -80.608L56.688 -81.068L53.931 -81.498L51.146 -81.899L48.334 -82.271L45.497 -82.612L42.637 -82.923L39.756 -83.204L36.854 -83.454L33.935 -83.674L30.999 -83.863L28.049 -84.021L25.085 -84.147L22.111 -84.243L19.128 -84.308L16.137 -84.341L13.141 -84.343L10.141 -84.314L7.13901 -84.254L4.13699 -84.163L1.136 -84.04L-1.86099 -83.887L-4.853 -83.702L-7.83701 -83.487L-10.813 -83.241L-13.778 -82.964L-16.731 -82.657L-19.67 -82.32L-22.593 -81.953L-25.497 -81.556L-28.383 -81.13L-31.247 -80.674L-34.088 -80.189L-36.905 -79.676L-39.695 -79.134L-42.457 -78.564L-45.189 -77.966L-47.891 -77.341L-50.559 -76.689L-53.192 -76.01L-55.789 -75.305L-58.349 -74.575L-60.869 -73.819L-63.349 -73.038L-65.786 -72.233L-68.179 -71.404L-70.528 -70.551L-72.829 -69.675L-75.083 -68.777L-77.287 -67.858L-79.441 -66.917L-81.542 -65.955L-83.591 -64.973L-85.584 -63.972L-87.523 -62.951L-89.404 -61.913L-91.227 -60.856L-92.991 -59.783L-94.696 -58.693L-96.338 -57.587L-97.919 -56.466L-99.437 -55.331L-100.89 -54.182L-102.279 -53.02L-103.602 -51.846L-104.858 -50.66L-106.047 -49.463L-107.169 -48.256L-108.221 -47.039L-109.204 -45.814L-110.117 -44.581L-110.96 -43.34L-111.732 -42.093L-112.432 -40.84L-113.06 -39.582L-113.093 -39.507" />
    <path fill="none" stroke="black" stroke-width="24" stroke-linecap="round" stroke-linejoin="round" transform="matrix(1 0 0 -1 250 325)" d="M7.81599 56.094L2.62199 56.176L-2.56 56.159L-7.72099 56.043L-12.851 55.829L-17.938 55.517L-22.972 55.107L-27.945 54.601L-32.844 53.999L-37.661 53.303L-42.387 52.514L-47.01 51.633L-51.523 50.663L-52.856 50.35L-57.344 49.269L-61.7 48.101L-65.916 46.848L-69.983 45.512L-73.892 44.096L-77.637 42.604L-81.209 41.037L-83.023 40.228L-86.483 38.559L-89.752 36.82L-92.825 35.016L-94.669 33.827L-97.589 31.928L-100.297 29.971L-102.787 27.958L-104.574 26.413L-106.876 24.317L-108.947 22.174L-110.571 20.339L-112.432 18.123L-114.05 15.868L-115.462 13.781L-116.85 11.466L-117.998 9.19299L-119.145 6.828L-120.036 4.436L-120.904 2.00101L-121.542 -0.427002L-122.103 -2.961L-122.482 -5.414L-122.726 -8.004L-122.844 -10.472L-122.766 -13.073L-122.622 -15.545L-122.223 -18.112L-121.819 -20.577L-121.155 -23.037L-120.447 -25.512L-119.643 -27.65L-119.53 -27.949L-118.526 -30.297L-117.364 -32.7L-116.084 -34.88L-114.686 -37.24L-113.093 -39.507L-113.044 -39.578L-111.533 -41.522L-109.673 -43.802L-107.579 -46.05L-105.884 -47.716L-103.594 -49.895L-101.082 -52.034L-98.353 -54.129L-96.573 -55.444L-93.683 -57.455L-90.591 -59.415L-87.302 -61.319L-83.824 -63.164L-82.112 -64.062L-78.523 -65.809L-74.761 -67.491L-70.835 -69.105L-66.753 -70.646L-62.523 -72.113L-58.153 -73.501L-56.814 -73.908L-52.409 -75.188L-47.885 -76.386L-43.251 -77.5L-38.516 -78.529L-33.69 -79.468L-28.783 -80.318L-23.804 -81.075L-18.764 -81.739L-13.672 -82.309L-8.539 -82.782L-3.375 -83.158L1.80901 -83.437L7.00301 -83.617L12.196 -83.699L17.379 -83.682L22.54 -83.567L27.669 -83.353L32.756 -83.04L37.791 -82.631L42.763 -82.125L47.662 -81.523L52.48 -80.827L57.205 -80.037L61.828 -79.157L66.341 -78.187L67.674 -77.873L72.162 -76.792L76.518 -75.624L80.734 -74.371L84.801 -73.035L88.711 -71.62L92.455 -70.127L96.027 -68.561L97.842 -67.752L101.301 -66.082L104.571 -64.344L107.643 -62.54L109.487 -61.35L112.408 -59.452L115.115 -57.494L117.605 -55.481L119.392 -53.936L121.695 -51.841L123.766 -49.697L125.39 -47.862L126.364 -46.701L127.25 -45.646L128.868 -43.391L130.28 -41.305L131.668 -38.989L132.816 -36.717L133.35 -35.616L133.963 -34.351L134.854 -31.959L135.722 -29.525L136.36 -27.097L136.921 -24.563L137.3 -22.109L137.544 -19.519L137.662 -17.051L137.584 -14.45L137.44 -11.978L137.042 -9.41101L136.637 -6.94699L135.973 -4.48599L135.266 -2.01199L134.348 0.425995L133.345 2.77301L132.182 5.177L130.902 7.35699L129.505 9.71701L127.862 12.054L126.351 13.998L124.492 16.278L122.397 18.527L120.702 20.193L118.412 22.372L115.9 24.511L113.171 26.606L111.392 27.921L108.502 29.932L105.409 31.891L102.12 33.796L98.642 35.64L96.931 36.539L93.341 38.286L89.579 39.968L85.654 41.581L81.572 43.123L77.341 44.589L72.972 45.978L71.633 46.384L67.228 47.664L62.703 48.863L58.069 49.977L53.335 51.005L48.509 51.945L43.601 52.794L38.622 53.552L33.582 54.216L28.49 54.785L23.357 55.258L18.194 55.635L13.01 55.914L7.81599 56.094" />
    <path fill="none" stroke="black" stroke-width="24" stroke-linecap="round" stroke-linejoin="round" transform="matrix(1 0 0 -1 250 325)" d="M-71.537 -9.60901L-71.728 -9.33801L-71.734 -9.33099L-71.882 -9.11899L-71.894 -9.10199L-71.964 -9.00201L-71.975 -8.98599L-72.025 -8.91501L-72.132 -8.76401L-72.148 -8.73999L-73.067 -7.19" />
    <path fill="none" stroke="black" stroke-width="24" stroke-linecap="round" stroke-linejoin="round" transform="matrix(1 0 0 -1 250 325)" d="M-70.331 -10.938L-71.317 -9.88L-71.537 -9.60901L-71.726 -9.37799L-71.732 -9.371L-71.865 -9.20801L-71.868 -9.20401L-71.88 -9.189L-71.915 -9.146L-71.924 -9.13501L-71.983 -9.06299L-72.026 -9.01001L-72.58 -8.332" />
    <path fill="none" stroke="black" stroke-width="24" stroke-linecap="round" stroke-linejoin="round" transform="matrix(1 0 0 -1 250 325)" d="M-67.359 -13.434L-68.204 -12.786L-69.946 -11.301L-69.972 -11.28L-69.975 -11.277L-69.987 -11.266L-70.331 -10.938L-71.154 -10.155L-71.188 -10.122L-71.589 -9.741" />
    <path fill="none" stroke="black" stroke-width="24" stroke-linecap="round" stroke-linejoin="round" transform="matrix(1 0 0 -1 250 325)" d="M-60.184 -17.828L-61.24 -17.268L-63.658 -15.867L-65.932 -14.426L-67.359 -13.434L-68.058 -12.947" />
    <path fill="none" stroke="black" stroke-width="24" stroke-linecap="round" stroke-linejoin="round" transform="matrix(1 0 0 -1 250 325)" d="M109.487 -61.35L106.36 -63.186L103.033 -64.956L99.512 -66.655L95.804 -68.281L91.918 -69.83L87.86 -71.299L83.639 -72.685L79.264 -73.986L74.742 -75.198L70.084 -76.32L65.299 -77.349L60.397 -78.282L55.386 -79.119L50.278 -79.858L45.082 -80.496L39.81 -81.033L34.471 -81.467L29.076 -81.798L23.637 -82.025L18.164 -82.148L12.669 -82.165L7.162 -82.079L1.65401 -81.887L-3.843 -81.592L-9.319 -81.193L-14.762 -80.691L-20.161 -80.087L-25.506 -79.383L-30.786 -78.58L-35.989 -77.679L-41.107 -76.682L-46.128 -75.592L-51.042 -74.411L-55.839 -73.14L-60.51 -71.783L-65.045 -70.341L-69.436 -68.819L-73.673 -67.219L-77.747 -65.545L-81.651 -63.799L-85.377 -61.986L-88.917 -60.108L-92.264 -58.17L-95.411 -56.176L-98.353 -54.129" />
    <path fill="none" stroke="black" stroke-width="24" stroke-linecap="round" stroke-linejoin="round" transform="matrix(1 0 0 -1 250 325)" d="M-42.598 -24.786L-45.313 -23.923L-48.57 -22.795L-51.712 -21.608L-54.734 -20.366L-57.629 -19.071L-60.184 -17.828L-60.393 -17.726" />
    <path fill="none" stroke="black" stroke-width="24" stroke-linecap="round" stroke-linejoin="round" transform="matrix(1 0 0 -1 250 325)" d="M56.241 -28.044L55.961 -28.104L52.594 -28.828L48.858 -29.539L45.039 -30.177L41.146 -30.74L37.186 -31.226L33.168 -31.635L29.099 -31.966L24.988 -32.219L20.843 -32.392L16.672 -32.485L12.483 -32.499L8.286 -32.433L4.089 -32.287L-0.100998 -32.061L-4.274 -31.757L-8.422 -31.375L-12.537 -30.915L-16.611 -30.378L-20.635 -29.766L-24.6 -29.079L-28.501 -28.32L-32.327 -27.489L-36.072 -26.589L-39.728 -25.62L-42.598 -24.786L-43.288 -24.586" />
    <path fill="none" stroke="black" stroke-width="24" stroke-linecap="round" stroke-linejoin="round" transform="matrix(1 0 0 -1 250 325)" d="M76.733 -21.189L75.236 -21.846L73.984 -22.395L71.101 -23.544L68.091 -24.634L64.961 -25.662L61.716 -26.626L58.363 -27.526L55.961 -28.104" />
    <path fill="none" stroke="black" stroke-width="24" stroke-linecap="round" stroke-linejoin="round" transform="matrix(1 0 0 -1 250 325)" d="M82.128 -18.166L81.982 -18.251L79.868 -19.492L77.464 -20.771L75.236 -21.846" />
    <path fill="none" stroke="black" stroke-width="24" stroke-linecap="round" stroke-linejoin="round" transform="matrix(1 0 0 -1 250 325)" d="M86.009 -15.216L85.948 -15.265L85.211 -15.861L84.795 -16.197L84.791 -16.201L84.765 -16.222L84.253 -16.636L82.343 -18.016L81.982 -18.251" />
    <path fill="none" stroke="black" stroke-width="24" stroke-linecap="round" stroke-linejoin="round" transform="matrix(1 0 0 -1 250 325)" d="M87.192 -13.883L86.955 -14.128L86.934 -14.15L86.912 -14.172L86.892 -14.193L86.844 -14.243L86.809 -14.279L86.771 -14.318L86.56 -14.537L85.785 -15.338L85.211 -15.861" />
    <path fill="none" stroke="black" stroke-width="24" stroke-linecap="round" stroke-linejoin="round" transform="matrix(1 0 0 -1 250 325)" d="M87.853 -12.781L87.117 -13.807L86.995 -13.977L86.951 -14.038L86.877 -14.142L86.862 -14.163L86.827 -14.212L86.79 -14.262L86.56 -14.537" />
    <path fill="none" stroke="black" stroke-width="24" stroke-linecap="round" stroke-linejoin="round" transform="matrix(1 0 0 -1 250 325)" d="M87.329 -13.388L87.024 -13.896L86.971 -13.984L86.877 -14.142" />
    <path fill="none" stroke="black" stroke-width="24" stroke-linecap="round" stroke-linejoin="round" transform="matrix(1 0 0 -1 250 325)" d="M87.455 -12.687L86.971 -13.984" />
    <path fill="none" stroke="black" stroke-width="24" stroke-linecap="round" stroke-linejoin="round" transform="matrix(1 0 0 -1 250 325)" d="M86.98 -13.628L86.827 -14.212" />
    <path fill="none" stroke="black" stroke-width="24" stroke-linecap="round" stroke-linejoin="round" transform="matrix(1 0 0 -1 250 325)" d="M84.713 -16.117L84.791 -16.201" />
    <path fill="none" stroke="black" stroke-width="24" stroke-linecap="round" stroke-linejoin="round" transform="matrix(1 0 0 -1 250 325)" d="M-71.882 -9.11899L-72.049 -8.103" />
    <path fill="none" stroke="black" stroke-width="24" stroke-linecap="round" stroke-linejoin="round" transform="matrix(1 0 0 -1 250 325)" d="M-71.964 -9.00201L-71.987 -8.95401L-72.053 -8.819L-72.529 -7.83401" />
    <path fill="none" stroke="black" stroke-width="24" stroke-linecap="round" stroke-linejoin="round" transform="matrix(1 0 0 -1 250 325)" d="M-71.728 -9.33801L-71.739 -9.164" />
    <path fill="none" stroke="black" stroke-width="24" stroke-linecap="round" stroke-linejoin="round" transform="matrix(1 0 0 -1 250 325)" d="M-71.987 -8.95401L-72.099 -8.65799" />
  </g>
</svg>