<?xml version='1.0' encoding='utf-8'?>
<svg xmlns="http://www.w3.org/2000/svg" version="1.1" width="500" height="650" viewBox="0 0 500 650">
  <g>
    <path fill="none" stroke="none" transform="matrix(1 0 0 -1 250 325)" d="M-117.156 8.95401L-119.386 5.793L-120.219 4.55099L-120.973 3.29901L-121.65 2.03799L-122.249 0.769012L-122.769 -0.509003L-123.209 -1.793L-126.115 -11.361L-126.232 -11.746L-126.601 -13.063L-126.888 -14.385L-127.095 -15.712L-127.22 -17.042L-127.547 -27.037L-127.875 -37.031L-128.203 -47.026L-128.53 -57.021L-128.858 -67.015L-129.185 -77.01L-129.513 -87.005L-129.84 -96.999L-130.168 -106.994L-130.495 -116.988L-130.823 -126.983L-131.151 -136.978L-131.478 -146.972L-131.745 -155.109L-131.788 -156.443L-131.75 -157.778L-131.631 -159.116L-131.43 -160.454L-131.147 -161.791L-130.784 -163.128L-130.34 -164.463L-127.945 -171.471L-127.43 -172.777L-126.836 -174.08L-126.164 -175.379L-125.414 -176.674L-124.587 -177.962L-123.682 -179.244L-122.701 -180.519L-121.644 -181.786L-120.512 -183.044L-119.305 -184.293L-118.025 -185.531L-116.671 -186.759L-115.245 -187.975L-113.747 -189.178L-112.179 -190.368L-110.542 -191.544L-108.835 -192.706L-107.062 -193.852L-105.221 -194.983L-96.678 -200.18L-94.288 -201.633L-92.579 -202.632L-90.813 -203.614L-88.991 -204.581L-87.113 -205.531L-85.181 -206.464L-83.196 -207.378L-81.159 -208.275L-79.071 -209.152L-76.934 -210.01L-74.748 -210.848L-72.516 -211.665L-70.238 -212.462L-67.916 -213.236L-65.551 -213.989L-63.145 -214.72L-60.699 -215.428L-58.215 -216.112L-55.694 -216.773L-53.137 -217.41L-50.547 -218.022L-47.925 -218.61L-45.271 -219.172L-42.589 -219.709L-39.879 -220.22L-37.143 -220.705L-34.383 -221.163L-31.601 -221.595L-28.798 -222L-25.975 -222.377L-23.135 -222.727L-20.28 -223.05L-17.41 -223.344L-14.528 -223.611L-11.635 -223.849L-8.73399 -224.059L-5.825 -224.241L-2.912 -224.394L0.0059967 -224.518L2.925 -224.614L5.84399 -224.68L8.76199 -224.718L11.676 -224.727L14.585 -224.708L17.487 -224.659L20.38 -224.582L23.263 -224.476L26.134 -224.341L28.99 -224.177L31.831 -223.985L34.655 -223.765L37.46 -223.516L40.243 -223.239L43.005 -222.934L45.742 -222.602L48.454 -222.242L51.138 -221.854L53.794 -221.439L56.418 -220.998L59.011 -220.53L61.57 -220.035L64.093 -219.515L66.58 -218.968L69.028 -218.397L71.437 -217.8L73.805 -217.179L76.13 -216.533L78.41 -215.863L80.646 -215.17L82.835 -214.454L84.975 -213.715L87.066 -212.954L89.107 -212.171L91.096 -211.367L93.031 -210.542L94.913 -209.697L96.739 -208.832L98.509 -207.947L107.374 -203.321L109.855 -202.026L111.765 -201.019L113.61 -199.991L115.388 -198.943L117.099 -197.877L118.742 -196.792L120.314 -195.689L121.817 -194.569L123.247 -193.433L124.606 -192.281L125.892 -191.114L127.104 -189.932L128.241 -188.737L129.303 -187.529L130.289 -186.309L131.199 -185.077L132.031 -183.835L132.787 -182.583L133.464 -181.321L134.062 -180.051L136.911 -173.216L137.442 -171.912L137.892 -170.602L138.26 -169.286L138.548 -167.964L138.755 -166.637L138.88 -165.307L139.207 -155.312L139.535 -145.317L139.862 -135.323L140.19 -125.328L140.517 -115.333L140.845 -105.339L141.172 -95.344L141.5 -85.349L141.828 -75.355L142.155 -65.36L142.483 -55.366L142.81 -45.371L143.138 -35.376L143.404 -27.24L143.448 -25.906L143.41 -24.57L143.29 -23.233L143.089 -21.895L142.807 -20.557L140.534 -10.819L140.443 -10.427L140.087 -9.117L139.651 -7.80801L139.137 -6.50201L138.544 -5.20001L137.872 -3.901L137.122 -2.608L135.042 0.792999" />
    <path fill="none" stroke="black" stroke-width="24" stroke-linecap="round" stroke-linejoin="round" transform="matrix(1 0 0 -1 250 325)" d="M-117.156 8.95401L-119.386 5.793L-120.219 4.55099L-120.973 3.29901L-121.65 2.03799L-122.249 0.769012L-122.769 -0.509003L-123.209 -1.793L-126.115 -11.361L-126.232 -11.746L-126.601 -13.063L-126.888 -14.385L-127.095 -15.712L-127.22 -17.042L-127.547 -27.037L-127.875 -37.031L-128.203 -47.026L-128.53 -57.021L-128.858 -67.015L-129.185 -77.01L-129.513 -87.005L-129.84 -96.999L-130.168 -106.994L-130.495 -116.988L-130.823 -126.983L-131.151 -136.978L-131.478 -146.972L-131.745 -155.109L-131.788 -156.443L-131.75 -157.778L-131.631 -159.116L-131.43 -160.454L-131.147 -161.791L-130.784 -163.128L-130.34 -164.463L-127.945 -171.471L-127.43 -172.777L-126.836 -174.08L-126.164 -175.379L-125.414 -176.674L-124.587 -177.962L-123.682 -179.244L-122.701 -180.519L-121.644 -181.786L-120.512 -183.044L-119.305 -184.293L-118.025 -185.531L-116.671 -186.759L-115.245 -187.975L-113.747 -189.178L-112.179 -190.368L-110.542 -191.544L-108.835 -192.706L-107.062 -193.852L-105.221 -194.983L-96.678 -200.18L-94.288 -201.633L-92.579 -202.632L-90.813 -203.614L-88.991 -204.581L-87.113 -205.531L-85.181 -206.464L-83.196 -207.378L-81.159 -208.275L-79.071 -209.152L-76.934 -210.01L-74.748 -210.848L-72.516 -211.665L-70.238 -212.462L-67.916 -213.236L-65.551 -213.989L-63.145 -214.72L-60.699 -215.428L-58.215 -216.112L-55.694 -216.773L-53.137 -217.41L-50.547 -218.022L-47.925 -218.61L-45.271 -219.172L-42.589 -219.709L-39.879 -220.22L-37.143 -220.705L-34.383 -221.163L-31.601 -221.595L-28.798 -222L-25.975 -222.377L-23.135 -222.727L-20.28 -223.05L-17.41 -223.344L-14.528 -223.611L-11.635 -223.849L-8.73399 -224.059L-5.825 -224.241L-2.912 -224.394L0.0059967 -224.518L2.925 -224.614L5.84399 -224.68L8.76199 -224.718L11.676 -224.727L14.585 -224.708L17.487 -224.659L20.38 -224.582L23.263 -224.476L26.134 -224.341L28.99 -224.177L31.831 -223.985L34.655 -223.765L37.46 -223.516L40.243 -223.239L43.005 -222.934L45.742 -222.602L48.454 -222.242L51.138 -221.854L53.794 -221.439L56.418 -220.998L59.011 -220.53L61.57 -220.035L64.093 -219.515L66.58 -218.968L69.028 -218.397L71.437 -217.8L73.805 -217.179L76.13 -216.533L78.41 -215.863L80.646 -215.17L82.835 -214.454L84.975 -213.715L87.066 -212.954L89.107 -212.171L91.096 -211.367L93.031 -210.542L94.913 -209.697L96.739 -208.832L98.509 -207.947L107.374 -203.321L109.855 -202.026L111.765 -201.019L113.61 -199.991L115.388 -198.943L117.099 -197.877L118.742 -196.792L120.314 -195.689L121.817 -194.569L123.247 -193.433L124.606 -192.281L125.892 -191.114L127.104 -189.932L128.241 -188.737L129.303 -187.529L130.289 -186.309L131.199 -185.077L132.031 -183.835L132.787 -182.583L133.464 -181.321L134.062 -180.051L136.911 -173.216L137.442 -171.912L137.892 -170.602L138.26 -169.286L138.548 -167.964L138.755 -166.637L138.88 -165.307L139.207 -155.312L139.535 -145.317L139.862 -135.323L140.19 -125.328L140.517 -115.333L140.845 -105.339L141.172 -95.344L141.5 -85.349L141.828 -75.355L142.155 -65.36L142.483 -55.366L142.81 -45.371L143.138 -35.376L143.404 -27.24L143.448 -25.906L143.41 -24.57L143.29 -23.233L143.089 -21.895L142.807 -20.557L140.534 -10.819L140.443 -10.427L140.087 -9.117L139.651 -7.80801L139.137 -6.50201L138.544 -5.20001L137.872 -3.901L137.122 -2.608L135.042 0.792999" />
    <path fill="none" stroke="black" stroke-width="24" stroke-linecap="round" stroke-linejoin="round" transform="matrix(1 0 0 -1 250 325)" d="M128.934 -8.62701L128.912 -8.67401L128.288 -9.83701L127.592 -10.991L126.824 -12.136L125.986 -13.271L125.077 -14.396L124.098 -15.51L123.049 -16.611L121.932 -17.7L120.747 -18.776L119.494 -19.838L118.175 -20.886L116.791 -21.918L115.341 -22.935L113.827 -23.935L112.25 -24.918L110.611 -25.884L108.91 -26.831L107.149 -27.76L105.33 -28.669L103.452 -29.559L101.517 -30.428L99.526 -31.277L97.481 -32.103L95.383 -32.909L93.232 -33.691L91.031 -34.451L88.78 -35.188L86.481 -35.9L84.136 -36.589L81.745 -37.253L79.311 -37.892L76.834 -38.505L74.316 -39.093L71.758 -39.655L69.163 -40.19L66.532 -40.699L63.866 -41.18L61.167 -41.634L58.436 -42.061L55.676 -42.459L52.887 -42.83L50.072 -43.172L47.233 -43.485L44.37 -43.77L41.486 -44.026L38.582 -44.252L35.66 -44.45L32.723 -44.618L29.771 -44.757L26.806 -44.866L23.831 -44.945L20.847 -44.995L17.856 -45.016L14.859 -45.006L11.859 -44.967L8.85699 -44.898L5.855 -44.8L2.854 -44.672L-0.141998 -44.515L-3.133 -44.328L-6.117 -44.112L-9.091 -43.867L-12.055 -43.593L-15.006 -43.29L-17.943 -42.959L-20.863 -42.599L-23.765 -42.21L-26.648 -41.794L-29.509 -41.35L-32.348 -40.879L-35.161 -40.38L-37.947 -39.855L-40.706 -39.303L-43.434 -38.725L-46.131 -38.12L-48.795 -37.491L-51.424 -36.836L-54.017 -36.156L-56.571 -35.452L-59.086 -34.725L-61.561 -33.973L-63.992 -33.199L-66.38 -32.402L-68.723 -31.583L-71.018 -30.742L-73.266 -29.881L-75.464 -28.999L-77.611 -28.096L-79.706 -27.175L-81.747 -26.234L-83.734 -25.275L-85.665 -24.298L-87.539 -23.304L-89.355 -22.294L-91.112 -21.267L-92.808 -20.225L-94.443 -19.168L-96.016 -18.098L-97.526 -17.013L-98.971 -15.916L-100.351 -14.807L-101.666 -13.686L-102.914 -12.555L-104.095 -11.413L-105.207 -10.262L-106.251 -9.10199L-107.225 -7.93399L-108.129 -6.759L-108.963 -5.577L-109.726 -4.38901L-110.417 -3.19699L-111.037 -1.99899L-111.475 -1.03601" />
    <path fill="none" stroke="black" stroke-width="24" stroke-linecap="round" stroke-linejoin="round" transform="matrix(1 0 0 -1 250 325)" d="M10.312 90.836L5.119 90.933L-0.0650024 90.937L-5.22701 90.847L-10.359 90.663L-15.449 90.386L-20.487 90.016L-25.464 89.554L-30.369 89.001L-35.192 88.358L-39.924 87.627L-44.554 86.808L-49.074 85.903L-53.475 84.915L-57.748 83.845L-59.264 83.432L-63.49 82.257L-67.567 81.004L-71.488 79.674L-75.244 78.27L-78.828 76.796L-82.233 75.253L-84.111 74.37L-87.394 72.731L-90.48 71.029L-93.363 69.267L-95.257 68.008L-97.979 66.159L-100.484 64.256L-102.767 62.304L-104.589 60.696L-106.676 58.667L-108.528 56.597L-110.177 54.704L-111.812 52.567L-113.226 50.453L-114.631 48.259L-115.785 46.034L-116.945 43.715L-117.854 41.446L-118.724 38.985L-119.38 36.681L-119.944 34.121L-120.341 31.791L-120.588 29.174L-120.724 26.83L-120.649 24.201L-120.523 21.853L-120.128 19.257L-119.741 16.914L-119.095 14.574L-118.39 12.069L-117.49 9.75L-117.156 8.95401L-116.489 7.37L-115.344 5.082L-114.066 2.86801L-112.685 0.621002L-111.475 -1.03601L-111.059 -1.60599L-109.549 -3.58701L-107.706 -5.76001L-105.627 -7.905L-103.932 -9.61099L-101.658 -11.69L-99.162 -13.732L-97.334 -15.128L-94.666 -17.094L-91.79 -19.015L-88.712 -20.889L-85.436 -22.71L-83.655 -23.695L-80.257 -25.427L-76.679 -27.101L-72.929 -28.713L-69.014 -30.261L-64.943 -31.741L-63.417 -32.267L-59.286 -33.646L-55.018 -34.954L-50.622 -36.187L-46.106 -37.342L-41.479 -38.419L-36.751 -39.414L-31.931 -40.325L-27.03 -41.151L-22.055 -41.889L-17.019 -42.54L-11.931 -43.1L-6.8 -43.569L-1.63901 -43.946L3.54401 -44.231L8.73801 -44.422L13.931 -44.52L19.115 -44.524L24.277 -44.434L29.409 -44.25L34.499 -43.973L39.538 -43.603L44.514 -43.141L49.419 -42.588L54.242 -41.945L58.974 -41.213L63.604 -40.394L68.124 -39.49L72.525 -38.502L76.798 -37.432L78.314 -37.018L82.54 -35.844L86.617 -34.59L90.538 -33.26L94.294 -31.857L97.878 -30.382L101.283 -28.84L103.161 -27.956L106.444 -26.317L109.53 -24.615L112.413 -22.854L114.307 -21.595L117.03 -19.745L119.534 -17.843L121.817 -15.891L123.639 -14.282L125.726 -12.254L127.578 -10.183L128.934 -8.62701L129.228 -8.29001L130.862 -6.15399L132.276 -4.039L133.681 -1.845L134.835 0.378998L135.042 0.792999L135.995 2.698L136.904 4.96701L137.774 7.42801L138.43 9.73199L138.994 12.293L139.391 14.622L139.638 17.239L139.774 19.584L139.699 22.212L139.573 24.561L139.178 27.157L138.791 29.5L138.145 31.84L137.44 34.345L136.54 36.664L135.539 39.043L134.394 41.331L133.116 43.545L131.735 45.793L130.109 48.02L128.599 50.001L126.756 52.174L124.677 54.318L122.982 56.025L120.708 58.103L118.212 60.145L116.384 61.541L113.716 63.507L110.841 65.429L107.762 67.302L104.486 69.124L102.705 70.109L99.307 71.841L95.729 73.514L91.979 75.127L88.065 76.675L83.993 78.155L82.467 78.68L78.336 80.06L74.069 81.367L69.672 82.6L65.156 83.756L60.529 84.832L55.801 85.827L50.982 86.738L46.08 87.564L41.105 88.303L36.069 88.953L30.981 89.513L25.85 89.983L20.689 90.36L15.506 90.645L10.312 90.836" />
    <path fill="none" stroke="black" stroke-width="24" stroke-linecap="round" stroke-linejoin="round" transform="matrix(1 0 0 -1 250 325)" d="M-70.072 29.014L-70.076 29.02L-70.083 29.029L-70.26 29.316L-70.99 30.505" />
    <path fill="none" stroke="black" stroke-width="24" stroke-linecap="round" stroke-linejoin="round" transform="matrix(1 0 0 -1 250 325)" d="M-69.202 27.998L-69.273 28.071L-69.865 28.769L-69.871 28.777L-70.072 29.014L-70.075 29.018L-70.192 29.155L-70.25 29.224L-70.524 29.547" />
    <path fill="none" stroke="black" stroke-width="24" stroke-linecap="round" stroke-linejoin="round" transform="matrix(1 0 0 -1 250 325)" d="M-66.803 25.916L-67.952 26.856L-69.202 27.998L-69.556 28.322" />
    <path fill="none" stroke="black" stroke-width="24" stroke-linecap="round" stroke-linejoin="round" transform="matrix(1 0 0 -1 250 325)" d="M-60.942 22.167L-61.678 22.576L-63.943 23.954L-66.058 25.367L-66.505 25.697L-66.519 25.707L-66.532 25.716L-66.803 25.916L-68.019 26.813" />
    <path fill="none" stroke="black" stroke-width="24" stroke-linecap="round" stroke-linejoin="round" transform="matrix(1 0 0 -1 250 325)" d="M114.307 -21.595L111.372 -23.387L108.232 -25.12L104.891 -26.788L101.357 -28.389L97.637 -29.919L93.739 -31.376L89.67 -32.756L85.438 -34.057L81.052 -35.276L76.522 -36.411L71.855 -37.458L67.062 -38.417L62.151 -39.286L57.134 -40.062L52.019 -40.743L46.818 -41.33L41.541 -41.82L36.198 -42.212L30.801 -42.506L25.359 -42.701L19.885 -42.796L14.388 -42.792L8.881 -42.689L3.37399 -42.486L-2.12199 -42.184L-7.59599 -41.784L-13.036 -41.286L-18.432 -40.692L-23.772 -40.003L-29.047 -39.22L-34.245 -38.344L-39.356 -37.378L-44.37 -36.323L-49.276 -35.181L-54.065 -33.956L-58.727 -32.648L-63.252 -31.262L-67.632 -29.799L-71.858 -28.263L-75.921 -26.656L-79.813 -24.983L-83.526 -23.246L-87.053 -21.449L-90.387 -19.595L-93.52 -17.688L-96.447 -15.732L-99.162 -13.732" />
    <path fill="none" stroke="black" stroke-width="24" stroke-linecap="round" stroke-linejoin="round" transform="matrix(1 0 0 -1 250 325)" d="M-47.201 16.23L-49.781 17.168L-52.794 18.359L-55.681 19.6L-58.435 20.889L-60.942 22.167L-61.051 22.222" />
    <path fill="none" stroke="black" stroke-width="24" stroke-linecap="round" stroke-linejoin="round" transform="matrix(1 0 0 -1 250 325)" d="M65.144 12.38L64.87 12.312L61.691 11.516L58.134 10.717L54.481 9.98599L50.739 9.32401L46.915 8.733L43.017 8.21301L39.053 7.767L35.031 7.39301L30.959 7.09399L26.846 6.87L22.699 6.72198L18.526 6.64899L14.337 6.65201L10.14 6.73099L5.94299 6.88599L1.754 7.116L-2.41701 7.42001L-6.563 7.79999L-10.676 8.25201L-14.746 8.77802L-18.766 9.375L-22.727 10.042L-26.623 10.779L-30.444 11.583L-34.183 12.453L-37.832 13.387L-41.385 14.383L-44.834 15.44L-47.201 16.23L-48.173 16.555" />
    <path fill="none" stroke="black" stroke-width="24" stroke-linecap="round" stroke-linejoin="round" transform="matrix(1 0 0 -1 250 325)" d="M81.308 18.262L80.136 17.731L78.687 17.075L75.928 15.939L73.037 14.859L70.019 13.835L66.88 12.871L64.87 12.312" />
    <path fill="none" stroke="black" stroke-width="24" stroke-linecap="round" stroke-linejoin="round" transform="matrix(1 0 0 -1 250 325)" d="M86.234 21.131L85.84 20.891L85.585 20.735L85.572 20.727L85.556 20.716L84.113 19.835L81.843 18.584L80.136 17.731" />
    <path fill="none" stroke="black" stroke-width="24" stroke-linecap="round" stroke-linejoin="round" transform="matrix(1 0 0 -1 250 325)" d="M89.636 23.894L89.293 23.6L89.255 23.568L89.217 23.535L89.197 23.518L89.151 23.479L88.97 23.324L88.924 23.285L88.249 22.707L88.027 22.517L86.26 21.176L85.84 20.891" />
    <path fill="none" stroke="black" stroke-width="24" stroke-linecap="round" stroke-linejoin="round" transform="matrix(1 0 0 -1 250 325)" d="M90.489 25.068L89.51 23.974L89.441 23.896L89.362 23.808L89.326 23.768L89.273 23.709L89.231 23.662L89.16 23.593L88.249 22.707" />
    <path fill="none" stroke="black" stroke-width="24" stroke-linecap="round" stroke-linejoin="round" transform="matrix(1 0 0 -1 250 325)" d="M89.914 24.578L89.533 24.08L89.462 23.987L89.354 23.846L89.3 23.776L89.16 23.593" />
    <path fill="none" stroke="black" stroke-width="24" stroke-linecap="round" stroke-linejoin="round" transform="matrix(1 0 0 -1 250 325)" d="M90.136 25.287L89.462 23.987" />
    <path fill="none" stroke="black" stroke-width="24" stroke-linecap="round" stroke-linejoin="round" transform="matrix(1 0 0 -1 250 325)" d="M89.544 24.386L89.3 23.776" />
    <path fill="none" stroke="black" stroke-width="24" stroke-linecap="round" stroke-linejoin="round" transform="matrix(1 0 0 -1 250 325)" d="M85.242 20.997L85.572 20.727" />
    <path fill="none" stroke="black" stroke-width="24" stroke-linecap="round" stroke-linejoin="round" transform="matrix(1 0 0 -1 250 325)" d="M-70.076 29.02L-70.444 29.754" />
    <path fill="none" stroke="black" stroke-width="24" stroke-linecap="round" stroke-linejoin="round" transform="matrix(1 0 0 -1 250 325)" d="M-69.865 28.769L-69.936 29.2" />
  </g>
</svg>