<?xml version='1.0' encoding='utf-8'?>
<svg xmlns="http://www.w3.org/2000/svg" version="1.1" width="500" height="650" viewBox="0 0 500 650">
  <g>
    <path fill="none" stroke="none" transform="matrix(1 0 0 -1 250 325)" d="M-118.004 200.741L-123.349 192.289L-127.144 186.287L-127.522 185.664L-127.82 185.037L-128.039 184.407L-130.701 174.767L-131.018 173.617L-131.16 172.971L-131.22 172.323L-131.471 162.326L-131.721 152.329L-131.972 142.332L-132.223 132.336L-132.473 122.339L-132.724 112.342L-132.974 102.345L-133.225 92.348L-133.476 82.351L-133.726 72.354L-133.977 62.358L-134.228 52.361L-134.478 42.364L-134.729 32.367L-134.927 24.449L-134.906 23.799L-134.803 23.147L-134.619 22.494L-132.159 14.87L-131.898 14.229L-131.558 13.587L-131.139 12.945L-130.64 12.304L-130.063 11.663L-129.407 11.023L-128.673 10.384L-127.861 9.74799L-119.876 3.728L-114.845 -0.0650024L-114.048 -0.634003L-113.182 -1.20001L-112.248 -1.76401L-111.247 -2.32401L-110.179 -2.88199L-109.044 -3.435L-107.844 -3.98499L-106.578 -4.53L-105.249 -5.07001L-103.856 -5.60599L-102.4 -6.13599L-100.883 -6.66101L-99.305 -7.17899L-97.667 -7.69199L-95.971 -8.19699L-94.216 -8.69601L-92.405 -9.18799L-90.538 -9.672L-88.617 -10.148L-86.642 -10.617L-84.615 -11.077L-82.537 -11.528L-80.409 -11.97L-78.233 -12.404L-76.01 -12.827L-73.741 -13.242L-71.428 -13.646L-69.071 -14.04L-66.673 -14.424L-64.235 -14.797L-61.758 -15.159L-59.244 -15.51L-56.694 -15.85L-54.11 -16.178L-51.494 -16.495L-48.846 -16.799L-46.169 -17.092L-43.465 -17.372L-40.734 -17.64L-37.978 -17.896L-35.2 -18.138L-32.4 -18.368L-29.581 -18.585L-26.744 -18.788L-23.891 -18.979L-21.024 -19.156L-18.144 -19.319L-15.253 -19.469L-12.352 -19.605L-9.44501 -19.728L-6.532 -19.836L-3.614 -19.931L-0.695007 -20.012L2.22501 -20.078L5.14301 -20.131L8.05901 -20.17L10.969 -20.194L13.873 -20.205L16.769 -20.201L19.654 -20.183L22.528 -20.151L25.388 -20.105L28.233 -20.045L31.061 -19.971L33.87 -19.883L36.659 -19.781L39.425 -19.665L42.168 -19.535L44.885 -19.391L47.576 -19.234L50.238 -19.064L52.869 -18.88L55.469 -18.682L58.035 -18.472L60.566 -18.248L63.061 -18.012L65.518 -17.762L67.935 -17.5L70.311 -17.226L72.646 -16.939L74.936 -16.64L77.181 -16.329L79.38 -16.006L81.531 -15.671L83.632 -15.326L85.684 -14.969L87.683 -14.601L89.63 -14.222L91.523 -13.833L93.361 -13.433L95.143 -13.024L96.867 -12.605L98.533 -12.176L100.139 -11.738L101.686 -11.29L103.171 -10.834L104.594 -10.37L105.953 -9.897L107.249 -9.41699L108.481 -8.92899L109.647 -8.43301L110.747 -7.931L111.78 -7.422L112.746 -6.90601L113.644 -6.384L114.474 -5.85699L122.751 -0.243988L127.959 3.28699L128.807 3.88199L129.578 4.48199L130.271 5.08801L130.886 5.69901L131.423 6.314L131.88 6.93399L132.258 7.55801L132.556 8.185L135.395 15.674L135.618 16.317L135.759 16.963L135.819 17.611L136.07 27.608L136.321 37.605L136.571 47.602L136.822 57.599L137.073 67.596L137.323 77.593L137.574 87.589L137.825 97.586L138.075 107.583L138.326 117.58L138.576 127.577L138.827 137.574L139.078 147.571L139.328 157.567L139.527 165.485L139.506 166.135L139.403 166.788L137.227 176.548L136.968 177.714L136.787 178.354L136.527 178.995L136.187 179.637L131.272 188.346L127.712 194.655" />
    <path fill="none" stroke="black" stroke-width="24" stroke-linecap="round" stroke-linejoin="round" transform="matrix(1 0 0 -1 250 325)" d="M127.201 194.129L127.203 194.082L127.149 193.496L127.021 192.913L126.819 192.332L126.544 191.753L126.195 191.179L125.774 190.607L125.28 190.04L124.713 189.477L124.074 188.918L123.363 188.365L122.581 187.817L121.728 187.274L120.804 186.738L119.811 186.207L118.748 185.684L117.617 185.167L116.418 184.657L115.151 184.155L113.819 183.661L112.42 183.175L110.957 182.698L109.43 182.229L107.84 181.769L106.188 181.318L104.475 180.877L103.735 180.698L102.702 180.446L100.869 180.025L98.98 179.614L97.033 179.214L95.031 178.825L92.974 178.446L90.865 178.079L88.704 177.724L86.492 177.38L84.231 177.048L81.922 176.728L79.567 176.421L77.167 176.125L74.723 175.843L72.237 175.574L69.711 175.317L67.145 175.074L64.542 174.844L61.903 174.627L59.23 174.424L56.524 174.235L53.786 174.06L51.02 173.898L48.225 173.751L45.405 173.617L42.56 173.498L39.692 173.393L36.803 173.303L33.895 173.226L30.97 173.164L28.029 173.117L25.074 173.084L22.106 173.066L19.129 173.062L16.143 173.073L13.149 173.098L10.151 173.138L7.14999 173.192L4.14799 173.26L1.145 173.343L-1.855 173.441L-4.85001 173.553L-7.84 173.678L-10.823 173.818L-13.796 173.973L-16.758 174.141L-19.706 174.323L-22.64 174.518L-25.557 174.728L-28.456 174.951L-31.335 175.187L-34.192 175.436L-37.026 175.699L-39.834 175.975L-42.616 176.263L-45.369 176.564L-48.091 176.877L-50.782 177.203L-53.439 177.54L-56.061 177.89L-58.646 178.251L-61.194 178.623L-63.701 179.007L-66.167 179.401L-68.59 179.807L-70.969 180.222L-73.302 180.648L-75.589 181.084L-77.826 181.53L-80.014 181.985L-82.151 182.449L-84.236 182.922L-86.266 183.403L-88.242 183.893L-90.162 184.391L-92.024 184.897L-93.829 185.41L-95.138 185.8L-95.573 185.93L-97.257 186.457L-98.88 186.99L-100.44 187.529L-101.937 188.074L-103.37 188.625L-104.737 189.181L-106.038 189.742L-107.273 190.307L-108.439 190.876L-109.538 191.449L-110.568 192.026L-111.528 192.605L-112.418 193.188L-113.238 193.772L-113.986 194.359L-114.663 194.948L-115.267 195.538L-115.8 196.128L-116.259 196.72L-116.646 197.312L-116.96 197.903L-117.2 198.494L-117.366 199.085L-117.459 199.674L-117.475 200.14" />
    <path fill="none" stroke="black" stroke-width="24" stroke-linecap="round" stroke-linejoin="round" transform="matrix(1 0 0 -1 250 325)" d="M-118.004 200.741L-123.349 192.289L-127.144 186.287L-127.522 185.664L-127.82 185.037L-128.039 184.407L-130.701 174.767L-131.018 173.617L-131.16 172.971L-131.22 172.323L-131.471 162.326L-131.721 152.329L-131.972 142.332L-132.223 132.336L-132.473 122.339L-132.724 112.342L-132.974 102.345L-133.225 92.348L-133.476 82.351L-133.726 72.354L-133.977 62.358L-134.228 52.361L-134.478 42.364L-134.729 32.367L-134.927 24.449L-134.906 23.799L-134.803 23.147L-134.619 22.494L-132.159 14.87L-131.898 14.229L-131.558 13.587L-131.139 12.945L-130.64 12.304L-130.063 11.663L-129.407 11.023L-128.673 10.384L-127.861 9.74799L-119.876 3.728L-114.845 -0.0650024L-114.048 -0.634003L-113.182 -1.20001L-112.248 -1.76401L-111.247 -2.32401L-110.179 -2.88199L-109.044 -3.435L-107.844 -3.98499L-106.578 -4.53L-105.249 -5.07001L-103.856 -5.60599L-102.4 -6.13599L-100.883 -6.66101L-99.305 -7.17899L-97.667 -7.69199L-95.971 -8.19699L-94.216 -8.69601L-92.405 -9.18799L-90.538 -9.672L-88.617 -10.148L-86.642 -10.617L-84.615 -11.077L-82.537 -11.528L-80.409 -11.97L-78.233 -12.404L-76.01 -12.827L-73.741 -13.242L-71.428 -13.646L-69.071 -14.04L-66.673 -14.424L-64.235 -14.797L-61.758 -15.159L-59.244 -15.51L-56.694 -15.85L-54.11 -16.178L-51.494 -16.495L-48.846 -16.799L-46.169 -17.092L-43.465 -17.372L-40.734 -17.64L-37.978 -17.896L-35.2 -18.138L-32.4 -18.368L-29.581 -18.585L-26.744 -18.788L-23.891 -18.979L-21.024 -19.156L-18.144 -19.319L-15.253 -19.469L-12.352 -19.605L-9.44501 -19.728L-6.532 -19.836L-3.614 -19.931L-0.695007 -20.012L2.22501 -20.078L5.14301 -20.131L8.05901 -20.17L10.969 -20.194L13.873 -20.205L16.769 -20.201L19.654 -20.183L22.528 -20.151L25.388 -20.105L28.233 -20.045L31.061 -19.971L33.87 -19.883L36.659 -19.781L39.425 -19.665L42.168 -19.535L44.885 -19.391L47.576 -19.234L50.238 -19.064L52.869 -18.88L55.469 -18.682L58.035 -18.472L60.566 -18.248L63.061 -18.012L65.518 -17.762L67.935 -17.5L70.311 -17.226L72.646 -16.939L74.936 -16.64L77.181 -16.329L79.38 -16.006L81.531 -15.671L83.632 -15.326L85.684 -14.969L87.683 -14.601L89.63 -14.222L91.523 -13.833L93.361 -13.433L95.143 -13.024L96.867 -12.605L98.533 -12.176L100.139 -11.738L101.686 -11.29L103.171 -10.834L104.594 -10.37L105.953 -9.897L107.249 -9.41699L108.481 -8.92899L109.647 -8.43301L110.747 -7.931L111.78 -7.422L112.746 -6.90601L113.644 -6.384L114.474 -5.85699L122.751 -0.243988L127.959 3.28699L128.807 3.88199L129.578 4.48199L130.271 5.08801L130.886 5.69901L131.423 6.314L131.88 6.93399L132.258 7.55801L132.556 8.185L135.395 15.674L135.618 16.317L135.759 16.963L135.819 17.611L136.07 27.608L136.321 37.605L136.571 47.602L136.822 57.599L137.073 67.596L137.323 77.593L137.574 87.589L137.825 97.586L138.075 107.583L138.326 117.58L138.576 127.577L138.827 137.574L139.078 147.571L139.328 157.567L139.527 165.485L139.506 166.135L139.403 166.788L137.227 176.548L136.968 177.714L136.787 178.354L136.527 178.995L136.187 179.637L131.272 188.346L127.712 194.655" />
    <path fill="none" stroke="black" stroke-width="24" stroke-linecap="round" stroke-linejoin="round" transform="matrix(1 0 0 -1 250 325)" d="M103.735 180.698L105.233 181.189L107.712 182.022L109.984 182.881L112.044 183.765L114.406 184.885L116.29 185.811L117.949 186.757L120.23 188.198L121.689 189.183L123.81 190.905L125.056 191.924L126.981 193.902L127.201 194.129L127.712 194.655L128.001 194.953L129.698 197.157L130.48 198.237L131.921 200.636L132.456 201.739L133.617 204.298L134.477 206.973L134.76 208.103L135.31 210.864L135.542 213.67L135.564 214.812L135.473 217.626L135.062 220.411L134.823 221.554L134.097 224.268L133.066 226.882L132.574 228.011L131.255 230.478L130.515 231.596L128.931 233.881L127.093 235.969L126.13 237.053L124.079 238.897L122.894 239.958L121.473 241.014L119.269 242.567L117.648 243.595L115.801 244.613L113.5 245.849L111.476 246.834L109.239 247.805L106.794 248.761L104.51 249.639L101.922 250.556L99.142 251.454L96.173 252.331L93.023 253.185L89.697 254.016L87.674 254.482L84.264 255.267L80.697 256.025L76.979 256.755L73.119 257.454L69.123 258.123L64.999 258.759L60.757 259.362L56.404 259.929L51.95 260.46L47.403 260.953L42.773 261.409L38.068 261.825L33.299 262.201L28.474 262.537L23.604 262.831L18.699 263.083L13.767 263.292L8.82001 263.458L3.867 263.581L-1.08099 263.661L-6.01601 263.697L-10.926 263.689L-15.803 263.637L-20.636 263.541L-25.415 263.402L-30.131 263.22L-34.774 262.995L-39.336 262.728L-43.806 262.418L-48.177 262.068L-52.438 261.677L-56.581 261.246L-60.599 260.776L-64.483 260.269L-68.225 259.725L-71.818 259.144L-73.78 258.795L-77.302 258.165L-80.657 257.5L-83.837 256.803L-86.836 256.074L-89.648 255.315L-92.269 254.528L-94.597 253.764L-97.076 252.931L-99.348 252.072L-101.408 251.189L-103.77 250.068L-105.654 249.143L-107.313 248.196L-109.594 246.755L-111.053 245.77L-113.174 244.049L-114.42 243.029L-116.345 241.052L-117.365 240L-119.062 237.796L-119.844 236.716L-121.285 234.318L-121.82 233.214L-122.981 230.655L-123.841 227.98L-124.124 226.851L-124.674 224.089L-124.906 221.284L-124.928 220.141L-124.837 217.327L-124.426 214.542L-124.187 213.399L-123.461 210.685L-122.43 208.071L-121.938 206.943L-120.619 204.475L-119.879 203.358L-118.295 201.072L-118.004 200.741L-117.475 200.14L-116.457 198.985L-115.494 197.9L-113.442 196.057L-112.258 194.995L-110.837 193.939L-108.633 192.386L-107.012 191.358L-105.165 190.34L-102.864 189.104L-100.84 188.119L-98.603 187.148L-96.158 186.192L-95.138 185.8" />
    <path fill="none" stroke="black" stroke-width="24" stroke-linecap="round" stroke-linejoin="round" transform="matrix(1 0 0 -1 250 325)" d="M123.81 190.905L122.324 189.903L120.602 188.921L118.647 187.96L116.463 187.024L114.054 186.113L111.425 185.229L108.581 184.375L105.529 183.551L102.274 182.76L98.823 182.003L95.182 181.282L91.36 180.598L87.364 179.953L83.201 179.347L78.881 178.783L74.412 178.26L69.802 177.781L65.062 177.346L60.201 176.956L55.228 176.612L50.154 176.315L44.988 176.065L39.742 175.862L34.426 175.707L29.05 175.601L23.625 175.543L18.163 175.534L12.674 175.574L7.16901 175.663L1.66 175.8L-3.843 175.985L-9.32899 176.217L-14.786 176.498L-20.203 176.825L-25.57 177.198L-30.875 177.616L-36.108 178.079L-41.259 178.586L-46.317 179.135L-51.272 179.726L-56.114 180.357L-60.833 181.027L-65.42 181.734L-69.865 182.478L-74.16 183.257L-78.295 184.068L-82.263 184.912L-86.055 185.785L-89.665 186.686L-93.084 187.614L-96.306 188.565L-99.324 189.54L-102.132 190.535L-104.724 191.548L-107.096 192.578L-109.243 193.622L-111.159 194.679L-112.842 195.745L-114.288 196.82L-115.494 197.9" />
    <path fill="none" stroke="black" stroke-width="24" stroke-linecap="round" stroke-linejoin="round" transform="matrix(1 0 0 -1 250 325)" d="M75.657 226.526L75.573 226.513L72.435 226.006L69.079 225.518L65.596 225.063L61.993 224.642L58.277 224.255L54.455 223.905L50.536 223.59L46.527 223.313L42.436 223.073L38.272 222.871L34.043 222.708L30.356 222.601L29.757 222.583L25.423 222.498L21.049 222.451L16.646 222.444L12.221 222.476L7.783 222.547L3.341 222.658L-1.09599 222.807L-5.51801 222.995L-9.91701 223.22L-14.284 223.484L-18.611 223.785L-19.437 223.85L-22.888 224.122L-27.107 224.496L-31.26 224.904L-35.338 225.347L-39.332 225.823L-43.236 226.332L-47.04 226.872L-50.738 227.442L-54.321 228.042L-57.784 228.669L-61.118 229.324L-64.317 230.004L-65.375 230.247L-67.374 230.708" />
  </g>
</svg>