<?xml version='1.0' encoding='utf-8'?>
<svg xmlns="http://www.w3.org/2000/svg" version="1.1" width="500" height="650" viewBox="0 0 500 650">
  <g>
    <path fill="none" stroke="none" transform="matrix(1 0 0 -1 250 325)" d="M-115.986 201.72L-121.417 193.324L-125.3 187.319L-125.678 186.699L-125.976 186.073L-126.195 185.444L-128.955 175.833L-129.285 174.686L-129.426 174.04L-129.487 173.391L-129.839 163.397L-130.192 153.404L-130.545 143.41L-130.898 133.416L-131.251 123.422L-131.604 113.429L-131.956 103.435L-132.309 93.441L-132.662 83.447L-133.015 73.453L-133.368 63.46L-133.721 53.466L-134.073 43.472L-134.426 33.478L-134.705 25.571L-134.684 24.92L-134.581 24.266L-134.397 23.609L-132.016 15.963L-131.755 15.318L-131.415 14.672L-130.996 14.024L-130.498 13.377L-129.92 12.729L-129.265 12.082L-128.531 11.435L-127.719 10.79L-119.796 4.689L-114.811 0.851013L-114.015 0.273987L-113.149 -0.302002L-112.216 -0.876007L-111.215 -1.44699L-110.147 -2.01599L-109.013 -2.58099L-107.813 -3.14401L-106.548 -3.702L-105.219 -4.25699L-103.826 -4.80701L-102.371 -5.35199L-100.854 -5.892L-99.277 -6.427L-97.64 -6.95599L-95.943 -7.48001L-94.19 -7.996L-92.379 -8.50699L-90.513 -9.01001L-88.592 -9.50601L-86.618 -9.99399L-84.592 -10.475L-82.514 -10.947L-80.387 -11.411L-78.212 -11.867L-75.989 -12.313L-73.721 -12.75L-71.408 -13.178L-69.053 -13.595L-66.655 -14.003L-64.218 -14.401L-61.742 -14.788L-59.229 -15.164L-56.68 -15.529L-54.096 -15.884L-51.481 -16.226L-48.834 -16.557L-46.158 -16.877L-43.454 -17.184L-40.724 -17.479L-37.969 -17.762L-35.192 -18.032L-32.393 -18.29L-29.575 -18.535L-26.739 -18.766L-23.886 -18.985L-21.02 -19.19L-18.141 -19.382L-15.251 -19.561L-12.351 -19.725L-9.444 -19.877L-6.532 -20.014L-3.616 -20.137L-0.697006 -20.247L2.222 -20.342L5.14 -20.424L8.054 -20.491L10.964 -20.544L13.867 -20.583L16.762 -20.607L19.646 -20.618L22.519 -20.614L25.378 -20.596L28.222 -20.563L31.049 -20.517L33.858 -20.456L36.645 -20.381L39.411 -20.292L42.153 -20.189L44.87 -20.072L47.559 -19.941L50.22 -19.796L52.851 -19.637L55.45 -19.465L58.016 -19.279L60.546 -19.08L63.04 -18.868L65.496 -18.642L67.913 -18.403L70.289 -18.151L72.622 -17.887L74.912 -17.61L77.156 -17.32L79.354 -17.018L81.505 -16.704L83.606 -16.379L85.657 -16.041L87.656 -15.692L89.602 -15.332L91.495 -14.961L93.332 -14.578L95.113 -14.186L96.837 -13.782L98.502 -13.369L100.108 -12.946L101.654 -12.513L103.139 -12.071L104.561 -11.62L105.921 -11.16L107.217 -10.691L108.448 -10.214L109.613 -9.729L110.713 -9.237L111.746 -8.737L112.712 -8.23001L113.61 -7.716L114.439 -7.19501L122.773 -1.66901L128.024 1.81299L128.872 2.39999L129.643 2.99399L130.337 3.59399L130.951 4.20001L131.487 4.811L131.945 5.42801L132.323 6.04901L132.621 6.67401L135.536 14.135L135.759 14.777L135.901 15.422L135.961 16.071L136.314 26.065L136.667 36.059L137.02 46.052L137.372 56.046L137.725 66.04L138.078 76.034L138.431 86.027L138.784 96.021L139.137 106.015L139.489 116.009L139.842 126.003L140.195 135.996L140.548 145.99L140.901 155.984L141.18 163.891L141.159 164.543L141.056 165.197L138.98 174.979L138.733 176.145L138.552 176.789L138.292 177.433L137.952 178.079L133.127 186.838L129.664 193.125" />
    <path fill="none" stroke="black" stroke-width="24" stroke-linecap="round" stroke-linejoin="round" transform="matrix(1 0 0 -1 250 325)" d="M129.148 192.597L129.094 192.02L128.966 191.436L128.765 190.856L128.49 190.28L128.141 189.707L127.72 189.139L127.226 188.576L126.659 188.017L126.02 187.464L125.309 186.916L124.527 186.375L123.674 185.84L122.751 185.312L121.758 184.79L120.696 184.276L119.565 183.769L118.366 183.271L117.1 182.78L115.767 182.298L114.369 181.825L112.907 181.361L111.38 180.907L109.79 180.461L108.139 180.026L106.426 179.601L105.505 179.386L104.653 179.187L102.822 178.783L100.932 178.39L98.986 178.008L96.985 177.638L94.929 177.279L92.82 176.932L90.659 176.597L88.448 176.274L86.188 175.963L83.879 175.666L81.525 175.381L79.125 175.109L76.682 174.85L74.197 174.604L71.671 174.372L69.107 174.154L66.504 173.949L63.866 173.758L61.194 173.58L58.488 173.417L55.752 173.268L52.986 173.134L50.192 173.013L47.373 172.907L44.528 172.816L41.662 172.739L38.774 172.676L35.867 172.628L32.942 172.595L30.002 172.576L27.047 172.572L24.081 172.583L21.104 172.608L18.119 172.648L15.127 172.703L12.13 172.772L9.129 172.856L6.12801 172.954L3.12601 173.066L0.126999 173.193L-2.868 173.334L-5.85699 173.49L-8.838 173.659L-11.811 173.843L-14.771 174.04L-17.719 174.251L-20.652 174.476L-23.569 174.714L-26.467 174.966L-29.345 175.231L-32.201 175.509L-35.034 175.8L-37.841 176.103L-40.622 176.419L-43.374 176.748L-46.096 177.088L-48.785 177.441L-51.442 177.805L-54.063 178.181L-56.648 178.567L-59.194 178.965L-61.7 179.374L-64.166 179.794L-66.588 180.223L-68.966 180.663L-71.299 181.112L-73.584 181.571L-75.821 182.04L-78.009 182.517L-80.145 183.003L-82.229 183.497L-84.259 183.999L-86.234 184.509L-88.153 185.027L-90.015 185.551L-91.819 186.083L-93.197 186.508L-93.563 186.621L-95.246 187.165L-96.869 187.715L-98.428 188.271L-99.925 188.832L-101.356 189.397L-102.723 189.967L-104.024 190.542L-105.258 191.12L-106.425 191.702L-107.523 192.286L-108.552 192.874L-109.512 193.464L-110.402 194.056L-111.221 194.65L-111.969 195.245L-112.645 195.841L-113.25 196.438L-113.782 197.035L-114.242 197.632L-114.628 198.228L-114.941 198.824L-115.181 199.419L-115.348 200.012L-115.441 200.603L-115.457 201.108" />
    <path fill="none" stroke="black" stroke-width="24" stroke-linecap="round" stroke-linejoin="round" transform="matrix(1 0 0 -1 250 325)" d="M-115.986 201.72L-121.417 193.324L-125.3 187.319L-125.678 186.699L-125.976 186.073L-126.195 185.444L-128.955 175.833L-129.285 174.686L-129.426 174.04L-129.487 173.391L-129.839 163.397L-130.192 153.404L-130.545 143.41L-130.898 133.416L-131.251 123.422L-131.604 113.429L-131.956 103.435L-132.309 93.441L-132.662 83.447L-133.015 73.453L-133.368 63.46L-133.721 53.466L-134.073 43.472L-134.426 33.478L-134.705 25.571L-134.684 24.92L-134.581 24.266L-134.397 23.609L-132.016 15.963L-131.755 15.318L-131.415 14.672L-130.996 14.024L-130.498 13.377L-129.92 12.729L-129.265 12.082L-128.531 11.435L-127.719 10.79L-119.796 4.689L-114.811 0.851013L-114.015 0.273987L-113.149 -0.302002L-112.216 -0.876007L-111.215 -1.44699L-110.147 -2.01599L-109.013 -2.58099L-107.813 -3.14401L-106.548 -3.702L-105.219 -4.25699L-103.826 -4.80701L-102.371 -5.35199L-100.854 -5.892L-99.277 -6.427L-97.64 -6.95599L-95.943 -7.48001L-94.19 -7.996L-92.379 -8.50699L-90.513 -9.01001L-88.592 -9.50601L-86.618 -9.99399L-84.592 -10.475L-82.514 -10.947L-80.387 -11.411L-78.212 -11.867L-75.989 -12.313L-73.721 -12.75L-71.408 -13.178L-69.053 -13.595L-66.655 -14.003L-64.218 -14.401L-61.742 -14.788L-59.229 -15.164L-56.68 -15.529L-54.096 -15.884L-51.481 -16.226L-48.834 -16.557L-46.158 -16.877L-43.454 -17.184L-40.724 -17.479L-37.969 -17.762L-35.192 -18.032L-32.393 -18.29L-29.575 -18.535L-26.739 -18.766L-23.886 -18.985L-21.02 -19.19L-18.141 -19.382L-15.251 -19.561L-12.351 -19.725L-9.444 -19.877L-6.532 -20.014L-3.616 -20.137L-0.697006 -20.247L2.222 -20.342L5.14 -20.424L8.054 -20.491L10.964 -20.544L13.867 -20.583L16.762 -20.607L19.646 -20.618L22.519 -20.614L25.378 -20.596L28.222 -20.563L31.049 -20.517L33.858 -20.456L36.645 -20.381L39.411 -20.292L42.153 -20.189L44.87 -20.072L47.559 -19.941L50.22 -19.796L52.851 -19.637L55.45 -19.465L58.016 -19.279L60.546 -19.08L63.04 -18.868L65.496 -18.642L67.913 -18.403L70.289 -18.151L72.622 -17.887L74.912 -17.61L77.156 -17.32L79.354 -17.018L81.505 -16.704L83.606 -16.379L85.657 -16.041L87.656 -15.692L89.602 -15.332L91.495 -14.961L93.332 -14.578L95.113 -14.186L96.837 -13.782L98.502 -13.369L100.108 -12.946L101.654 -12.513L103.139 -12.071L104.561 -11.62L105.921 -11.16L107.217 -10.691L108.448 -10.214L109.613 -9.729L110.713 -9.237L111.746 -8.737L112.712 -8.23001L113.61 -7.716L114.439 -7.19501L122.773 -1.66901L128.024 1.81299L128.872 2.39999L129.643 2.99399L130.337 3.59399L130.951 4.20001L131.487 4.811L131.945 5.42801L132.323 6.04901L132.621 6.67401L135.536 14.135L135.759 14.777L135.901 15.422L135.961 16.071L136.314 26.065L136.667 36.059L137.02 46.052L137.372 56.046L137.725 66.04L138.078 76.034L138.431 86.027L138.784 96.021L139.137 106.015L139.489 116.009L139.842 126.003L140.195 135.996L140.548 145.99L140.901 155.984L141.18 163.891L141.159 164.543L141.056 165.197L138.98 174.979L138.733 176.145L138.552 176.789L138.292 177.433L137.952 178.079L133.127 186.838L129.664 193.125" />
    <path fill="none" stroke="black" stroke-width="24" stroke-linecap="round" stroke-linejoin="round" transform="matrix(1 0 0 -1 250 325)" d="M105.505 179.386L107.161 179.91L109.639 180.721L111.91 181.559L113.97 182.424L116.345 183.521L118.229 184.429L119.887 185.361L122.184 186.779L123.643 187.751L125.782 189.451L127.028 190.461L128.974 192.419L129.148 192.597L129.664 193.125L129.993 193.462L131.714 195.649L132.496 196.723L133.961 199.107L134.496 200.207L135.684 202.755L136.572 205.421L136.854 206.549L137.433 209.305L137.693 212.108L137.715 213.253L137.653 216.067L137.27 218.856L137.031 220.003L136.334 222.724L135.33 225.347L134.838 226.483L133.545 228.963L132.805 230.089L131.245 232.39L129.429 234.495L128.466 235.591L126.434 237.454L125.25 238.529L123.83 239.601L121.643 241.175L120.022 242.221L118.176 243.258L115.89 244.517L113.866 245.523L111.63 246.518L109.186 247.499L106.914 248.4L104.327 249.343L101.547 250.27L98.579 251.177L95.43 252.064L92.105 252.928L90.091 253.414L86.682 254.233L83.116 255.027L79.4 255.795L75.54 256.534L71.546 257.243L67.424 257.92L63.183 258.565L58.831 259.176L54.378 259.751L49.833 260.29L45.204 260.792L40.5 261.255L35.732 261.678L30.909 262.062L26.041 262.404L21.137 262.704L16.207 262.962L11.262 263.177L6.31 263.349L1.36301 263.477L-3.57001 263.561L-8.479 263.601L-13.354 263.597L-18.186 263.549L-22.963 263.456L-27.678 263.32L-32.32 263.14L-36.881 262.917L-41.35 262.651L-45.719 262.343L-49.979 261.993L-54.121 261.602L-58.138 261.171L-62.021 260.7L-65.762 260.192L-69.353 259.646L-71.323 259.316L-74.844 258.72L-78.198 258.087L-81.377 257.419L-84.375 256.719L-87.187 255.986L-89.806 255.223L-92.145 254.483L-94.624 253.672L-96.895 252.834L-98.954 251.969L-101.33 250.872L-103.213 249.964L-104.872 249.032L-107.168 247.614L-108.628 246.642L-110.767 244.941L-112.012 243.932L-113.958 241.974L-114.978 240.931L-116.698 238.744L-117.48 237.67L-118.946 235.286L-119.481 234.186L-120.668 231.638L-121.556 228.972L-121.839 227.844L-122.417 225.088L-122.677 222.285L-122.699 221.14L-122.638 218.326L-122.255 215.537L-122.016 214.39L-121.318 211.669L-120.314 209.046L-119.822 207.91L-118.529 205.43L-117.789 204.304L-116.229 202.003L-115.986 201.72L-115.457 201.108L-114.413 199.898L-113.45 198.802L-111.419 196.939L-110.234 195.864L-108.814 194.792L-106.628 193.218L-105.007 192.172L-103.161 191.135L-100.874 189.876L-98.851 188.87L-96.615 187.875L-94.171 186.894L-93.197 186.508" />
    <path fill="none" stroke="black" stroke-width="24" stroke-linecap="round" stroke-linejoin="round" transform="matrix(1 0 0 -1 250 325)" d="M125.782 189.451L124.297 188.462L122.575 187.496L120.621 186.553L118.437 185.636L116.029 184.747L113.4 183.888L110.558 183.06L107.506 182.264L104.252 181.504L100.802 180.78L97.162 180.093L93.341 179.445L89.346 178.838L85.184 178.272L80.865 177.749L76.397 177.27L71.789 176.835L67.05 176.445L62.19 176.103L57.219 175.807L52.146 175.558L46.982 175.358L41.738 175.207L36.423 175.104L31.049 175.05L25.626 175.045L20.165 175.09L14.677 175.183L9.174 175.326L3.666 175.517L-1.83501 175.756L-7.319 176.043L-12.774 176.377L-18.189 176.758L-23.555 177.184L-28.858 177.655L-34.09 178.17L-39.24 178.728L-44.296 179.328L-49.249 179.968L-54.09 180.647L-58.807 181.365L-63.393 182.118L-67.836 182.907L-72.13 183.729L-76.264 184.583L-80.231 185.466L-84.022 186.378L-87.63 187.316L-91.048 188.279L-94.269 189.264L-97.286 190.269L-100.093 191.293L-102.685 192.333L-105.056 193.388L-107.201 194.455L-109.117 195.532L-110.8 196.617L-112.245 197.708L-113.45 198.802" />
    <path fill="none" stroke="black" stroke-width="24" stroke-linecap="round" stroke-linejoin="round" transform="matrix(1 0 0 -1 250 325)" d="M78.074 225.529L77.835 225.492L74.853 225.039L71.498 224.583L68.016 224.161L64.414 223.774L60.699 223.424L56.879 223.11L52.961 222.833L48.953 222.595L44.864 222.395L40.7 222.233L36.472 222.111L33.216 222.048L32.188 222.028L27.855 221.985L23.483 221.981L19.08 222.017L14.657 222.093L10.22 222.207L5.78 222.361L1.34399 222.554L-3.076 222.786L-7.474 223.055L-11.84 223.362L-16.166 223.706L-17.807 223.851L-20.442 224.085L-24.659 224.501L-28.811 224.95L-32.887 225.434L-36.881 225.95L-40.783 226.498L-44.586 227.076L-48.283 227.683L-51.865 228.319L-55.326 228.982L-58.659 229.67L-61.857 230.382L-62.947 230.644L-64.914 231.117" />
  </g>
</svg>